<?xml version="1.0" encoding="utf-8"?>
<svg version="1.1" xmlns:xlink="http://www.w3.org/1999/xlink" width="104px" height="104px" xmlns="http://www.w3.org/2000/svg">
  <g transform="matrix(1 0 0 1 -341 -225 )">
    <path d="M 346 277  A 47 47 0 0 1 393 230 A 47 47 0 0 1 440 277 A 47 47 0 0 1 393 324 A 47 47 0 0 1 346 277 Z " fill-rule="nonzero" fill="#ffffff" stroke="none" fill-opacity="0" />
    <path d="M 343.5 277  A 49.5 49.5 0 0 1 393 227.5 A 49.5 49.5 0 0 1 442.5 277 A 49.5 49.5 0 0 1 393 326.5 A 49.5 49.5 0 0 1 343.5 277 Z " stroke-width="5" stroke="#ffc328" fill="none" stroke-opacity="0.2" />
  </g>
</svg>