<?xml version="1.0" encoding="utf-8"?>
<svg version="1.1" xmlns:xlink="http://www.w3.org/1999/xlink" width="104px" height="104px" xmlns="http://www.w3.org/2000/svg">
  <g transform="matrix(1 0 0 1 -486 -225 )">
    <path d="M 491 277  A 47 47 0 0 1 538 230 A 47 47 0 0 1 585 277 A 47 47 0 0 1 538 324 A 47 47 0 0 1 491 277 Z " fill-rule="nonzero" fill="#ffffff" stroke="none" fill-opacity="0" />
    <path d="M 488.5 277  A 49.5 49.5 0 0 1 538 227.5 A 49.5 49.5 0 0 1 587.5 277 A 49.5 49.5 0 0 1 538 326.5 A 49.5 49.5 0 0 1 488.5 277 Z " stroke-width="5" stroke="#1ac9ff" fill="none" stroke-opacity="0.2" />
  </g>
</svg>