<?xml version="1.0" encoding="utf-8"?>
<svg version="1.1" xmlns:xlink="http://www.w3.org/1999/xlink" width="478px" height="116px" xmlns="http://www.w3.org/2000/svg">
  <g transform="matrix(1 0 0 1 -106 -516 )">
    <path d="M 1 116  L 1 17.9436531927263  C 0.168460795130116 17.9436531927263  47.9768750903684 1.58458600037943  66.1980366941344 15.6089782687436  C 84.4191982979007 29.6333705371076  120.733964370174 50.6571182275719  133.728284772662 44.7924148185274  C 146.72260517515 38.9277114094828  187.105693526109 12.1618307434831  202.759205030711 10.939628420778  C 218.412716535314 9.71742609807313  245.37829492916 -7.89886354083842  273.290797468285 30.7843652746311  C 301.203300007409 69.4675940901006  335.831310549898 83.7032744390851  340.821045546812 83.3145510642421  C 356.674146451291 82.0806753669173  393.899820536534 63.0378993494523  409.851965804861 55.2984519764497  C 425.804111073189 47.559004603447  477.382213883389 0.433591262855884  477 0.433591262855884  L 477 116  L 1 116  Z " fill-rule="nonzero" fill="#1ac9ff" stroke="none" fill-opacity="0.4" transform="matrix(1 0 0 1 106 516 )" />
  </g>
</svg>