<?xml version="1.0" encoding="utf-8"?>
<svg version="1.1" xmlns:xlink="http://www.w3.org/1999/xlink" width="479px" height="155px" xmlns="http://www.w3.org/2000/svg">
  <g transform="matrix(1 0 0 1 -106 -478 )">
    <path d="M 1 154  L 1 73.0330863901602  C 0.167233975551852 73.0330863901602  31.756078038436 40.313740177829  67.6263257954928 40.313740177829  C 103.496573552549 40.313740177829  112.057881849964 67.5981692746763  135.085417615434 104.58388452348  C 158.112953380903 141.569599772283  189.286549256362 119.16385890531  204.043600364707 95.2354998913851  C 218.800651473051 71.3071408774598  258.715446557446 74.9027633165792  273.00178311398 81.212922943243  C 287.288119670514 87.5230825699069  316.872679160881 106.092480093484  341.959965863253 76.5387306271957  C 367.047252565624 46.9849811609075  394.102845658208 24.4214863032682  410.918148612526 15.7742305185807  C 427.733451566843 7.12697473389323  474.403150378807 0.798118337965036  478 0.583105491426863  L 478 154  L 1 154  Z " fill-rule="nonzero" fill="#ffa06c" stroke="none" fill-opacity="0.4" transform="matrix(1 0 0 1 106 478 )" />
  </g>
</svg>