<?xml version="1.0" encoding="utf-8"?>
<svg version="1.1" xmlns:xlink="http://www.w3.org/1999/xlink" width="195px" height="205px" xmlns="http://www.w3.org/2000/svg">
  <defs>
    <mask fill="white" id="clip667">
      <path d="M 37.61 20.135  C 37.61 20.135  96.75 0.75  96.75 0.75  C 96.75 0.75  157.39 20.135  157.39 20.135  C 157.39 20.135  194.25 70.885  194.25 70.885  C 194.25 70.885  194.25 134.115  194.25 134.115  C 194.25 134.115  157.39 184.865  157.39 184.865  C 157.39 184.865  96.75 204.25  96.75 204.25  C 96.75 204.25  37.61 184.865  37.61 184.865  C 37.61 184.865  0.75 134.115  0.75 134.115  C 0.75 134.115  0.75 70.885  0.75 70.885  C 0.75 70.885  37.61 20.135  37.61 20.135  Z " fill-rule="evenodd" />
    </mask>
  </defs>
  <g transform="matrix(1 0 0 1 -87 -780 )">
    <path d="M 37.61 20.135  C 37.61 20.135  96.75 0.75  96.75 0.75  C 96.75 0.75  157.39 20.135  157.39 20.135  C 157.39 20.135  194.25 70.885  194.25 70.885  C 194.25 70.885  194.25 134.115  194.25 134.115  C 194.25 134.115  157.39 184.865  157.39 184.865  C 157.39 184.865  96.75 204.25  96.75 204.25  C 96.75 204.25  37.61 184.865  37.61 184.865  C 37.61 184.865  0.75 134.115  0.75 134.115  C 0.75 134.115  0.75 70.885  0.75 70.885  C 0.75 70.885  37.61 20.135  37.61 20.135  Z " fill-rule="nonzero" fill="#ffffff" stroke="none" fill-opacity="0" transform="matrix(1 0 0 1 87 780 )" />
    <path d="M 37.61 20.135  C 37.61 20.135  96.75 0.75  96.75 0.75  C 96.75 0.75  157.39 20.135  157.39 20.135  C 157.39 20.135  194.25 70.885  194.25 70.885  C 194.25 70.885  194.25 134.115  194.25 134.115  C 194.25 134.115  157.39 184.865  157.39 184.865  C 157.39 184.865  96.75 204.25  96.75 204.25  C 96.75 204.25  37.61 184.865  37.61 184.865  C 37.61 184.865  0.75 134.115  0.75 134.115  C 0.75 134.115  0.75 70.885  0.75 70.885  C 0.75 70.885  37.61 20.135  37.61 20.135  Z " stroke-width="2" stroke="#ffffff" fill="none" stroke-opacity="0.498039215686275" transform="matrix(1 0 0 1 87 780 )" mask="url(#clip667)" />
  </g>
</svg>