<?xml version="1.0" encoding="utf-8"?>
<svg version="1.1" xmlns:xlink="http://www.w3.org/1999/xlink" width="45px" height="48px" xmlns="http://www.w3.org/2000/svg">
  <defs>
    <mask fill="white" id="clip670">
      <path d="M 8.96199999999999 5.143  C 8.96199999999999 5.143  22.75 0.75  22.75 0.75  C 22.75 0.75  36.038 5.143  36.038 5.143  C 36.038 5.143  44.25 16.643  44.25 16.643  C 44.25 16.643  44.25 31.357  44.25 31.357  C 44.25 31.357  36.038 42.857  36.038 42.857  C 36.038 42.857  22.75 47.25  22.75 47.25  C 22.75 47.25  8.96199999999999 42.857  8.96199999999999 42.857  C 8.96199999999999 42.857  0.75 31.357  0.75 31.357  C 0.75 31.357  0.75 16.643  0.75 16.643  C 0.75 16.643  8.96199999999999 5.143  8.96199999999999 5.143  Z " fill-rule="evenodd" />
    </mask>
  </defs>
  <g transform="matrix(1 0 0 1 -162 -857 )">
    <path d="M 8.96199999999999 5.143  C 8.96199999999999 5.143  22.75 0.75  22.75 0.75  C 22.75 0.75  36.038 5.143  36.038 5.143  C 36.038 5.143  44.25 16.643  44.25 16.643  C 44.25 16.643  44.25 31.357  44.25 31.357  C 44.25 31.357  36.038 42.857  36.038 42.857  C 36.038 42.857  22.75 47.25  22.75 47.25  C 22.75 47.25  8.96199999999999 42.857  8.96199999999999 42.857  C 8.96199999999999 42.857  0.75 31.357  0.75 31.357  C 0.75 31.357  0.75 16.643  0.75 16.643  C 0.75 16.643  8.96199999999999 5.143  8.96199999999999 5.143  Z " fill-rule="nonzero" fill="#ffffff" stroke="none" fill-opacity="0" transform="matrix(1 0 0 1 162 857 )" />
    <path d="M 8.96199999999999 5.143  C 8.96199999999999 5.143  22.75 0.75  22.75 0.75  C 22.75 0.75  36.038 5.143  36.038 5.143  C 36.038 5.143  44.25 16.643  44.25 16.643  C 44.25 16.643  44.25 31.357  44.25 31.357  C 44.25 31.357  36.038 42.857  36.038 42.857  C 36.038 42.857  22.75 47.25  22.75 47.25  C 22.75 47.25  8.96199999999999 42.857  8.96199999999999 42.857  C 8.96199999999999 42.857  0.75 31.357  0.75 31.357  C 0.75 31.357  0.75 16.643  0.75 16.643  C 0.75 16.643  8.96199999999999 5.143  8.96199999999999 5.143  Z " stroke-width="1" stroke="#ffffff" fill="none" stroke-opacity="0.498039215686275" transform="matrix(1 0 0 1 162 857 )" mask="url(#clip670)" />
  </g>
</svg>