<svg t="1635775181965" class="icon" viewBox="0 0 1024 1024" version="1.1" xmlns="http://www.w3.org/2000/svg" p-id="2064" width="24" height="24"><path d="M575.28 573.46c105.21-27.05 182.95-121.75 182.95-234.35C758.23 205.44 648.69 97 513.67 97c-135.02 0-244.56 108.44-244.56 242.11 0 112.2 77.19 206.61 181.84 234.05C250.66 598.57 97 747.27 97 927h69.25c2.8-158.1 156.37-285.56 345.29-285.56 188.93 0 342.35 127.46 345.16 285.56H927c0-179.03-152.57-327.27-351.72-353.54zM337.42 339.11c0-96.43 78.86-174.48 176.25-174.48 97.26 0 176.24 78.06 176.24 174.48 0 96.41-78.99 174.47-176.24 174.47-97.26 0-176.25-78.06-176.25-174.47z" p-id="2065" fill="#ffffff"></path></svg>