<svg t="1635775302100" class="icon" viewBox="0 0 1024 1024" version="1.1" xmlns="http://www.w3.org/2000/svg" p-id="5433" width="24" height="24"><path d="M829.44 143.36H194.56A128.2048 128.2048 0 0 0 66.56 271.36v389.12A128.2048 128.2048 0 0 0 194.56 788.48h634.88a128.2048 128.2048 0 0 0 128-128v-389.12A128.2048 128.2048 0 0 0 829.44 143.36z m76.8 517.12A76.8 76.8 0 0 1 829.44 737.28H194.56a76.8 76.8 0 0 1-76.8-76.8v-389.12A76.8 76.8 0 0 1 194.56 194.56h634.88a76.8 76.8 0 0 1 76.8 76.8zM711.68 829.44h-389.12a25.6 25.6 0 0 0 0 51.2h389.12a25.6 25.6 0 0 0 0-51.2z" fill="#ffffff" p-id="5434"></path><path d="M773.12 286.72h-112.64a25.6 25.6 0 0 0 0 51.2h51.2l-174.08 174.08-95.6416-95.744a25.8048 25.8048 0 0 0-36.2496 0L227.6352 593.92a25.6 25.6 0 0 0 36.2496 36.2496l159.9488-159.9488 95.6416 95.744a25.8048 25.8048 0 0 0 36.2496 0L747.52 374.1696v51.2a25.6 25.6 0 0 0 51.2 0v-112.64A25.6 25.6 0 0 0 773.12 286.72z" fill="#ffffff" p-id="5435"></path></svg>