<?xml version="1.0" encoding="utf-8"?>
<svg version="1.1" xmlns:xlink="http://www.w3.org/1999/xlink" width="147px" height="147px" xmlns="http://www.w3.org/2000/svg">
  <g transform="matrix(1 0 0 1 -212 -189 )">
    <path d="M 146.978056426332 73.7523510971787  C 146.978056426332 114.195736677116  114.192601880878 146.981191222571  73.7492163009404 146.981191222571  C 33.3058307210031 146.981191222571  0.520376175548589 114.195736677116  0.520376175548589 73.7523510971787  C 0.520376175548589 33.3089655172414  33.3058307210031 0.523510971786833  73.7492163009404 0.523510971786833  C 114.192601880878 0.523510971786833  146.978056426332 33.3089655172414  146.978056426332 73.7523510971787  Z M 129.924764890282 73.2507836990596  C 129.924764890282 42.5026959247649  104.998871473354 17.576802507837  74.2507836990596 17.576802507837  C 43.5026959247649 17.576802507837  18.576802507837 42.5026959247649  18.576802507837 73.2507836990596  C 18.576802507837 103.998871473354  43.5026959247649 128.924764890282  74.2507836990596 128.924764890282  C 104.998871473354 128.924764890282  129.924764890282 103.998871473354  129.924764890282 73.2507836990596  Z " fill-rule="nonzero" fill="#3addf4" stroke="none" transform="matrix(1 0 0 1 212 189 )" />
  </g>
</svg>