<?xml version="1.0" encoding="utf-8"?>
<svg version="1.1" xmlns:xlink="http://www.w3.org/1999/xlink" width="147px" height="147px" xmlns="http://www.w3.org/2000/svg">
  <defs>
    <linearGradient gradientUnits="userSpaceOnUse" x1="-13.8902960479443" y1="25.058746167474" x2="160.890296047944" y2="121.941253832526" id="LinearGradient1129">
      <stop id="Stop1130" stop-color="#b039ff" offset="0" />
      <stop id="Stop1131" stop-color="#b039ff" offset="0.01" />
      <stop id="Stop1132" stop-color="#4980fe" offset="0.32" />
      <stop id="Stop1133" stop-color="#3cebed" offset="0.72" />
      <stop id="Stop1134" stop-color="#3cebed" offset="1" />
    </linearGradient>
  </defs>
  <g transform="matrix(1 0 0 1 -212 -189 )">
    <path d="M 76.6332288401254 0.596739811912226  L 72.2856426332288 17.6269592476489  C 42.4494043887147 18.6642006269592  18.576802507837 43.1617554858934  18.576802507837 73.2507836990596  C 18.576802507837 103.998871473354  43.5026959247649 128.924764890282  74.2507836990596 128.924764890282  C 104.998871473354 128.924764890282  129.924764890282 103.998871473354  129.924764890282 73.2507836990596  C 129.924764890282 64.591724137931  127.947586206897 56.3951097178683  124.420564263323 49.0862695924765  L 135.818181818182 34.9089655172414  C 142.880250783699 46.1701567398119  146.978056426332 59.4797492163009  146.978056426332 73.7523510971787  C 146.978056426332 114.195736677116  114.192601880878 146.981191222571  73.7492163009404 146.981191222571  C 33.3058307210031 146.981191222571  0.520376175548589 114.195736677116  0.520376175548589 73.7523510971787  C 0.520376175548589 33.3089655172414  33.3058307210031 0.523510971786833  73.7492163009404 0.523510971786833  C 74.7162382445141 0.523510971786833  75.6752351097179 0.55962382445141  76.6332288401254 0.596739811912226  Z " fill-rule="nonzero" fill="url(#LinearGradient1129)" stroke="none" transform="matrix(1 0 0 1 212 189 )" />
  </g>
</svg>