<?xml version="1.0" encoding="utf-8"?>
<svg version="1.1" xmlns:xlink="http://www.w3.org/1999/xlink" width="133px" height="133px" xmlns="http://www.w3.org/2000/svg">
  <defs>
    <mask fill="white" id="clip1128">
      <path d="M 0.0407523510971775 66.7554858934169  C 0.0407523510971775 30.4670846394984  30.4608150470219 0.0470219435736663  66.7492163009404 0.0470219435736663  C 103.037617554859 0.0470219435736663  132.454545454545 30.4670846394984  132.454545454545 66.7554858934169  C 132.454545454545 103.043887147335  103.037617554859 132.460815047022  66.7492163009404 132.460815047022  C 30.4608150470219 132.460815047022  0.0407523510971775 103.043887147335  0.0407523510971775 66.7554858934169  Z " fill-rule="evenodd" />
    </mask>
  </defs>
  <g transform="matrix(1 0 0 1 -219 -197 )">
    <path d="M 0.0407523510971775 66.7554858934169  C 0.0407523510971775 30.4670846394984  30.4608150470219 0.0470219435736663  66.7492163009404 0.0470219435736663  C 103.037617554859 0.0470219435736663  132.454545454545 30.4670846394984  132.454545454545 66.7554858934169  C 132.454545454545 103.043887147335  103.037617554859 132.460815047022  66.7492163009404 132.460815047022  C 30.4608150470219 132.460815047022  0.0407523510971775 103.043887147335  0.0407523510971775 66.7554858934169  Z " fill-rule="nonzero" fill="#ffffff" stroke="none" fill-opacity="0" transform="matrix(1 0 0 1 219 197 )" />
    <path d="M 0.0407523510971775 66.7554858934169  C 0.0407523510971775 30.4670846394984  30.4608150470219 0.0470219435736663  66.7492163009404 0.0470219435736663  C 103.037617554859 0.0470219435736663  132.454545454545 30.4670846394984  132.454545454545 66.7554858934169  C 132.454545454545 103.043887147335  103.037617554859 132.460815047022  66.7492163009404 132.460815047022  C 30.4608150470219 132.460815047022  0.0407523510971775 103.043887147335  0.0407523510971775 66.7554858934169  Z " stroke-width="2.00626959247649" stroke-dasharray="3.00940438871473,1.00313479623824" stroke="#3addf4" fill="none" transform="matrix(1 0 0 1 219 197 )" mask="url(#clip1128)" />
  </g>
</svg>