<?xml version="1.0" encoding="utf-8"?>
<svg version="1.1" xmlns:xlink="http://www.w3.org/1999/xlink" width="160px" height="160px" xmlns="http://www.w3.org/2000/svg">
  <defs>
    <mask fill="white" id="clip1135">
      <path d="M 0 80.2507836990596  C 0 36.4840125391849  36.4840125391849 0  80.2507836990596 0  C 124.01855799373 0  159.498432601881 36.4840125391849  159.498432601881 80.2507836990596  C 159.498432601881 124.017554858934  124.01855799373 159.498432601881  80.2507836990596 159.498432601881  C 36.4840125391849 159.498432601881  0 124.017554858934  0 80.2507836990596  Z " fill-rule="evenodd" />
    </mask>
  </defs>
  <g transform="matrix(1 0 0 1 -206 -182 )">
    <path d="M 0 80.2507836990596  C 0 36.4840125391849  36.4840125391849 0  80.2507836990596 0  C 124.01855799373 0  159.498432601881 36.4840125391849  159.498432601881 80.2507836990596  C 159.498432601881 124.017554858934  124.01855799373 159.498432601881  80.2507836990596 159.498432601881  C 36.4840125391849 159.498432601881  0 124.017554858934  0 80.2507836990596  Z " fill-rule="nonzero" fill="#ffffff" stroke="none" fill-opacity="0" transform="matrix(1 0 0 1 206 182 )" />
    <path d="M 0 80.2507836990596  C 0 36.4840125391849  36.4840125391849 0  80.2507836990596 0  C 124.01855799373 0  159.498432601881 36.4840125391849  159.498432601881 80.2507836990596  C 159.498432601881 124.017554858934  124.01855799373 159.498432601881  80.2507836990596 159.498432601881  C 36.4840125391849 159.498432601881  0 124.017554858934  0 80.2507836990596  Z " stroke-width="2.00626959247649" stroke="#3addf4" fill="none" transform="matrix(1 0 0 1 206 182 )" mask="url(#clip1135)" />
  </g>
</svg>