<?xml version="1.0" encoding="utf-8"?>
<svg version="1.1" xmlns:xlink="http://www.w3.org/1999/xlink" width="167px" height="169px" xmlns="http://www.w3.org/2000/svg">
  <g transform="matrix(1 0 0 1 -1472 -504 )">
    <path d="M 23.499 141.758  L 31.517 135.56  C 44.791 149.388  63.391 158  84 158  C 121.913 158  153.068 128.897  156.649 91.671  L 166.646 90.206  C 163.692 133.703  127.781 168.069  83.886 168.069  C 60.08 168.069  38.631 157.947  23.499 141.758  Z M 83 11.026  C 43.14 11.573  11 44.249  11 84.5  C 11 103.969  18.532 121.656  30.804 134.807  L 22.786 141.004  C 9.20399999999999 126.109  0.905000000000001 106.241  0.905000000000001 84.413  C 0.905000000000001 38.515  37.575 1.268  83 0.781000000000001  L 83 11.026  Z M 166.866 84.413  C 166.866 86.004  166.813 87.582  166.726 89.15  L 156.729 90.614  C 156.894 88.596  157 86.561  157 84.5  C 157 43.907  124.317 11  84 11  C 83.967 11  83.934 11.002  84 11.003  L 84 0.757999999999999  C 129.723 0.766999999999999  166.866 38.217  166.866 84.413  Z " fill-rule="nonzero" fill="#3addf4" stroke="none" transform="matrix(1 0 0 1 1472 504 )" />
  </g>
</svg>