<?xml version="1.0" encoding="utf-8"?>
<svg version="1.1" xmlns:xlink="http://www.w3.org/1999/xlink" width="146px" height="148px" xmlns="http://www.w3.org/2000/svg">
  <g transform="matrix(1 0 0 1 -1483 -515 )">
    <path d="M 20.543 124.206  L 27.551 118.772  C 39.16 130.902  55.426 138.456  73.449 138.456  C 106.605 138.456  133.851 112.928  136.982 80.272  L 145.732 78.987  C 143.146 117.139  111.74 147.283  73.353 147.283  C 52.534 147.283  33.777 138.405  20.543 124.206  Z M 72.574 9.531  C 37.721 10.006  9.608 38.671  9.608 73.982  C 9.608 91.06  16.195 106.576  26.927 118.111  L 19.92 123.544  C 8.04000000000001 110.478  0.781000000000006 93.048  0.781000000000006 73.9  C 0.781000000000006 33.636  32.854 0.962  72.574 0.536999999999999  L 72.574 9.531  Z M 145.925 73.9  C 145.925 75.297  145.878 76.683  145.802 78.06  L 137.052 79.346  C 137.196 77.576  137.289 75.79  137.289 73.982  C 137.289 38.375  108.707 9.509  73.449 9.509  C 73.421 9.509  73.394 9.511  73.367 9.511  L 73.367 0.518000000000001  C 113.441 0.524999999999999  145.925 33.377  145.925 73.9  Z " fill-rule="nonzero" fill="#3addf4" stroke="none" transform="matrix(1 0 0 1 1483 515 )" />
  </g>
</svg>