<svg 
 xmlns="http://www.w3.org/2000/svg"
 xmlns:xlink="http://www.w3.org/1999/xlink"
 width="13px" height="18px">
<path fill-rule="evenodd"  fill="rgb(254, 255, 254)"
 d="M6.500,18.000 C2.907,18.000 0.000,14.960 0.000,11.218 C0.000,10.034 0.586,8.512 1.631,6.695 C2.048,5.971 2.531,5.213 3.068,4.432 C3.725,3.482 4.412,2.554 5.130,1.650 C5.416,1.290 5.706,0.934 6.001,0.582 L6.071,0.500 L6.500,0.000 L6.929,0.500 L6.999,0.582 C7.054,0.648 7.118,0.724 7.190,0.811 C7.420,1.088 7.646,1.368 7.870,1.650 C8.588,2.554 9.275,3.482 9.932,4.432 C10.469,5.213 10.952,5.971 11.369,6.695 C12.414,8.512 13.000,10.034 13.000,11.218 C13.000,14.960 10.093,18.000 6.500,18.000 ZM10.386,7.283 C9.986,6.588 9.519,5.856 8.998,5.099 C8.357,4.170 7.685,3.264 6.983,2.381 C6.824,2.180 6.662,1.979 6.500,1.780 C6.337,1.979 6.176,2.179 6.017,2.381 C5.315,3.264 4.643,4.170 4.002,5.099 C3.481,5.856 3.014,6.588 2.614,7.283 C1.664,8.935 1.140,10.297 1.140,11.218 C1.140,14.325 3.543,16.838 6.500,16.838 C9.457,16.838 11.860,14.325 11.860,11.218 C11.860,10.297 11.336,8.935 10.386,7.283 ZM6.500,16.381 C3.754,16.381 1.528,14.031 1.528,11.133 C1.528,8.235 4.112,9.703 6.500,11.133 C8.898,12.570 11.472,8.235 11.472,11.133 C11.472,14.031 9.246,16.381 6.500,16.381 Z"/>
</svg>