<svg 
 xmlns="http://www.w3.org/2000/svg"
 xmlns:xlink="http://www.w3.org/1999/xlink"
 width="14px" height="16px">
<path fill-rule="evenodd"  fill="rgb(254, 255, 254)"
 d="M13.003,15.001 C13.003,15.555 12.554,16.000 12.004,16.000 L2.002,16.000 C1.449,16.000 1.002,15.552 1.002,15.001 L-0.000,2.993 C-0.000,2.439 0.450,1.994 1.000,1.994 L1.000,2.993 L1.999,15.003 L12.001,15.003 L13.001,2.993 L13.001,1.994 C13.553,1.994 14.000,2.442 14.000,2.993 L13.003,15.001 ZM11.004,10.370 L11.004,10.862 C10.274,11.247 9.068,11.084 8.650,10.620 C8.460,10.937 7.069,11.484 5.826,10.620 C4.572,11.494 3.002,10.840 3.002,10.840 L3.002,9.903 C3.951,10.631 4.927,10.470 5.826,9.903 C7.175,10.601 7.688,10.481 8.650,9.903 C9.296,10.514 10.483,10.541 11.004,9.903 C11.004,9.903 11.001,10.370 11.004,10.370 L11.004,10.370 ZM11.004,8.382 L11.004,8.998 C10.277,9.324 9.068,8.982 8.650,8.594 C8.460,8.860 7.069,9.321 5.826,8.594 C4.572,9.330 3.002,8.998 3.002,8.998 L3.002,7.991 C3.951,8.604 4.927,8.469 5.826,7.991 C7.175,8.577 7.688,8.477 8.650,7.991 C9.296,8.504 10.483,8.529 11.004,7.991 C11.004,7.988 11.001,8.382 11.004,8.382 L11.004,8.382 ZM9.494,4.012 C8.666,4.012 7.994,3.338 7.994,2.507 C7.994,1.676 9.494,-0.000 9.494,-0.000 C9.494,-0.000 10.993,1.679 10.993,2.507 C10.993,3.335 10.322,4.012 9.494,4.012 L9.494,4.012 ZM7.492,7.013 C6.664,7.013 5.992,6.339 5.992,5.508 C5.992,4.677 7.492,3.001 7.492,3.001 C7.492,3.001 8.991,4.677 8.991,5.508 C8.991,6.339 8.322,7.013 7.492,7.013 L7.492,7.013 ZM11.004,12.776 C10.277,13.165 9.068,12.999 8.650,12.535 C8.460,12.852 7.069,13.398 5.826,12.535 C4.572,13.409 3.002,12.755 3.002,12.755 L3.002,11.818 C3.951,12.545 4.927,12.385 5.826,11.818 C7.175,12.516 7.688,12.396 8.650,11.818 C9.296,12.429 10.483,12.456 11.004,11.818 L11.004,12.776 ZM4.493,5.011 C3.665,5.011 2.994,4.338 2.994,3.506 C2.994,2.675 4.493,1.000 4.493,1.000 C4.493,1.000 5.992,2.675 5.992,3.506 C5.992,4.338 5.321,5.011 4.493,5.011 L4.493,5.011 Z"/>
</svg>