<svg 
 xmlns="http://www.w3.org/2000/svg"
 xmlns:xlink="http://www.w3.org/1999/xlink"
 width="13px" height="19px">
<path fill-rule="evenodd"  fill="rgb(254, 255, 254)"
 d="M5.295,12.222 L5.295,6.910 C5.295,6.436 4.896,6.047 4.412,6.047 C3.928,6.047 3.530,6.436 3.530,6.910 L3.530,12.222 C2.516,12.567 1.765,13.517 1.765,14.683 C1.765,16.107 2.957,17.273 4.412,17.273 C5.868,17.273 7.060,16.107 7.060,14.683 C7.060,13.559 6.309,12.609 5.295,12.222 L5.295,12.222 ZM7.060,11.227 L7.060,2.590 C7.060,1.166 5.868,-0.000 4.412,-0.000 C2.957,-0.000 1.765,1.166 1.765,2.590 L1.765,11.227 C0.705,12.003 -0.000,13.256 -0.000,14.680 C-0.000,17.054 1.986,19.000 4.416,19.000 C6.846,19.000 8.825,17.058 8.825,14.683 C8.825,13.256 8.120,12.006 7.060,11.227 L7.060,11.227 ZM4.409,18.137 C2.466,18.137 0.876,16.581 0.876,14.680 C0.876,13.385 1.584,12.306 2.641,11.700 L2.641,2.590 C2.641,1.640 3.434,0.863 4.406,0.863 C5.377,0.863 6.171,1.640 6.171,2.590 L6.171,11.704 C7.231,12.309 7.936,13.430 7.936,14.683 C7.942,16.584 6.352,18.137 4.409,18.137 L4.409,18.137 ZM12.835,4.004 L13.000,3.376 C13.000,3.376 10.955,2.632 10.165,4.500 C9.674,6.485 11.386,7.361 12.924,6.791 L12.819,6.163 C12.819,6.163 11.222,6.733 10.968,5.373 C10.718,4.004 12.078,3.669 12.835,4.004 L12.835,4.004 ZM8.973,2.983 C8.479,2.983 8.077,3.376 8.077,3.859 C8.077,4.342 8.479,4.736 8.973,4.736 C9.467,4.736 9.869,4.342 9.869,3.859 C9.869,3.376 9.467,2.983 8.973,2.983 L8.973,2.983 ZM8.973,4.281 C8.732,4.281 8.541,4.091 8.541,3.859 C8.541,3.624 8.736,3.437 8.973,3.437 C9.213,3.437 9.404,3.627 9.404,3.859 C9.407,4.091 9.213,4.281 8.973,4.281 L8.973,4.281 Z"/>
</svg>