<svg 
 xmlns="http://www.w3.org/2000/svg"
 xmlns:xlink="http://www.w3.org/1999/xlink"
 width="18px" height="18px">
<path fill-rule="evenodd"  fill="rgb(254, 255, 254)"
 d="M13.777,8.850 C13.777,10.170 13.268,11.430 12.339,12.360 C10.422,14.280 7.278,14.280 5.361,12.360 C3.444,10.440 3.444,7.290 5.361,5.370 C7.278,3.450 10.422,3.450 12.339,5.370 C13.268,6.270 13.777,7.530 13.777,8.850 L13.777,8.850 ZM0.629,9.600 C0.300,9.600 0.000,9.330 0.000,9.000 C0.000,8.670 0.270,8.400 0.629,8.400 L2.396,8.400 C2.725,8.400 3.025,8.670 3.025,9.000 C3.025,9.330 2.755,9.600 2.396,9.600 L0.629,9.600 ZM15.604,9.600 C15.274,9.600 14.975,9.330 14.975,9.000 C14.975,8.670 15.244,8.400 15.604,8.400 L17.371,8.400 C17.700,8.400 18.000,8.670 18.000,9.000 C18.000,9.330 17.730,9.600 17.371,9.600 L15.604,9.600 ZM3.414,15.120 C3.175,15.360 2.815,15.360 2.576,15.120 C2.336,14.880 2.336,14.520 2.576,14.280 L3.774,13.080 C4.013,12.840 4.373,12.840 4.612,13.080 C4.852,13.320 4.852,13.680 4.612,13.920 L3.414,15.120 ZM14.196,4.620 C13.957,4.860 13.597,4.860 13.358,4.620 C13.118,4.380 13.118,4.020 13.358,3.780 L14.556,2.580 C14.795,2.340 15.155,2.340 15.394,2.580 C15.634,2.820 15.634,3.180 15.394,3.420 L14.196,4.620 ZM9.584,17.370 C9.584,17.700 9.314,18.000 8.985,18.000 C8.656,18.000 8.386,17.730 8.386,17.370 L8.386,15.630 C8.386,15.300 8.656,15.000 8.985,15.000 C9.314,15.000 9.584,15.270 9.584,15.630 L9.584,17.370 ZM9.584,2.370 C9.584,2.700 9.314,3.000 8.985,3.000 C8.656,3.000 8.386,2.730 8.386,2.370 L8.386,0.630 C8.386,0.300 8.656,-0.000 8.985,-0.000 C9.314,-0.000 9.584,0.270 9.584,0.630 L9.584,2.370 ZM15.394,14.280 C15.634,14.520 15.634,14.880 15.394,15.120 C15.155,15.360 14.795,15.360 14.556,15.120 L13.358,13.920 C13.118,13.680 13.118,13.320 13.358,13.080 C13.597,12.840 13.957,12.840 14.196,13.080 L15.394,14.280 ZM4.612,3.780 C4.852,4.020 4.852,4.380 4.612,4.620 C4.373,4.860 4.013,4.860 3.774,4.620 L2.576,3.420 C2.336,3.180 2.336,2.820 2.576,2.580 C2.815,2.340 3.175,2.340 3.414,2.580 L4.612,3.780 Z"/>
</svg>