<?xml version="1.0" encoding="utf-8"?>
<svg version="1.1" xmlns:xlink="http://www.w3.org/1999/xlink" width="1200px" height="180px" xmlns="http://www.w3.org/2000/svg">
  <g transform="matrix(1 0 0 1 0 -10 )">
    <path d="M 0 179.261770687097  L 7.90025691699606 153.23757713871  L 35.0742687747036 152.168383590323  L 53.6635968379447 143.026609396774  L 72.8895652173913 142.529835203226  L 86.5154940711462 129.597899719355  L 98.9210276679842 94.7968352032258  L 108.040553359684 80.8069964935484  L 129.981818181818 107.847883590323  L 146.428458498024 111.610835203226  L 158.375098814229 104.483819074193  L 174.195652173913 68.9130932677419  L 218.491304347826 137.345319074194  L 236.229249011858 108.744899719355  L 256.845059288538 123.297899719355  L 267.326086956522 102.370609396774  L 269.56837944664 91.3596093967742  L 286.555731225297 80.3244481064516  L 296.263636363636 63.7308352032258  L 306.952173913043 86.8207868161291  L 305.443873517787 99.7468513322581  L 312.662845849802 101.388690041936  L 318.774308300395 95.9973352032258  L 336.212252964427 0.42080294516132  L 338.556521739131 0.469036106451606  L 355.309090909091 123.632093267742  L 369 108.110270687097  L 369 97.7467706870967  L 381.174308300395 86.9152868161289  L 387.073517786561 78.8696900419355  L 398.667984189723 65.9472384290323  L 425.547035573122 79.0879319774193  L 438 85.7352223  L 448.720553359684 81.1468352032258  L 466.5 100.757109396774  L 493.501185770751 60.5163674612903  L 501.966403162055 84.0315126225807  L 517.886561264822 98.3064319774194  L 532.969565217391 93.8378352032257  L 540.473122529644 83.7341255258065  L 552.238339920949 79.2641739129033  L 553.686166007905 70.9658997193548  L 568.050592885375 48.6117384290323  L 588.286956521739 54.7035448806452  L 600.295256916996 37.5166255258064  L 615.173122529644 116.065319074194  L 623.326482213439 159.111931977419  L 641.768774703557 135.798544880645  L 668.703557312253 133.990964235484  L 698.717786561265 151.044996493548  L 706.504743083004 106.619044880645  L 710.762845849802 82.3268997193548  L 726.493280632411 86.3539319774194  L 733.84743083004 78.0019158483871  L 738.401976284585 80.9349158483871  L 746.038339920949 80.1349964935483  L 750.513438735178 83.7560287516129  L 763.141897233201 86.1549964935484  L 763.360079051383 94.0182545580646  L 776.71185770751 98.5814642354839  L 793.357707509881 97.5740287516128  L 794.228063241107 85.6137384290323  L 798.837154150198 33.6227061709678  L 813.824110671937 34.5989803645161  L 829.203557312253 45.9933997193549  L 868.632806324111 22.1166255258065  L 890.888537549407 40  L 906.125691699605 40  L 928.121739130435 62.039657783871  L 957.369960474308 67  L 989.867193675889 67  L 1000.5581027668 47.9514803645161  L 1022.79130434783 73.9056739129032  L 1024.98498023715 76.4666577838709  L 1043.24347826087 98.560351332258  L 1059.28458498024 70.1310932677419  L 1068.19328063241 54.3430448806452  L 1069.29723320158 55.1339319774194  C 1077.0581027668 60.6952061709677  1082.98695652174 64.7358997193548  1087.08260869565 67.2560126225807  C 1090.88537549407 69.5957061709677  1093.10750988142 70.624593267742  1093.75019762846 70.3425610096775  C 1094.49486166008 70.0151416548388  1096.54268774704 68.5446900419355  1099.89249011858 65.9310932677419  C 1104.00355731225 62.7230610096774  1110.07707509881 57.7934803645161  1118.11067193676 51.1421255258064  L 1118.81146245059 50.5624803645162  L 1136.18063241107 62.177851332258  L 1140.85375494071 65.3026739129032  L 1165.69920948617 78.2585448806452  L 1186.12648221344 66.4904158483871  L 1194.34387351779 57.1650610096774  L 1194.02371541502 57.1650610096774  L 1194.02371541502 54.9069964935484  L 1199.43083003953 54.9069964935484  L 1187.69169960474 68.2285610096775  L 1165.75731225296 80.8637868161291  L 1139.59802371542 67.2227061709677  L 1132.60671936759 62.5473835903225  L 1118.96679841897 53.4258190741935  C 1112.90988142292 58.4351093967742  1107.96996047431 62.4568352032258  1104.14822134387 65.4908835903227  C 1098.93675889328 69.6273190741935  1095.80158102767 71.9279481064516  1094.74268774704 72.3928835903226  C 1093.43833992095 72.9659803645161  1089.73636363636 71.3724642354839  1083.63675889328 67.6123352032258  C 1079.73201581028 65.2053513322581  1074.84545454545 61.9103835903226  1068.97588932806 57.7275448806452  L 1062.14347826087 69.8353997193549  L 1043.61936758893 102.666190041936  L 1023.14703557312 77.8938674612904  L 1019.97984189723 74.1963997193549  L 1000.92924901186 51.9575126225807  L 991.2604743083 69  L 957.19209486166 69  L 926.945454545455 64.1544481064516  L 905.086956521739 42  L 890.045454545455 42  L 868.46324110672 24.8955126225807  L 829.066007905138 48.7526416548388  L 812.9395256917 36.804657783871  L 801.003557312253 36.0272061709678  L 796.593675889328 85.7697706870968  L 795.748221343873 97.3886416548388  L 795.579841897233 99.7021416548387  L 776.372727272727 100.864593267742  L 773.066798418972 99.734657783871  L 761.032411067194 95.6218190741935  L 760.821343873518 88.016657783871  L 749.446245059289 85.8559158483872  L 745.280632411067 82.4859803645161  L 737.794861660079 83.2702061709678  L 734.290909090909 81.0133835903225  L 727.338735177866 88.9085932677419  L 712.671936758893 85.1538835903226  L 708.953359683794 106.365802945161  L 700.485770750988 154.679351332258  L 668.128458498024 136.293061009677  L 643.012648221344 137.978706170968  L 621.955731225296 164.597899719355  L 612.809881422925 116.310319074194  L 599.006324110672 43.4373835903225  L 589.27233201581 57.3686255258065  L 569.104743083004 51.2973674612903  L 555.949802371542 71.7695448806452  L 554.358498023715 80.8896416548387  L 542.00395256917 85.5835932677419  L 534.442292490119 95.7665610096774  L 517.268774703557 100.854319074194  L 499.913833992095 85.2921900419355  L 492.852569169961 65.6776255258064  L 466.784584980237 104.5267223  L 448.08023715415 83.896593267742  L 437.882608695652 88.2610932677418  L 424.425296442688 81.0777384290322  L 399.25256916996 68.7716255258065  L 388.951778656127 80.2525287516129  L 382.954150197628 88.4334964935485  L 371 98.7714803645161  L 371 108.893819074194  L 353.681027667984 129.242254558065  L 337.209486166008 8.14758359032255  L 320.973913043478 97.135286816129  L 313.344664031621 103.865448106452  L 302.855335968379 101.479690041935  L 304.52371541502 87.1755287516129  L 296.01581027668 68.7944319774193  L 288.354545454545 81.8891739129032  L 271.711067193676 92.7013513322581  L 269.596837944664 103.082802945161  L 257.746245059289 126.744835203226  L 236.932411067194 112.052061009677  L 218.533992094862 141.716931977419  L 174.586956521739 73.8223513322581  L 160.267588932806 106.019641654839  L 146.84347826087 114.028544880645  L 128.61581027668 109.857673912903  L 108.253280632411 84.7625610096774  L 101.079367588933 95.7676900419355  L 88.5828853754941 130.824028751613  L 73.8961660079052 144.763061009677  L 54.27 145.269996493548  L 35.696442687747 154.40386746129  L 9.70434782608694 155.426770687097  L 2.41345849802372 179.443544880645  L 2.27826877470355 179.888383590323  L 0 179.261770687097  Z " fill-rule="nonzero" fill="#4ad991" stroke="none" transform="matrix(1 0 0 1 0 10 )" />
  </g>
</svg>