<?xml version="1.0" encoding="utf-8"?>
<svg version="1.1" xmlns:xlink="http://www.w3.org/1999/xlink" width="1198px" height="179px" xmlns="http://www.w3.org/2000/svg">
  <defs>
    <linearGradient gradientUnits="userSpaceOnUse" x1="599" y1="0" x2="599" y2="179" id="LinearGradient785">
      <stop id="Stop786" stop-color="#4ad991" stop-opacity="0.498039215686275" offset="0" />
      <stop id="Stop787" stop-color="#4ad991" stop-opacity="0.498039215686275" offset="0.14" />
      <stop id="Stop788" stop-color="#5bf2ba" stop-opacity="0" offset="1" />
    </linearGradient>
  </defs>
  <g transform="matrix(1 0 0 1 -1 -10 )">
    <path d="M 99.284186091632 178  L 0.139338613887247 178  L 7.72092040419386 154.223446132189  L 34.3008765960831 153.177204686329  L 52.8801583962809 144.043494266966  L 72.3039583962809 143.541840701133  L 86.4585625505836 130.111309311355  L 98.9081199195252 95.1965600844629  L 106.888882135153 82.7038045046886  L 128.203449395292 108.761769638762  L 145.538546329021 112.726979524556  L 158.22232971181 105.162066348796  L 173.525886586192 71.8154364552824  L 217.406203104491 139.428055491224  L 235.473033965025 110.306840024521  L 256.185729316162 124.924166246623  L 267.350304983818 102.6379806144  L 269.527717446726 91.9459805599075  L 286.340994400237 81.0265416252298  L 295.024553252859 66.1881036850351  L 304.621297070861 86.9156607270167  L 303.033303994698 100.525499371069  L 311.88645434089 102.538440796494  L 318.756688762255 96.4800701087573  L 336.260191235054 0.564925186749297  L 353.373514677191 126.339868764616  L 369 108.411177067866  L 369 98.1722470131462  L 380.938655132186 87.5915372204437  L 386.887402906667 79.4815842245079  L 397.833762946231 67.2845104874781  L 423.855976596083 80.0030101718774  L 436.810157604985 86.9156607270167  L 447.267904390346 82.4408883227754  L 465.507884607953 102.553354821425  L 492.038872738516 63.0237317439775  L 499.800944944253 84.5802600049951  L 516.43632872269 99.4929291147288  L 532.562938020415 94.7165996458007  L 540.094935053056 84.5772094089866  L 552.152534459585 79.997021964898  L 553.671742174718 71.2912988670163  L 567.431186289456 49.8862835410848  L 587.630363341879 55.9655564607315  L 598.499636338912 40.4124881592989  L 621.488178376499 161.743730218196  L 641.234320809733 136.786465317985  L 667.257720414085 135.040846490929  L 698.440022095589 152.754640646641  L 710.55336136364 83.6590929954817  L 725.751368287478 87.5484899212134  L 732.90267392546 79.4280293168041  L 736.93136136364 82.0219398042822  L 744.491821304293 81.2301406625343  L 748.811067595094 84.7243159276162  L 760.811741185599 87.0032241309629  L 761.026398950188 94.734451281702  L 775.37051863367 99.6355162318643  L 793.296220908645 98.5510858433804  L 794.236682827537 85.6097796653271  L 798.746867792918 34.762671366619  L 812.206265419031 35.6390963013419  L 827.956927140099 47.3058182730513  L 867.366195191533 23.4480107712917  L 889.605213984807 40.4124881592989  L 896.720940987775 40.4124881592989  L 904.746295092621 40.4124881592989  L 914.510258495193 51.0520631564607  L 926.369803500138 63.0237317439775  L 989.717563144055 67.2845104874781  L 999.898982530801 49.8862835410848  L 1042.59334454861 99.4855850873011  L 1067.16869370785 55.9655564607315  L 1092.41885097788 71.2393257498354  L 1116.25416452882 52.0318694003588  L 1142.62504880182 67.2845104874781  L 1162.55145631913 77.236232577254  L 1173.7397510768 74.1943364166838  L 1186.09383910845 66.1881036850351  L 1198 55.9655564607315  L 1198 178.575111232205  L 99.284186091632 178  Z " fill-rule="nonzero" fill="url(#LinearGradient785)" stroke="none" transform="matrix(1 0 0 1 1 10 )" />
  </g>
</svg>