<?xml version="1.0" encoding="utf-8"?>
<svg version="1.1" xmlns:xlink="http://www.w3.org/1999/xlink" width="156px" height="108px" xmlns="http://www.w3.org/2000/svg">
  <defs>
    <filter x="765px" y="186px" width="156px" height="108px" filterUnits="userSpaceOnUse" id="filter779">
      <feOffset dx="0" dy="0" in="SourceAlpha" result="shadowOffsetInner" />
      <feGaussianBlur stdDeviation="10" in="shadowOffsetInner" result="shadowGaussian" />
      <feComposite in2="shadowGaussian" operator="atop" in="SourceAlpha" result="shadowComposite" />
      <feColorMatrix type="matrix" values="0 0 0 0 0.0666666666666667  0 0 0 0 0.894117647058823  0 0 0 0 0.541176470588235  0 0 0 1 0  " in="shadowComposite" />
    </filter>
    <g id="widget780">
      <path d="M 788.5 236  A 26.5 26.5 0 0 1 815 209.5 L 871 209.5  A 26.5 26.5 0 0 1 897.5 236 L 897.5 270.5  L 815 270.5  A 26.5 26.5 0 0 1 788.5 244 L 788.5 236  Z " fill-rule="nonzero" fill="#000000" stroke="none" fill-opacity="0.8" />
      <path d="M 787 236  A 28 28 0 0 1 815 208 L 871 208  A 28 28 0 0 1 899 236 L 899 272  L 815 272  A 28 28 0 0 1 787 244 L 787 236  Z " stroke-width="4" stroke="#10ea8c" fill="none" />
    </g>
  </defs>
  <g transform="matrix(1 0 0 1 -765 -186 )">
    <use xlink:href="#widget780" filter="url(#filter779)" />
    <use xlink:href="#widget780" />
  </g>
</svg>