<?xml version="1.0" encoding="utf-8"?>
<svg version="1.1" xmlns:xlink="http://www.w3.org/1999/xlink" width="156px" height="108px" xmlns="http://www.w3.org/2000/svg">
  <defs>
    <filter x="962px" y="388px" width="156px" height="108px" filterUnits="userSpaceOnUse" id="filter777">
      <feOffset dx="0" dy="0" in="SourceAlpha" result="shadowOffsetInner" />
      <feGaussianBlur stdDeviation="10" in="shadowOffsetInner" result="shadowGaussian" />
      <feComposite in2="shadowGaussian" operator="atop" in="SourceAlpha" result="shadowComposite" />
      <feColorMatrix type="matrix" values="0 0 0 0 0.0666666666666667  0 0 0 0 0.894117647058823  0 0 0 0 0.541176470588235  0 0 0 1 0  " in="shadowComposite" />
    </filter>
    <g id="widget778">
      <path d="M 985.5 438  A 26.5 26.5 0 0 1 1012 411.5 L 1068 411.5  A 26.5 26.5 0 0 1 1094.5 438 L 1094.5 446  A 26.5 26.5 0 0 1 1068 472.5 L 985.5 472.5  L 985.5 438  Z " fill-rule="nonzero" fill="#000000" stroke="none" fill-opacity="0.8" />
      <path d="M 984 438  A 28 28 0 0 1 1012 410 L 1068 410  A 28 28 0 0 1 1096 438 L 1096 446  A 28 28 0 0 1 1068 474 L 984 474  L 984 438  Z " stroke-width="4" stroke="#10ea8c" fill="none" />
    </g>
  </defs>
  <g transform="matrix(1 0 0 1 -962 -388 )">
    <use xlink:href="#widget778" filter="url(#filter777)" />
    <use xlink:href="#widget778" />
  </g>
</svg>