<?xml version="1.0" encoding="utf-8"?>
<svg version="1.1" xmlns:xlink="http://www.w3.org/1999/xlink" width="156px" height="108px" xmlns="http://www.w3.org/2000/svg">
  <defs>
    <filter x="749px" y="536px" width="156px" height="108px" filterUnits="userSpaceOnUse" id="filter781">
      <feOffset dx="0" dy="0" in="SourceAlpha" result="shadowOffsetInner" />
      <feGaussianBlur stdDeviation="10" in="shadowOffsetInner" result="shadowGaussian" />
      <feComposite in2="shadowGaussian" operator="atop" in="SourceAlpha" result="shadowComposite" />
      <feColorMatrix type="matrix" values="0 0 0 0 1  0 0 0 0 0.823529411764706  0 0 0 0 0  0 0 0 1 0  " in="shadowComposite" />
    </filter>
    <g id="widget782">
      <path d="M 772.5 586  A 26.5 26.5 0 0 1 799 559.5 L 855 559.5  A 26.5 26.5 0 0 1 881.5 586 L 881.5 594  A 26.5 26.5 0 0 1 855 620.5 L 772.5 620.5  L 772.5 586  Z " fill-rule="nonzero" fill="#000000" stroke="none" fill-opacity="0.8" />
      <path d="M 771 586  A 28 28 0 0 1 799 558 L 855 558  A 28 28 0 0 1 883 586 L 883 594  A 28 28 0 0 1 855 622 L 771 622  L 771 586  Z " stroke-width="4" stroke="#ffd200" fill="none" />
    </g>
  </defs>
  <g transform="matrix(1 0 0 1 -749 -536 )">
    <use xlink:href="#widget782" filter="url(#filter781)" />
    <use xlink:href="#widget782" />
  </g>
</svg>