<?xml version="1.0" encoding="utf-8"?>
<svg version="1.1" xmlns:xlink="http://www.w3.org/1999/xlink" width="81px" height="124px" xmlns="http://www.w3.org/2000/svg">
  <defs>
    <filter x="83px" y="247px" width="81px" height="124px" filterUnits="userSpaceOnUse" id="filter783">
      <feOffset dx="0" dy="0" in="SourceAlpha" result="shadowOffsetInner" />
      <feGaussianBlur stdDeviation="10" in="shadowOffsetInner" result="shadowGaussian" />
      <feComposite in2="shadowGaussian" operator="atop" in="SourceAlpha" result="shadowComposite" />
      <feColorMatrix type="matrix" values="0 0 0 0 0  0 0 0 0 0  0 0 0 0 0  0 0 0 1 0  " in="shadowComposite" />
    </filter>
    <g id="widget784">
      <path d="M 103.5 272  A 4.5 4.5 0 0 1 108 267.5 L 139 267.5  A 4.5 4.5 0 0 1 143.5 272 L 143.5 346  A 4.5 4.5 0 0 1 139 350.5 L 108 350.5  A 4.5 4.5 0 0 1 103.5 346 L 103.5 272  Z " fill-rule="nonzero" fill="#11e48a" stroke="none" fill-opacity="0.498039215686275" />
      <path d="M 103.5 272  A 4.5 4.5 0 0 1 108 267.5 L 139 267.5  A 4.5 4.5 0 0 1 143.5 272 L 143.5 346  A 4.5 4.5 0 0 1 139 350.5 L 108 350.5  A 4.5 4.5 0 0 1 103.5 346 L 103.5 272  Z " stroke-width="1" stroke="#11e48a" fill="none" />
    </g>
  </defs>
  <g transform="matrix(1 0 0 1 -83 -247 )">
    <use xlink:href="#widget784" filter="url(#filter783)" />
    <use xlink:href="#widget784" />
  </g>
</svg>