<?xml version="1.0" encoding="utf-8"?>
<svg version="1.1" xmlns:xlink="http://www.w3.org/1999/xlink" width="2000px" height="170px" xmlns="http://www.w3.org/2000/svg">
  <defs>
    <linearGradient gradientUnits="userSpaceOnUse" x1="1000" y1="0" x2="1000" y2="170" id="LinearGradient792">
      <stop id="Stop793" stop-color="#11e48a" stop-opacity="0.698039215686274" offset="0" />
      <stop id="Stop794" stop-color="#11e48a" stop-opacity="0.0980392156862745" offset="1" />
    </linearGradient>
  </defs>
  <g transform="matrix(1 0 0 1 4 -30 )">
    <path d="M 2000 170  C 2000 169.945071213598  1999.99747296068 101.245157051418  1999.99747296068 66.920959834748  C 1935.97998584858 61.0959419824381  1903.87395127868 76.7864398254876  1821.26250884464 76.7864398254876  C 1738.65106641059 76.7864398254876  1718.43475184474 55.9593154005928  1642.5275447286 55.9593154005928  C 1566.62033761245 55.9593154005928  1510.30273931062 86.6519198162271  1438.96947336501 86.6519198162271  C 1367.63620741939 86.6519198162271  1336.13918932579 44.9976709664377  1260.23450924896 44.9976709664377  C 1184.32982917214 44.9976709664377  1151.31911452542 97.6135642503823  1081.49954513292 97.6135642503823  C 1011.67997574042 97.6135642503823  976.319114525422 32.939862088867  907.732740321439 32.939862088867  C 839.146366117458 32.939862088867  800.634286869504 110.767537571368  728.997776205398 110.767537571368  C 657.361265541292 110.767537571368  609.708885070252 23.0743820981275  550.265339128677 23.0743820981275  C 490.821793187101 23.0743820981275  442.254624481957 120.633017562108  371.530375012635 120.633017562108  C 300.806125543313 120.633017562108  253.459516830082 0.0549287864016623  192.795410896593 0.0549287864016623  C 132.131304963105 0.0549287864016623  86.87708480744 65.8094490891246  0 65.8094490891246  L 0 170  L 2000 170  Z " fill-rule="nonzero" fill="url(#LinearGradient792)" stroke="none" transform="matrix(1 0 0 1 -4 30 )" />
  </g>
</svg>