<?xml version="1.0" encoding="utf-8"?>
<svg version="1.1" xmlns:xlink="http://www.w3.org/1999/xlink" width="194px" height="20px" preserveAspectRatio="xMinYMid meet" viewBox="730 93  194 18" xmlns="http://www.w3.org/2000/svg">
  <g transform="matrix(-0.96126169593832 0.275637355817 -0.275637355816997 -0.961261695938319 1650.07843283432 -27.9034002749499 )">
    <path d="M 1994.6400855675 66.480706159482  C 1908.02095453399 66.480706159482  1862.90241472748 0.549564139489693  1802.42271023477 0.549564139489693  C 1741.94300574206 0.549564139489693  1694.73583127508 121.451534969336  1624.2236259163 121.451534969336  C 1553.71142055753 121.451534969336  1505.29238448417 23.6308494797332  1446.02454159784 23.6308494797332  C 1386.7566987115 23.6308494797332  1339.24970817143 111.559555537803  1267.82797674217 111.559555537803  C 1196.40624531291 111.559555537803  1158.01215171723 33.522828911266  1089.62889242371 33.522828911266  C 1021.24563313018 33.522828911266  985.980712330994 98.3702496290926  916.383071968296 98.3702496290926  C 846.785431605598 98.3702496290926  813.86109174679 45.6130259942505  738.183987649831 45.6130259942505  C 662.506883552873 45.6130259942505  631.106818687527 87.3791613718339  559.984903331365 87.3791613718339  C 488.862987975204 87.3791613718339  432.714240034171 56.6041142515093  357.037135937213 56.6041142515093  C 281.360031840255 56.6041142515093  261.201809984552 77.487181940301  178.838051618748 77.487181940301  C 96.4742932529445 77.487181940301  64.4544405390162 61.7545382088608  0.638967300282308 67.595202508768  " stroke-width="2" stroke="#ffd200" fill="none" transform="matrix(1 0 0 1 0 30 )" />
  </g>
</svg>