<?xml version="1.0" encoding="utf-8"?>
<svg version="1.1" xmlns:xlink="http://www.w3.org/1999/xlink" width="2000px" height="170px" xmlns="http://www.w3.org/2000/svg">
  <defs>
    <linearGradient gradientUnits="userSpaceOnUse" x1="1000" y1="0" x2="1000" y2="170" id="LinearGradient795">
      <stop id="Stop796" stop-color="#ffd200" stop-opacity="0.698039215686274" offset="0" />
      <stop id="Stop797" stop-color="#ffd200" stop-opacity="0.0980392156862745" offset="1" />
    </linearGradient>
  </defs>
  <g transform="matrix(1 0 0 1 4 -30 )">
    <path d="M 0 170  C 0 169.945071213598  0.00252703932046572 101.245157051418  0.00252703932046572 66.920959834748  C 64.0200141514198 61.0959419824381  96.126048721318 76.7864398254876  178.737491155363 76.7864398254876  C 261.348933589406 76.7864398254876  281.565248155262 55.9593154005928  357.472455271405 55.9593154005928  C 433.379662387547 55.9593154005928  489.697260689377 86.6519198162271  561.030526634994 86.6519198162271  C 632.363792580612 86.6519198162271  663.860810674214 44.9976709664377  739.765490751037 44.9976709664377  C 815.670170827858 44.9976709664377  848.680885474578 97.6135642503823  918.500454867078 97.6135642503823  C 988.320024259578 97.6135642503823  1023.68088547458 32.939862088867  1092.26725967856 32.939862088867  C 1160.85363388254 32.939862088867  1199.3657131305 110.767537571368  1271.0022237946 110.767537571368  C 1342.63873445871 110.767537571368  1390.29111492975 23.0743820981275  1449.73466087132 23.0743820981275  C 1509.1782068129 23.0743820981275  1557.74537551804 120.633017562108  1628.46962498737 120.633017562108  C 1699.19387445669 120.633017562108  1746.54048316992 0.0549287864016623  1807.20458910341 0.0549287864016623  C 1867.8686950369 0.0549287864016623  1913.12291519256 65.8094490891246  2000 65.8094490891246  L 2000 170  L 0 170  Z " fill-rule="nonzero" fill="url(#LinearGradient795)" stroke="none" transform="matrix(1 0 0 1 -4 30 )" />
  </g>
</svg>