<?xml version="1.0" encoding="utf-8"?>
<svg version="1.1" xmlns:xlink="http://www.w3.org/1999/xlink" width="1998px" height="125px" xmlns="http://www.w3.org/2000/svg">
  <g transform="matrix(1 0 0 1 2 -29 )">
    <path d="M 0.35991443250232 66.480706159482  C 86.9790454660084 66.480706159482  132.097585272524 0.549564139489693  192.577289765232 0.549564139489693  C 253.056994257941 0.549564139489693  300.264168724921 121.451534969336  370.776374083698 121.451534969336  C 441.288579442474 121.451534969336  489.707615515828 23.6308494797332  548.975458402163 23.6308494797332  C 608.243301288498 23.6308494797332  655.750291828573 111.559555537803  727.17202325783 111.559555537803  C 798.593754687085 111.559555537803  836.987848282769 33.522828911266  905.371107576294 33.522828911266  C 973.754366869821 33.522828911266  1009.01928766901 98.3702496290926  1078.6169280317 98.3702496290926  C 1148.2145683944 98.3702496290926  1181.13890825321 45.6130259942505  1256.81601235017 45.6130259942505  C 1332.49311644713 45.6130259942505  1363.89318131247 87.3791613718339  1435.01509666863 87.3791613718339  C 1506.1370120248 87.3791613718339  1562.28575996583 56.6041142515093  1637.96286406279 56.6041142515093  C 1713.63996815974 56.6041142515093  1733.79819001545 77.487181940301  1816.16194838125 77.487181940301  C 1898.52570674706 77.487181940301  1930.54555946098 61.7545382088608  1994.36103269972 67.595202508768  " stroke-width="2" stroke="#11e48a" fill="none" transform="matrix(1 0 0 1 -1 30 )" />
  </g>
</svg>