<svg t="1636621926918" class="icon" viewBox="0 0 1024 1024" version="1.1" xmlns="http://www.w3.org/2000/svg" p-id="10214" width="36" height="36"><path d="M317.696 351.808 317.696 204.288 160.832 204.288 317.696 351.808zM706.304 204.288l0 147.456 156.864-147.456L706.304 204.288zM317.696 566.72 317.696 419.328 160.832 419.328 317.696 566.72zM706.304 566.72l156.864-147.456-156.864 0L706.304 566.72zM318.4 960l387.584 0L705.984 64 318.4 64 318.4 960zM509.376 126.016c61.76 0 111.872 49.664 111.872 110.976 0 61.312-50.112 110.976-111.872 110.976S397.504 298.304 397.504 236.992C397.504 175.68 447.616 126.016 509.376 126.016zM509.376 401.536c61.76 0 111.872 49.664 111.872 110.912 0 61.312-50.112 110.976-111.872 110.976S397.504 573.824 397.504 512.512C397.504 451.2 447.616 401.536 509.376 401.536zM509.376 677.056c61.76 0 111.872 49.664 111.872 110.976 0 61.248-50.112 110.912-111.872 110.912s-111.872-49.664-111.872-110.912C397.504 726.72 447.616 677.056 509.376 677.056zM706.304 781.76l156.864-147.456-156.864 0L706.304 781.76zM317.696 781.76 317.696 634.304 160.832 634.304 317.696 781.76z" p-id="10215" fill="#11E48A"></path></svg>