<svg t="1636622416883" class="icon" viewBox="0 0 1024 1024" version="1.1" xmlns="http://www.w3.org/2000/svg" p-id="12745" width="32" height="32"><path d="M394.24 955.904h128.832V175.488l-392.96 94.208v686.208h132.032v-192.96h132.16v192.96z m396.416 0h115.456V587.392l-313.6-73.728v442.24h132.096V832h66.048v123.904zM262.144 632.384h132.16v65.28H262.144V632.32z m462.464 65.28h66.048v65.28h-66.048V697.6zM262.144 501.76h132.16v65.28H262.144v-65.28z m462.464 65.28h66.048v65.28h-66.048v-65.28z m-462.464-195.84h132.16v65.28H262.144v-65.28zM64 175.552L592.448 0v384.768L960 482.688V960a64 64 0 0 1-64 64H128a64 64 0 0 1-64-64V175.488z" p-id="12746" fill="#11E48A"></path></svg>