<svg t="1636622038413" class="icon" viewBox="0 0 1024 1024" version="1.1" xmlns="http://www.w3.org/2000/svg" p-id="11389" width="36" height="36"><path d="M845.5 153.4c-6.1-13.7-14.3-25.7-24.7-36.1-10.3-10.4-22.4-18.6-36.1-24.7-13.7-6.1-28.5-9.1-44.3-9.1H283.9c-15.8 0-30.6 3-44.3 9.1-13.7 6.1-25.7 14.3-36.1 24.7-10.4 10.3-18.6 22.4-24.7 36.1-6.1 13.7-9.1 28.5-9.1 44.3v514.1c0 15.8 0.2 30.6 0.5 44.3 0.3 13.7 2 25.7 5 36.1 3 10.3 8.5 18.6 16.4 24.7 7.9 6.1 19.5 9.1 34.7 9.1v56.6c0 15.8 5.6 29.4 16.9 40.6 11.3 11.3 24.8 16.9 40.6 16.9s29.2-5.6 40.2-16.9c11-11.3 16.4-24.8 16.4-40.6V826h343.3v56.6c0 15.8 5.5 29.4 16.4 40.6 11 11.3 24.3 16.9 40.2 16.9 15.8 0 29.4-5.6 40.6-16.9 11.3-11.3 16.9-24.8 16.9-40.6V826c15.8 0 27.7-3 35.6-9.1 7.9-6.1 13.4-14.3 16.4-24.7 3-10.3 4.6-22.5 4.6-36.5V197.6c0.2-15.8-2.8-30.6-8.9-44.2z m-469.3-5.1c5.5-5.5 12.2-8.2 20.1-8.2h231.9c7.9 0 14.6 2.7 20.1 8.2 5.5 5.5 8.2 12.2 8.2 20.1 0 8.5-2.7 15.5-8.2 21-5.5 5.5-12.2 8.2-20.1 8.2h-232c-7.9 0-14.6-2.7-20.1-8.2-5.5-5.5-8.2-12.5-8.2-21 0-7.9 2.8-14.6 8.3-20.1z m-36.1 560.2c-8.2 8.2-18.1 12.3-29.7 12.3-12.2 0-22.2-4.1-30.1-12.3-7.9-8.2-11.9-18.1-11.9-29.7s4-21.5 11.9-29.7 18-12.3 30.1-12.3c11.6 0 21.5 4.1 29.7 12.3 8.2 8.2 12.3 18.1 12.3 29.7s-4.1 21.5-12.3 29.7z m398.1-1.3c-7.6 7.9-16.9 11.9-27.9 11.9-11.6 0-21.2-4-28.8-11.9-7.6-7.9-11.4-17.3-11.4-28.3s3.8-20.4 11.4-28.3c7.6-7.9 17.2-11.9 28.8-11.9 11 0 20.2 4 27.9 11.9 7.6 7.9 11.4 17.3 11.4 28.3s-3.8 20.3-11.4 28.3zM798 482.5H226.4V254.3H798v228.2z" p-id="11390" fill="#11E48A"></path></svg>