<svg t="1636622506557" class="icon" viewBox="0 0 1024 1024" version="1.1" xmlns="http://www.w3.org/2000/svg" p-id="14620" width="32" height="32"><path d="M122.4 671.6c43.8-253.1 158.4-346.5 294.2-384.7 169.7-46.7 318.2-12.7 461-80.6 86.3-41 83.4 32.5 82 43.8C938.4 419.9 847.8 579.7 656.9 656 449 739.5 242.6 585.3 94.1 827.2c-1.4 1.4-2.8 2.8-5.7 2.8H70c-4.2 0-7.1-4.2-5.7-8.5C120.9 709.8 201.5 615 304.8 538.7c93.3-69.3 203.6-121.6 330.9-164 9.9-2.8 5.7-18.4-4.2-17-97.6 22.6-186.7 52.3-268.7 99-86.3 49.4-165.5 117.3-240.4 214.9" p-id="14621" fill="#11E48A"></path></svg>