<?xml version="1.0" encoding="utf-8"?>
<svg version="1.1" xmlns:xlink="http://www.w3.org/1999/xlink" width="25px" height="25px" xmlns="http://www.w3.org/2000/svg">
  <g transform="matrix(1 0 0 1 -48 -138 )">
    <path d="M 49 143  A 4 4 0 0 1 53 139 L 68 139  A 4 4 0 0 1 72 143 L 72 158  A 4 4 0 0 1 68 162 L 53 162  A 4 4 0 0 1 49 158 L 49 143  Z " fill-rule="nonzero" fill="#edae5d" stroke="none" />
    <path d="M 48.5 143  A 4.5 4.5 0 0 1 53 138.5 L 68 138.5  A 4.5 4.5 0 0 1 72.5 143 L 72.5 158  A 4.5 4.5 0 0 1 68 162.5 L 53 162.5  A 4.5 4.5 0 0 1 48.5 158 L 48.5 143  Z " stroke-width="1" stroke="#02a6b5" fill="none" stroke-opacity="0.149019607843137" />
  </g>
</svg>