<?xml version="1.0" encoding="utf-8"?>
<svg version="1.1" xmlns:xlink="http://www.w3.org/1999/xlink" width="125px" height="109px" xmlns="http://www.w3.org/2000/svg">
  <defs>
    <mask fill="white" id="clip1864">
      <path d="M 94.0600000354062 0.213163441280991  C 94.0600000354062 0.213163441280991  124.809997638243 55.0538647854062  124.809997638243 55.0538647854062  C 124.809997638243 55.0538647854062  94.0599953119097 108.274163441281  94.0599953119097 108.274163441281  C 94.0599953119097 108.274163441281  30.9399953119097 108.274160682218  30.9399953119097 108.274160682218  C 30.9399953119097 108.274160682218  0.189997638243 55.0538593380928  0.189997638243 55.0538593380928  C 0.189997638243 55.0538593380928  30.9400000354062 0.213160682218088  30.9400000354062 0.213160682218088  C 30.9400000354062 0.213160682218088  94.0600000354062 0.213163441280991  94.0600000354062 0.213163441280991  Z " fill-rule="evenodd" />
    </mask>
  </defs>
  <g transform="matrix(1 0 0 1 -619 -256 )">
    <path d="M 94.0600000354062 0.213163441280991  C 94.0600000354062 0.213163441280991  124.809997638243 55.0538647854062  124.809997638243 55.0538647854062  C 124.809997638243 55.0538647854062  94.0599953119097 108.274163441281  94.0599953119097 108.274163441281  C 94.0599953119097 108.274163441281  30.9399953119097 108.274160682218  30.9399953119097 108.274160682218  C 30.9399953119097 108.274160682218  0.189997638243 55.0538593380928  0.189997638243 55.0538593380928  C 0.189997638243 55.0538593380928  30.9400000354062 0.213160682218088  30.9400000354062 0.213160682218088  C 30.9400000354062 0.213160682218088  94.0600000354062 0.213163441280991  94.0600000354062 0.213163441280991  Z " fill-rule="nonzero" fill="#ffffff" stroke="none" fill-opacity="0" transform="matrix(1 0 0 1 619 256 )" />
    <path d="M 94.0600000354062 0.213163441280991  C 94.0600000354062 0.213163441280991  124.809997638243 55.0538647854062  124.809997638243 55.0538647854062  C 124.809997638243 55.0538647854062  94.0599953119097 108.274163441281  94.0599953119097 108.274163441281  C 94.0599953119097 108.274163441281  30.9399953119097 108.274160682218  30.9399953119097 108.274160682218  C 30.9399953119097 108.274160682218  0.189997638243 55.0538593380928  0.189997638243 55.0538593380928  C 0.189997638243 55.0538593380928  30.9400000354062 0.213160682218088  30.9400000354062 0.213160682218088  C 30.9400000354062 0.213160682218088  94.0600000354062 0.213163441280991  94.0600000354062 0.213163441280991  Z " stroke-width="3.24" stroke="#2e3a70" fill="none" transform="matrix(1 0 0 1 619 256 )" mask="url(#clip1864)" />
  </g>
</svg>