<?xml version="1.0" encoding="utf-8"?>
<svg version="1.1" xmlns:xlink="http://www.w3.org/1999/xlink" width="60px" height="30px" xmlns="http://www.w3.org/2000/svg">
  <g transform="matrix(1 0 0 1 -1753 -130 )">
    <path d="M 1754 145  A 14 14 0 0 1 1768 131 L 1798 131  A 14 14 0 0 1 1812 145 A 14 14 0 0 1 1798 159 L 1768 159  A 14 14 0 0 1 1754 145 Z " fill-rule="nonzero" fill="#ffffff" stroke="none" fill-opacity="0" />
    <path d="M 1753.5 145  A 14.5 14.5 0 0 1 1768 130.5 L 1798 130.5  A 14.5 14.5 0 0 1 1812.5 145 A 14.5 14.5 0 0 1 1798 159.5 L 1768 159.5  A 14.5 14.5 0 0 1 1753.5 145 Z " stroke-width="1" stroke="#a7fffe" fill="none" stroke-opacity="0.8" />
  </g>
</svg>