<?xml version="1.0" encoding="utf-8"?>
<svg version="1.1" xmlns:xlink="http://www.w3.org/1999/xlink" width="70px" height="30px" xmlns="http://www.w3.org/2000/svg">
  <g transform="matrix(1 0 0 1 -1663 -786 )">
    <path d="M 1664 801  A 14 14 0 0 1 1678 787 L 1718 787  A 14 14 0 0 1 1732 801 A 14 14 0 0 1 1718 815 L 1678 815  A 14 14 0 0 1 1664 801 Z " fill-rule="nonzero" fill="#ffffff" stroke="none" fill-opacity="0" />
    <path d="M 1663.5 801  A 14.5 14.5 0 0 1 1678 786.5 L 1718 786.5  A 14.5 14.5 0 0 1 1732.5 801 A 14.5 14.5 0 0 1 1718 815.5 L 1678 815.5  A 14.5 14.5 0 0 1 1663.5 801 Z " stroke-width="1" stroke="#a7fffe" fill="none" stroke-opacity="0.8" />
  </g>
</svg>