<?xml version="1.0" encoding="utf-8"?>
<svg version="1.1" xmlns:xlink="http://www.w3.org/1999/xlink" width="9px" height="9px" xmlns="http://www.w3.org/2000/svg">
  <g transform="matrix(1 0 0 1 -1096 -917 )">
    <path d="M 1100.5 917.462580845733  C 1102.76095472639 917.462580845733  1104.53741915427 919.239045273611  1104.53741915427 921.5  C 1104.53741915427 923.760954726389  1102.76095472639 925.537419154267  1100.5 925.537419154267  C 1098.23904527361 925.537419154267  1096.46258084573 923.760954726389  1096.46258084573 921.5  C 1096.46258084573 919.239045273611  1098.23904527361 917.462580845733  1100.5 917.462580845733  Z " fill-rule="nonzero" fill="#5b8ff9" stroke="none" />
    <path d="M 1100.5 917.731290422867  C 1102.61047736319 917.731290422867  1104.26870957713 919.389522636805  1104.26870957713 921.5  C 1104.26870957713 923.610477363195  1102.61047736319 925.268709577133  1100.5 925.268709577133  C 1098.38952263681 925.268709577133  1096.73129042287 923.610477363195  1096.73129042287 921.5  C 1096.73129042287 919.389522636805  1098.38952263681 917.731290422867  1100.5 917.731290422867  Z " stroke-width="1.46258084573324" stroke="#ffffff" fill="none" />
  </g>
</svg>