<?xml version="1.0" encoding="utf-8"?>
<svg version="1.1" xmlns:xlink="http://www.w3.org/1999/xlink" width="746px" height="52px" xmlns="http://www.w3.org/2000/svg">
  <g transform="matrix(1 0 0 1 -1095.5 -873.5 )">
    <path d="M 0.701122239358256 47.3372418214957  L 53.0861094686279 36.1695332324383  C 72.2130443781064 32.0935042577006  92.1385006460948 31.7755383106061  111.423390857498 35.2386000242724  L 122.851115838753 37.2906664775118  C 148.851868362159 41.9594405314698  175.90902135847 37.1251750651368  197.715660755759 23.914718010415  L 210.81990527105 15.975175185382  C 232.635814947453 2.76177028388065  259.72605872895 -2.02326304119833  285.712442165965 2.74667537075015  L 299.808402470024 5.33269789090377  C 317.375616996932 8.55639866880983  335.508903923754 8.64217085775749  353.115125543289 5.58484381139112  L 369.363469005834 2.76325243818701  C 394.494422627117 -1.60078633039961  420.534957309475 0.465514995148851  444.351978396435 8.71354717079419  L 451.407956256439 11.1564834246504  C 471.72826387573 18.1937493579005  493.723350953313 20.7496415570176  515.445604003731 18.5978417493435  L 546.884594049267 15.4830980256767  C 561.385248881218 14.0466143445984  576.057966072617 14.7033558588083  590.314147774723 17.4269773019595  L 624.154449639433 23.8920336023434  C 644.569672045975 27.7922971472892  665.750868436185 27.4377914861496  685.979731418435 22.8572756033886  L 741.63378178205 10.2552144424242  " stroke-width="3.98885685199973" stroke="#37d4ce" fill="none" transform="matrix(1 0 0 1 1097 875 )" />
  </g>
</svg>