<?xml version="1.0" encoding="utf-8"?>
<svg version="1.1" xmlns:xlink="http://www.w3.org/1999/xlink" width="25px" height="25px" xmlns="http://www.w3.org/2000/svg">
  <g transform="matrix(1 0 0 1 -30 -127 )">
    <path d="M 31 132  A 4 4 0 0 1 35 128 L 50 128  A 4 4 0 0 1 54 132 L 54 147  A 4 4 0 0 1 50 151 L 35 151  A 4 4 0 0 1 31 147 L 31 132  Z " fill-rule="nonzero" fill="#0687af" stroke="none" />
    <path d="M 30.5 132  A 4.5 4.5 0 0 1 35 127.5 L 50 127.5  A 4.5 4.5 0 0 1 54.5 132 L 54.5 147  A 4.5 4.5 0 0 1 50 151.5 L 35 151.5  A 4.5 4.5 0 0 1 30.5 147 L 30.5 132  Z " stroke-width="1" stroke="#02a6b5" fill="none" stroke-opacity="0.149019607843137" />
  </g>
</svg>