<?xml version="1.0" encoding="utf-8"?>
<svg version="1.1" xmlns:xlink="http://www.w3.org/1999/xlink" width="15px" height="15px" xmlns="http://www.w3.org/2000/svg">
  <g transform="matrix(1 0 0 1 -1225 -906 )">
    <path d="M 1232.5 907.931427328311  C 1235.61840069615 907.931427328311  1238.06857267169 910.381599303854  1238.06857267169 913.5  C 1238.06857267169 916.618400696146  1235.61840069615 919.068572671689  1232.5 919.068572671689  C 1229.38159930385 919.068572671689  1226.93142732831 916.618400696146  1226.93142732831 913.5  C 1226.93142732831 910.381599303854  1229.38159930385 907.931427328311  1232.5 907.931427328311  Z " fill-rule="nonzero" fill="#5b8ff9" stroke="none" />
    <path d="M 1232.5 907.465713664155  C 1235.87920034807 907.465713664155  1238.53428633584 910.120799651927  1238.53428633584 913.5  C 1238.53428633584 916.879200348073  1235.87920034807 919.534286335845  1232.5 919.534286335845  C 1229.12079965193 919.534286335845  1226.46571366416 916.879200348073  1226.46571366416 913.5  C 1226.46571366416 910.120799651927  1229.12079965193 907.465713664155  1232.5 907.465713664155  Z " stroke-width="2.9314273283107" stroke="#ffffff" fill="none" />
  </g>
</svg>