<?xml version="1.0" encoding="utf-8"?>
<svg version="1.1" xmlns:xlink="http://www.w3.org/1999/xlink" width="361px" height="165px" xmlns="http://www.w3.org/2000/svg">
  <defs>
    <linearGradient gradientUnits="userSpaceOnUse" x1="180.5" y1="0" x2="180.5" y2="165" id="LinearGradient1907">
      <stop id="Stop1908" stop-color="#ffb822" stop-opacity="0.8" offset="0" />
      <stop id="Stop1909" stop-color="#ffb822" stop-opacity="0.8" offset="0.12" />
      <stop id="Stop1910" stop-color="#ffb822" stop-opacity="0.101960784313725" offset="1" />
    </linearGradient>
  </defs>
  <g transform="matrix(1 0 0 1 -117 -427 )">
    <path d="M 0 165  L 0 6.23702538461544  L 15.3662443452382 43.9257923076923  C 15.6902848214285 44.7205  16.0254991071429 45.4880461538462  16.371887202381 46.2284307692308  C 16.7182036706349 46.9688153846154  17.0749060515873 47.6802615384616  17.4419943452381 48.3627692307692  C 17.8090110119048 49.045276923077  18.1855182539682 49.6972384615385  18.5715160714286 50.3186538461538  C 18.9575138888889 50.9400692307693  19.3520711309524 51.5295000000001  19.755187797619 52.0869461538462  C 20.1583044642857 52.6443923076923  20.5690135912699 53.1684153846154  20.9873151785715 53.6590153846154  C 21.4056883928572 54.1497846153845  21.8306871031746 54.6061153846155  22.2623113095238 55.0280076923078  C 22.693935515873 55.4497307692308  23.1311824404762 55.8359999999999  23.5740520833333 56.1868153846154  C 24.0168500992064 56.5376307692308  24.4642680555556 56.8521461538461  24.9163059523809 57.1303615384615  C 25.3682722222223 57.4085769230769  25.8237482142858 57.6499000000001  26.2827339285714 57.8543307692308  C 26.7417912698413 58.0585923076924  27.2032481150794 58.2254538461539  27.6671044642858 58.3549153846154  C 28.1309608134921 58.484376923077  28.5961422619048 58.5760999999999  29.0626488095238 58.6300846153846  C 29.5291553571428 58.6839000000001  29.9959125992063 58.6999769230769  30.4629205357143 58.6783153846154  C 30.9299284722222 58.6564846153847  31.3960410714286 58.5968307692307  31.8612583333333 58.4993538461539  C 32.3265472222222 58.4020461538462  32.7898305555555 58.2670846153846  33.2511083333334 58.0944692307692  C 33.7124577380952 57.9218538461539  34.1707629960317 57.7120923076923  34.6260241071428 57.4651846153845  C 35.0812135912698 57.2181076923076  35.5323203373016 56.9345615384615  35.9793443452381 56.6145461538462  L 42.8684276785714 51.6800307692307  C 43.6980830357143 51.0858615384615  44.5105479166667 50.3810153846154  45.3058223214285 49.5654923076924  C 46.1010250992064 48.7499692307693  46.8738086309524 47.8291846153845  47.6241729166666 46.8031384615384  C 48.3744655753969 45.7772615384615  49.0973609126985 44.6528923076923  49.7928589285715 43.4300307692307  C 50.4882853174603 42.2071692307693  51.1516944444445 40.8939384615384  51.7830863095238 39.4903384615384  L 59.8820568452381 21.4868076923077  C 60.0753780753968 21.0571307692308  60.2731043650793 20.6391561538462  60.4752357142858 20.2328838461538  C 60.6774386904762 19.8265776923077  60.883796031746 19.432473076923  61.0943077380953 19.0505700000001  C 61.3048194444445 18.6686838461538  61.5192348214285 18.2994815384616  61.7375538690476 17.9429630769231  C 61.9558729166667 17.5864276923078  62.1778449404762 17.2430330769231  62.4034699404762 16.9127792307692  C 62.6290949404762 16.5825253846155  62.8580864087302 16.2658184615384  63.0904443452381 15.9626584615385  C 63.322802281746 15.6594984615385  63.5582043650793 15.3702661538462  63.796650595238 15.0949615384616  C 64.035168452381 14.8196569230769  64.2764081349207 14.5586269230769  64.5203696428572 14.3118715384615  C 64.7644027777778 14.0651161538461  65.0108712301587 13.83294  65.259775 13.6153430769231  C 65.5086787698413 13.3977461538462  65.7597313492063 13.1949992307693  66.0129327380953 13.0071023076923  C 66.2662057539683 12.8192223076923  66.5212694444445 12.6464292307692  66.7781238095238 12.4887230769231  C 67.0350498015873 12.331  67.2934441468254 12.1885753846154  67.5533068452381 12.0614492307693  C 67.813241170635 11.9343061538461  68.0743215277778 11.8226138461538  68.3365479166667 11.7263723076924  C 68.5988459325397 11.6301307692308  68.8619676587302 11.5494584615384  69.1259130952381 11.4843553846154  C 69.3899301587302 11.4192523076923  69.6544486111112 11.3697946153847  69.9194684523809 11.3359823076923  C 70.1844882936508 11.3021699999999  70.449723015873 11.2840538461539  70.7151726190476 11.2816338461539  C 70.9805505952381 11.2792138461539  71.2458211309524 11.2924815384616  71.5109842261905 11.3214369230769  C 71.7760756944444 11.3504092307693  72.0407374007936 11.3950353846153  72.3049693452381 11.4553153846154  C 72.5691296626985 11.5155953846154  72.8325020833333 11.5914530769231  73.0950866071428 11.6828884615385  C 73.3576711309524 11.7743407692307  73.6191096230158 11.8812523076923  73.8794020833333 12.0036230769231  C 74.1396945436508 12.1260107692307  74.3985544642857 12.2637053846154  74.6559818452381 12.4167069230769  C 74.9133375992063 12.5697253846154  75.1689384920635 12.7378561538462  75.4227845238096 12.9210992307692  C 75.6766305555556 13.1043592307693  75.9283635912698 13.3025115384615  76.1779836309524 13.5155561538463  C 76.4276036706349 13.7286007692307  76.6748242063492 13.956266923077  76.9196452380953 14.1985546153846  C 77.1643946428572 14.4408423076922  77.4064580357143 14.6974553846154  77.6458354166667 14.9683938461538  C 77.8852127976191 15.2393323076923  78.121546031746 15.5242576923077  78.3548351190476 15.8231699999999  C 78.5881958333334 16.1220653846154  78.8182258928571 16.4345753846154  79.044925297619 16.7607000000001  C 79.271624702381 17.0868246153846  79.4947427579365 17.4261407692308  79.7142794642857 17.7786484615385  C 79.9337445436508 18.1311730769231  80.1493775793651 18.4964492307691  80.3611785714286 18.8744769230769  C 80.5729079365079 19.2525215384615  80.7805187500001 19.6428438461538  80.9840110119048 20.0454438461538  C 81.1875032738096 20.4480607692308  81.3865904761905 20.8624307692307  81.5812726190476 21.2885538461538  C 81.7760263888889 21.7146769230769  81.9661244047619 22.1520538461538  82.1515666666667 22.6006846153846  C 82.3370089285715 23.0494846153846  82.5175805555555 23.5088615384616  82.6932815476191 23.9788153846154  L 91.09158125 46.4454692307692  C 91.5555808531746 47.6867769230769  92.0430024801588 48.8744384615384  92.5538461309524 50.0084538461537  C 93.064689781746 51.1423  93.5967708333333 52.217676923077  94.1500892857143 53.2345846153847  C 94.7033361111112 54.2513230769231  95.2754208333333 55.2051076923078  95.8663434523809 56.0959384615385  C 96.4572660714286 56.9866000000001  97.064412202381 57.8105  97.6877818452381 58.5676384615384  C 98.3112231150794 59.3247769230769  98.9482018849207 60.0117692307693  99.5987181547619 60.6286153846154  C 100.249234424603 61.2454615384615  100.910458928571 61.7894538461538  101.582391666667 62.2605923076923  C 102.254324404762 62.7318999999999  102.934100297619 63.1283230769232  103.621719345238 63.4498615384616  C 104.309338392857 63.7712307692308  105.001792261905 64.0164461538461  105.699080952381 64.1855076923077  L 112.359101190476 65.800223076923  C 112.990851190476 65.9532076923076  113.624033730159 66.0431538461538  114.258648809524 66.0700615384616  C 114.893263888889 66.0969692307692  115.527162698413 66.0606692307693  116.160345238095 65.9611615384615  C 116.793527777778 65.8616538461538  117.423845238095 65.6992769230769  118.051297619048 65.4740307692308  C 118.67875 65.2487846153847  119.300830357143 64.9615153846153  119.917538690476 64.6122230769231  C 120.534963293651 64.2629307692308  121.144867063492 63.8528  121.74725 63.3818307692307  C 122.349632936508 62.9110307692308  122.942704365079 62.381  123.526464285714 61.7917384615384  C 124.110224206349 61.2026461538462  124.682523809524 60.556523076923  125.243363095238 59.8533692307692  C 125.803486111111 59.1500461538462  126.350358134921 58.3923153846154  126.883979166667 57.580176923077  L 132.182943452381 49.5114230769231  C 132.397824404762 49.1839615384615  132.615570436508 48.8666538461538  132.836181547619 48.5595000000001  C 133.05679265873 48.2525153846153  133.279552579365 47.9557692307692  133.504461309524 47.6692615384615  C 133.730086309524 47.3829230769231  133.957860119048 47.1072461538462  134.187782738095 46.8422307692307  C 134.416989087302 46.5770461538461  134.648702380952 46.3226923076923  134.882922619048 46.0791692307692  C 135.117142857143 45.8356461538461  135.353511904762 45.6031230769231  135.592029761905 45.3816000000001  C 135.829831349206 45.160076923077  136.069423611111 44.9497230769231  136.310806547619 44.7505384615386  C 136.552189484127 44.5515230769231  136.795363095238 44.3637615384616  137.040327380952 44.1872538461539  C 137.284575396825 44.0107461538461  137.530614087302 43.8456615384616  137.778443452381 43.692  C 138.025556547619 43.5385076923076  138.27410218254 43.396523076923  138.524080357143 43.2660461538461  C 138.774058531746 43.1355692307692  139.02475297619 43.0168538461538  139.276163690476 42.9099000000001  C 139.528290674603 42.8027769230769  139.780775793651 42.7075  140.033619047619 42.6240692307692  C 140.287178571429 42.5406384615385  140.541096230159 42.4689692307693  140.795372023809 42.4090615384615  C 141.050364087302 42.349323076923  141.305356150794 42.3014307692308  141.560348214286 42.2653846153846  C 141.816056547619 42.2291692307693  142.071764880952 42.2049692307692  142.327473214286 42.1927846153847  C 142.583181547619 42.1806  142.838889880952 42.1802615384616  143.094598214286 42.1917692307691  C 143.350306547619 42.2034461538462  143.606014880952 42.2269692307692  143.861723214286 42.2623384615384  C 144.116715277778 42.2977076923077  144.37170734127 42.3450076923078  144.626699404762 42.4042384615385  C 144.880975198413 42.4634692307692  145.134892857143 42.5344615384614  145.388452380952 42.6172153846153  C 145.641295634921 42.7001384615384  145.893780753968 42.7947384615385  146.145907738095 42.9010153846154  C 146.398034722222 43.0074615384615  146.648729166667 43.1255846153847  146.897991071429 43.2553846153847  C 147.147969246032 43.3851846153847  147.396873015873 43.526576923077  147.644702380952 43.6795615384617  C 147.89181547619 43.8323769230769  148.137854166667 43.9967846153846  148.382818452381 44.1727846153847  C 148.627782738095 44.3486153846154  148.870956349206 44.5357846153846  149.112339285714 44.7342923076923  C 149.353722222222 44.9328  149.593672619048 45.1425615384616  149.83219047619 45.3635769230769  C 150.069992063492 45.584423076923  150.30600297619 45.8162692307692  150.540223214286 46.0591153846153  C 150.774443452381 46.3021307692308  151.006514880952 46.5558923076922  151.2364375 46.8203999999999  C 151.466360119048 47.0849076923078  151.694133928571 47.3600769230769  151.919758928571 47.6459076923078  C 152.145383928571 47.9317384615385  152.368143849206 48.2278923076924  152.588038690476 48.5343692307692  C 152.808649801587 48.8410153846154  153.026753968254 49.1577307692307  153.242351190476 49.4845153846154  C 153.457232142857 49.8113  153.669606150794 50.1480692307692  153.879473214286 50.4948230769231  C 154.088624007936 50.8414076923077  154.294909722222 51.1976384615385  154.498330357143 51.5635153846154  C 154.702467261905 51.9293923076924  154.90302281746 52.3046615384616  155.09999702381 52.689323076923  L 159.324556547619 60.9218076923077  C 159.68054265873 61.6161615384615  160.045482142857 62.283946153846  160.419375 62.9251615384615  C 160.792551587302 63.5665461538462  161.173965277778 64.1802615384616  161.563616071429 64.7663076923077  C 161.953266865079 65.3521846153845  162.350080357143 65.9092923076923  162.754056547619 66.4376307692307  C 163.158032738095 66.9661384615384  163.568455357143 67.464776923077  163.985324404762 67.9335461538462  C 164.402909722222 68.4024846153846  164.825867063492 68.8407076923076  165.254196428572 69.2482153846154  C 165.682525793651 69.655723076923  166.115510912698 70.0317538461538  166.553151785714 70.3763076923077  C 166.991508928571 70.7210307692308  167.433805555556 71.0336846153847  167.880041666667 71.3142692307692  C 168.326277777778 71.5946846153845  168.775737103175 71.8426076923076  169.228419642857 72.0580384615384  C 169.68110218254 72.2732999999999  170.136291666667 72.4555615384616  170.593988095238 72.6048230769231  C 171.05168452381 72.7540846153846  171.510455357143 72.8700923076924  171.970300595238 72.9528461538462  C 172.430862103175 73.0354307692307  172.892139880952 73.0846769230769  173.354133928571 73.1005846153846  C 173.815411706349 73.1163230769231  174.277047619048 73.0986384615384  174.739041666667 73.0475307692307  C 175.200319444444 72.9964230769231  175.66016468254 72.9118923076924  176.118577380952 72.7939384615385  C 176.577706349206 72.6759846153846  177.035044642857 72.5248615384616  177.490592261905 72.3405692307692  C 177.945423611111 72.1564461538462  178.397748015873 71.9394076923077  178.84756547619 71.6894538461538  C 179.296666666667 71.4396692307691  179.742544642857 71.157476923077  180.185199404762 70.8428769230769  L 187.164532738095 65.8784076923076  C 188.042679563492 65.2537769230769  188.901487103175 64.5054384615385  189.740955357143 63.6333923076923  C 190.580423611111 62.761176923077  191.394464285714 61.7717692307693  192.183077380952 60.6651692307692  C 192.970974206349 59.5585692307693  193.728071428572 58.3428999999999  194.454369047619 57.0181615384615  C 195.179950396825 55.6932538461539  195.868643849206 54.2691769230768  196.520449404762 52.7459307692308  L 206.94325 28.4038615384615  C 207.113005952381 28.0076923076924  207.285985119047 27.6198153846154  207.4621875 27.2402307692307  C 207.638389880952 26.8606461538461  207.817815476191 26.4896076923076  208.000464285714 26.1271153846154  C 208.183113095238 25.7644538461539  208.368626984127 25.4107615384616  208.557005952381 25.0660384615384  C 208.745384920635 24.7211461538461  208.936628968254 24.3853076923077  209.130738095238 24.0585230769231  C 209.325563492064 23.7319076923077  209.522537698413 23.4146846153847  209.721660714286 23.106853846154  C 209.9215 22.7988538461537  210.123846230159 22.5004999999999  210.328699404762 22.2117923076922  C 210.533552579365 21.9232538461539  210.740554563492 21.644446153846  210.949705357143 21.3753692307692  C 211.159572420635 21.1064615384615  211.371588293651 20.847623076923  211.58575297619 20.5988538461538  C 211.799201388889 20.3501015384616  212.015156746032 20.111613076923  212.233619047619 19.8833884615385  C 212.451365079365 19.6551469230769  212.671259920635 19.4373807692308  212.893303571429 19.23009  C 213.114630952381 19.0227823076924  213.337749007937 18.8261107692307  213.562657738095 18.6400753846153  C 213.788282738095 18.45404  214.014982142857 18.2787930769231  214.242755952381 18.1143346153846  C 214.471246031746 17.9498592307692  214.700810515873 17.7963076923078  214.931449404762 17.65368  C 215.162088293651 17.5110523076924  215.393801587302 17.37945  215.626589285714 17.2588730769231  C 215.859376984127 17.1383130769231  216.093239087302 17.0288800000001  216.328175595238 16.9305738461538  C 216.563112103175 16.8322676923078  216.798764880952 16.7451646153847  217.035133928571 16.6692646153847  C 217.270786706349 16.5933815384616  217.507513888889 16.5287692307691  217.74531547619 16.4754276923077  C 217.982400793651 16.4220861538462  218.220202380952 16.3800576923076  218.458720238095 16.3493423076924  C 218.696521825397 16.3186269230768  218.934681547619 16.2992499999999  219.173199404762 16.2912115384616  C 219.411717261905 16.2831730769231  219.650235119048 16.28649  219.888752976191 16.3011623076923  C 220.127270833333 16.3158176923076  220.365430555556 16.3418115384616  220.603232142857 16.3791438461538  C 220.841033730159 16.4164592307692  221.07847718254 16.4650876923077  221.3155625 16.5250292307692  C 221.55264781746 16.5849707692308  221.789016865079 16.6561661538461  222.024669642857 16.7386153846153  C 222.261038690476 16.8210646153846  222.496333333333 16.9147  222.730553571429 17.0195215384615  C 222.964773809524 17.124343076923  223.197919642857 17.2402746153846  223.429991071428 17.3673161538462  C 223.662778769841 17.4943407692307  223.894133928571 17.6323738461538  224.124056547619 17.7814153846154  C 224.353979166667 17.93044  224.582469246032 18.0903461538462  224.809526785714 18.2611338461538  C 225.036584325397 18.4319384615385  225.262209325397 18.6134807692308  225.486401785714 18.8057607692307  C 225.710594246032 18.9980238461538  225.932996031746 19.2008807692308  226.153607142857 19.4143315384616  C 226.374218253968 19.6277823076924  226.593038690476 19.8516407692308  226.810068452381 20.0859069230768  C 227.027098214286 20.3202407692309  227.241979166667 20.5647538461538  227.454711309524 20.8194461538462  C 227.667443452381 21.0741384615386  227.877668650794 21.3388153846154  228.085386904762 21.6134769230769  L 237.022285714286 33.4076769230768  C 238.833015873016 35.7972153846155  240.746888888889 37.5633076923077  242.763904761905 38.7059538461538  L 262.375014880952 49.8175615384615  C 263.616310515873 50.5208846153847  264.823583333333 51.4662923076924  265.996833333333 52.6537846153845  L 278.275130952381 65.0795538461539  C 278.698446428571 65.5080461538461  279.127133928571 65.9055692307693  279.561193452381 66.272123076923  C 279.994536706349 66.6386769230769  280.432535714286 66.9735000000001  280.87519047619 67.2765923076923  C 281.317845238095 67.5796846153846  281.763723214286 67.8505384615384  282.212824404762 68.0891538461537  C 282.662641865079 68.3276  283.114608134921 68.5333846153845  283.568723214286 68.7065076923077  C 284.023554563492 68.8797999999999  284.480176587302 69.019923076923  284.938589285714 69.126876923077  C 285.397001984127 69.234  285.856489087302 69.3078692307692  286.317050595238 69.3484846153846  C 286.777612103175 69.3891  287.238173611111 69.3963769230769  287.698735119048 69.3703153846154  C 288.159296626984 69.3442538461538  288.618783730159 69.2849384615384  289.077196428571 69.1923692307693  C 289.536325396825 69.0998  289.993663690476 68.9741461538462  290.449211309524 68.8154076923078  C 290.905475198413 68.6566692307692  291.358874007937 68.4650999999999  291.809407738095 68.2407  C 292.259941468254 68.0163000000001  292.707251984127 67.759576923077  293.151339285714 67.4705307692307  C 293.595426587302 67.1814846153847  294.035574404762 66.8605384615385  294.471782738095 66.5076923076923  C 294.907274801587 66.1550153846154  295.33775297619 65.7711153846154  295.763217261905 65.3559923076923  C 296.18939781746 64.9408692307692  296.609490079365 64.4953692307692  297.023494047619 64.0194923076923  C 297.438214285714 63.5436153846154  297.846129960318 63.0382076923077  298.247241071429 62.5032692307692  C 298.64835218254 61.9683307692308  299.042300595238 61.4048769230769  299.429086309524 60.8129076923076  L 309.626261904762 45.1985769230769  C 310.818134920635 43.3734230769231  312.071965277778 41.8279230769231  313.38775297619 40.5620769230769  C 314.703540674603 39.2964000000001  316.057648809524 38.3328846153847  317.450077380952 37.6715307692307  L 334.255916666667 29.6901  C 336.17551984127 28.7784538461539  338.013826388889 27.3014076923078  339.770836309524 25.2589615384615  L 361 0.579378461538568  L 361 165  L 0 165  Z " fill-rule="nonzero" fill="url(#LinearGradient1907)" stroke="none" transform="matrix(1 0 0 1 117 427 )" />
  </g>
</svg>