<?xml version="1.0" encoding="utf-8"?>
<svg version="1.1" xmlns:xlink="http://www.w3.org/1999/xlink" width="364px" height="77px" xmlns="http://www.w3.org/2000/svg">
  <g transform="matrix(1 0 0 1 -116 -424 )">
    <path d="M 0 6.21977655172418  L 15.3496985119048 43.8988413793104  C 15.6745985119047 44.6963402298852  16.0106006944444 45.4665356321839  16.3577050595238 46.2094275862069  C 16.7048094246032 46.9523195402299  17.0621922619048 47.6661218390805  17.4298535714286 48.3508344827587  C 17.7975865079365 49.0357172413793  18.1747025793651 49.6898942528736  18.5612017857143 50.3133655172414  C 18.9477726190477 50.9368367816091  19.34283125 51.528156321839  19.7463776785714 52.0873241379311  C 20.149995734127 52.646491954023  20.561170436508 53.172232183908  20.9799017857143 53.6645448275863  C 21.3986331349206 54.1570275862069  21.8239541666667 54.6148068965517  22.2558648809524 55.0378827586206  C 22.6877755952382 55.4611287356321  23.1253090277778 55.8488206896552  23.5684651785714 56.2009586206896  C 24.011549702381 56.5529264367817  24.4591825396825 56.8685747126437  24.9113636904762 57.1479034482759  C 25.363616468254 57.4270620689655  25.8193431547619 57.6692206896552  26.27854375 57.8743793103448  C 26.7377443452381 58.0795379310345  27.1993444444445 58.2471862068966  27.663344047619 58.3773241379312  C 28.1273436507936 58.5074620689656  28.5927041666667 58.5997494252874  29.0594255952381 58.6541862068966  C 29.5260753968254 58.7086229885057  29.9929758928571 58.7250390804599  30.4601270833333 58.7034344827586  C 30.9272782738095 58.6820000000001  31.3935699404762 58.6226298850574  31.8590020833333 58.5253241379311  C 32.3245058531746 58.4280183908047  32.7880040674603 58.2929471264368  33.2494967261905 58.1201103448276  C 33.7110610119048 57.9474436781609  34.1696169642858 57.7375218390804  34.6251645833333 57.4903448275862  C 35.0806405753969 57.243167816092  35.5320338293651 56.9592459770115  35.9793443452381 56.6385793103448  L 42.8776675595238 51.6935931034484  C 43.7058903769842 51.0998919540231  44.5170301587301 50.3953609195402  45.3110869047619 49.58  C 46.1051436507937 48.7648091954024  46.8768885912698 47.8441471264368  47.6263217261905 46.8180137931034  C 48.3758264880952 45.7918804597701  49.0980771825397 44.6670804597701  49.7930738095238 43.4436137931034  C 50.4880704365079 42.2201471264368  51.1512288690476 40.9060942528736  51.7825491071428 39.5014551724138  L 59.8820568452381 21.4822  C 60.0756645833333 21.0514689655173  60.2736773809524 20.6324333333334  60.4760952380952 20.2250931034482  C 60.6785130952381 19.8178209195402  60.8851211309524 19.4228055172415  61.0959193452381 19.0400468965518  C 61.3066459325397 18.6572712643679  61.5212761904762 18.2872287356321  61.7398101190477 17.9299193103448  C 61.958272420635 17.5726098850575  62.1803876984128 17.228475862069  62.406155952381 16.8975172413794  C 62.6319242063493 16.5665586206896  62.8610231150793 16.2491836781609  63.0934526785714 15.9453924137931  C 63.3258822420635 15.6416181609195  63.561391765873 15.3518018390805  63.79998125 15.0759434482758  C 64.0384991071429 14.8000850574712  64.2797746031746 14.5385418390805  64.5238077380952 14.2913137931034  C 64.7678408730159 14.0440857471265  65.0143093253969 13.8114790804597  65.2632130952381 13.5934937931034  C 65.5121168650793 13.3754914942528  65.7631694444445 13.1723827586207  66.0163708333334 12.9841675862069  C 66.2695722222222 12.7959524137931  66.5245642857143 12.6228689655172  66.7813470238095 12.4649172413793  C 67.038201388889 12.3069485057471  67.2965599206349 12.1642986206896  67.5564226190477 12.0369675862069  C 67.8162136904762 11.9096535632185  68.0772224206349 11.79782  68.3394488095238 11.7014668965517  C 68.6016035714286 11.6050967816091  68.8646178571428 11.5243347126437  69.1284916666667 11.4591806896552  C 69.3923654761904 11.3940266666668  69.6567764880953 11.3445487356322  69.921724702381 11.3107468965517  C 70.1866012896826 11.2769450574713  70.4516927579365 11.2588788505747  70.7169991071428 11.256548275862  C 70.9823054563493 11.2542006896552  71.2474685515874 11.2675717241379  71.5124883928572 11.2966613793104  C 71.777508234127 11.325768045977  72.0420625 11.3705678160919  72.3061511904762 11.4310606896552  C 72.5702398809524 11.4915535632184  72.8335406746032 11.5676544827586  73.0960535714286 11.6593634482759  C 73.3584948412699 11.7510894252874  73.6198258928572 11.8583128735632  73.8800467261905 11.9810337931034  C 74.1402675595239 12.1037377011495  74.3990558531746 12.2418029885058  74.6564116071429 12.3952296551724  C 74.913695734127 12.5486393103448  75.169225 12.7172062068965  75.4229994047619 12.9009303448276  C 75.6767738095239 13.0846544827586  75.9284710317461 13.2833147126437  76.1780910714286 13.4969110344828  C 76.4277111111112 13.7104903448276  76.6748958333333 13.9387335632184  76.9196452380953 14.1816406896551  C 77.1644662698413 14.4245308045976  77.4065654761905 14.6817871264367  77.6459428571428 14.9534096551724  C 77.8853202380952 15.225032183908  78.1217250992063 15.5106806896551  78.3551574404762 15.8103551724137  C 78.5885181547619 16.1100126436781  78.8185840277778 16.4233218390805  79.0453550595238 16.7502827586208  C 79.2721260912699 17.0772266666667  79.4953515873016 17.4174140229885  79.7150315476191 17.7708448275862  C 79.9346398809524 18.1242926436781  80.1504161706349 18.4905245977012  80.3623604166667 18.8695406896551  C 80.5743046626984 19.2485737931035  80.7821303571429 19.639931724138  80.9858375 20.0436144827587  C 81.1895446428571 20.4472462068965  81.3888825396825 20.8627264367815  81.5838511904762 21.2900551724137  C 81.7788198412698 21.717383908046  81.9691685515873 22.1560252873564  82.1548973214286 22.6059793103448  C 82.3406260912699 23.0559333333334  82.5215200396826 23.5166045977011  82.6975791666667 23.9879931034483  L 91.092118452381 46.4628137931035  C 91.5561896825397 47.7053333333333  92.0435396825397 48.8940114942528  92.5541684523809 50.0288482758621  C 93.0647972222223 51.1636850574712  93.5964485119047 52.2397471264367  94.1491223214286 53.2570344827585  C 94.7018677579366 54.2744919540229  95.2733078373016 55.2288367816092  95.8634425595238 56.1200689655172  C 96.4535056547619 57.0113011494252  97.0597206349206 57.8355931034482  97.6820875 58.5929448275862  C 98.3044543650794 59.3502965517241  98.9402871031746 60.0373908045976  99.5895857142858 60.6542275862069  C 100.238884325397 61.2712344827586  100.898819543651 61.8152620689655  101.569391369048 62.2863103448276  C 102.239963194444 62.7575287356321  102.918270734127 63.1538114942528  103.604313988095 63.4751586206896  C 104.290428869048 63.7966758620689  104.981342757937 64.0418114942528  105.677055654762 64.2105655172413  L 112.390258928571 65.8393310344828  C 113.019143849206 65.9919241379309  113.649819444444 66.0815747126437  114.282285714286 66.1082827586208  C 114.914035714286 66.1348206896552  115.545427579365 66.0984160919541  116.176461309524 65.9990689655173  C 116.807495039683 65.8995517241379  117.435663690476 65.7373471264368  118.060967261905 65.5124551724139  C 118.686270833333 65.2877333333333  119.306560515873 65.0010045977011  119.921836309524 64.6522689655173  C 120.536395833333 64.3035333333334  121.144150793651 63.8940666666666  121.745101190476 63.4238689655172  C 122.34533531746 62.9538413793103  122.936616071429 62.4246988505747  123.518943452381 61.8364413793104  C 124.100554563492 61.2483540229885  124.670705357143 60.6032781609195  125.229395833333 59.9012137931035  C 125.788802579365 59.1991494252873  126.334600198413 58.4425632183908  126.866788690476 57.6314551724138  L 132.182943452381 49.5294758620689  C 132.398540674603 49.2014942528736  132.61664484127 48.8837195402298  132.837255952381 48.576151724138  C 133.057150793651 48.2684137931034  133.279910714286 47.9711379310346  133.505535714286 47.684324137931  C 133.731160714286 47.3975103448275  133.958934523809 47.1212436781609  134.188857142857 46.855524137931  C 134.418779761905 46.5899747126437  134.650851190476 46.3352275862069  134.885071428571 46.0912827586207  C 135.119291666667 45.847508045977  135.355660714286 45.6146206896551  135.594178571429 45.3926206896551  C 135.83198015873 45.1707908045977  136.071572420635 44.9601885057471  136.312955357143 44.7608137931035  C 136.554338293651 44.5612689655173  136.797511904762 44.3731218390805  137.042476190476 44.1963724137931  C 137.287440476191 44.0196229885058  137.533479166667 43.8543563218391  137.780592261905 43.7005724137931  C 138.028421626984 43.5467885057471  138.276967261905 43.4046574712643  138.526229166667 43.2741793103448  C 138.77620734127 43.1435310344827  139.026901785714 43.0246206896551  139.2783125 42.9174482758622  C 139.530439484127 42.8102758620689  139.783282738095 42.7149264367817  140.036842261905 42.6314  C 140.289685515873 42.5478735632184  140.543603174603 42.4761701149426  140.798595238095 42.4162896551724  C 141.052871031746 42.3564091954023  141.307504960317 42.3084367816091  141.56249702381 42.2723724137931  C 141.818205357143 42.236308045977  142.073913690476 42.2122367816092  142.32962202381 42.2001586206895  C 142.585330357143 42.1879103448276  142.841038690476 42.1876551724138  143.09674702381 42.1993931034482  C 143.352455357143 42.2109609195402  143.607805555556 42.2345218390805  143.862797619048 42.270075862069  C 144.118505952381 42.3056298850574  144.373498015873 42.353091954023  144.627773809524 42.4124620689656  C 144.882049603175 42.4718321839081  145.135967261905 42.5430252873563  145.389526785714 42.6260413793103  C 145.643086309524 42.7090574712644  145.895571428571 42.8038965517241  146.146982142857 42.9105586206897  C 146.399109126984 43.0172206896551  146.649803571429 43.1356206896551  146.899065476191 43.2657586206897  C 147.149043650794 43.3957264367817  147.397947420635 43.5373471264368  147.645776785714 43.6906206896552  C 147.892889880952 43.8438942528736  148.138928571429 44.0086505747126  148.383892857143 44.1848896551724  C 148.628857142857 44.3612988505748  148.872030753968 44.548935632184  149.113413690476 44.7477999999999  C 149.354796626984 44.9468344827587  149.59474702381 45.1570114942529  149.833264880952 45.3783310344829  C 150.071066468254 45.5998206896552  150.307077380952 45.8322827586207  150.541297619048 46.0757172413793  C 150.776234126984 46.319151724138  151.008663690476 46.5733885057471  151.238586309524 46.8384275862068  C 151.468508928571 47.1036367816093  151.696282738095 47.3793931034483  151.921907738095 47.6656965517241  C 152.147532738095 47.9521701149425  152.370650793651 48.2490206896553  152.591261904762 48.5562482758621  C 152.811873015873 48.863475862069  153.02997718254 49.1808252873564  153.245574404762 49.5082965517242  C 153.460455357143 49.8359379310345  153.672829365079 50.1734459770116  153.882696428571 50.5208206896552  C 154.092563492064 50.8683655172414  154.29956547619 51.2255218390804  154.503702380952 51.5922896551724  C 154.707123015873 51.9590574712644  154.907678571429 52.3351816091953  155.105369047619 52.7206620689656  L 159.346044642857 60.9908  C 159.701314484127 61.6845287356322  160.065537698413 62.35171954023  160.438714285714 62.9923724137931  C 160.811174603175 63.6331954022989  161.19187202381 64.2462896551723  161.580806547619 64.8316551724137  C 161.969024801587 65.4170206896551  162.364763888889 65.9736367816092  162.768023809524 66.5015034482759  C 163.171283730159 67.0293701149425  163.580631944444 67.5274666666666  163.996068452381 67.9957931034483  C 164.412221230159 68.4642896551724  164.833746031746 68.90208045977  165.260642857143 69.3091655172414  C 165.68753968254 69.7162505747127  166.119450396825 70.0920344827587  166.556375 70.4365172413793  C 166.993299603175 70.7808298850575  167.434163690476 71.093075862069  167.878967261905 71.3732551724138  C 168.323770833333 71.6536045977011  168.771797619048 71.9013770114942  169.223047619048 72.1165724137929  C 169.674297619048 72.331767816092  170.127696428571 72.5139609195403  170.583244047619 72.6631517241378  C 171.039507936508 72.8125126436781  171.496846230159 72.9285310344828  171.955258928571 73.0112068965518  C 172.414387896825 73.0940528735632  172.873875 73.1434712643678  173.333720238095 73.1594620689655  C 173.794281746032 73.1754528735632  174.254485119048 73.158016091954  174.714330357143 73.107151724138  C 175.173459325397 73.0564574712644  175.63187202381 72.9723356321838  176.089568452381 72.8547862068965  C 176.547264880952 72.7372367816092  177.0028125 72.5866000000001  177.456211309524 72.4028758620689  C 177.910326388889 72.219151724138  178.361218253968 72.0026804597701  178.808886904762 71.7534620689655  C 179.257271825397 71.5042436781608  179.701717261905 71.222703448276  180.142223214286 70.9088413793103  L 187.17312797619 65.9033793103449  C 188.049842261905 65.2792275862069  188.907575396825 64.531232183908  189.746327380952 63.6593931034483  C 190.584363095238 62.787383908046  191.397329365079 61.7978252873564  192.185226190476 60.6907172413793  C 192.973123015873 59.5837793103448  193.729503968254 58.3674574712644  194.454369047619 57.0417517241379  C 195.179950396825 55.7162160919542  195.869001984127 54.2910781609195  196.521523809524 52.7663379310344  L 206.932505952381 28.4297793103448  C 207.102261904762 28.0323908045976  207.275599206349 27.6433379310344  207.452517857143 27.2626206896553  C 207.628720238095 26.8819034482759  207.808503968254 26.5097770114942  207.991869047619 26.1462413793104  C 208.174517857143 25.782535632184  208.360031746032 25.4277609195402  208.548410714286 25.0819172413793  C 208.737505952381 24.7360735632184  208.929466269841 24.3993310344828  209.124291666667 24.0716896551723  C 209.318400793651 23.744048275862  209.515375 23.4258482758621  209.715214285714 23.1170896551724  C 209.915053571429 22.8083310344828  210.117757936508 22.509183908046  210.323327380952 22.219648275862  C 210.528180555556 21.9302827586206  210.735540674603 21.6506988505747  210.945407738095 21.3808965517242  C 211.154558531746 21.111264367816  211.366216269841 20.8516689655173  211.580380952381 20.6021103448276  C 211.794545634921 20.3526367816091  212.010859126984 20.1134551724138  212.229321428571 19.8845655172413  C 212.447067460317 19.6556928735631  212.666962301587 19.4372993103448  212.889005952381 19.2293848275862  C 213.110333333333 19.0214873563218  213.33380952381 18.8242475862069  213.55943452381 18.6376655172414  C 213.784343253968 18.4510834482759  214.01104265873 18.2753036781609  214.239532738095 18.1103262068965  C 214.467306547619 17.9453657471265  214.696512896825 17.7913436781609  214.927151785714 17.6482599999999  C 215.157790674603 17.5051763218391  215.389862103175 17.3731501149426  215.623366071429 17.2521813793103  C 215.856153769841 17.1311956321838  216.090015873016 17.0213779310345  216.324952380952 16.9227282758621  C 216.559888888889 16.8240616091954  216.795183531746 16.7366310344827  217.030836309524 16.6604365517241  C 217.267205357143 16.5842420689656  217.504290674603 16.5193432183908  217.742092261905 16.46574  C 217.979177579365 16.4121367816091  218.216979166667 16.3698717241379  218.455497023809 16.3389448275862  C 218.693298611111 16.3080179310345  218.931458333333 16.2884547126436  219.169976190476 16.2802551724139  C 219.408494047619 16.2720556321839  219.647011904762 16.275228275862  219.885529761905 16.2897731034482  C 220.123331349206 16.3043179310344  220.361491071429 16.3302179310344  220.600008928571 16.3674731034483  C 220.837810515873 16.4047282758621  221.075253968254 16.4533131034483  221.312339285714 16.5132275862069  C 221.549424603175 16.5731420689656  221.785793650794 16.6443351724138  222.021446428571 16.7268068965517  C 222.25781547619 16.8092956321839  222.493110119048 16.9029864367816  222.727330357143 17.0078793103449  C 222.961550595238 17.1127891954023  223.194696428571 17.2288245977012  223.426767857143 17.3559855172414  C 223.659555555556 17.4831464367816  223.890910714286 17.6213308045978  224.120833333333 17.7705386206897  C 224.350755952381 17.9197634482758  224.579604166667 18.0798841379309  224.807377976191 18.2509006896552  C 225.034435515873 18.4219342528736  225.260060515873 18.603727586207  225.48425297619 18.7962806896551  C 225.708445436508 18.9888508045976  225.930847222222 19.192027586207  226.151458333333 19.4058110344828  C 226.372785714286 19.6196114942529  226.591964285714 19.8438485057471  226.808994047619 20.0785220689655  C 227.026023809524 20.3132636781609  227.240904761905 20.5582206896552  227.453636904762 20.8133931034483  C 227.666369047619 21.0685655172413  227.876952380952 21.3337747126436  228.085386904762 21.6090206896551  L 237.027657738095 33.4204413793103  C 238.834806547619 35.8068137931035  240.743665674603 37.5700551724138  242.754235119048 38.7101655172414  L 262.381461309524 49.8395103448276  C 263.618459325397 50.541064367816  264.822150793651 51.4844367816091  265.992535714286 52.6696275862069  L 278.315958333333 65.1513862068966  C 278.737841269841 65.5790551724138  279.165096230159 65.9756781609195  279.597723214286 66.3412551724138  C 280.029633928571 66.7070022988506  280.466200396825 67.0410229885057  280.907422619048 67.3433172413793  C 281.347928571429 67.6457816091955  281.792374007937 67.9160091954022  282.240758928571 68.154  C 282.688427579365 68.3918206896553  283.138961309524 68.5970643678161  283.592360119048 68.7697310344827  C 284.04504265873 68.9423977011494  284.499874007937 69.0821471264367  284.956854166667 69.1889793103448  C 285.413834325397 69.2956413793104  285.871530753968 69.369216091954  286.329943452381 69.4097034482758  C 286.788356150794 69.4500206896552  287.247126984127 69.4571655172413  287.706255952381 69.4311379310345  C 288.164668650794 69.404940229885  288.622723214286 69.3456551724137  289.080419642857 69.2532827586206  C 289.537399801587 69.1607402298851  289.992947420635 69.0351954022988  290.4470625 68.8766482758621  C 290.901177579365 68.7181011494253  291.352785714286 68.5268068965516  291.801886904762 68.3027655172413  C 292.250988095238 68.0788942528736  292.696866071429 67.822616091954  293.139520833333 67.5339310344828  C 293.582175595238 67.2452459770116  294.020532738095 66.9248344827586  294.454592261905 66.5726965517241  C 294.889368055556 66.2205586206897  295.319129960317 65.8372896551725  295.743877976191 65.4228896551724  C 296.167909722222 65.0084896551723  296.586569444444 64.5637241379311  296.999857142857 64.0885931034482  C 297.41314484127 63.6134620689655  297.81962797619 63.1089011494253  298.219306547619 62.5749103448276  C 298.619701388889 62.0409195402299  299.012575396825 61.4784344827586  299.397928571429 60.8874551724139  L 309.632708333333 45.2030275862069  C 310.822432539683 43.3795655172413  312.073755952381 41.8358574712643  313.386678571429 40.5719034482759  C 314.698884920635 39.3079494252874  316.049053571429 38.3459494252874  317.43718452381 37.6859034482758  L 334.265586309524 29.687524137931  C 336.178743055556 28.7780896551724  338.011677579365 27.304043678161  339.764389880952 25.2653862068965  L 361 0.557475172413831  " stroke-width="2" stroke="#ffb822" fill="none" transform="matrix(1 0 0 1 117 425 )" />
  </g>
</svg>