<?xml version="1.0" encoding="utf-8"?>
<svg version="1.1" xmlns:xlink="http://www.w3.org/1999/xlink" width="40px" height="108px" xmlns="http://www.w3.org/2000/svg">
  <g transform="matrix(1 0 0 1 -853 -468 )">
    <path d="M 0.555665819837031 0.730280854799958  C 0.555665819837031 0.730280854799958  1.39074342383833 2.82168008518124  1.80866776489893 5.74948454691503  C 2.22659210595953 8.6780613126482  1.80866776489893 9.09587777632487  5.56767360008485 12.0244545420583  C 9.32667943527053 14.9522590037921  11.8326833253943 19.1350574645546  13.0856852704562 19.5536462322307  C 14.3386872155181 19.9714626959071  22.2746232269503 21.645045462612  23.1097008309516 19.5536462322307  C 23.9447784349529 17.4622470018494  24.7806271170743 14.9522590037921  28.1217086111994 14.5336702361162  C 31.4627901053245 14.1158537724393  34.3867183365089 14.5336702361162  34.3867183365089 14.5336702361162  C 34.3867183365089 14.5336702361162  37.3106465676935 18.2986522332019  36.8927222266329 20.8086402312592  C 36.4747978855721 23.3178559253172  36.8927222266329 25.4092551556985  35.6397202815708 30.8470476154896  C 34.3867183365089 36.2848400752807  34.8046426775697 39.6312333046906  33.133716391447 42.1412213027479  C 31.4627901053245 44.651209300805  27.7037842701386 46.3240197635105  26.8687066661375 48.4154189938918  C 26.0336290621362 50.5068182242728  24.3627027760135 55.5267942203875  24.3627027760135 57.1996046830927  C 24.3627027760135 58.8731874497976  24.3627027760135 67.2387843713225  24.3627027760135 67.2387843713225  L 20 74.7679760614949  L 20 84.8071557497244  L 20 89.8263594418397  L 20 99.8655391300695  L 21.8566988858897 104.885515126184  " stroke-width="2.00063512226104" stroke="#00a0e9" fill="none" transform="matrix(1 0 0 1 854 469 )" />
  </g>
</svg>