<?xml version="1.0" encoding="utf-8"?>
<svg version="1.1" xmlns:xlink="http://www.w3.org/1999/xlink" width="14px" height="4px" preserveAspectRatio="xMinYMid meet" viewBox="962 295  14 2" xmlns="http://www.w3.org/2000/svg">
  <g transform="matrix(0.500000000000009 -0.866025403784452 0.866025403784436 0.500000000000009 228.156480479798 987.178616267131 )">
    <path d="M 141.77679933665 0.480188915089684  C 141.77679933665 0.480188915089684  147.193034331887 4.63069802639143  149.275846653259 6.70556948169974  C 151.358658974631 8.78044093700805  153.025370311563 8.78044093700805  150.525687872693 12.9301838476247  C 148.026005433824 17.0799267582415  144.693351893017 19.5700789848854  148.026005433824 21.6449504401937  C 151.358658974631 23.719821895502  152.192399209626 22.8900265535158  155.525052750432 24.1351026668378  C 158.857706291239 25.3801787801599  166.773623725345 27.8695648061189  168.02346494478 27.8695648061189  C 169.273306164214 27.8695648061189  175.105642143891 27.8695648061189  171.772988603084 30.359717032763  C 168.440335062277 32.8498692594069  166.773623725345 29.1146409194409  166.773623725345 32.8498692594069  C 166.773623725345 36.5843313986879  168.856436046717 40.3195597386539  164.273941286476 41.5646358519759  C 159.691446526234 42.8089457646129  150.525687872693 47.7892502179011  150.525687872693 47.7892502179011  C 150.525687872693 47.7892502179011  139.693987015278 49.8641216732094  141.77679933665 54.013864583826  C 143.859611658022 58.1636074944427  146.776164214389 62.7286311763951  146.776164214389 62.7286311763951  C 146.776164214389 62.7286311763951  140.526958117215 65.6332979736899  135.527593239477 65.2187834030392  C 130.528228361738 64.8035026317034  115.947003846018 66.0485787450255  111.780610070216 63.9737072897171  C 107.614216294415 61.8988358344088  104.281562753608 59.4086836077647  101.781880314738 58.994169037114  C 99.2821978758689 58.5788882657785  94.28283299813 58.994169037114  94.28283299813 61.483555063073  C 94.28283299813 63.9737072897171  91.3662804417629 69.3685263136558  91.7831505592605 72.6884738822862  C 92.2000206767582 76.0084214509166  91.3662804417629 78.0832929062249  89.283468120391 80.1581643615332  C 87.2006557990192 82.2330358168415  92.2000206767582 83.4781119301636  81.7844208037825 85.1377026141363  C 71.368820930807 86.7980594987939  68.0361673900004 86.7980594987939  64.2866437316961 87.6278548407804  C 60.5371200733919 88.4576501827667  57.6205675170249 91.777597751397  55.5377551956531 95.0975453200274  C 53.4549428742812 98.4174928886578  52.6212026392859 105.057388025918  48.0387078790445 103.812311912596  C 43.4562131188034 102.567235799274  45.539025440175 99.6625690019796  40.539660562436 98.8327736599936  C 35.5402956846972 98.0029783180071  31.7907720263929 96.757902204685  29.2910895875234 98.8327736599936  C 26.7914071486539 100.907645115302  23.8748545922867 103.397797341946  21.7920422709149 103.812311912596  C 19.7092299495432 104.227592683932  15.9597062912389 101.322925886637  14.2929949543066 98.8327736599936  C 12.6262836173742 96.3426214333495  10.1266011785046 93.8524692067053  9.29363007656752 96.3426214333495  C 8.46065897463041 98.8327736599936  3.04442397939374 105.057388025918  3.04442397939374 105.057388025918  L 0.544741540524456 107.547540252562  " stroke-width="2.00063512226104" stroke="#00a0e9" fill="none" transform="matrix(1 0 0 1 824 237 )" />
  </g>
</svg>