<?xml version="1.0" encoding="utf-8"?>
<svg version="1.1" xmlns:xlink="http://www.w3.org/1999/xlink" width="21px" height="58px" xmlns="http://www.w3.org/2000/svg">
  <g transform="matrix(1 0 0 1 -1094 -362 )">
    <path d="M 1.13122868543496 0.611993970811227  C 1.13122868543496 0.611993970811227  0.283394314275256 0.192001484933826  1.13122868543496 3.12962420442  C 1.9790630565949 6.06802181779153  3.25120604194581 6.06802181779153  4.94765764148724 8.16643445940804  C 6.64410924102913 10.2648471010248  8.33977798334877 11.5240496647718  8.76408659753974 15.7208749480051  C 9.18839521173049 19.9177002312383  8.33977798334877 23.6953079224793  8.76408659753974 25.793720564096  C 9.18839521173049 27.8921332057125  6.21980062683815 27.0521482339577  8.76408659753974 30.8297559251987  C 11.3083725682411 34.6073636164399  14.7004929101026 36.285783772179  16.3969445096443 39.6433989775428  C 18.093396109186 43.0010141829064  18.093396109186 46.3586293882699  17.669087494995 48.4570420298867  C 17.2447788808042 50.5554546715032  15.1248015242934 53.4930773909894  15.1248015242934 53.4930773909894  L 12.5805155535918 54.7522799547364  " stroke-width="2.00063512226104" stroke="#00a0e9" fill="none" transform="matrix(1 0 0 1 1095 363 )" />
  </g>
</svg>