<?xml version="1.0" encoding="utf-8"?>
<svg version="1.1" xmlns:xlink="http://www.w3.org/1999/xlink" width="37px" height="54px" xmlns="http://www.w3.org/2000/svg">
  <g transform="matrix(1 0 0 1 -929 -429 )">
    <path d="M 0.194592800023202 2.94403201593582  C 0.194592800023202 2.94403201593582  5.637866277895 5.87514434596847  7.73107624354066 4.20011258985528  C 9.82428620918608 2.52585380640335  15.2675596870581 0.432643840757464  15.2675596870581 0.432643840757464  C 15.2675596870581 0.432643840757464  20.2918819827362 2.94403201593582  20.2918819827362 5.45619316377497  C 20.2918819827362 7.96835431161412  24.060123704495 7.96835431161412  24.060123704495 7.96835431161412  C 24.060123704495 7.96835431161412  28.2473166084471 8.80548370334031  25.3162042784145 10.4797424867925  C 22.3850919483818 12.1547742429054  19.0358014088167 9.22443488553358  21.5479625566559 12.9919036346316  C 24.060123704495 16.7601453563902  25.7351554606082 17.1783235659229  25.3162042784145 19.2715335315686  C 24.897253096221 21.3647434972142  25.7351554606082 25.1329852189729  25.3162042784145 26.807244002425  C 24.897253096221 28.4822757585382  25.3162042784145 31.8315662981033  25.3162042784145 31.8315662981033  L 26.5722848523342 34.3437274459425  L 30.3405265740928 38.1111961950403  C 30.3405265740928 38.1111961950403  34.9458976875776 41.8794379167991  32.8526877219319 43.1355184907186  C 30.7594777562863 44.3908260919773  28.6654948179798 44.8097772741708  26.5722848523342 45.646906665897  C 24.4790748866885 46.4840360576229  20.2918819827362 50.6712289615753  20.2918819827362 50.6712289615753  " stroke-width="2.00063512226104" stroke="#00a0e9" fill="none" transform="matrix(1 0 0 1 930 430 )" />
  </g>
</svg>