<?xml version="1.0" encoding="utf-8"?>
<svg version="1.1" xmlns:xlink="http://www.w3.org/1999/xlink" width="158px" height="84px" xmlns="http://www.w3.org/2000/svg">
  <g transform="matrix(1 0 0 1 -889 -477 )">
    <path d="M 0.18056180022586 13.909209422578  C 1.42786370967997 13.909209422578  1.01184054972668 12.6670698095234  3.92246752858841 12.6670698095234  C 6.83309450745014 12.6670698095234  10.1589770758594 12.6670698095234  11.4062789853137 13.909209422578  C 12.6535808947679 15.1513490356328  14.7321615537228 18.4634665392427  17.6427885325847 15.1513490356328  C 20.5534155114465 11.8392315320227  20.5534155114465 8.52711402841283  22.6319961704014 8.94141536396705  C 24.7105768293566 9.35571669952128  30.53183078708 11.8392315320227  32.6104114460352 12.6670698095234  C 34.6889921049901 13.4956724806318  38.4308978333527 16.8077899842417  42.5888267216687 15.1513490356328  C 46.7467556099846 13.4956724806318  48.4093131089865 13.4956724806318  47.5780343594856 11.4256945900765  C 46.7467556099846 9.35571669952128  43.0048498816222 9.76925364146746  43.8361286311228 7.69927575091219  C 44.6674073806239 5.62929786035716  52.151218837349 7.28497441535797  52.5672419973023 5.21499652480293  C 52.9832651572558 3.14501863424766  51.3199400878482 1.9028790211928  53.8145439067566 1.48934207924663  C 56.3091477256651 1.07504074369217  57.5564496351192 -0.167098869362462  60.0510534540276 0.247202466191766  C 62.5456572729361 0.661503801745994  63.3769360224369 1.48934207924663  65.0402610918445 3.97285691174807  C 66.7035861612519 6.45713613785756  66.2875630012986 8.11357708646665  71.2767706391155 8.94141536396705  C 76.2659782769322 9.76925364146746  82.0864646642499 10.1835549770217  83.7497897336575 10.1835549770217  C 85.4131148030651 10.1835549770217  86.244393552566 8.52711402841283  87.4916954620201 11.4256945900765  C 88.7389973714744 14.3235107581322  89.9862992809285 16.3934886486877  88.7389973714744 18.8777678747972  C 87.4916954620201 21.3612827072984  84.9970916431116 23.8455619334081  84.9970916431116 23.8455619334081  L 82.5024878242032 26.3298411595176  C 82.5024878242032 26.3298411595176  84.9970916431116 27.5719807725723  86.244393552566 30.0554956050739  C 87.4916954620201 32.5397748311832  83.7497897336575 34.1962157797925  83.7497897336575 37.5083332834024  C 83.7497897336575 40.8196863934043  82.5024878242032 44.9604065681228  87.4916954620201 44.9604065681228  C 92.480903099837 44.9604065681228  96.2228088281995 44.5461052325686  99.9647145565621 44.9604065681228  C 103.706620284925 45.3739435100692  108.695827922742 44.9604065681228  108.695827922742 44.9604065681228  C 108.695827922742 44.9604065681228  107.864549173241 49.5138992911798  109.943129832196 48.6860610136791  C 112.021710491151 47.8582227361787  114.101058720512 45.7882448456235  118.674243198375 44.9604065681228  C 123.247427676239 44.1318038970144  125.3267759056 37.5083332834024  129.899960383463 39.9918481159038  C 134.473144861326 42.4761273420133  131.978541042418 44.5461052325686  133.641866111825 48.6860610136791  C 135.305191181233 52.8260167947897  144.867583296913 59.8645531375639  144.867583296913 59.8645531375639  C 144.867583296913 59.8645531375639  148.609489025276 66.0744868092297  149.85679093473 67.3166264222843  C 151.104092844184 68.5587660353392  149.85679093473 66.4887881447839  151.104092844184 72.2844204808955  C 152.351394753639 78.0808172106149  154.845998572547 80.9786333786708  154.845998572547 80.9786333786708  " stroke-width="2.00063512226104" stroke="#00a0e9" fill="none" transform="matrix(1 0 0 1 890 478 )" />
  </g>
</svg>