<?xml version="1.0" encoding="utf-8"?>
<svg version="1.1" xmlns:xlink="http://www.w3.org/1999/xlink" width="593px" height="443px" xmlns="http://www.w3.org/2000/svg">
  <g transform="matrix(1 0 0 1 -636 -180 )">
    <path d="M 363.543354087242 17.8745252847025  C 369.286984456781 15.8742374949279  367.538923039965 16.6243454160933  366.040584682694 12.8745751517235  C 364.542246325423 9.1240355458965  362.045015729971 0.123509833368644  369.786430575872 0.373545807090522  C 377.527845421772 0.623581780812174  386.018429446308 6.87371178240005  384.769814148583 12.8745751517235  C 383.521198850857 18.8746691795898  385.019537208128 22.3751728116952  389.764275339486 27.8751948921174  C 394.509013470844 33.3752169725399  405.496828090832 39.1260443681415  417.233811889456 44.1259945011204  C 428.970795688079 49.1259446340991  429.220518747625 48.8759086603773  439.708887248522 59.1266142415141  C 450.19725574942 69.3773198226509  453.943101642597 75.3774138505169  469.675654393944 74.1272339819079  C 485.40820714529 72.8778234547563  499.892144598911 71.1275716387038  512.128574516624 76.627593719126  C 524.365004434338 82.1276157995485  535.352819054326 85.378083457932  545.841187555224 81.6283131935625  C 556.329556056121 77.8777735877352  567.816816795199 75.1273778767952  580.802415891549 79.1279534563441  C 593.788014987898 83.1277596944356  595.036630285624 89.6286950112028  589.54272297563 89.1286230637593  C 584.048815665636 88.6285511163155  570.314047390651 85.6281194316539  572.062108807468 89.1286230637593  C 573.810170224284 92.6283573544072  584.298538725182 100.878775145769  578.305185296097 102.879062935544  C 572.311831867013 104.879350725319  565.569309259293 103.129098909266  554.581494639305 101.628883066935  C 543.593680019317 100.128667224604  532.106419280239 103.129098909266  532.106419280239 106.629602541371  C 532.106419280239 110.129336832019  541.346172483411 115.380092280177  534.603649875691 115.380092280177  C 527.861127267971 115.380092280177  517.123035707528 115.630128253899  520.868881600706 120.380042413156  C 524.614727493883 125.129956572413  524.365004434338 125.880064493578  529.609188684787 129.130532151962  C 534.853372935236 132.380999810345  533.854480697055 135.630698127271  533.355034577964 141.630792155137  C 532.855588458874 147.631655524461  533.10531151842 150.381281893943  542.095341662046 160.381951501358  C 551.085371805672 170.382621108773  564.570417021112 181.383434611076  573.310724105193 182.883650453407  C 582.051031189275 184.38309695428  592.039953571082 190.884032271047  585.796877082453 197.884270193801  C 579.553800593823 204.884508116554  577.805739177007 207.884939801216  573.310724105193 210.384530196976  C 568.81570903338 212.884889934194  553.083156282034 218.88498396206  548.338418150675 220.385199804391  C 543.593680019317 221.885415646722  531.357250101603 233.386301096468  522.117496898431 231.636049280415  C 512.87774369526 229.885797464363  510.879959218898 229.135689543197  510.879959218898 229.135689543197  C 510.879959218898 229.135689543197  492.15072975301 245.886561099644  469.675654393944 236.635999413394  C 447.200579034878 227.385437727145  421.479103901724 235.885891492229  418.482427187182 240.386539019221  C 415.48575047264 244.886417204756  417.733258008546 253.386870969841  417.233811889456 259.137698365442  C 416.734365770365 264.887756419587  419.731042484908 271.387922394896  420.979657782634 275.388497974445  C 422.228273080359 279.388304212537  424.725503675811 278.888232265093  430.968580164441 282.888807844642  C 437.21165665307 286.888614082734  442.455840903519 289.388973819952  447.200579034878 294.138887979208  C 451.945317166236 298.889571479923  457.189501416685 301.139895243419  459.686732012136 299.139607453645  C 462.183962607588 297.139319663871  464.18174708395 295.889139795261  467.178423798492 301.639197849406  C 470.175100513034 307.390025245007  474.170669465757 314.140227194039  472.172884989396 319.140177327017  C 470.175100513034 324.140896801454  469.425931334399 325.391076670063  467.178423798492 327.890667065823  C 464.930916262585 330.391026803042  466.429254619856 332.89138654026  464.68119320304 335.391746277478  C 462.933131786224 337.891336673239  459.686732012136 336.891192778351  458.438116714411 339.141516541848  C 457.189501416685 341.391840305344  455.691163059414 341.641876279066  462.183962607588 346.641826412044  C 468.676762155763 351.642545886481  471.673438870305 354.392172255963  465.929808500766 355.392316150851  C 460.186178131227 356.392460045738  454.192824702143 358.14271186179  449.697809630329 364.142805889656  C 445.202794558516 370.142899917522  441.706671724884 373.89343952335  439.708887248522 377.893245761441  C 437.711102772161 381.89382134099  429.96968792626 387.143807447691  423.476888378085 382.893965235877  C 416.984088829911 378.643353682607  406.745443388558 374.893583418237  407.244889507649 379.14342563005  C 407.744335626739 383.394037183321  404.497935852652 391.394419000962  397.255967125841 386.643735500247  C 390.013998399031 381.89382134099  370.285876694962 367.143237574318  347.311355216806 376.64383523429  C 339.070494251815 379.893533551216  336.573263656363 384.144145104486  334.825202239546 387.893915368856  C 333.07714082273 391.644454974683  326.33461821501 401.89516055582  316.095972773658 404.144714977859  C 305.857327332305 406.395038741355  297.366743307769 409.145434452295  301.112589200947 414.145384585274  C 304.858435094125 419.146104059711  309.852896285028 422.645838350358  312.35012688048 429.146004325668  C 314.847357475932 435.646939642435  316.345695833203 444.897501328684  308.604280987303 441.647033670301  C 300.862866141402 438.396566011917  300.613143081857 436.897119511044  294.869512712318 439.146673933083  C 289.125882342778 441.396997696579  285.130313390056 440.896925749136  278.637513841881 436.647083537322  C 272.144714293706 432.396471984051  276.140283246429 432.14643601033  268.648591460074 426.646413929907  C 261.156899673718 421.145622508027  258.659669078266 423.395946271524  251.167977291911 417.895924191101  C 243.676285505556 412.395132769221  240.929331850559 413.64531263783  242.42767020783 407.895254583686  C 243.926008565101 402.145196529542  239.181270433743 386.643735500247  231.190132528297 384.144145104486  C 223.198994622851 381.643785367268  225.945948277848 382.643929262156  218.703979551038 385.394324973096  C 211.462010824227 388.143951342578  207.466441871505 392.394562895849  199.974750085149 389.144095237465  C 192.483058298794 385.894396920539  190.235550762887 383.644073157043  183.742751214712 384.144145104486  C 177.249951666538 384.64421705193  174.502998011541 383.644073157043  170.007982939728 381.643785367268  C 165.512967867914 379.643497577494  161.767121974737 378.893389656328  157.521829962469 381.643785367268  C 153.2765379502 384.394181078208  149.530692057023 387.893915368856  143.787061687484 382.893965235877  C 138.043431317944 377.893245761441  135.795923782038 375.643691339402  135.046754603402 380.393605498659  C 134.297585424767 385.144288999374  138.043431317944 387.643879395134  130.052293412499 387.893915368856  C 122.061155507053 388.143951342578  124.30866304296 387.143807447691  117.56614043524 390.394275106074  C 110.82361782752 393.644742764458  106.328602755707 395.394225239053  103.831372160255 399.14476484488  C 101.334141564803 402.895304450708  100.085526267077 407.895254583686  95.0910650761737 407.895254583686  C 90.09660388527 407.895254583686  83.6038043370953 408.145290557408  81.3562968011886 402.895304450708  C 79.1087892652821 397.644549002549  78.8590662057368 391.894490948405  75.1132203125592 390.394275106074  C 71.3673744193815 388.894059263743  65.3740209902971 389.394131211187  62.6270673353001 384.144145104486  C 59.8801136803032 378.893389656328  64.1254056925712 375.643691339402  58.8812214421225 372.893295628462  C 53.6370371916737 370.142899917522  43.8978378694117 371.14304381241  40.1519919762339 372.893295628462  C 36.4061460830562 374.643547444515  16.4283013194419 376.393799260568  7.68799423536052 357.892675888068  C 1.1951946871859 347.892006280654  -1.05231284872082 346.891862385766  2.6935330444569 341.641876279066  C 6.43937893763461 336.391120830908  15.179686021716 331.891242645373  13.93107072399 326.641256538672  C 12.6824554262641 321.390501090514  13.1819015453545 324.390932775176  8.93660953308643 320.390357195626  C 4.69131752081842 316.390550957535  -1.80148202735631 311.389831483099  1.44491774673099 306.639917323842  C 4.69131752081842 301.890003164585  15.6791321408062 301.389931217141  20.1741472126196 302.889377718015  C 24.6691622844328 304.389593560345  30.4127926539719 305.139701481511  36.4061460830562 304.139557586624  C 42.3994995121406 303.139413691737  50.3906374175863 300.139751348532  45.1464531671376 296.639247716427  C 39.9022689166889 293.139513425779  34.4083616066948 290.889189662283  35.1575307853303 281.638627976033  C 35.9066999639659 272.388066289783  40.6514380953244 265.38782836703  27.665838998975 261.637288761203  C 14.6802399026255 257.887518496833  11.4338401285382 253.136834996119  17.6769166171678 246.636669020809  C 23.9199931057973 240.136503045499  50.3906374175863 211.384674091863  91.3452191829958 206.634759932606  C 108.825833351159 204.134400195388  111.073340887065 205.134544090276  116.317525137514 205.384580063997  C 121.561709387963 205.634616037719  122.310878566598 208.134975774937  126.306447519321 200.383860589561  C 130.302016472044 192.633514745642  131.800354829315 187.633564612664  136.295369901128 191.634140192213  C 140.790384972942 195.633946430304  151.029030414294 207.634903827494  155.024599367017 199.13445006241  C 159.02016831974 190.633996297325  160.518506677011 184.133060980558  167.510752344276 181.633470584798  C 174.502998011541 179.133110847579  175.252167190176 178.383002926414  179.996905321535 176.632751110361  C 184.741643452893 174.883268635766  187.238874048345 176.632751110361  188.737212405616 170.382621108773  C 190.235550762887 164.132491107186  188.737212405616 165.132635002073  186.239981810164 159.131771632749  C 183.742751214712 153.131677604883  186.239981810164 150.631317867665  179.996905321535 147.881691498183  C 173.753828832905 145.131295787243  173.254382713815 146.631511629574  167.510752344276 142.880972023747  C 161.767121974737 139.131201759377  163.515183391553 132.63026644261  155.024599367017 127.880352283353  C 146.534015342481 123.130438124096  146.783738402026 122.630366176652  146.284292282935 117.879682675938  C 145.784846163845 113.129768516681  143.537338627938 114.629984359012  143.787061687484 110.379372805741  C 144.036784747029 106.129530593927  144.785953925664 103.129098909266  150.030138176113 101.628883066935  C 155.274322426562 100.128667224604  168.509644582457 98.6292207237307  173.753828832905 94.128573196738  C 178.998013083354 89.6286950112028  183.992474274258 89.3786590374812  189.985827703342 89.1286230637593  C 195.979181132426 88.8785870900374  198.226688668333 89.1286230637593  203.720595978327 92.8783933281288  C 209.214503288321 96.6289329339561  211.711733883773 94.8786811179034  217.455364253312 92.8783933281288  C 223.198994622851 90.8781055383545  227.943732754209 88.6285511163155  231.190132528297 91.6282134595199  C 234.436532302384 94.6286451441815  237.682932076471 91.6282134595199  241.179054910104 87.8784431951501  C 244.675177743736 84.1279035893228  251.167977291911 80.8782052723968  257.411053780541 74.1272339819079  C 263.65413026917 67.3770320328765  264.653022507351 67.87710398032  268.648591460074 61.6269739787322  C 272.644160412797 55.3768439771445  280.135852199152 53.1265202136481  282.383359735059 55.3768439771445  C 284.630867270965 57.6263983991833  286.878374806872 55.6268799508662  296.118128010044 57.8764343729049  C 305.357881213215 60.1267581364014  314.098188297296 59.1266142415141  319.841818666836 59.1266142415141  C 325.585449036375 59.1266142415141  332.078248584549 61.1269020312886  329.830741048643 55.3768439771445  C 327.583233512736 49.6260165815427  322.588772321832 46.6263542383385  314.847357475932 41.6256347639021  C 307.105942630031 36.6256846309234  300.113696962766 37.8758644995326  301.112589200947 31.6249651564872  C 302.111481439128 25.3748351548993  305.357881213215 20.6249209956425  308.604280987303 24.1246552862901  C 311.85068076139 27.6251589183955  312.35012688048 27.3751229446739  318.59320336911 30.3755546293355  C 324.836279857739 33.3752169725399  339.569940370905 35.6255407360361  337.322432834998 31.6249651564872  C 335.074925299092 27.6251589183955  327.083787393646 22.6252087854168  331.079356346369 19.1247051533114  C 335.074925299092 15.624201521206  335.074925299092 15.3741655474842  343.565509323628 16.6243454160933  C 352.056093348164 17.8745252847025  357.799723717703 19.8748130744768  363.543354087242 17.8745252847025  Z " fill-rule="nonzero" fill="#014b84" stroke="none" transform="matrix(1 0 0 1 636 180 )" />
  </g>
</svg>