<?xml version="1.0" encoding="utf-8"?>
<svg version="1.1" xmlns:xlink="http://www.w3.org/1999/xlink" width="590px" height="435px" xmlns="http://www.w3.org/2000/svg">
  <g transform="matrix(1 0 0 1 -635 -209 )">
    <path d="M 306.062669467719 0.668302770412311  L 302.311478613479 1.91759513087891  L 301.061081662066 33.1468289613508  L 264.799570071085 60.6289545057211  L 176.021386520752 84.3632029686917  L 147.262256638249 86.8617876896251  C 147.262256638249 86.8617876896251  139.342819454283 101.435071372706  142.260668832596 108.097451431662  C 145.178518210909 114.759831490619  148.929709065149 123.087422166665  154.764638346728 126.835299248065  C 160.599567628307 130.582407534166  165.18486943352 134.330284615566  172.270195666512 138.077392901667  C 179.355521899504 141.825269983067  181.440029801891 146.821670629635  182.273371277817 149.320255350568  C 183.106712753744 151.818840071502  187.27495908347 194.290936350875  187.27495908347 194.290936350875  L 62.235263942155 214.277307732445  L 22.2225614969343 223.021585460413  C 22.2225614969343 223.021585460413  13.0527273615556 244.674705049671  15.9705767398686 248.00512628385  C 18.8884261181815 251.336316313329  20.9721645455212 258.415383424207  28.4745462540001 261.746573453685  C 35.976927962479 265.077763483163  42.2289127195447 263.828471122697  49.7312944280236 265.493681739786  C 57.2336761365025 267.159661152175  52.2320883308498 286.730114277122  52.2320883308498 286.730114277122  L 2.216210274324 316.710055747127  C 2.216210274324 316.710055747127  -1.53498057991544 342.526970674408  2.216210274324 346.690766012431  C 5.96740112856344 350.854561350454  5.96740112856344 357.932859666033  17.2209736912818 361.680736747433  C 28.4745462540001 365.428613828833  34.3094755355792 366.261219137378  42.2289127195447 366.677137394001  C 50.1483499035103 367.093824445923  52.6491438063366 362.097423799355  59.7344700393288 370.425014475401  C 66.8197962723209 378.752605151448  65.153113320468 379.585979255291  74.7392334562866 386.664277570871  C 84.325353592105 393.743344681749  91.8277353005838 403.736145974885  102.247966387376 396.657847659305  C 112.668197474168 389.578780548427  109.333292620368 392.07736526936  119.75352370716 387.913569931337  C 130.173754793952 383.749774593314  136.425739551017 379.585979255291  141.010271881183 376.670707482436  C 145.594804211349 373.75620450488  145.594804211349 374.588809813424  151.013447492488 375.421415121969  C 156.432090773628 376.254789225813  156.432090773628 377.087394534358  166.018210909446 376.670707482436  C 175.604331045265 376.254789225813  180.189632850478 379.169292203369  192.276546889122 379.169292203369  C 204.363460927767 379.169292203369  212.699953587219 376.254789225813  223.536470674451 379.169292203369  C 234.372987761683 382.083795180926  236.873781664509 377.503312790981  239.791631042822 391.660678217439  C 242.709480421135 405.818043643896  245.210274323961 409.149233673375  252.295600556953 411.647818394308  C 259.380926789946 414.146403115241  264.382514595598 417.477593144719  272.301951779564 422.890680843209  C 280.221388963529 428.303768541699  283.972579817769 435.7987539092  294.809096905 434.132774496812  C 305.645613992232 432.467563879722  311.064257273371 437.46396452629  313.565051176198 431.634958571177  C 316.065845079024 425.805183820765  322.734885311576 425.388496768844  319.817035933264 414.146403115241  C 316.89918655495 402.90354066634  315.648789603537 404.985438335351  317.316242030437 401.654248305873  C 318.983694457337 398.323058276395  311.897598749298 402.486853614418  326.069020690329 394.159262938372  C 340.240442631361 385.831672262326  334.404743874734 384.999066953781  342.3241810587 377.919999842903  C 350.243618242666 370.841701527323  345.242030437013 366.261219137378  356.078547524245 366.677137394001  C 366.915064611476 367.093824445923  371.083310941202 378.752605151448  376.084898746855 380.418584563836  C 381.086486552508 382.083795180926  387.338471309573 378.752605151448  394.840853018052 377.919999842903  C 402.343234726531 377.087394534358  409.428560959523 379.585979255291  413.596807289249 375.421415121969  C 417.765053618976 371.257619783946  422.766641424628 372.923599196335  424.850379851968 375.421415121969  C 426.934118279307 377.919999842903  436.937293890612 378.336686894824  439.855143268926 374.172891556801  C 442.772992647239 370.00832742348  444.023389598652 365.428613828833  447.357524977404 361.680736747433  C 450.691660356157 357.932859666033  454.026565209957 350.021956041909  458.611097540123 349.188581938065  C 463.195629870288 348.355976629521  468.197217675941 350.437874298532  468.614273151428 345.441473651964  C 469.031328626915 340.445073005396  468.614273151428 325.454333475095  468.614273151428 325.454333475095  C 468.614273151428 325.454333475095  430.269023133107 308.382465071081  428.601570706207 306.717254453991  C 426.934118279307 305.051275041603  398.592043872291 245.507310358216  398.592043872291 245.507310358216  L 416.097601192076 234.264447909315  C 416.097601192076 234.264447909315  425.267435327454 233.847760857393  428.601570706207 231.765863188381  C 431.93570608496 229.68396551937  428.601570706207 225.520170181346  443.606334123165 226.769462541813  C 458.611097540123 228.01875490228  464.863082297188 226.352775489891  476.116654859907 229.268047262746  C 487.370227422625 232.182550240303  489.037679849525 235.513740269781  499.874196936757 229.268047262746  C 510.710714023988 223.021585460413  509.044031072135 221.356374843323  519.880548159367 223.021585460413  C 530.717065246599 224.687564872802  534.885311576325 225.104251924723  544.88848718763 219.274477174312  C 554.891662798935 213.4447024239  553.224210372035 213.4447024239  561.143647556001 210.530199446344  C 569.063084739966 207.615696468788  586.56864205975 198.038044636976  587.401983535677 190.543059269475  C 588.235325011603 183.048073901974  586.151586584264 166.808810806504  586.151586584264 166.808810806504  C 586.151586584264 166.808810806504  526.549588391919 150.986234762957  523.631739013606 146.821670629635  C 520.713889635294 142.657875291612  532.384517673499 109.346743792129  532.384517673499 109.346743792129  C 532.384517673499 109.346743792129  536.969050003665 102.684363733172  539.886899381977 99.3531737036942  C 542.80474876029 96.021983674216  549.056733517356 95.189378365671  553.641265847522 95.6060654175928  C 558.225798177688 96.021983674216  562.394044507414 101.435071372706  571.146823167306 99.3531737036942  C 579.899601827198 97.2712760346826  579.899601827198 95.6060654175928  582.400395730024 89.3596036152596  C 584.901189632851 83.1139106082251  587.401983535677 82.2813052996801  588.65238048709 81.8646182477582  C 589.902777438503 81.4486999911353  589.902777438503 76.4515305492687  589.902777438503 73.1203405197905  C 589.902777438503 69.7891504903121  589.902777438503 56.8810774243211  589.902777438503 56.8810774243211  L 561.143647556001 54.3824927033879  L 528.633326819259 66.8746475127557  L 423.599982900555 79.366033526825  L 324.818623738916 10.6618728588469  L 306.062669467719 0.668302770412311  Z " fill-rule="nonzero" fill="#001937" stroke="none" transform="matrix(1 0 0 1 635 209 )" />
  </g>
</svg>