<?xml version="1.0" encoding="utf-8"?>
<svg version="1.1" xmlns:xlink="http://www.w3.org/1999/xlink" width="60px" height="137px" xmlns="http://www.w3.org/2000/svg">
  <g transform="matrix(1 0 0 1 -960 -355 )">
    <path d="M 16.9624569790496 133.963145023233  C 21.1363360740863 132.711310833945  14.4582836250033 132.293775984348  21.9708036871423 131.459476644656  C 29.4833237492812 130.625177304965  28.2312370722582 133.12807532404  34.4916704573739 130.207642455368  C 40.7521038424898 127.287209586696  35.32613807043 128.539043775984  39.5000171654665 122.697407679139  C 43.6738962605032 116.855771582294  43.6738962605032 116.439007092199  48.2646239046287 116.439007092199  C 52.8553515487542 116.439007092199  51.6032648717312 113.935338713622  50.768797258675 107.676938126681  C 49.9343296456191 101.41776718024  47.4301562915728 101.835302029836  49.516710581652 98.9148691611642  C 51.6032648717312 95.993665932991  53.6905896766887 95.5769014428956  54.5250572897446 90.1528001956469  C 55.3595249028006 84.7286989483982  57.8636982568469 86.3972976277819  55.7771439667677 80.1388970408414  C 53.6905896766887 73.8804964539008  53.2729706127213 73.8804964539008  52.0208839356983 71.3768280753241  C 50.768797258675 68.8731596967475  54.9426763537117 68.4563952066521  48.2646239046287 67.621325507459  C 41.5865714555457 66.7870261677672  45.7604505505824 70.1249938860358  39.5000171654665 65.1184274883835  C 33.2395837803508 60.1110907312302  31.5698780393604 61.7804597701149  28.2312370722582 58.860026901443  C 24.8925961051557 55.9388236732698  28.2312370722582 54.2702249938861  23.2228903641656 52.6008559550012  C 18.2145436560727 50.9322572756175  19.0490112691289 50.5147224260211  11.954110270957 50.0979579359257  C 4.85920927278517 49.6804230863293  4.44159020881807 51.3490217657129  3.1895035317948 48.8461237466374  C 1.93741685477175 46.3424553680607  0.685330177748483 41.3358889704084  0.685330177748483 38.8322205918316  C 0.685330177748483 36.3285522132551  1.93741685477175 31.7387503056982  1.93741685477175 28.8183174370263  C 1.93741685477175 25.8978845683541  5.69367688584111 23.811751039374  5.69367688584111 23.811751039374  C 5.69367688584111 23.811751039374  8.19785023988743 20.8905478112008  8.19785023988743 18.8044142822207  C 8.19785023988743 16.7182807532404  6.11129594980821 13.7978478845685  5.69367688584111 12.54601369528  C 5.27605782187402 11.2941795059917  4.44159020881807 8.79051112741513  5.69367688584111 7.53944729762793  C 6.94576356286439 6.28761310833943  9.4499369169107 0.0284421618978286  9.4499369169107 0.0284421618978286  " stroke-width="2.00063512226104" stroke="#00a0e9" fill="none" transform="matrix(1 0 0 1 961 356 )" />
  </g>
</svg>