<?xml version="1.0" encoding="utf-8"?>
<svg version="1.1" xmlns:xlink="http://www.w3.org/1999/xlink" width="259px" height="100px" xmlns="http://www.w3.org/2000/svg">
  <g transform="matrix(1 0 0 1 -680 -379 )">
    <path d="M 108.064683292375 1.67037709124088  C 108.064683292375 1.67037709124088  111.396816187416 -0.831631482909643  115.562559065894 1.67037709124088  C 119.728301944371 4.17315575113298  114.729718095358 0.00237137514045571  123.060434839412 7.9273237409709  C 131.391151583467 15.8515060210598  128.059018688425 17.5202818229018  135.556894461944 19.1882875390022  C 143.054770235462 20.857063340844  143.054770235462 23.3590719149945  150.552646008981 22.9424555288401  C 158.0505217825 22.5250690569442  156.800875820247 25.4452341887322  160.549813707006 21.6910661988941  C 164.298751593766 17.9368982090562  162.216264660977 14.1835003049596  164.298751593766 14.1835003049596  C 166.381238526555 14.1835003049596  169.297335442779 14.1835003049596  175.545565254044 14.1835003049596  C 181.79379506531 14.1835003049596  174.712724283509 16.6862789648515  184.293086989816 14.1835003049596  C 193.873449696124 11.6807216450675  188.874865847111 10.0127159289671  193.040608725588 7.9273237409709  C 197.206351604065 5.84193155297476  198.872033545136 2.92176642118693  201.78813046136 4.17315575113298  C 204.704227377584 5.4245450810788  204.287422385866 8.34394012712528  209.286006234879 11.6807216450675  C 214.284590083892 15.0175031630097  221.78246585741 19.1882875390022  228.030695668676 21.6910661988941  C 234.278925479942 24.1938448587862  234.695730471659 25.4452341887322  240.527155291207 27.9472427628828  C 246.358580110755 30.4500214227746  245.52573914022 28.7812456209329  248.025031064726 30.4500214227746  C 250.524322989233 32.1180271388751  253.440419905457 30.8674078946706  251.773968951486 34.2041894126128  C 250.107517997515 37.5402008448134  248.025031064726 40.4603659766015  248.025031064726 40.4603659766015  L 250.524322989233 46.7165425405899  L 254.273260875992 47.9679318705359  C 254.273260875992 47.9679318705359  256.772552800498 52.1387162465282  254.273260875992 51.7213297746325  C 251.773968951486 51.3047133884781  250.107517997515 51.7213297746325  250.524322989233 54.2241084345244  C 250.94112798095 56.7268870944165  255.106101846528 58.3948928105169  250.524322989233 60.4802849985131  C 245.942544131938 62.5656771865092  246.358580110755 60.897671470409  244.276093177967 62.9830636584052  C 242.193606245178 65.0684558464013  237.611058374983 61.3150579423048  238.027863366701 65.485842318297  C 238.444668358419 69.6566266942893  236.36141241273 73.8274110702819  238.027863366701 76.7468061163281  C 239.694314320672 79.6669712481162  241.776801253461 81.7523634361123  239.277509328954 83.0037527660584  C 236.778217404448 84.2551420960042  235.111766450477 83.0037527660584  230.529987593182 83.0037527660584  C 225.948208735887 83.0037527660584  225.53140374417 84.6717584821586  221.78246585741 81.7523634361123  C 218.033527970651 78.8329683900658  220.949624886875 80.9183605780622  215.534236046145 75.4961868721239  C 210.118847205414 70.0740131661853  208.453165264344 70.4906295523397  205.537068348119 70.4906295523397  C 202.620971431896 70.4906295523397  200.955289490825 71.3246324103898  199.288838536854 69.2392402223936  C 197.622387582883 67.1538480343975  197.206351604065 65.485842318297  196.789546612348 62.9830636584052  C 196.37274162063 60.4802849985131  198.455997566318 60.4802849985131  195.539900650095 57.9782764243625  C 192.623803733871 55.4754977644704  191.374157771617 59.2296657543086  190.541316801082 55.4754977644704  C 189.708475830546 51.7213297746325  190.124511809364 47.55054539864  188.042024876576 47.9679318705359  C 185.959537943787 48.3853183424317  180.544149103057 48.8019347285861  180.544149103057 50.4707105304281  C 180.544149103057 52.1387162465282  176.795211216297 54.6414949064203  178.044857178551 59.2296657543086  C 179.294503140804 63.8170665164553  184.293086989816 71.7420188822857  184.293086989816 71.7420188822857  C 184.293086989816 71.7420188822857  188.458829868293 76.330189730174  185.542732952069 76.7468061163281  C 182.626636035845 77.1641925882241  178.044857178551 79.2495847762202  178.044857178551 79.2495847762202  C 178.044857178551 79.2495847762202  174.712724283509 79.6669712481162  174.295919291791 81.7523634361123  C 173.879114300073 83.8377556241085  175.545565254044 90.5113186599929  175.545565254044 90.5113186599929  C 175.545565254044 90.5113186599929  170.963786396749 90.0939321880971  165.548397556019 86.7571506701549  C 160.133008715289 83.4203691522125  160.133008715289 80.5009741061663  154.301583895741 80.5009741061663  C 148.470159076193 80.5009741061663  146.803708122222 80.0835876342705  144.304416197716 80.5009741061663  C 141.805124273209 80.9183605780622  140.138673319239 81.3349769642166  138.05618638645 80.5009741061663  C 135.973699453662 79.6669712481162  137.639381394732 84.6717584821586  135.556894461944 79.2495847762202  C 133.474407529155 73.8274110702819  131.391151583467 69.2392402223936  129.308664650678 67.9886209781891  C 127.226177717889 66.7372316482431  125.559726763919 69.2392402223936  125.559726763919 69.2392402223936  C 125.559726763919 69.2392402223936  118.478655982118 72.5760217403358  114.31291310364 70.4906295523397  C 110.147170225163 68.4052373643435  110.563975216881 68.8226238362392  105.565391367868 71.7420188822857  C 100.566807518856 74.661413928332  100.983612510573 79.2495847762202  94.3185777075901 74.2447975421778  C 87.6535429046066 69.2392402223936  88.0703478963244 66.3198451763474  83.0717640473119 64.2344529883512  C 78.0731801982993 62.1490608003548  70.5753044247806 61.7316743284591  66.8263665380211 64.2344529883512  C 63.0774286512617 66.7372316482431  65.9935255674857 70.0740131661853  56.8291988399959 70.4906295523397  C 47.6648721125063 70.9080160242354  36.8348634439457 74.661413928332  31.8362795949332 76.7468061163281  C 26.8376957459207 78.8329683900658  23.9215988296967 75.912803258278  20.5894659346549 80.5009741061663  C 17.2573330396132 85.0891449540545  10.5922982366299 93.014097319885  10.5922982366299 93.014097319885  L 0.595130538604735 96.7674952239815  " stroke-width="2.00063512226104" stroke="#00a0e9" fill="none" transform="matrix(1 0 0 1 681 380 )" />
  </g>
</svg>