<?xml version="1.0" encoding="utf-8"?>
<svg version="1.1" xmlns:xlink="http://www.w3.org/1999/xlink" width="134px" height="44px" xmlns="http://www.w3.org/2000/svg">
  <g transform="matrix(1 0 0 1 -1037 -322 )">
    <path d="M 0.517620439728717 23.2344715603037  L 5.52803457680307 28.2635964097617  C 5.52803457680307 28.2635964097617  13.0436557824146 31.6166042529226  15.5488628509518 29.5210710797678  C 18.0540699194889 27.425537906613  17.2192578409581 25.7486470697497  23.0644840565633 25.7486470697497  C 28.9097102721687 25.7486470697497  27.2400861151066 27.0061217397556  30.5801052621748 25.7486470697497  C 33.920124409243 24.4911723997436  35.1727279435115 19.4620475502854  36.8431229335176 23.2344715603037  C 38.513517923524 27.0061217397556  41.853537070592 29.1016549129104  44.3587441391292 32.0360204197798  C 46.8639512076663 34.9696120960834  46.8639512076663 36.2270867660893  49.3691582762035 38.3226199392441  C 51.8743653447407 40.4181531123986  56.884779481815 41.2562116155475  59.3899865503522 40.8375692792561  C 61.8951936188894 40.4181531123986  69.4108148245007 39.5800946092502  69.4108148245007 39.5800946092502  C 69.4108148245007 39.5800946092502  73.1686254273066 35.8076705992319  70.6634183587694 34.5501959292258  C 68.1582112902322 33.2927212592199  63.5655886088955 32.4546627560712  66.9056077559637 30.7785457497739  C 70.245626903032 29.1016549129104  73.5864168830442 28.2635964097617  73.1686254273066 25.7486470697497  C 72.7508339715692 23.2344715603037  71.4982304373004 24.0725300634524  71.9160218930379 20.7195222202915  C 72.3338133487755 17.3665143771309  63.1477971531579 18.2045728802793  71.9160218930379 14.4329227008275  C 80.6842466329181 10.6604986908094  83.1894537014553 14.8515650371187  88.1998678385296 10.6604986908094  C 93.2102819756039 6.46943234449986  95.2976975884037 5.63137384135121  99.4732996469468 5.63137384135121  C 103.64890170549 5.63137384135121  101.143694636953 2.69700833448178  106.988920852558 3.11642450133922  C 112.834147068164 3.53584066819667  111.999334989633 5.21195767449399  120.767559729513 3.11642450133922  C 129.535784469393 1.02089132818446  130.788388003661 0.601475161327016  130.788388003661 0.601475161327016  " stroke-width="2.00063512226104" stroke="#00a0e9" fill="none" transform="matrix(1 0 0 1 1038 323 )" />
  </g>
</svg>