<?xml version="1.0" encoding="utf-8"?>
<svg version="1.1" xmlns:xlink="http://www.w3.org/1999/xlink" width="10px" height="6px" preserveAspectRatio="xMinYMid meet" viewBox="1020 291  10 4" xmlns="http://www.w3.org/2000/svg">
  <g transform="matrix(-0.374606593415922 -0.927183854566803 0.927183854566788 -0.374606593415919 1137.30688886325 1353.12318280184 )">
    <path d="M 163.373389271801 0.771542384787836  C 163.373389271801 0.771542384787836  161.287694282558 2.02192721113965  155.863963073455 2.02192721113965  C 150.440231864352 2.02192721113965  151.275126018097 -2.14807538708783  149.606107908167 2.02192721113965  C 147.937089798237 6.19269975076259  147.520412918924 9.94539411260916  143.348252742878 10.7792406439755  C 139.176092566833 11.6138571167373  137.507844654462 9.52885581762371  135.838826544532 12.0303954117228  C 134.169808434603 14.5327049472176  132.501560522232 16.2003980099503  129.580971379244 17.0350144827121  C 126.660382236257 17.8688610140787  126.243705356943 15.7838597149648  124.574687247013 15.7838597149648  C 122.905669137084 15.7838597149648  120.81997414784 19.1200157818259  119.568403114783 20.7877088445587  C 118.316832081725 22.4561718486868  117.065261048667 20.7877088445587  117.065261048667 24.5411731478007  C 117.065261048667 28.293867509647  114.14467190568 31.2134852815227  114.562118982552 33.2984865806366  C 114.979566059424 35.3834878797502  116.647813971795 35.8007961161311  117.065261048667 39.5534904779777  C 117.48270812554 43.3069547812197  114.562118982552 48.3108039108135  114.562118982552 48.3108039108135  C 114.562118982552 48.3108039108135  115.396242938737 52.8981147454219  115.81369001561 54.5658078081547  C 116.231137092482 56.2342708122828  113.310547949495 56.2342708122828  113.310547949495 60.8215816468912  C 113.310547949495 65.4081225401042  114.562118982552 67.9104320755989  118.316832081725 72.0804346738262  C 122.071545180898 76.2504372720537  124.574687247013 78.7527468075484  125.826258280071 80.837748106662  C 127.077829313129 82.9227494057759  124.157240170141 90.4289080708643  124.574687247013 93.3485258427399  C 124.992134323886 96.2673736732199  125.826258280071 102.105839275576  125.826258280071 102.105839275576  L 130.832542412302 102.105839275576  C 130.832542412302 102.105839275576  132.501560522232 106.275841873803  129.580971379244 110.863152708411  C 126.660382236257 115.449693601624  121.237421224713 117.118156605753  120.81997414784 119.620466141247  C 120.402527070968 122.122005735346  120.402527070968 128.377779574083  115.81369001561 125.875470038588  C 111.224852960251 123.373160503094  112.893100872622 119.203157904866  108.304263817264 119.620466141247  C 103.715426761905 120.037004436233  100.377390542046 121.705467440361  94.5369824536294 118.3693113735  C 88.6965743652133 115.033155306639  88.6965743652133 112.113537534763  85.7759852222257 113.364692302511  C 82.8553960792383 114.615847070258  77.4324350676943 119.203157904866  70.7571328255337 119.620466141247  C 64.0818305833732 120.037004436233  62.8302595503155 128.377779574083  58.2414224949571 120.870850967599  C 53.6525854395986 113.364692302511  51.1494433734833 113.782000538892  48.2288542304957 108.360843172917  C 45.3082650875083 102.939685806942  45.7257121643804 97.5185284409672  38.2162859660343 97.1012202045865  C 30.7068597676885 96.6846819096011  29.0378416577585 95.0162189054727  25.7005756354579 95.850065436839  C 22.3633096131571 96.6846819096011  18.1911494371118 102.522377570561  18.1911494371118 95.850065436839  C 18.1911494371118 89.1785232445125  19.4427204701694 84.5912124099041  14.4364363379389 84.5912124099041  C 9.43015220570805 84.5912124099041  6.92701013959277 84.5912124099041  6.92701013959277 84.5912124099041  L 0.66915497430432 84.5912124099041  " stroke-width="2.00063512226104" stroke="#00a0e9" fill="none" transform="matrix(1 0 0 1 911 235 )" />
  </g>
</svg>