<?xml version="1.0" encoding="utf-8"?>
<svg version="1.1" xmlns:xlink="http://www.w3.org/1999/xlink" width="200px" height="52px" xmlns="http://www.w3.org/2000/svg">
  <defs>
    <mask fill="white" id="clip1916">
      <path d="M 183.024061362582 0.0349448004035366  C 183.024061362582 0.0349448004035366  15.7386471895843 0.0349448004035366  15.7386471895843 0.0349448004035366  C 15.7386471895843 0.0349448004035366  0.211410215697242 27.3963956811685  0.211410215697242 27.3963956811685  C 0.211410215697242 27.3963956811685  15.7386471895843 51.4984000523041  15.7386471895843 51.4984000523041  C 15.7386471895843 51.4984000523041  183.024061362582 51.4984000523041  183.024061362582 51.4984000523041  C 183.024061362582 51.4984000523041  199.521606370765 27.3963956811685  199.521606370765 27.3963956811685  C 199.521606370765 27.3963956811685  183.024061362582 0.0349448004035366  183.024061362582 0.0349448004035366  Z " fill-rule="evenodd" />
    </mask>
  </defs>
  <g transform="matrix(1 0 0 1 -1172 -174 )">
    <path d="M 183.024061362582 0.0349448004035366  C 183.024061362582 0.0349448004035366  15.7386471895843 0.0349448004035366  15.7386471895843 0.0349448004035366  C 15.7386471895843 0.0349448004035366  0.211410215697242 27.3963956811685  0.211410215697242 27.3963956811685  C 0.211410215697242 27.3963956811685  15.7386471895843 51.4984000523041  15.7386471895843 51.4984000523041  C 15.7386471895843 51.4984000523041  183.024061362582 51.4984000523041  183.024061362582 51.4984000523041  C 183.024061362582 51.4984000523041  199.521606370765 27.3963956811685  199.521606370765 27.3963956811685  C 199.521606370765 27.3963956811685  183.024061362582 0.0349448004035366  183.024061362582 0.0349448004035366  Z " fill-rule="nonzero" fill="#ffffff" stroke="none" fill-opacity="0" transform="matrix(1 0 0 1 1172 174 )" />
    <path d="M 183.024061362582 0.0349448004035366  C 183.024061362582 0.0349448004035366  15.7386471895843 0.0349448004035366  15.7386471895843 0.0349448004035366  C 15.7386471895843 0.0349448004035366  0.211410215697242 27.3963956811685  0.211410215697242 27.3963956811685  C 0.211410215697242 27.3963956811685  15.7386471895843 51.4984000523041  15.7386471895843 51.4984000523041  C 15.7386471895843 51.4984000523041  183.024061362582 51.4984000523041  183.024061362582 51.4984000523041  C 183.024061362582 51.4984000523041  199.521606370765 27.3963956811685  199.521606370765 27.3963956811685  C 199.521606370765 27.3963956811685  183.024061362582 0.0349448004035366  183.024061362582 0.0349448004035366  Z " stroke-width="6.00190536678311" stroke="#00a0e9" fill="none" transform="matrix(1 0 0 1 1172 174 )" mask="url(#clip1916)" />
  </g>
</svg>