<?xml version="1.0" encoding="utf-8"?>
<svg version="1.1" xmlns:xlink="http://www.w3.org/1999/xlink" width="168px" height="45px" xmlns="http://www.w3.org/2000/svg">
  <defs>
    <mask fill="white" id="clip1921">
      <path d="M 153.629138127438 0.727891175085688  C 153.629138127438 0.727891175085688  13.2429196978217 0.727891175085688  13.2429196978217 0.727891175085688  C 13.2429196978217 0.727891175085688  0.24807875516035 24.3184837003537  0.24807875516035 24.3184837003537  C 0.24807875516035 24.3184837003537  13.2429196978217 44.7642847756815  13.2429196978217 44.7642847756815  C 13.2429196978217 44.7642847756815  153.629138127438 44.7642847756815  153.629138127438 44.7642847756815  C 153.629138127438 44.7642847756815  167.435723005119 24.3184837003537  167.435723005119 24.3184837003537  C 167.435723005119 24.3184837003537  153.629138127438 0.727891175085688  153.629138127438 0.727891175085688  Z " fill-rule="evenodd" />
    </mask>
  </defs>
  <g transform="matrix(1 0 0 1 -572 -261 )">
    <path d="M 153.629138127438 0.727891175085688  C 153.629138127438 0.727891175085688  13.2429196978217 0.727891175085688  13.2429196978217 0.727891175085688  C 13.2429196978217 0.727891175085688  0.24807875516035 24.3184837003537  0.24807875516035 24.3184837003537  C 0.24807875516035 24.3184837003537  13.2429196978217 44.7642847756815  13.2429196978217 44.7642847756815  C 13.2429196978217 44.7642847756815  153.629138127438 44.7642847756815  153.629138127438 44.7642847756815  C 153.629138127438 44.7642847756815  167.435723005119 24.3184837003537  167.435723005119 24.3184837003537  C 167.435723005119 24.3184837003537  153.629138127438 0.727891175085688  153.629138127438 0.727891175085688  Z " fill-rule="nonzero" fill="#ffffff" stroke="none" fill-opacity="0" transform="matrix(1 0 0 1 572 261 )" />
    <path d="M 153.629138127438 0.727891175085688  C 153.629138127438 0.727891175085688  13.2429196978217 0.727891175085688  13.2429196978217 0.727891175085688  C 13.2429196978217 0.727891175085688  0.24807875516035 24.3184837003537  0.24807875516035 24.3184837003537  C 0.24807875516035 24.3184837003537  13.2429196978217 44.7642847756815  13.2429196978217 44.7642847756815  C 13.2429196978217 44.7642847756815  153.629138127438 44.7642847756815  153.629138127438 44.7642847756815  C 153.629138127438 44.7642847756815  167.435723005119 24.3184837003537  167.435723005119 24.3184837003537  C 167.435723005119 24.3184837003537  153.629138127438 0.727891175085688  153.629138127438 0.727891175085688  Z " stroke-width="6.00190536678311" stroke="#00a0e9" fill="none" transform="matrix(1 0 0 1 572 261 )" mask="url(#clip1921)" />
  </g>
</svg>