<?xml version="1.0" encoding="utf-8"?>
<svg version="1.1" xmlns:xlink="http://www.w3.org/1999/xlink" width="200px" height="53px" xmlns="http://www.w3.org/2000/svg">
  <defs>
    <mask fill="white" id="clip1928">
      <path d="M 182.920475364585 0.616834421785597  C 182.920475364585 0.616834421785597  15.6358306666341 0.616834421785597  15.6358306666341 0.616834421785597  C 15.6358306666341 0.616834421785597  0.10859369274749 28.1002984614393  0.10859369274749 28.1002984614393  C 0.10859369274749 28.1002984614393  15.6358306666341 52.3097811129369  15.6358306666341 52.3097811129369  C 15.6358306666341 52.3097811129369  182.920475364585 52.3097811129369  182.920475364585 52.3097811129369  C 182.920475364585 52.3097811129369  199.418020372768 28.1002984614393  199.418020372768 28.1002984614393  C 199.418020372768 28.1002984614393  182.920475364585 0.616834421785597  182.920475364585 0.616834421785597  Z " fill-rule="evenodd" />
    </mask>
  </defs>
  <g transform="matrix(1 0 0 1 -524 -394 )">
    <path d="M 182.920475364585 0.616834421785597  C 182.920475364585 0.616834421785597  15.6358306666341 0.616834421785597  15.6358306666341 0.616834421785597  C 15.6358306666341 0.616834421785597  0.10859369274749 28.1002984614393  0.10859369274749 28.1002984614393  C 0.10859369274749 28.1002984614393  15.6358306666341 52.3097811129369  15.6358306666341 52.3097811129369  C 15.6358306666341 52.3097811129369  182.920475364585 52.3097811129369  182.920475364585 52.3097811129369  C 182.920475364585 52.3097811129369  199.418020372768 28.1002984614393  199.418020372768 28.1002984614393  C 199.418020372768 28.1002984614393  182.920475364585 0.616834421785597  182.920475364585 0.616834421785597  Z " fill-rule="nonzero" fill="#ffffff" stroke="none" fill-opacity="0" transform="matrix(1 0 0 1 524 394 )" />
    <path d="M 182.920475364585 0.616834421785597  C 182.920475364585 0.616834421785597  15.6358306666341 0.616834421785597  15.6358306666341 0.616834421785597  C 15.6358306666341 0.616834421785597  0.10859369274749 28.1002984614393  0.10859369274749 28.1002984614393  C 0.10859369274749 28.1002984614393  15.6358306666341 52.3097811129369  15.6358306666341 52.3097811129369  C 15.6358306666341 52.3097811129369  182.920475364585 52.3097811129369  182.920475364585 52.3097811129369  C 182.920475364585 52.3097811129369  199.418020372768 28.1002984614393  199.418020372768 28.1002984614393  C 199.418020372768 28.1002984614393  182.920475364585 0.616834421785597  182.920475364585 0.616834421785597  Z " stroke-width="6.00190536678311" stroke="#00a0e9" fill="none" transform="matrix(1 0 0 1 524 394 )" mask="url(#clip1928)" />
  </g>
</svg>