<?xml version="1.0" encoding="utf-8"?>
<svg version="1.1" xmlns:xlink="http://www.w3.org/1999/xlink" width="200px" height="52px" xmlns="http://www.w3.org/2000/svg">
  <defs>
    <mask fill="white" id="clip1920">
      <path d="M 183.401470552312 0.386954775559161  C 183.401470552312 0.386954775559161  16.1160563793148 0.386954775559161  16.1160563793148 0.386954775559161  C 16.1160563793148 0.386954775559161  0.588819405427785 27.747640707601  0.588819405427785 27.747640707601  C 0.588819405427785 27.747640707601  16.1160563793148 51.8504100274597  16.1160563793148 51.8504100274597  C 16.1160563793148 51.8504100274597  183.401470552312 51.8504100274597  183.401470552312 51.8504100274597  C 183.401470552312 51.8504100274597  199.899015560496 27.747640707601  199.899015560496 27.747640707601  C 199.899015560496 27.747640707601  183.401470552312 0.386954775559161  183.401470552312 0.386954775559161  Z " fill-rule="evenodd" />
    </mask>
  </defs>
  <g transform="matrix(1 0 0 1 -1149 -375 )">
    <path d="M 183.401470552312 0.386954775559161  C 183.401470552312 0.386954775559161  16.1160563793148 0.386954775559161  16.1160563793148 0.386954775559161  C 16.1160563793148 0.386954775559161  0.588819405427785 27.747640707601  0.588819405427785 27.747640707601  C 0.588819405427785 27.747640707601  16.1160563793148 51.8504100274597  16.1160563793148 51.8504100274597  C 16.1160563793148 51.8504100274597  183.401470552312 51.8504100274597  183.401470552312 51.8504100274597  C 183.401470552312 51.8504100274597  199.899015560496 27.747640707601  199.899015560496 27.747640707601  C 199.899015560496 27.747640707601  183.401470552312 0.386954775559161  183.401470552312 0.386954775559161  Z " fill-rule="nonzero" fill="#ffffff" stroke="none" fill-opacity="0" transform="matrix(1 0 0 1 1149 375 )" />
    <path d="M 183.401470552312 0.386954775559161  C 183.401470552312 0.386954775559161  16.1160563793148 0.386954775559161  16.1160563793148 0.386954775559161  C 16.1160563793148 0.386954775559161  0.588819405427785 27.747640707601  0.588819405427785 27.747640707601  C 0.588819405427785 27.747640707601  16.1160563793148 51.8504100274597  16.1160563793148 51.8504100274597  C 16.1160563793148 51.8504100274597  183.401470552312 51.8504100274597  183.401470552312 51.8504100274597  C 183.401470552312 51.8504100274597  199.899015560496 27.747640707601  199.899015560496 27.747640707601  C 199.899015560496 27.747640707601  183.401470552312 0.386954775559161  183.401470552312 0.386954775559161  Z " stroke-width="6.00190536678311" stroke="#00a0e9" fill="none" transform="matrix(1 0 0 1 1149 375 )" mask="url(#clip1920)" />
  </g>
</svg>