<?xml version="1.0" encoding="utf-8"?>
<svg version="1.1" xmlns:xlink="http://www.w3.org/1999/xlink" width="168px" height="44px" xmlns="http://www.w3.org/2000/svg">
  <defs>
    <mask fill="white" id="clip1917">
      <path d="M 153.649168951262 0.160734959023557  C 153.649168951262 0.160734959023557  13.263721408573 0.160734959023557  13.263721408573 0.160734959023557  C 13.263721408573 0.160734959023557  0.268880465911934 23.6325372020078  0.268880465911934 23.6325372020078  C 0.268880465911934 23.6325372020078  13.263721408573 43.9739421593044  13.263721408573 43.9739421593044  C 13.263721408573 43.9739421593044  153.649168951262 43.9739421593044  153.649168951262 43.9739421593044  C 153.649168951262 43.9739421593044  167.45652471587 23.6325372020078  167.45652471587 23.6325372020078  C 167.45652471587 23.6325372020078  153.649168951262 0.160734959023557  153.649168951262 0.160734959023557  Z " fill-rule="evenodd" />
    </mask>
  </defs>
  <g transform="matrix(1 0 0 1 -1218 -296 )">
    <path d="M 153.649168951262 0.160734959023557  C 153.649168951262 0.160734959023557  13.263721408573 0.160734959023557  13.263721408573 0.160734959023557  C 13.263721408573 0.160734959023557  0.268880465911934 23.6325372020078  0.268880465911934 23.6325372020078  C 0.268880465911934 23.6325372020078  13.263721408573 43.9739421593044  13.263721408573 43.9739421593044  C 13.263721408573 43.9739421593044  153.649168951262 43.9739421593044  153.649168951262 43.9739421593044  C 153.649168951262 43.9739421593044  167.45652471587 23.6325372020078  167.45652471587 23.6325372020078  C 167.45652471587 23.6325372020078  153.649168951262 0.160734959023557  153.649168951262 0.160734959023557  Z " fill-rule="nonzero" fill="#ffffff" stroke="none" fill-opacity="0" transform="matrix(1 0 0 1 1218 296 )" />
    <path d="M 153.649168951262 0.160734959023557  C 153.649168951262 0.160734959023557  13.263721408573 0.160734959023557  13.263721408573 0.160734959023557  C 13.263721408573 0.160734959023557  0.268880465911934 23.6325372020078  0.268880465911934 23.6325372020078  C 0.268880465911934 23.6325372020078  13.263721408573 43.9739421593044  13.263721408573 43.9739421593044  C 13.263721408573 43.9739421593044  153.649168951262 43.9739421593044  153.649168951262 43.9739421593044  C 153.649168951262 43.9739421593044  167.45652471587 23.6325372020078  167.45652471587 23.6325372020078  C 167.45652471587 23.6325372020078  153.649168951262 0.160734959023557  153.649168951262 0.160734959023557  Z " stroke-width="6.00190536678311" stroke="#00a0e9" fill="none" transform="matrix(1 0 0 1 1218 296 )" mask="url(#clip1917)" />
  </g>
</svg>