<?xml version="1.0" encoding="utf-8"?>
<svg version="1.1" xmlns:xlink="http://www.w3.org/1999/xlink" width="168px" height="45px" xmlns="http://www.w3.org/2000/svg">
  <defs>
    <mask fill="white" id="clip1915">
      <path d="M 153.694602334803 0.245459697112437  C 153.694602334803 0.245459697112437  13.309154792114 0.245459697112437  13.309154792114 0.245459697112437  C 13.309154792114 0.245459697112437  0.313542962524934 23.8360522223804  0.313542962524934 23.8360522223804  C 0.313542962524934 23.8360522223804  13.309154792114 44.2810771892555  13.309154792114 44.2810771892555  C 13.309154792114 44.2810771892555  153.694602334803 44.2810771892555  153.694602334803 44.2810771892555  C 153.694602334803 44.2810771892555  167.501958099411 23.8360522223804  167.501958099411 23.8360522223804  C 167.501958099411 23.8360522223804  153.694602334803 0.245459697112437  153.694602334803 0.245459697112437  Z " fill-rule="evenodd" />
    </mask>
  </defs>
  <g transform="matrix(1 0 0 1 -1189 -177 )">
    <path d="M 153.694602334803 0.245459697112437  C 153.694602334803 0.245459697112437  13.309154792114 0.245459697112437  13.309154792114 0.245459697112437  C 13.309154792114 0.245459697112437  0.313542962524934 23.8360522223804  0.313542962524934 23.8360522223804  C 0.313542962524934 23.8360522223804  13.309154792114 44.2810771892555  13.309154792114 44.2810771892555  C 13.309154792114 44.2810771892555  153.694602334803 44.2810771892555  153.694602334803 44.2810771892555  C 153.694602334803 44.2810771892555  167.501958099411 23.8360522223804  167.501958099411 23.8360522223804  C 167.501958099411 23.8360522223804  153.694602334803 0.245459697112437  153.694602334803 0.245459697112437  Z " fill-rule="nonzero" fill="#ffffff" stroke="none" fill-opacity="0" transform="matrix(1 0 0 1 1189 177 )" />
    <path d="M 153.694602334803 0.245459697112437  C 153.694602334803 0.245459697112437  13.309154792114 0.245459697112437  13.309154792114 0.245459697112437  C 13.309154792114 0.245459697112437  0.313542962524934 23.8360522223804  0.313542962524934 23.8360522223804  C 0.313542962524934 23.8360522223804  13.309154792114 44.2810771892555  13.309154792114 44.2810771892555  C 13.309154792114 44.2810771892555  153.694602334803 44.2810771892555  153.694602334803 44.2810771892555  C 153.694602334803 44.2810771892555  167.501958099411 23.8360522223804  167.501958099411 23.8360522223804  C 167.501958099411 23.8360522223804  153.694602334803 0.245459697112437  153.694602334803 0.245459697112437  Z " stroke-width="6.00190536678311" stroke="#00a0e9" fill="none" transform="matrix(1 0 0 1 1189 177 )" mask="url(#clip1915)" />
  </g>
</svg>