<?xml version="1.0" encoding="utf-8"?>
<svg version="1.1" xmlns:xlink="http://www.w3.org/1999/xlink" width="168px" height="45px" xmlns="http://www.w3.org/2000/svg">
  <defs>
    <mask fill="white" id="clip1919">
      <path d="M 154.072704018459 0.601828987856152  C 154.072704018459 0.601828987856152  13.686485588843 0.601828987856152  13.686485588843 0.601828987856152  C 13.686485588843 0.601828987856152  0.691644646181658 24.1931976215767  0.691644646181658 24.1931976215767  C 0.691644646181658 24.1931976215767  13.686485588843 44.6382225884518  13.686485588843 44.6382225884518  C 13.686485588843 44.6382225884518  154.072704018459 44.6382225884518  154.072704018459 44.6382225884518  C 154.072704018459 44.6382225884518  167.880059783068 24.1931976215767  167.880059783068 24.1931976215767  C 167.880059783068 24.1931976215767  154.072704018459 0.601828987856152  154.072704018459 0.601828987856152  Z " fill-rule="evenodd" />
    </mask>
  </defs>
  <g transform="matrix(1 0 0 1 -1166 -379 )">
    <path d="M 154.072704018459 0.601828987856152  C 154.072704018459 0.601828987856152  13.686485588843 0.601828987856152  13.686485588843 0.601828987856152  C 13.686485588843 0.601828987856152  0.691644646181658 24.1931976215767  0.691644646181658 24.1931976215767  C 0.691644646181658 24.1931976215767  13.686485588843 44.6382225884518  13.686485588843 44.6382225884518  C 13.686485588843 44.6382225884518  154.072704018459 44.6382225884518  154.072704018459 44.6382225884518  C 154.072704018459 44.6382225884518  167.880059783068 24.1931976215767  167.880059783068 24.1931976215767  C 167.880059783068 24.1931976215767  154.072704018459 0.601828987856152  154.072704018459 0.601828987856152  Z " fill-rule="nonzero" fill="#ffffff" stroke="none" fill-opacity="0" transform="matrix(1 0 0 1 1166 379 )" />
    <path d="M 154.072704018459 0.601828987856152  C 154.072704018459 0.601828987856152  13.686485588843 0.601828987856152  13.686485588843 0.601828987856152  C 13.686485588843 0.601828987856152  0.691644646181658 24.1931976215767  0.691644646181658 24.1931976215767  C 0.691644646181658 24.1931976215767  13.686485588843 44.6382225884518  13.686485588843 44.6382225884518  C 13.686485588843 44.6382225884518  154.072704018459 44.6382225884518  154.072704018459 44.6382225884518  C 154.072704018459 44.6382225884518  167.880059783068 24.1931976215767  167.880059783068 24.1931976215767  C 167.880059783068 24.1931976215767  154.072704018459 0.601828987856152  154.072704018459 0.601828987856152  Z " stroke-width="6.00190536678311" stroke="#00a0e9" fill="none" transform="matrix(1 0 0 1 1166 379 )" mask="url(#clip1919)" />
  </g>
</svg>