<?xml version="1.0" encoding="utf-8"?>
<svg version="1.1" xmlns:xlink="http://www.w3.org/1999/xlink" width="168px" height="45px" xmlns="http://www.w3.org/2000/svg">
  <defs>
    <mask fill="white" id="clip1925">
      <path d="M 153.693341995857 0.245385782021685  C 153.693341995857 0.245385782021685  13.3071235662406 0.245385782021685  13.3071235662406 0.245385782021685  C 13.3071235662406 0.245385782021685  0.312282623579449 23.8367544157422  0.312282623579449 23.8367544157422  C 0.312282623579449 23.8367544157422  13.3071235662406 44.2817793826173  13.3071235662406 44.2817793826173  C 13.3071235662406 44.2817793826173  153.693341995857 44.2817793826173  153.693341995857 44.2817793826173  C 153.693341995857 44.2817793826173  167.500697760466 23.8367544157422  167.500697760466 23.8367544157422  C 167.500697760466 23.8367544157422  153.693341995857 0.245385782021685  153.693341995857 0.245385782021685  Z " fill-rule="evenodd" />
    </mask>
  </defs>
  <g transform="matrix(1 0 0 1 -558 -327 )">
    <path d="M 153.693341995857 0.245385782021685  C 153.693341995857 0.245385782021685  13.3071235662406 0.245385782021685  13.3071235662406 0.245385782021685  C 13.3071235662406 0.245385782021685  0.312282623579449 23.8367544157422  0.312282623579449 23.8367544157422  C 0.312282623579449 23.8367544157422  13.3071235662406 44.2817793826173  13.3071235662406 44.2817793826173  C 13.3071235662406 44.2817793826173  153.693341995857 44.2817793826173  153.693341995857 44.2817793826173  C 153.693341995857 44.2817793826173  167.500697760466 23.8367544157422  167.500697760466 23.8367544157422  C 167.500697760466 23.8367544157422  153.693341995857 0.245385782021685  153.693341995857 0.245385782021685  Z " fill-rule="nonzero" fill="#ffffff" stroke="none" fill-opacity="0" transform="matrix(1 0 0 1 558 327 )" />
    <path d="M 153.693341995857 0.245385782021685  C 153.693341995857 0.245385782021685  13.3071235662406 0.245385782021685  13.3071235662406 0.245385782021685  C 13.3071235662406 0.245385782021685  0.312282623579449 23.8367544157422  0.312282623579449 23.8367544157422  C 0.312282623579449 23.8367544157422  13.3071235662406 44.2817793826173  13.3071235662406 44.2817793826173  C 13.3071235662406 44.2817793826173  153.693341995857 44.2817793826173  153.693341995857 44.2817793826173  C 153.693341995857 44.2817793826173  167.500697760466 23.8367544157422  167.500697760466 23.8367544157422  C 167.500697760466 23.8367544157422  153.693341995857 0.245385782021685  153.693341995857 0.245385782021685  Z " stroke-width="6.00190536678311" stroke="#00a0e9" fill="none" transform="matrix(1 0 0 1 558 327 )" mask="url(#clip1925)" />
  </g>
</svg>