<?xml version="1.0" encoding="utf-8"?>
<svg version="1.1" xmlns:xlink="http://www.w3.org/1999/xlink" width="168px" height="45px" xmlns="http://www.w3.org/2000/svg">
  <defs>
    <mask fill="white" id="clip1923">
      <path d="M 153.631095935509 0.70276004423954  C 153.631095935509 0.70276004423954  13.2448775058924 0.70276004423954  13.2448775058924 0.70276004423954  C 13.2448775058924 0.70276004423954  0.250036563231106 24.2933525695075  0.250036563231106 24.2933525695075  C 0.250036563231106 24.2933525695075  13.2448775058924 44.7383775363826  13.2448775058924 44.7383775363826  C 13.2448775058924 44.7383775363826  153.631095935509 44.7383775363826  153.631095935509 44.7383775363826  C 153.631095935509 44.7383775363826  167.43768081319 24.2933525695075  167.43768081319 24.2933525695075  C 167.43768081319 24.2933525695075  153.631095935509 0.70276004423954  153.631095935509 0.70276004423954  Z " fill-rule="evenodd" />
    </mask>
  </defs>
  <g transform="matrix(1 0 0 1 -578 -183 )">
    <path d="M 153.631095935509 0.70276004423954  C 153.631095935509 0.70276004423954  13.2448775058924 0.70276004423954  13.2448775058924 0.70276004423954  C 13.2448775058924 0.70276004423954  0.250036563231106 24.2933525695075  0.250036563231106 24.2933525695075  C 0.250036563231106 24.2933525695075  13.2448775058924 44.7383775363826  13.2448775058924 44.7383775363826  C 13.2448775058924 44.7383775363826  153.631095935509 44.7383775363826  153.631095935509 44.7383775363826  C 153.631095935509 44.7383775363826  167.43768081319 24.2933525695075  167.43768081319 24.2933525695075  C 167.43768081319 24.2933525695075  153.631095935509 0.70276004423954  153.631095935509 0.70276004423954  Z " fill-rule="nonzero" fill="#ffffff" stroke="none" fill-opacity="0" transform="matrix(1 0 0 1 578 183 )" />
    <path d="M 153.631095935509 0.70276004423954  C 153.631095935509 0.70276004423954  13.2448775058924 0.70276004423954  13.2448775058924 0.70276004423954  C 13.2448775058924 0.70276004423954  0.250036563231106 24.2933525695075  0.250036563231106 24.2933525695075  C 0.250036563231106 24.2933525695075  13.2448775058924 44.7383775363826  13.2448775058924 44.7383775363826  C 13.2448775058924 44.7383775363826  153.631095935509 44.7383775363826  153.631095935509 44.7383775363826  C 153.631095935509 44.7383775363826  167.43768081319 24.2933525695075  167.43768081319 24.2933525695075  C 167.43768081319 24.2933525695075  153.631095935509 0.70276004423954  153.631095935509 0.70276004423954  Z " stroke-width="6.00190536678311" stroke="#00a0e9" fill="none" transform="matrix(1 0 0 1 578 183 )" mask="url(#clip1923)" />
  </g>
</svg>