<?xml version="1.0" encoding="utf-8"?>
<svg version="1.1" xmlns:xlink="http://www.w3.org/1999/xlink" width="200px" height="52px" xmlns="http://www.w3.org/2000/svg">
  <defs>
    <mask fill="white" id="clip1924">
      <path d="M 182.959901800327 0.485669586983704  C 182.959901800327 0.485669586983704  15.6752571023768 0.485669586983704  15.6752571023768 0.485669586983704  C 15.6752571023768 0.485669586983704  0.148020128490089 27.8471204677489  0.148020128490089 27.8471204677489  C 0.148020128490089 27.8471204677489  15.6752571023768 51.9491248388845  15.6752571023768 51.9491248388845  C 15.6752571023768 51.9491248388845  182.959901800327 51.9491248388845  182.959901800327 51.9491248388845  C 182.959901800327 51.9491248388845  199.457446808511 27.8471204677489  199.457446808511 27.8471204677489  C 199.457446808511 27.8471204677489  182.959901800327 0.485669586983704  182.959901800327 0.485669586983704  Z " fill-rule="evenodd" />
    </mask>
  </defs>
  <g transform="matrix(1 0 0 1 -561 -179 )">
    <path d="M 182.959901800327 0.485669586983704  C 182.959901800327 0.485669586983704  15.6752571023768 0.485669586983704  15.6752571023768 0.485669586983704  C 15.6752571023768 0.485669586983704  0.148020128490089 27.8471204677489  0.148020128490089 27.8471204677489  C 0.148020128490089 27.8471204677489  15.6752571023768 51.9491248388845  15.6752571023768 51.9491248388845  C 15.6752571023768 51.9491248388845  182.959901800327 51.9491248388845  182.959901800327 51.9491248388845  C 182.959901800327 51.9491248388845  199.457446808511 27.8471204677489  199.457446808511 27.8471204677489  C 199.457446808511 27.8471204677489  182.959901800327 0.485669586983704  182.959901800327 0.485669586983704  Z " fill-rule="nonzero" fill="#ffffff" stroke="none" fill-opacity="0" transform="matrix(1 0 0 1 561 179 )" />
    <path d="M 182.959901800327 0.485669586983704  C 182.959901800327 0.485669586983704  15.6752571023768 0.485669586983704  15.6752571023768 0.485669586983704  C 15.6752571023768 0.485669586983704  0.148020128490089 27.8471204677489  0.148020128490089 27.8471204677489  C 0.148020128490089 27.8471204677489  15.6752571023768 51.9491248388845  15.6752571023768 51.9491248388845  C 15.6752571023768 51.9491248388845  182.959901800327 51.9491248388845  182.959901800327 51.9491248388845  C 182.959901800327 51.9491248388845  199.457446808511 27.8471204677489  199.457446808511 27.8471204677489  C 199.457446808511 27.8471204677489  182.959901800327 0.485669586983704  182.959901800327 0.485669586983704  Z " stroke-width="6.00190536678311" stroke="#00a0e9" fill="none" transform="matrix(1 0 0 1 561 179 )" mask="url(#clip1924)" />
  </g>
</svg>