<?xml version="1.0" encoding="utf-8"?>
<svg version="1.1" xmlns:xlink="http://www.w3.org/1999/xlink" width="200px" height="53px" xmlns="http://www.w3.org/2000/svg">
  <defs>
    <mask fill="white" id="clip1918">
      <path d="M 182.978711190366 0.720148333264433  C 182.978711190366 0.720148333264433  15.6932970173682 0.720148333264433  15.6932970173682 0.720148333264433  C 15.6932970173682 0.720148333264433  0.166060043481593 28.2036123729181  0.166060043481593 28.2036123729181  C 0.166060043481593 28.2036123729181  15.6932970173682 52.4130950244155  15.6932970173682 52.4130950244155  C 15.6932970173682 52.4130950244155  182.978711190366 52.4130950244155  182.978711190366 52.4130950244155  C 182.978711190366 52.4130950244155  199.476256198549 28.2036123729181  199.476256198549 28.2036123729181  C 199.476256198549 28.2036123729181  182.978711190366 0.720148333264433  182.978711190366 0.720148333264433  Z " fill-rule="evenodd" />
    </mask>
  </defs>
  <g transform="matrix(1 0 0 1 -1201 -291 )">
    <path d="M 182.978711190366 0.720148333264433  C 182.978711190366 0.720148333264433  15.6932970173682 0.720148333264433  15.6932970173682 0.720148333264433  C 15.6932970173682 0.720148333264433  0.166060043481593 28.2036123729181  0.166060043481593 28.2036123729181  C 0.166060043481593 28.2036123729181  15.6932970173682 52.4130950244155  15.6932970173682 52.4130950244155  C 15.6932970173682 52.4130950244155  182.978711190366 52.4130950244155  182.978711190366 52.4130950244155  C 182.978711190366 52.4130950244155  199.476256198549 28.2036123729181  199.476256198549 28.2036123729181  C 199.476256198549 28.2036123729181  182.978711190366 0.720148333264433  182.978711190366 0.720148333264433  Z " fill-rule="nonzero" fill="#ffffff" stroke="none" fill-opacity="0" transform="matrix(1 0 0 1 1201 291 )" />
    <path d="M 182.978711190366 0.720148333264433  C 182.978711190366 0.720148333264433  15.6932970173682 0.720148333264433  15.6932970173682 0.720148333264433  C 15.6932970173682 0.720148333264433  0.166060043481593 28.2036123729181  0.166060043481593 28.2036123729181  C 0.166060043481593 28.2036123729181  15.6932970173682 52.4130950244155  15.6932970173682 52.4130950244155  C 15.6932970173682 52.4130950244155  182.978711190366 52.4130950244155  182.978711190366 52.4130950244155  C 182.978711190366 52.4130950244155  199.476256198549 28.2036123729181  199.476256198549 28.2036123729181  C 199.476256198549 28.2036123729181  182.978711190366 0.720148333264433  182.978711190366 0.720148333264433  Z " stroke-width="6.00190536678311" stroke="#00a0e9" fill="none" transform="matrix(1 0 0 1 1201 291 )" mask="url(#clip1918)" />
  </g>
</svg>