<?xml version="1.0" encoding="utf-8"?>
<svg version="1.1" xmlns:xlink="http://www.w3.org/1999/xlink" width="168px" height="44px" xmlns="http://www.w3.org/2000/svg">
  <defs>
    <mask fill="white" id="clip1927">
      <path d="M 153.590826270754 0.056908068838311  C 153.590826270754 0.056908068838311  13.2053787280657 0.056908068838311  13.2053787280657 0.056908068838311  C 13.2053787280657 0.056908068838311  0.210537785404426 23.5287103118228  0.210537785404426 23.5287103118228  C 0.210537785404426 23.5287103118228  13.2053787280657 43.8701152691192  13.2053787280657 43.8701152691192  C 13.2053787280657 43.8701152691192  153.590826270754 43.8701152691192  153.590826270754 43.8701152691192  C 153.590826270754 43.8701152691192  167.398182035363 23.5287103118228  167.398182035363 23.5287103118228  C 167.398182035363 23.5287103118228  153.590826270754 0.056908068838311  153.590826270754 0.056908068838311  Z " fill-rule="evenodd" />
    </mask>
  </defs>
  <g transform="matrix(1 0 0 1 -541 -399 )">
    <path d="M 153.590826270754 0.056908068838311  C 153.590826270754 0.056908068838311  13.2053787280657 0.056908068838311  13.2053787280657 0.056908068838311  C 13.2053787280657 0.056908068838311  0.210537785404426 23.5287103118228  0.210537785404426 23.5287103118228  C 0.210537785404426 23.5287103118228  13.2053787280657 43.8701152691192  13.2053787280657 43.8701152691192  C 13.2053787280657 43.8701152691192  153.590826270754 43.8701152691192  153.590826270754 43.8701152691192  C 153.590826270754 43.8701152691192  167.398182035363 23.5287103118228  167.398182035363 23.5287103118228  C 167.398182035363 23.5287103118228  153.590826270754 0.056908068838311  153.590826270754 0.056908068838311  Z " fill-rule="nonzero" fill="#ffffff" stroke="none" fill-opacity="0" transform="matrix(1 0 0 1 541 399 )" />
    <path d="M 153.590826270754 0.056908068838311  C 153.590826270754 0.056908068838311  13.2053787280657 0.056908068838311  13.2053787280657 0.056908068838311  C 13.2053787280657 0.056908068838311  0.210537785404426 23.5287103118228  0.210537785404426 23.5287103118228  C 0.210537785404426 23.5287103118228  13.2053787280657 43.8701152691192  13.2053787280657 43.8701152691192  C 13.2053787280657 43.8701152691192  153.590826270754 43.8701152691192  153.590826270754 43.8701152691192  C 153.590826270754 43.8701152691192  167.398182035363 23.5287103118228  167.398182035363 23.5287103118228  C 167.398182035363 23.5287103118228  153.590826270754 0.056908068838311  153.590826270754 0.056908068838311  Z " stroke-width="6.00190536678311" stroke="#00a0e9" fill="none" transform="matrix(1 0 0 1 541 399 )" mask="url(#clip1927)" />
  </g>
</svg>