<?xml version="1.0" encoding="utf-8"?>
<svg version="1.1" xmlns:xlink="http://www.w3.org/1999/xlink" width="200px" height="52px" xmlns="http://www.w3.org/2000/svg">
  <defs>
    <mask fill="white" id="clip1922">
      <path d="M 182.957947577986 0.510439355164181  C 182.957947577986 0.510439355164181  15.6733028800352 0.510439355164181  15.6733028800352 0.510439355164181  C 15.6733028800352 0.510439355164181  0.146065906148465 27.8718902359292  0.146065906148465 27.8718902359292  C 0.146065906148465 27.8718902359292  15.6733028800352 51.9738946070647  15.6733028800352 51.9738946070647  C 15.6733028800352 51.9738946070647  182.957947577986 51.9738946070647  182.957947577986 51.9738946070647  C 182.957947577986 51.9738946070647  199.455492586169 27.8718902359292  199.455492586169 27.8718902359292  C 199.455492586169 27.8718902359292  182.957947577986 0.510439355164181  182.957947577986 0.510439355164181  Z " fill-rule="evenodd" />
    </mask>
  </defs>
  <g transform="matrix(1 0 0 1 -555 -257 )">
    <path d="M 182.957947577986 0.510439355164181  C 182.957947577986 0.510439355164181  15.6733028800352 0.510439355164181  15.6733028800352 0.510439355164181  C 15.6733028800352 0.510439355164181  0.146065906148465 27.8718902359292  0.146065906148465 27.8718902359292  C 0.146065906148465 27.8718902359292  15.6733028800352 51.9738946070647  15.6733028800352 51.9738946070647  C 15.6733028800352 51.9738946070647  182.957947577986 51.9738946070647  182.957947577986 51.9738946070647  C 182.957947577986 51.9738946070647  199.455492586169 27.8718902359292  199.455492586169 27.8718902359292  C 199.455492586169 27.8718902359292  182.957947577986 0.510439355164181  182.957947577986 0.510439355164181  Z " fill-rule="nonzero" fill="#ffffff" stroke="none" fill-opacity="0" transform="matrix(1 0 0 1 555 257 )" />
    <path d="M 182.957947577986 0.510439355164181  C 182.957947577986 0.510439355164181  15.6733028800352 0.510439355164181  15.6733028800352 0.510439355164181  C 15.6733028800352 0.510439355164181  0.146065906148465 27.8718902359292  0.146065906148465 27.8718902359292  C 0.146065906148465 27.8718902359292  15.6733028800352 51.9738946070647  15.6733028800352 51.9738946070647  C 15.6733028800352 51.9738946070647  182.957947577986 51.9738946070647  182.957947577986 51.9738946070647  C 182.957947577986 51.9738946070647  199.455492586169 27.8718902359292  199.455492586169 27.8718902359292  C 199.455492586169 27.8718902359292  182.957947577986 0.510439355164181  182.957947577986 0.510439355164181  Z " stroke-width="6.00190536678311" stroke="#00a0e9" fill="none" transform="matrix(1 0 0 1 555 257 )" mask="url(#clip1922)" />
  </g>
</svg>