<?xml version="1.0" encoding="utf-8"?>
<svg version="1.1" xmlns:xlink="http://www.w3.org/1999/xlink" width="200px" height="52px" xmlns="http://www.w3.org/2000/svg">
  <defs>
    <mask fill="white" id="clip1926">
      <path d="M 183.022033856902 0.0356368968673451  C 183.022033856902 0.0356368968673451  15.7373891589516 0.0356368968673451  15.7373891589516 0.0356368968673451  C 15.7373891589516 0.0356368968673451  0.210152185064885 27.3963228289092  0.210152185064885 27.3963228289092  C 0.210152185064885 27.3963228289092  15.7373891589516 51.4990921487681  15.7373891589516 51.4990921487681  C 15.7373891589516 51.4990921487681  183.022033856902 51.4990921487681  183.022033856902 51.4990921487681  C 183.022033856902 51.4990921487681  199.520348340132 27.3963228289092  199.520348340132 27.3963228289092  C 199.520348340132 27.3963228289092  183.022033856902 0.0356368968673451  183.022033856902 0.0356368968673451  Z " fill-rule="evenodd" />
    </mask>
  </defs>
  <g transform="matrix(1 0 0 1 -541 -323 )">
    <path d="M 183.022033856902 0.0356368968673451  C 183.022033856902 0.0356368968673451  15.7373891589516 0.0356368968673451  15.7373891589516 0.0356368968673451  C 15.7373891589516 0.0356368968673451  0.210152185064885 27.3963228289092  0.210152185064885 27.3963228289092  C 0.210152185064885 27.3963228289092  15.7373891589516 51.4990921487681  15.7373891589516 51.4990921487681  C 15.7373891589516 51.4990921487681  183.022033856902 51.4990921487681  183.022033856902 51.4990921487681  C 183.022033856902 51.4990921487681  199.520348340132 27.3963228289092  199.520348340132 27.3963228289092  C 199.520348340132 27.3963228289092  183.022033856902 0.0356368968673451  183.022033856902 0.0356368968673451  Z " fill-rule="nonzero" fill="#ffffff" stroke="none" fill-opacity="0" transform="matrix(1 0 0 1 541 323 )" />
    <path d="M 183.022033856902 0.0356368968673451  C 183.022033856902 0.0356368968673451  15.7373891589516 0.0356368968673451  15.7373891589516 0.0356368968673451  C 15.7373891589516 0.0356368968673451  0.210152185064885 27.3963228289092  0.210152185064885 27.3963228289092  C 0.210152185064885 27.3963228289092  15.7373891589516 51.4990921487681  15.7373891589516 51.4990921487681  C 15.7373891589516 51.4990921487681  183.022033856902 51.4990921487681  183.022033856902 51.4990921487681  C 183.022033856902 51.4990921487681  199.520348340132 27.3963228289092  199.520348340132 27.3963228289092  C 199.520348340132 27.3963228289092  183.022033856902 0.0356368968673451  183.022033856902 0.0356368968673451  Z " stroke-width="6.00190536678311" stroke="#00a0e9" fill="none" transform="matrix(1 0 0 1 541 323 )" mask="url(#clip1926)" />
  </g>
</svg>