<?xml version="1.0" encoding="utf-8"?>
<svg version="1.1" xmlns:xlink="http://www.w3.org/1999/xlink" width="154px" height="153px" xmlns="http://www.w3.org/2000/svg">
  <defs>
    <mask fill="white" id="clip1932">
      <path d="M 0.393748743718604 77.0146800670016  C 0.393748743718604 35.0765494137353  34.3525360134003 0.0770217755443738  76.2425862646566 0.0770217755443738  C 118.133638190955 0.0770217755443738  153.094100502513 35.0765494137353  153.094100502513 77.0146800670016  C 153.094100502513 118.952810720268  118.133638190955 152.950663316583  76.2425862646566 152.950663316583  C 34.3525360134003 152.950663316583  0.393748743718604 118.952810720268  0.393748743718604 77.0146800670016  Z " fill-rule="evenodd" />
    </mask>
  </defs>
  <g transform="matrix(1 0 0 1 -1568 -818 )">
    <path d="M 0.393748743718604 77.0146800670016  C 0.393748743718604 35.0765494137353  34.3525360134003 0.0770217755443738  76.2425862646566 0.0770217755443738  C 118.133638190955 0.0770217755443738  153.094100502513 35.0765494137353  153.094100502513 77.0146800670016  C 153.094100502513 118.952810720268  118.133638190955 152.950663316583  76.2425862646566 152.950663316583  C 34.3525360134003 152.950663316583  0.393748743718604 118.952810720268  0.393748743718604 77.0146800670016  Z " fill-rule="nonzero" fill="#ffffff" stroke="none" fill-opacity="0" transform="matrix(1 0 0 1 1568 818 )" />
    <path d="M 0.393748743718604 77.0146800670016  C 0.393748743718604 35.0765494137353  34.3525360134003 0.0770217755443738  76.2425862646566 0.0770217755443738  C 118.133638190955 0.0770217755443738  153.094100502513 35.0765494137353  153.094100502513 77.0146800670016  C 153.094100502513 118.952810720268  118.133638190955 152.950663316583  76.2425862646566 152.950663316583  C 34.3525360134003 152.950663316583  0.393748743718604 118.952810720268  0.393748743718604 77.0146800670016  Z " stroke-width="2.00335008375209" stroke="#30cefe" fill="none" transform="matrix(1 0 0 1 1568 818 )" mask="url(#clip1932)" />
  </g>
</svg>