<?xml version="1.0" encoding="utf-8"?>
<svg version="1.1" xmlns:xlink="http://www.w3.org/1999/xlink" width="227px" height="227px" xmlns="http://www.w3.org/2000/svg">
  <defs>
    <mask fill="white" id="clip1929">
      <path d="M 0.13444221105528 114.348566164154  C 0.13444221105528 52.1776013400335  51.4783015075377 0.775644891122258  113.579149078727 0.775644891122258  C 175.679996649916 0.775644891122258  226.022180904523 52.1776013400335  226.022180904523 114.348566164154  C 226.022180904523 176.519530988275  175.679996649916 226.91981239531  113.579149078727 226.91981239531  C 51.4783015075377 226.91981239531  0.13444221105528 176.519530988275  0.13444221105528 114.348566164154  Z " fill-rule="evenodd" />
    </mask>
  </defs>
  <g transform="matrix(1 0 0 1 -1531 -780 )">
    <path d="M 0.13444221105528 114.348566164154  C 0.13444221105528 52.1776013400335  51.4783015075377 0.775644891122258  113.579149078727 0.775644891122258  C 175.679996649916 0.775644891122258  226.022180904523 52.1776013400335  226.022180904523 114.348566164154  C 226.022180904523 176.519530988275  175.679996649916 226.91981239531  113.579149078727 226.91981239531  C 51.4783015075377 226.91981239531  0.13444221105528 176.519530988275  0.13444221105528 114.348566164154  Z " fill-rule="nonzero" fill="#ffffff" stroke="none" fill-opacity="0" transform="matrix(1 0 0 1 1531 780 )" />
    <path d="M 0.13444221105528 114.348566164154  C 0.13444221105528 52.1776013400335  51.4783015075377 0.775644891122258  113.579149078727 0.775644891122258  C 175.679996649916 0.775644891122258  226.022180904523 52.1776013400335  226.022180904523 114.348566164154  C 226.022180904523 176.519530988275  175.679996649916 226.91981239531  113.579149078727 226.91981239531  C 51.4783015075377 226.91981239531  0.13444221105528 176.519530988275  0.13444221105528 114.348566164154  Z " stroke-width="2.00335008375209" stroke="#30cefe" fill="none" transform="matrix(1 0 0 1 1531 780 )" mask="url(#clip1929)" />
  </g>
</svg>