<?xml version="1.0" encoding="utf-8"?>
<svg version="1.1" xmlns:xlink="http://www.w3.org/1999/xlink" width="106px" height="105px" xmlns="http://www.w3.org/2000/svg">
  <defs>
    <mask fill="white" id="clip1934">
      <path d="M 0.34580234505863 53.0146800670016  C 0.34580234505863 24.3206968174204  24.5823316582915 0.0571222780569371  53.2442613065327 0.0571222780569371  C 81.9061909547739 0.0571222780569371  105.141045226131 24.3206968174204  105.141045226131 53.0146800670016  C 105.141045226131 81.7096649916248  81.9061909547739 104.97056281407  53.2442613065327 104.97056281407  C 24.5823316582915 104.97056281407  0.34580234505863 81.7096649916248  0.34580234505863 53.0146800670016  Z " fill-rule="evenodd" />
    </mask>
  </defs>
  <g transform="matrix(1 0 0 1 -1592 -842 )">
    <path d="M 0.34580234505863 53.0146800670016  C 0.34580234505863 24.3206968174204  24.5823316582915 0.0571222780569371  53.2442613065327 0.0571222780569371  C 81.9061909547739 0.0571222780569371  105.141045226131 24.3206968174204  105.141045226131 53.0146800670016  C 105.141045226131 81.7096649916248  81.9061909547739 104.97056281407  53.2442613065327 104.97056281407  C 24.5823316582915 104.97056281407  0.34580234505863 81.7096649916248  0.34580234505863 53.0146800670016  Z " fill-rule="nonzero" fill="#ffffff" stroke="none" fill-opacity="0" transform="matrix(1 0 0 1 1592 842 )" />
    <path d="M 0.34580234505863 53.0146800670016  C 0.34580234505863 24.3206968174204  24.5823316582915 0.0571222780569371  53.2442613065327 0.0571222780569371  C 81.9061909547739 0.0571222780569371  105.141045226131 24.3206968174204  105.141045226131 53.0146800670016  C 105.141045226131 81.7096649916248  81.9061909547739 104.97056281407  53.2442613065327 104.97056281407  C 24.5823316582915 104.97056281407  0.34580234505863 81.7096649916248  0.34580234505863 53.0146800670016  Z " stroke-width="2.00335008375209" stroke="#30cefe" fill="none" transform="matrix(1 0 0 1 1592 842 )" mask="url(#clip1934)" />
  </g>
</svg>