<?xml version="1.0" encoding="utf-8"?>
<svg version="1.1" xmlns:xlink="http://www.w3.org/1999/xlink" width="202px" height="201px" xmlns="http://www.w3.org/2000/svg">
  <defs>
    <mask fill="white" id="clip1930">
      <path d="M 0.440693467336686 101.014680067002  C 0.440693467336686 45.8334036850921  46.1250887772194 0.0979229480736876  101.244261306533 0.0979229480736876  C 156.363433835846 0.0979229480736876  201.046154103853 45.8334036850921  201.046154103853 101.014680067002  C 201.046154103853 156.195956448911  156.363433835846 200.929762144054  101.244261306533 200.929762144054  C 46.1250887772194 200.929762144054  0.440693467336686 156.195956448911  0.440693467336686 101.014680067002  Z " fill-rule="evenodd" />
    </mask>
  </defs>
  <g transform="matrix(1 0 0 1 -1544 -794 )">
    <path d="M 0.440693467336686 101.014680067002  C 0.440693467336686 45.8334036850921  46.1250887772194 0.0979229480736876  101.244261306533 0.0979229480736876  C 156.363433835846 0.0979229480736876  201.046154103853 45.8334036850921  201.046154103853 101.014680067002  C 201.046154103853 156.195956448911  156.363433835846 200.929762144054  101.244261306533 200.929762144054  C 46.1250887772194 200.929762144054  0.440693467336686 156.195956448911  0.440693467336686 101.014680067002  Z " fill-rule="nonzero" fill="#ffffff" stroke="none" fill-opacity="0" transform="matrix(1 0 0 1 1544 794 )" />
    <path d="M 0.440693467336686 101.014680067002  C 0.440693467336686 45.8334036850921  46.1250887772194 0.0979229480736876  101.244261306533 0.0979229480736876  C 156.363433835846 0.0979229480736876  201.046154103853 45.8334036850921  201.046154103853 101.014680067002  C 201.046154103853 156.195956448911  156.363433835846 200.929762144054  101.244261306533 200.929762144054  C 46.1250887772194 200.929762144054  0.440693467336686 156.195956448911  0.440693467336686 101.014680067002  Z " stroke-width="2.00335008375209" stroke="#30cefe" fill="none" transform="matrix(1 0 0 1 1544 794 )" mask="url(#clip1930)" />
  </g>
</svg>