<?xml version="1.0" encoding="utf-8"?>
<svg version="1.1" xmlns:xlink="http://www.w3.org/1999/xlink" width="82px" height="81px" xmlns="http://www.w3.org/2000/svg">
  <defs>
    <mask fill="white" id="clip1935">
      <path d="M 0.321829145728643 41.0146800670016  C 0.321829145728643 18.9417688442211  19.1973936348409 0.0471725293132153  41.2442613065327 0.0471725293132153  C 63.2921306532663 0.0471725293132153  81.1650184254607 18.9417688442211  81.1650184254607 41.0146800670016  C 81.1650184254607 63.0875912897822  63.2921306532663 80.9805125628141  41.2442613065327 80.9805125628141  C 19.1973936348409 80.9805125628141  0.321829145728643 63.0875912897822  0.321829145728643 41.0146800670016  Z " fill-rule="evenodd" />
    </mask>
  </defs>
  <g transform="matrix(1 0 0 1 -1604 -854 )">
    <path d="M 0.321829145728643 41.0146800670016  C 0.321829145728643 18.9417688442211  19.1973936348409 0.0471725293132153  41.2442613065327 0.0471725293132153  C 63.2921306532663 0.0471725293132153  81.1650184254607 18.9417688442211  81.1650184254607 41.0146800670016  C 81.1650184254607 63.0875912897822  63.2921306532663 80.9805125628141  41.2442613065327 80.9805125628141  C 19.1973936348409 80.9805125628141  0.321829145728643 63.0875912897822  0.321829145728643 41.0146800670016  Z " fill-rule="nonzero" fill="#ffffff" stroke="none" fill-opacity="0" transform="matrix(1 0 0 1 1604 854 )" />
    <path d="M 0.321829145728643 41.0146800670016  C 0.321829145728643 18.9417688442211  19.1973936348409 0.0471725293132153  41.2442613065327 0.0471725293132153  C 63.2921306532663 0.0471725293132153  81.1650184254607 18.9417688442211  81.1650184254607 41.0146800670016  C 81.1650184254607 63.0875912897822  63.2921306532663 80.9805125628141  41.2442613065327 80.9805125628141  C 19.1973936348409 80.9805125628141  0.321829145728643 63.0875912897822  0.321829145728643 41.0146800670016  Z " stroke-width="2.00335008375209" stroke="#30cefe" fill="none" transform="matrix(1 0 0 1 1604 854 )" mask="url(#clip1935)" />
  </g>
</svg>