<?xml version="1.0" encoding="utf-8"?>
<svg version="1.1" xmlns:xlink="http://www.w3.org/1999/xlink" width="178px" height="177px" xmlns="http://www.w3.org/2000/svg">
  <defs>
    <mask fill="white" id="clip1931">
      <path d="M 0.416720268006699 88.0130050251256  C 0.416720268006699 39.4528006700167  40.7401507537688 0.0879731993299657  89.2442613065327 0.0879731993299657  C 137.749373534338 0.0879731993299657  177.070127303183 39.4528006700167  177.070127303183 88.0130050251256  C 177.070127303183 136.573209380235  137.749373534338 176.940713567839  89.2442613065327 176.940713567839  C 40.7401507537688 176.940713567839  0.416720268006699 136.573209380235  0.416720268006699 88.0130050251256  Z " fill-rule="evenodd" />
    </mask>
  </defs>
  <g transform="matrix(1 0 0 1 -1556 -806 )">
    <path d="M 0.416720268006699 88.0130050251256  C 0.416720268006699 39.4528006700167  40.7401507537688 0.0879731993299657  89.2442613065327 0.0879731993299657  C 137.749373534338 0.0879731993299657  177.070127303183 39.4528006700167  177.070127303183 88.0130050251256  C 177.070127303183 136.573209380235  137.749373534338 176.940713567839  89.2442613065327 176.940713567839  C 40.7401507537688 176.940713567839  0.416720268006699 136.573209380235  0.416720268006699 88.0130050251256  Z " fill-rule="nonzero" fill="#ffffff" stroke="none" fill-opacity="0" transform="matrix(1 0 0 1 1556 806 )" />
    <path d="M 0.416720268006699 88.0130050251256  C 0.416720268006699 39.4528006700167  40.7401507537688 0.0879731993299657  89.2442613065327 0.0879731993299657  C 137.749373534338 0.0879731993299657  177.070127303183 39.4528006700167  177.070127303183 88.0130050251256  C 177.070127303183 136.573209380235  137.749373534338 176.940713567839  89.2442613065327 176.940713567839  C 40.7401507537688 176.940713567839  0.416720268006699 136.573209380235  0.416720268006699 88.0130050251256  Z " stroke-width="2.00335008375209" stroke="#30cefe" fill="none" transform="matrix(1 0 0 1 1556 806 )" mask="url(#clip1931)" />
  </g>
</svg>