<?xml version="1.0" encoding="utf-8"?>
<svg version="1.1" xmlns:xlink="http://www.w3.org/1999/xlink" width="130px" height="129px" xmlns="http://www.w3.org/2000/svg">
  <defs>
    <mask fill="white" id="clip1933">
      <path d="M 0.369775544388602 65.0146800670016  C 0.369775544388602 29.6986231155779  28.9665963149079 0.0670720268006448  64.2425862646566 0.0670720268006448  C 99.5185762144054 0.0670720268006448  129.118073701843 29.6986231155779  129.118073701843 65.0146800670016  C 129.118073701843 100.330737018425  99.5185762144054 128.960613065327  64.2425862646566 128.960613065327  C 28.9665963149079 128.960613065327  0.369775544388602 100.330737018425  0.369775544388602 65.0146800670016  Z " fill-rule="evenodd" />
    </mask>
  </defs>
  <g transform="matrix(1 0 0 1 -1580 -830 )">
    <path d="M 0.369775544388602 65.0146800670016  C 0.369775544388602 29.6986231155779  28.9665963149079 0.0670720268006448  64.2425862646566 0.0670720268006448  C 99.5185762144054 0.0670720268006448  129.118073701843 29.6986231155779  129.118073701843 65.0146800670016  C 129.118073701843 100.330737018425  99.5185762144054 128.960613065327  64.2425862646566 128.960613065327  C 28.9665963149079 128.960613065327  0.369775544388602 100.330737018425  0.369775544388602 65.0146800670016  Z " fill-rule="nonzero" fill="#ffffff" stroke="none" fill-opacity="0" transform="matrix(1 0 0 1 1580 830 )" />
    <path d="M 0.369775544388602 65.0146800670016  C 0.369775544388602 29.6986231155779  28.9665963149079 0.0670720268006448  64.2425862646566 0.0670720268006448  C 99.5185762144054 0.0670720268006448  129.118073701843 29.6986231155779  129.118073701843 65.0146800670016  C 129.118073701843 100.330737018425  99.5185762144054 128.960613065327  64.2425862646566 128.960613065327  C 28.9665963149079 128.960613065327  0.369775544388602 100.330737018425  0.369775544388602 65.0146800670016  Z " stroke-width="2.00335008375209" stroke="#30cefe" fill="none" transform="matrix(1 0 0 1 1580 830 )" mask="url(#clip1933)" />
  </g>
</svg>