<?xml version="1.0" encoding="utf-8"?>
<svg version="1.1" xmlns:xlink="http://www.w3.org/1999/xlink" width="280px" height="79px" xmlns="http://www.w3.org/2000/svg">
  <defs>
    <linearGradient gradientUnits="userSpaceOnUse" x1="140" y1="0" x2="140" y2="79" id="LinearGradient881">
      <stop id="Stop882" stop-color="#47ff90" stop-opacity="0.407843137254902" offset="0" />
      <stop id="Stop883" stop-color="#47ff90" stop-opacity="0.407843137254902" offset="0.02" />
      <stop id="Stop884" stop-color="#74a8ff" stop-opacity="0" offset="1" />
    </linearGradient>
  </defs>
  <g transform="matrix(1 0 0 1 -132 -187 )">
    <path d="M 1.292147 78  L 0.854156 58.727868  C 0.854156 58.727868  19.606456 49.789068  28.710356 40.351568  C 47.462656 20.912168  40.835956 3.124278  56.566556 0.974006000000003  C 67.986856 -0.587081999999999  69.559756 13.434968  84.422756 23.725468  C 93.269856 29.850968  103.139156 31.566868  112.279156 29.850968  C 131.104156 26.316568  129.076156 13.224868  140.354156 13.224868  C 158.168156 13.224868  154.851156 60.236868  168.429156 61.352968  C 176.947156 62.053168  177.702156 40.799368  196.066156 28.100768  C 206.050156 21.197268  215.441156 23.725468  223.704156 31.601068  C 236.033156 43.352668  241.747156 49.853368  251.779156 47.352068  C 269.822156 42.852968  279.854156 17.600068  279 17.600068  L 279 78  L 1.292147 78  Z " fill-rule="nonzero" fill="url(#LinearGradient881)" stroke="none" transform="matrix(1 0 0 1 132 187 )" />
  </g>
</svg>