<?xml version="1.0" encoding="utf-8"?>
<svg version="1.1" xmlns:xlink="http://www.w3.org/1999/xlink" width="305px" height="86px" xmlns="http://www.w3.org/2000/svg">
  <defs>
    <linearGradient gradientUnits="userSpaceOnUse" x1="0" y1="30.5" x2="280" y2="30.5" id="LinearGradient885">
      <stop id="Stop886" stop-color="#46e081" offset="0" />
      <stop id="Stop887" stop-color="#0dffb7" offset="1" />
    </linearGradient>
    <filter x="120px" y="175px" width="305px" height="86px" filterUnits="userSpaceOnUse" id="filter888">
      <feOffset dx="0" dy="0" in="SourceAlpha" result="shadowOffsetInner" />
      <feGaussianBlur stdDeviation="5.5" in="shadowOffsetInner" result="shadowGaussian" />
      <feComposite in2="shadowGaussian" operator="atop" in="SourceAlpha" result="shadowComposite" />
      <feColorMatrix type="matrix" values="0 0 0 0 0  0 0 0 0 0  0 0 0 0 0  0 0 0 0 0  " in="shadowComposite" />
    </filter>
    <g id="widget889">
      <path d="M 0.854156 58.234668  C 0.854156 58.234668  19.606456 49.372068  28.710356 40.015068  C 47.462656 20.741268  40.835956 3.104938  56.566556 0.972985000000001  C 67.986856 -0.574801999999998  69.559756 13.327768  84.422756 23.530568  C 93.269856 29.603768  103.139156 31.305168  112.279156 29.603768  C 131.104156 26.099568  129.076156 13.119368  140.354156 13.119368  C 158.168156 13.119368  154.851156 59.730868  168.429156 60.837468  C 176.947156 61.531668  177.702156 40.458968  196.066156 27.868568  C 206.050156 21.023868  215.441156 23.530568  223.704156 31.338968  C 236.033156 42.990468  241.747156 49.435868  251.779156 46.955868  C 269.822156 42.495068  279.854156 17.457368  279.854156 17.457368  " stroke-width="2.7083333" stroke="url(#LinearGradient885)" fill="none" transform="matrix(1 0 0 1 132 187 )" />
    </g>
  </defs>
  <g transform="matrix(1 0 0 1 -120 -175 )">
    <use xlink:href="#widget889" filter="url(#filter888)" />
    <use xlink:href="#widget889" />
  </g>
</svg>