<?xml version="1.0" encoding="utf-8"?>
<svg version="1.1" xmlns:xlink="http://www.w3.org/1999/xlink" width="59px" height="43px" xmlns="http://www.w3.org/2000/svg">
  <g transform="matrix(1 0 0 1 -659 -78 )">
    <path d="M 43.6047 41.9867  L 43.6031 42  L 13.7456 42  C 6.49062 42.3065  0.340916 36.8305  0.0138555 29.7506  C -0.316427 22.6722  5.29838 16.6729  12.5533 16.3514  C 12.534 7.7498  19.3636 0.610051  28.1604 0.03661  C 36.9572 -0.535216  44.6987 5.65472  45.8506 14.1837  C 53.2651 15.2982  58.5448 21.8048  57.9551 29.1012  C 57.3654 36.3993  51.1078 42.019  43.6047 41.9867  Z M 15.134 38  L 15.1324 38  L 43.3948 38  C 46.8268 37.9984  49.998 36.2012  51.7132 33.285  C 53.4289 30.3805  53.4289 26.7612  51.7132 23.8567  C 49.9964 20.9388  46.8268 19.1417  43.3948 19.1433  C 42.7583 19.1433  42.1477 18.895  41.6974 18.4523  C 41.2489 18.0157  40.9947 17.4146  40.9929 16.7858  C 40.9929 10.277  35.619 5  28.9882 5  C 22.3575 5  16.982 10.277  16.982 16.7858  L 16.982 17.2809  C 22.6588 18.8689  26.5766 23.9547  26.5863 29.7496  C 26.5863 30.591  26.1296 31.3703  25.3862 31.7918  C 24.64 32.2131  23.7305 32.2131  22.9843 31.7918  C 22.2478 31.3801  21.7893 30.599  21.7858 29.7496  C 21.7858 25.2029  18.0364 21.5123  13.4042 21.4992  C 8.76239 21.4992  5 25.1931  5 29.7496  C 5 34.3045  8.76239 38  13.4042 38  L 14.3404 38  C 14.6027 37.9559  14.8716 37.9559  15.134 38  Z " fill-rule="nonzero" fill="#ffffff" stroke="none" transform="matrix(1 0 0 1 659 78 )" />
  </g>
</svg>