<?xml version="1.0" encoding="utf-8"?>
<svg version="1.1" xmlns:xlink="http://www.w3.org/1999/xlink" width="600px" height="800px" xmlns="http://www.w3.org/2000/svg">
  <g transform="matrix(1 0 0 1 -1940 -82 )">
    <path d="M 1940 82  L 2540 82  L 2540 882  L 1940 882  L 1940 82  " fill-rule="nonzero" fill="#cccccc" stroke="none" />
    <path d="M 1982 124  L 2498 124  L 2498 840  L 1982 840  L 1982 124  " fill-rule="nonzero" fill="#ffffff" stroke="none" />
    <path d="M 2297 292  C 2271.8 292  2252 272.2  2252 247  C 2252 221.8  2271.8 202  2297 202  C 2322.2 202  2342 221.8  2342 247  C 2342 272.2  2322.2 292  2297 292  " fill-rule="nonzero" fill="#cccccc" stroke="none" />
    <path d="M 1997 825  L 1997 447.7  L 2118.5 276.2  L 2288.6 413.4  L 2385.8 379.1  L 2483 413.4  L 2483 825  L 1997 825  " fill-rule="nonzero" fill="#169bd5" stroke="none" />
  </g>
</svg>