<?xml version="1.0" encoding="utf-8"?>
<svg version="1.1" xmlns:xlink="http://www.w3.org/1999/xlink" width="10px" height="423px" preserveAspectRatio="xMidYMin meet" viewBox="342 630  8 423" xmlns="http://www.w3.org/2000/svg">
  <path d="M 218 219  L 218 630  A 5 5 0 0 0 223 635 L 341 635  A 5 5 0 0 1 346 640 L 346 1047  " stroke-width="2" stroke-dasharray="18,8,4,8" stroke="#a30014" fill="none" />
  <path d="M 218 217  A 3.5 3.5 0 0 0 214.5 220.5 A 3.5 3.5 0 0 0 218 224 A 3.5 3.5 0 0 0 221.5 220.5 A 3.5 3.5 0 0 0 218 217 Z M 338.4 1046  L 346 1053  L 353.6 1046  L 338.4 1046  Z " fill-rule="nonzero" fill="#a30014" stroke="none" />
</svg>