<?xml version="1.0" encoding="utf-8"?>
<svg version="1.1" xmlns:xlink="http://www.w3.org/1999/xlink" width="13px" height="12px" xmlns="http://www.w3.org/2000/svg">
  <g transform="matrix(1 0 0 1 -158 -4503 )">
    <path d="M 12.6155133928571 5.4225  C 12.871837797619 6.0925  13 6.925  13 7.92  C 13 8.75  12.6928943452381 9.8775  12.0786830357143 11.3025  C 12.0641741071429 11.3375  12.0387834821429 11.3975  12.0025111607143 11.4825  C 11.9662388392857 11.5675  11.93359375 11.6425  11.9045758928571 11.7075  C 11.8755580357143 11.7725  11.8441220238095 11.8275  11.8102678571429 11.8725  C 11.7522321428571 11.9575  11.6845238095238 12  11.6071428571429 12  C 11.5345982142857 12  11.477771577381 11.975  11.4366629464286 11.925  C 11.3955543154762 11.875  11.375 11.8125  11.375 11.7375  C 11.375 11.6925  11.3810453869048 11.62625  11.3931361607143 11.53875  C 11.4052269345238 11.45125  11.4112723214286 11.3925  11.4112723214286 11.3625  C 11.4354538690476 11.0225  11.4475446428571 10.715  11.4475446428571 10.44  C 11.4475446428571 9.935  11.4052269345238 9.4825  11.3205915178571 9.0825  C 11.2359561011905 8.6825  11.1186755952381 8.33625  10.96875 8.04375  C 10.8188244047619 7.75125  10.6253720238095 7.49875  10.3883928571429 7.28625  C 10.1514136904762 7.07375  9.89629836309524 6.9  9.623046875 6.765  C 9.34979538690476 6.63  9.02818080357143 6.52375  8.658203125 6.44625  C 8.28822544642857 6.36875  7.91582961309524 6.315  7.541015625 6.285  C 7.16620163690476 6.255  6.74181547619048 6.24  6.26785714285714 6.24  L 4.64285714285714 6.24  L 4.64285714285714 8.16  C 4.64285714285714 8.29  4.59691220238095 8.4025  4.50502232142857 8.4975  C 4.41313244047619 8.5925  4.30431547619048 8.64  4.17857142857143 8.64  C 4.05282738095238 8.64  3.94401041666667 8.5925  3.85212053571429 8.4975  L 0.137834821428571 4.6575  C 0.0459449404761905 4.5625  0 4.45  0 4.32  C 0 4.19  0.0459449404761905 4.0775  0.137834821428571 3.9825  L 3.85212053571429 0.1425  C 3.94401041666667 0.0474999999999994  4.05282738095238 0  4.17857142857143 0  C 4.30431547619048 0  4.41313244047619 0.0474999999999994  4.50502232142857 0.1425  C 4.59691220238095 0.237499999999998  4.64285714285714 0.349999999999999  4.64285714285714 0.48  L 4.64285714285714 2.4  L 6.26785714285714 2.4  C 9.71614583333333 2.4  11.83203125 3.4075  12.6155133928571 5.4225  Z " fill-rule="nonzero" fill="#ffffff" stroke="none" transform="matrix(1 0 0 1 158 4503 )" />
  </g>
</svg>