<?xml version="1.0" encoding="utf-8"?>
<svg version="1.1" xmlns:xlink="http://www.w3.org/1999/xlink" width="434px" height="221px" xmlns="http://www.w3.org/2000/svg">
  <defs>
    <mask fill="white" id="clip10">
      <path d="M 4 11  L 345.833266926388 11  L 355 0  L 364.166766727314 11  L 396 11  C 398.24 11  400 12.76  400 15  L 400 183  C 400 185.24  398.24 187  396 187  L 4 187  C 1.75999999999999 187  0 185.24  0 183  L 0 15  C 0 12.76  1.75999999999999 11  4 11  Z " fill-rule="evenodd" />
    </mask>
    <filter x="897px" y="1227px" width="434px" height="221px" filterUnits="userSpaceOnUse" id="filter11">
      <feOffset dx="2" dy="2" in="SourceAlpha" result="shadowOffsetInner" />
      <feGaussianBlur stdDeviation="8.5" in="shadowOffsetInner" result="shadowGaussian" />
      <feComposite in2="shadowGaussian" operator="atop" in="SourceAlpha" result="shadowComposite" />
      <feColorMatrix type="matrix" values="0 0 0 0 0  0 0 0 0 0  0 0 0 0 0  0 0 0 0.349019607843137 0  " in="shadowComposite" />
    </filter>
    <g id="widget12">
      <path d="M 4 11  L 345.833266926388 11  L 355 0  L 364.166766727314 11  L 396 11  C 398.24 11  400 12.76  400 15  L 400 183  C 400 185.24  398.24 187  396 187  L 4 187  C 1.75999999999999 187  0 185.24  0 183  L 0 15  C 0 12.76  1.75999999999999 11  4 11  Z " fill-rule="nonzero" fill="#f0f0f0" stroke="none" transform="matrix(1 0 0 1 912 1242 )" />
      <path d="M 4 11  L 345.833266926388 11  L 355 0  L 364.166766727314 11  L 396 11  C 398.24 11  400 12.76  400 15  L 400 183  C 400 185.24  398.24 187  396 187  L 4 187  C 1.75999999999999 187  0 185.24  0 183  L 0 15  C 0 12.76  1.75999999999999 11  4 11  Z " stroke-width="2" stroke="#d7d7d7" fill="none" transform="matrix(1 0 0 1 912 1242 )" mask="url(#clip10)" />
    </g>
  </defs>
  <g transform="matrix(1 0 0 1 -897 -1227 )">
    <use xlink:href="#widget12" filter="url(#filter11)" />
    <use xlink:href="#widget12" />
  </g>
</svg>