<?xml version="1.0" encoding="utf-8"?>
<svg version="1.1" xmlns:xlink="http://www.w3.org/1999/xlink" width="24px" height="24px" xmlns="http://www.w3.org/2000/svg">
  <g transform="matrix(1 0 0 1 -151 -4021 )">
    <path d="M 151 4021  L 175 4021  L 175 4045  L 151 4045  L 151 4021  " fill-rule="nonzero" fill="#cccccc" stroke="none" />
    <path d="M 153 4023  L 173 4023  L 173 4043  L 153 4043  L 153 4023  " fill-rule="nonzero" fill="#ffffff" stroke="none" />
    <path d="M 165.28 4028.2  C 164.272 4028.2  163.48 4027.408  163.48 4026.4  C 163.48 4025.392  164.272 4024.6  165.28 4024.6  C 166.288 4024.6  167.08 4025.392  167.08 4026.4  C 167.08 4027.408  166.288 4028.2  165.28 4028.2  " fill-rule="nonzero" fill="#cccccc" stroke="none" />
    <path d="M 154 4043  L 154 4032.55  L 158.75 4027.8  L 165.4 4031.6  L 169.2 4030.65  L 173 4031.6  L 173 4043  L 154 4043  " fill-rule="nonzero" fill="#169bd5" stroke="none" />
  </g>
</svg>