<?xml version="1.0" encoding="utf-8"?>
<svg version="1.1" xmlns:xlink="http://www.w3.org/1999/xlink" width="13px" height="9px" xmlns="http://www.w3.org/2000/svg">
  <g transform="matrix(1 0 0 1 -157 -4209 )">
    <path d="M 8.60234375 4.84836647727273  C 8.64522569444445 4.80788352272727  8.66666666666667 4.75994318181818  8.66666666666667 4.70454545454545  C 8.66666666666667 4.64488636363636  8.64635416666667 4.59588068181818  8.60572916666667 4.55752840909091  L 6.22239583333333 2.30752840909091  C 6.18177083333333 2.26917613636364  6.12986111111111 2.25  6.06666666666667 2.25  C 6.00347222222222 2.25  5.9515625 2.26917613636364  5.9109375 2.30752840909091  L 3.534375 4.55113636363636  C 3.48923611111111 4.60227272727273  3.46666666666667 4.65340909090909  3.46666666666667 4.70454545454545  C 3.46666666666667 4.76420454545455  3.48697916666667 4.81321022727273  3.52760416666667 4.8515625  C 3.56822916666667 4.88991477272727  3.62013888888889 4.90909090909091  3.68333333333333 4.90909090909091  L 5.2 4.90909090909091  L 5.2 7.15909090909091  C 5.2 7.21448863636364  5.22144097222222 7.26242897727273  5.26432291666667 7.30291193181818  C 5.30720486111111 7.34339488636364  5.35798611111111 7.36363636363636  5.41666666666667 7.36363636363636  L 6.71666666666667 7.36363636363636  C 6.77534722222222 7.36363636363636  6.82612847222222 7.34339488636364  6.86901041666667 7.30291193181818  C 6.91189236111111 7.26242897727273  6.93333333333333 7.21448863636364  6.93333333333333 7.15909090909091  L 6.93333333333333 4.90909090909091  L 8.45 4.90909090909091  C 8.50868055555556 4.90909090909091  8.55946180555556 4.88884943181818  8.60234375 4.84836647727273  Z M 12.4346354166667 5.02095170454545  C 12.8115451388889 5.46626420454546  13 5.97443181818182  13 6.54545454545455  C 13 7.22301136363636  12.74609375 7.80149147727273  12.23828125 8.28089488636364  C 11.73046875 8.76029829545455  11.1177083333333 9  10.4 9  L 3.03333333333333 9  C 2.19826388888889 9  1.48394097222222 8.71981534090909  0.890364583333333 8.15944602272727  C 0.296788194444444 7.59907670454545  0 6.92471590909091  0 6.13636363636364  C 0 5.58238636363636  0.157986111111111 5.07102272727273  0.473958333333333 4.60227272727273  C 0.789930555555556 4.13352272727273  1.21423611111111 3.78196022727273  1.746875 3.54758522727273  C 1.73784722222222 3.41974431818182  1.73333333333333 3.328125  1.73333333333333 3.27272727272727  C 1.73333333333333 2.36931818181818  2.071875 1.59801136363636  2.74895833333333 0.958806818181818  C 3.42604166666667 0.319602272727273  4.24305555555556 0  5.2 0  C 5.90416666666667 0  6.54852430555556 0.185369318181818  7.13307291666667 0.556107954545454  C 7.71762152777778 0.926846590909091  8.14305555555556 1.41903409090909  8.409375 2.03267045454545  C 8.72986111111111 1.76846590909091  9.10451388888889 1.63636363636364  9.53333333333333 1.63636363636364  C 10.0118055555556 1.63636363636364  10.4203125 1.79616477272727  10.7588541666667 2.11576704545455  C 11.0973958333333 2.43536931818182  11.2666666666667 2.82102272727273  11.2666666666667 3.27272727272727  C 11.2666666666667 3.59659090909091  11.1741319444444 3.890625  10.9890625 4.15482954545455  C 11.5758680555556 4.28693181818182  12.0577256944444 4.57563920454545  12.4346354166667 5.02095170454545  Z " fill-rule="nonzero" fill="#ffffff" stroke="none" transform="matrix(1 0 0 1 157 4209 )" />
  </g>
</svg>