<?xml version="1.0" encoding="utf-8"?>
<svg version="1.1" xmlns:xlink="http://www.w3.org/1999/xlink" width="12px" height="12px" xmlns="http://www.w3.org/2000/svg">
  <g transform="matrix(1 0 0 1 -301 -1145 )">
    <path d="M 307 1145  C 310.36 1145  313 1147.64  313 1151  C 313 1154.36  310.36 1157  307 1157  C 303.64 1157  301 1154.36  301 1151  C 301 1147.64  303.64 1145  307 1145  Z " fill-rule="nonzero" fill="#ffffff" stroke="none" />
    <path d="M 307 1145.5  C 310.08 1145.5  312.5 1147.92  312.5 1151  C 312.5 1154.08  310.08 1156.5  307 1156.5  C 303.92 1156.5  301.5 1154.08  301.5 1151  C 301.5 1147.92  303.92 1145.5  307 1145.5  Z " stroke-width="1" stroke="#f2f2f2" fill="none" />
  </g>
</svg>