<?xml version="1.0" encoding="utf-8"?>
<svg version="1.1" xmlns:xlink="http://www.w3.org/1999/xlink" width="16px" height="10px" preserveAspectRatio="xMinYMid meet" viewBox="105 5881  16 8" xmlns="http://www.w3.org/2000/svg">
  <path d="M 156 4509  L 115 4509  A 5 5 0 0 0 110 4514 L 110 5880  A 5 5 0 0 0 115 5885 L 115 5885  " stroke-width="2" stroke-dasharray="18,8,4,8" stroke="#8400ff" fill="none" />
  <path d="M 154.5 4505.5  A 3.5 3.5 0 0 0 151 4509 A 3.5 3.5 0 0 0 154.5 4512.5 A 3.5 3.5 0 0 0 158 4509 A 3.5 3.5 0 0 0 154.5 4505.5 Z M 114 5892.6  L 121 5885  L 114 5877.4  L 114 5892.6  Z " fill-rule="nonzero" fill="#8400ff" stroke="none" />
</svg>