<?xml version="1.0" encoding="utf-8"?>
<svg version="1.1" xmlns:xlink="http://www.w3.org/1999/xlink" width="14px" height="14px" xmlns="http://www.w3.org/2000/svg">
  <g transform="matrix(1 0 0 1 -251 -6732 )">
    <path d="M 258 6732  C 261.92 6732  265 6735.08  265 6739  C 265 6742.92  261.92 6746  258 6746  C 254.08 6746  251 6742.92  251 6739  C 251 6735.08  254.08 6732  258 6732  Z " fill-rule="nonzero" fill="#ffffff" stroke="none" />
    <path d="M 258 6732.5  C 261.64 6732.5  264.5 6735.36  264.5 6739  C 264.5 6742.64  261.64 6745.5  258 6745.5  C 254.36 6745.5  251.5 6742.64  251.5 6739  C 251.5 6735.36  254.36 6732.5  258 6732.5  Z " stroke-width="1" stroke="#f2f2f2" fill="none" />
  </g>
</svg>