<?xml version="1.0" encoding="utf-8"?>
<svg version="1.1" xmlns:xlink="http://www.w3.org/1999/xlink" width="70px" height="70px" xmlns="http://www.w3.org/2000/svg">
  <g transform="matrix(1 0 0 1 -2072 -6808 )">
    <path d="M 29.1666666666667 54.2317708333333  C 29.9565972222222 54.2317708333333  30.6401909722222 53.9431423611111  31.2174479166667 53.3658854166667  L 59.19921875 25.3841145833333  C 59.7764756944444 24.8068576388889  60.0651041666667 24.1232638888889  60.0651041666667 23.3333333333333  C 60.0651041666667 22.5434027777778  59.7764756944444 21.8598090277778  59.19921875 21.2825520833333  L 54.55078125 16.6341145833333  C 53.9735243055556 16.0568576388889  53.2899305555556 15.7682291666667  52.5 15.7682291666667  C 51.7100694444444 15.7682291666667  51.0264756944444 16.0568576388889  50.44921875 16.6341145833333  L 29.1666666666667 37.9166666666667  L 19.55078125 28.30078125  C 18.9735243055556 27.7235243055556  18.2899305555556 27.4348958333333  17.5 27.4348958333333  C 16.7100694444444 27.4348958333333  16.0264756944444 27.7235243055556  15.44921875 28.30078125  L 10.80078125 32.94921875  C 10.2235243055556 33.5264756944444  9.93489583333333 34.2100694444444  9.93489583333333 35  C 9.93489583333333 35.7899305555556  10.2235243055556 36.4735243055556  10.80078125 37.05078125  L 27.1158854166667 53.3658854166667  C 27.6931423611111 53.9431423611111  28.3767361111111 54.2317708333333  29.1666666666667 54.2317708333333  Z M 66.1490885416667 3.85091145833334  C 68.7163628472222 6.41818576388888  70 9.5095486111111  70 13.125  L 70 56.875  C 70 60.4904513888889  68.7163628472222 63.5818142361111  66.1490885416667 66.1490885416667  C 63.5818142361111 68.7163628472222  60.4904513888889 70  56.875 70  L 13.125 70  C 9.50954861111111 70  6.41818576388889 68.7163628472222  3.85091145833333 66.1490885416667  C 1.28363715277778 63.5818142361111  0 60.4904513888889  0 56.875  L 0 13.125  C 0 9.5095486111111  1.28363715277778 6.41818576388888  3.85091145833333 3.85091145833334  C 6.41818576388889 1.28363715277777  9.50954861111111 0  13.125 0  L 56.875 0  C 60.4904513888889 0  63.5818142361111 1.28363715277777  66.1490885416667 3.85091145833334  Z " fill-rule="nonzero" fill="#8400ff" stroke="none" transform="matrix(1 0 0 1 2072 6808 )" />
  </g>
</svg>