<?xml version="1.0" encoding="utf-8"?>
<svg version="1.1" xmlns:xlink="http://www.w3.org/1999/xlink" width="34px" height="10px" preserveAspectRatio="xMinYMid meet" viewBox="1221 7785  34 8" xmlns="http://www.w3.org/2000/svg">
  <path d="M 1223 7789  L 1245 7789  A 5 5 0 0 0 1250 7784 L 1250 7645  A 5 5 0 0 1 1255 7640 L 1255 7640  " stroke-width="2" stroke-dasharray="18,8,4,8" stroke="#8400ff" fill="none" />
  <path d="M 1224.5 7785.5  A 3.5 3.5 0 0 0 1221 7789 A 3.5 3.5 0 0 0 1224.5 7792.5 A 3.5 3.5 0 0 0 1228 7789 A 3.5 3.5 0 0 0 1224.5 7785.5 Z M 1254 7647.6  L 1261 7640  L 1254 7632.4  L 1254 7647.6  Z " fill-rule="nonzero" fill="#8400ff" stroke="none" />
</svg>