<?xml version="1.0" encoding="utf-8"?>
<svg version="1.1" xmlns:xlink="http://www.w3.org/1999/xlink" width="21px" height="20px" preserveAspectRatio="xMinYMid meet" viewBox="127 4580  21 18" xmlns="http://www.w3.org/2000/svg">
  <path d="M 139 4589  L 115 4589  A 5 5 0 0 0 110 4594 L 110 6664  A 5 5 0 0 0 115 6669 L 115 6669  " stroke-width="2" stroke-dasharray="18,8,4,8" stroke="#8400ff" fill="none" />
  <path d="M 137.5 4585.5  A 3.5 3.5 0 0 0 134 4589 A 3.5 3.5 0 0 0 137.5 4592.5 A 3.5 3.5 0 0 0 141 4589 A 3.5 3.5 0 0 0 137.5 4585.5 Z M 114 6676.6  L 121 6669  L 114 6661.4  L 114 6676.6  Z " fill-rule="nonzero" fill="#8400ff" stroke="none" />
</svg>