<?xml version="1.0" encoding="utf-8"?>
<svg version="1.1" xmlns:xlink="http://www.w3.org/1999/xlink" width="31px" height="10px" preserveAspectRatio="xMinYMid meet" viewBox="105 3212  31 8" xmlns="http://www.w3.org/2000/svg">
  <path d="M 134 3216  L 115 3216  A 5 5 0 0 0 110 3221 L 110 4121  A 5 5 0 0 0 115 4126 L 115 4126  " stroke-width="2" stroke-dasharray="18,8,4,8" stroke="#8400ff" fill="none" />
  <path d="M 132.5 3212.5  A 3.5 3.5 0 0 0 129 3216 A 3.5 3.5 0 0 0 132.5 3219.5 A 3.5 3.5 0 0 0 136 3216 A 3.5 3.5 0 0 0 132.5 3212.5 Z M 114 4133.6  L 121 4126  L 114 4118.4  L 114 4133.6  Z " fill-rule="nonzero" fill="#8400ff" stroke="none" />
</svg>