<?xml version="1.0" encoding="utf-8"?>
<svg version="1.1" xmlns:xlink="http://www.w3.org/1999/xlink" width="21px" height="20px" preserveAspectRatio="xMinYMid meet" viewBox="1594 7780  21 18" xmlns="http://www.w3.org/2000/svg">
  <path d="M 1603 7789  L 1755 7789  A 5 5 0 0 0 1760 7784 L 1760 6994  A 5 5 0 0 1 1765 6989 L 1921 6989  " stroke-width="2" stroke-dasharray="18,8,4,8" stroke="#8400ff" fill="none" />
  <path d="M 1604.5 7785.5  A 3.5 3.5 0 0 0 1601 7789 A 3.5 3.5 0 0 0 1604.5 7792.5 A 3.5 3.5 0 0 0 1608 7789 A 3.5 3.5 0 0 0 1604.5 7785.5 Z M 1920 6996.6  L 1927 6989  L 1920 6981.4  L 1920 6996.6  Z " fill-rule="nonzero" fill="#8400ff" stroke="none" />
</svg>