<?xml version="1.0" encoding="utf-8"?>
<svg version="1.1" xmlns:xlink="http://www.w3.org/1999/xlink" width="300px" height="150px" xmlns="http://www.w3.org/2000/svg">
  <g transform="matrix(1 0 0 1 -41 -990 )">
    <path d="M 42 994  A 3 3 0 0 1 45 991 L 337 991  A 3 3 0 0 1 340 994 L 340 1136  A 3 3 0 0 1 337 1139 L 45 1139  A 3 3 0 0 1 42 1136 L 42 994  Z " fill-rule="nonzero" fill="#5e00c3" stroke="none" fill-opacity="0.0980392156862745" />
    <path d="M 41.5 994  A 3.5 3.5 0 0 1 45 990.5 L 337 990.5  A 3.5 3.5 0 0 1 340.5 994 L 340.5 1136  A 3.5 3.5 0 0 1 337 1139.5 L 45 1139.5  A 3.5 3.5 0 0 1 41.5 1136 L 41.5 994  Z " stroke-width="1" stroke-dasharray="9,4" stroke="#5e00c3" fill="none" stroke-dashoffset="0.5" />
  </g>
</svg>