<?xml version="1.0" encoding="utf-8"?>
<svg version="1.1" xmlns:xlink="http://www.w3.org/1999/xlink" width="40px" height="40px" xmlns="http://www.w3.org/2000/svg">
  <g transform="matrix(1 0 0 1 -710 -53 )">
    <path d="M 712 73  A 18 18 0 0 1 730 55 A 18 18 0 0 1 748 73 A 18 18 0 0 1 730 91 A 18 18 0 0 1 712 73 Z " fill-rule="nonzero" fill="#ffffff" stroke="none" fill-opacity="0" />
    <path d="M 711 73  A 19 19 0 0 1 730 54 A 19 19 0 0 1 749 73 A 19 19 0 0 1 730 92 A 19 19 0 0 1 711 73 Z " stroke-width="2" stroke="#66bbf9" fill="none" stroke-opacity="0.247058823529412" />
  </g>
</svg>