<?xml version="1.0" encoding="utf-8"?>
<svg version="1.1" xmlns:xlink="http://www.w3.org/1999/xlink" width="313px" height="89px" xmlns="http://www.w3.org/2000/svg">
  <defs>
    <linearGradient gradientUnits="userSpaceOnUse" x1="156.5" y1="89" x2="156.5" y2="0" id="LinearGradient700">
      <stop id="Stop701" stop-color="#1ac9ff" stop-opacity="0" offset="0" />
      <stop id="Stop702" stop-color="#1ac9ff" stop-opacity="0.498039215686275" offset="1" />
    </linearGradient>
  </defs>
  <g transform="matrix(1 0 0 1 -1548 -898 )">
    <path d="M 1 89  L 1 13.7671132254538  C 0.110310102250423 13.7671132254538  31.41581988135 1.21575994856698  43.3472499691718 11.975854016536  C 55.2786800569934 22.7359480845049  79.0580143260759 38.8662372608095  87.5668475603413 34.366594128008  C 96.0756807946063 29.8669509952066  122.519000154126 9.33105979456889  132.769102875759 8.39333559870033  C 143.019205597392 7.45561140283201  160.676582244408 -6.06033495805707  178.954015915425 23.6190388745015  C 197.231449586441 53.2984127070599  219.906276573469 64.220615733436  223.173613506594 63.9223710751513  C 233.554409705552 62.9756905832382  257.930217213253 48.3652848457004  268.375868822012 42.4272605681381  C 278.821520430771 36.4892362905757  312.595466413181 0.332669158570411  312 0.332669158570411  L 312 89  L 1 89  Z " fill-rule="nonzero" fill="url(#LinearGradient700)" stroke="none" transform="matrix(1 0 0 1 1548 898 )" />
  </g>
</svg>