<?xml version="1.0" encoding="utf-8"?>
<svg version="1.1" xmlns:xlink="http://www.w3.org/1999/xlink" width="15px" height="15px" viewBox="429 182.5  15 15" xmlns="http://www.w3.org/2000/svg">
  <path d="M 436.5 182.5  C 440.7 182.5  444 185.8  444 190  C 444 194.2  440.7 197.5  436.5 197.5  C 432.3 197.5  429 194.2  429 190  C 429 185.8  432.3 182.5  436.5 182.5  Z " fill-rule="nonzero" fill="#ffffff" stroke="none" />
  <path d="M 436.5 183  C 440.42 183  443.5 186.08  443.5 190  C 443.5 193.92  440.42 197  436.5 197  C 432.58 197  429.5 193.92  429.5 190  C 429.5 186.08  432.58 183  436.5 183  Z " stroke-width="1" stroke="#409eff" fill="none" />
  <path d="M 436.5 193.75  C 434.4 193.75  432.75 192.1  432.75 190  C 432.75 187.9  434.4 186.25  436.5 186.25  C 438.6 186.25  440.25 187.9  440.25 190  C 440.25 192.1  438.6 193.75  436.5 193.75  " fill-rule="nonzero" fill="#409eff" stroke="none" />
</svg>