<?xml version="1.0" encoding="utf-8"?>
<svg version="1.1" xmlns:xlink="http://www.w3.org/1999/xlink" width="15px" height="15px" viewBox="299 182.5  15 15" xmlns="http://www.w3.org/2000/svg">
  <path d="M 306.5 182.5  C 310.7 182.5  314 185.8  314 190  C 314 194.2  310.7 197.5  306.5 197.5  C 302.3 197.5  299 194.2  299 190  C 299 185.8  302.3 182.5  306.5 182.5  Z " fill-rule="nonzero" fill="#f2f2f2" stroke="none" />
  <path d="M 306.5 183  C 310.42 183  313.5 186.08  313.5 190  C 313.5 193.92  310.42 197  306.5 197  C 302.58 197  299.5 193.92  299.5 190  C 299.5 186.08  302.58 183  306.5 183  Z " stroke-width="1" stroke="#cccccc" fill="none" />
  <path d="M 306.5 193.75  C 304.4 193.75  302.75 192.1  302.75 190  C 302.75 187.9  304.4 186.25  306.5 186.25  C 308.6 186.25  310.25 187.9  310.25 190  C 310.25 192.1  308.6 193.75  306.5 193.75  " fill-rule="nonzero" fill="#cccccc" stroke="none" />
</svg>