<?xml version="1.0" encoding="utf-8"?>
<svg version="1.1" xmlns:xlink="http://www.w3.org/1999/xlink" width="15px" height="15px" viewBox="30 290.5  15 15" xmlns="http://www.w3.org/2000/svg">
  <path d="M 37.5 290.5  C 41.7 290.5  45 293.8  45 298  C 45 302.2  41.7 305.5  37.5 305.5  C 33.3 305.5  30 302.2  30 298  C 30 293.8  33.3 290.5  37.5 290.5  Z " fill-rule="nonzero" fill="#ffffff" stroke="none" />
  <path d="M 37.5 291  C 41.42 291  44.5 294.08  44.5 298  C 44.5 301.92  41.42 305  37.5 305  C 33.58 305  30.5 301.92  30.5 298  C 30.5 294.08  33.58 291  37.5 291  Z " stroke-width="1" stroke="#409eff" fill="none" />
  <path d="M 37.5 301.75  C 35.4 301.75  33.75 300.1  33.75 298  C 33.75 295.9  35.4 294.25  37.5 294.25  C 39.6 294.25  41.25 295.9  41.25 298  C 41.25 300.1  39.6 301.75  37.5 301.75  " fill-rule="nonzero" fill="#409eff" stroke="none" />
</svg>