<?xml version="1.0" encoding="utf-8"?>
<svg version="1.1" xmlns:xlink="http://www.w3.org/1999/xlink" width="330px" height="105px" xmlns="http://www.w3.org/2000/svg">
  <g transform="matrix(1 0 0 1 -68.5 -900.5 )">
    <path d="M 0.081447337009763 8.30834246914446  L 14.0665382566547 61.7041058103758  C 18.8757427385861 80.0560391849289  26.1091278153835 86.9513918985543  32.7639849693742 79.5277787601231  L 38.4880697647857 73.1469038441137  C 41.8631142831835 69.3840575206011  44.9526355395204 62.8135187740805  47.5133003714711 53.9527884853414  L 54.474907766308 29.8631042897055  C 57.1469588444695 20.6169191504795  60.6892707217992 15.4627672114284  64.3718773692883 15.4627672114284  C 68.5158138365085 15.4627672114284  72.458379514177 21.9844127578812  75.1892992068625 33.3565441878559  L 82.2279803776285 62.6665841496623  C 86.0192004208817 78.4535594107474  91.3060886839389 88.4269024286247  97.0283164482983 90.5863776213885  L 101.283657316497 92.1905081868656  C 106.466860185283 94.1463606193518  111.677270467922 89.5641149801728  116.047084818412 79.2069526470276  L 120.149363680893 69.4831488488879  C 126.605156146874 54.1822138812535  135.038795880258 55.9929747085474  140.958197635614 73.9509495349578  L 144.540499897108 84.8035859532482  C 149.98480583821 101.31976711662  157.339373155018 106.748574861508  164.115067890824 99.2526434911765  L 169.528686490239 93.2599285638505  C 173.101812308915 89.3033932032668  176.353864303893 82.2049105714648  178.998991014262 72.5884287583549  L 188.0774133818 39.5829472716341  C 193.166214848555 21.0829452335316  201.005878170869 17.1861614854651  207.26552694973 30.045301835414  L 215.094485710304 46.130176468508  C 216.922460960881 49.8850634474804  218.883734093058 52.7013742141226  220.922782935141 54.499381122467  L 238.2101052122 69.7485235350285  C 239.469463119095 70.8588007288541  240.700587697904 72.3587795738289  241.89010662628 74.2321674859427  L 251.651337515781 89.6120168334689  C 258.674802383638 100.67428007839  266.750734798067 98.1454744546736  273.154921000004 82.8786292746756  L 280.951313376383 64.2944796124059  C 283.368171225061 58.5349625237775  286.062842658884 54.502696780869  288.892083389362 52.4120309792411  L 303.393894271574 41.6901014959154  C 305.336953803962 40.2533640315548  307.220345229485 37.8979298876827  308.996397899323 34.6834176185594  L 327.99345534664 0.295611274180487  " stroke-width="1.98040810552746" stroke="#ffb822" fill="none" transform="matrix(1 0 0 1 69 901 )" />
  </g>
</svg>