<?xml version="1.0" encoding="utf-8"?>
<svg version="1.1" xmlns:xlink="http://www.w3.org/1999/xlink" width="331px" height="124px" xmlns="http://www.w3.org/2000/svg">
  <defs>
    <linearGradient gradientUnits="userSpaceOnUse" x1="165.5" y1="0" x2="165.5" y2="124" id="LinearGradient742">
      <stop id="Stop743" stop-color="#ffb822" stop-opacity="0.498039215686275" offset="0" />
      <stop id="Stop744" stop-color="#ffb822" stop-opacity="0.498039215686275" offset="0.12" />
      <stop id="Stop745" stop-color="#ffb822" stop-opacity="0.101960784313725" offset="1" />
    </linearGradient>
  </defs>
  <g transform="matrix(1 0 0 1 -68 -899 )">
    <path d="M 0 124  L 0 8.16599999999994  L 14.0947203947369 62.0100000000001  C 18.9660100722476 80.6167396783236  26.2671956763165 87.6086676905952  32.9911184210526 80.106  L 38.8141052631579 73.61  C 42.1903248725256 69.8429391788542  45.2834195741338 63.2564184533871  47.8512763157895 54.3660000000001  L 54.904625 29.966  C 57.6073228060779 20.6093119485602  61.1807678698167 15.3983323520912  64.8944472748526 15.3983323520912  C 69.0752688284509 15.3983323520912  73.0545315362958 21.9979966399211  75.8196875 33.5179999999999  L 82.956875 63.2539999999999  C 86.7591937105678 79.0941605436508  92.0461799920289 89.0912343013806  97.7647697368421 91.254  L 102.245246710526 92.9459999999999  C 107.416921455785 94.899328634516  112.615389352574 90.3196066220377  116.983457236842 79.962  L 121.192819078947 69.962  C 127.717714094825 54.4851098366519  136.219818561007 56.3187099152309  142.206963815789 74.494  L 145.792434210526 85.378  C 151.305286455027 102.108347544176  158.730597596828 107.600075451064  165.576217105263 100.01  L 171.088891447368 93.9019999999999  C 174.664210465516 89.9407430355868  177.921015403703 82.8226989884635  180.574654605263 73.1700000000001  L 189.749016447368 39.798  C 194.899981638801 21.0635460527969  202.8040790085 17.1141321565066  209.1299375 30.114  L 217.058694078947 46.41  C 218.885425659654 50.176507156003  220.844382543096 53.0029458443018  222.880592105263 54.8099999999999  L 240.384394736842 70.254  C 241.64158743246 71.3629639310111  242.870911341214 72.8616689262535  244.059148026316 74.7339999999999  L 254.062098684211 90.5020000000001  C 261.074765975097 101.555902399378  269.126273696368 99.0292230558862  275.527013157895 83.7660000000001  L 283.539608552632 64.658  C 285.957371044154 58.8915998001754  288.650131712284 54.8567228452957  291.475986842105 52.7660000000001  L 306.192421052632 41.8819999999999  C 308.132148769133 40.4478946620028  310.013002563899 38.0949048334585  311.787845394737 34.8820000000001  L 331 0.0860000000000127  L 331 124  L 0 124  Z " fill-rule="nonzero" fill="url(#LinearGradient742)" stroke="none" transform="matrix(1 0 0 1 68 899 )" />
  </g>
</svg>