<?xml version="1.0" encoding="utf-8"?>
<svg version="1.1" xmlns:xlink="http://www.w3.org/1999/xlink" width="334px" height="52px" xmlns="http://www.w3.org/2000/svg">
  <g transform="matrix(1 0 0 1 -465 -912 )">
    <path d="M 0 4.11850068965521  L 14.0741002976191 29.0681517241379  C 14.372000297619 29.5962252873564  14.6800798611111 30.1062195402299  14.9983389880953 30.5981344827586  C 15.3165981150794 31.0900494252874  15.6442815476191 31.5627022988506  15.9813892857143 32.0160931034484  C 16.3185626984127 32.4695965517242  16.664339484127 32.902767816092  17.0187196428572 33.3156068965518  C 17.3731654761905 33.7284459770115  17.7353937500001 34.1199954022989  18.1054044642857 34.4902551724139  C 18.4754808531746 34.8605149425288  18.8524859126985 35.2086402298851  19.2364196428572 35.5346310344828  C 19.6203533730159 35.8607344827585  20.0103291666667 36.1638586206897  20.4063470238095 36.4440034482758  C 20.8023648809524 36.7242609195403  21.2035381944445 36.980975862069  21.6098669642857 37.214148275862  C 22.0161300595238 37.4472080459771  22.4265634920635 37.6562183908046  22.8411672619047 37.8411793103448  C 23.2558367063492 38.026027586207  23.6736913690476 38.186375862069  24.0947312500001 38.322224137931  C 24.5157711309524 38.458072413793  24.9390111111111 38.5690827586207  25.3644511904762 38.6552551724138  C 25.7898912698413 38.741427586207  26.2165791666666 38.8025367816092  26.6445148809524 38.8385827586208  C 27.072384920635 38.8746287356322  27.5004848214286 38.8854988505748  27.9288145833333 38.8711931034483  C 28.3571443452381 38.857  28.7846860119048 38.8176873563218  29.2114395833333 38.7532551724138  C 29.638258829365 38.6888229885058  30.0632391865079 38.599383908046  30.4863806547619 38.4849379310344  C 30.9095877976191 38.3706045977011  31.3300366071429 38.2316022988506  31.7477270833333 38.0679310344827  C 32.1653518849207 37.904259770115  32.579233234127 37.7162574712644  32.9893711309524 37.503924137931  L 39.3144264880953 34.2295413793104  C 40.0738219246032 33.8364149425288  40.8175539682539 33.3699011494253  41.5456226190477 32.8299999999999  C 42.2736912698413 32.290211494253  42.981302281746 31.6805839080459  43.6684556547619 31.0011172413793  C 44.355674702381 30.3216505747126  45.0179045634921 29.5768505747126  45.6551452380952 28.7667172413793  C 46.2923859126984 27.956583908046  46.9004342261904 27.086467816092  47.4792901785714 26.1563689655172  L 54.9057086309524 14.2247  C 55.0832270833333 13.9394862068966  55.2647845238096 13.6620166666668  55.450380952381 13.3922913793103  C 55.6359773809523 13.1226111494252  55.8254157738096 12.8610468965518  56.0186961309523 12.6075986206897  C 56.2119108134921 12.3541390804598  56.4087047619047 12.1091109195403  56.6090779761905 11.872514137931  C 56.809385515873 11.6359173563219  57.0130424603175 11.4080448275862  57.2200488095239 11.1888965517242  C 57.4270551587302 10.9697482758621  57.6371153769841 10.7595945977012  57.8502294642857 10.5584355172414  C 58.0633435515873 10.3572877011494  58.2792816468254 10.1653822988507  58.4980437500001 9.98271931034481  C 58.7167401785714 9.80005632183907  58.9379650793651 9.62687229885057  59.1617184523809 9.46316724137932  C 59.3854718253968 9.29946218390808  59.6114581349207 9.14543885057469  59.8396773809525 9.00109724137928  C 60.0678966269841 8.85674436781608  60.2980861111112 8.72225344827586  60.5302458333334 8.59762448275865  C 60.7624055555556 8.47299551724143  60.9962071428572 8.35838620689651  61.2316505952381 8.25379655172412  C 61.4671597222223 8.14919563218393  61.704048015873 8.05473827586206  61.9423154761905 7.97042448275863  C 62.1805172619047 7.886121954023  62.419835515873 7.81206999999995  62.6602702380952 7.7482686206896  C 62.9006392857143 7.68445597701145  63.1417964285714 7.63097839080467  63.3837416666667 7.58783586206903  C 63.6256869047619 7.5446933333335  63.868124702381 7.51193091954019  64.1110550595239 7.48954862068967  C 64.3539197420635 7.46716632183905  64.5969814484127 7.45520356321845  64.8402401785714 7.45366034482765  C 65.0834989087302 7.45210586206895  65.3266262896826 7.46095965517247  65.5696223214286 7.48022172413789  C 65.8126183531746 7.49949505747122  66.0551875 7.52915977011491  66.2973297619047 7.56921586206897  C 66.5394720238095 7.60927195402292  66.7808918650794 7.65966310344823  67.0215892857143 7.72038931034479  C 67.2622210317461 7.78112678160915  67.5018348214286 7.852126091954  67.7404306547619 7.93338724137936  C 67.9790264880953 8.01463712643681  68.2163088293651 8.10605873563213  68.4522776785715 8.20765206896556  C 68.6881808531746 8.30923413793107  68.922475 8.42085275862064  69.1551601190477 8.54250793103449  C 69.3878452380953 8.66416310344835  69.6186257936508 8.79570839080463  69.8475017857143 8.93714379310347  C 70.0763777777778 9.07856793103451  70.3030208333333 9.22970195402297  70.527430952381 9.39054586206885  C 70.7519067460318 9.55137850574715  70.9738869047619 9.72172390804599  71.1933714285714 9.90158206896558  C 71.4128559523809 10.0814402298851  71.6296149801587 10.270585862069  71.8436485119048 10.4690189655172  C 72.0576163690477 10.6674408045977  72.2685631944445 10.8749022988505  72.4764889880953 11.0914034482759  C 72.6844147817461 11.3078933333334  72.8890896825397 11.5331525287355  73.0905136904762 11.7671810344827  C 73.2918720238096 12.0012208045976  73.489716765873 12.2437257471264  73.6840479166667 12.494695862069  C 73.8783790674603 12.7456772413794  74.0689339285715 13.0048196551725  74.2557125000001 13.2721231034483  C 74.4424910714285 13.5393927586207  74.6252634920635 13.8145080459769  74.8040297619048 14.0974689655171  C 74.982796031746 14.3804298850575  75.1573262896826 14.6708816091955  75.3276205357142 14.9688241379309  C 75.4979147817461 15.2667666666666  75.6637759920635 15.5718057471265  75.8252041666667 15.8839413793104  L 83.5221363095238 30.7659172413793  C 83.947642063492 31.5886666666667  84.3944920634921 32.375764367816  84.8626863095239 33.1272103448276  C 85.3308805555556 33.878656321839  85.818350297619 34.5911839080459  86.3250955357144 35.2647931034483  C 86.8319064484127 35.9385149425287  87.3558584325397 36.5704459770114  87.8969514880953 37.1605862068966  C 88.4379788690476 37.7507264367815  88.9938158730158 38.2965413793103  89.5644625 38.7980310344828  C 90.1351091269842 39.2995206896552  90.7181025793651 39.7544885057471  91.3134428571429 40.1629344827586  C 91.9087831349207 40.5714931034483  92.5138760912699 40.9317275862069  93.1287217261904 41.2436379310345  C 93.7435673611111 41.5556609195402  94.3655058531747 41.8180643678161  94.994537202381 42.030848275862  C 95.6236342261904 42.2437448275862  96.2571314484127 42.4060643678162  96.8950288690477 42.5178068965517  L 103.050348214286 43.5963137931034  C 103.626971230159 43.6973551724137  104.205236111111 43.7567183908046  104.785142857143 43.774403448276  C 105.364392857143 43.7919758620691  105.943314484127 43.7678701149425  106.521907738095 43.7020862068966  C 107.100500992064 43.6361896551723  107.676467261905 43.528783908046  108.249806547619 43.3798689655173  C 108.823145833333 43.2310666666667  109.391887896825 43.0412057471265  109.956032738095 42.8102862068966  C 110.519520833333 42.5793666666667  111.07676984127 42.3082333333333  111.627779761905 41.9968862068965  C 112.178132936508 41.685651724138  112.720276785714 41.3352735632184  113.254211309524 40.9457517241379  C 113.787489087302 40.5563425287356  114.310258928571 40.1291977011493  114.822520833333 39.6643172413794  C 115.335439484127 39.1994367816092  115.835879960317 38.6984540229886  116.323842261905 38.1613689655172  L 121.198211309524 32.7965448275862  C 121.395891865079 32.5793678160919  121.595871031746 32.3689494252873  121.798148809524 32.1652896551725  C 121.99976984127 31.9615172413793  122.204017857143 31.7646724137932  122.410892857143 31.5747551724138  C 122.617767857143 31.3848379310344  122.826613095238 31.2019045977012  123.037428571429 31.0259551724138  C 123.248244047619 30.8501183908046  123.461029761905 30.6814344827586  123.675785714286 30.5199034482758  C 123.890541666667 30.3584850574713  124.107267857143 30.2042758620689  124.325964285714 30.057275862069  C 124.544003968254 29.9103885057472  124.763685515873 29.7709356321839  124.985008928571 29.6389172413793  C 125.20633234127 29.5067862068966  125.429297619048 29.3822022988506  125.653904761905 29.2651655172414  C 125.878511904762 29.1481287356322  126.104104166667 29.0386954022988  126.330681547619 28.9368655172414  C 126.557915674603 28.8350356321839  126.785806547619 28.7409218390804  127.014354166667 28.654524137931  C 127.243558531746 28.5680137931034  127.473419642857 28.4892758620689  127.7039375 28.4183103448277  C 127.935112103175 28.3473448275862  128.166943452381 28.284208045977  128.399431547619 28.2289  C 128.631262896825 28.173591954023  128.864079365079 28.1261126436782  129.097880952381 28.0864620689655  C 129.331025793651 28.0468114942528  129.564499007936 28.0150459770114  129.798300595238 27.9911655172414  C 130.032758928571 27.9672850574713  130.267217261905 27.9513459770116  130.501675595238 27.943348275862  C 130.736133928571 27.9352379310345  130.970592261905 27.9350689655172  131.205050595238 27.9428413793104  C 131.439508928572 27.9505011494252  131.673638888889 27.9661022988506  131.90744047619 27.9896448275863  C 132.141898809524 28.0131873563219  132.375700396825 28.0446149425287  132.608845238095 28.083927586207  C 132.841990079365 28.123240229885  133.074806547619 28.1703816091954  133.307294642857 28.2253517241379  C 133.539782738095 28.2803218390804  133.771285714286 28.3431206896552  134.001803571429 28.4137482758621  C 134.232978174603 28.4843758620689  134.462839285714 28.5627758620689  134.691386904762 28.648948275862  C 134.920591269841 28.735008045977  135.148810515873 28.8287839080459  135.376044642857 28.9302758620689  C 135.60262202381 29.031767816092  135.828214285714 29.1408632183908  136.052821428571 29.2575620689655  C 136.277428571429 29.3743735632183  136.500393849206 29.4986195402299  136.721717261905 29.6302999999999  C 136.943040674603 29.7620931034484  137.163050595238 29.9012643678161  137.381747023809 30.0478137931036  C 137.599786706349 30.194475862069  137.81618452381 30.3484034482759  138.03094047619 30.5095965517241  C 138.246353174603 30.6707896551725  138.459467261905 30.8391356321839  138.670282738095 31.0146344827585  C 138.881098214286 31.1902459770116  139.089943452381 31.3728413793104  139.296818452381 31.5624206896551  C 139.503693452381 31.7521126436782  139.70826984127 31.948675862069  139.910547619048 32.1521103448276  C 140.112825396825 32.3555448275862  140.312804563492 32.5656816091954  140.510485119048 32.7825206896553  C 140.707508928571 32.9994724137931  140.902234126984 33.2229574712644  141.094660714286 33.452975862069  C 141.287087301587 33.6831068965517  141.476886904762 33.9196022988505  141.66405952381 34.1624620689655  C 141.850575396825 34.4053218390804  142.034464285714 34.6543770114943  142.215726190476 34.909627586207  L 146.103991071429 40.3858  C 146.429737103175 40.8451609195403  146.763692460318 41.2869494252874  147.105857142857 41.7111655172414  C 147.447365079365 42.1354942528736  147.796425595238 42.5414620689655  148.153038690476 42.9290689655172  C 148.508995039683 43.3166758620689  148.871847222222 43.6852459770115  149.241595238095 44.0347793103448  C 149.611343253968 44.3843126436782  149.986673611111 44.7141333333333  150.367586309524 45.0242413793103  C 150.749155753968 45.3344620689655  151.135650793651 45.6243505747126  151.527071428571 45.8939068965517  C 151.918492063492 46.1634632183908  152.314509920635 46.4122931034483  152.715125 46.6403965517242  C 153.115740079365 46.8683873563218  153.519967261905 47.0751448275862  153.927806547619 47.2606689655172  C 154.335645833333 47.4463057471264  154.74644047619 47.6103712643678  155.16019047619 47.7528655172413  C 155.573940476191 47.895359770115  155.989660714286 48.0160011494254  156.407351190476 48.1147896551723  C 156.825698412698 48.2136908045977  157.245030753968 48.2905137931035  157.665348214286 48.3452586206897  C 158.086322420635 48.400116091954  158.507625 48.4328390804598  158.929255952381 48.4434275862069  C 159.351543650794 48.454016091954  159.77350297619 48.4424701149425  160.195133928572 48.4087896551724  C 160.616108134921 48.3752218390805  161.036425595238 48.3195195402297  161.456086309524 48.2416827586206  C 161.875747023809 48.1638459770115  162.2934375 48.0641000000001  162.709157738095 47.9424448275861  C 163.125534722222 47.8207896551725  163.538956349206 47.6774505747126  163.949422619048 47.5124275862069  C 164.360545634921 47.3474045977011  164.768056547619 47.1609793103449  165.171955357143 46.9531517241379  L 171.618574404762 43.6387241379311  C 172.422431547619 43.2254344827586  173.208884920635 42.730140229885  173.977934523809 42.1528413793104  C 174.746327380952 41.5754298850575  175.491734126984 40.9201816091954  176.214154761905 40.1870965517242  C 176.936575396825 39.454124137931  177.630099206349 38.6487218390805  178.294726190476 37.7708896551724  C 178.960009920635 36.8931701149426  179.591799603175 35.9494977011494  180.190095238095 34.9398724137931  L 189.735898809524 18.825124137931  C 189.891547619048 18.5619885057471  190.05048015873 18.3043724137931  190.212696428571 18.052275862069  C 190.374255952381 17.8001793103449  190.539099206349 17.5537712643678  190.707226190476 17.3130517241379  C 190.874696428571 17.07221954023  191.044793650794 16.8373011494252  191.217517857143 16.6082965517242  C 191.390898809524 16.3792919540231  191.566906746032 16.1563137931034  191.745541666667 15.9393620689655  C 191.92351984127 15.7224103448276  192.104125 15.5117103448276  192.287357142857 15.3072620689654  C 192.470589285714 15.1028137931035  192.656448412698 14.9047298850575  192.84493452381 14.7130103448276  C 193.032763888889 14.5214034482759  193.222891865079 14.3362735632184  193.415318452381 14.1576206896552  C 193.607088293651 13.9790804597701  193.801156746032 13.8071862068966  193.997523809524 13.6419379310346  C 194.193890873016 13.4767459770114  194.392228174603 13.3183689655173  194.592535714286 13.1668068965516  C 194.792186507937 13.0152560919539  194.993807539683 12.870644137931  195.197398809524 12.7329710344828  C 195.400333333333 12.5953091954023  195.605238095238 12.4647044827586  195.812113095238 12.3411568965518  C 196.018331349206 12.2176093103449  196.226191468254 12.1012145977012  196.435693452381 11.9919727586207  C 196.644538690476 11.8827421839081  196.854697420635 11.7807545977012  197.066169642857 11.68601  C 197.277641865079 11.5912654022989  197.490427579365 11.5038426436781  197.704526785714 11.4237417241379  C 197.917969246032 11.3436295402298  198.132396825397 11.2709124137931  198.347809523809 11.2055903448277  C 198.563222222222 11.1402570114942  198.778963293651 11.0823637931035  198.995032738095 11.0319106896552  C 199.211758928571 10.9814575862069  199.429141865079 10.9384840229885  199.647181547619 10.90299  C 199.864564484127 10.8674959770115  200.082604166667 10.8395096551725  200.301300595238 10.8190310344827  C 200.519340277778 10.7985524137931  200.737708333333 10.7855983908046  200.956404761905 10.7801689655173  C 201.175101190476 10.7747395402299  201.393797619048 10.7768403448275  201.612494047619 10.7864713793102  C 201.830533730159 10.7961024137931  202.048901785714 10.8132524137931  202.267598214286 10.8379213793104  C 202.485637896825 10.8625903448276  202.703349206349 10.8947613793104  202.920732142857 10.9344344827587  C 203.138115079365 10.974107586207  203.354841269841 11.0212489655172  203.570910714286 11.0758586206896  C 203.787636904762 11.1304795402299  204.00337797619 11.1925180459771  204.218133928571 11.261974137931  C 204.432889880952 11.3314414942528  204.646660714286 11.4082757471266  204.859446428571 11.4924768965517  C 205.072888888889 11.576678045977  205.285017857143 11.6681785057473  205.495833333333 11.766978275862  C 205.706648809524 11.8657893103448  205.916479166667 11.9718151724138  206.125324404762 12.085055862069  C 206.333512896825 12.198307816092  206.540387896825 12.3186844827587  206.745949404762 12.4461858620689  C 206.951510912698 12.5736985057471  207.155430555556 12.7082344827586  207.357708333333 12.8497937931035  C 207.560642857143 12.9913643678161  207.761607142857 13.1398456321839  207.960601190476 13.2952375862068  C 208.159595238095 13.4506745977012  208.356619047619 13.612875862069  208.551672619048 13.7818413793104  C 208.746726190476 13.9508068965516  208.93980952381 14.1264183908046  209.130922619048 14.308675862069  L 217.330068452381 22.1297517241379  C 218.987038690476 23.7099172413792  220.737266865079 24.8774689655173  222.580752976191 25.6324068965517  L 240.576907738095 33.0018379310345  C 241.711108134921 33.4663804597701  242.81476984127 34.0910459770115  243.887892857143 34.8758344827586  L 255.187208333333 43.1407827586207  C 255.574031746032 43.4239689655172  255.965780753968 43.6865977011494  256.362455357143 43.9286689655172  C 256.758473214286 44.1708528735633  257.158759920635 44.3920287356323  257.563315476191 44.5921965517241  C 257.967214285714 44.7924770114943  258.374725198413 44.9714114942528  258.785848214286 45.129  C 259.196314484127 45.2864758620691  259.609407738095 45.4223804597701  260.025127976191 45.5367137931034  C 260.440191468254 45.6510471264369  260.857225198413 45.7435839080459  261.276229166667 45.8143241379311  C 261.695233134921 45.884951724138  262.114893849206 45.9336701149425  262.535211309524 45.9604793103448  C 262.955528769841 45.9871758620691  263.376174603175 45.9919068965517  263.797148809524 45.9746724137931  C 264.217466269841 45.9573252873563  264.637455357143 45.9180689655171  265.057116071429 45.8569034482758  C 265.476120039683 45.7956252873563  265.893810515873 45.7124942528735  266.3101875 45.6075103448276  C 266.726564484127 45.5025264367816  267.140642857143 45.3758586206897  267.552422619048 45.2275068965516  C 267.964202380952 45.0792678160919  268.373026785714 44.9095701149425  268.778895833333 44.7184137931034  C 269.184764880952 44.5272574712644  269.586693452381 44.3150931034482  269.984681547619 44.0819206896551  C 270.383326388889 43.848748275862  270.777374007936 43.5949620689656  271.166824404762 43.3205620689655  C 271.555618055555 43.0461620689655  271.939486111111 42.7516551724138  272.318428571429 42.4370413793102  C 272.697371031746 42.1224275862069  273.070074404762 41.7883264367816  273.436538690476 41.4347379310345  C 273.803659722222 41.0811494252873  274.163884920635 40.7086931034482  274.517214285714 40.3173689655173  L 283.901458333333 29.9317344827587  C 284.992313492063 28.7243068965516  286.139648809524 27.7021218390804  287.343464285714 26.8651793103448  C 288.546623015873 26.0282367816093  289.784589285714 25.3912367816092  291.057363095238 24.9541793103449  L 306.487282738095 19.6579551724137  C 308.241451388889 19.0557620689655  309.922064484127 18.0797045977013  311.529122023809 16.7297827586206  L 331 0.369138965517323  " stroke-width="2" stroke="#87f7c7" fill="none" transform="matrix(1 0 0 1 466 913 )" />
  </g>
</svg>