<?xml version="1.0" encoding="utf-8"?>
<svg version="1.1" xmlns:xlink="http://www.w3.org/1999/xlink" width="331px" height="110px" xmlns="http://www.w3.org/2000/svg">
  <defs>
    <linearGradient gradientUnits="userSpaceOnUse" x1="165.5" y1="0" x2="165.5" y2="110" id="LinearGradient746">
      <stop id="Stop747" stop-color="#87f7c7" stop-opacity="0.498039215686275" offset="0" />
      <stop id="Stop748" stop-color="#87f7c7" stop-opacity="0.498039215686275" offset="0.12" />
      <stop id="Stop749" stop-color="#87f7c7" stop-opacity="0.0980392156862745" offset="1" />
    </linearGradient>
  </defs>
  <g transform="matrix(1 0 0 1 -466 -913 )">
    <path d="M 0 110  L 0 4.15801692307696  L 14.0892711309524 29.2838615384616  C 14.3863830357143 29.8136666666666  14.6937401785715 30.3253641025641  15.0113425595238 30.8189538461539  C 15.328879265873 31.3125435897435  15.6559387896825 31.786841025641  15.9925211309524 32.2418461538462  C 16.3290377976191 32.6968512820513  16.6742563492063 33.1314923076923  17.0281767857143 33.5457692307692  C 17.3820972222222 33.9600461538462  17.7438657738095 34.3530000000001  18.1134824404762 34.7246307692308  C 18.4830991071428 35.0962615384615  18.859677281746 35.4456102564103  19.2432169642858 35.7726769230769  C 19.6268223214286 36.0998564102564  20.0165025793651 36.404076923077  20.4122577380953 36.6853384615385  C 20.8080128968253 36.9664871794872  21.2089235119047 37.2239999999999  21.6149895833333 37.4578769230769  C 22.0209899801588 37.6917538461538  22.4312263888889 37.9014307692307  22.8456988095238 38.0869076923077  C 23.2601055555556 38.2723846153846  23.6777303571429 38.4332666666667  24.0985732142858 38.5695538461539  C 24.5194817460318 38.7057282051283  24.9425903769841 38.8169692307692  25.3678991071429 38.903276923077  C 25.7932078373016 38.9895846153846  26.2197315476191 39.0507333333333  26.6474702380953 39.0867230769231  C 27.0752089285714 39.1226  27.5031774801587 39.1333179487179  27.9313758928572 39.118876923077  C 28.3595743055556 39.1043230769232  28.7869517857143 39.0645538461538  29.2135083333333 38.9995692307692  C 29.6401305555556 38.9346974358974  30.0649138888889 38.8447230769231  30.4878583333333 38.7296461538461  C 30.9108684523809 38.6145692307692  31.3310874007936 38.4747282051281  31.7485151785714 38.310123076923  C 32.165877281746 38.1454051282051  32.5794959325397 37.9563743589744  32.9893711309524 37.7430307692308  L 39.3059544642857 34.4533538461538  C 40.0666633928572 34.057241025641  40.8116104166667 33.5873435897436  41.5407955357143 33.0436615384616  C 42.2699149801588 32.4999794871795  42.9784782738095 31.886123076923  43.6664854166667 31.2020923076922  C 44.3544268849207 30.5181743589743  45.0172478174604 29.7685948717949  45.6549482142858 28.9533538461538  C 46.292582936508 28.1381128205129  46.9008611111111 27.2626256410257  47.4797827380953 26.3268923076922  L 54.9057086309524 14.3245384615384  C 55.0829643849206 14.0380871794872  55.2642591269841 13.7594374358974  55.4495928571429 13.4885892307692  C 55.6349922619048 13.2177184615384  55.8242007936508 12.9549820512821  56.017218452381 12.7003800000001  C 56.2102361111112 12.4457892307693  56.4068330357143 12.1996543589744  56.6070092261905 11.9619753846154  C 56.8071854166667 11.7242851282052  57.0107110119047 11.4953553846154  57.2175860119048 11.2751861538461  C 57.4244610119048 11.055016923077  57.634422718254 10.843878974359  57.8474711309524 10.6417723076923  C 58.0605195436508 10.4396656410257  58.2763591269841 10.2468441025641  58.4949898809523 10.0633076923077  C 58.7136863095238 9.87977128205137  58.9348783730159 9.70575128205121  59.1585660714286 9.54124769230759  C 59.3823194444444 9.37674410256409  59.6083057539682 9.22195999999997  59.8365250000001 9.07689538461545  C 60.0647442460318 8.93183076923071  60.2949337301587 8.79666615384622  60.527093452381 8.67140153846151  C 60.7593188492064 8.54614820512825  60.9931861111112 8.43095282051274  61.2286952380953 8.32581538461534  C 61.4642700396826 8.22066666666672  61.701191170635 8.12571692307699  61.9394586309523 8.04096615384617  C 62.1777917658731 7.95620410256413  62.4171756944445 7.88174256410264  62.6576104166667 7.81758153846158  C 62.8981108134922 7.75342051282053  63.139366468254 7.699638974359  63.3813773809524 7.6562369230769  C 63.623453968254 7.61283487179492  63.8659902777779 7.57986307692306  64.1089863095237 7.55732153846156  C 64.3519823412698 7.53477999999995  64.5951753968254 7.52270256410259  64.8385654761905 7.52108923076923  C 65.0818898809524 7.51947589743588  65.3251157738096 7.52832102564105  65.5682431547619 7.54762461538462  C 65.8113048611111 7.56693948717952  66.0539725198413 7.59669025641017  66.2962461309525 7.63687692307701  C 66.5384540674604 7.67706358974362  66.7799395833333 7.72763538461538  67.0207026785714 7.78859230769228  C 67.2614657738095 7.8495605128204  67.5011780753969 7.92083487179491  67.7398395833333 8.00241538461535  C 67.9785010912699 8.08400717948712  68.2158491071428 8.17580358974362  68.4518836309524 8.27780461538453  C 68.6878524801587 8.37981692307687  68.9222123015874 8.49190410256415  69.1549630952381 8.61406615384612  C 69.3877138888889 8.73623948717943  69.618527281746 8.86834102564103  69.8474032738095 9.01037076923092  C 70.076279265873 9.15240051282046  70.3029551587301 9.30417794871801  70.527430952381 9.46570307692309  C 70.7518410714287 9.62722820512818  70.9737883928572 9.79830358974357  71.1932729166667 9.97892923076927  C 71.4127574404763 10.159554871795  71.6294507936508 10.3495051282051  71.8433529761904 10.54878  C 72.0573208333334 10.7480435897436  72.2682348214286 10.9563835897436  72.4760949404762 11.1738  C 72.6839550595238 11.3912164102563  72.8885314484128 11.6174271794872  73.0898241071428 11.8524323076923  C 73.2910510912699 12.0874487179486  73.488764484127 12.3309661538461  73.6829642857143 12.5829846153846  C 73.8770984126984 12.8350143589743  74.0674562500001 13.0952292307692  74.254037797619 13.3636292307692  C 74.4406193452381 13.6320405128205  74.623161904762 13.908287179487  74.8016654761905 14.1923692307691  C 74.9802347222222 14.4764512820512  75.1545351190476 14.7680358974359  75.3245666666667 15.0671230769231  C 75.4945982142858 15.3663230769231  75.6601638888889 15.6725743589744  75.8212636904763 15.9858769230769  L 83.52164375 30.9636461538461  C 83.9470838293651 31.7911846153846  84.3939995039683 32.5829589743589  84.8623907738096 33.3389692307692  C 85.3307820436508 34.0948666666667  85.8186458333333 34.8117846153847  86.3259821428571 35.4897230769232  C 86.8332527777778 36.1675487179488  87.3577958333333 36.8034051282052  87.8996113095238 37.3972923076923  C 88.4414267857143 37.9910666666667  88.9981175595238 38.5403333333334  89.5696836309525 39.0450923076922  C 90.1413153769842 39.5498512820512  90.7253596230159 40.0078461538462  91.3218163690476 40.4190769230769  C 91.9182731150794 40.8303076923077  92.5245482142857 41.1929692307692  93.1406416666666 41.5070615384616  C 93.7567351190477 41.8212666666666  94.3800199404762 42.0855487179488  95.0104961309523 42.2999076923078  C 95.6409723214285 42.5141538461538  96.2758815476191 42.6776307692307  96.9152238095238 42.7903384615385  L 103.021779761905 43.8668153846153  C 103.601029761905 43.9688051282051  104.181593253968 44.0287692307692  104.763470238095 44.0467076923077  C 105.345347222222 44.0646461538462  105.926567460318 44.0404461538461  106.507130952381 43.9741076923077  C 107.087694444445 43.9077692307692  107.665630952381 43.7995179487179  108.240940476191 43.6493538461539  C 108.81625 43.4991897435898  109.386633928571 43.3076769230769  109.952092261905 43.0748153846154  C 110.51820734127 42.8419538461538  111.077426587302 42.5685333333333  111.62975 42.2545538461537  C 112.182073412698 41.9406871794872  112.725859126984 41.5873333333334  113.261107142857 41.1944923076923  C 113.79635515873 40.8017641025641  114.321095238095 40.3710153846154  114.835327380952 39.9022461538461  C 115.348902777778 39.4333641025642  115.850328373016 38.9282102564102  116.339604166667 38.3867846153846  L 121.198211309524 33.0076153846154  C 121.395235119048 32.7893076923077  121.594885912698 32.5777692307693  121.797163690476 32.373  C 121.999441468254 32.1683435897436  122.203689484127 31.9705128205128  122.409907738095 31.7795076923077  C 122.616782738095 31.5886153846154  122.825627976191 31.4048307692309  123.036443452381 31.2281538461538  C 123.24660218254 31.0513641025641  123.45905952381 30.8817948717948  123.67381547619 30.7194461538461  C 123.888571428571 30.5570974358974  124.105297619048 30.402082051282  124.323994047619 30.2544000000001  C 124.542033730159 30.106717948718  124.761715277778 29.966482051282  124.983038690476 29.8336923076923  C 125.204362103175 29.7010153846154  125.427327380952 29.575841025641  125.65193452381 29.4581692307693  C 125.875884920635 29.3404974358974  126.10147718254 29.2304410256411  126.328711309524 29.128  C 126.555288690476 29.0256717948718  126.783179563492 28.9310153846153  127.012383928571 28.8440307692307  C 127.241588293651 28.7570461538461  127.471449404762 28.6779025641025  127.701967261905 28.6066000000001  C 127.933141865079 28.5351846153845  128.16464484127 28.4716666666667  128.396476190476 28.4160461538462  C 128.628964285714 28.3604256410257  128.861780753968 28.3126461538462  129.094925595238 28.2727076923077  C 129.32872718254 28.232882051282  129.562528769841 28.2009538461539  129.796330357143 28.1769230769231  C 130.030788690476 28.1527794871795  130.26524702381 28.1366461538461  130.499705357143 28.1285230769231  C 130.734163690476 28.1204  130.96862202381 28.1201743589744  131.203080357143 28.1278461538461  C 131.437538690476 28.1356307692308  131.671997023809 28.1513128205128  131.906455357143 28.1748923076923  C 132.140256944444 28.1984717948718  132.374058531746 28.2300051282051  132.607860119048 28.2694923076923  C 132.841004960317 28.3089794871795  133.073821428571 28.3563076923076  133.306309523809 28.4114769230769  C 133.538140873016 28.466758974359  133.769643849206 28.5298256410257  134.000818452381 28.600676923077  C 134.231993055556 28.6716410256409  134.461854166667 28.7503897435898  134.690401785714 28.8369230769231  C 134.919606150794 28.9234564102564  135.147825396825 29.017717948718  135.37505952381 29.1197076923078  C 135.601636904762 29.2215846153846  135.827229166667 29.3311897435898  136.051836309524 29.4485230769232  C 136.276443452381 29.5657435897436  136.499408730159 29.6905230769231  136.720732142857 29.8228615384616  C 136.942055555556 29.9552  137.16206547619 30.0950410256411  137.380761904762 30.2423846153846  C 137.598801587302 30.3896153846154  137.815199404762 30.5441794871795  138.029955357143 30.7060769230769  C 138.244711309524 30.8680871794871  138.45749702381 31.0372615384615  138.6683125 31.2135999999999  C 138.87912797619 31.3899384615385  139.087973214286 31.5733846153846  139.294848214286 31.7639384615385  C 139.501723214286 31.9544923076924  139.705971230159 32.1519282051282  139.907592261905 32.3562461538462  C 140.109870039683 32.560676923077  140.309849206349 32.7718205128205  140.507529761905 32.9896769230769  C 140.704553571429 33.2075333333333  140.899278769841 33.432046153846  141.091705357143 33.6632153846155  C 141.283475198413 33.8942717948718  141.472618055556 34.1317589743589  141.659133928571 34.3756769230769  C 141.846306547619 34.6195948717949  142.030195436508 34.8697743589744  142.210800595238 35.1262153846154  L 146.084288690476 40.6145384615385  C 146.410691468254 41.077441025641  146.745303571429 41.5226307692307  147.088125 41.9501076923076  C 147.43028968254 42.3776974358974  147.780006944444 42.786841025641  148.137276785714 43.1775384615385  C 148.494546626984 43.568123076923  148.858383928571 43.9395282051282  149.228788690476 44.2917538461538  C 149.599193452381 44.6440923076923  149.975508928571 44.976517948718  150.357735119048 45.2890307692309  C 150.740618055556 45.6016564102564  151.128426587302 45.8938051282051  151.521160714286 46.1654769230769  C 151.91389484127 46.4371487179487  152.31089781746 46.6878358974359  152.712169642857 46.9175384615385  C 153.114098214286 47.1473538461538  153.519638888889 47.3557897435898  153.928791666667 47.5428461538462  C 154.337944444444 47.7297897435897  154.750052579365 47.8950717948718  155.165116071429 48.0386923076923  C 155.580179563492 48.1822  155.997541666667 48.3037076923077  156.417202380952 48.4032153846155  C 156.836863095238 48.5027230769231  157.257508928571 48.5800615384616  157.679139880952 48.6352307692308  C 158.101427579365 48.6902871794872  158.52437202381 48.7231179487179  158.947973214286 48.7337230769231  C 159.37091765873 48.7442153846154  159.79419047619 48.7324256410255  160.217791666667 48.6983538461537  C 160.640736111111 48.664282051282  161.062367063492 48.6079282051282  161.48268452381 48.5292923076923  C 161.903658730159 48.4506564102563  162.322991071429 48.3499076923077  162.740681547619 48.2270461538461  C 163.157715277778 48.1042974358975  163.572450396825 47.9596051282051  163.984886904762 47.7929692307692  C 164.396666666667 47.6264461538461  164.805491071429 47.438317948718  165.211360119048 47.2285846153846  L 171.610693452381 43.9189384615385  C 172.415864087302 43.5025179487179  173.203302579365 43.0036256410257  173.973008928571 42.4222615384615  C 174.742715277778 41.8407846153847  175.489107142857 41.1811794871795  176.21218452381 40.4434461538461  C 176.93460515873 39.7057128205129  177.628785714286 38.8952666666667  178.294726190476 38.0121076923077  C 178.960009920635 37.1288358974359  179.591471230159 36.1794512820512  180.189110119048 35.1639538461538  L 189.74575 18.9359076923076  C 189.901398809524 18.671794871795  190.06000297619 18.4132102564103  190.2215625 18.1601538461538  C 190.383122023809 17.9070974358974  190.547636904762 17.6597384615384  190.715107142857 17.4180769230769  C 190.882577380952 17.1763025641026  191.052674603175 16.9405076923077  191.225398809524 16.7106923076923  C 191.398123015873 16.4807641025641  191.573474206349 16.2568717948718  191.751452380952 16.0390153846154  C 191.930087301587 15.8212717948718  192.110692460318 15.6097897435898  192.293267857143 15.4045692307693  C 192.4765 15.1992358974359  192.662030753968 15.0003333333333  192.849860119048 14.8078615384615  C 193.037689484127 14.6155025641026  193.227489087302 14.4296307692307  193.419258928571 14.2502461538461  C 193.611685515873 14.0709743589742  193.80608234127 13.8984153846153  194.002449404762 13.7325692307692  C 194.198159722222 13.5667343589744  194.396168650794 13.4077420512821  194.596476190476 13.2555923076924  C 194.796126984127 13.1034312820512  194.997748015873 12.9582538461539  195.201339285714 12.82006  C 195.404273809524 12.6818548717949  195.608850198413 12.5507405128204  195.815068452381 12.4267169230769  C 196.021943452381 12.3026933333333  196.229803571429 12.185862051282  196.438648809524 12.076223076923  C 196.648150793651 11.9665728205127  196.858637896825 11.8642051282052  197.070110119048 11.7691199999999  C 197.28158234127 11.6740348717949  197.49403968254 11.5863000000001  197.707482142857 11.5059153846154  C 197.920924603175 11.4255420512822  198.13535218254 11.3525866666668  198.350764880952 11.2870492307692  C 198.566177579365 11.2215117948718  198.78224702381 11.1634430769232  198.998973214286 11.1128430769231  C 199.21504265873 11.0622543589744  199.432097222222 11.0191794871794  199.650136904762 10.9836184615384  C 199.86751984127 10.9480574358975  200.08555952381 10.9200384615384  200.304255952381 10.8995615384616  C 200.522295634921 10.8790846153846  200.740663690476 10.8661666666666  200.959360119048 10.8608076923077  C 201.178056547619 10.8554487179487  201.396752976191 10.85766  201.615449404762 10.8674415384615  C 201.834145833333 10.8772117948718  202.052513888889 10.894541025641  202.270553571429 10.9194292307692  C 202.488593253968 10.9443061538462  202.706304563492 10.9767251282051  202.9236875 11.0166861538461  C 203.141070436508 11.0566471794872  203.357796626984 11.1041107692307  203.573866071429 11.1590769230769  C 203.790592261905 11.2140430769231  204.006333333333 11.2764666666667  204.221089285714 11.3463476923076  C 204.435845238095 11.4162287179487  204.649616071429 11.4935164102563  204.862401785714 11.5782107692307  C 205.075844246032 11.6628938461539  205.287973214286 11.7549158974358  205.498788690476 11.854276923077  C 205.709604166667 11.9536266666668  205.919106150794 12.0602307692308  206.127294642857 12.1740892307693  C 206.335483134921 12.287958974359  206.542358134921 12.4089871794872  206.747919642857 12.5371738461539  C 206.953481150794 12.6653492307692  207.157400793651 12.8005871794873  207.359678571429 12.9428876923076  C 207.561956349206 13.0851882051282  207.762592261905 13.2344271794872  207.961586309524 13.3906046153846  C 208.160580357143 13.5468271794872  208.357604166667 13.7098358974359  208.552657738095 13.8796307692309  C 208.747711309524 14.0494256410257  208.940466269841 14.225876923077  209.130922619048 14.4089846153846  L 217.325142857143 22.2717846153846  C 218.985396825397 23.8648102564104  220.740222222222 25.0422051282052  222.589619047619 25.8039692307692  L 240.57099702381 33.2117076923076  C 241.709137896825 33.6805897435898  242.816083333333 34.3108615384616  243.891833333333 35.102523076923  L 255.149773809524 43.3863692307692  C 255.537910714286 43.6720307692308  255.930973214286 43.9370461538462  256.328961309524 44.1814153846153  C 256.72629265873 44.4257846153846  257.127892857143 44.649  257.533761904762 44.8510615384615  C 257.939630952381 45.053123076923  258.348455357143 45.2336923076923  258.760235119048 45.3927692307692  C 259.172671626984 45.5517333333333  259.587078373016 45.6889230769231  260.003455357143 45.8043384615385  C 260.420489087302 45.9198666666666  260.83916468254 46.0132820512821  261.259482142857 46.0845846153846  C 261.679799603175 46.1560000000001  262.10110218254 46.2052461538461  262.523389880952 46.2323230769231  C 262.945677579365 46.2594  263.367965277778 46.2642512820513  263.79025297619 46.2468769230769  C 264.212540674603 46.2295025641025  264.633843253968 46.189958974359  265.054160714286 46.1282461538462  C 265.475134920635 46.0665333333333  265.894467261905 45.9827641025641  266.312157738095 45.8769384615385  C 266.730504960318 45.7711128205128  267.146225198413 45.6433999999999  267.559318452381 45.4938000000001  C 267.972411706349 45.3442  268.382549603175 45.1730512820513  268.789732142857 44.9803538461538  C 269.19691468254 44.7876564102565  269.600485119048 44.5736923076923  270.000443452381 44.3384615384615  C 270.399745039683 44.1033435897435  270.794449404762 43.8474102564102  271.184556547619 43.5706615384615  C 271.575320436508 43.2939128205128  271.960501984127 42.9969128205129  272.340101190476 42.6796615384616  C 272.720357142857 42.3624102564103  273.094374007936 42.0254717948718  273.462151785714 41.6688461538462  C 273.829929563492 41.3122205128205  274.191139880953 40.9365846153846  274.545782738095 40.5419384615384  L 283.895547619048 30.1323846153846  C 284.988373015873 28.9156153846153  286.138006944444 27.885282051282  287.344449404762 27.0413846153846  C 288.550891865079 26.1976000000001  289.792470238095 25.5552564102564  291.06918452381 25.1143538461538  L 306.478416666667 19.7933999999999  C 308.238496031746 19.185635897436  309.924034722222 18.2009384615385  311.535032738095 16.8393076923077  L 331 0.386252307692416  L 331 110  L 0 110  Z " fill-rule="nonzero" fill="url(#LinearGradient746)" stroke="none" transform="matrix(1 0 0 1 466 913 )" />
  </g>
</svg>