<?xml version="1.0" encoding="utf-8"?>
<svg version="1.1" xmlns:xlink="http://www.w3.org/1999/xlink" width="262px" height="30px" xmlns="http://www.w3.org/2000/svg">
  <defs>
    <linearGradient gradientUnits="userSpaceOnUse" x1="131" y1="0" x2="131" y2="30" id="LinearGradient750">
      <stop id="Stop751" stop-color="#ffb822" stop-opacity="0.466666666666667" offset="0" />
      <stop id="Stop752" stop-color="#ffb822" stop-opacity="0.466666666666667" offset="0.12" />
      <stop id="Stop753" stop-color="#ffb822" stop-opacity="0" offset="0.79" />
      <stop id="Stop754" stop-color="#ffb822" stop-opacity="0" offset="1" />
    </linearGradient>
  </defs>
  <g transform="matrix(1 0 0 1 -1612 -405 )">
    <path d="M 0 30  L 0 1.97564516129029  L 11.1565460526317 15.0024193548387  C 15.0123705103592 19.5040499221751  20.7915566984741 21.195645409015  26.1138157894736 19.3804838709677  L 30.722947368421 17.8088709677419  C 33.3953628900354 16.8974852852066  35.8436734997676 15.3039722064646  37.8762368421053 13.1530645161291  L 43.4592500000001 7.24983870967742  C 45.5985455443879 4.9861238585226  48.4270730570754 3.72540298840914  51.3666017704272 3.72540298840914  C 54.6758925469912 3.72540298840914  57.8256412764638 5.32209596127126  60.014375 8.10919354838705  L 65.6637499999999 15.3033870967741  C 68.6734403388784 19.1356840024961  72.858305613026 21.5543308793663  77.3848026315789 22.0775806451613  L 80.9312828947368 22.4869354838709  C 85.0248743849413 22.9595149922216  89.1396737473544 21.8515177311381  92.5971776315789 19.3456451612903  L 95.9290592105262 16.9262903225807  C 101.093779736689 13.1818814120932  107.823542184241 13.62549433433  112.562611842105 18.0227419354839  L 115.400657894737 20.6559677419355  C 119.764305290686 24.7036324703653  125.641741904438 26.0322763188059  131.060328947368 24.1959677419355  L 135.423835526316 22.7182258064516  C 138.253846350348 21.7598571860291  140.831740289336 20.0377497552734  142.932203947368 17.7024193548388  L 150.194085526316 9.62854838709677  C 154.271284560018 5.09601920632184  160.527700000686 4.1405158443161  165.534875 7.28564516129035  L 171.810809210526 11.2282258064516  C 173.256741760814 12.1394775377427  174.807336031091 12.8232933494278  176.419078947368 13.2604838709677  L 190.274052631579 16.996935483871  C 191.269171925391 17.2652332091156  192.242231937758 17.6278231273194  193.182769736842 18.0808064516129  L 201.100513157895 21.8956451612904  C 206.651325333763 24.5699763869464  213.024422079905 23.9586829973918  218.090868421053 20.2659677419355  L 224.433164473684 15.643064516129  C 226.346922095372 14.2479676935909  228.478351989784 13.2717877851522  230.715131578947 12.7659677419355  L 242.363789473684 10.1327419354839  C 243.899163074057 9.78578096661357  245.387935564174 9.21650923390126  246.792796052632 8.4391935483871  L 262 0.0208064516128843  L 262 30  L 0 30  Z " fill-rule="nonzero" fill="url(#LinearGradient750)" stroke="none" transform="matrix(1 0 0 1 1612 405 )" />
  </g>
</svg>