<?xml version="1.0" encoding="utf-8"?>
<svg version="1.1" xmlns:xlink="http://www.w3.org/1999/xlink" width="264px" height="27px" xmlns="http://www.w3.org/2000/svg">
  <g transform="matrix(1 0 0 1 -1611.5 -404.5 )">
    <path d="M 0.0650585435869289 2.01658797794767  L 11.2360762903766 14.9767247112563  C 15.0775749924071 19.4310774720701  20.855461852532 21.1047067714938  26.1712318962689 19.30285892236  L 30.7435191413838 17.7541028747848  C 33.4394388481528 16.8407906603401  35.9072881443728 15.2459997024467  37.952697247943 13.0953370110052  L 43.5134933986972 7.24832628390908  C 45.6478756623508 5.00410658992223  48.4774052716807 3.75309883772536  51.4189996059558 3.75309883772536  C 54.7290951986743 3.75309883772536  57.8783397338855 5.33602251404881  60.0597450981645 8.09624858928544  L 65.6821062772517 15.2103359586559  C 68.7104588727777 19.0421260705697  72.9335220585124 21.4628403952972  77.5043259434578 21.9869848595603  L 80.9034091979338 22.3763369385596  C 85.0436505138546 22.8510584027553  89.2056245810843 21.7388628592652  92.6961470195852 19.2249885065601  L 95.9729673304689 16.8648419536136  C 101.129728385613 13.151022786712  107.866355245815 13.5905278418804  112.594657867472 17.9492595958635  L 115.456131015373 20.5833946488466  C 119.804936370766 24.5921764846164  125.679621239679 25.9098482673563  131.091913985963 24.0904474493147  L 135.416206891593 22.6359049912259  C 138.270350076024 21.6755808745793  140.868025754939 19.9526481969575  142.980901358953 17.6185506695036  L 150.232568006194 9.60751147369763  C 154.29740332415 5.1172197168766  160.559573416975 4.1713984188022  165.55965872204 7.29254898917816  L 171.813278219816 11.1966447739097  C 173.273429182168 12.1080251086117  174.840055891406 12.7915956830395  176.468808320143 13.2280051268124  L 190.277584041452 16.9292532852011  C 191.283534564643 17.198738040984  192.266932856253 17.5628105761721  193.217097366114 18.0175163800832  L 201.014178137606 21.7504895226866  C 206.624384830833 24.4355048733958  213.075282064309 23.8217171006489  218.190821042686 20.1161721540475  L 224.418427148208 15.6054562166034  C 226.348966039531 14.2075151756741  228.501417001913 13.2288098982692  230.761359292722 12.7213667425343  L 242.345122863269 10.1189566737659  C 243.897200904384 9.77023398824144  245.401617225992 9.19852667176764  246.820293443971 8.41830524722315  L 261.994772258596 0.0717503092670881  " stroke-width="1.98040810552746" stroke="#ffb822" fill="none" transform="matrix(1 0 0 1 1612 405 )" />
  </g>
</svg>