<?xml version="1.0" encoding="utf-8"?>
<svg version="1.1" xmlns:xlink="http://www.w3.org/1999/xlink" width="15px" height="15px" xmlns="http://www.w3.org/2000/svg">
  <g transform="matrix(1 0 0 1 -1006 -129 )">
    <path d="M 1013.5 129.99999786325  C 1017.14000119658 129.99999786325  1020.00000213675 132.85999880342  1020.00000213675 136.5  C 1020.00000213675 140.14000119658  1017.14000119658 143.00000213675  1013.5 143.00000213675  C 1009.85999880342 143.00000213675  1006.99999786325 140.14000119658  1006.99999786325 136.5  C 1006.99999786325 132.85999880342  1009.85999880342 129.99999786325  1013.5 129.99999786325  Z " fill-rule="nonzero" fill="#0c3970" stroke="none" />
    <path d="M 1013.5 129.999998931625  C 1017.14000059829 129.999998931625  1020.00000106837 132.85999940171  1020.00000106837 136.5  C 1020.00000106837 140.14000059829  1017.14000059829 143.000001068375  1013.5 143.000001068375  C 1009.85999940171 143.000001068375  1006.99999893163 140.14000059829  1006.99999893163 136.5  C 1006.99999893163 132.85999940171  1009.85999940171 129.999998931625  1013.5 129.999998931625  Z " stroke-width="1.99999786325015" stroke="#79ceff" fill="none" />
  </g>
</svg>