<?xml version="1.0" encoding="utf-8"?>
<svg version="1.1" xmlns:xlink="http://www.w3.org/1999/xlink" width="470px" height="470px" xmlns="http://www.w3.org/2000/svg">
  <g transform="matrix(1 0 0 1 -714 -328 )">
    <path d="M 949 329.8999974359  C 1079.5360014359 329.8999974359  1182.1000025641 432.463998564104  1182.1000025641 563  C 1182.1000025641 693.536001435896  1079.5360014359 796.1000025641  949 796.1000025641  C 818.463998564104 796.1000025641  715.8999974359 693.536001435896  715.8999974359 563  C 715.8999974359 432.463998564104  818.463998564104 329.8999974359  949 329.8999974359  Z " fill-rule="nonzero" fill="#ffffff" stroke="none" fill-opacity="0" />
    <path d="M 949 329.19999871795  C 1079.92800071795 329.19999871795  1182.80000128205 432.071999282052  1182.80000128205 563  C 1182.80000128205 693.928000717948  1079.92800071795 796.80000128205  949 796.80000128205  C 818.071999282052 796.80000128205  715.19999871795 693.928000717948  715.19999871795 563  C 715.19999871795 432.071999282052  818.071999282052 329.19999871795  949 329.19999871795  Z " stroke-width="2.39999743590018" stroke="#ffffff" fill="none" stroke-opacity="0.298039215686275" />
  </g>
</svg>