<?xml version="1.0" encoding="utf-8"?>
<svg version="1.1" xmlns:xlink="http://www.w3.org/1999/xlink" width="70px" height="70px" xmlns="http://www.w3.org/2000/svg">
  <defs>
    <filter x="975px" y="302px" width="70px" height="70px" filterUnits="userSpaceOnUse" id="filter1335">
      <feOffset dx="0" dy="0" in="SourceAlpha" result="shadowOffsetInner" />
      <feGaussianBlur stdDeviation="10" in="shadowOffsetInner" result="shadowGaussian" />
      <feComposite in2="shadowGaussian" operator="atop" in="SourceAlpha" result="shadowComposite" />
      <feColorMatrix type="matrix" values="0 0 0 0 0.0313725490196078  0 0 0 0 0.733333333333333  0 0 0 0 0.411764705882353  0 0 0 1 0  " in="shadowComposite" />
    </filter>
    <g id="widget1336">
      <path d="M 1010 322.99999786325  C 1017.84000119658 322.99999786325  1024.00000213675 329.15999880342  1024.00000213675 337  C 1024.00000213675 344.84000119658  1017.84000119658 351.00000213675  1010 351.00000213675  C 1002.15999880342 351.00000213675  995.99999786325 344.84000119658  995.99999786325 337  C 995.99999786325 329.15999880342  1002.15999880342 322.99999786325  1010 322.99999786325  Z " fill-rule="nonzero" fill="#08bb69" stroke="none" />
      <path d="M 1010 322.999998931625  C 1017.84000059829 322.999998931625  1024.00000106838 329.15999940171  1024.00000106838 337  C 1024.00000106838 344.84000059829  1017.84000059829 351.000001068375  1010 351.000001068375  C 1002.15999940171 351.000001068375  995.999998931625 344.84000059829  995.999998931625 337  C 995.999998931625 329.15999940171  1002.15999940171 322.999998931625  1010 322.999998931625  Z " stroke-width="1.99999786325015" stroke="#44f6a5" fill="none" />
    </g>
  </defs>
  <g transform="matrix(1 0 0 1 -975 -302 )">
    <use xlink:href="#widget1336" filter="url(#filter1335)" />
    <use xlink:href="#widget1336" />
  </g>
</svg>