<?xml version="1.0" encoding="utf-8"?>
<svg version="1.1" xmlns:xlink="http://www.w3.org/1999/xlink" width="303px" height="46px" xmlns="http://www.w3.org/2000/svg">
  <g transform="matrix(1 0 0 1 -22 -648 )">
    <path d="M 246.311421772754 45.2517350783263  C 244.928793383578 45.2517350783263  243.807951616102 44.1308933108494  243.807951616102 42.7482649216736  C 243.807951616102 41.3656365324978  244.928793383578 40.2447947650207  246.311421772754 40.2447947650207  C 247.69405016193 40.2447947650207  248.814891929407 41.3656365324978  248.814891929407 42.7482649216736  C 248.814891929407 44.1308933108494  247.69405016193 45.2517350783263  246.311421772754 45.2517350783263  Z M 192.136327582788 40.2447947650207  C 190.753699193612 40.2447947650207  189.632857426135 39.1239529975438  189.632857426135 37.741324608368  C 189.632857426135 36.3586962191922  190.753699193612 35.2378544517152  192.136327582788 35.2378544517152  C 193.518955971964 35.2378544517152  194.639797739441 36.3586962191922  194.639797739441 37.741324608368  C 194.639797739441 39.1239529975438  193.518955971964 40.2447947650207  192.136327582788 40.2447947650207  Z M 219.223874677771 35.2378544517152  C 217.841246288595 35.2378544517152  216.720404521118 34.1170126842381  216.720404521118 32.7343842950623  C 216.720404521118 31.3517559058867  217.841246288595 30.2309141384096  219.223874677771 30.2309141384096  C 220.606503066947 30.2309141384096  221.727344834424 31.3517559058867  221.727344834424 32.7343842950623  C 221.727344834424 34.1170126842381  220.606503066947 35.2378544517152  219.223874677771 35.2378544517152  Z M 56.6885782272457 35.2378544517152  C 55.3059498380699 35.2378544517152  54.1851080705929 34.1170126842381  54.1851080705929 32.7343842950623  C 54.1851080705929 31.3517559058867  55.3059498380699 30.2309141384096  56.6885782272457 30.2309141384096  C 58.0712066164215 30.2309141384096  59.1920483838985 31.3517559058867  59.1920483838985 32.7343842950623  C 59.1920483838985 34.1170126842381  58.0712066164215 35.2378544517152  56.6885782272457 35.2378544517152  Z M 273.408982748364 25.2239738251041  C 272.026354359188 25.2239738251041  270.905512591711 24.103132057627  270.905512591711 22.7205036684512  C 270.905512591711 21.3378752792754  272.026354359188 20.2170335117985  273.408982748364 20.2170335117985  C 274.79161113754 20.2170335117985  275.912452905017 21.3378752792754  275.912452905017 22.7205036684512  C 275.912452905017 24.103132057627  274.79161113754 25.2239738251041  273.408982748364 25.2239738251041  Z M 165.038766607178 25.2239738251041  C 163.656138218002 25.2239738251041  162.535296450525 24.103132057627  162.535296450525 22.7205036684512  C 162.535296450525 21.3378752792754  163.656138218002 20.2170335117985  165.038766607178 20.2170335117985  C 166.421394996354 20.2170335117985  167.542236763831 21.3378752792754  167.542236763831 22.7205036684512  C 167.542236763831 24.103132057627  166.421394996354 25.2239738251041  165.038766607178 25.2239738251041  Z M 29.6010311322625 25.2239738251041  C 28.2184027430867 25.2239738251041  27.0975609756097 24.103132057627  27.0975609756097 22.7205036684512  C 27.0975609756097 21.3378752792754  28.2184027430867 20.2170335117985  29.6010311322625 20.2170335117985  C 30.9836595214384 20.2170335117985  32.1045012889153 21.3378752792754  32.1045012889153 22.7205036684512  C 32.1045012889153 24.103132057627  30.9836595214384 25.2239738251041  29.6010311322625 25.2239738251041  Z M 2.50347015665279 20.2170335117985  C 1.12084176747694 20.2170335117985  0 19.0961917443215  0 17.7135633551457  C 0 16.3309349659698  1.12084176747694 15.2100931984929  2.50347015665279 15.2100931984929  C 3.88609854582862 15.2100931984929  5.00694031330557 16.3309349659698  5.00694031330557 17.7135633551457  C 5.00694031330557 19.0961917443215  3.88609854582862 20.2170335117985  2.50347015665279 20.2170335117985  Z M 110.873686297839 10.2031528851874  C 109.491057908663 10.2031528851874  108.370216141186 9.08231111771033  108.370216141186 7.69968272853453  C 108.370216141186 6.31705433935872  109.491057908663 5.1962125718818  110.873686297839 5.1962125718818  C 112.256314687014 5.1962125718818  113.377156454491 6.31705433935872  113.377156454491 7.69968272853453  C 113.377156454491 9.08231111771033  112.256314687014 10.2031528851874  110.873686297839 10.2031528851874  Z M 300.496529843347 5.1962125718818  C 299.113901454171 5.1962125718818  297.993059686694 4.07537080440477  297.993059686694 2.69274241522896  C 297.993059686694 1.31011402605316  299.113901454171 0.189272258576125  300.496529843347 0.189272258576125  C 301.879158232523 0.189272258576125  303 1.31011402605316  303 2.69274241522896  C 303 4.07537080440477  301.879158232523 5.1962125718818  300.496529843347 5.1962125718818  Z M 137.951219512195 5.1962125718818  C 136.568591123019 5.1962125718818  135.447749355542 4.07537080440477  135.447749355542 2.69274241522896  C 135.447749355542 1.31011402605316  136.568591123019 0.189272258576125  137.951219512195 0.189272258576125  C 139.333847901371 0.189272258576125  140.454689668848 1.31011402605316  140.454689668848 2.69274241522896  C 140.454689668848 4.07537080440477  139.333847901371 5.1962125718818  137.951219512195 5.1962125718818  Z M 83.7661114416022 5.1962125718818  C 82.3834830524264 5.1962125718818  81.2626412849494 4.07537080440477  81.2626412849494 2.69274241522896  C 81.2626412849494 1.31011402605316  82.3834830524264 0.189272258576125  83.7661114416022 0.189272258576125  C 85.1487398307781 0.189272258576125  86.269581598255 1.31011402605316  86.269581598255 2.69274241522896  C 86.269581598255 4.07537080440477  85.1487398307781 5.1962125718818  83.7661114416022 5.1962125718818  Z " fill-rule="nonzero" fill="#018de3" stroke="none" transform="matrix(1 0 0 1 22 648 )" />
  </g>
</svg>