<?xml version="1.0" encoding="utf-8"?>
<svg version="1.1" xmlns:xlink="http://www.w3.org/1999/xlink" width="18px" height="18px" preserveAspectRatio="xMinYMid meet" viewBox="611 709  18 16" xmlns="http://www.w3.org/2000/svg">
  <path d="M 621 720.5  L 635 720.5  A 5 5 0 0 0 640.5 715.5 L 640.5 545  A 5 5 0 0 1 645.5 540.5 L 1475 540.5  A 5 5 0 0 0 1480.5 535.5 L 1480.5 97  A 5 5 0 0 1 1485.5 92.5 L 1509 92.5  " stroke-width="1" stroke="#5e00c3" fill="none" />
  <path d="M 623 717.5  A 3 3 0 0 0 620 720.5 A 3 3 0 0 0 623 723.5 A 3 3 0 0 0 626 720.5 A 3 3 0 0 0 623 717.5 Z " fill-rule="nonzero" fill="#5e00c3" stroke="none" />
</svg>