<?xml version="1.0" encoding="utf-8"?>
<svg version="1.1" xmlns:xlink="http://www.w3.org/1999/xlink" width="312px" height="318px" xmlns="http://www.w3.org/2000/svg">
  <defs>
    <mask fill="white" id="clip1725">
      <path d="M 3.29608477237051 317.017893249608  C 3.29608477237051 317.017893249608  5.42942857142859 293.410891679749  5.42942857142859 293.410891679749  C 5.42942857142859 293.410891679749  25.2174442700157 308.563642072213  25.2174442700157 308.563642072213  C 25.2174442700157 308.563642072213  3.29608477237051 317.017893249608  3.29608477237051 317.017893249608  Z M 6.97084458398746 23.1973594976452  C 6.97084458398746 23.1973594976452  0.576822605965486 0.490769230769231  0.576822605965486 0.490769230769231  C 0.576822605965486 0.490769230769231  23.8482982731554 4.80653375196232  23.8482982731554 4.80653375196232  C 23.8482982731554 4.80653375196232  6.97084458398746 23.1973594976452  6.97084458398746 23.1973594976452  Z M 311.76157299843 0.490769230769231  C 311.76157299843 0.490769230769231  305.367551020408 23.1973594976452  305.367551020408 23.1973594976452  C 305.367551020408 23.1973594976452  288.49009733124 4.80653375196232  288.49009733124 4.80653375196232  C 288.49009733124 4.80653375196232  311.76157299843 0.490769230769231  311.76157299843 0.490769230769231  Z M 306.907965463108 293.410891679749  C 306.907965463108 293.410891679749  309.042310832025 317.017893249608  309.042310832025 317.017893249608  C 309.042310832025 317.017893249608  287.12095133438 308.563642072213  287.12095133438 308.563642072213  C 287.12095133438 308.563642072213  306.907965463108 293.410891679749  306.907965463108 293.410891679749  Z " fill-rule="evenodd" />
    </mask>
  </defs>
  <g transform="matrix(1 0 0 1 -800 -225 )">
    <path d="M 3.29608477237051 317.017893249608  C 3.29608477237051 317.017893249608  5.42942857142859 293.410891679749  5.42942857142859 293.410891679749  C 5.42942857142859 293.410891679749  25.2174442700157 308.563642072213  25.2174442700157 308.563642072213  C 25.2174442700157 308.563642072213  3.29608477237051 317.017893249608  3.29608477237051 317.017893249608  Z M 6.97084458398746 23.1973594976452  C 6.97084458398746 23.1973594976452  0.576822605965486 0.490769230769231  0.576822605965486 0.490769230769231  C 0.576822605965486 0.490769230769231  23.8482982731554 4.80653375196232  23.8482982731554 4.80653375196232  C 23.8482982731554 4.80653375196232  6.97084458398746 23.1973594976452  6.97084458398746 23.1973594976452  Z M 311.76157299843 0.490769230769231  C 311.76157299843 0.490769230769231  305.367551020408 23.1973594976452  305.367551020408 23.1973594976452  C 305.367551020408 23.1973594976452  288.49009733124 4.80653375196232  288.49009733124 4.80653375196232  C 288.49009733124 4.80653375196232  311.76157299843 0.490769230769231  311.76157299843 0.490769230769231  Z M 306.907965463108 293.410891679749  C 306.907965463108 293.410891679749  309.042310832025 317.017893249608  309.042310832025 317.017893249608  C 309.042310832025 317.017893249608  287.12095133438 308.563642072213  287.12095133438 308.563642072213  C 287.12095133438 308.563642072213  306.907965463108 293.410891679749  306.907965463108 293.410891679749  Z " fill-rule="nonzero" fill="#ffffff" stroke="none" fill-opacity="0" transform="matrix(1 0 0 1 800 225 )" />
    <path d="M 3.29608477237051 317.017893249608  C 3.29608477237051 317.017893249608  5.42942857142859 293.410891679749  5.42942857142859 293.410891679749  C 5.42942857142859 293.410891679749  25.2174442700157 308.563642072213  25.2174442700157 308.563642072213  C 25.2174442700157 308.563642072213  3.29608477237051 317.017893249608  3.29608477237051 317.017893249608  Z " stroke-width="6.00941915227629" stroke="#00ffff" fill="none" transform="matrix(1 0 0 1 800 225 )" mask="url(#clip1725)" />
    <path d="M 6.97084458398746 23.1973594976452  C 6.97084458398746 23.1973594976452  0.576822605965486 0.490769230769231  0.576822605965486 0.490769230769231  C 0.576822605965486 0.490769230769231  23.8482982731554 4.80653375196232  23.8482982731554 4.80653375196232  C 23.8482982731554 4.80653375196232  6.97084458398746 23.1973594976452  6.97084458398746 23.1973594976452  Z " stroke-width="6.00941915227629" stroke="#00ffff" fill="none" transform="matrix(1 0 0 1 800 225 )" mask="url(#clip1725)" />
    <path d="M 311.76157299843 0.490769230769231  C 311.76157299843 0.490769230769231  305.367551020408 23.1973594976452  305.367551020408 23.1973594976452  C 305.367551020408 23.1973594976452  288.49009733124 4.80653375196232  288.49009733124 4.80653375196232  C 288.49009733124 4.80653375196232  311.76157299843 0.490769230769231  311.76157299843 0.490769230769231  Z " stroke-width="6.00941915227629" stroke="#00ffff" fill="none" transform="matrix(1 0 0 1 800 225 )" mask="url(#clip1725)" />
    <path d="M 306.907965463108 293.410891679749  C 306.907965463108 293.410891679749  309.042310832025 317.017893249608  309.042310832025 317.017893249608  C 309.042310832025 317.017893249608  287.12095133438 308.563642072213  287.12095133438 308.563642072213  C 287.12095133438 308.563642072213  306.907965463108 293.410891679749  306.907965463108 293.410891679749  Z " stroke-width="6.00941915227629" stroke="#00ffff" fill="none" transform="matrix(1 0 0 1 800 225 )" mask="url(#clip1725)" />
  </g>
</svg>