<?xml version="1.0" encoding="utf-8"?>
<svg version="1.1" xmlns:xlink="http://www.w3.org/1999/xlink" width="130px" height="35px" xmlns="http://www.w3.org/2000/svg">
  <defs>
    <mask fill="white" id="clip2">
      <path d="M 0 30  L 0 5  C 0 2.2  2.60000000000005 0  5.90909090909091 0  L 64.3662714097499 0  L 78.1969696969674 0  L 124.090909090909 0  C 127.4 0  130 2.2  130 5  L 130 30  C 130 32.8  127.4 35  124.090909090909 35  L 5.90909090909091 35  C 2.60000000000005 35  0 32.8  0 30  Z " fill-rule="evenodd" />
    </mask>
  </defs>
  <g transform="matrix(1 0 0 1 -1451 -53 )">
    <path d="M 0 30  L 0 5  C 0 2.2  2.60000000000005 0  5.90909090909091 0  L 64.3662714097499 0  L 78.1969696969674 0  L 124.090909090909 0  C 127.4 0  130 2.2  130 5  L 130 30  C 130 32.8  127.4 35  124.090909090909 35  L 5.90909090909091 35  C 2.60000000000005 35  0 32.8  0 30  Z " fill-rule="nonzero" fill="#f0f7ff" stroke="none" transform="matrix(1 0 0 1 1451 53 )" />
    <path d="M 0 30  L 0 5  C 0 2.2  2.60000000000005 0  5.90909090909091 0  L 64.3662714097499 0  L 78.1969696969674 0  L 124.090909090909 0  C 127.4 0  130 2.2  130 5  L 130 30  C 130 32.8  127.4 35  124.090909090909 35  L 5.90909090909091 35  C 2.60000000000005 35  0 32.8  0 30  Z " stroke-width="2" stroke="#7abbff" fill="none" stroke-opacity="0.996078431372549" transform="matrix(1 0 0 1 1451 53 )" mask="url(#clip2)" />
  </g>
</svg>