<?xml version="1.0" encoding="utf-8"?>
<svg version="1.1" xmlns:xlink="http://www.w3.org/1999/xlink" width="13px" height="13px" xmlns="http://www.w3.org/2000/svg">
  <g transform="matrix(1 0 0 1 -131 -1208 )">
    <path d="M 137.5 1209  C 140.58 1209  143 1211.42  143 1214.5  C 143 1217.58  140.58 1220  137.5 1220  C 134.42 1220  132 1217.58  132 1214.5  C 132 1211.42  134.42 1209  137.5 1209  Z " fill-rule="nonzero" fill="#ffffff" stroke="none" />
    <path d="M 137.5 1209  C 140.58 1209  143 1211.42  143 1214.5  C 143 1217.58  140.58 1220  137.5 1220  C 134.42 1220  132 1217.58  132 1214.5  C 132 1211.42  134.42 1209  137.5 1209  Z " stroke-width="2" stroke="#409eff" fill="none" />
  </g>
</svg>