<?xml version="1.0" encoding="utf-8"?>
<svg version="1.1" xmlns:xlink="http://www.w3.org/1999/xlink" width="30px" height="30px" xmlns="http://www.w3.org/2000/svg">
  <g transform="matrix(1 0 0 1 -219 -1133 )">
    <path d="M 234 1134  C 241.84 1134  248 1140.16  248 1148  C 248 1155.84  241.84 1162  234 1162  C 226.16 1162  220 1155.84  220 1148  C 220 1140.16  226.16 1134  234 1134  Z " fill-rule="nonzero" fill="#409eff" stroke="none" />
    <path d="M 234 1134  C 241.84 1134  248 1140.16  248 1148  C 248 1155.84  241.84 1162  234 1162  C 226.16 1162  220 1155.84  220 1148  C 220 1140.16  226.16 1134  234 1134  Z " stroke-width="2" stroke="#409eff" fill="none" />
  </g>
</svg>