<?xml version="1.0" encoding="utf-8"?>
<svg version="1.1" xmlns:xlink="http://www.w3.org/1999/xlink" width="13px" height="13px" xmlns="http://www.w3.org/2000/svg">
  <g transform="matrix(1 0 0 1 -433 -1284 )">
    <path d="M 439.5 1285  C 442.58 1285  445 1287.42  445 1290.5  C 445 1293.58  442.58 1296  439.5 1296  C 436.42 1296  434 1293.58  434 1290.5  C 434 1287.42  436.42 1285  439.5 1285  Z " fill-rule="nonzero" fill="#ffffff" stroke="none" />
    <path d="M 439.5 1285  C 442.58 1285  445 1287.42  445 1290.5  C 445 1293.58  442.58 1296  439.5 1296  C 436.42 1296  434 1293.58  434 1290.5  C 434 1287.42  436.42 1285  439.5 1285  Z " stroke-width="2" stroke="#02a7f0" fill="none" />
  </g>
</svg>