<?xml version="1.0" encoding="utf-8"?>
<svg version="1.1" xmlns:xlink="http://www.w3.org/1999/xlink" width="12px" height="12px" xmlns="http://www.w3.org/2000/svg">
  <g transform="matrix(1 0 0 1 -433 -1360 )">
    <path d="M 439 1361  C 441.8 1361  444 1363.2  444 1366  C 444 1368.8  441.8 1371  439 1371  C 436.2 1371  434 1368.8  434 1366  C 434 1363.2  436.2 1361  439 1361  Z " fill-rule="nonzero" fill="#ffffff" stroke="none" />
    <path d="M 439 1361  C 441.8 1361  444 1363.2  444 1366  C 444 1368.8  441.8 1371  439 1371  C 436.2 1371  434 1368.8  434 1366  C 434 1363.2  436.2 1361  439 1361  Z " stroke-width="2" stroke="#409eff" fill="none" />
  </g>
</svg>