<?xml version="1.0" encoding="utf-8"?>
<svg version="1.1" xmlns:xlink="http://www.w3.org/1999/xlink" width="30px" height="30px" xmlns="http://www.w3.org/2000/svg">
  <g transform="matrix(1 0 0 1 -521 -1133 )">
    <path d="M 536 1134  C 543.84 1134  550 1140.16  550 1148  C 550 1155.84  543.84 1162  536 1162  C 528.16 1162  522 1155.84  522 1148  C 522 1140.16  528.16 1134  536 1134  Z " fill-rule="nonzero" fill="#02a7f0" stroke="none" />
    <path d="M 536 1134  C 543.84 1134  550 1140.16  550 1148  C 550 1155.84  543.84 1162  536 1162  C 528.16 1162  522 1155.84  522 1148  C 522 1140.16  528.16 1134  536 1134  Z " stroke-width="2" stroke="#02a7f0" fill="none" />
  </g>
</svg>