<?xml version="1.0" encoding="utf-8"?>
<svg version="1.1" xmlns:xlink="http://www.w3.org/1999/xlink" width="13px" height="13px" xmlns="http://www.w3.org/2000/svg">
  <g transform="matrix(1 0 0 1 -1036 -1284 )">
    <path d="M 1042.5 1284  C 1046.14 1284  1049 1286.86  1049 1290.5  C 1049 1294.14  1046.14 1297  1042.5 1297  C 1038.86 1297  1036 1294.14  1036 1290.5  C 1036 1286.86  1038.86 1284  1042.5 1284  Z " fill-rule="nonzero" fill="#d9001b" stroke="none" />
    <path d="M 1042.5 1284.5  C 1045.86 1284.5  1048.5 1287.14  1048.5 1290.5  C 1048.5 1293.86  1045.86 1296.5  1042.5 1296.5  C 1039.14 1296.5  1036.5 1293.86  1036.5 1290.5  C 1036.5 1287.14  1039.14 1284.5  1042.5 1284.5  Z " stroke-width="1" stroke="#d9001b" fill="none" />
  </g>
</svg>