<?xml version="1.0" encoding="utf-8"?>
<svg version="1.1" xmlns:xlink="http://www.w3.org/1999/xlink" width="13px" height="13px" xmlns="http://www.w3.org/2000/svg">
  <g transform="matrix(1 0 0 1 -1036 -1215 )">
    <path d="M 1042.5 1216  C 1045.58 1216  1048 1218.42  1048 1221.5  C 1048 1224.58  1045.58 1227  1042.5 1227  C 1039.42 1227  1037 1224.58  1037 1221.5  C 1037 1218.42  1039.42 1216  1042.5 1216  Z " fill-rule="nonzero" fill="#d9001b" stroke="none" />
    <path d="M 1042.5 1216  C 1045.58 1216  1048 1218.42  1048 1221.5  C 1048 1224.58  1045.58 1227  1042.5 1227  C 1039.42 1227  1037 1224.58  1037 1221.5  C 1037 1218.42  1039.42 1216  1042.5 1216  Z " stroke-width="2" stroke="#d9001b" fill="none" />
  </g>
</svg>