<?xml version="1.0" encoding="utf-8"?>
<svg version="1.1" xmlns:xlink="http://www.w3.org/1999/xlink" width="386px" height="56px" xmlns="http://www.w3.org/2000/svg">
  <defs>
    <filter x="57px" y="226px" width="386px" height="56px" filterUnits="userSpaceOnUse" id="filter2026">
      <feOffset dx="0" dy="0" in="SourceAlpha" result="shadowOffsetInner" />
      <feGaussianBlur stdDeviation="1.5" in="shadowOffsetInner" result="shadowGaussian" />
      <feComposite in2="shadowGaussian" operator="atop" in="SourceAlpha" result="shadowComposite" />
      <feColorMatrix type="matrix" values="0 0 0 0 0.0745098039215686  0 0 0 0 1  0 0 0 0 0.988235294117647  0 0 0 1 0  " in="shadowComposite" />
    </filter>
    <g id="widget2027">
      <path d="M 60.5 232  A 2.5 2.5 0 0 1 63 229.5 L 437 229.5  A 2.5 2.5 0 0 1 439.5 232 L 439.5 276  A 2.5 2.5 0 0 1 437 278.5 L 63 278.5  A 2.5 2.5 0 0 1 60.5 276 L 60.5 232  Z " fill-rule="nonzero" fill="#ffffff" stroke="none" fill-opacity="0" />
      <path d="M 60.5 232  A 2.5 2.5 0 0 1 63 229.5 L 437 229.5  A 2.5 2.5 0 0 1 439.5 232 L 439.5 276  A 2.5 2.5 0 0 1 437 278.5 L 63 278.5  A 2.5 2.5 0 0 1 60.5 276 L 60.5 232  Z " stroke-width="1" stroke="#13fffc" fill="none" />
    </g>
  </defs>
  <g transform="matrix(1 0 0 1 -57 -226 )">
    <use xlink:href="#widget2027" filter="url(#filter2026)" />
    <use xlink:href="#widget2027" />
  </g>
</svg>