<?xml version="1.0" encoding="utf-8"?>
<svg version="1.1" xmlns:xlink="http://www.w3.org/1999/xlink" width="380px" height="50px" xmlns="http://www.w3.org/2000/svg">
  <g transform="matrix(1 0 0 1 -60 -229 )">
    <path d="M 60.5 232  A 2.5 2.5 0 0 1 63 229.5 L 437 229.5  A 2.5 2.5 0 0 1 439.5 232 L 439.5 276  A 2.5 2.5 0 0 1 437 278.5 L 63 278.5  A 2.5 2.5 0 0 1 60.5 276 L 60.5 232  Z " fill-rule="nonzero" fill="#ffffff" stroke="none" fill-opacity="0" />
    <path d="M 60.5 232  A 2.5 2.5 0 0 1 63 229.5 L 437 229.5  A 2.5 2.5 0 0 1 439.5 232 L 439.5 276  A 2.5 2.5 0 0 1 437 278.5 L 63 278.5  A 2.5 2.5 0 0 1 60.5 276 L 60.5 232  Z " stroke-width="1" stroke="#13fffc" fill="none" />
  </g>
</svg>