<?xml version="1.0" encoding="utf-8"?>
<svg version="1.1" xmlns:xlink="http://www.w3.org/1999/xlink" width="293px" height="293px" xmlns="http://www.w3.org/2000/svg">
  <g transform="matrix(1 0 0 1 -100 -711 )">
    <path d="M 218.087003146411 20.3782942273626  C 196.186445303681 8.02734258751309  171.316464955589 1.4989780804674  146.165716040764 1.4989780804674  C 133.662415980924 1.4989780804674  121.206850540073 3.11305441807031  109.145080464939 6.29652066196229  C 96.7076822226302 9.57905300528796  84.6992249499302 14.5305290643643  73.4533023059786 21.0135975025612  C 64.8878034939333 25.9513567171007  56.8264139595598 31.7479732909144  49.4929316419478 38.242380987262  C 42.3460898556689 44.5713940203705  35.803673203442 51.639165818363  30.0472317431831 59.2494540587309  C 24.3953431201726 66.7215984336732  19.4436232060823 74.7917362666735  15.3296976744329 83.2357038361213  C 11.2547889450221 91.5996869609802  7.96616022634669 100.403035857296  5.5550742573927 109.401163946038  C 3.14642683857861 118.390452290521  1.59383244637806 127.648103077902  0.940453418267452 136.917032159679  C 0.280795123546397 146.274846394056  0.532240124847419 155.726666736327  1.6877166267644 165.009922300176  C 2.86456092428236 174.464729866368  4.99189110258172 183.842235393125  8.01078569390694 192.882001725505  C 11.1084149728742 202.157697783921  15.1840247854504 211.193074726049  20.1244054413902 219.737083814986  C 26.7377534208115 231.174371681167  34.8261803798612 241.6242905957  44.164973923147 250.796592128184  C 53.2190362557221 259.689191959621  63.4311355678612 267.368247313934  74.5175160689097 273.620506981389  C 96.4180434297629 285.971458621238  121.288054259732 292.499823128284  146.43886413831 292.499823128284  C 158.94216419815 292.499823128284  171.397699157125 290.885746790681  183.459560677889 287.702280546789  C 195.896928438321 284.419748203463  207.905385711021 279.468211180633  219.151369318726 272.98520370619  C 227.716898612648 268.047444491651  235.778288147022 262.250827917837  243.111739982757 255.756481185243  C 250.258581769036 249.427407188381  256.801028903139 242.359635390388  262.557439881522 234.749408113774  C 268.209389468285 227.277263738832  273.161078900499 219.207125905831  277.275004432148 210.763158336383  C 281.349913161559 202.399175211525  284.638572362112 193.595887278962  287.049597367312 184.597759190221  C 289.458305749879 175.608409881983  291.010930623957 166.350759094603  291.664248688314 157.081769049072  C 292.323906983035 147.723954814695  292.072461981734 138.272134472424  290.916985479817 128.988878908575  C 289.740141182299 119.534071342383  287.612750040246 110.156504851873  284.593824967044 101.11667755574  C 281.4961652062 91.8409814973238  277.420524911747 82.8056655189491  272.480144255807 74.2615345025048  C 265.866796276386 62.8243076000775  257.778369317336 52.3744496492977  248.439575774051 43.2022090805675  C 239.385482959599 34.3096092491307  229.173444611213 26.6305538948176  218.087003146411 20.3782942273626  Z M 73.2038691085431 20.5809377439887  C 96.2247578492988 7.30992113635318  121.365691599811 0.999563011814985  146.165716040764 0.999563011814985  C 196.694456261577 0.999563011814985  245.832430373848 27.1787399662682  272.912468713736 74.0115831131645  C 313.28367218179 143.830626625077  289.325587658515 233.107959050851  219.400832998038 273.417863464763  C 196.379883293529 286.688880072398  171.238858097387 292.999238196937  146.438833656433 292.999238196937  C 95.9100629537441 292.999238196937  46.7721193233492 266.820061242483  19.6920505015851 219.98709616808  C -20.6788786295781 150.168174583675  3.27917541181969 60.8909640854077  73.2038691085431 20.5809377439887  Z " fill-rule="nonzero" fill="#3120b2" stroke="none" transform="matrix(1 0 0 1 100 711 )" />
  </g>
</svg>