<?xml version="1.0" encoding="utf-8"?>
<svg version="1.1" xmlns:xlink="http://www.w3.org/1999/xlink" width="62px" height="63px" xmlns="http://www.w3.org/2000/svg">
  <g transform="matrix(1 0 0 1 -214 -834 )">
    <path d="M 45.9558999731853 5.22110139702602  C 41.4112350411985 2.65806327247924  36.2503484888579 1.30338770600872  31.03111962442 1.30338770600872  C 25.7559869980248 1.30338770600872  20.5386480099453 2.70366416009551  15.9431393075415 5.35278310458091  C 12.4066319671449 7.39153294904816  9.3762761901622 10.0608308959412  6.93629340205032 13.286666948514  C 4.57940420995575 16.4025853535308  2.86952333373134 19.9038556444058  1.85417201922857 23.6933015980641  C 0.839826606658477 27.4788458714986  0.569818142417603 31.3610176942267  1.05161468630919 35.2319112225579  C 1.55042011742668 39.2393025949701  2.83754784502193 43.0598400629123  4.87724262766832 46.5873247677913  C 7.58049738525963 51.2623302047559  11.48327495667 55.1285904878213  16.163584240189 57.7680771592539  C 20.7082796540525 60.3311152838007  25.8691966882699 61.6858518140248  31.0883950708311 61.6858518140248  C 36.363558179103 61.6858518140248  41.5809276490591 60.2855143961846  46.1764973152164 57.6362735241921  C 49.7129741737364 55.5976456072319  52.7433299507192 52.9283476603388  55.1832822569542 49.702633535273  C 57.5401104852953 46.5867760940098  59.2499608796429 43.0855058031348  60.2653121941457 39.2961817769834  C 61.2796576067157 35.5105765397955  61.5496660709568 31.6283437533137  61.0678085633116 27.7573892612292  C 60.5689726503173 23.7499369250634  59.2818449227222 19.9293994571213  57.2420891763223 16.4019147522423  C 54.5389563462379 11.7269093152776  50.636239738581 7.86064903221234  45.9558999731853 5.22110139702602  Z M 15.6937061101061 4.92012334600827  C 20.53297838087 2.13048294971088  25.8178956897016 0.80397263735631  31.03111962442 0.80397263735631  C 41.6527734325561 0.80397263735631  51.9819841151641 6.30704873807906  57.6744441161273 16.1519023991485  C 66.1609034217629 30.828377379918  61.1249011184621 49.5955202203776  46.4259305126519 58.0689942465183  C 41.5865972781345 60.8586956065691  36.3016190055494 62.1852668826773  31.0883950708311 62.1852668826773  C 20.4667107808181 62.1852668826773  10.1375610619636 56.682129818201  4.44488768786326 46.837337120885  C -4.04148017214206 32.1607402126085  0.994826949926136 13.3937192996559  15.6937061101061 4.92012334600827  Z " fill-rule="nonzero" fill="#3120b2" stroke="none" transform="matrix(1 0 0 1 214 834 )" />
  </g>
</svg>