<?xml version="1.0" encoding="utf-8"?>
<svg version="1.1" xmlns:xlink="http://www.w3.org/1999/xlink" width="31px" height="31px" xmlns="http://www.w3.org/2000/svg">
  <g transform="matrix(1 0 0 1 -229 -849 )">
    <path d="M 22.8358633079472 3.2332049435571  C 20.6665900672415 2.00984530212054  18.2031971977865 1.36320276877132  15.7120048567368 1.36320276877132  C 13.1945371379294 1.36320276877132  10.7045640719496 2.03148743461213  8.51127111236585 3.29587568215265  C 5.17182910515018 5.2210500538539  2.78381791689506 8.32965280845087  1.78721295659281 12.0489904455869  C 0.791705343853465 15.7641825474851  1.30404472824742 19.6445254576083  3.22979825560694 22.9752191661971  C 4.5199436890002 25.2064925442098  6.38247780398265 27.0516824713221  8.61606780462827 28.3113155460899  C 10.7852800815805 29.5346751875265  13.2486729510353 30.1813177208758  15.7398957739619 30.1813177208758  C 18.2574244565227 30.1813177208758  20.7475194500095 29.5129720912814  22.9409343371003 28.2485838437408  C 26.2803458624391 26.3234094720397  28.6682960869408 23.2148676811962  29.6649010472431 19.4955910078137  C 30.6604086599824 15.7803989059155  30.1480387937117 11.8999340682852  28.222193820722 8.56917939594291  C 26.9320788692054 6.33796698168374  25.0694837904695 4.49283801832485  22.8358633079472 3.2332049435571  Z M 8.26183791493034 2.86321592358013  C 10.6125392860449 1.50811361083515  13.1796315001992 0.863787700118792  15.7120048567368 0.863787700118792  C 20.871611170254 0.863787700118792  25.8893548293822 3.53704829098922  28.654548760527 8.31916704284924  C 32.7768263264056 15.4487560868885  30.3305033079301 24.5649709661544  23.1903675345357 28.6812436023134  C 20.839574717791 30.0363459150584  18.2722996123761 30.6807327895282  15.7398957739619 30.6807327895282  C 10.5802284966911 30.6807327895282  5.56263724694671 28.0075331624113  2.79744331580187 23.2252315192908  C -1.32471232256975 16.0957644027586  1.12170214153608 6.97948855973914  8.26183791493034 2.86321592358013  Z " fill-rule="nonzero" fill="#2da2fd" stroke="none" transform="matrix(1 0 0 1 229 849 )" />
  </g>
</svg>