<?xml version="1.0" encoding="utf-8"?>
<svg version="1.1" xmlns:xlink="http://www.w3.org/1999/xlink" width="62px" height="61px" xmlns="http://www.w3.org/2000/svg">
  <g transform="matrix(1 0 0 1 -214 -835 )">
    <path d="M 46.3012291548726 56.8526338853552  C 41.6677705159165 59.5236997810997  36.4072691903607 60.935559348351  31.0883950708311 60.935559348351  C 25.8263086876843 60.935559348351  20.6229608810325 59.5696664512369  16.0409251681517 56.9855958317335  C 11.3217514917781 54.3241622090416  7.38666313101399 50.4259569191436  4.66106515776576 45.7123614262149  C 2.60454437915402 42.1557360471639  1.30677847657347 38.3035583911566  0.803842751156481 34.2627588818276  C 0.318022599534004 30.3597374554033  0.590271481715945 26.4454377345819  1.61296892851524 22.6286190556032  C 2.63673324100077 18.8079596601541  4.36072722615975 15.2777315863676  6.73712481937358 12.1360255136215  C 9.19740853740015 8.88342637326321  12.2527899351937 6.19199858385048  15.8184379497622 4.13648370717135  C 20.451805143088 1.46547877518026  25.712275986767 0.0536801716824584  31.03111962442 0.0536801716824584  C 36.2932364894435 0.0536801716824584  41.4965538142185 1.41951210504305  46.0785590452225 4.0035827245465  C 50.7977327215962 6.66501634723841  54.7327906004836 10.56328260089  57.4582666462248 15.2768780938186  C 59.51484838859 18.8335034728696  60.8126447730473 22.6857420926304  61.3156262212794 26.7265416019594  C 61.801446372902 30.6296239921372  61.5292127316582 34.5439846767122  60.506515284859 38.3608643194444  C 59.4827814542503 42.18146275114  57.7587874690912 45.7116298611729  55.3824203577542 48.8532749701656  C 52.9221976034812 52.1058131467703  49.8668162056877 54.7971799724296  46.3012291548726 56.8526338853552  Z " fill-rule="nonzero" fill="#131140" stroke="none" transform="matrix(1 0 0 1 214 835 )" />
  </g>
</svg>