<?xml version="1.0" encoding="utf-8"?>
<svg version="1.1" xmlns:xlink="http://www.w3.org/1999/xlink" width="269px" height="268px" xmlns="http://www.w3.org/2000/svg">
  <g transform="matrix(1 0 0 1 -112 -725 )">
    <path d="M 200.030406645807 18.2620196604063  C 179.977690653466 6.95318242284509  157.206082700762 0.975625428650346  134.177299153929 0.975625428650346  C 122.728946366488 0.975625428650346  111.324304590305 2.45356970469311  100.280202452308 5.36836868692103  C 88.8921732989529 8.37400366186057  77.8969031275067 12.9077560819712  67.5997593792384 18.8438577237876  C 59.7569553830307 23.3649906469243  52.3757079645533 28.6725559901802  45.6609772630654 34.6189605063377  C 39.1171279626313 40.4139920225605  33.1267076164486 46.8854773475929  27.8559643803052 53.8535734086169  C 22.6808732733996 60.6952916086403  18.146998925782 68.0845252788258  14.3801400427946 75.8160704249004  C 10.6490059193566 83.4743981030244  7.63785372472566 91.5349646267257  5.43023428307001 99.773911093161  C 3.22477905466354 108.004749380381  1.80313480497585 116.481393521704  1.20489749190381 124.968279573614  C 0.600899104126142 133.53649127269  0.831128719209858 142.190844755458  1.88909369740747 150.690898978123  C 2.9666280404779 159.347873902292  4.91448092848017 167.934191836156  7.67863847581563 176.211240648528  C 10.5149161435387 184.704284039541  14.2466599045115 192.977370207935  18.7702008959113 200.800482911763  C 24.8256086033225 211.27277552383  32.2316073057198 220.841036635281  40.7824748169257 229.239403317112  C 49.0726613181758 237.3816612705  58.4231294202563 244.412793852641  68.5740820876373 250.137473197328  C 88.6268895256081 261.446371398642  111.398558442065 267.423928392837  134.427341988899 267.423928392837  C 145.87569477634 267.423928392837  157.280336552522 265.945984116794  168.324408208643 263.031185134566  C 179.712376398245 260.02561112338  190.707616087814 255.491797739516  201.004698872329 249.555757061453  C 208.847533350413 245.034624138317  216.228841732644 239.727119758814  222.943572434132 233.780654278903  C 229.487360770813 227.98562276268  235.477842080749 221.514137437648  240.748554835016 214.546041376624  C 245.923645941921 207.7043231766  250.457550771416 200.315028542661  254.224409654403 192.58354436034  C 257.955452332211 184.925216682216  260.966695972472 176.864650158515  263.174315414128 168.62570369208  C 265.379770642534 160.39486540486  266.801353928468 151.918282227291  267.39959124154 143.431396175381  C 268.003620111195 134.863184476305  267.773360014234 126.208830993537  266.71536455416 117.708776770871  C 265.637799729213 109.051740882949  263.68994684121 100.465422949085  260.925789293875 92.1884351004667  C 258.089511626152 83.6953917094534  254.357737383302 75.4223055410594  249.834165910026 67.5991928372314  C 243.778758202615 57.1268392614109  236.372789982094 47.5585781499601  227.821983434642 39.1602114681285  C 219.531827415268 31.017892550987  210.181389795065 23.9867599688464  200.030406645807 18.2620196604063  Z M 67.3503566636797 18.4111370014615  C 88.4355243033791 6.25600093784635  111.462600865115 0.476210359997935  134.177268672052 0.476210359997935  C 180.457292502232 0.476210359997935  225.463417739326 24.4540471394057  250.266520849831 67.3491804841376  C 287.243018668124 131.297475497983  265.299420415424 213.067914209321  201.254132069764 249.988477783779  C 180.168933948188 262.143613847394  157.142009795836 267.923343461489  134.427341988899 267.923343461489  C 88.1473181587191 267.923343461489  43.1410100303648 243.945384754575  18.3378764379829 201.050495264857  C -18.6385299346794 137.102200251012  3.3051597636501 55.3316396121666  67.3503566636797 18.4111370014615  Z " fill-rule="nonzero" fill="#3120b2" stroke="none" transform="matrix(1 0 0 1 112 725 )" />
  </g>
</svg>