<?xml version="1.0" encoding="utf-8"?>
<svg version="1.1" xmlns:xlink="http://www.w3.org/1999/xlink" width="30px" height="30px" xmlns="http://www.w3.org/2000/svg">
  <g transform="matrix(1 0 0 1 -230 -850 )">
    <path d="M 22.0656356948797 27.4648832411503  C 19.8343318349901 28.7511574761966  17.3011354677805 29.431025255202  14.7398957739619 29.431025255202  C 12.2057849504498 29.431025255202  9.69999179043722 28.7732263549627  7.49340873259106 27.5288342185694  C 5.22095433909064 26.2472541925425  3.32607895287774 24.3700582948439  2.01362078570438 22.1002558246207  C 0.0544286395514462 18.7117075139627  -0.46678097097643 14.7640606199781  0.546009865879483 10.9843688668794  C 1.55992853217512 7.20053157854284  3.98927314530155 4.03809782960752  7.38653927270971 2.0795762847431  C 9.61772120509218 0.793363013450403  12.1508261266717 0.113495234445054  14.7120048567368 0.113495234445054  C 17.2460851983721 0.113495234445054  19.7518783583847 0.771233170930827  21.9585223799844 2.0156862710777  C 24.2310072553615 3.29726629710456  26.1259131234511 5.17440123104961  27.4383712906245 7.44414273751931  C 29.3976244005309 10.8327520119308  29.9188949748123 14.7805208334224  28.9061041379564 18.5602125865212  C 27.8922159535375 22.3439889111041  25.4629018222878 25.5064226600394  22.0656356948797 27.4648832411503  Z " fill-rule="nonzero" fill="#3120b2" stroke="none" transform="matrix(1 0 0 1 230 850 )" />
  </g>
</svg>