<?xml version="1.0" encoding="utf-8"?>
<svg version="1.1" xmlns:xlink="http://www.w3.org/1999/xlink" width="422px" height="104px" xmlns="http://www.w3.org/2000/svg">
  <defs>
    <linearGradient gradientUnits="userSpaceOnUse" x1="209" y1="0" x2="209" y2="100" id="LinearGradient1981">
      <stop id="Stop1982" stop-color="#09e1cf" offset="0" />
      <stop id="Stop1983" stop-color="#09e1cf" offset="0.02" />
      <stop id="Stop1984" stop-color="#0bd9c3" offset="0.38" />
      <stop id="Stop1985" stop-color="#0b7fc9" offset="1" />
    </linearGradient>
  </defs>
  <g transform="matrix(1 0 0 1 -1454.5 -786.5 )">
    <path d="M 0.66297034400949 76.7337129300119  C 0.66297034400949 76.7337129300119  21.9351743772242 77.5596915776987  37.1291767497034 59.3741447212337  C 52.3231791221827 41.1875966785291  83.724384341637 25.4819881376038  99.9315871886121 61.027103202847  C 116.138790035587 96.5732194543298  158.682196915777 130.46537603796  181.979800711744 47.8014329774615  C 205.277404507711 -34.8625100830368  231.613608540925 9.77537841043891  250.859411625148 45.3214946619217  C 270.105214709371 80.8666097271649  299.481020166074 56.0672265717675  304.546021352313 47.8014329774615  C 309.610021352313 39.5346381969158  329.869024911032 28.78890628707  347.089428232503 35.4017413997627  C 364.309831553974 42.0145765124555  402.80143772242 0.682604982206404  417.995440094899 17.2151933570581  " stroke-width="3.00355871886121" stroke="url(#LinearGradient1981)" fill="none" transform="matrix(1 0 0 1 1456 788 )" />
  </g>
</svg>