<?xml version="1.0" encoding="utf-8"?>
<svg version="1.1" xmlns:xlink="http://www.w3.org/1999/xlink" width="12px" height="12px" viewBox="190 214.5  12 12" xmlns="http://www.w3.org/2000/svg">
  <path d="M 196 214.5  C 199.36 214.5  202 217.14  202 220.5  C 202 223.86  199.36 226.5  196 226.5  C 192.64 226.5  190 223.86  190 220.5  C 190 217.14  192.64 214.5  196 214.5  Z " fill-rule="nonzero" fill="#f0f0f0" stroke="none" />
  <path d="M 196 215  C 199.08 215  201.5 217.42  201.5 220.5  C 201.5 223.58  199.08 226  196 226  C 192.92 226  190.5 223.58  190.5 220.5  C 190.5 217.42  192.92 215  196 215  Z " stroke-width="1" stroke="#555555" fill="none" />
  <path d="M 196 223.5  C 194.32 223.5  193 222.18  193 220.5  C 193 218.82  194.32 217.5  196 217.5  C 197.68 217.5  199 218.82  199 220.5  C 199 222.18  197.68 223.5  196 223.5  " fill-rule="nonzero" fill="#555555" stroke="none" />
</svg>