<?xml version="1.0" encoding="utf-8"?>
<svg version="1.1" xmlns:xlink="http://www.w3.org/1999/xlink" width="10px" height="7px" preserveAspectRatio="xMinYMid meet" viewBox="1355 264  10 5" xmlns="http://www.w3.org/2000/svg">
  <path d="M 1360.74483487622 269.541148922792  A 2 2 0 0 1 1362.5 268.5 L 1472 268.5  A 5 5 0 0 0 1477.5 263.5 L 1477.5 119  A 5 5 0 0 1 1482.5 114.5 L 1525 114.5  " stroke-width="1" stroke="#5e00c3" fill="none" />
  <path d="M 1362.35852559666 265.505010026792  A 3 3 0 0 0 1359.35852559666 268.505010026792 A 3 3 0 0 0 1362.35852559666 271.505010026792 A 3 3 0 0 0 1365.35852559666 268.505010026792 A 3 3 0 0 0 1362.35852559666 265.505010026792 Z " fill-rule="nonzero" fill="#5e00c3" stroke="none" />
</svg>