<?xml version="1.0" encoding="utf-8"?>
<svg version="1.1" xmlns:xlink="http://www.w3.org/1999/xlink" width="59px" height="10px" preserveAspectRatio="xMinYMid meet" viewBox="1470 456  59 8" xmlns="http://www.w3.org/2000/svg">
  <path d="M 1324.95969769413 389.341470984808  A 1 1 0 0 0 1325.5 389.5 L 1470 389.5  A 5 5 0 0 1 1475.5 394.5 L 1475.5 455  A 5 5 0 0 0 1480.5 460.5 L 1529 460.5  " stroke-width="1" stroke="#5e00c3" fill="none" />
  <path d="M 1326.42920367321 386.5  A 3 3 0 0 0 1323.42920367321 389.5 A 3 3 0 0 0 1326.42920367321 392.5 A 3 3 0 0 0 1329.42920367321 389.5 A 3 3 0 0 0 1326.42920367321 386.5 Z " fill-rule="nonzero" fill="#5e00c3" stroke="none" />
</svg>