<?xml version="1.0" encoding="utf-8"?>
<svg version="1.1" xmlns:xlink="http://www.w3.org/1999/xlink" width="393px" height="46px" xmlns="http://www.w3.org/2000/svg">
  <g transform="matrix(1 0 0 1 -171.5 -441.5 )">
    <path d="M 0.27189867130262 27.0544020861791  C 0.27189867130262 27.0544020861791  12.0218055383087 33.5217061964485  15.6438842667329 31.239699490873  C 19.2659629951571 28.9576927852974  24.684515087545 24.7723953806035  27.5782938035515 25.7240407301627  C 30.4720725195579 26.6756860797218  32.8220538929591 39.989010306718  37.5220166397616 41.3193716627344  C 42.221979386564 42.6497330187508  96.8250589842295 41.3193716627344  96.8250589842295 41.3193716627344  C 96.8250589842295 41.3193716627344  101.884316403825 42.8439463553955  102.068819073637 26.6756860797218  C 102.25332174345 10.5074258040482  103.156413758848 0.806469638643979  104.234297777226 0.806469638643979  C 105.321892462436 0.806469638643979  110.381149882032 31.6184154973302  113.459431267851 31.0551968210605  C 116.537712653669 30.4822674779585  126.48143548988 22.5000993418602  129.190711536074 24.7821060474357  C 131.899987582267 27.0641127530113  137.328250341488 40.192934310195  141.299913075872 41.7077983360238  C 145.281286477089 43.232373028685  204.040531478952 41.7077983360238  204.040531478952 41.7077983360238  C 204.040531478952 41.7077983360238  205.487420836955 2.90397367440705  206.390512852353 2.90397367440705  C 207.293604867751 2.90397367440705  210.905972929343 32.7642741835341  214.88734633056 31.4339128275177  C 218.868719731777 30.1035514715013  228.627939898175 22.1116726685707  231.881013286974 24.3936793741463  C 235.134086675773 26.6756860797218  240.377846765181 41.5135849993791  243.63092015398 41.5135849993791  C 246.883993542779 41.5135849993791  289.193368930833 41.5135849993791  289.193368930833 41.5135849993791  C 289.193368930833 41.5135849993791  293.708829007823 38.4741462808891  296.427815720849 39.6102943002608  C 299.146802433876 40.7464423196324  302.215373152862 43.9898050415994  304.565354526263 43.0381596920402  C 306.915335899665 42.0865143424811  305.468446541661 3.08847634421953  306.915335899665 3.66140568732148  C 308.362225257668 4.23433503042343  310.352911958276 27.627331429281  311.79980131628 28.7731901154849  C 313.246690674283 29.9190488016888  315.781174717497 32.3855581770769  321.199726809885 31.6281261641624  C 326.627989569105 30.870694151248  328.977970942506 22.8788153483174  331.871749658512 24.587892710791  C 334.765528374519 26.2969700732646  338.746901775736 38.4741462808891  343.077859182913 39.620004967093  C 347.408816590091 40.7658636532969  390.990289333168 39.620004967093  390.990289333168 39.620004967093  " stroke-width="1.11274531230597" stroke="#ff00ff" fill="none" transform="matrix(1 0 0 1 172 442 )" />
  </g>
</svg>