<?xml version="1.0" encoding="utf-8"?>
<svg version="1.1" xmlns:xlink="http://www.w3.org/1999/xlink" width="395px" height="46px" xmlns="http://www.w3.org/2000/svg">
  <g transform="matrix(1 0 0 1 -171.5 -350.5 )">
    <path d="M 0 35  L 19.177366326354 35  C 19.177366326354 35.6981188045386  31.8359824982078 40.4584579635627  33.6526833609374 35.8924183620498  C 35.4596692457914 31.3263787605369  44.1448594665414 3.16265789929054  46.8553382938225 3.54154203643735  C 49.5658171211035 3.92042617358416  53.1895038686871 29.8011272340741  57.5320989790621 29.6165426544385  C 61.8746940894371 29.4222430969273  69.4718067881245 29.2376585172917  69.4718067881245 29.2376585172917  C 69.4718067881245 29.2376585172917  73.9892715002596 31.1417941809013  74.5333102612909 36.2810174770722  C 75.0773490223222 41.420240773243  80.4983066768843 42.1780090475366  81.9458383803426 41.7991249103898  C 83.3933700838009 41.420240773243  87.5513806145403 40.4681729414382  87.735965194176 36  L 127.353644970707 36  C 127.353644970707 36.2810174770722  135.669666032185 33.8036981188045  138.030405655946 36.2810174770722  C 140.381430301832 38.7583368353398  172.032828220404 37.0387857513658  172.032828220404 37.0387857513658  C 172.032828220404 37.0387857513658  173.664944503498 34.7557659506094  177.638370454602 34.9500655081205  C 181.621511383581 35.1443650656317  207.48278248832 35.1443650656317  207.48278248832 35.1443650656317  C 207.48278248832 35.1443650656317  209.649222554569 37.806269003535  212.544285961486 37.806269003535  C 215.439349368403 37.806269003535  226.290979655403 39.5161051096334  226.835018416434 33.4248139816577  C 227.379057177465 27.3335228536821  227.553926779225 16.8704916817047  229.545497243715 18.7746273453143  C 231.537067708205 20.6787630089239  233.159469013423 0.695053518898483  234.976169876153 0.695053518898483  C 236.792870738882 0.695053518898483  238.590141645861 21.4365312832176  241.125750871382 22.0097149778756  C 243.661360096903 22.5828986725336  243.117321335871 29.6262576323141  246.371838924184 30.0051417694609  C 249.626356512496 30.3840259066077  261.925518502954 26.5757545793884  263.732504387808 29.8108422119497  C 265.539490272662 33.0459298445109  268.97859244061 42.1780090475367  272.777148789954 42.3723086050478  C 276.575705139298 42.566608162559  280.733715670037 34.9500655081205  286.708427063506 35.3289496452674  C 292.683138456975 35.7078337824142  297.385187748746 38.1851531406818  301.358613699849 38.1851531406818  C 305.341754628829 38.1851531406818  308.411687637505 30.7629100437545  314.386399030974 30.9572096012657  C 320.351395446568 31.1515091587769  321.26460336687 35.1443650656317  325.782068079005 34.3865967913381  C 330.29953279114 33.6288285170445  334.467258299755 25.0602180308012  336.993152547401 25.0602180308012  C 339.519046795046 25.0602180308012  340.432254715349 35.1443650656317  342.958148962994 35.7175487602897  C 345.493758188515 36.2907324549477  350.01122290065 38.0005685610462  352.00279336514 38.1948681185573  C 353.99436382963 38.3891676760685  354.16923343139 43.712975551875  357.064296838306 43.3340914147282  C 359.959360245223 42.9552072775814  364.301955355598 31.345808716288  366.827849603243 31.345808716288  C 369.353743850889 31.345808716288  372.258522235681 36.8639161496057  374.240377722295 36.8639161496057  C 376.222233208909 36.8639161496057  389.619187699305 39.9047042246558  392.514251106222 34.9597804859961  " stroke-width="1.11323931476034" stroke="#fbed21" fill="none" transform="matrix(1 0 0 1 172 351 )" />
  </g>
</svg>