<?xml version="1.0" encoding="utf-8"?>
<svg version="1.1" xmlns:xlink="http://www.w3.org/1999/xlink" width="393px" height="57px" xmlns="http://www.w3.org/2000/svg">
  <g transform="matrix(1 0 0 1 -172.5 -255.5 )">
    <path d="M 0.917541098286129 42  L 13.8162819167541 42  C 13.8162819167541 42.1974466596712  17.2213186428821 34.2812172088143  21.6940363763554 34.8487233298356  C 26.1667541098286 35.4162294508569  25.4549667715985 43.3228401539  31.5436341378104 43.8903462749213  C 37.6323015040224 44.4578523959426  54.2919727177335 43.8903462749213  54.2919727177335 43.8903462749213  C 54.2919727177335 43.8903462749213  56.4369534802379 15.0629590766002  58.0529031129766 15.0629590766002  C 59.6688527457153 15.0629590766002  58.9474466596712 54.634487583071  60.7365337530605 53.1243441762854  C 62.5256208464498 51.6142007694998  78.2907485134663 33.9060860440714  80.9743791535502 34.8487233298356  C 83.6580097936342 35.7913606155999  84.3794158796782 42.7649527806925  88.1403462749213 42.7649527806925  C 91.9012766701644 42.7649527806925  115.361402588318 45.2177334732424  115.361402588318 37.4938789786639  C 115.361402588318 29.7700244840853  117.506383350822 12.8121720881427  118.939576775096 12.8121720881427  C 120.37277019937 12.8121720881427  119.834120321791 52.3837005946135  121.45006995453 52.1913256383351  C 123.066019587268 51.9989506820567  133.627404686953 34.0984610003498  141.687915355019 35.4258481986709  C 149.748426023085 36.743616649178  145.804739419377 42.582196572228  151.181619447359 43.3420776495278  C 156.558499475341 44.0923399790136  176.430832458902 45.9776145505421  176.430832458902 43.5344526058062  C 176.430832458902 41.0816719132564  178.575813221406 12.8217908359566  180.00900664568 13.1969220006995  C 181.442200069955 13.5720531654425  180.191762854145 54.8364812871633  182.519499825114 54.4613501224204  C 184.847236796083 54.0862189576775  184.847236796083 35.2430919902064  186.280430220357 35.2430919902064  C 187.713623644631 35.2430919902064  191.830447708989 48.9979013641133  198.813658621896 49.1902763203917  C 205.796869534802 49.3826512766702  205.440975865687 40.3314095837705  208.480500174886 40.3314095837705  C 211.520024484085 40.3314095837705  234.095225603358 40.7065407485135  234.095225603358 40.7065407485135  C 234.095225603358 40.7065407485135  234.807012941588 47.8628891220706  237.317506121021 48.0552640783491  C 239.827999300455 48.2476390346275  238.750699545296 1.13501224204266  241.617086393844 0.577124868835245  C 244.483473242392 0.00961874781390868  244.127579573277 44.294333683106  245.733910458202 44.1019587268275  C 247.340241343127 43.9095837705491  258.988544945785 44.1019587268275  258.988544945785 44.1019587268275  C 258.988544945785 44.1019587268275  259.17130115425 51.0755508919202  261.499038125219 50.5080447708989  C 263.826775096188 49.9405386498776  263.826775096188 41.0912906610703  267.770461699895 41.2740468695348  C 271.714148303603 41.4664218258132  291.047831409584 41.2740468695348  291.047831409584 41.2740468695348  C 291.047831409584 41.2740468695348  295.703305351521 48.0552640783491  297.675148653375 48.0552640783491  C 299.646991955229 48.0552640783491  300.897429171039 8.48373557187827  302.513378803777 9.05124169289961  C 304.129328436516 9.61874781392094  304.658359566282 43.1593214410633  306.986096537251 42.7745715285065  C 309.31383350822 42.3994403637635  312.892007694998 48.9882826162994  317.374344176285 49.5557887373207  C 321.856680657573 50.1232948583421  326.146642182581 40.6969220006995  328.47437915355 40.3217908359566  C 330.802116124519 39.9466596712137  352.473154949283 40.3217908359566  352.473154949283 40.3217908359566  C 352.473154949283 40.3217908359566  353.906348373557 48.0456453305351  356.945872682756 46.9202518363064  C 359.985396991955 45.7948583420776  361.245452955579 3.770549143057  363.217296257433 3.96292409933542  C 365.189139559286 4.15529905561384  365.900926897517 42.9669464847849  367.690013990906 43.3420776495278  C 369.479101084295 43.7172088142707  375.567768450507 51.0659321441063  378.434155299056 50.1232948583421  C 381.300542147604 49.1806575725778  387.389209513816 40.889296956978  390.0728401539 40.889296956978  " stroke-width="1.1022123119972" stroke="#f6921e" fill="none" transform="matrix(1 0 0 1 173 256 )" />
  </g>
</svg>