<?xml version="1.0" encoding="utf-8"?>
<svg version="1.1" xmlns:xlink="http://www.w3.org/1999/xlink" width="395px" height="46px" xmlns="http://www.w3.org/2000/svg">
  <g transform="matrix(1 0 0 1 -171.5 -171.5 )">
    <path d="M 0.402346062759079 35  L 19.5404455298993 35  C 19.5404455298993 35.5034043812907  32.173142391948 40.2539964476023  33.9861234458259 35.697306098283  C 35.7894094138544 31.1406157489639  44.4568161634103 3.03456187092957  47.161745115453 3.41267021906447  C 49.8666740674956 3.7907785671996  53.4829410894021 29.6184872705744  57.8166444641801 29.4342806394316  C 62.1503478389579 29.2403789224393  69.731904973357 29.0561722912967  69.731904973357 29.0561722912967  C 69.731904973357 29.0561722912967  74.2401198934281 30.9564091178213  74.7830447010065 36.0851095322678  C 75.325969508585 41.213809946714  80.7358274126702 41.9700266429841  82.1803952042629 41.5919182948492  C 83.6249629958555 41.213809946714  87.7744597394908 40.2636915334517  87.9586663706335 36  L 127.495226465364 36  C 127.495226465364 36.0851095322678  135.794219952635 33.6128626406157  138.150125814091 36.0851095322678  C 140.496336589698 38.5573564239196  172.082926287744 36.8413262285376  172.082926287744 36.8413262285376  C 172.082926287744 36.8413262285376  173.71170071048 34.562981053878  177.676990822972 34.7568827708703  C 181.651976021314 34.9507844878626  207.46029455299 34.9507844878626  207.46029455299 34.9507844878626  C 207.46029455299 34.9507844878626  209.622298697454 37.6072380106573  212.511434280639 37.6072380106573  C 215.400569863825 37.6072380106573  226.229980757845 39.3135731201896  226.772905565423 33.2347542924808  C 227.315830373002 27.155935464772  227.490341918295 16.7143280047367  229.477834517466 18.6145648312611  C 231.465327116637 20.5148016577857  233.084406453523 0.572010065127415  234.897387507401 0.572010065127415  C 236.710368561279 0.572010065127415  238.503959443458 21.2710183540557  241.034376850207 21.8430284191829  C 243.564794256957 22.4150384843103  243.021869449378 29.4439757252812  246.269723209 29.8220840734164  C 249.517576968621 30.2001924215513  261.791555654233 26.3997187685022  263.594841622262 29.6281823564241  C 265.39812759029 32.8566459443459  268.830187981054 41.9700266429841  272.620966548253 42.1639283599764  C 276.411745115453 42.3578300769686  280.561241859088 34.7568827708703  286.523719656602 35.1349911190055  C 292.486197454115 35.5130994671404  297.178619005329 37.9853463587922  301.143909117821 37.9853463587922  C 305.118894316164 37.9853463587922  308.182541444642 30.5783007696862  314.145019242155 30.7722024866785  C 320.097801953819 30.966104203671  321.009140023683 34.9507844878626  325.517354943754 34.1945677915928  C 330.025569863825 33.4383510953228  334.18476169331 24.8872853759622  336.70548401421 24.8872853759622  C 339.22620633511 24.8872853759622  340.137544404974 34.9507844878626  342.658266725874 35.52279455299  C 345.188684132623 36.0948046181172  349.696899052694 37.8011397276496  351.684391651865 37.9950414446419  C 353.671884251036 38.1889431616341  353.846395796329 43.5018502072232  356.735531379515 43.1237418590883  C 359.6246669627 42.7456335109532  363.958370337478 31.1600059206633  366.479092658378 31.1600059206633  C 368.999814979278 31.1600059206633  371.898645648313 36.6668146832446  373.876443161634 36.6668146832446  C 375.854240674956 36.6668146832446  389.223764061575 39.7013765541742  392.11289964476 34.76657785672  " stroke-width="1.1448823268206" stroke="#3df4f9" fill="none" transform="matrix(1 0 0 1 172 172 )" />
  </g>
</svg>