<?xml version="1.0" encoding="utf-8"?>
<svg version="1.1" xmlns:xlink="http://www.w3.org/1999/xlink" width="170px" height="154px" xmlns="http://www.w3.org/2000/svg">
  <defs>
    <mask fill="white" id="clip1498">
      <path d="M 169.874170240263 77.6481231275333  C 169.874170240263 77.6481231275333  83.3232685190625 0.115020854138507  83.3232685190625 0.115020854138507  C 83.3232685190625 0.115020854138507  0.115843270868825 77.2386770839452  0.115843270868825 77.2386770839452  C 0.115843270868825 77.2386770839452  83.7327145626505 153.89496563473  83.7327145626505 153.89496563473  C 83.7327145626505 153.89496563473  169.874170240263 77.6481231275333  169.874170240263 77.6481231275333  Z " fill-rule="evenodd" />
    </mask>
  </defs>
  <g transform="matrix(1 0 0 1 -1685 -153 )">
    <path d="M 169.874170240263 77.6481231275333  C 169.874170240263 77.6481231275333  83.3232685190625 0.115020854138507  83.3232685190625 0.115020854138507  C 83.3232685190625 0.115020854138507  0.115843270868825 77.2386770839452  0.115843270868825 77.2386770839452  C 0.115843270868825 77.2386770839452  83.7327145626505 153.89496563473  83.7327145626505 153.89496563473  C 83.7327145626505 153.89496563473  169.874170240263 77.6481231275333  169.874170240263 77.6481231275333  Z " fill-rule="nonzero" fill="#ffffff" stroke="none" fill-opacity="0" transform="matrix(1 0 0 1 1685 153 )" />
    <path d="M 169.874170240263 77.6481231275333  C 169.874170240263 77.6481231275333  83.3232685190625 0.115020854138507  83.3232685190625 0.115020854138507  C 83.3232685190625 0.115020854138507  0.115843270868825 77.2386770839452  0.115843270868825 77.2386770839452  C 0.115843270868825 77.2386770839452  83.7327145626505 153.89496563473  83.7327145626505 153.89496563473  C 83.7327145626505 153.89496563473  169.874170240263 77.6481231275333  169.874170240263 77.6481231275333  Z " stroke-width="0.934735358044998" stroke="#1bf9ae" fill="none" transform="matrix(1 0 0 1 1685 153 )" mask="url(#clip1498)" />
  </g>
</svg>