<?xml version="1.0" encoding="utf-8"?>
<svg version="1.1" xmlns:xlink="http://www.w3.org/1999/xlink" width="126px" height="116px" xmlns="http://www.w3.org/2000/svg">
  <defs>
    <mask fill="white" id="clip1500">
      <path d="M 125.953827174999 58.5382717499853  C 125.953827174999 58.5382717499853  61.7027550960465 0.968160723726712  61.7027550960465 0.968160723726712  C 61.7027550960465 0.968160723726712  0.0361863361334684 58.2386770839452  0.0361863361334684 58.2386770839452  C 0.0361863361334684 58.2386770839452  62.0023497620866 115.031839276273  62.0023497620866 115.031839276273  C 62.0023497620866 115.031839276273  125.953827174999 58.5382717499853  125.953827174999 58.5382717499853  Z " fill-rule="evenodd" />
    </mask>
  </defs>
  <g transform="matrix(1 0 0 1 -1707 -172 )">
    <path d="M 125.953827174999 58.5382717499853  C 125.953827174999 58.5382717499853  61.7027550960465 0.968160723726712  61.7027550960465 0.968160723726712  C 61.7027550960465 0.968160723726712  0.0361863361334684 58.2386770839452  0.0361863361334684 58.2386770839452  C 0.0361863361334684 58.2386770839452  62.0023497620866 115.031839276273  62.0023497620866 115.031839276273  C 62.0023497620866 115.031839276273  125.953827174999 58.5382717499853  125.953827174999 58.5382717499853  Z " fill-rule="nonzero" fill="#ffffff" stroke="none" fill-opacity="0" transform="matrix(1 0 0 1 1707 172 )" />
    <path d="M 125.953827174999 58.5382717499853  C 125.953827174999 58.5382717499853  61.7027550960465 0.968160723726712  61.7027550960465 0.968160723726712  C 61.7027550960465 0.968160723726712  0.0361863361334684 58.2386770839452  0.0361863361334684 58.2386770839452  C 0.0361863361334684 58.2386770839452  62.0023497620866 115.031839276273  62.0023497620866 115.031839276273  C 62.0023497620866 115.031839276273  125.953827174999 58.5382717499853  125.953827174999 58.5382717499853  Z " stroke-width="0.934735358044998" stroke="#1bf9ae" fill="none" transform="matrix(1 0 0 1 1707 172 )" mask="url(#clip1500)" />
  </g>
</svg>