<?xml version="1.0" encoding="utf-8"?>
<svg version="1.1" xmlns:xlink="http://www.w3.org/1999/xlink" width="148px" height="134px" xmlns="http://www.w3.org/2000/svg">
  <defs>
    <mask fill="white" id="clip1499">
      <path d="M 147.859073018857 67.5882041943253  C 147.859073018857 67.5882041943253  72.5130118075545 0.0915232332726195  72.5130118075545 0.0915232332726195  C 72.5130118075545 0.0915232332726195  0.130940492275158 67.2386770839452  0.130940492275158 67.2386770839452  C 0.130940492275158 67.2386770839452  72.8725254068026 133.908476766727  72.8725254068026 133.908476766727  C 72.8725254068026 133.908476766727  147.859073018857 67.5882041943253  147.859073018857 67.5882041943253  Z " fill-rule="evenodd" />
    </mask>
  </defs>
  <g transform="matrix(1 0 0 1 -1696 -163 )">
    <path d="M 147.859073018857 67.5882041943253  C 147.859073018857 67.5882041943253  72.5130118075545 0.0915232332726195  72.5130118075545 0.0915232332726195  C 72.5130118075545 0.0915232332726195  0.130940492275158 67.2386770839452  0.130940492275158 67.2386770839452  C 0.130940492275158 67.2386770839452  72.8725254068026 133.908476766727  72.8725254068026 133.908476766727  C 72.8725254068026 133.908476766727  147.859073018857 67.5882041943253  147.859073018857 67.5882041943253  Z " fill-rule="nonzero" fill="#ffffff" stroke="none" fill-opacity="0" transform="matrix(1 0 0 1 1696 163 )" />
    <path d="M 147.859073018857 67.5882041943253  C 147.859073018857 67.5882041943253  72.5130118075545 0.0915232332726195  72.5130118075545 0.0915232332726195  C 72.5130118075545 0.0915232332726195  0.130940492275158 67.2386770839452  0.130940492275158 67.2386770839452  C 0.130940492275158 67.2386770839452  72.8725254068026 133.908476766727  72.8725254068026 133.908476766727  C 72.8725254068026 133.908476766727  147.859073018857 67.5882041943253  147.859073018857 67.5882041943253  Z " stroke-width="0.934735358044998" stroke="#1bf9ae" fill="none" transform="matrix(1 0 0 1 1696 163 )" mask="url(#clip1499)" />
  </g>
</svg>