<?xml version="1.0" encoding="utf-8"?>
<svg version="1.1" xmlns:xlink="http://www.w3.org/1999/xlink" width="108px" height="98px" xmlns="http://www.w3.org/2000/svg">
  <defs>
    <mask fill="white" id="clip1501">
      <path d="M 107.606473594549 49.4883393056453  C 107.606473594549 49.4883393056453  52.8525524290666 0.426716794924506  52.8525524290666 0.426716794924506  C 52.8525524290666 0.426716794924506  0.383539916583448 49.2386770839452  0.383539916583448 49.2386770839452  C 0.383539916583448 49.2386770839452  53.1122011396346 97.5732832050755  53.1122011396346 97.5732832050755  C 53.1122011396346 97.5732832050755  107.606473594549 49.4883393056453  107.606473594549 49.4883393056453  Z " fill-rule="evenodd" />
    </mask>
  </defs>
  <g transform="matrix(1 0 0 1 -1716 -181 )">
    <path d="M 107.606473594549 49.4883393056453  C 107.606473594549 49.4883393056453  52.8525524290666 0.426716794924506  52.8525524290666 0.426716794924506  C 52.8525524290666 0.426716794924506  0.383539916583448 49.2386770839452  0.383539916583448 49.2386770839452  C 0.383539916583448 49.2386770839452  53.1122011396346 97.5732832050755  53.1122011396346 97.5732832050755  C 53.1122011396346 97.5732832050755  107.606473594549 49.4883393056453  107.606473594549 49.4883393056453  Z " fill-rule="nonzero" fill="#ffffff" stroke="none" fill-opacity="0" transform="matrix(1 0 0 1 1716 181 )" />
    <path d="M 107.606473594549 49.4883393056453  C 107.606473594549 49.4883393056453  52.8525524290666 0.426716794924506  52.8525524290666 0.426716794924506  C 52.8525524290666 0.426716794924506  0.383539916583448 49.2386770839452  0.383539916583448 49.2386770839452  C 0.383539916583448 49.2386770839452  53.1122011396346 97.5732832050755  53.1122011396346 97.5732832050755  C 53.1122011396346 97.5732832050755  107.606473594549 49.4883393056453  107.606473594549 49.4883393056453  Z " stroke-width="0.934735358044998" stroke="#1bf9ae" fill="none" transform="matrix(1 0 0 1 1716 181 )" mask="url(#clip1501)" />
  </g>
</svg>