<?xml version="1.0" encoding="utf-8"?>
<svg version="1.1" xmlns:xlink="http://www.w3.org/1999/xlink" width="85px" height="85px" xmlns="http://www.w3.org/2000/svg">
  <g transform="matrix(1 0 0 1 -1366 -661 )">
    <path d="M 1408.5 661  C 1432.3 661  1451 679.7  1451 703.5  C 1451 727.3  1432.3 746  1408.5 746  C 1384.7 746  1366 727.3  1366 703.5  C 1366 679.7  1384.7 661  1408.5 661  Z " fill-rule="nonzero" fill="#ffffff" stroke="none" fill-opacity="0" />
    <path d="M 1408.5 661.382882882883  C 1432.08558558559 661.382882882883  1450.61711711712 679.914414414414  1450.61711711712 703.5  C 1450.61711711712 727.085585585586  1432.08558558559 745.617117117117  1408.5 745.617117117117  C 1384.91441441441 745.617117117117  1366.38288288288 727.085585585586  1366.38288288288 703.5  C 1366.38288288288 679.914414414414  1384.91441441441 661.382882882883  1408.5 661.382882882883  Z " stroke-width="0.765765765765766" stroke="#0fe5f0" fill="none" />
  </g>
</svg>