<?xml version="1.0" encoding="utf-8"?>
<svg version="1.1" xmlns:xlink="http://www.w3.org/1999/xlink" width="450px" height="102px" xmlns="http://www.w3.org/2000/svg">
  <defs>
    <linearGradient gradientUnits="userSpaceOnUse" x1="450" y1="51" x2="0" y2="51" id="LinearGradient1694">
      <stop id="Stop1695" stop-color="#156b70" offset="0" />
      <stop id="Stop1696" stop-color="#156b70" offset="0.03" />
      <stop id="Stop1697" stop-color="#296983" offset="0.23" />
      <stop id="Stop1698" stop-color="#5a66b3" offset="0.75" />
      <stop id="Stop1699" stop-color="#6d64c5" offset="1" />
    </linearGradient>
  </defs>
  <g transform="matrix(1 0 0 1 -1404 -849 )">
    <path d="M 0 102  L 0 50.8250187346108  C 0 50.8250187346108  22.9793384005995 26.56761588695  44.8313885023017 26.1176640616636  C 69.5257467080612 25.6077186596724  75.4801413124933 42.3259287014239  95.3859329836205 41.3060378974413  C 111.909859758056 40.4661278235735  138.61792099347 -0.209517182314585  166.723048924098 0.0904507012097611  C 188.555829140349 0.330425008029124  225.004817471363 27.087560218392  237.077400706562 26.3176426506798  C 250.990258002355 25.4377368590086  259.517182314527 14.368921956964  295.233914998394 15.3788138314956  C 312.576811904507 15.8687613745851  349.440102772722 37.1064875281019  373.691253613104 32.3969917567712  C 397.942404453485 27.6874959854405  450 0.120447489562139  450 0.120447489562139  L 450 102  L 0 102  Z " fill-rule="nonzero" fill="url(#LinearGradient1694)" stroke="none" transform="matrix(1 0 0 1 1404 849 )" />
  </g>
</svg>