<?xml version="1.0" encoding="utf-8"?>
<svg version="1.1" xmlns:xlink="http://www.w3.org/1999/xlink" width="105px" height="105px" xmlns="http://www.w3.org/2000/svg">
  <g transform="matrix(1 0 0 1 -75 -511 )">
    <path d="M 104.753123794362 52.7651219745723  C 104.753123794362 23.9501497122063  81.3939734303215 0.590999348166179  52.5790011679558 0.590999348166179  C 23.7640289055898 0.590999348166179  0.404878541549749 23.9501497122063  0.404878541549749 52.7651219745723  C 0.404878541549749 81.580094236938  23.7640289055898 104.939244600978  52.5790011679558 104.939244600978  C 81.3939734303215 104.939244600978  104.753123794362 81.580094236938  104.753123794362 52.7651219745723  Z M 52.5790011679558 95.7612569445068  L 52.5790011679558 95.7572414912516  C 28.8328915223944 95.7572414912516  9.58286619802132 76.5072161668785  9.58286619802132 52.7611065213173  C 9.58286619802132 29.0149968757561  28.8328915223944 9.76497155138281  52.5790011679558 9.76497155138281  C 76.3251108135172 9.76497155138281  95.57513613789 29.0149968757561  95.57513613789 52.7611065213173  C 95.57513613789 110.08928648123  95.57513613789 -4.56707343859568  95.5751361378903 52.7611065213172  C 95.5751362628925 52.7624450057898  95.5751363253941 52.7637834900936  95.5751363253941 52.7651219745724  C 95.5751363253941 76.5112316201336  76.325111001021 95.7612569445068  52.5790013554596 95.7612569445068  Z " fill-rule="nonzero" fill="#003d79" stroke="none" transform="matrix(1 0 0 1 75 511 )" />
  </g>
</svg>