<?xml version="1.0" encoding="utf-8"?>
<svg version="1.1" xmlns:xlink="http://www.w3.org/1999/xlink" width="25px" height="25px" xmlns="http://www.w3.org/2000/svg">
  <g transform="matrix(1 0 0 1 -12 -13 )">
    <path d="M 13 18  A 4 4 0 0 1 17 14 L 32 14  A 4 4 0 0 1 36 18 L 36 33  A 4 4 0 0 1 32 37 L 17 37  A 4 4 0 0 1 13 33 L 13 18  Z " fill-rule="nonzero" fill="#ff6b3b" stroke="none" />
    <path d="M 12.5 18  A 4.5 4.5 0 0 1 17 13.5 L 32 13.5  A 4.5 4.5 0 0 1 36.5 18 L 36.5 33  A 4.5 4.5 0 0 1 32 37.5 L 17 37.5  A 4.5 4.5 0 0 1 12.5 33 L 12.5 18  Z " stroke-width="1" stroke="#02a6b5" fill="none" stroke-opacity="0.149019607843137" />
  </g>
</svg>