<?xml version="1.0" encoding="utf-8"?>
<svg version="1.1" xmlns:xlink="http://www.w3.org/1999/xlink" width="12px" height="12px" viewBox="650 302.5  12 12" xmlns="http://www.w3.org/2000/svg">
  <path d="M 656 302.5  C 659.36 302.5  662 305.14  662 308.5  C 662 311.86  659.36 314.5  656 314.5  C 652.64 314.5  650 311.86  650 308.5  C 650 305.14  652.64 302.5  656 302.5  Z " fill-rule="nonzero" fill="#ffffff" stroke="none" />
  <path d="M 656 303  C 659.08 303  661.5 305.42  661.5 308.5  C 661.5 311.58  659.08 314  656 314  C 652.92 314  650.5 311.58  650.5 308.5  C 650.5 305.42  652.92 303  656 303  Z " stroke-width="1" stroke="#f2f2f2" fill="none" />
  <path d="M 656 311.5  C 654.32 311.5  653 310.18  653 308.5  C 653 306.82  654.32 305.5  656 305.5  C 657.68 305.5  659 306.82  659 308.5  C 659 310.18  657.68 311.5  656 311.5  " fill-rule="nonzero" fill="#f2f2f2" stroke="none" />
</svg>