<?xml version="1.0" encoding="utf-8"?>
<svg version="1.1" xmlns:xlink="http://www.w3.org/1999/xlink" width="105px" height="105px" xmlns="http://www.w3.org/2000/svg">
  <g transform="matrix(1 0 0 1 -158 -194 )">
    <path d="M 210.5 195.5  C 239.06 195.5  261.5 217.94  261.5 246.5  C 261.5 275.06  239.06 297.5  210.5 297.5  C 181.94 297.5  159.5 275.06  159.5 246.5  C 159.5 217.94  181.94 195.5  210.5 195.5  Z " fill-rule="nonzero" fill="#13fffc" stroke="none" fill-opacity="0.0980392156862745" />
    <path d="M 210.5 195  C 239.34 195  262 217.66  262 246.5  C 262 275.34  239.34 298  210.5 298  C 181.66 298  159 275.34  159 246.5  C 159 217.66  181.66 195  210.5 195  Z " stroke-width="2" stroke="#13fffc" fill="none" stroke-opacity="0.498039215686275" />
  </g>
</svg>