<?xml version="1.0" encoding="utf-8"?>
<svg version="1.1" xmlns:xlink="http://www.w3.org/1999/xlink" width="154px" height="200px" xmlns="http://www.w3.org/2000/svg">
  <g transform="matrix(1 0 0 1 -82 -530 )">
    <path d="M 82 530  L 236 530  L 236 730  L 82 730  L 82 530  " fill-rule="nonzero" fill="#cccccc" stroke="none" />
    <path d="M 93 541  L 225 541  L 225 719  L 93 719  L 93 541  " fill-rule="nonzero" fill="#ffffff" stroke="none" />
    <path d="M 173.63 583.1  C 167.162 583.1  162.08 578.018  162.08 571.55  C 162.08 565.082  167.162 560  173.63 560  C 180.098 560  185.18 565.082  185.18 571.55  C 185.18 578.018  180.098 583.1  173.63 583.1  " fill-rule="nonzero" fill="#cccccc" stroke="none" />
    <path d="M 97 715  L 97 621.5  L 128 579  L 171.4 613  L 196.2 604.5  L 221 613  L 221 715  L 97 715  " fill-rule="nonzero" fill="#169bd5" stroke="none" />
  </g>
</svg>