<?xml version="1.0" encoding="utf-8"?>
<svg version="1.1" xmlns:xlink="http://www.w3.org/1999/xlink" width="12px" height="12px" viewBox="361 94.5  12 12" xmlns="http://www.w3.org/2000/svg">
  <path d="M 367 94.5  C 370.36 94.5  373 97.14  373 100.5  C 373 103.86  370.36 106.5  367 106.5  C 363.64 106.5  361 103.86  361 100.5  C 361 97.14  363.64 94.5  367 94.5  Z " fill-rule="nonzero" fill="#ffffff" stroke="none" />
  <path d="M 367 95  C 370.08 95  372.5 97.42  372.5 100.5  C 372.5 103.58  370.08 106  367 106  C 363.92 106  361.5 103.58  361.5 100.5  C 361.5 97.42  363.92 95  367 95  Z " stroke-width="1" stroke="#555555" fill="none" />
  <path d="M 367 103.5  C 365.32 103.5  364 102.18  364 100.5  C 364 98.82  365.32 97.5  367 97.5  C 368.68 97.5  370 98.82  370 100.5  C 370 102.18  368.68 103.5  367 103.5  " fill-rule="nonzero" fill="#555555" stroke="none" />
</svg>