<?xml version="1.0" encoding="utf-8"?>
<svg version="1.1" xmlns:xlink="http://www.w3.org/1999/xlink" width="12px" height="12px" viewBox="261 94.5  12 12" xmlns="http://www.w3.org/2000/svg">
  <path d="M 267 94.5  C 270.36 94.5  273 97.14  273 100.5  C 273 103.86  270.36 106.5  267 106.5  C 263.64 106.5  261 103.86  261 100.5  C 261 97.14  263.64 94.5  267 94.5  Z " fill-rule="nonzero" fill="#ffffff" stroke="none" />
  <path d="M 267 95  C 270.08 95  272.5 97.42  272.5 100.5  C 272.5 103.58  270.08 106  267 106  C 263.92 106  261.5 103.58  261.5 100.5  C 261.5 97.42  263.92 95  267 95  Z " stroke-width="1" stroke="#555555" fill="none" />
  <path d="M 267 103.5  C 265.32 103.5  264 102.18  264 100.5  C 264 98.82  265.32 97.5  267 97.5  C 268.68 97.5  270 98.82  270 100.5  C 270 102.18  268.68 103.5  267 103.5  " fill-rule="nonzero" fill="#555555" stroke="none" />
</svg>