<?xml version="1.0" encoding="utf-8"?>
<svg version="1.1" xmlns:xlink="http://www.w3.org/1999/xlink" width="276px" height="56px" xmlns="http://www.w3.org/2000/svg">
  <defs>
    <filter x="32px" y="356px" width="276px" height="56px" filterUnits="userSpaceOnUse" id="filter2006">
      <feOffset dx="0" dy="0" in="SourceAlpha" result="shadowOffsetInner" />
      <feGaussianBlur stdDeviation="1.5" in="shadowOffsetInner" result="shadowGaussian" />
      <feComposite in2="shadowGaussian" operator="atop" in="SourceAlpha" result="shadowComposite" />
      <feColorMatrix type="matrix" values="0 0 0 0 0.0117647058823529  0 0 0 0 0.705882352941176  0 0 0 0 0.96078431372549  0 0 0 1 0  " in="shadowComposite" />
    </filter>
    <g id="widget2007">
      <path d="M 35.5 362  A 2.5 2.5 0 0 1 38 359.5 L 302 359.5  A 2.5 2.5 0 0 1 304.5 362 L 304.5 406  A 2.5 2.5 0 0 1 302 408.5 L 38 408.5  A 2.5 2.5 0 0 1 35.5 406 L 35.5 362  Z " fill-rule="nonzero" fill="#ffffff" stroke="none" fill-opacity="0" />
      <path d="M 35.5 362  A 2.5 2.5 0 0 1 38 359.5 L 302 359.5  A 2.5 2.5 0 0 1 304.5 362 L 304.5 406  A 2.5 2.5 0 0 1 302 408.5 L 38 408.5  A 2.5 2.5 0 0 1 35.5 406 L 35.5 362  Z " stroke-width="1" stroke="#03b4f5" fill="none" />
    </g>
  </defs>
  <g transform="matrix(1 0 0 1 -32 -356 )">
    <use xlink:href="#widget2007" filter="url(#filter2006)" />
    <use xlink:href="#widget2007" />
  </g>
</svg>