<?xml version="1.0" encoding="utf-8"?>
<svg version="1.1" xmlns:xlink="http://www.w3.org/1999/xlink" width="386px" height="56px" xmlns="http://www.w3.org/2000/svg">
  <defs>
    <filter x="32px" y="216px" width="386px" height="56px" filterUnits="userSpaceOnUse" id="filter2004">
      <feOffset dx="0" dy="0" in="SourceAlpha" result="shadowOffsetInner" />
      <feGaussianBlur stdDeviation="1.5" in="shadowOffsetInner" result="shadowGaussian" />
      <feComposite in2="shadowGaussian" operator="atop" in="SourceAlpha" result="shadowComposite" />
      <feColorMatrix type="matrix" values="0 0 0 0 0.0117647058823529  0 0 0 0 0.705882352941176  0 0 0 0 0.96078431372549  0 0 0 1 0  " in="shadowComposite" />
    </filter>
    <g id="widget2005">
      <path d="M 35.5 222  A 2.5 2.5 0 0 1 38 219.5 L 412 219.5  A 2.5 2.5 0 0 1 414.5 222 L 414.5 266  A 2.5 2.5 0 0 1 412 268.5 L 38 268.5  A 2.5 2.5 0 0 1 35.5 266 L 35.5 222  Z " fill-rule="nonzero" fill="#ffffff" stroke="none" fill-opacity="0" />
      <path d="M 35.5 222  A 2.5 2.5 0 0 1 38 219.5 L 412 219.5  A 2.5 2.5 0 0 1 414.5 222 L 414.5 266  A 2.5 2.5 0 0 1 412 268.5 L 38 268.5  A 2.5 2.5 0 0 1 35.5 266 L 35.5 222  Z " stroke-width="1" stroke="#03b4f5" fill="none" />
    </g>
  </defs>
  <g transform="matrix(1 0 0 1 -32 -216 )">
    <use xlink:href="#widget2005" filter="url(#filter2004)" />
    <use xlink:href="#widget2005" />
  </g>
</svg>