<?xml version="1.0" encoding="utf-8"?>
<svg version="1.1" xmlns:xlink="http://www.w3.org/1999/xlink" width="55px" height="25px" xmlns="http://www.w3.org/2000/svg">
  <g transform="matrix(1 0 0 1 -342 -110 )">
    <path d="M 343 122.5  A 11.5 11.5 0 0 1 354.5 111 L 384.5 111  A 11.5 11.5 0 0 1 396 122.5 A 11.5 11.5 0 0 1 384.5 134 L 354.5 134  A 11.5 11.5 0 0 1 343 122.5 Z " fill-rule="nonzero" fill="#ffffff" stroke="none" fill-opacity="0" />
    <path d="M 342.5 122.5  A 12 12 0 0 1 354.5 110.5 L 384.5 110.5  A 12 12 0 0 1 396.5 122.5 A 12 12 0 0 1 384.5 134.5 L 354.5 134.5  A 12 12 0 0 1 342.5 122.5 Z " stroke-width="1" stroke="#ffffff" fill="none" stroke-opacity="0.498039215686275" />
  </g>
</svg>