<?xml version="1.0" encoding="utf-8"?>
<svg version="1.1" xmlns:xlink="http://www.w3.org/1999/xlink" width="174px" height="127px" xmlns="http://www.w3.org/2000/svg">
  <defs>
    <mask fill="white" id="clip1466">
      <path d="M 65.5570486834444 16.6975270842146  C 65.5570486834444 16.6975270842146  65.5688977463597 16.414558581727  65.5688977463597 16.414558581727  C 65.5688977463597 16.414558581727  67.8405468082131 11.5423037113471  67.8405468082131 11.5423037113471  C 67.8405468082131 11.5423037113471  65.2896962638739 8.81361222271977  65.2896962638739 8.81361222271977  C 65.2896962638739 8.81361222271977  64.8531769460722 4.65124312164494  64.8531769460722 4.65124312164494  C 64.8531769460722 4.65124312164494  73.8804088782772 0.95027147046801  73.8804088782772 0.95027147046801  C 73.8804088782772 0.95027147046801  76.1344208464824 0.957033506372625  76.1344208464824 0.957033506372625  C 76.1344208464824 0.957033506372625  77.4749659644211 4.11510027486867  77.4749659644211 4.11510027486867  C 77.4749659644211 4.11510027486867  77.9129142898104 8.1344716166634  77.9129142898104 8.1344716166634  C 77.9129142898104 8.1344716166634  82.2653303999844 11.0165699198403  82.2653303999844 11.0165699198403  C 82.2653303999844 11.0165699198403  88.4440192071817 16.4831839461094  88.4440192071817 16.4831839461094  C 88.4440192071817 16.4831839461094  91.7580698039105 14.4820973208707  91.7580698039105 14.4820973208707  C 91.7580698039105 14.4820973208707  93.858047954237 16.4994260323506  93.858047954237 16.4994260323506  C 93.858047954237 16.4994260323506  94.5947018656736 21.9517139825521  94.5947018656736 21.9517139825521  C 94.5947018656736 21.9517139825521  98.2004130110426 24.3985659746867  98.2004130110426 24.3985659746867  C 98.2004130110426 24.3985659746867  107.515305470649 25.1455209408192  107.515305470649 25.1455209408192  C 107.515305470649 25.1455209408192  109.020482462739 23.427011815992  109.020482462739 23.427011815992  C 109.020482462739 23.427011815992  108.579788122769 20.9896548742738  108.579788122769 20.9896548742738  C 108.579788122769 20.9896548742738  113.992692863856 19.7138751002219  113.992692863856 19.7138751002219  C 113.992692863856 19.7138751002219  116.996986815859 20.2968961959091  116.996986815859 20.2968961959091  C 116.996986815859 20.2968961959091  117.287526358547 23.4518129476795  117.287526358547 23.4518129476795  C 117.287526358547 23.4518129476795  119.8396789098 23.7464735122488  119.8396789098 23.7464735122488  C 119.8396789098 23.7464735122488  129.160888402947 22.0544125278541  129.160888402947 22.0544125278541  C 129.160888402947 22.0544125278541  130.965749986283 22.7758373584285  130.965749986283 22.7758373584285  C 130.965749986283 22.7758373584285  131.408432336809 25.2172003214176  131.408432336809 25.2172003214176  C 131.408432336809 25.2172003214176  135.311435060717 26.2349237252587  135.311435060717 26.2349237252587  C 135.311435060717 26.2349237252587  143.566871894895 30.1287454004181  143.566871894895 30.1287454004181  C 143.566871894895 30.1287454004181  148.229059649874 28.4217073364992  148.229059649874 28.4217073364992  C 148.229059649874 28.4217073364992  158.434778839534 31.8973737913653  158.434778839534 31.8973737913653  C 158.434778839534 31.8973737913653  160.533623983844 34.6257092781024  160.533623983844 34.6257092781024  C 160.533623983844 34.6257092781024  165.644651122041 33.6410280497065  165.644651122041 33.6410280497065  C 165.644651122041 33.6410280497065  168.799800875049 33.9394976345007  168.799800875049 33.9394976345007  C 168.799800875049 33.9394976345007  172.087344331032 38.1074197650607  172.087344331032 38.1074197650607  C 172.087344331032 38.1074197650607  173.416690389507 45.9985206647115  173.416690389507 45.9985206647115  C 173.416690389507 45.9985206647115  172.358503770817 48.7223851277087  172.358503770817 48.7223851277087  C 172.358503770817 48.7223851277087  170.260649631768 47.9970812765378  170.260649631768 47.9970812765378  C 170.260649631768 47.9970812765378  164.085843845189 52.569622555518  164.085843845189 52.569622555518  C 164.085843845189 52.569622555518  153.562627969706 54.2580775207657  153.562627969706 54.2580775207657  C 153.562627969706 54.2580775207657  150.701437777546 56.9745329444228  150.701437777546 56.9745329444228  C 150.701437777546 56.9745329444228  152.945274691724 59.7063034493989  152.945274691724 59.7063034493989  C 152.945274691724 59.7063034493989  153.226175183231 66.074237261437  153.226175183231 66.074237261437  C 153.226175183231 66.074237261437  156.083030352374 66.802818130008  156.083030352374 66.802818130008  C 156.083030352374 66.802818130008  163.266250493366 75.43049094066  163.266250493366 75.43049094066  C 163.266250493366 75.43049094066  163.686268723551 86.7599130968839  163.686268723551 86.7599130968839  C 163.686268723551 86.7599130968839  158.867923139415 90.1855072858795  158.867923139415 90.1855072858795  C 158.867923139415 90.1855072858795  154.67236586212 86.0178611567851  154.67236586212 86.0178611567851  C 154.67236586212 86.0178611567851  150.631836407981 80.8416656725613  150.631836407981 80.8416656725613  C 150.631836407981 80.8416656725613  150.336296838744 77.6867339207113  150.336296838744 77.6867339207113  C 150.336296838744 77.6867339207113  147.486015704508 77.1001748062381  147.486015704508 77.1001748062381  C 147.486015704508 77.1001748062381  144.175998129194 78.0902590633227  144.175998129194 78.0902590633227  C 144.175998129194 78.0902590633227  138.77027142622 75.640007053135  138.77027142622 75.640007053135  C 138.77027142622 75.640007053135  136.191632734333 81.5073552071959  136.191632734333 81.5073552071959  C 136.191632734333 81.5073552071959  131.530743986251 81.7813766621771  131.530743986251 81.7813766621771  C 131.530743986251 81.7813766621771  128.210098354505 86.6474844999178  128.210098354505 86.6474844999178  C 128.210098354505 86.6474844999178  126.113087219932 85.6411791567036  126.113087219932 85.6411791567036  C 126.113087219932 85.6411791567036  122.803069644618 86.6312634137881  122.803069644618 86.6312634137881  C 122.803069644618 86.6312634137881  117.855218372841 83.8913808657392  117.855218372841 83.8913808657392  C 117.855218372841 83.8913808657392  113.78485276028 88.3272334189385  113.78485276028 88.3272334189385  C 113.78485276028 88.3272334189385  113.778834728326 90.3332440703225  113.778834728326 90.3332440703225  C 113.778834728326 90.3332440703225  121.729396943701 94.5171552857803  121.729396943701 94.5171552857803  C 121.729396943701 94.5171552857803  123.519941451017 97.6775720667544  123.519941451017 97.6775720667544  C 123.519941451017 97.6775720667544  117.805893110937 99.6664586272139  117.805893110937 99.6664586272139  C 117.805893110937 99.6664586272139  109.089707830307 99.3533059644565  109.089707830307 99.3533059644565  C 109.089707830307 99.3533059644565  108.050019309837 95.9111376874567  108.050019309837 95.9111376874567  C 108.050019309837 95.9111376874567  104.74645176877 94.7512105285515  104.74645176877 94.7512105285515  C 104.74645176877 94.7512105285515  99.3249489820299 97.8929912105729  99.3249489820299 97.8929912105729  C 99.3249489820299 97.8929912105729  95.7300898942825 96.1621820204355  95.7300898942825 96.1621820204355  C 95.7300898942825 96.1621820204355  95.443438372239 91.7112583872127  95.443438372239 91.7112583872127  C 95.443438372239 91.7112583872127  93.6498818489301 89.5548469372403  93.6498818489301 89.5548469372403  C 93.6498818489301 89.5548469372403  93.6567818855675 87.2548347247861  93.6567818855675 87.2548347247861  C 93.6567818855675 87.2548347247861  88.5521897815386 86.0945045637411  88.5521897815386 86.0945045637411  C 88.5521897815386 86.0945045637411  87.1918835586737 87.5234441510309  87.1918835586737 87.5234441510309  C 87.1918835586737 87.5234441510309  87.9365585126999 90.9687274445705  87.9365585126999 90.9687274445705  C 87.9365585126999 90.9687274445705  83.3843743418104 92.6750955049319  83.3843743418104 92.6750955049319  C 83.3843743418104 92.6750955049319  82.3230607065169 95.1079464227244  82.3230607065169 95.1079464227244  C 82.3230607065169 95.1079464227244  83.3680182549639 98.1271244537582  83.3680182549639 98.1271244537582  C 83.3680182549639 98.1271244537582  74.3218562222452 108.138129609538  74.3218562222452 108.138129609538  C 74.3218562222452 108.138129609538  75.7865839995608 119.902692076241  75.7865839995608 119.902692076241  C 75.7865839995608 119.902692076241  71.4162377941827 123.330630277683  71.4162377941827 123.330630277683  C 71.4162377941827 123.330630277683  69.3226706778971 121.176318838861  69.3226706778971 121.176318838861  C 69.3226706778971 121.176318838861  60.5939993309697 126.025202585146  60.5939993309697 126.025202585146  C 60.5939993309697 126.025202585146  57.299147836183 124.293293389168  57.299147836183 124.293293389168  C 57.299147836183 124.293293389168  44.7463511841653 101.165304585688  44.7463511841653 101.165304585688  C 44.7463511841653 101.165304585688  39.7946478919354 97.7094002357535  39.7946478919354 97.7094002357535  C 39.7946478919354 97.7094002357535  35.7396263608476 96.6972208613498  35.7396263608476 96.6972208613498  C 35.7396263608476 96.6972208613498  33.9490908535794 93.5338040644464  33.9490908535794 93.5338040644464  C 33.9490908535794 93.5338040644464  36.214428881923 90.0985508241637  36.214428881923 90.0985508241637  C 36.214428881923 90.0985508241637  32.6145787676746 87.3647123082069  32.6145787676746 87.3647123082069  C 32.6145787676746 87.3647123082069  28.2472265781939 90.794659520316  28.2472265781939 90.794659520316  C 28.2472265781939 90.794659520316  23.8900584427878 91.4965982474243  23.8900584427878 91.4965982474243  C 23.8900584427878 91.4965982474243  21.0474713494053 79.0118919569485  21.0474713494053 79.0118919569485  C 21.0474713494053 79.0118919569485  20.3035003991171 75.9986169572583  20.3035003991171 75.9986169572583  C 20.3035003991171 75.9986169572583  19.6177777581119 55.5692674828362  19.6177777581119 55.5692674828362  C 19.6177777581119 55.5692674828362  15.7378741568539 45.5184841158448  15.7378741568539 45.5184841158448  C 15.7378741568539 45.5184841158448  18.6039133747612 43.5190534993991  18.6039133747612 43.5190534993991  C 18.6039133747612 43.5190534993991  10.3803277097046 29.0081754504891  10.3803277097046 29.0081754504891  C 10.3803277097046 29.0081754504891  0.336074377386012 21.3779339359324  0.336074377386012 21.3779339359324  C 0.336074377386012 21.3779339359324  1.70242563234842 16.9339693396603  1.70242563234842 16.9339693396603  C 1.70242563234842 16.9339693396603  2.90673102689033 15.5045617498855  2.90673102689033 15.5045617498855  C 2.90673102689033 15.5045617498855  17.6398332557517 13.5407323224725  17.6398332557517 13.5407323224725  C 17.6398332557517 13.5407323224725  27.3997070780906 16.296050952483  27.3997070780906 16.296050952483  C 27.3997070780906 16.296050952483  33.1139034189562 14.591168900012  33.1139034189562 14.591168900012  C 33.1139034189562 14.591168900012  35.3575863323168 18.0409492174296  35.3575863323168 18.0409492174296  C 35.3575863323168 18.0409492174296  42.5519695325816 24.9476308900756  42.5519695325816 24.9476308900756  C 42.5519695325816 24.9476308900756  48.2629998566364 23.9647496712373  48.2629998566364 23.9647496712373  C 48.2629998566364 23.9647496712373  48.2754799229022 19.8047275826244  48.2754799229022 19.8047275826244  C 48.2754799229022 19.8047275826244  49.7836689309855 17.0822131267954  49.7836689309855 17.0822131267954  C 49.7836689309855 17.0822131267954  55.5031432998759 14.9513408124291  55.5031432998759 14.9513408124291  C 55.5031432998759 14.9513408124291  57.592831395565 18.3986591167741  57.592831395565 18.3986591167741  C 57.592831395565 18.3986591167741  60.8997489544192 16.1085469568865  60.8997489544192 16.1085469568865  C 60.8997489544192 16.1085469568865  65.5570486834444 16.6975270842146  65.5570486834444 16.6975270842146  Z " fill-rule="evenodd" />
    </mask>
  </defs>
  <g transform="matrix(1 0 0 1 -1029 -436 )">
    <path d="M 65.5570486834444 16.6975270842146  C 65.5570486834444 16.6975270842146  65.5688977463597 16.414558581727  65.5688977463597 16.414558581727  C 65.5688977463597 16.414558581727  67.8405468082131 11.5423037113471  67.8405468082131 11.5423037113471  C 67.8405468082131 11.5423037113471  65.2896962638739 8.81361222271977  65.2896962638739 8.81361222271977  C 65.2896962638739 8.81361222271977  64.8531769460722 4.65124312164494  64.8531769460722 4.65124312164494  C 64.8531769460722 4.65124312164494  73.8804088782772 0.95027147046801  73.8804088782772 0.95027147046801  C 73.8804088782772 0.95027147046801  76.1344208464824 0.957033506372625  76.1344208464824 0.957033506372625  C 76.1344208464824 0.957033506372625  77.4749659644211 4.11510027486867  77.4749659644211 4.11510027486867  C 77.4749659644211 4.11510027486867  77.9129142898104 8.1344716166634  77.9129142898104 8.1344716166634  C 77.9129142898104 8.1344716166634  82.2653303999844 11.0165699198403  82.2653303999844 11.0165699198403  C 82.2653303999844 11.0165699198403  88.4440192071817 16.4831839461094  88.4440192071817 16.4831839461094  C 88.4440192071817 16.4831839461094  91.7580698039105 14.4820973208707  91.7580698039105 14.4820973208707  C 91.7580698039105 14.4820973208707  93.858047954237 16.4994260323506  93.858047954237 16.4994260323506  C 93.858047954237 16.4994260323506  94.5947018656736 21.9517139825521  94.5947018656736 21.9517139825521  C 94.5947018656736 21.9517139825521  98.2004130110426 24.3985659746867  98.2004130110426 24.3985659746867  C 98.2004130110426 24.3985659746867  107.515305470649 25.1455209408192  107.515305470649 25.1455209408192  C 107.515305470649 25.1455209408192  109.020482462739 23.427011815992  109.020482462739 23.427011815992  C 109.020482462739 23.427011815992  108.579788122769 20.9896548742738  108.579788122769 20.9896548742738  C 108.579788122769 20.9896548742738  113.992692863856 19.7138751002219  113.992692863856 19.7138751002219  C 113.992692863856 19.7138751002219  116.996986815859 20.2968961959091  116.996986815859 20.2968961959091  C 116.996986815859 20.2968961959091  117.287526358547 23.4518129476795  117.287526358547 23.4518129476795  C 117.287526358547 23.4518129476795  119.8396789098 23.7464735122488  119.8396789098 23.7464735122488  C 119.8396789098 23.7464735122488  129.160888402947 22.0544125278541  129.160888402947 22.0544125278541  C 129.160888402947 22.0544125278541  130.965749986283 22.7758373584285  130.965749986283 22.7758373584285  C 130.965749986283 22.7758373584285  131.408432336809 25.2172003214176  131.408432336809 25.2172003214176  C 131.408432336809 25.2172003214176  135.311435060717 26.2349237252587  135.311435060717 26.2349237252587  C 135.311435060717 26.2349237252587  143.566871894895 30.1287454004181  143.566871894895 30.1287454004181  C 143.566871894895 30.1287454004181  148.229059649874 28.4217073364992  148.229059649874 28.4217073364992  C 148.229059649874 28.4217073364992  158.434778839534 31.8973737913653  158.434778839534 31.8973737913653  C 158.434778839534 31.8973737913653  160.533623983844 34.6257092781024  160.533623983844 34.6257092781024  C 160.533623983844 34.6257092781024  165.644651122041 33.6410280497065  165.644651122041 33.6410280497065  C 165.644651122041 33.6410280497065  168.799800875049 33.9394976345007  168.799800875049 33.9394976345007  C 168.799800875049 33.9394976345007  172.087344331032 38.1074197650607  172.087344331032 38.1074197650607  C 172.087344331032 38.1074197650607  173.416690389507 45.9985206647115  173.416690389507 45.9985206647115  C 173.416690389507 45.9985206647115  172.358503770817 48.7223851277087  172.358503770817 48.7223851277087  C 172.358503770817 48.7223851277087  170.260649631768 47.9970812765378  170.260649631768 47.9970812765378  C 170.260649631768 47.9970812765378  164.085843845189 52.569622555518  164.085843845189 52.569622555518  C 164.085843845189 52.569622555518  153.562627969706 54.2580775207657  153.562627969706 54.2580775207657  C 153.562627969706 54.2580775207657  150.701437777546 56.9745329444228  150.701437777546 56.9745329444228  C 150.701437777546 56.9745329444228  152.945274691724 59.7063034493989  152.945274691724 59.7063034493989  C 152.945274691724 59.7063034493989  153.226175183231 66.074237261437  153.226175183231 66.074237261437  C 153.226175183231 66.074237261437  156.083030352374 66.802818130008  156.083030352374 66.802818130008  C 156.083030352374 66.802818130008  163.266250493366 75.43049094066  163.266250493366 75.43049094066  C 163.266250493366 75.43049094066  163.686268723551 86.7599130968839  163.686268723551 86.7599130968839  C 163.686268723551 86.7599130968839  158.867923139415 90.1855072858795  158.867923139415 90.1855072858795  C 158.867923139415 90.1855072858795  154.67236586212 86.0178611567851  154.67236586212 86.0178611567851  C 154.67236586212 86.0178611567851  150.631836407981 80.8416656725613  150.631836407981 80.8416656725613  C 150.631836407981 80.8416656725613  150.336296838744 77.6867339207113  150.336296838744 77.6867339207113  C 150.336296838744 77.6867339207113  147.486015704508 77.1001748062381  147.486015704508 77.1001748062381  C 147.486015704508 77.1001748062381  144.175998129194 78.0902590633227  144.175998129194 78.0902590633227  C 144.175998129194 78.0902590633227  138.77027142622 75.640007053135  138.77027142622 75.640007053135  C 138.77027142622 75.640007053135  136.191632734333 81.5073552071959  136.191632734333 81.5073552071959  C 136.191632734333 81.5073552071959  131.530743986251 81.7813766621771  131.530743986251 81.7813766621771  C 131.530743986251 81.7813766621771  128.210098354505 86.6474844999178  128.210098354505 86.6474844999178  C 128.210098354505 86.6474844999178  126.113087219932 85.6411791567036  126.113087219932 85.6411791567036  C 126.113087219932 85.6411791567036  122.803069644618 86.6312634137881  122.803069644618 86.6312634137881  C 122.803069644618 86.6312634137881  117.855218372841 83.8913808657392  117.855218372841 83.8913808657392  C 117.855218372841 83.8913808657392  113.78485276028 88.3272334189385  113.78485276028 88.3272334189385  C 113.78485276028 88.3272334189385  113.778834728326 90.3332440703225  113.778834728326 90.3332440703225  C 113.778834728326 90.3332440703225  121.729396943701 94.5171552857803  121.729396943701 94.5171552857803  C 121.729396943701 94.5171552857803  123.519941451017 97.6775720667544  123.519941451017 97.6775720667544  C 123.519941451017 97.6775720667544  117.805893110937 99.6664586272139  117.805893110937 99.6664586272139  C 117.805893110937 99.6664586272139  109.089707830307 99.3533059644565  109.089707830307 99.3533059644565  C 109.089707830307 99.3533059644565  108.050019309837 95.9111376874567  108.050019309837 95.9111376874567  C 108.050019309837 95.9111376874567  104.74645176877 94.7512105285515  104.74645176877 94.7512105285515  C 104.74645176877 94.7512105285515  99.3249489820299 97.8929912105729  99.3249489820299 97.8929912105729  C 99.3249489820299 97.8929912105729  95.7300898942825 96.1621820204355  95.7300898942825 96.1621820204355  C 95.7300898942825 96.1621820204355  95.443438372239 91.7112583872127  95.443438372239 91.7112583872127  C 95.443438372239 91.7112583872127  93.6498818489301 89.5548469372403  93.6498818489301 89.5548469372403  C 93.6498818489301 89.5548469372403  93.6567818855675 87.2548347247861  93.6567818855675 87.2548347247861  C 93.6567818855675 87.2548347247861  88.5521897815386 86.0945045637411  88.5521897815386 86.0945045637411  C 88.5521897815386 86.0945045637411  87.1918835586737 87.5234441510309  87.1918835586737 87.5234441510309  C 87.1918835586737 87.5234441510309  87.9365585126999 90.9687274445705  87.9365585126999 90.9687274445705  C 87.9365585126999 90.9687274445705  83.3843743418104 92.6750955049319  83.3843743418104 92.6750955049319  C 83.3843743418104 92.6750955049319  82.3230607065169 95.1079464227244  82.3230607065169 95.1079464227244  C 82.3230607065169 95.1079464227244  83.3680182549639 98.1271244537582  83.3680182549639 98.1271244537582  C 83.3680182549639 98.1271244537582  74.3218562222452 108.138129609538  74.3218562222452 108.138129609538  C 74.3218562222452 108.138129609538  75.7865839995608 119.902692076241  75.7865839995608 119.902692076241  C 75.7865839995608 119.902692076241  71.4162377941827 123.330630277683  71.4162377941827 123.330630277683  C 71.4162377941827 123.330630277683  69.3226706778971 121.176318838861  69.3226706778971 121.176318838861  C 69.3226706778971 121.176318838861  60.5939993309697 126.025202585146  60.5939993309697 126.025202585146  C 60.5939993309697 126.025202585146  57.299147836183 124.293293389168  57.299147836183 124.293293389168  C 57.299147836183 124.293293389168  44.7463511841653 101.165304585688  44.7463511841653 101.165304585688  C 44.7463511841653 101.165304585688  39.7946478919354 97.7094002357535  39.7946478919354 97.7094002357535  C 39.7946478919354 97.7094002357535  35.7396263608476 96.6972208613498  35.7396263608476 96.6972208613498  C 35.7396263608476 96.6972208613498  33.9490908535794 93.5338040644464  33.9490908535794 93.5338040644464  C 33.9490908535794 93.5338040644464  36.214428881923 90.0985508241637  36.214428881923 90.0985508241637  C 36.214428881923 90.0985508241637  32.6145787676746 87.3647123082069  32.6145787676746 87.3647123082069  C 32.6145787676746 87.3647123082069  28.2472265781939 90.794659520316  28.2472265781939 90.794659520316  C 28.2472265781939 90.794659520316  23.8900584427878 91.4965982474243  23.8900584427878 91.4965982474243  C 23.8900584427878 91.4965982474243  21.0474713494053 79.0118919569485  21.0474713494053 79.0118919569485  C 21.0474713494053 79.0118919569485  20.3035003991171 75.9986169572583  20.3035003991171 75.9986169572583  C 20.3035003991171 75.9986169572583  19.6177777581119 55.5692674828362  19.6177777581119 55.5692674828362  C 19.6177777581119 55.5692674828362  15.7378741568539 45.5184841158448  15.7378741568539 45.5184841158448  C 15.7378741568539 45.5184841158448  18.6039133747612 43.5190534993991  18.6039133747612 43.5190534993991  C 18.6039133747612 43.5190534993991  10.3803277097046 29.0081754504891  10.3803277097046 29.0081754504891  C 10.3803277097046 29.0081754504891  0.336074377386012 21.3779339359324  0.336074377386012 21.3779339359324  C 0.336074377386012 21.3779339359324  1.70242563234842 16.9339693396603  1.70242563234842 16.9339693396603  C 1.70242563234842 16.9339693396603  2.90673102689033 15.5045617498855  2.90673102689033 15.5045617498855  C 2.90673102689033 15.5045617498855  17.6398332557517 13.5407323224725  17.6398332557517 13.5407323224725  C 17.6398332557517 13.5407323224725  27.3997070780906 16.296050952483  27.3997070780906 16.296050952483  C 27.3997070780906 16.296050952483  33.1139034189562 14.591168900012  33.1139034189562 14.591168900012  C 33.1139034189562 14.591168900012  35.3575863323168 18.0409492174296  35.3575863323168 18.0409492174296  C 35.3575863323168 18.0409492174296  42.5519695325816 24.9476308900756  42.5519695325816 24.9476308900756  C 42.5519695325816 24.9476308900756  48.2629998566364 23.9647496712373  48.2629998566364 23.9647496712373  C 48.2629998566364 23.9647496712373  48.2754799229022 19.8047275826244  48.2754799229022 19.8047275826244  C 48.2754799229022 19.8047275826244  49.7836689309855 17.0822131267954  49.7836689309855 17.0822131267954  C 49.7836689309855 17.0822131267954  55.5031432998759 14.9513408124291  55.5031432998759 14.9513408124291  C 55.5031432998759 14.9513408124291  57.592831395565 18.3986591167741  57.592831395565 18.3986591167741  C 57.592831395565 18.3986591167741  60.8997489544192 16.1085469568865  60.8997489544192 16.1085469568865  C 60.8997489544192 16.1085469568865  65.5570486834444 16.6975270842146  65.5570486834444 16.6975270842146  Z " fill-rule="nonzero" fill="#184799" stroke="none" transform="matrix(1 0 0 1 1029 436 )" />
    <path d="M 65.5570486834444 16.6975270842146  C 65.5570486834444 16.6975270842146  65.5688977463597 16.414558581727  65.5688977463597 16.414558581727  C 65.5688977463597 16.414558581727  67.8405468082131 11.5423037113471  67.8405468082131 11.5423037113471  C 67.8405468082131 11.5423037113471  65.2896962638739 8.81361222271977  65.2896962638739 8.81361222271977  C 65.2896962638739 8.81361222271977  64.8531769460722 4.65124312164494  64.8531769460722 4.65124312164494  C 64.8531769460722 4.65124312164494  73.8804088782772 0.95027147046801  73.8804088782772 0.95027147046801  C 73.8804088782772 0.95027147046801  76.1344208464824 0.957033506372625  76.1344208464824 0.957033506372625  C 76.1344208464824 0.957033506372625  77.4749659644211 4.11510027486867  77.4749659644211 4.11510027486867  C 77.4749659644211 4.11510027486867  77.9129142898104 8.1344716166634  77.9129142898104 8.1344716166634  C 77.9129142898104 8.1344716166634  82.2653303999844 11.0165699198403  82.2653303999844 11.0165699198403  C 82.2653303999844 11.0165699198403  88.4440192071817 16.4831839461094  88.4440192071817 16.4831839461094  C 88.4440192071817 16.4831839461094  91.7580698039105 14.4820973208707  91.7580698039105 14.4820973208707  C 91.7580698039105 14.4820973208707  93.858047954237 16.4994260323506  93.858047954237 16.4994260323506  C 93.858047954237 16.4994260323506  94.5947018656736 21.9517139825521  94.5947018656736 21.9517139825521  C 94.5947018656736 21.9517139825521  98.2004130110426 24.3985659746867  98.2004130110426 24.3985659746867  C 98.2004130110426 24.3985659746867  107.515305470649 25.1455209408192  107.515305470649 25.1455209408192  C 107.515305470649 25.1455209408192  109.020482462739 23.427011815992  109.020482462739 23.427011815992  C 109.020482462739 23.427011815992  108.579788122769 20.9896548742738  108.579788122769 20.9896548742738  C 108.579788122769 20.9896548742738  113.992692863856 19.7138751002219  113.992692863856 19.7138751002219  C 113.992692863856 19.7138751002219  116.996986815859 20.2968961959091  116.996986815859 20.2968961959091  C 116.996986815859 20.2968961959091  117.287526358547 23.4518129476795  117.287526358547 23.4518129476795  C 117.287526358547 23.4518129476795  119.8396789098 23.7464735122488  119.8396789098 23.7464735122488  C 119.8396789098 23.7464735122488  129.160888402947 22.0544125278541  129.160888402947 22.0544125278541  C 129.160888402947 22.0544125278541  130.965749986283 22.7758373584285  130.965749986283 22.7758373584285  C 130.965749986283 22.7758373584285  131.408432336809 25.2172003214176  131.408432336809 25.2172003214176  C 131.408432336809 25.2172003214176  135.311435060717 26.2349237252587  135.311435060717 26.2349237252587  C 135.311435060717 26.2349237252587  143.566871894895 30.1287454004181  143.566871894895 30.1287454004181  C 143.566871894895 30.1287454004181  148.229059649874 28.4217073364992  148.229059649874 28.4217073364992  C 148.229059649874 28.4217073364992  158.434778839534 31.8973737913653  158.434778839534 31.8973737913653  C 158.434778839534 31.8973737913653  160.533623983844 34.6257092781024  160.533623983844 34.6257092781024  C 160.533623983844 34.6257092781024  165.644651122041 33.6410280497065  165.644651122041 33.6410280497065  C 165.644651122041 33.6410280497065  168.799800875049 33.9394976345007  168.799800875049 33.9394976345007  C 168.799800875049 33.9394976345007  172.087344331032 38.1074197650607  172.087344331032 38.1074197650607  C 172.087344331032 38.1074197650607  173.416690389507 45.9985206647115  173.416690389507 45.9985206647115  C 173.416690389507 45.9985206647115  172.358503770817 48.7223851277087  172.358503770817 48.7223851277087  C 172.358503770817 48.7223851277087  170.260649631768 47.9970812765378  170.260649631768 47.9970812765378  C 170.260649631768 47.9970812765378  164.085843845189 52.569622555518  164.085843845189 52.569622555518  C 164.085843845189 52.569622555518  153.562627969706 54.2580775207657  153.562627969706 54.2580775207657  C 153.562627969706 54.2580775207657  150.701437777546 56.9745329444228  150.701437777546 56.9745329444228  C 150.701437777546 56.9745329444228  152.945274691724 59.7063034493989  152.945274691724 59.7063034493989  C 152.945274691724 59.7063034493989  153.226175183231 66.074237261437  153.226175183231 66.074237261437  C 153.226175183231 66.074237261437  156.083030352374 66.802818130008  156.083030352374 66.802818130008  C 156.083030352374 66.802818130008  163.266250493366 75.43049094066  163.266250493366 75.43049094066  C 163.266250493366 75.43049094066  163.686268723551 86.7599130968839  163.686268723551 86.7599130968839  C 163.686268723551 86.7599130968839  158.867923139415 90.1855072858795  158.867923139415 90.1855072858795  C 158.867923139415 90.1855072858795  154.67236586212 86.0178611567851  154.67236586212 86.0178611567851  C 154.67236586212 86.0178611567851  150.631836407981 80.8416656725613  150.631836407981 80.8416656725613  C 150.631836407981 80.8416656725613  150.336296838744 77.6867339207113  150.336296838744 77.6867339207113  C 150.336296838744 77.6867339207113  147.486015704508 77.1001748062381  147.486015704508 77.1001748062381  C 147.486015704508 77.1001748062381  144.175998129194 78.0902590633227  144.175998129194 78.0902590633227  C 144.175998129194 78.0902590633227  138.77027142622 75.640007053135  138.77027142622 75.640007053135  C 138.77027142622 75.640007053135  136.191632734333 81.5073552071959  136.191632734333 81.5073552071959  C 136.191632734333 81.5073552071959  131.530743986251 81.7813766621771  131.530743986251 81.7813766621771  C 131.530743986251 81.7813766621771  128.210098354505 86.6474844999178  128.210098354505 86.6474844999178  C 128.210098354505 86.6474844999178  126.113087219932 85.6411791567036  126.113087219932 85.6411791567036  C 126.113087219932 85.6411791567036  122.803069644618 86.6312634137881  122.803069644618 86.6312634137881  C 122.803069644618 86.6312634137881  117.855218372841 83.8913808657392  117.855218372841 83.8913808657392  C 117.855218372841 83.8913808657392  113.78485276028 88.3272334189385  113.78485276028 88.3272334189385  C 113.78485276028 88.3272334189385  113.778834728326 90.3332440703225  113.778834728326 90.3332440703225  C 113.778834728326 90.3332440703225  121.729396943701 94.5171552857803  121.729396943701 94.5171552857803  C 121.729396943701 94.5171552857803  123.519941451017 97.6775720667544  123.519941451017 97.6775720667544  C 123.519941451017 97.6775720667544  117.805893110937 99.6664586272139  117.805893110937 99.6664586272139  C 117.805893110937 99.6664586272139  109.089707830307 99.3533059644565  109.089707830307 99.3533059644565  C 109.089707830307 99.3533059644565  108.050019309837 95.9111376874567  108.050019309837 95.9111376874567  C 108.050019309837 95.9111376874567  104.74645176877 94.7512105285515  104.74645176877 94.7512105285515  C 104.74645176877 94.7512105285515  99.3249489820299 97.8929912105729  99.3249489820299 97.8929912105729  C 99.3249489820299 97.8929912105729  95.7300898942825 96.1621820204355  95.7300898942825 96.1621820204355  C 95.7300898942825 96.1621820204355  95.443438372239 91.7112583872127  95.443438372239 91.7112583872127  C 95.443438372239 91.7112583872127  93.6498818489301 89.5548469372403  93.6498818489301 89.5548469372403  C 93.6498818489301 89.5548469372403  93.6567818855675 87.2548347247861  93.6567818855675 87.2548347247861  C 93.6567818855675 87.2548347247861  88.5521897815386 86.0945045637411  88.5521897815386 86.0945045637411  C 88.5521897815386 86.0945045637411  87.1918835586737 87.5234441510309  87.1918835586737 87.5234441510309  C 87.1918835586737 87.5234441510309  87.9365585126999 90.9687274445705  87.9365585126999 90.9687274445705  C 87.9365585126999 90.9687274445705  83.3843743418104 92.6750955049319  83.3843743418104 92.6750955049319  C 83.3843743418104 92.6750955049319  82.3230607065169 95.1079464227244  82.3230607065169 95.1079464227244  C 82.3230607065169 95.1079464227244  83.3680182549639 98.1271244537582  83.3680182549639 98.1271244537582  C 83.3680182549639 98.1271244537582  74.3218562222452 108.138129609538  74.3218562222452 108.138129609538  C 74.3218562222452 108.138129609538  75.7865839995608 119.902692076241  75.7865839995608 119.902692076241  C 75.7865839995608 119.902692076241  71.4162377941827 123.330630277683  71.4162377941827 123.330630277683  C 71.4162377941827 123.330630277683  69.3226706778971 121.176318838861  69.3226706778971 121.176318838861  C 69.3226706778971 121.176318838861  60.5939993309697 126.025202585146  60.5939993309697 126.025202585146  C 60.5939993309697 126.025202585146  57.299147836183 124.293293389168  57.299147836183 124.293293389168  C 57.299147836183 124.293293389168  44.7463511841653 101.165304585688  44.7463511841653 101.165304585688  C 44.7463511841653 101.165304585688  39.7946478919354 97.7094002357535  39.7946478919354 97.7094002357535  C 39.7946478919354 97.7094002357535  35.7396263608476 96.6972208613498  35.7396263608476 96.6972208613498  C 35.7396263608476 96.6972208613498  33.9490908535794 93.5338040644464  33.9490908535794 93.5338040644464  C 33.9490908535794 93.5338040644464  36.214428881923 90.0985508241637  36.214428881923 90.0985508241637  C 36.214428881923 90.0985508241637  32.6145787676746 87.3647123082069  32.6145787676746 87.3647123082069  C 32.6145787676746 87.3647123082069  28.2472265781939 90.794659520316  28.2472265781939 90.794659520316  C 28.2472265781939 90.794659520316  23.8900584427878 91.4965982474243  23.8900584427878 91.4965982474243  C 23.8900584427878 91.4965982474243  21.0474713494053 79.0118919569485  21.0474713494053 79.0118919569485  C 21.0474713494053 79.0118919569485  20.3035003991171 75.9986169572583  20.3035003991171 75.9986169572583  C 20.3035003991171 75.9986169572583  19.6177777581119 55.5692674828362  19.6177777581119 55.5692674828362  C 19.6177777581119 55.5692674828362  15.7378741568539 45.5184841158448  15.7378741568539 45.5184841158448  C 15.7378741568539 45.5184841158448  18.6039133747612 43.5190534993991  18.6039133747612 43.5190534993991  C 18.6039133747612 43.5190534993991  10.3803277097046 29.0081754504891  10.3803277097046 29.0081754504891  C 10.3803277097046 29.0081754504891  0.336074377386012 21.3779339359324  0.336074377386012 21.3779339359324  C 0.336074377386012 21.3779339359324  1.70242563234842 16.9339693396603  1.70242563234842 16.9339693396603  C 1.70242563234842 16.9339693396603  2.90673102689033 15.5045617498855  2.90673102689033 15.5045617498855  C 2.90673102689033 15.5045617498855  17.6398332557517 13.5407323224725  17.6398332557517 13.5407323224725  C 17.6398332557517 13.5407323224725  27.3997070780906 16.296050952483  27.3997070780906 16.296050952483  C 27.3997070780906 16.296050952483  33.1139034189562 14.591168900012  33.1139034189562 14.591168900012  C 33.1139034189562 14.591168900012  35.3575863323168 18.0409492174296  35.3575863323168 18.0409492174296  C 35.3575863323168 18.0409492174296  42.5519695325816 24.9476308900756  42.5519695325816 24.9476308900756  C 42.5519695325816 24.9476308900756  48.2629998566364 23.9647496712373  48.2629998566364 23.9647496712373  C 48.2629998566364 23.9647496712373  48.2754799229022 19.8047275826244  48.2754799229022 19.8047275826244  C 48.2754799229022 19.8047275826244  49.7836689309855 17.0822131267954  49.7836689309855 17.0822131267954  C 49.7836689309855 17.0822131267954  55.5031432998759 14.9513408124291  55.5031432998759 14.9513408124291  C 55.5031432998759 14.9513408124291  57.592831395565 18.3986591167741  57.592831395565 18.3986591167741  C 57.592831395565 18.3986591167741  60.8997489544192 16.1085469568865  60.8997489544192 16.1085469568865  C 60.8997489544192 16.1085469568865  65.5570486834444 16.6975270842146  65.5570486834444 16.6975270842146  Z " stroke-width="0.97600957434184" stroke="#199eae" fill="none" transform="matrix(1 0 0 1 1029 436 )" mask="url(#clip1466)" />
  </g>
</svg>