<?xml version="1.0" encoding="utf-8"?>
<svg version="1.1" xmlns:xlink="http://www.w3.org/1999/xlink" width="78px" height="83px" xmlns="http://www.w3.org/2000/svg">
  <defs>
    <mask fill="white" id="clip1463">
      <path d="M 73.8321078695994 19.1432243445541  C 73.8321078695994 19.1432243445541  69.6447076356158 11.2565494684043  69.6447076356158 11.2565494684043  C 69.6447076356158 11.2565494684043  66.3408380929457 10.5306276139519  66.3408380929457 10.5306276139519  C 66.3408380929457 10.5306276139519  64.8418541337389 8.5181019279749  64.8418541337389 8.5181019279749  C 64.8418541337389 8.5181019279749  64.8564822114101 3.64207603757194  64.8564822114101 3.64207603757194  C 64.8564822114101 3.64207603757194  63.0637956927206 1.19566304776845  63.0637956927206 1.19566304776845  C 63.0637956927206 1.19566304776845  59.4534415226984 4.62988128255557  59.4534415226984 4.62988128255557  C 59.4534415226984 4.62988128255557  57.6401178944313 7.06247619898869  57.6401178944313 7.06247619898869  C 57.6401178944313 7.06247619898869  55.2401051510009 7.05527616075841  55.2401051510009 7.05527616075841  C 55.2401051510009 7.05527616075841  54.5012822280473 3.3260063593259  54.5012822280473 3.3260063593259  C 54.5012822280473 3.3260063593259  51.1892646421132 4.31608461637853  51.1892646421132 4.31608461637853  C 51.1892646421132 4.31608461637853  46.8240664640697 7.02802801607805  46.8240664640697 7.02802801607805  C 46.8240664640697 7.02802801607805  43.972211321476 5.2994478377762  43.972211321476 5.2994478377762  C 43.972211321476 5.2994478377762  37.7873654815866 1.55183993897322  37.7873654815866 1.55183993897322  C 37.7873654815866 1.55183993897322  21.1102769306739 0.501794363509987  21.1102769306739 0.501794363509987  C 21.1102769306739 0.501794363509987  19.3001073191538 2.21638846754951  19.3001073191538 2.21638846754951  C 19.3001073191538 2.21638846754951  22.5959408191547 5.95432931502302  22.5959408191547 5.95432931502302  C 22.5959408191547 5.95432931502302  18.6816060350762 8.38062119798877  18.6816060350762 8.38062119798877  C 18.6816060350762 8.38062119798877  12.5258873498443 5.92411915461509  12.5258873498443 5.92411915461509  C 12.5258873498443 5.92411915461509  6.05036396653429 11.0677664660167  6.05036396653429 11.0677664660167  C 6.05036396653429 11.0677664660167  3.78272092595176 15.9380333258408  3.78272092595176 15.9380333258408  C 3.78272092595176 15.9380333258408  4.20073914551756 27.2674494820328  4.20073914551756 27.2674494820328  C 4.20073914551756 27.2674494820328  7.31960570587091 39.3269785149303  7.31960570587091 39.3269785149303  C 7.31960570587091 39.3269785149303  0.0833032830262255 47.3933853454091  0.0833032830262255 47.3933853454091  C 0.0833032830262255 47.3933853454091  0.831307254728699 48.3956436671347  0.831307254728699 48.3956436671347  C 0.831307254728699 48.3956436671347  7.29750458851987 46.6940176319522  7.29750458851987 46.6940176319522  C 7.29750458851987 46.6940176319522  9.54333551328585 49.4277941475797  9.54333551328585 49.4277941475797  C 9.54333551328585 49.4277941475797  7.71752581872113 58.0224397828663  7.71752581872113 58.0224397828663  C 7.71752581872113 58.0224397828663  11.3050378674577 64.2022905962334  11.3050378674577 64.2022905962334  C 11.3050378674577 64.2022905962334  14.9080569985327 65.2131139634372  14.9080569985327 65.2131139634372  C 14.9080569985327 65.2131139634372  18.529281226272 60.4889098791677  18.529281226272 60.4889098791677  C 18.529281226272 60.4889098791677  20.3180887243649 64.2283297344943  20.3180887243649 64.2283297344943  C 20.3180887243649 64.2283297344943  21.3749583360619 63.943496222104  21.3749583360619 63.943496222104  C 21.3749583360619 63.943496222104  27.1004837370817 58.7955988881358  27.1004837370817 58.7955988881358  C 27.1004837370817 58.7955988881358  28.5996216971063 59.090100451861  28.5996216971063 59.090100451861  C 28.5996216971063 59.090100451861  31.1555142682174 57.8047496269893  31.1555142682174 57.8047496269893  C 31.1555142682174 57.8047496269893  35.8106599858052 59.1117335667271  35.8106599858052 59.1117335667271  C 35.8106599858052 59.1117335667271  35.7960349081499 63.9867594518203  35.7960349081499 63.9867594518203  C 35.7960349081499 63.9867594518203  39.8899026455008 64.7170513294762  39.8899026455008 64.7170513294762  C 39.8899026455008 64.7170513294762  38.8227039789592 69.4449174331901  38.8227039789592 69.4449174331901  C 38.8227039789592 69.4449174331901  35.0131797513969 74.601562813608  35.0131797513969 74.601562813608  C 35.0131797513969 74.601562813608  33.4998487160108 79.0380863703703  33.4998487160108 79.0380863703703  C 33.4998487160108 79.0380863703703  34.9998566806549 79.0425863942642  34.9998566806549 79.0425863942642  C 34.9998566806549 79.0425863942642  39.4082000877881 75.6157621987375  39.4082000877881 75.6157621987375  C 39.4082000877881 75.6157621987375  42.6925685269126 82.5087137984805  42.6925685269126 82.5087137984805  C 42.6925685269126 82.5087137984805  45.2517451154608 80.7953667010622  45.2517451154608 80.7953667010622  C 45.2517451154608 80.7953667010622  48.1067602748334 80.8039317465403  48.1067602748334 80.8039317465403  C 48.1067602748334 80.8039317465403  50.9668024608981 78.8034831246893  50.9668024608981 78.8034831246893  C 50.9668024608981 78.8034831246893  50.9792675270842 74.6484610626252  50.9792675270842 74.6484610626252  C 50.9792675270842 74.6484610626252  52.4831545123249 73.359954220996  52.4831545123249 73.359954220996  C 52.4831545123249 73.359954220996  56.0823246229627 73.6537557810043  56.0823246229627 73.6537557810043  C 56.0823246229627 73.6537557810043  62.2361762982813 76.3992563588835  62.2361762982813 76.3992563588835  C 62.2361762982813 76.3992563588835  63.2941999161058 74.3964017242571  63.2941999161058 74.3964017242571  C 63.2941999161058 74.3964017242571  61.8015119903292 71.9518887445421  61.8015119903292 71.9518887445421  C 61.8015119903292 71.9518887445421  62.2536713911756 70.2342206241805  62.2536713911756 70.2342206241805  C 62.2536713911756 70.2342206241805  66.1741602079304 67.0899369288688  66.1741602079304 67.0899369288688  C 66.1741602079304 67.0899369288688  73.0840368975411 68.8306911718117  73.0840368975411 68.8306911718117  C 73.0840368975411 68.8306911718117  76.9979576794215 66.5424000215932  76.9979576794215 66.5424000215932  C 76.9979576794215 66.5424000215932  75.4992577217225 64.1018690630218  75.4992577217225 64.1018690630218  C 75.4992577217225 64.1018690630218  77.0220388072859 58.515357400128  77.0220388072859 58.515357400128  C 77.0220388072859 58.515357400128  76.7465743446427 50.3354139668  76.7465743446427 50.3354139668  C 76.7465743446427 50.3354139668  74.1925607835086 49.3277376163061  74.1925607835086 49.3277376163061  C 74.1925607835086 49.3277376163061  71.9553489045076 43.7209458457303  71.9553489045076 43.7209458457303  C 71.9553489045076 43.7209458457303  71.9710059876426 38.5019181340787  71.9710059876426 38.5019181340787  C 71.9710059876426 38.5019181340787  70.9191514025739 37.7817523101894  70.9191514025739 37.7817523101894  C 70.9191514025739 37.7817523101894  69.1169908335797 38.4933560886166  69.1169908335797 38.4933560886166  C 69.1169908335797 38.4933560886166  68.068435266028 37.3401939656318  68.068435266028 37.3401939656318  C 68.068435266028 37.3401939656318  68.8398073618092 29.8864013879721  68.8398073618092 29.8864013879721  C 68.8398073618092 29.8864013879721  72.0051441689072 27.4558624824558  72.0051441689072 27.4558624824558  C 72.0051441689072 27.4558624824558  74.2716302033465 23.3046024403671  74.2716302033465 23.3046024403671  C 74.2716302033465 23.3046024403671  73.8321078695994 19.1432243445541  73.8321078695994 19.1432243445541  Z " fill-rule="evenodd" />
    </mask>
  </defs>
  <g transform="matrix(1 0 0 1 -1188 -495 )">
    <path d="M 73.8321078695994 19.1432243445541  C 73.8321078695994 19.1432243445541  69.6447076356158 11.2565494684043  69.6447076356158 11.2565494684043  C 69.6447076356158 11.2565494684043  66.3408380929457 10.5306276139519  66.3408380929457 10.5306276139519  C 66.3408380929457 10.5306276139519  64.8418541337389 8.5181019279749  64.8418541337389 8.5181019279749  C 64.8418541337389 8.5181019279749  64.8564822114101 3.64207603757194  64.8564822114101 3.64207603757194  C 64.8564822114101 3.64207603757194  63.0637956927206 1.19566304776845  63.0637956927206 1.19566304776845  C 63.0637956927206 1.19566304776845  59.4534415226984 4.62988128255557  59.4534415226984 4.62988128255557  C 59.4534415226984 4.62988128255557  57.6401178944313 7.06247619898869  57.6401178944313 7.06247619898869  C 57.6401178944313 7.06247619898869  55.2401051510009 7.05527616075841  55.2401051510009 7.05527616075841  C 55.2401051510009 7.05527616075841  54.5012822280473 3.3260063593259  54.5012822280473 3.3260063593259  C 54.5012822280473 3.3260063593259  51.1892646421132 4.31608461637853  51.1892646421132 4.31608461637853  C 51.1892646421132 4.31608461637853  46.8240664640697 7.02802801607805  46.8240664640697 7.02802801607805  C 46.8240664640697 7.02802801607805  43.972211321476 5.2994478377762  43.972211321476 5.2994478377762  C 43.972211321476 5.2994478377762  37.7873654815866 1.55183993897322  37.7873654815866 1.55183993897322  C 37.7873654815866 1.55183993897322  21.1102769306739 0.501794363509987  21.1102769306739 0.501794363509987  C 21.1102769306739 0.501794363509987  19.3001073191538 2.21638846754951  19.3001073191538 2.21638846754951  C 19.3001073191538 2.21638846754951  22.5959408191547 5.95432931502302  22.5959408191547 5.95432931502302  C 22.5959408191547 5.95432931502302  18.6816060350762 8.38062119798877  18.6816060350762 8.38062119798877  C 18.6816060350762 8.38062119798877  12.5258873498443 5.92411915461509  12.5258873498443 5.92411915461509  C 12.5258873498443 5.92411915461509  6.05036396653429 11.0677664660167  6.05036396653429 11.0677664660167  C 6.05036396653429 11.0677664660167  3.78272092595176 15.9380333258408  3.78272092595176 15.9380333258408  C 3.78272092595176 15.9380333258408  4.20073914551756 27.2674494820328  4.20073914551756 27.2674494820328  C 4.20073914551756 27.2674494820328  7.31960570587091 39.3269785149303  7.31960570587091 39.3269785149303  C 7.31960570587091 39.3269785149303  0.0833032830262255 47.3933853454091  0.0833032830262255 47.3933853454091  C 0.0833032830262255 47.3933853454091  0.831307254728699 48.3956436671347  0.831307254728699 48.3956436671347  C 0.831307254728699 48.3956436671347  7.29750458851987 46.6940176319522  7.29750458851987 46.6940176319522  C 7.29750458851987 46.6940176319522  9.54333551328585 49.4277941475797  9.54333551328585 49.4277941475797  C 9.54333551328585 49.4277941475797  7.71752581872113 58.0224397828663  7.71752581872113 58.0224397828663  C 7.71752581872113 58.0224397828663  11.3050378674577 64.2022905962334  11.3050378674577 64.2022905962334  C 11.3050378674577 64.2022905962334  14.9080569985327 65.2131139634372  14.9080569985327 65.2131139634372  C 14.9080569985327 65.2131139634372  18.529281226272 60.4889098791677  18.529281226272 60.4889098791677  C 18.529281226272 60.4889098791677  20.3180887243649 64.2283297344943  20.3180887243649 64.2283297344943  C 20.3180887243649 64.2283297344943  21.3749583360619 63.943496222104  21.3749583360619 63.943496222104  C 21.3749583360619 63.943496222104  27.1004837370817 58.7955988881358  27.1004837370817 58.7955988881358  C 27.1004837370817 58.7955988881358  28.5996216971063 59.090100451861  28.5996216971063 59.090100451861  C 28.5996216971063 59.090100451861  31.1555142682174 57.8047496269893  31.1555142682174 57.8047496269893  C 31.1555142682174 57.8047496269893  35.8106599858052 59.1117335667271  35.8106599858052 59.1117335667271  C 35.8106599858052 59.1117335667271  35.7960349081499 63.9867594518203  35.7960349081499 63.9867594518203  C 35.7960349081499 63.9867594518203  39.8899026455008 64.7170513294762  39.8899026455008 64.7170513294762  C 39.8899026455008 64.7170513294762  38.8227039789592 69.4449174331901  38.8227039789592 69.4449174331901  C 38.8227039789592 69.4449174331901  35.0131797513969 74.601562813608  35.0131797513969 74.601562813608  C 35.0131797513969 74.601562813608  33.4998487160108 79.0380863703703  33.4998487160108 79.0380863703703  C 33.4998487160108 79.0380863703703  34.9998566806549 79.0425863942642  34.9998566806549 79.0425863942642  C 34.9998566806549 79.0425863942642  39.4082000877881 75.6157621987375  39.4082000877881 75.6157621987375  C 39.4082000877881 75.6157621987375  42.6925685269126 82.5087137984805  42.6925685269126 82.5087137984805  C 42.6925685269126 82.5087137984805  45.2517451154608 80.7953667010622  45.2517451154608 80.7953667010622  C 45.2517451154608 80.7953667010622  48.1067602748334 80.8039317465403  48.1067602748334 80.8039317465403  C 48.1067602748334 80.8039317465403  50.9668024608981 78.8034831246893  50.9668024608981 78.8034831246893  C 50.9668024608981 78.8034831246893  50.9792675270842 74.6484610626252  50.9792675270842 74.6484610626252  C 50.9792675270842 74.6484610626252  52.4831545123249 73.359954220996  52.4831545123249 73.359954220996  C 52.4831545123249 73.359954220996  56.0823246229627 73.6537557810043  56.0823246229627 73.6537557810043  C 56.0823246229627 73.6537557810043  62.2361762982813 76.3992563588835  62.2361762982813 76.3992563588835  C 62.2361762982813 76.3992563588835  63.2941999161058 74.3964017242571  63.2941999161058 74.3964017242571  C 63.2941999161058 74.3964017242571  61.8015119903292 71.9518887445421  61.8015119903292 71.9518887445421  C 61.8015119903292 71.9518887445421  62.2536713911756 70.2342206241805  62.2536713911756 70.2342206241805  C 62.2536713911756 70.2342206241805  66.1741602079304 67.0899369288688  66.1741602079304 67.0899369288688  C 66.1741602079304 67.0899369288688  73.0840368975411 68.8306911718117  73.0840368975411 68.8306911718117  C 73.0840368975411 68.8306911718117  76.9979576794215 66.5424000215932  76.9979576794215 66.5424000215932  C 76.9979576794215 66.5424000215932  75.4992577217225 64.1018690630218  75.4992577217225 64.1018690630218  C 75.4992577217225 64.1018690630218  77.0220388072859 58.515357400128  77.0220388072859 58.515357400128  C 77.0220388072859 58.515357400128  76.7465743446427 50.3354139668  76.7465743446427 50.3354139668  C 76.7465743446427 50.3354139668  74.1925607835086 49.3277376163061  74.1925607835086 49.3277376163061  C 74.1925607835086 49.3277376163061  71.9553489045076 43.7209458457303  71.9553489045076 43.7209458457303  C 71.9553489045076 43.7209458457303  71.9710059876426 38.5019181340787  71.9710059876426 38.5019181340787  C 71.9710059876426 38.5019181340787  70.9191514025739 37.7817523101894  70.9191514025739 37.7817523101894  C 70.9191514025739 37.7817523101894  69.1169908335797 38.4933560886166  69.1169908335797 38.4933560886166  C 69.1169908335797 38.4933560886166  68.068435266028 37.3401939656318  68.068435266028 37.3401939656318  C 68.068435266028 37.3401939656318  68.8398073618092 29.8864013879721  68.8398073618092 29.8864013879721  C 68.8398073618092 29.8864013879721  72.0051441689072 27.4558624824558  72.0051441689072 27.4558624824558  C 72.0051441689072 27.4558624824558  74.2716302033465 23.3046024403671  74.2716302033465 23.3046024403671  C 74.2716302033465 23.3046024403671  73.8321078695994 19.1432243445541  73.8321078695994 19.1432243445541  Z " fill-rule="nonzero" fill="#156fb8" stroke="none" transform="matrix(1 0 0 1 1188 495 )" />
    <path d="M 73.8321078695994 19.1432243445541  C 73.8321078695994 19.1432243445541  69.6447076356158 11.2565494684043  69.6447076356158 11.2565494684043  C 69.6447076356158 11.2565494684043  66.3408380929457 10.5306276139519  66.3408380929457 10.5306276139519  C 66.3408380929457 10.5306276139519  64.8418541337389 8.5181019279749  64.8418541337389 8.5181019279749  C 64.8418541337389 8.5181019279749  64.8564822114101 3.64207603757194  64.8564822114101 3.64207603757194  C 64.8564822114101 3.64207603757194  63.0637956927206 1.19566304776845  63.0637956927206 1.19566304776845  C 63.0637956927206 1.19566304776845  59.4534415226984 4.62988128255557  59.4534415226984 4.62988128255557  C 59.4534415226984 4.62988128255557  57.6401178944313 7.06247619898869  57.6401178944313 7.06247619898869  C 57.6401178944313 7.06247619898869  55.2401051510009 7.05527616075841  55.2401051510009 7.05527616075841  C 55.2401051510009 7.05527616075841  54.5012822280473 3.3260063593259  54.5012822280473 3.3260063593259  C 54.5012822280473 3.3260063593259  51.1892646421132 4.31608461637853  51.1892646421132 4.31608461637853  C 51.1892646421132 4.31608461637853  46.8240664640697 7.02802801607805  46.8240664640697 7.02802801607805  C 46.8240664640697 7.02802801607805  43.972211321476 5.2994478377762  43.972211321476 5.2994478377762  C 43.972211321476 5.2994478377762  37.7873654815866 1.55183993897322  37.7873654815866 1.55183993897322  C 37.7873654815866 1.55183993897322  21.1102769306739 0.501794363509987  21.1102769306739 0.501794363509987  C 21.1102769306739 0.501794363509987  19.3001073191538 2.21638846754951  19.3001073191538 2.21638846754951  C 19.3001073191538 2.21638846754951  22.5959408191547 5.95432931502302  22.5959408191547 5.95432931502302  C 22.5959408191547 5.95432931502302  18.6816060350762 8.38062119798877  18.6816060350762 8.38062119798877  C 18.6816060350762 8.38062119798877  12.5258873498443 5.92411915461509  12.5258873498443 5.92411915461509  C 12.5258873498443 5.92411915461509  6.05036396653429 11.0677664660167  6.05036396653429 11.0677664660167  C 6.05036396653429 11.0677664660167  3.78272092595176 15.9380333258408  3.78272092595176 15.9380333258408  C 3.78272092595176 15.9380333258408  4.20073914551756 27.2674494820328  4.20073914551756 27.2674494820328  C 4.20073914551756 27.2674494820328  7.31960570587091 39.3269785149303  7.31960570587091 39.3269785149303  C 7.31960570587091 39.3269785149303  0.0833032830262255 47.3933853454091  0.0833032830262255 47.3933853454091  C 0.0833032830262255 47.3933853454091  0.831307254728699 48.3956436671347  0.831307254728699 48.3956436671347  C 0.831307254728699 48.3956436671347  7.29750458851987 46.6940176319522  7.29750458851987 46.6940176319522  C 7.29750458851987 46.6940176319522  9.54333551328585 49.4277941475797  9.54333551328585 49.4277941475797  C 9.54333551328585 49.4277941475797  7.71752581872113 58.0224397828663  7.71752581872113 58.0224397828663  C 7.71752581872113 58.0224397828663  11.3050378674577 64.2022905962334  11.3050378674577 64.2022905962334  C 11.3050378674577 64.2022905962334  14.9080569985327 65.2131139634372  14.9080569985327 65.2131139634372  C 14.9080569985327 65.2131139634372  18.529281226272 60.4889098791677  18.529281226272 60.4889098791677  C 18.529281226272 60.4889098791677  20.3180887243649 64.2283297344943  20.3180887243649 64.2283297344943  C 20.3180887243649 64.2283297344943  21.3749583360619 63.943496222104  21.3749583360619 63.943496222104  C 21.3749583360619 63.943496222104  27.1004837370817 58.7955988881358  27.1004837370817 58.7955988881358  C 27.1004837370817 58.7955988881358  28.5996216971063 59.090100451861  28.5996216971063 59.090100451861  C 28.5996216971063 59.090100451861  31.1555142682174 57.8047496269893  31.1555142682174 57.8047496269893  C 31.1555142682174 57.8047496269893  35.8106599858052 59.1117335667271  35.8106599858052 59.1117335667271  C 35.8106599858052 59.1117335667271  35.7960349081499 63.9867594518203  35.7960349081499 63.9867594518203  C 35.7960349081499 63.9867594518203  39.8899026455008 64.7170513294762  39.8899026455008 64.7170513294762  C 39.8899026455008 64.7170513294762  38.8227039789592 69.4449174331901  38.8227039789592 69.4449174331901  C 38.8227039789592 69.4449174331901  35.0131797513969 74.601562813608  35.0131797513969 74.601562813608  C 35.0131797513969 74.601562813608  33.4998487160108 79.0380863703703  33.4998487160108 79.0380863703703  C 33.4998487160108 79.0380863703703  34.9998566806549 79.0425863942642  34.9998566806549 79.0425863942642  C 34.9998566806549 79.0425863942642  39.4082000877881 75.6157621987375  39.4082000877881 75.6157621987375  C 39.4082000877881 75.6157621987375  42.6925685269126 82.5087137984805  42.6925685269126 82.5087137984805  C 42.6925685269126 82.5087137984805  45.2517451154608 80.7953667010622  45.2517451154608 80.7953667010622  C 45.2517451154608 80.7953667010622  48.1067602748334 80.8039317465403  48.1067602748334 80.8039317465403  C 48.1067602748334 80.8039317465403  50.9668024608981 78.8034831246893  50.9668024608981 78.8034831246893  C 50.9668024608981 78.8034831246893  50.9792675270842 74.6484610626252  50.9792675270842 74.6484610626252  C 50.9792675270842 74.6484610626252  52.4831545123249 73.359954220996  52.4831545123249 73.359954220996  C 52.4831545123249 73.359954220996  56.0823246229627 73.6537557810043  56.0823246229627 73.6537557810043  C 56.0823246229627 73.6537557810043  62.2361762982813 76.3992563588835  62.2361762982813 76.3992563588835  C 62.2361762982813 76.3992563588835  63.2941999161058 74.3964017242571  63.2941999161058 74.3964017242571  C 63.2941999161058 74.3964017242571  61.8015119903292 71.9518887445421  61.8015119903292 71.9518887445421  C 61.8015119903292 71.9518887445421  62.2536713911756 70.2342206241805  62.2536713911756 70.2342206241805  C 62.2536713911756 70.2342206241805  66.1741602079304 67.0899369288688  66.1741602079304 67.0899369288688  C 66.1741602079304 67.0899369288688  73.0840368975411 68.8306911718117  73.0840368975411 68.8306911718117  C 73.0840368975411 68.8306911718117  76.9979576794215 66.5424000215932  76.9979576794215 66.5424000215932  C 76.9979576794215 66.5424000215932  75.4992577217225 64.1018690630218  75.4992577217225 64.1018690630218  C 75.4992577217225 64.1018690630218  77.0220388072859 58.515357400128  77.0220388072859 58.515357400128  C 77.0220388072859 58.515357400128  76.7465743446427 50.3354139668  76.7465743446427 50.3354139668  C 76.7465743446427 50.3354139668  74.1925607835086 49.3277376163061  74.1925607835086 49.3277376163061  C 74.1925607835086 49.3277376163061  71.9553489045076 43.7209458457303  71.9553489045076 43.7209458457303  C 71.9553489045076 43.7209458457303  71.9710059876426 38.5019181340787  71.9710059876426 38.5019181340787  C 71.9710059876426 38.5019181340787  70.9191514025739 37.7817523101894  70.9191514025739 37.7817523101894  C 70.9191514025739 37.7817523101894  69.1169908335797 38.4933560886166  69.1169908335797 38.4933560886166  C 69.1169908335797 38.4933560886166  68.068435266028 37.3401939656318  68.068435266028 37.3401939656318  C 68.068435266028 37.3401939656318  68.8398073618092 29.8864013879721  68.8398073618092 29.8864013879721  C 68.8398073618092 29.8864013879721  72.0051441689072 27.4558624824558  72.0051441689072 27.4558624824558  C 72.0051441689072 27.4558624824558  74.2716302033465 23.3046024403671  74.2716302033465 23.3046024403671  C 74.2716302033465 23.3046024403671  73.8321078695994 19.1432243445541  73.8321078695994 19.1432243445541  Z " stroke-width="0.97600957434184" stroke="#199eae" fill="none" transform="matrix(1 0 0 1 1188 495 )" mask="url(#clip1463)" />
  </g>
</svg>