<?xml version="1.0" encoding="utf-8"?>
<svg version="1.1" xmlns:xlink="http://www.w3.org/1999/xlink" width="109px" height="66px" xmlns="http://www.w3.org/2000/svg">
  <defs>
    <mask fill="white" id="clip1465">
      <path d="M 5.58605171354878 56.7933270796131  C 5.58605171354878 56.7933270796131  12.7712688651444 65.4220058956066  12.7712688651444 65.4220058956066  C 12.7712688651444 65.4220058956066  15.0389059056951 60.5537390464021  15.0389059056951 60.5537390464021  C 15.0389059056951 60.5537390464021  21.5154292943149 55.4100947350163  21.5154292943149 55.4100947350163  C 21.5154292943149 55.4100947350163  27.670144974221 57.8675937836838  27.670144974221 57.8675937836838  C 27.670144974221 57.8675937836838  31.5834827530057 55.4402988953924  31.5834827530057 55.4402988953924  C 31.5834827530057 55.4402988953924  28.2876492530048 51.7023580479189  28.2876492530048 51.7023580479189  C 28.2876492530048 51.7023580479189  30.092821837992 49.9867489384899  30.092821837992 49.9867489384899  C 30.092821837992 49.9867489384899  46.772910404834 51.036803514001  46.772910404834 51.036803514001  C 46.772910404834 51.036803514001  52.4697536535592 54.7829474050305  52.4697536535592 54.7829474050305  C 52.4697536535592 54.7829474050305  55.8106143926428 56.511994585812  55.8106143926428 56.511994585812  C 55.8106143926428 56.511994585812  60.1758065706544 53.802051196732  60.1758065706544 53.802051196732  C 60.1758065706544 53.802051196732  63.485824145969 52.8119669396475  63.485824145969 52.8119669396475  C 63.485824145969 52.8119669396475  64.2266500795581 56.5402427358021  64.2266500795581 56.5402427358021  C 64.2266500795581 56.5402427358021  66.6266628229885 56.5474427740324  66.6266628229885 56.5474427740324  C 66.6266628229885 56.5474427740324  68.4399804512237 54.1168478682188  68.4399804512237 54.1168478682188  C 68.4399804512237 54.1168478682188  72.050328621214 50.6846296440513  72.050328621214 50.6846296440513  C 72.050328621214 50.6846296440513  73.8430211399354 53.1290426232352  73.8430211399354 53.1290426232352  C 73.8430211399354 53.1290426232352  73.8283930622641 58.0050685136382  73.8283930622641 58.0050685136382  C 73.8283930622641 58.0050685136382  75.3293770320905 60.0176001996471  75.3293770320905 60.0176001996471  C 75.3293770320905 60.0176001996471  78.6332465747606 60.7435220540995  78.6332465747606 60.7435220540995  C 78.6332465747606 60.7435220540995  82.2505887818874 57.3133248406629  82.2505887818874 57.3133248406629  C 82.2505887818874 57.3133248406629  87.6787716040971 55.6115848048752  87.6787716040971 55.6115848048752  C 87.6787716040971 55.6115848048752  97.7745042097569 46.7487447455474  97.7745042097569 46.7487447455474  C 97.7745042097569 46.7487447455474  102.43166793806 47.0497203436479  102.43166793806 47.0497203436479  C 102.43166793806 47.0497203436479  108.145855278878 45.3478383071061  108.145855278878 45.3478383071061  C 108.145855278878 45.3478383071061  101.423288583833 32.504487112321  101.423288583833 32.504487112321  C 101.423288583833 32.504487112321  103.534918796029 28.6377665810616  103.534918796029 28.6377665810616  C 103.534918796029 28.6377665810616  102.78778182893 27.3465067248146  102.78778182893 27.3465067248146  C 102.78778182893 27.3465067248146  99.1822066842833 26.1876735717182  99.1822066842833 26.1876735717182  C 99.1822066842833 26.1876735717182  93.1855038433832 22.7266341945179  93.1855038433832 22.7266341945179  C 93.1855038433832 22.7266341945179  90.1826598990791 20.9936009925717  90.1826598990791 20.9936009925717  C 90.1826598990791 20.9936009925717  86.2714791317477 22.7018920631438  86.2714791317477 22.7018920631438  C 86.2714791317477 22.7018920631438  81.9207760306693 19.2487907280924  81.9207760306693 19.2487907280924  C 81.9207760306693 19.2487907280924  76.2107457119242 19.2316606371362  76.2107457119242 19.2316606371362  C 76.2107457119242 19.2316606371362  71.8596226086157 16.9185743552621  71.8596226086157 16.9185743552621  C 71.8596226086157 16.9185743552621  70.8209400934874 13.4744090676588  70.8209400934874 13.4744090676588  C 70.8209400934874 13.4744090676588  68.5733781595301 11.3176356157644  68.5733781595301 11.3176356157644  C 68.5733781595301 11.3176356157644  65.4122073745526 13.026176687664  65.4122073745526 13.026176687664  C 65.4122073745526 13.026176687664  62.5590592250933 11.7285987978698  62.5590592250933 11.7285987978698  C 62.5590592250933 11.7285987978698  53.0511417405756 12.989093490762  53.0511417405756 12.989093490762  C 53.0511417405756 12.989093490762  43.291113917419 10.9517846731931  43.291113917419 10.9517846731931  C 43.291113917419 10.9517846731931  31.4451620185594 0.879103189928571  31.4451620185594 0.879103189928571  C 31.4451620185594 0.879103189928571  28.1308274203225 3.3081950877617  28.1308274203225 3.3081950877617  C 28.1308274203225 3.3081950877617  26.6338344716875 2.29868972755622  26.6338344716875 2.29868972755622  C 26.6338344716875 2.29868972755622  13.4117642660049 2.25902351693918  13.4117642660049 2.25902351693918  C 13.4117642660049 2.25902351693918  11.9078802807802 3.54653035325867  11.9078802807802 3.54653035325867  C 11.9078802807802 3.54653035325867  15.1984357527562 6.71044715281693  15.1984357527562 6.71044715281693  C 15.1984357527562 6.71044715281693  18.3513074936681 7.43491599955411  18.3513074936681 7.43491599955411  C 18.3513074936681 7.43491599955411  21.206304652945 8.44949538670124  21.206304652945 8.44949538670124  C 21.206304652945 8.44949538670124  19.8452734262305 10.4534410271206  19.8452734262305 10.4534410271206  C 19.8452734262305 10.4534410271206  14.4289366669203 12.873226875541  14.4289366669203 12.873226875541  C 14.4289366669203 12.873226875541  13.3654510200938 17.0300959474122  13.3654510200938 17.0300959474122  C 13.3654510200938 17.0300959474122  14.4121545778119 18.4672565783536  14.4121545778119 18.4672565783536  C 14.4121545778119 18.4672565783536  15.1476694832007 23.6325370046214  15.1476694832007 23.6325370046214  C 15.1476694832007 23.6325370046214  18.3018192308984 23.9310035893997  18.3018192308984 23.9310035893997  C 18.3018192308984 23.9310035893997  21.5953627187399 28.0989437200553  21.5953627187399 28.0989437200553  C 21.5953627187399 28.0989437200553  22.9222447641313 36.4780442108544  22.9222447641313 36.4780442108544  C 22.9222447641313 36.4780442108544  21.8640641454732 39.199908663232  21.8640641454732 39.199908663232  C 21.8640641454732 39.199908663232  19.7662040063928 38.4766048226807  19.7662040063928 38.4766048226807  C 19.7662040063928 38.4766048226807  13.5933982304329 43.0491521016928  13.5933982304329 43.0491521016928  C 13.5933982304329 43.0491521016928  3.06818234433086 44.7376010669086  3.06818234433086 44.7376010669086  C 3.06818234433086 44.7376010669086  0.20698915215462 47.4550564958755  0.20698915215462 47.4550564958755  C 0.20698915215462 47.4550564958755  2.45082906634889 50.1858269955418  2.45082906634889 50.1858269955418  C 2.45082906634889 50.1858269955418  2.73318756559752 56.0677582270351  2.73318756559752 56.0677582270351  C 2.73318756559752 56.0677582270351  5.58605171354878 56.7933270796131  5.58605171354878 56.7933270796131  Z " fill-rule="evenodd" />
    </mask>
  </defs>
  <g transform="matrix(1 0 0 1 -1179 -446 )">
    <path d="M 5.58605171354878 56.7933270796131  C 5.58605171354878 56.7933270796131  12.7712688651444 65.4220058956066  12.7712688651444 65.4220058956066  C 12.7712688651444 65.4220058956066  15.0389059056951 60.5537390464021  15.0389059056951 60.5537390464021  C 15.0389059056951 60.5537390464021  21.5154292943149 55.4100947350163  21.5154292943149 55.4100947350163  C 21.5154292943149 55.4100947350163  27.670144974221 57.8675937836838  27.670144974221 57.8675937836838  C 27.670144974221 57.8675937836838  31.5834827530057 55.4402988953924  31.5834827530057 55.4402988953924  C 31.5834827530057 55.4402988953924  28.2876492530048 51.7023580479189  28.2876492530048 51.7023580479189  C 28.2876492530048 51.7023580479189  30.092821837992 49.9867489384899  30.092821837992 49.9867489384899  C 30.092821837992 49.9867489384899  46.772910404834 51.036803514001  46.772910404834 51.036803514001  C 46.772910404834 51.036803514001  52.4697536535592 54.7829474050305  52.4697536535592 54.7829474050305  C 52.4697536535592 54.7829474050305  55.8106143926428 56.511994585812  55.8106143926428 56.511994585812  C 55.8106143926428 56.511994585812  60.1758065706544 53.802051196732  60.1758065706544 53.802051196732  C 60.1758065706544 53.802051196732  63.485824145969 52.8119669396475  63.485824145969 52.8119669396475  C 63.485824145969 52.8119669396475  64.2266500795581 56.5402427358021  64.2266500795581 56.5402427358021  C 64.2266500795581 56.5402427358021  66.6266628229885 56.5474427740324  66.6266628229885 56.5474427740324  C 66.6266628229885 56.5474427740324  68.4399804512237 54.1168478682188  68.4399804512237 54.1168478682188  C 68.4399804512237 54.1168478682188  72.050328621214 50.6846296440513  72.050328621214 50.6846296440513  C 72.050328621214 50.6846296440513  73.8430211399354 53.1290426232352  73.8430211399354 53.1290426232352  C 73.8430211399354 53.1290426232352  73.8283930622641 58.0050685136382  73.8283930622641 58.0050685136382  C 73.8283930622641 58.0050685136382  75.3293770320905 60.0176001996471  75.3293770320905 60.0176001996471  C 75.3293770320905 60.0176001996471  78.6332465747606 60.7435220540995  78.6332465747606 60.7435220540995  C 78.6332465747606 60.7435220540995  82.2505887818874 57.3133248406629  82.2505887818874 57.3133248406629  C 82.2505887818874 57.3133248406629  87.6787716040971 55.6115848048752  87.6787716040971 55.6115848048752  C 87.6787716040971 55.6115848048752  97.7745042097569 46.7487447455474  97.7745042097569 46.7487447455474  C 97.7745042097569 46.7487447455474  102.43166793806 47.0497203436479  102.43166793806 47.0497203436479  C 102.43166793806 47.0497203436479  108.145855278878 45.3478383071061  108.145855278878 45.3478383071061  C 108.145855278878 45.3478383071061  101.423288583833 32.504487112321  101.423288583833 32.504487112321  C 101.423288583833 32.504487112321  103.534918796029 28.6377665810616  103.534918796029 28.6377665810616  C 103.534918796029 28.6377665810616  102.78778182893 27.3465067248146  102.78778182893 27.3465067248146  C 102.78778182893 27.3465067248146  99.1822066842833 26.1876735717182  99.1822066842833 26.1876735717182  C 99.1822066842833 26.1876735717182  93.1855038433832 22.7266341945179  93.1855038433832 22.7266341945179  C 93.1855038433832 22.7266341945179  90.1826598990791 20.9936009925717  90.1826598990791 20.9936009925717  C 90.1826598990791 20.9936009925717  86.2714791317477 22.7018920631438  86.2714791317477 22.7018920631438  C 86.2714791317477 22.7018920631438  81.9207760306693 19.2487907280924  81.9207760306693 19.2487907280924  C 81.9207760306693 19.2487907280924  76.2107457119242 19.2316606371362  76.2107457119242 19.2316606371362  C 76.2107457119242 19.2316606371362  71.8596226086157 16.9185743552621  71.8596226086157 16.9185743552621  C 71.8596226086157 16.9185743552621  70.8209400934874 13.4744090676588  70.8209400934874 13.4744090676588  C 70.8209400934874 13.4744090676588  68.5733781595301 11.3176356157644  68.5733781595301 11.3176356157644  C 68.5733781595301 11.3176356157644  65.4122073745526 13.026176687664  65.4122073745526 13.026176687664  C 65.4122073745526 13.026176687664  62.5590592250933 11.7285987978698  62.5590592250933 11.7285987978698  C 62.5590592250933 11.7285987978698  53.0511417405756 12.989093490762  53.0511417405756 12.989093490762  C 53.0511417405756 12.989093490762  43.291113917419 10.9517846731931  43.291113917419 10.9517846731931  C 43.291113917419 10.9517846731931  31.4451620185594 0.879103189928571  31.4451620185594 0.879103189928571  C 31.4451620185594 0.879103189928571  28.1308274203225 3.3081950877617  28.1308274203225 3.3081950877617  C 28.1308274203225 3.3081950877617  26.6338344716875 2.29868972755622  26.6338344716875 2.29868972755622  C 26.6338344716875 2.29868972755622  13.4117642660049 2.25902351693918  13.4117642660049 2.25902351693918  C 13.4117642660049 2.25902351693918  11.9078802807802 3.54653035325867  11.9078802807802 3.54653035325867  C 11.9078802807802 3.54653035325867  15.1984357527562 6.71044715281693  15.1984357527562 6.71044715281693  C 15.1984357527562 6.71044715281693  18.3513074936681 7.43491599955411  18.3513074936681 7.43491599955411  C 18.3513074936681 7.43491599955411  21.206304652945 8.44949538670124  21.206304652945 8.44949538670124  C 21.206304652945 8.44949538670124  19.8452734262305 10.4534410271206  19.8452734262305 10.4534410271206  C 19.8452734262305 10.4534410271206  14.4289366669203 12.873226875541  14.4289366669203 12.873226875541  C 14.4289366669203 12.873226875541  13.3654510200938 17.0300959474122  13.3654510200938 17.0300959474122  C 13.3654510200938 17.0300959474122  14.4121545778119 18.4672565783536  14.4121545778119 18.4672565783536  C 14.4121545778119 18.4672565783536  15.1476694832007 23.6325370046214  15.1476694832007 23.6325370046214  C 15.1476694832007 23.6325370046214  18.3018192308984 23.9310035893997  18.3018192308984 23.9310035893997  C 18.3018192308984 23.9310035893997  21.5953627187399 28.0989437200553  21.5953627187399 28.0989437200553  C 21.5953627187399 28.0989437200553  22.9222447641313 36.4780442108544  22.9222447641313 36.4780442108544  C 22.9222447641313 36.4780442108544  21.8640641454732 39.199908663232  21.8640641454732 39.199908663232  C 21.8640641454732 39.199908663232  19.7662040063928 38.4766048226807  19.7662040063928 38.4766048226807  C 19.7662040063928 38.4766048226807  13.5933982304329 43.0491521016928  13.5933982304329 43.0491521016928  C 13.5933982304329 43.0491521016928  3.06818234433086 44.7376010669086  3.06818234433086 44.7376010669086  C 3.06818234433086 44.7376010669086  0.20698915215462 47.4550564958755  0.20698915215462 47.4550564958755  C 0.20698915215462 47.4550564958755  2.45082906634889 50.1858269955418  2.45082906634889 50.1858269955418  C 2.45082906634889 50.1858269955418  2.73318756559752 56.0677582270351  2.73318756559752 56.0677582270351  C 2.73318756559752 56.0677582270351  5.58605171354878 56.7933270796131  5.58605171354878 56.7933270796131  Z " fill-rule="nonzero" fill="#156fb8" stroke="none" transform="matrix(1 0 0 1 1179 446 )" />
    <path d="M 5.58605171354878 56.7933270796131  C 5.58605171354878 56.7933270796131  12.7712688651444 65.4220058956066  12.7712688651444 65.4220058956066  C 12.7712688651444 65.4220058956066  15.0389059056951 60.5537390464021  15.0389059056951 60.5537390464021  C 15.0389059056951 60.5537390464021  21.5154292943149 55.4100947350163  21.5154292943149 55.4100947350163  C 21.5154292943149 55.4100947350163  27.670144974221 57.8675937836838  27.670144974221 57.8675937836838  C 27.670144974221 57.8675937836838  31.5834827530057 55.4402988953924  31.5834827530057 55.4402988953924  C 31.5834827530057 55.4402988953924  28.2876492530048 51.7023580479189  28.2876492530048 51.7023580479189  C 28.2876492530048 51.7023580479189  30.092821837992 49.9867489384899  30.092821837992 49.9867489384899  C 30.092821837992 49.9867489384899  46.772910404834 51.036803514001  46.772910404834 51.036803514001  C 46.772910404834 51.036803514001  52.4697536535592 54.7829474050305  52.4697536535592 54.7829474050305  C 52.4697536535592 54.7829474050305  55.8106143926428 56.511994585812  55.8106143926428 56.511994585812  C 55.8106143926428 56.511994585812  60.1758065706544 53.802051196732  60.1758065706544 53.802051196732  C 60.1758065706544 53.802051196732  63.485824145969 52.8119669396475  63.485824145969 52.8119669396475  C 63.485824145969 52.8119669396475  64.2266500795581 56.5402427358021  64.2266500795581 56.5402427358021  C 64.2266500795581 56.5402427358021  66.6266628229885 56.5474427740324  66.6266628229885 56.5474427740324  C 66.6266628229885 56.5474427740324  68.4399804512237 54.1168478682188  68.4399804512237 54.1168478682188  C 68.4399804512237 54.1168478682188  72.050328621214 50.6846296440513  72.050328621214 50.6846296440513  C 72.050328621214 50.6846296440513  73.8430211399354 53.1290426232352  73.8430211399354 53.1290426232352  C 73.8430211399354 53.1290426232352  73.8283930622641 58.0050685136382  73.8283930622641 58.0050685136382  C 73.8283930622641 58.0050685136382  75.3293770320905 60.0176001996471  75.3293770320905 60.0176001996471  C 75.3293770320905 60.0176001996471  78.6332465747606 60.7435220540995  78.6332465747606 60.7435220540995  C 78.6332465747606 60.7435220540995  82.2505887818874 57.3133248406629  82.2505887818874 57.3133248406629  C 82.2505887818874 57.3133248406629  87.6787716040971 55.6115848048752  87.6787716040971 55.6115848048752  C 87.6787716040971 55.6115848048752  97.7745042097569 46.7487447455474  97.7745042097569 46.7487447455474  C 97.7745042097569 46.7487447455474  102.43166793806 47.0497203436479  102.43166793806 47.0497203436479  C 102.43166793806 47.0497203436479  108.145855278878 45.3478383071061  108.145855278878 45.3478383071061  C 108.145855278878 45.3478383071061  101.423288583833 32.504487112321  101.423288583833 32.504487112321  C 101.423288583833 32.504487112321  103.534918796029 28.6377665810616  103.534918796029 28.6377665810616  C 103.534918796029 28.6377665810616  102.78778182893 27.3465067248146  102.78778182893 27.3465067248146  C 102.78778182893 27.3465067248146  99.1822066842833 26.1876735717182  99.1822066842833 26.1876735717182  C 99.1822066842833 26.1876735717182  93.1855038433832 22.7266341945179  93.1855038433832 22.7266341945179  C 93.1855038433832 22.7266341945179  90.1826598990791 20.9936009925717  90.1826598990791 20.9936009925717  C 90.1826598990791 20.9936009925717  86.2714791317477 22.7018920631438  86.2714791317477 22.7018920631438  C 86.2714791317477 22.7018920631438  81.9207760306693 19.2487907280924  81.9207760306693 19.2487907280924  C 81.9207760306693 19.2487907280924  76.2107457119242 19.2316606371362  76.2107457119242 19.2316606371362  C 76.2107457119242 19.2316606371362  71.8596226086157 16.9185743552621  71.8596226086157 16.9185743552621  C 71.8596226086157 16.9185743552621  70.8209400934874 13.4744090676588  70.8209400934874 13.4744090676588  C 70.8209400934874 13.4744090676588  68.5733781595301 11.3176356157644  68.5733781595301 11.3176356157644  C 68.5733781595301 11.3176356157644  65.4122073745526 13.026176687664  65.4122073745526 13.026176687664  C 65.4122073745526 13.026176687664  62.5590592250933 11.7285987978698  62.5590592250933 11.7285987978698  C 62.5590592250933 11.7285987978698  53.0511417405756 12.989093490762  53.0511417405756 12.989093490762  C 53.0511417405756 12.989093490762  43.291113917419 10.9517846731931  43.291113917419 10.9517846731931  C 43.291113917419 10.9517846731931  31.4451620185594 0.879103189928571  31.4451620185594 0.879103189928571  C 31.4451620185594 0.879103189928571  28.1308274203225 3.3081950877617  28.1308274203225 3.3081950877617  C 28.1308274203225 3.3081950877617  26.6338344716875 2.29868972755622  26.6338344716875 2.29868972755622  C 26.6338344716875 2.29868972755622  13.4117642660049 2.25902351693918  13.4117642660049 2.25902351693918  C 13.4117642660049 2.25902351693918  11.9078802807802 3.54653035325867  11.9078802807802 3.54653035325867  C 11.9078802807802 3.54653035325867  15.1984357527562 6.71044715281693  15.1984357527562 6.71044715281693  C 15.1984357527562 6.71044715281693  18.3513074936681 7.43491599955411  18.3513074936681 7.43491599955411  C 18.3513074936681 7.43491599955411  21.206304652945 8.44949538670124  21.206304652945 8.44949538670124  C 21.206304652945 8.44949538670124  19.8452734262305 10.4534410271206  19.8452734262305 10.4534410271206  C 19.8452734262305 10.4534410271206  14.4289366669203 12.873226875541  14.4289366669203 12.873226875541  C 14.4289366669203 12.873226875541  13.3654510200938 17.0300959474122  13.3654510200938 17.0300959474122  C 13.3654510200938 17.0300959474122  14.4121545778119 18.4672565783536  14.4121545778119 18.4672565783536  C 14.4121545778119 18.4672565783536  15.1476694832007 23.6325370046214  15.1476694832007 23.6325370046214  C 15.1476694832007 23.6325370046214  18.3018192308984 23.9310035893997  18.3018192308984 23.9310035893997  C 18.3018192308984 23.9310035893997  21.5953627187399 28.0989437200553  21.5953627187399 28.0989437200553  C 21.5953627187399 28.0989437200553  22.9222447641313 36.4780442108544  22.9222447641313 36.4780442108544  C 22.9222447641313 36.4780442108544  21.8640641454732 39.199908663232  21.8640641454732 39.199908663232  C 21.8640641454732 39.199908663232  19.7662040063928 38.4766048226807  19.7662040063928 38.4766048226807  C 19.7662040063928 38.4766048226807  13.5933982304329 43.0491521016928  13.5933982304329 43.0491521016928  C 13.5933982304329 43.0491521016928  3.06818234433086 44.7376010669086  3.06818234433086 44.7376010669086  C 3.06818234433086 44.7376010669086  0.20698915215462 47.4550564958755  0.20698915215462 47.4550564958755  C 0.20698915215462 47.4550564958755  2.45082906634889 50.1858269955418  2.45082906634889 50.1858269955418  C 2.45082906634889 50.1858269955418  2.73318756559752 56.0677582270351  2.73318756559752 56.0677582270351  C 2.73318756559752 56.0677582270351  5.58605171354878 56.7933270796131  5.58605171354878 56.7933270796131  Z " stroke-width="0.97600957434184" stroke="#199eae" fill="none" transform="matrix(1 0 0 1 1179 446 )" mask="url(#clip1465)" />
  </g>
</svg>