<?xml version="1.0" encoding="utf-8"?>
<svg version="1.1" xmlns:xlink="http://www.w3.org/1999/xlink" width="55px" height="60px" xmlns="http://www.w3.org/2000/svg">
  <defs>
    <mask fill="white" id="clip1464">
      <path d="M 40.7846341131016 55.0731342113322  C 40.7846341131016 55.0731342113322  39.9096504671707 57.0635377798467  39.9096504671707 57.0635377798467  C 39.9096504671707 57.0635377798467  31.7533751595141 59.7831082200437  31.7533751595141 59.7831082200437  C 31.7533751595141 59.7831082200437  26.6186918957092 55.3196405202153  26.6186918957092 55.3196405202153  C 26.6186918957092 55.3196405202153  23.4540560923332 59.1832020347012  23.4540560923332 59.1832020347012  C 23.4540560923332 59.1832020347012  18.3420289488263 59.1678659532707  18.3420289488263 59.1678659532707  C 18.3420289488263 59.1678659532707  16.2545038646223 54.9995438205868  16.2545038646223 54.9995438205868  C 16.2545038646223 54.9995438205868  13.72097941228 48.8288550558677  13.72097941228 48.8288550558677  C 13.72097941228 48.8288550558677  9.06210867491336 48.0968681692116  9.06210867491336 48.0968681692116  C 9.06210867491336 48.0968681692116  3.98219270190816 39.0444991035352  3.98219270190816 39.0444991035352  C 3.98219270190816 39.0444991035352  0.688501213280801 34.5925544648911  0.688501213280801 34.5925544648911  C 0.688501213280801 34.5925544648911  3.09509299164415 32.4067428588118  3.09509299164415 32.4067428588118  C 3.09509299164415 32.4067428588118  3.99756978355629 31.5854384979036  3.99756978355629 31.5854384979036  C 3.99756978355629 31.5854384979036  9.43199563891483 23.8026301732576  9.43199563891483 23.8026301732576  C 9.43199563891483 23.8026301732576  9.1496371396662 17.9206989417644  9.1496371396662 17.9206989417644  C 9.1496371396662 17.9206989417644  10.9565287337808 15.6320867898415  10.9565287337808 15.6320867898415  C 10.9565287337808 15.6320867898415  15.1676990939774 14.9287100550977  15.1676990939774 14.9287100550977  C 15.1676990939774 14.9287100550977  16.3728744931389 13.2093009254917  16.3728744931389 13.2093009254917  C 16.3728744931389 13.2093009254917  14.8810385718862 10.4807864378041  14.8810385718862 10.4807864378041  C 14.8810385718862 10.4807864378041  16.989659768105 7.6170712322367  16.989659768105 7.6170712322367  C 16.989659768105 7.6170712322367  17.0060038548877 2.16904230464945  17.0060038548877 2.16904230464945  C 17.0060038548877 2.16904230464945  20.0173218441867 0.744055738349118  20.0173218441867 0.744055738349118  C 20.0173218441867 0.744055738349118  24.9667471243209 3.62594504041624  24.9667471243209 3.62594504041624  C 24.9667471243209 3.62594504041624  31.6097643969791 4.65188848790348  31.6097643969791 4.65188848790348  C 31.6097643969791 4.65188848790348  35.6916010704481 0.0590681012465666  35.6916010704481 0.0590681012465666  C 35.6916010704481 0.0590681012465666  40.7265858048803 4.08823049502922  40.7265858048803 4.08823049502922  C 40.7265858048803 4.08823049502922  38.5217950980269 5.67463891843676  38.5217950980269 5.67463891843676  C 38.5217950980269 5.67463891843676  35.9585914880963 9.39700268320018  35.9585914880963 9.39700268320018  C 35.9585914880963 9.39700268320018  31.8951259121729 10.5328287141349  31.8951259121729 10.5328287141349  C 31.8951259121729 10.5328287141349  30.5391187121347 11.5287750023452  30.5391187121347 11.5287750023452  C 30.5391187121347 11.5287750023452  34.4401214254235 13.5465067159649  34.4401214254235 13.5465067159649  C 34.4401214254235 13.5465067159649  41.6651867886025 10.5591388538347  41.6651867886025 10.5591388538347  C 41.6651867886025 10.5591388538347  53.5210567401243 15.3257741634027  53.5210567401243 15.3257741634027  C 53.5210567401243 15.3257741634027  54.6922239587113 24.9424252252667  54.6922239587113 24.9424252252667  C 54.6922239587113 24.9424252252667  49.8911984665406 24.9280221487902  49.8911984665406 24.9280221487902  C 49.8911984665406 24.9280221487902  49.5825988279585 27.7931373617913  49.5825988279585 27.7931373617913  C 49.5825988279585 27.7931373617913  52.1270973385699 32.3058353230195  52.1270973385699 32.3058353230195  C 52.1270973385699 32.3058353230195  49.863762320862 34.7400802482138  49.863762320862 34.7400802482138  C 49.863762320862 34.7400802482138  52.4071688256752 38.6167658323851  52.4071688256752 38.6167658323851  C 52.4071688256752 38.6167658323851  48.4868040095788 43.0530683879738  48.4868040095788 43.0530683879738  C 48.4868040095788 43.0530683879738  46.6932564863176 40.8936569220722  46.6932564863176 40.8936569220722  C 46.6932564863176 40.8936569220722  40.7846341131016 55.0731342113322  40.7846341131016 55.0731342113322  Z " fill-rule="evenodd" />
    </mask>
  </defs>
  <g transform="matrix(1 0 0 1 -1313 -463 )">
    <path d="M 40.7846341131016 55.0731342113322  C 40.7846341131016 55.0731342113322  39.9096504671707 57.0635377798467  39.9096504671707 57.0635377798467  C 39.9096504671707 57.0635377798467  31.7533751595141 59.7831082200437  31.7533751595141 59.7831082200437  C 31.7533751595141 59.7831082200437  26.6186918957092 55.3196405202153  26.6186918957092 55.3196405202153  C 26.6186918957092 55.3196405202153  23.4540560923332 59.1832020347012  23.4540560923332 59.1832020347012  C 23.4540560923332 59.1832020347012  18.3420289488263 59.1678659532707  18.3420289488263 59.1678659532707  C 18.3420289488263 59.1678659532707  16.2545038646223 54.9995438205868  16.2545038646223 54.9995438205868  C 16.2545038646223 54.9995438205868  13.72097941228 48.8288550558677  13.72097941228 48.8288550558677  C 13.72097941228 48.8288550558677  9.06210867491336 48.0968681692116  9.06210867491336 48.0968681692116  C 9.06210867491336 48.0968681692116  3.98219270190816 39.0444991035352  3.98219270190816 39.0444991035352  C 3.98219270190816 39.0444991035352  0.688501213280801 34.5925544648911  0.688501213280801 34.5925544648911  C 0.688501213280801 34.5925544648911  3.09509299164415 32.4067428588118  3.09509299164415 32.4067428588118  C 3.09509299164415 32.4067428588118  3.99756978355629 31.5854384979036  3.99756978355629 31.5854384979036  C 3.99756978355629 31.5854384979036  9.43199563891483 23.8026301732576  9.43199563891483 23.8026301732576  C 9.43199563891483 23.8026301732576  9.1496371396662 17.9206989417644  9.1496371396662 17.9206989417644  C 9.1496371396662 17.9206989417644  10.9565287337808 15.6320867898415  10.9565287337808 15.6320867898415  C 10.9565287337808 15.6320867898415  15.1676990939774 14.9287100550977  15.1676990939774 14.9287100550977  C 15.1676990939774 14.9287100550977  16.3728744931389 13.2093009254917  16.3728744931389 13.2093009254917  C 16.3728744931389 13.2093009254917  14.8810385718862 10.4807864378041  14.8810385718862 10.4807864378041  C 14.8810385718862 10.4807864378041  16.989659768105 7.6170712322367  16.989659768105 7.6170712322367  C 16.989659768105 7.6170712322367  17.0060038548877 2.16904230464945  17.0060038548877 2.16904230464945  C 17.0060038548877 2.16904230464945  20.0173218441867 0.744055738349118  20.0173218441867 0.744055738349118  C 20.0173218441867 0.744055738349118  24.9667471243209 3.62594504041624  24.9667471243209 3.62594504041624  C 24.9667471243209 3.62594504041624  31.6097643969791 4.65188848790348  31.6097643969791 4.65188848790348  C 31.6097643969791 4.65188848790348  35.6916010704481 0.0590681012465666  35.6916010704481 0.0590681012465666  C 35.6916010704481 0.0590681012465666  40.7265858048803 4.08823049502922  40.7265858048803 4.08823049502922  C 40.7265858048803 4.08823049502922  38.5217950980269 5.67463891843676  38.5217950980269 5.67463891843676  C 38.5217950980269 5.67463891843676  35.9585914880963 9.39700268320018  35.9585914880963 9.39700268320018  C 35.9585914880963 9.39700268320018  31.8951259121729 10.5328287141349  31.8951259121729 10.5328287141349  C 31.8951259121729 10.5328287141349  30.5391187121347 11.5287750023452  30.5391187121347 11.5287750023452  C 30.5391187121347 11.5287750023452  34.4401214254235 13.5465067159649  34.4401214254235 13.5465067159649  C 34.4401214254235 13.5465067159649  41.6651867886025 10.5591388538347  41.6651867886025 10.5591388538347  C 41.6651867886025 10.5591388538347  53.5210567401243 15.3257741634027  53.5210567401243 15.3257741634027  C 53.5210567401243 15.3257741634027  54.6922239587113 24.9424252252667  54.6922239587113 24.9424252252667  C 54.6922239587113 24.9424252252667  49.8911984665406 24.9280221487902  49.8911984665406 24.9280221487902  C 49.8911984665406 24.9280221487902  49.5825988279585 27.7931373617913  49.5825988279585 27.7931373617913  C 49.5825988279585 27.7931373617913  52.1270973385699 32.3058353230195  52.1270973385699 32.3058353230195  C 52.1270973385699 32.3058353230195  49.863762320862 34.7400802482138  49.863762320862 34.7400802482138  C 49.863762320862 34.7400802482138  52.4071688256752 38.6167658323851  52.4071688256752 38.6167658323851  C 52.4071688256752 38.6167658323851  48.4868040095788 43.0530683879738  48.4868040095788 43.0530683879738  C 48.4868040095788 43.0530683879738  46.6932564863176 40.8936569220722  46.6932564863176 40.8936569220722  C 46.6932564863176 40.8936569220722  40.7846341131016 55.0731342113322  40.7846341131016 55.0731342113322  Z " fill-rule="nonzero" fill="#184799" stroke="none" transform="matrix(1 0 0 1 1313 463 )" />
    <path d="M 40.7846341131016 55.0731342113322  C 40.7846341131016 55.0731342113322  39.9096504671707 57.0635377798467  39.9096504671707 57.0635377798467  C 39.9096504671707 57.0635377798467  31.7533751595141 59.7831082200437  31.7533751595141 59.7831082200437  C 31.7533751595141 59.7831082200437  26.6186918957092 55.3196405202153  26.6186918957092 55.3196405202153  C 26.6186918957092 55.3196405202153  23.4540560923332 59.1832020347012  23.4540560923332 59.1832020347012  C 23.4540560923332 59.1832020347012  18.3420289488263 59.1678659532707  18.3420289488263 59.1678659532707  C 18.3420289488263 59.1678659532707  16.2545038646223 54.9995438205868  16.2545038646223 54.9995438205868  C 16.2545038646223 54.9995438205868  13.72097941228 48.8288550558677  13.72097941228 48.8288550558677  C 13.72097941228 48.8288550558677  9.06210867491336 48.0968681692116  9.06210867491336 48.0968681692116  C 9.06210867491336 48.0968681692116  3.98219270190816 39.0444991035352  3.98219270190816 39.0444991035352  C 3.98219270190816 39.0444991035352  0.688501213280801 34.5925544648911  0.688501213280801 34.5925544648911  C 0.688501213280801 34.5925544648911  3.09509299164415 32.4067428588118  3.09509299164415 32.4067428588118  C 3.09509299164415 32.4067428588118  3.99756978355629 31.5854384979036  3.99756978355629 31.5854384979036  C 3.99756978355629 31.5854384979036  9.43199563891483 23.8026301732576  9.43199563891483 23.8026301732576  C 9.43199563891483 23.8026301732576  9.1496371396662 17.9206989417644  9.1496371396662 17.9206989417644  C 9.1496371396662 17.9206989417644  10.9565287337808 15.6320867898415  10.9565287337808 15.6320867898415  C 10.9565287337808 15.6320867898415  15.1676990939774 14.9287100550977  15.1676990939774 14.9287100550977  C 15.1676990939774 14.9287100550977  16.3728744931389 13.2093009254917  16.3728744931389 13.2093009254917  C 16.3728744931389 13.2093009254917  14.8810385718862 10.4807864378041  14.8810385718862 10.4807864378041  C 14.8810385718862 10.4807864378041  16.989659768105 7.6170712322367  16.989659768105 7.6170712322367  C 16.989659768105 7.6170712322367  17.0060038548877 2.16904230464945  17.0060038548877 2.16904230464945  C 17.0060038548877 2.16904230464945  20.0173218441867 0.744055738349118  20.0173218441867 0.744055738349118  C 20.0173218441867 0.744055738349118  24.9667471243209 3.62594504041624  24.9667471243209 3.62594504041624  C 24.9667471243209 3.62594504041624  31.6097643969791 4.65188848790348  31.6097643969791 4.65188848790348  C 31.6097643969791 4.65188848790348  35.6916010704481 0.0590681012465666  35.6916010704481 0.0590681012465666  C 35.6916010704481 0.0590681012465666  40.7265858048803 4.08823049502922  40.7265858048803 4.08823049502922  C 40.7265858048803 4.08823049502922  38.5217950980269 5.67463891843676  38.5217950980269 5.67463891843676  C 38.5217950980269 5.67463891843676  35.9585914880963 9.39700268320018  35.9585914880963 9.39700268320018  C 35.9585914880963 9.39700268320018  31.8951259121729 10.5328287141349  31.8951259121729 10.5328287141349  C 31.8951259121729 10.5328287141349  30.5391187121347 11.5287750023452  30.5391187121347 11.5287750023452  C 30.5391187121347 11.5287750023452  34.4401214254235 13.5465067159649  34.4401214254235 13.5465067159649  C 34.4401214254235 13.5465067159649  41.6651867886025 10.5591388538347  41.6651867886025 10.5591388538347  C 41.6651867886025 10.5591388538347  53.5210567401243 15.3257741634027  53.5210567401243 15.3257741634027  C 53.5210567401243 15.3257741634027  54.6922239587113 24.9424252252667  54.6922239587113 24.9424252252667  C 54.6922239587113 24.9424252252667  49.8911984665406 24.9280221487902  49.8911984665406 24.9280221487902  C 49.8911984665406 24.9280221487902  49.5825988279585 27.7931373617913  49.5825988279585 27.7931373617913  C 49.5825988279585 27.7931373617913  52.1270973385699 32.3058353230195  52.1270973385699 32.3058353230195  C 52.1270973385699 32.3058353230195  49.863762320862 34.7400802482138  49.863762320862 34.7400802482138  C 49.863762320862 34.7400802482138  52.4071688256752 38.6167658323851  52.4071688256752 38.6167658323851  C 52.4071688256752 38.6167658323851  48.4868040095788 43.0530683879738  48.4868040095788 43.0530683879738  C 48.4868040095788 43.0530683879738  46.6932564863176 40.8936569220722  46.6932564863176 40.8936569220722  C 46.6932564863176 40.8936569220722  40.7846341131016 55.0731342113322  40.7846341131016 55.0731342113322  Z " stroke-width="0.97600957434184" stroke="#199eae" fill="none" transform="matrix(1 0 0 1 1313 463 )" mask="url(#clip1464)" />
  </g>
</svg>