<?xml version="1.0" encoding="utf-8"?>
<svg version="1.1" xmlns:xlink="http://www.w3.org/1999/xlink" width="68px" height="89px" xmlns="http://www.w3.org/2000/svg">
  <defs>
    <mask fill="white" id="clip1462">
      <path d="M 5.77904127809529 15.8269032578934  C 5.77904127809529 15.8269032578934  2.15670504445154 19.2550854606308  2.15670504445154 19.2550854606308  C 2.15670504445154 19.2550854606308  6.33906625167924 27.1547454057278  6.33906625167924 27.1547454057278  C 6.33906625167924 27.1547454057278  6.77858858542606 31.3161235015407  6.77858858542606 31.3161235015407  C 6.77858858542606 31.3161235015407  4.51210255098704 35.4673835436295  4.51210255098704 35.4673835436295  C 4.51210255098704 35.4673835436295  1.34676574388891 37.8979224491458  1.34676574388891 37.8979224491458  C 1.34676574388891 37.8979224491458  0.57392964033437 45.8397176179698  0.57392964033437 45.8397176179698  C 0.57392964033437 45.8397176179698  1.62248520788603 46.9928797409545  1.62248520788603 46.9928797409545  C 1.62248520788603 46.9928797409545  3.4246457768802 46.2812759625274  3.4246457768802 46.2812759625274  C 3.4246457768802 46.2812759625274  4.47650036194875 47.0014417864167  4.47650036194875 47.0014417864167  C 4.47650036194875 47.0014417864167  4.46230728658736 51.7324669069041  4.46230728658736 51.7324669069041  C 4.46230728658736 51.7324669069041  6.69951916558841 57.3392586774798  6.69951916558841 57.3392586774798  C 6.69951916558841 57.3392586774798  9.25353272672248 58.3469350279737  9.25353272672248 58.3469350279737  C 9.25353272672248 58.3469350279737  9.52899718936555 66.5268784613016  9.52899718936555 66.5268784613016  C 9.52899718936555 66.5268784613016  8.00621610380233 72.1133901241955  8.00621610380233 72.1133901241955  C 8.00621610380233 72.1133901241955  9.50491606150115 74.5539210827669  9.50491606150115 74.5539210827669  C 9.50491606150115 74.5539210827669  12.3497501668149 77.289494607936  12.3497501668149 77.289494607936  C 12.3497501668149 77.289494607936  19.2649498846895 75.5892155799058  19.2649498846895 75.5892155799058  C 19.2649498846895 75.5892155799058  20.6126430405824 78.0312935466914  20.6126430405824 78.0312935466914  C 20.6126430405824 78.0312935466914  18.5044628467052 80.7480079717238  18.5044628467052 80.7480079717238  C 18.5044628467052 80.7480079717238  14.8809456067906 85.903211344485  14.8809456067906 85.903211344485  C 14.8809456067906 85.903211344485  14.8770785862578 87.1922181887692  14.8770785862578 87.1922181887692  C 14.8770785862578 87.1922181887692  16.9727817138851 88.6345258470399  16.9727817138851 88.6345258470399  C 16.9727817138851 88.6345258470399  31.4162114046622 83.2267781333352  31.4162114046622 83.2267781333352  C 31.4162114046622 83.2267781333352  37.005060079965 85.9705837022144  37.005060079965 85.9705837022144  C 37.005060079965 85.9705837022144  38.5093790674995 84.5380760959793  38.5093790674995 84.5380760959793  C 38.5093790674995 84.5380760959793  37.0184011508026 81.5235600896996  37.0184011508026 81.5235600896996  C 37.0184011508026 81.5235600896996  37.3754030463879 79.5246024757653  37.3754030463879 79.5246024757653  C 37.3754030463879 79.5246024757653  39.6128759267749 67.0441362078028  39.6128759267749 67.0441362078028  C 39.6128759267749 67.0441362078028  41.7283521593921 63.8954374890486  41.7283521593921 63.8954374890486  C 41.7283521593921 63.8954374890486  42.7896747947335 60.4595722455163  42.7896747947335 60.4595722455163  C 42.7896747947335 60.4595722455163  45.3601804434361 55.303209866601  45.3601804434361 55.303209866601  C 45.3601804434361 55.303209866601  44.0131972913132 53.2911401830452  44.0131972913132 53.2911401830452  C 44.0131972913132 53.2911401830452  44.3265429550954 48.8440165699995  44.3265429550954 48.8440165699995  C 44.3265429550954 48.8440165699995  50.5078397761404 41.7744590325258  50.5078397761404 41.7744590325258  C 50.5078397761404 41.7744590325258  50.0731754681883 37.3270914181844  50.0731754681883 37.3270914181844  C 50.0731754681883 37.3270914181844  54.1519971256485 30.7392334384075  54.1519971256485 30.7392334384075  C 54.1519971256485 30.7392334384075  58.0490178177937 31.7509388102944  58.0490178177937 31.7509388102944  C 58.0490178177937 31.7509388102944  66.0294131915746 26.3238019936387  66.0294131915746 26.3238019936387  C 66.0294131915746 26.3238019936387  67.5425962261747 23.603302548509  67.5425962261747 23.603302548509  C 67.5425962261747 23.603302548509  62.4596802372403 14.5509244827847  62.4596802372403 14.5509244827847  C 62.4596802372403 14.5509244827847  59.1659887486128 10.0989798441406  59.1659887486128 10.0989798441406  C 59.1659887486128 10.0989798441406  61.5725805269763 7.9131682380613  61.5725805269763 7.9131682380613  C 61.5725805269763 7.9131682380613  58.5801996382281 5.35915467692735  58.5801996382281 5.35915467692735  C 58.5801996382281 5.35915467692735  50.9191589601361 5.3361715548931  50.9191589601361 5.3361715548931  C 50.9191589601361 5.3361715548931  47.7734622573217 1.88668523903652  47.7734622573217 1.88668523903652  C 47.7734622573217 1.88668523903652  41.6001944789087 7.61324764556275  41.6001944789087 7.61324764556275  C 41.6001944789087 7.61324764556275  39.3491825266328 6.60648029989545  39.3491825266328 6.60648029989545  C 39.3491825266328 6.60648029989545  41.9185401692398 2.16612472278621  41.9185401692398 2.16612472278621  C 41.9185401692398 2.16612472278621  41.6228315991059 0.734217119736968  41.6228315991059 0.734217119736968  C 41.6228315991059 0.734217119736968  39.3705476400761 0.151452025409014  39.3705476400761 0.151452025409014  C 39.3705476400761 0.151452025409014  31.6573136848514 3.85936571344627  31.6573136848514 3.85936571344627  C 31.6573136848514 3.85936571344627  25.9401263281044 5.56123874994029  25.9401263281044 5.56123874994029  C 25.9401263281044 5.56123874994029  21.2859656157467 5.25927214657781  21.2859656157467 5.25927214657781  C 21.2859656157467 5.25927214657781  11.1922330207063 14.1221182059374  11.1922330207063 14.1221182059374  C 11.1922330207063 14.1221182059374  5.77904127809529 15.8269032578934  5.77904127809529 15.8269032578934  Z " fill-rule="evenodd" />
    </mask>
  </defs>
  <g transform="matrix(1 0 0 1 -1255 -487 )">
    <path d="M 5.77904127809529 15.8269032578934  C 5.77904127809529 15.8269032578934  2.15670504445154 19.2550854606308  2.15670504445154 19.2550854606308  C 2.15670504445154 19.2550854606308  6.33906625167924 27.1547454057278  6.33906625167924 27.1547454057278  C 6.33906625167924 27.1547454057278  6.77858858542606 31.3161235015407  6.77858858542606 31.3161235015407  C 6.77858858542606 31.3161235015407  4.51210255098704 35.4673835436295  4.51210255098704 35.4673835436295  C 4.51210255098704 35.4673835436295  1.34676574388891 37.8979224491458  1.34676574388891 37.8979224491458  C 1.34676574388891 37.8979224491458  0.57392964033437 45.8397176179698  0.57392964033437 45.8397176179698  C 0.57392964033437 45.8397176179698  1.62248520788603 46.9928797409545  1.62248520788603 46.9928797409545  C 1.62248520788603 46.9928797409545  3.4246457768802 46.2812759625274  3.4246457768802 46.2812759625274  C 3.4246457768802 46.2812759625274  4.47650036194875 47.0014417864167  4.47650036194875 47.0014417864167  C 4.47650036194875 47.0014417864167  4.46230728658736 51.7324669069041  4.46230728658736 51.7324669069041  C 4.46230728658736 51.7324669069041  6.69951916558841 57.3392586774798  6.69951916558841 57.3392586774798  C 6.69951916558841 57.3392586774798  9.25353272672248 58.3469350279737  9.25353272672248 58.3469350279737  C 9.25353272672248 58.3469350279737  9.52899718936555 66.5268784613016  9.52899718936555 66.5268784613016  C 9.52899718936555 66.5268784613016  8.00621610380233 72.1133901241955  8.00621610380233 72.1133901241955  C 8.00621610380233 72.1133901241955  9.50491606150115 74.5539210827669  9.50491606150115 74.5539210827669  C 9.50491606150115 74.5539210827669  12.3497501668149 77.289494607936  12.3497501668149 77.289494607936  C 12.3497501668149 77.289494607936  19.2649498846895 75.5892155799058  19.2649498846895 75.5892155799058  C 19.2649498846895 75.5892155799058  20.6126430405824 78.0312935466914  20.6126430405824 78.0312935466914  C 20.6126430405824 78.0312935466914  18.5044628467052 80.7480079717238  18.5044628467052 80.7480079717238  C 18.5044628467052 80.7480079717238  14.8809456067906 85.903211344485  14.8809456067906 85.903211344485  C 14.8809456067906 85.903211344485  14.8770785862578 87.1922181887692  14.8770785862578 87.1922181887692  C 14.8770785862578 87.1922181887692  16.9727817138851 88.6345258470399  16.9727817138851 88.6345258470399  C 16.9727817138851 88.6345258470399  31.4162114046622 83.2267781333352  31.4162114046622 83.2267781333352  C 31.4162114046622 83.2267781333352  37.005060079965 85.9705837022144  37.005060079965 85.9705837022144  C 37.005060079965 85.9705837022144  38.5093790674995 84.5380760959793  38.5093790674995 84.5380760959793  C 38.5093790674995 84.5380760959793  37.0184011508026 81.5235600896996  37.0184011508026 81.5235600896996  C 37.0184011508026 81.5235600896996  37.3754030463879 79.5246024757653  37.3754030463879 79.5246024757653  C 37.3754030463879 79.5246024757653  39.6128759267749 67.0441362078028  39.6128759267749 67.0441362078028  C 39.6128759267749 67.0441362078028  41.7283521593921 63.8954374890486  41.7283521593921 63.8954374890486  C 41.7283521593921 63.8954374890486  42.7896747947335 60.4595722455163  42.7896747947335 60.4595722455163  C 42.7896747947335 60.4595722455163  45.3601804434361 55.303209866601  45.3601804434361 55.303209866601  C 45.3601804434361 55.303209866601  44.0131972913132 53.2911401830452  44.0131972913132 53.2911401830452  C 44.0131972913132 53.2911401830452  44.3265429550954 48.8440165699995  44.3265429550954 48.8440165699995  C 44.3265429550954 48.8440165699995  50.5078397761404 41.7744590325258  50.5078397761404 41.7744590325258  C 50.5078397761404 41.7744590325258  50.0731754681883 37.3270914181844  50.0731754681883 37.3270914181844  C 50.0731754681883 37.3270914181844  54.1519971256485 30.7392334384075  54.1519971256485 30.7392334384075  C 54.1519971256485 30.7392334384075  58.0490178177937 31.7509388102944  58.0490178177937 31.7509388102944  C 58.0490178177937 31.7509388102944  66.0294131915746 26.3238019936387  66.0294131915746 26.3238019936387  C 66.0294131915746 26.3238019936387  67.5425962261747 23.603302548509  67.5425962261747 23.603302548509  C 67.5425962261747 23.603302548509  62.4596802372403 14.5509244827847  62.4596802372403 14.5509244827847  C 62.4596802372403 14.5509244827847  59.1659887486128 10.0989798441406  59.1659887486128 10.0989798441406  C 59.1659887486128 10.0989798441406  61.5725805269763 7.9131682380613  61.5725805269763 7.9131682380613  C 61.5725805269763 7.9131682380613  58.5801996382281 5.35915467692735  58.5801996382281 5.35915467692735  C 58.5801996382281 5.35915467692735  50.9191589601361 5.3361715548931  50.9191589601361 5.3361715548931  C 50.9191589601361 5.3361715548931  47.7734622573217 1.88668523903652  47.7734622573217 1.88668523903652  C 47.7734622573217 1.88668523903652  41.6001944789087 7.61324764556275  41.6001944789087 7.61324764556275  C 41.6001944789087 7.61324764556275  39.3491825266328 6.60648029989545  39.3491825266328 6.60648029989545  C 39.3491825266328 6.60648029989545  41.9185401692398 2.16612472278621  41.9185401692398 2.16612472278621  C 41.9185401692398 2.16612472278621  41.6228315991059 0.734217119736968  41.6228315991059 0.734217119736968  C 41.6228315991059 0.734217119736968  39.3705476400761 0.151452025409014  39.3705476400761 0.151452025409014  C 39.3705476400761 0.151452025409014  31.6573136848514 3.85936571344627  31.6573136848514 3.85936571344627  C 31.6573136848514 3.85936571344627  25.9401263281044 5.56123874994029  25.9401263281044 5.56123874994029  C 25.9401263281044 5.56123874994029  21.2859656157467 5.25927214657781  21.2859656157467 5.25927214657781  C 21.2859656157467 5.25927214657781  11.1922330207063 14.1221182059374  11.1922330207063 14.1221182059374  C 11.1922330207063 14.1221182059374  5.77904127809529 15.8269032578934  5.77904127809529 15.8269032578934  Z " fill-rule="nonzero" fill="#3088ca" stroke="none" transform="matrix(1 0 0 1 1255 487 )" />
    <path d="M 5.77904127809529 15.8269032578934  C 5.77904127809529 15.8269032578934  2.15670504445154 19.2550854606308  2.15670504445154 19.2550854606308  C 2.15670504445154 19.2550854606308  6.33906625167924 27.1547454057278  6.33906625167924 27.1547454057278  C 6.33906625167924 27.1547454057278  6.77858858542606 31.3161235015407  6.77858858542606 31.3161235015407  C 6.77858858542606 31.3161235015407  4.51210255098704 35.4673835436295  4.51210255098704 35.4673835436295  C 4.51210255098704 35.4673835436295  1.34676574388891 37.8979224491458  1.34676574388891 37.8979224491458  C 1.34676574388891 37.8979224491458  0.57392964033437 45.8397176179698  0.57392964033437 45.8397176179698  C 0.57392964033437 45.8397176179698  1.62248520788603 46.9928797409545  1.62248520788603 46.9928797409545  C 1.62248520788603 46.9928797409545  3.4246457768802 46.2812759625274  3.4246457768802 46.2812759625274  C 3.4246457768802 46.2812759625274  4.47650036194875 47.0014417864167  4.47650036194875 47.0014417864167  C 4.47650036194875 47.0014417864167  4.46230728658736 51.7324669069041  4.46230728658736 51.7324669069041  C 4.46230728658736 51.7324669069041  6.69951916558841 57.3392586774798  6.69951916558841 57.3392586774798  C 6.69951916558841 57.3392586774798  9.25353272672248 58.3469350279737  9.25353272672248 58.3469350279737  C 9.25353272672248 58.3469350279737  9.52899718936555 66.5268784613016  9.52899718936555 66.5268784613016  C 9.52899718936555 66.5268784613016  8.00621610380233 72.1133901241955  8.00621610380233 72.1133901241955  C 8.00621610380233 72.1133901241955  9.50491606150115 74.5539210827669  9.50491606150115 74.5539210827669  C 9.50491606150115 74.5539210827669  12.3497501668149 77.289494607936  12.3497501668149 77.289494607936  C 12.3497501668149 77.289494607936  19.2649498846895 75.5892155799058  19.2649498846895 75.5892155799058  C 19.2649498846895 75.5892155799058  20.6126430405824 78.0312935466914  20.6126430405824 78.0312935466914  C 20.6126430405824 78.0312935466914  18.5044628467052 80.7480079717238  18.5044628467052 80.7480079717238  C 18.5044628467052 80.7480079717238  14.8809456067906 85.903211344485  14.8809456067906 85.903211344485  C 14.8809456067906 85.903211344485  14.8770785862578 87.1922181887692  14.8770785862578 87.1922181887692  C 14.8770785862578 87.1922181887692  16.9727817138851 88.6345258470399  16.9727817138851 88.6345258470399  C 16.9727817138851 88.6345258470399  31.4162114046622 83.2267781333352  31.4162114046622 83.2267781333352  C 31.4162114046622 83.2267781333352  37.005060079965 85.9705837022144  37.005060079965 85.9705837022144  C 37.005060079965 85.9705837022144  38.5093790674995 84.5380760959793  38.5093790674995 84.5380760959793  C 38.5093790674995 84.5380760959793  37.0184011508026 81.5235600896996  37.0184011508026 81.5235600896996  C 37.0184011508026 81.5235600896996  37.3754030463879 79.5246024757653  37.3754030463879 79.5246024757653  C 37.3754030463879 79.5246024757653  39.6128759267749 67.0441362078028  39.6128759267749 67.0441362078028  C 39.6128759267749 67.0441362078028  41.7283521593921 63.8954374890486  41.7283521593921 63.8954374890486  C 41.7283521593921 63.8954374890486  42.7896747947335 60.4595722455163  42.7896747947335 60.4595722455163  C 42.7896747947335 60.4595722455163  45.3601804434361 55.303209866601  45.3601804434361 55.303209866601  C 45.3601804434361 55.303209866601  44.0131972913132 53.2911401830452  44.0131972913132 53.2911401830452  C 44.0131972913132 53.2911401830452  44.3265429550954 48.8440165699995  44.3265429550954 48.8440165699995  C 44.3265429550954 48.8440165699995  50.5078397761404 41.7744590325258  50.5078397761404 41.7744590325258  C 50.5078397761404 41.7744590325258  50.0731754681883 37.3270914181844  50.0731754681883 37.3270914181844  C 50.0731754681883 37.3270914181844  54.1519971256485 30.7392334384075  54.1519971256485 30.7392334384075  C 54.1519971256485 30.7392334384075  58.0490178177937 31.7509388102944  58.0490178177937 31.7509388102944  C 58.0490178177937 31.7509388102944  66.0294131915746 26.3238019936387  66.0294131915746 26.3238019936387  C 66.0294131915746 26.3238019936387  67.5425962261747 23.603302548509  67.5425962261747 23.603302548509  C 67.5425962261747 23.603302548509  62.4596802372403 14.5509244827847  62.4596802372403 14.5509244827847  C 62.4596802372403 14.5509244827847  59.1659887486128 10.0989798441406  59.1659887486128 10.0989798441406  C 59.1659887486128 10.0989798441406  61.5725805269763 7.9131682380613  61.5725805269763 7.9131682380613  C 61.5725805269763 7.9131682380613  58.5801996382281 5.35915467692735  58.5801996382281 5.35915467692735  C 58.5801996382281 5.35915467692735  50.9191589601361 5.3361715548931  50.9191589601361 5.3361715548931  C 50.9191589601361 5.3361715548931  47.7734622573217 1.88668523903652  47.7734622573217 1.88668523903652  C 47.7734622573217 1.88668523903652  41.6001944789087 7.61324764556275  41.6001944789087 7.61324764556275  C 41.6001944789087 7.61324764556275  39.3491825266328 6.60648029989545  39.3491825266328 6.60648029989545  C 39.3491825266328 6.60648029989545  41.9185401692398 2.16612472278621  41.9185401692398 2.16612472278621  C 41.9185401692398 2.16612472278621  41.6228315991059 0.734217119736968  41.6228315991059 0.734217119736968  C 41.6228315991059 0.734217119736968  39.3705476400761 0.151452025409014  39.3705476400761 0.151452025409014  C 39.3705476400761 0.151452025409014  31.6573136848514 3.85936571344627  31.6573136848514 3.85936571344627  C 31.6573136848514 3.85936571344627  25.9401263281044 5.56123874994029  25.9401263281044 5.56123874994029  C 25.9401263281044 5.56123874994029  21.2859656157467 5.25927214657781  21.2859656157467 5.25927214657781  C 21.2859656157467 5.25927214657781  11.1922330207063 14.1221182059374  11.1922330207063 14.1221182059374  C 11.1922330207063 14.1221182059374  5.77904127809529 15.8269032578934  5.77904127809529 15.8269032578934  Z " stroke-width="0.97600957434184" stroke="#199eae" fill="none" transform="matrix(1 0 0 1 1255 487 )" mask="url(#clip1462)" />
  </g>
</svg>