<?xml version="1.0" encoding="utf-8"?>
<svg version="1.1" xmlns:xlink="http://www.w3.org/1999/xlink" width="177px" height="122px" xmlns="http://www.w3.org/2000/svg">
  <defs>
    <mask fill="white" id="clip1468">
      <path d="M 4.67591982789287 47.2961408467656  C 4.67591982789287 47.2961408467656  9.50114444855456 43.5775631021049  9.50114444855456 43.5775631021049  C 9.50114444855456 43.5775631021049  15.2041507300038 45.6027008550488  15.2041507300038 45.6027008550488  C 15.2041507300038 45.6027008550488  24.9866616725398 42.4790032690439  24.9866616725398 42.4790032690439  C 24.9866616725398 42.4790032690439  23.4858227034833 40.7514760963332  23.4858227034833 40.7514760963332  C 23.4858227034833 40.7514760963332  20.9328091476591 40.7438170556657  20.9328091476591 40.7438170556657  C 20.9328091476591 40.7438170556657  19.8889696051483 38.0186465857341  19.8889696051483 38.0186465857341  C 19.8889696051483 38.0186465857341  20.6472876316157 35.5828866524955  20.6472876316157 35.5828866524955  C 20.6472876316157 35.5828866524955  25.3113423965083 33.5868500540711  25.3113423965083 33.5868500540711  C 25.3113423965083 33.5868500540711  28.6318490275169 28.4337376924125  28.6318490275169 28.4337376924125  C 28.6318490275169 28.4337376924125  18.588459699786 20.5154946486442  18.588459699786 20.5154946486442  C 18.588459699786 20.5154946486442  18.1604114269633 12.196091474822  18.1604114269633 12.196091474822  C 18.1604114269633 12.196091474822  22.8287652146825 8.76704726750762  22.8287652146825 8.76704726750762  C 22.8287652146825 8.76704726750762  56.0604366660353 2.70165406187999  56.0604366660353 2.70165406187999  C 56.0604366660353 2.70165406187999  58.318614656361 0.986403954357286  58.318614656361 0.986403954357286  C 58.318614656361 0.986403954357286  63.2754959760848 1.71628482983095  63.2754959760848 1.71628482983095  C 63.2754959760848 1.71628482983095  79.9464004941619 5.4943508903587  79.9464004941619 5.4943508903587  C 79.9464004941619 5.4943508903587  84.8962397764944 8.23823945967857  84.8962397764944 8.23823945967857  C 84.8962397764944 8.23823945967857  92.5838095954492 12.4183616550177  92.5838095954492 12.4183616550177  C 92.5838095954492 12.4183616550177  97.2446983435311 12.1443402000365  97.2446983435311 12.1443402000365  C 97.2446983435311 12.1443402000365  104.470207709068 8.00895724225086  104.470207709068 8.00895724225086  C 104.470207709068 8.00895724225086  113.930961943161 9.46935999660175  113.930961943161 9.46935999660175  C 113.930961943161 9.46935999660175  120.103453717453 6.33483235309214  120.103453717453 6.33483235309214  C 120.103453717453 6.33483235309214  132.703720621526 13.9727419083641  132.703720621526 13.9727419083641  C 132.703720621526 13.9727419083641  139.474070570286 11.5550180708924  139.474070570286 11.5550180708924  C 139.474070570286 11.5550180708924  143.049135552932 19.8838622948441  143.049135552932 19.8838622948441  C 143.049135552932 19.8838622948441  151.751695761216 25.0720438427107  151.751695761216 25.0720438427107  C 151.751695761216 25.0720438427107  158.200374001986 30.5434678945197  158.200374001986 30.5434678945197  C 158.200374001986 30.5434678945197  162.861564751671 28.8354268252751  162.861564751671 28.8354268252751  C 162.861564751671 28.8354268252751  171.842625438719 40.1915321231794  171.842625438719 40.1915321231794  C 171.842625438719 40.1915321231794  173.620680879722 47.5149710086956  173.620680879722 47.5149710086956  C 173.620680879722 47.5149710086956  176.913366363007 51.9689126579433  176.913366363007 51.9689126579433  C 176.913366363007 51.9689126579433  175.836542645359 60.5718053370195  175.836542645359 60.5718053370195  C 175.836542645359 60.5718053370195  168.609690272692 66.4882097515562  168.609690272692 66.4882097515562  C 168.609690272692 66.4882097515562  169.950377391384 69.9322810386604  169.950377391384 69.9322810386604  C 169.950377391384 69.9322810386604  167.085184177969 72.6497244675636  167.085184177969 72.6497244675636  C 167.085184177969 72.6497244675636  163.469702980724 75.7929231571142  163.469702980724 75.7929231571142  C 163.469702980724 75.7929231571142  163.452065887075 81.6719543732091  163.452065887075 81.6719543732091  C 163.452065887075 81.6719543732091  160.138728294133 84.1020492763679  160.138728294133 84.1020492763679  C 160.138728294133 84.1020492763679  156.231151545937 82.9423101184608  156.231151545937 82.9423101184608  C 156.231151545937 82.9423101184608  152.940167071684 79.9213940781986  152.940167071684 79.9213940781986  C 152.940167071684 79.9213940781986  151.129822459234 83.3610123416585  151.129822459234 83.3610123416585  C 151.129822459234 83.3610123416585  153.378804400731 86.3778023600125  153.378804400731 86.3778023600125  C 153.378804400731 86.3778023600125  159.084686697452 87.110930252727  159.084686697452 87.110930252727  C 159.084686697452 87.110930252727  164.480223346319 92.291190758535  164.480223346319 92.291190758535  C 164.480223346319 92.291190758535  167.780240868536 92.3010908111016  167.780240868536 92.3010908111016  C 167.780240868536 92.3010908111016  170.330082407517 95.0327793156424  170.330082407517 95.0327793156424  C 170.330082407517 95.0327793156424  168.058439345696 99.9030341754027  168.058439345696 99.9030341754027  C 168.058439345696 99.9030341754027  168.057578341124 100.190035699305  168.057578341124 100.190035699305  C 168.057578341124 100.190035699305  163.401281617425 99.6000585666826  163.401281617425 99.6000585666826  C 163.401281617425 99.6000585666826  160.088364026712 101.890152726475  160.088364026712 101.890152726475  C 160.088364026712 101.890152726475  157.998675931023 98.4428344221296  157.998675931023 98.4428344221296  C 157.998675931023 98.4428344221296  152.276195546171 100.575697747068  152.276195546171 100.575697747068  C 152.276195546171 100.575697747068  150.76801253812 103.296212192277  150.76801253812 103.296212192277  C 150.76801253812 103.296212192277  150.75553547187 107.45523427558  150.75553547187 107.45523427558  C 150.75553547187 107.45523427558  145.044490147735 108.443115520967  145.044490147735 108.443115520967  C 145.044490147735 108.443115520967  137.8531069634 101.536442848369  137.8531069634 101.536442848369  C 137.8531069634 101.536442848369  135.606421034094 98.0876535362135  135.606421034094 98.0876535362135  C 135.606421034094 98.0876535362135  129.893227698554 99.7915385833907  129.893227698554 99.7915385833907  C 129.893227698554 99.7915385833907  120.133350876199 97.0372199586899  120.133350876199 97.0372199586899  C 120.133350876199 97.0372199586899  105.400248647338 99.0010493861029  105.400248647338 99.0010493861029  C 105.400248647338 99.0010493861029  104.19594025278 100.431456981187  104.19594025278 100.431456981187  C 104.19594025278 100.431456981187  102.829594997849 104.87342156684  102.829594997849 104.87342156684  C 102.829594997849 104.87342156684  99.9684198057688 106.584862654138  99.9684198057688 106.584862654138  C 99.9684198057688 106.584862654138  100.255077327844 111.033786276741  100.255077327844 111.033786276741  C 100.255077327844 111.033786276741  91.5047598659815 121.764689254987  91.5047598659815 121.764689254987  C 91.5047598659815 121.764689254987  76.5982877165718 118.850928783693  76.5982877165718 118.850928783693  C 76.5982877165718 118.850928783693  75.5657712341834 113.684757352694  75.5657712341834 113.684757352694  C 75.5657712341834 113.684757352694  66.5673784551067 106.772663651311  66.5673784551067 106.772663651311  C 66.5673784551067 106.772663651311  46.7413061839265 103.702142347658  46.7413061839265 103.702142347658  C 46.7413061839265 103.702142347658  38.182562739271 102.242445597056  38.182562739271 102.242445597056  C 38.182562739271 102.242445597056  34.8724091632344 101.944511015103  34.8724091632344 101.944511015103  C 34.8724091632344 101.944511015103  27.3780063699452 96.0429436793469  27.3780063699452 96.0429436793469  C 27.3780063699452 96.0429436793469  11.7542584119915 92.551023138176  11.7542584119915 92.551023138176  C 11.7542584119915 92.551023138176  0.995009283235106 72.5824601104077  0.995009283235106 72.5824601104077  C 0.995009283235106 72.5824601104077  0.711780779366933 66.9905304187457  0.711780779366933 66.9905304187457  C 0.711780779366933 66.9905304187457  5.07183693010757 64.9925818101689  5.07183693010757 64.9925818101689  C 5.07183693010757 64.9925818101689  5.09179903610104 58.3385464790078  5.09179903610104 58.3385464790078  C 5.09179903610104 58.3385464790078  8.27261592539426 50.7479801751159  8.27261592539426 50.7479801751159  C 8.27261592539426 50.7479801751159  4.67591982789287 47.2961408467656  4.67591982789287 47.2961408467656  Z " fill-rule="evenodd" />
    </mask>
  </defs>
  <g transform="matrix(1 0 0 1 -927 -353 )">
    <path d="M 4.67591982789287 47.2961408467656  C 4.67591982789287 47.2961408467656  9.50114444855456 43.5775631021049  9.50114444855456 43.5775631021049  C 9.50114444855456 43.5775631021049  15.2041507300038 45.6027008550488  15.2041507300038 45.6027008550488  C 15.2041507300038 45.6027008550488  24.9866616725398 42.4790032690439  24.9866616725398 42.4790032690439  C 24.9866616725398 42.4790032690439  23.4858227034833 40.7514760963332  23.4858227034833 40.7514760963332  C 23.4858227034833 40.7514760963332  20.9328091476591 40.7438170556657  20.9328091476591 40.7438170556657  C 20.9328091476591 40.7438170556657  19.8889696051483 38.0186465857341  19.8889696051483 38.0186465857341  C 19.8889696051483 38.0186465857341  20.6472876316157 35.5828866524955  20.6472876316157 35.5828866524955  C 20.6472876316157 35.5828866524955  25.3113423965083 33.5868500540711  25.3113423965083 33.5868500540711  C 25.3113423965083 33.5868500540711  28.6318490275169 28.4337376924125  28.6318490275169 28.4337376924125  C 28.6318490275169 28.4337376924125  18.588459699786 20.5154946486442  18.588459699786 20.5154946486442  C 18.588459699786 20.5154946486442  18.1604114269633 12.196091474822  18.1604114269633 12.196091474822  C 18.1604114269633 12.196091474822  22.8287652146825 8.76704726750762  22.8287652146825 8.76704726750762  C 22.8287652146825 8.76704726750762  56.0604366660353 2.70165406187999  56.0604366660353 2.70165406187999  C 56.0604366660353 2.70165406187999  58.318614656361 0.986403954357286  58.318614656361 0.986403954357286  C 58.318614656361 0.986403954357286  63.2754959760848 1.71628482983095  63.2754959760848 1.71628482983095  C 63.2754959760848 1.71628482983095  79.9464004941619 5.4943508903587  79.9464004941619 5.4943508903587  C 79.9464004941619 5.4943508903587  84.8962397764944 8.23823945967857  84.8962397764944 8.23823945967857  C 84.8962397764944 8.23823945967857  92.5838095954492 12.4183616550177  92.5838095954492 12.4183616550177  C 92.5838095954492 12.4183616550177  97.2446983435311 12.1443402000365  97.2446983435311 12.1443402000365  C 97.2446983435311 12.1443402000365  104.470207709068 8.00895724225086  104.470207709068 8.00895724225086  C 104.470207709068 8.00895724225086  113.930961943161 9.46935999660175  113.930961943161 9.46935999660175  C 113.930961943161 9.46935999660175  120.103453717453 6.33483235309214  120.103453717453 6.33483235309214  C 120.103453717453 6.33483235309214  132.703720621526 13.9727419083641  132.703720621526 13.9727419083641  C 132.703720621526 13.9727419083641  139.474070570286 11.5550180708924  139.474070570286 11.5550180708924  C 139.474070570286 11.5550180708924  143.049135552932 19.8838622948441  143.049135552932 19.8838622948441  C 143.049135552932 19.8838622948441  151.751695761216 25.0720438427107  151.751695761216 25.0720438427107  C 151.751695761216 25.0720438427107  158.200374001986 30.5434678945197  158.200374001986 30.5434678945197  C 158.200374001986 30.5434678945197  162.861564751671 28.8354268252751  162.861564751671 28.8354268252751  C 162.861564751671 28.8354268252751  171.842625438719 40.1915321231794  171.842625438719 40.1915321231794  C 171.842625438719 40.1915321231794  173.620680879722 47.5149710086956  173.620680879722 47.5149710086956  C 173.620680879722 47.5149710086956  176.913366363007 51.9689126579433  176.913366363007 51.9689126579433  C 176.913366363007 51.9689126579433  175.836542645359 60.5718053370195  175.836542645359 60.5718053370195  C 175.836542645359 60.5718053370195  168.609690272692 66.4882097515562  168.609690272692 66.4882097515562  C 168.609690272692 66.4882097515562  169.950377391384 69.9322810386604  169.950377391384 69.9322810386604  C 169.950377391384 69.9322810386604  167.085184177969 72.6497244675636  167.085184177969 72.6497244675636  C 167.085184177969 72.6497244675636  163.469702980724 75.7929231571142  163.469702980724 75.7929231571142  C 163.469702980724 75.7929231571142  163.452065887075 81.6719543732091  163.452065887075 81.6719543732091  C 163.452065887075 81.6719543732091  160.138728294133 84.1020492763679  160.138728294133 84.1020492763679  C 160.138728294133 84.1020492763679  156.231151545937 82.9423101184608  156.231151545937 82.9423101184608  C 156.231151545937 82.9423101184608  152.940167071684 79.9213940781986  152.940167071684 79.9213940781986  C 152.940167071684 79.9213940781986  151.129822459234 83.3610123416585  151.129822459234 83.3610123416585  C 151.129822459234 83.3610123416585  153.378804400731 86.3778023600125  153.378804400731 86.3778023600125  C 153.378804400731 86.3778023600125  159.084686697452 87.110930252727  159.084686697452 87.110930252727  C 159.084686697452 87.110930252727  164.480223346319 92.291190758535  164.480223346319 92.291190758535  C 164.480223346319 92.291190758535  167.780240868536 92.3010908111016  167.780240868536 92.3010908111016  C 167.780240868536 92.3010908111016  170.330082407517 95.0327793156424  170.330082407517 95.0327793156424  C 170.330082407517 95.0327793156424  168.058439345696 99.9030341754027  168.058439345696 99.9030341754027  C 168.058439345696 99.9030341754027  168.057578341124 100.190035699305  168.057578341124 100.190035699305  C 168.057578341124 100.190035699305  163.401281617425 99.6000585666826  163.401281617425 99.6000585666826  C 163.401281617425 99.6000585666826  160.088364026712 101.890152726475  160.088364026712 101.890152726475  C 160.088364026712 101.890152726475  157.998675931023 98.4428344221296  157.998675931023 98.4428344221296  C 157.998675931023 98.4428344221296  152.276195546171 100.575697747068  152.276195546171 100.575697747068  C 152.276195546171 100.575697747068  150.76801253812 103.296212192277  150.76801253812 103.296212192277  C 150.76801253812 103.296212192277  150.75553547187 107.45523427558  150.75553547187 107.45523427558  C 150.75553547187 107.45523427558  145.044490147735 108.443115520967  145.044490147735 108.443115520967  C 145.044490147735 108.443115520967  137.8531069634 101.536442848369  137.8531069634 101.536442848369  C 137.8531069634 101.536442848369  135.606421034094 98.0876535362135  135.606421034094 98.0876535362135  C 135.606421034094 98.0876535362135  129.893227698554 99.7915385833907  129.893227698554 99.7915385833907  C 129.893227698554 99.7915385833907  120.133350876199 97.0372199586899  120.133350876199 97.0372199586899  C 120.133350876199 97.0372199586899  105.400248647338 99.0010493861029  105.400248647338 99.0010493861029  C 105.400248647338 99.0010493861029  104.19594025278 100.431456981187  104.19594025278 100.431456981187  C 104.19594025278 100.431456981187  102.829594997849 104.87342156684  102.829594997849 104.87342156684  C 102.829594997849 104.87342156684  99.9684198057688 106.584862654138  99.9684198057688 106.584862654138  C 99.9684198057688 106.584862654138  100.255077327844 111.033786276741  100.255077327844 111.033786276741  C 100.255077327844 111.033786276741  91.5047598659815 121.764689254987  91.5047598659815 121.764689254987  C 91.5047598659815 121.764689254987  76.5982877165718 118.850928783693  76.5982877165718 118.850928783693  C 76.5982877165718 118.850928783693  75.5657712341834 113.684757352694  75.5657712341834 113.684757352694  C 75.5657712341834 113.684757352694  66.5673784551067 106.772663651311  66.5673784551067 106.772663651311  C 66.5673784551067 106.772663651311  46.7413061839265 103.702142347658  46.7413061839265 103.702142347658  C 46.7413061839265 103.702142347658  38.182562739271 102.242445597056  38.182562739271 102.242445597056  C 38.182562739271 102.242445597056  34.8724091632344 101.944511015103  34.8724091632344 101.944511015103  C 34.8724091632344 101.944511015103  27.3780063699452 96.0429436793469  27.3780063699452 96.0429436793469  C 27.3780063699452 96.0429436793469  11.7542584119915 92.551023138176  11.7542584119915 92.551023138176  C 11.7542584119915 92.551023138176  0.995009283235106 72.5824601104077  0.995009283235106 72.5824601104077  C 0.995009283235106 72.5824601104077  0.711780779366933 66.9905304187457  0.711780779366933 66.9905304187457  C 0.711780779366933 66.9905304187457  5.07183693010757 64.9925818101689  5.07183693010757 64.9925818101689  C 5.07183693010757 64.9925818101689  5.09179903610104 58.3385464790078  5.09179903610104 58.3385464790078  C 5.09179903610104 58.3385464790078  8.27261592539426 50.7479801751159  8.27261592539426 50.7479801751159  C 8.27261592539426 50.7479801751159  4.67591982789287 47.2961408467656  4.67591982789287 47.2961408467656  Z " fill-rule="nonzero" fill="#3088ca" stroke="none" transform="matrix(1 0 0 1 927 353 )" />
    <path d="M 4.67591982789287 47.2961408467656  C 4.67591982789287 47.2961408467656  9.50114444855456 43.5775631021049  9.50114444855456 43.5775631021049  C 9.50114444855456 43.5775631021049  15.2041507300038 45.6027008550488  15.2041507300038 45.6027008550488  C 15.2041507300038 45.6027008550488  24.9866616725398 42.4790032690439  24.9866616725398 42.4790032690439  C 24.9866616725398 42.4790032690439  23.4858227034833 40.7514760963332  23.4858227034833 40.7514760963332  C 23.4858227034833 40.7514760963332  20.9328091476591 40.7438170556657  20.9328091476591 40.7438170556657  C 20.9328091476591 40.7438170556657  19.8889696051483 38.0186465857341  19.8889696051483 38.0186465857341  C 19.8889696051483 38.0186465857341  20.6472876316157 35.5828866524955  20.6472876316157 35.5828866524955  C 20.6472876316157 35.5828866524955  25.3113423965083 33.5868500540711  25.3113423965083 33.5868500540711  C 25.3113423965083 33.5868500540711  28.6318490275169 28.4337376924125  28.6318490275169 28.4337376924125  C 28.6318490275169 28.4337376924125  18.588459699786 20.5154946486442  18.588459699786 20.5154946486442  C 18.588459699786 20.5154946486442  18.1604114269633 12.196091474822  18.1604114269633 12.196091474822  C 18.1604114269633 12.196091474822  22.8287652146825 8.76704726750762  22.8287652146825 8.76704726750762  C 22.8287652146825 8.76704726750762  56.0604366660353 2.70165406187999  56.0604366660353 2.70165406187999  C 56.0604366660353 2.70165406187999  58.318614656361 0.986403954357286  58.318614656361 0.986403954357286  C 58.318614656361 0.986403954357286  63.2754959760848 1.71628482983095  63.2754959760848 1.71628482983095  C 63.2754959760848 1.71628482983095  79.9464004941619 5.4943508903587  79.9464004941619 5.4943508903587  C 79.9464004941619 5.4943508903587  84.8962397764944 8.23823945967857  84.8962397764944 8.23823945967857  C 84.8962397764944 8.23823945967857  92.5838095954492 12.4183616550177  92.5838095954492 12.4183616550177  C 92.5838095954492 12.4183616550177  97.2446983435311 12.1443402000365  97.2446983435311 12.1443402000365  C 97.2446983435311 12.1443402000365  104.470207709068 8.00895724225086  104.470207709068 8.00895724225086  C 104.470207709068 8.00895724225086  113.930961943161 9.46935999660175  113.930961943161 9.46935999660175  C 113.930961943161 9.46935999660175  120.103453717453 6.33483235309214  120.103453717453 6.33483235309214  C 120.103453717453 6.33483235309214  132.703720621526 13.9727419083641  132.703720621526 13.9727419083641  C 132.703720621526 13.9727419083641  139.474070570286 11.5550180708924  139.474070570286 11.5550180708924  C 139.474070570286 11.5550180708924  143.049135552932 19.8838622948441  143.049135552932 19.8838622948441  C 143.049135552932 19.8838622948441  151.751695761216 25.0720438427107  151.751695761216 25.0720438427107  C 151.751695761216 25.0720438427107  158.200374001986 30.5434678945197  158.200374001986 30.5434678945197  C 158.200374001986 30.5434678945197  162.861564751671 28.8354268252751  162.861564751671 28.8354268252751  C 162.861564751671 28.8354268252751  171.842625438719 40.1915321231794  171.842625438719 40.1915321231794  C 171.842625438719 40.1915321231794  173.620680879722 47.5149710086956  173.620680879722 47.5149710086956  C 173.620680879722 47.5149710086956  176.913366363007 51.9689126579433  176.913366363007 51.9689126579433  C 176.913366363007 51.9689126579433  175.836542645359 60.5718053370195  175.836542645359 60.5718053370195  C 175.836542645359 60.5718053370195  168.609690272692 66.4882097515562  168.609690272692 66.4882097515562  C 168.609690272692 66.4882097515562  169.950377391384 69.9322810386604  169.950377391384 69.9322810386604  C 169.950377391384 69.9322810386604  167.085184177969 72.6497244675636  167.085184177969 72.6497244675636  C 167.085184177969 72.6497244675636  163.469702980724 75.7929231571142  163.469702980724 75.7929231571142  C 163.469702980724 75.7929231571142  163.452065887075 81.6719543732091  163.452065887075 81.6719543732091  C 163.452065887075 81.6719543732091  160.138728294133 84.1020492763679  160.138728294133 84.1020492763679  C 160.138728294133 84.1020492763679  156.231151545937 82.9423101184608  156.231151545937 82.9423101184608  C 156.231151545937 82.9423101184608  152.940167071684 79.9213940781986  152.940167071684 79.9213940781986  C 152.940167071684 79.9213940781986  151.129822459234 83.3610123416585  151.129822459234 83.3610123416585  C 151.129822459234 83.3610123416585  153.378804400731 86.3778023600125  153.378804400731 86.3778023600125  C 153.378804400731 86.3778023600125  159.084686697452 87.110930252727  159.084686697452 87.110930252727  C 159.084686697452 87.110930252727  164.480223346319 92.291190758535  164.480223346319 92.291190758535  C 164.480223346319 92.291190758535  167.780240868536 92.3010908111016  167.780240868536 92.3010908111016  C 167.780240868536 92.3010908111016  170.330082407517 95.0327793156424  170.330082407517 95.0327793156424  C 170.330082407517 95.0327793156424  168.058439345696 99.9030341754027  168.058439345696 99.9030341754027  C 168.058439345696 99.9030341754027  168.057578341124 100.190035699305  168.057578341124 100.190035699305  C 168.057578341124 100.190035699305  163.401281617425 99.6000585666826  163.401281617425 99.6000585666826  C 163.401281617425 99.6000585666826  160.088364026712 101.890152726475  160.088364026712 101.890152726475  C 160.088364026712 101.890152726475  157.998675931023 98.4428344221296  157.998675931023 98.4428344221296  C 157.998675931023 98.4428344221296  152.276195546171 100.575697747068  152.276195546171 100.575697747068  C 152.276195546171 100.575697747068  150.76801253812 103.296212192277  150.76801253812 103.296212192277  C 150.76801253812 103.296212192277  150.75553547187 107.45523427558  150.75553547187 107.45523427558  C 150.75553547187 107.45523427558  145.044490147735 108.443115520967  145.044490147735 108.443115520967  C 145.044490147735 108.443115520967  137.8531069634 101.536442848369  137.8531069634 101.536442848369  C 137.8531069634 101.536442848369  135.606421034094 98.0876535362135  135.606421034094 98.0876535362135  C 135.606421034094 98.0876535362135  129.893227698554 99.7915385833907  129.893227698554 99.7915385833907  C 129.893227698554 99.7915385833907  120.133350876199 97.0372199586899  120.133350876199 97.0372199586899  C 120.133350876199 97.0372199586899  105.400248647338 99.0010493861029  105.400248647338 99.0010493861029  C 105.400248647338 99.0010493861029  104.19594025278 100.431456981187  104.19594025278 100.431456981187  C 104.19594025278 100.431456981187  102.829594997849 104.87342156684  102.829594997849 104.87342156684  C 102.829594997849 104.87342156684  99.9684198057688 106.584862654138  99.9684198057688 106.584862654138  C 99.9684198057688 106.584862654138  100.255077327844 111.033786276741  100.255077327844 111.033786276741  C 100.255077327844 111.033786276741  91.5047598659815 121.764689254987  91.5047598659815 121.764689254987  C 91.5047598659815 121.764689254987  76.5982877165718 118.850928783693  76.5982877165718 118.850928783693  C 76.5982877165718 118.850928783693  75.5657712341834 113.684757352694  75.5657712341834 113.684757352694  C 75.5657712341834 113.684757352694  66.5673784551067 106.772663651311  66.5673784551067 106.772663651311  C 66.5673784551067 106.772663651311  46.7413061839265 103.702142347658  46.7413061839265 103.702142347658  C 46.7413061839265 103.702142347658  38.182562739271 102.242445597056  38.182562739271 102.242445597056  C 38.182562739271 102.242445597056  34.8724091632344 101.944511015103  34.8724091632344 101.944511015103  C 34.8724091632344 101.944511015103  27.3780063699452 96.0429436793469  27.3780063699452 96.0429436793469  C 27.3780063699452 96.0429436793469  11.7542584119915 92.551023138176  11.7542584119915 92.551023138176  C 11.7542584119915 92.551023138176  0.995009283235106 72.5824601104077  0.995009283235106 72.5824601104077  C 0.995009283235106 72.5824601104077  0.711780779366933 66.9905304187457  0.711780779366933 66.9905304187457  C 0.711780779366933 66.9905304187457  5.07183693010757 64.9925818101689  5.07183693010757 64.9925818101689  C 5.07183693010757 64.9925818101689  5.09179903610104 58.3385464790078  5.09179903610104 58.3385464790078  C 5.09179903610104 58.3385464790078  8.27261592539426 50.7479801751159  8.27261592539426 50.7479801751159  C 8.27261592539426 50.7479801751159  4.67591982789287 47.2961408467656  4.67591982789287 47.2961408467656  Z " stroke-width="0.97600957434184" stroke="#199eae" fill="none" transform="matrix(1 0 0 1 927 353 )" mask="url(#clip1468)" />
  </g>
</svg>