<?xml version="1.0" encoding="utf-8"?>
<svg version="1.1" xmlns:xlink="http://www.w3.org/1999/xlink" width="273px" height="142px" xmlns="http://www.w3.org/2000/svg">
  <defs>
    <mask fill="white" id="clip1467">
      <path d="M 151.195078345549 130.228400345489  C 151.195078345549 130.228400345489  157.801896425999 133.987274304111  157.801896425999 133.987274304111  C 157.801896425999 133.987274304111  166.364941893497 135.012977750324  166.364941893497 135.012977750324  C 166.364941893497 135.012977750324  169.209340996501 138.89356635522  169.209340996501 138.89356635522  C 169.209340996501 138.89356635522  170.707623951986 139.473069432227  170.707623951986 139.473069432227  C 170.707623951986 139.473069432227  183.634592590757 137.211817425579  183.634592590757 137.211817425579  C 183.634592590757 137.211817425579  184.391052607359 135.062056010917  184.391052607359 135.062056010917  C 184.391052607359 135.062056010917  186.950939199677 133.778717196729  186.950939199677 133.778717196729  C 186.950939199677 133.778717196729  193.12759699609 128.922177409792  193.12759699609 128.922177409792  C 193.12759699609 128.922177409792  198.53878272805 128.219400678234  198.53878272805 128.219400678234  C 198.53878272805 128.219400678234  203.507845112452 125.222264764238  203.507845112452 125.222264764238  C 203.507845112452 125.222264764238  213.290383055131 120.089538510824  213.290383055131 120.089538510824  C 213.290383055131 120.089538510824  214.338231618929 121.81170665508  214.338231618929 121.81170665508  C 214.338231618929 121.81170665508  221.54536988692 124.133360982448  221.54536988692 124.133360982448  C 221.54536988692 124.133360982448  232.079917822572 119.000890730393  232.079917822572 119.000890730393  C 232.079917822572 119.000890730393  235.378476337042 121.163817214959  235.378476337042 121.163817214959  C 235.378476337042 121.163817214959  232.360986314972 125.312824245085  232.360986314972 125.312824245085  C 232.360986314972 125.312824245085  233.557992670758 126.316429573963  233.557992670758 126.316429573963  C 233.557992670758 126.316429573963  237.76301499831 126.329044640945  237.76301499831 126.329044640945  C 237.76301499831 126.329044640945  238.21086037625 128.049412775643  238.21086037625 128.049412775643  C 238.21086037625 128.049412775643  234.585328125636 134.209624484732  234.585328125636 134.209624484732  C 234.585328125636 134.209624484732  235.633333690267 135.212782811236  235.633333690267 135.212782811236  C 235.633333690267 135.212782811236  237.733344840769 135.219082844688  237.733344840769 135.219082844688  C 237.733344840769 135.219082844688  248.245225656065 137.975657481367  248.245225656065 137.975657481367  C 248.245225656065 137.975657481367  252.918434469563 134.261623760834  252.918434469563 134.261623760834  C 252.918434469563 134.261623760834  259.813982083091 139.445384285226  259.813982083091 139.445384285226  C 259.813982083091 139.445384285226  261.921316272476 137.010671357547  261.921316272476 137.010671357547  C 261.921316272476 137.010671357547  263.716150802571 138.741080545561  263.716150802571 138.741080545561  C 263.716150802571 138.741080545561  265.968162760156 138.747836581433  265.968162760156 138.747836581433  C 265.968162760156 138.747836581433  267.025343373505 137.02598343885  267.025343373505 137.02598343885  C 267.025343373505 137.02598343885  266.600996120333 129.139597564235  266.600996120333 129.139597564235  C 266.600996120333 129.139597564235  268.404026693947 128.137992245977  268.404026693947 128.137992245977  C 268.404026693947 128.137992245977  272.775532905484 122.990032911679  272.775532905484 122.990032911679  C 272.775532905484 122.990032911679  272.104301341423 103.063734108323  272.104301341423 103.063734108323  C 272.104301341423 103.063734108323  268.224403740197 93.0109507307119  268.224403740197 93.0109507307119  C 268.224403740197 93.0109507307119  271.086436936833 91.013508124822  271.086436936833 91.013508124822  C 271.086436936833 91.013508124822  262.866854293032 76.5016420706659  262.866854293032 76.5016420706659  C 262.866854293032 76.5016420706659  252.822064957867 68.3833919649131  252.822064957867 68.3833919649131  C 252.822064957867 68.3833919649131  249.962889776406 70.0948390522427  249.962889776406 70.0948390522427  C 249.962889776406 70.0948390522427  250.248083290708 75.0317652660103  250.248083290708 75.0317652660103  C 250.248083290708 75.0317652660103  241.497768828861 85.7616682389464  241.497768828861 85.7616682389464  C 241.497768828861 85.7616682389464  227.080299275925 82.8493747754413  227.080299275925 82.8493747754413  C 227.080299275925 82.8493747754413  226.046785788243 77.6822003391168  226.046785788243 77.6822003391168  C 226.046785788243 77.6822003391168  217.050848022202 70.2851070625154  217.050848022202 70.2851070625154  C 217.050848022202 70.2851070625154  197.224775751022 67.2145857588624  197.224775751022 67.2145857588624  C 197.224775751022 67.2145857588624  188.663023290389 65.7578800241417  188.663023290389 65.7578800241417  C 188.663023290389 65.7578800241417  185.354875725004 65.4579514316004  185.354875725004 65.4579514316004  C 185.354875725004 65.4579514316004  177.86147593704 59.5553870905508  177.86147593704 59.5553870905508  C 177.86147593704 59.5553870905508  162.243725010929 56.0644845547853  162.243725010929 56.0644845547853  C 162.243725010929 56.0644845547853  151.484475882173 36.095921527017  151.484475882173 36.095921527017  C 151.484475882173 36.095921527017  151.201250378321 30.5029918300452  151.201250378321 30.5029918300452  C 151.201250378321 30.5029918300452  155.562306534371 28.5050462214843  155.562306534371 28.5050462214843  C 155.562306534371 28.5050462214843  155.580804632591 22.3390134814875  155.580804632591 22.3390134814875  C 155.580804632591 22.3390134814875  158.761621521884 14.7484471775957  158.761621521884 14.7484471775957  C 158.761621521884 14.7484471775957  155.164931424415 11.2946078386257  155.164931424415 11.2946078386257  C 155.164931424415 11.2946078386257  159.985141018448 7.58101512043425  159.985141018448 7.58101512043425  C 159.985141018448 7.58101512043425  156.990288116574 5.85100593454479  156.990288116574 5.85100593454479  C 156.990288116574 5.85100593454479  149.773249796017 5.8293548195831  149.773249796017 5.8293548195831  C 149.773249796017 5.8293548195831  136.380978686612 0.189097871316108  136.380978686612 0.189097871316108  C 136.380978686612 0.189097871316108  128.116934806733 0.164305739676422  128.116934806733 0.164305739676422  C 128.116934806733 0.164305739676422  121.65173147822 1.86793478549441  121.65173147822 1.86793478549441  C 121.65173147822 1.86793478549441  114.438693178902 1.84629567059648  114.438693178902 1.84629567059648  C 114.438693178902 1.84629567059648  103.151993249522 7.692519712494  103.151993249522 7.692519712494  C 103.151993249522 7.692519712494  94.1349603714709 6.66045423250034  94.1349603714709 6.66045423250034  C 94.1349603714709 6.66045423250034  85.1088764453616 9.64541908187118  85.1088764453616 9.64541908187118  C 85.1088764453616 9.64541908187118  77.6047186002757 7.3288737816307  77.6047186002757 7.3288737816307  C 77.6047186002757 7.3288737816307  72.9573189238172 3.43987613208571  72.9573189238172 3.43987613208571  C 72.9573189238172 3.43987613208571  60.9404121172324 1.68480081310167  60.9404121172324 1.68480081310167  C 60.9404121172324 1.68480081310167  53.1018664966362 6.8293591293405  53.1018664966362 6.8293591293405  C 53.1018664966362 6.8293591293405  48.75299440528 5.09928794312185  48.75299440528 5.09928794312185  C 48.75299440528 5.09928794312185  45.1541562964051 2.36145240594203  45.1541562964051 2.36145240594203  C 45.1541562964051 2.36145240594203  36.4421340378798 0.327287605066999  36.4421340378798 0.327287605066999  C 36.4421340378798 0.327287605066999  30.2710562710952 4.32383182565576  30.2710562710952 4.32383182565576  C 30.2710562710952 4.32383182565576  27.8461043952445 10.6296473078619  27.8461043952445 10.6296473078619  C 27.8461043952445 10.6296473078619  23.0289068172043 13.3392346950515  23.0289068172043 13.3392346950515  C 23.0289068172043 13.3392346950515  21.964708166592 17.0670954890027  21.964708166592 17.0670954890027  C 21.964708166592 17.0670954890027  18.8076914036711 18.0576387485244  18.8076914036711 18.0576387485244  C 18.8076914036711 18.0576387485244  15.2015332559287 17.7598161671655  15.2015332559287 17.7598161671655  C 15.2015332559287 17.7598161671655  13.6933562479092 20.4783306017555  13.6933562479092 20.4783306017555  C 13.6933562479092 20.4783306017555  12.9287331879638 24.3490921544716  12.9287331879638 24.3490921544716  C 12.9287331879638 24.3490921544716  11.3721419228774 24.2054203916127  11.3721419228774 24.2054203916127  C 11.3721419228774 24.2054203916127  11.1145365550613 28.0727029258563  11.1145365550613 28.0727029258563  C 11.1145365550613 28.0727029258563  15.4590886234794 32.2427960679438  15.4590886234794 32.2427960679438  C 15.4590886234794 32.2427960679438  15.7414381226802 38.1277273153663  15.7414381226802 38.1277273153663  C 15.7414381226802 38.1277273153663  14.3795308913144 40.4236745062364  14.3795308913144 40.4236745062364  C 14.3795308913144 40.4236745062364  7.91736057890567 41.1162981838842  7.91736057890567 41.1162981838842  C 7.91736057890567 41.1162981838842  4.61866306369762 37.6663528655905  4.61866306369762 37.6663528655905  C 4.61866306369762 37.6663528655905  1.31735253461517 38.0874551015315  1.31735253461517 38.0874551015315  C 1.31735253461517 38.0874551015315  0.709171305334301 40.8116695663871  0.709171305334301 40.8116695663871  C 0.709171305334301 40.8116695663871  2.49585179213334 45.2600931863355  2.49585179213334 45.2600931863355  C 2.49585179213334 45.2600931863355  3.08638692771813 48.4179099535042  3.08638692771813 48.4179099535042  C 3.08638692771813 48.4179099535042  3.07433286371425 52.4359312881307  3.07433286371425 52.4359312881307  C 3.07433286371425 52.4359312881307  2.01172622155509 55.299784494431  2.01172622155509 55.299784494431  C 2.01172622155509 55.299784494431  2.45484657440652 57.5951466821948  2.45484657440652 57.5951466821948  C 2.45484657440652 57.5951466821948  6.663575921642 58.0387790377648  6.663575921642 58.0387790377648  C 6.663575921642 58.0387790377648  8.90540382515299 61.7735578684489  8.90540382515299 61.7735578684489  C 8.90540382515299 61.7735578684489  18.6545345904491 69.10990982253  18.6545345904491 69.10990982253  C 18.6545345904491 69.10990982253  18.6461705460382 71.8979246261486  18.6461705460382 71.8979246261486  C 18.6461705460382 71.8979246261486  25.8384087349136 79.519610095275  25.8384087349136 79.519610095275  C 25.8384087349136 79.519610095275  28.2302524349686 82.2498245919891  28.2302524349686 82.2498245919891  C 28.2302524349686 82.2498245919891  30.4861164130074 82.9726024297476  30.4861164130074 82.9726024297476  C 30.4861164130074 82.9726024297476  34.85460460852 78.8306484370715  34.85460460852 78.8306484370715  C 34.85460460852 78.8306484370715  38.751311298998 82.2803877542714  38.751311298998 82.2803877542714  C 38.751311298998 82.2803877542714  55.2419528599266 95.8120526038193  55.2419528599266 95.8120526038193  C 55.2419528599266 95.8120526038193  58.2213076795097 102.708089219943  58.2213076795097 102.708089219943  C 58.2213076795097 102.708089219943  61.8293268371336 102.718913277416  61.8293268371336 102.718913277416  C 61.8293268371336 102.718913277416  63.9353650196372 100.716202643554  63.9353650196372 100.716202643554  C 63.9353650196372 100.716202643554  65.7302115497958 102.442611810328  65.7302115497958 102.442611810328  C 65.7302115497958 102.442611810328  65.7117164515917 108.607644545015  65.7117164515917 108.607644545015  C 65.7117164515917 108.607644545015  75.4632762297852 113.800973120211  75.4632762297852 113.800973120211  C 75.4632762297852 113.800973120211  77.5825834827441 113.375324860132  77.5825834827441 113.375324860132  C 77.5825834827441 113.375324860132  79.0671023651453 118.542852298331  79.0671023651453 118.542852298331  C 79.0671023651453 118.542852298331  87.3173731718929 123.158668807091  87.3173731718929 123.158668807091  C 87.3173731718929 123.158668807091  87.6083357168267 126.172584810185  87.6083357168267 126.172584810185  C 87.6083357168267 126.172584810185  89.1053436655415 127.177090143842  89.1053436655415 127.177090143842  C 89.1053436655415 127.177090143842  96.3202459747573 126.910730729544  96.3202459747573 126.910730729544  C 96.3202459747573 126.910730729544  100.22826672531 126.922454791795  100.22826672531 126.922454791795  C 100.22826672531 126.922454791795  106.077814784857 131.101062979096  106.077814784857 131.101062979096  C 106.077814784857 131.101062979096  118.999179393873 130.707820891084  118.999179393873 130.707820891084  C 118.999179393873 130.707820891084  125.912077099524 130.441555477286  125.912077099524 130.441555477286  C 125.912077099524 130.441555477286  127.703905613658 133.173969985681  127.703905613658 133.173969985681  C 127.703905613658 133.173969985681  126.186260555366 139.048501177882  126.186260555366 139.048501177882  C 126.186260555366 139.048501177882  127.980249080968 141.060911863249  127.980249080968 141.060911863249  C 127.980249080968 141.060911863249  135.210492471641 135.347520526658  135.210492471641 135.347520526658  C 135.210492471641 135.347520526658  144.735482046807 129.06300515755  144.735482046807 129.06300515755  C 144.735482046807 129.06300515755  151.195078345549 130.228400345489  151.195078345549 130.228400345489  Z " fill-rule="evenodd" />
    </mask>
  </defs>
  <g transform="matrix(1 0 0 1 -777 -389 )">
    <path d="M 151.195078345549 130.228400345489  C 151.195078345549 130.228400345489  157.801896425999 133.987274304111  157.801896425999 133.987274304111  C 157.801896425999 133.987274304111  166.364941893497 135.012977750324  166.364941893497 135.012977750324  C 166.364941893497 135.012977750324  169.209340996501 138.89356635522  169.209340996501 138.89356635522  C 169.209340996501 138.89356635522  170.707623951986 139.473069432227  170.707623951986 139.473069432227  C 170.707623951986 139.473069432227  183.634592590757 137.211817425579  183.634592590757 137.211817425579  C 183.634592590757 137.211817425579  184.391052607359 135.062056010917  184.391052607359 135.062056010917  C 184.391052607359 135.062056010917  186.950939199677 133.778717196729  186.950939199677 133.778717196729  C 186.950939199677 133.778717196729  193.12759699609 128.922177409792  193.12759699609 128.922177409792  C 193.12759699609 128.922177409792  198.53878272805 128.219400678234  198.53878272805 128.219400678234  C 198.53878272805 128.219400678234  203.507845112452 125.222264764238  203.507845112452 125.222264764238  C 203.507845112452 125.222264764238  213.290383055131 120.089538510824  213.290383055131 120.089538510824  C 213.290383055131 120.089538510824  214.338231618929 121.81170665508  214.338231618929 121.81170665508  C 214.338231618929 121.81170665508  221.54536988692 124.133360982448  221.54536988692 124.133360982448  C 221.54536988692 124.133360982448  232.079917822572 119.000890730393  232.079917822572 119.000890730393  C 232.079917822572 119.000890730393  235.378476337042 121.163817214959  235.378476337042 121.163817214959  C 235.378476337042 121.163817214959  232.360986314972 125.312824245085  232.360986314972 125.312824245085  C 232.360986314972 125.312824245085  233.557992670758 126.316429573963  233.557992670758 126.316429573963  C 233.557992670758 126.316429573963  237.76301499831 126.329044640945  237.76301499831 126.329044640945  C 237.76301499831 126.329044640945  238.21086037625 128.049412775643  238.21086037625 128.049412775643  C 238.21086037625 128.049412775643  234.585328125636 134.209624484732  234.585328125636 134.209624484732  C 234.585328125636 134.209624484732  235.633333690267 135.212782811236  235.633333690267 135.212782811236  C 235.633333690267 135.212782811236  237.733344840769 135.219082844688  237.733344840769 135.219082844688  C 237.733344840769 135.219082844688  248.245225656065 137.975657481367  248.245225656065 137.975657481367  C 248.245225656065 137.975657481367  252.918434469563 134.261623760834  252.918434469563 134.261623760834  C 252.918434469563 134.261623760834  259.813982083091 139.445384285226  259.813982083091 139.445384285226  C 259.813982083091 139.445384285226  261.921316272476 137.010671357547  261.921316272476 137.010671357547  C 261.921316272476 137.010671357547  263.716150802571 138.741080545561  263.716150802571 138.741080545561  C 263.716150802571 138.741080545561  265.968162760156 138.747836581433  265.968162760156 138.747836581433  C 265.968162760156 138.747836581433  267.025343373505 137.02598343885  267.025343373505 137.02598343885  C 267.025343373505 137.02598343885  266.600996120333 129.139597564235  266.600996120333 129.139597564235  C 266.600996120333 129.139597564235  268.404026693947 128.137992245977  268.404026693947 128.137992245977  C 268.404026693947 128.137992245977  272.775532905484 122.990032911679  272.775532905484 122.990032911679  C 272.775532905484 122.990032911679  272.104301341423 103.063734108323  272.104301341423 103.063734108323  C 272.104301341423 103.063734108323  268.224403740197 93.0109507307119  268.224403740197 93.0109507307119  C 268.224403740197 93.0109507307119  271.086436936833 91.013508124822  271.086436936833 91.013508124822  C 271.086436936833 91.013508124822  262.866854293032 76.5016420706659  262.866854293032 76.5016420706659  C 262.866854293032 76.5016420706659  252.822064957867 68.3833919649131  252.822064957867 68.3833919649131  C 252.822064957867 68.3833919649131  249.962889776406 70.0948390522427  249.962889776406 70.0948390522427  C 249.962889776406 70.0948390522427  250.248083290708 75.0317652660103  250.248083290708 75.0317652660103  C 250.248083290708 75.0317652660103  241.497768828861 85.7616682389464  241.497768828861 85.7616682389464  C 241.497768828861 85.7616682389464  227.080299275925 82.8493747754413  227.080299275925 82.8493747754413  C 227.080299275925 82.8493747754413  226.046785788243 77.6822003391168  226.046785788243 77.6822003391168  C 226.046785788243 77.6822003391168  217.050848022202 70.2851070625154  217.050848022202 70.2851070625154  C 217.050848022202 70.2851070625154  197.224775751022 67.2145857588624  197.224775751022 67.2145857588624  C 197.224775751022 67.2145857588624  188.663023290389 65.7578800241417  188.663023290389 65.7578800241417  C 188.663023290389 65.7578800241417  185.354875725004 65.4579514316004  185.354875725004 65.4579514316004  C 185.354875725004 65.4579514316004  177.86147593704 59.5553870905508  177.86147593704 59.5553870905508  C 177.86147593704 59.5553870905508  162.243725010929 56.0644845547853  162.243725010929 56.0644845547853  C 162.243725010929 56.0644845547853  151.484475882173 36.095921527017  151.484475882173 36.095921527017  C 151.484475882173 36.095921527017  151.201250378321 30.5029918300452  151.201250378321 30.5029918300452  C 151.201250378321 30.5029918300452  155.562306534371 28.5050462214843  155.562306534371 28.5050462214843  C 155.562306534371 28.5050462214843  155.580804632591 22.3390134814875  155.580804632591 22.3390134814875  C 155.580804632591 22.3390134814875  158.761621521884 14.7484471775957  158.761621521884 14.7484471775957  C 158.761621521884 14.7484471775957  155.164931424415 11.2946078386257  155.164931424415 11.2946078386257  C 155.164931424415 11.2946078386257  159.985141018448 7.58101512043425  159.985141018448 7.58101512043425  C 159.985141018448 7.58101512043425  156.990288116574 5.85100593454479  156.990288116574 5.85100593454479  C 156.990288116574 5.85100593454479  149.773249796017 5.8293548195831  149.773249796017 5.8293548195831  C 149.773249796017 5.8293548195831  136.380978686612 0.189097871316108  136.380978686612 0.189097871316108  C 136.380978686612 0.189097871316108  128.116934806733 0.164305739676422  128.116934806733 0.164305739676422  C 128.116934806733 0.164305739676422  121.65173147822 1.86793478549441  121.65173147822 1.86793478549441  C 121.65173147822 1.86793478549441  114.438693178902 1.84629567059648  114.438693178902 1.84629567059648  C 114.438693178902 1.84629567059648  103.151993249522 7.692519712494  103.151993249522 7.692519712494  C 103.151993249522 7.692519712494  94.1349603714709 6.66045423250034  94.1349603714709 6.66045423250034  C 94.1349603714709 6.66045423250034  85.1088764453616 9.64541908187118  85.1088764453616 9.64541908187118  C 85.1088764453616 9.64541908187118  77.6047186002757 7.3288737816307  77.6047186002757 7.3288737816307  C 77.6047186002757 7.3288737816307  72.9573189238172 3.43987613208571  72.9573189238172 3.43987613208571  C 72.9573189238172 3.43987613208571  60.9404121172324 1.68480081310167  60.9404121172324 1.68480081310167  C 60.9404121172324 1.68480081310167  53.1018664966362 6.8293591293405  53.1018664966362 6.8293591293405  C 53.1018664966362 6.8293591293405  48.75299440528 5.09928794312185  48.75299440528 5.09928794312185  C 48.75299440528 5.09928794312185  45.1541562964051 2.36145240594203  45.1541562964051 2.36145240594203  C 45.1541562964051 2.36145240594203  36.4421340378798 0.327287605066999  36.4421340378798 0.327287605066999  C 36.4421340378798 0.327287605066999  30.2710562710952 4.32383182565576  30.2710562710952 4.32383182565576  C 30.2710562710952 4.32383182565576  27.8461043952445 10.6296473078619  27.8461043952445 10.6296473078619  C 27.8461043952445 10.6296473078619  23.0289068172043 13.3392346950515  23.0289068172043 13.3392346950515  C 23.0289068172043 13.3392346950515  21.964708166592 17.0670954890027  21.964708166592 17.0670954890027  C 21.964708166592 17.0670954890027  18.8076914036711 18.0576387485244  18.8076914036711 18.0576387485244  C 18.8076914036711 18.0576387485244  15.2015332559287 17.7598161671655  15.2015332559287 17.7598161671655  C 15.2015332559287 17.7598161671655  13.6933562479092 20.4783306017555  13.6933562479092 20.4783306017555  C 13.6933562479092 20.4783306017555  12.9287331879638 24.3490921544716  12.9287331879638 24.3490921544716  C 12.9287331879638 24.3490921544716  11.3721419228774 24.2054203916127  11.3721419228774 24.2054203916127  C 11.3721419228774 24.2054203916127  11.1145365550613 28.0727029258563  11.1145365550613 28.0727029258563  C 11.1145365550613 28.0727029258563  15.4590886234794 32.2427960679438  15.4590886234794 32.2427960679438  C 15.4590886234794 32.2427960679438  15.7414381226802 38.1277273153663  15.7414381226802 38.1277273153663  C 15.7414381226802 38.1277273153663  14.3795308913144 40.4236745062364  14.3795308913144 40.4236745062364  C 14.3795308913144 40.4236745062364  7.91736057890567 41.1162981838842  7.91736057890567 41.1162981838842  C 7.91736057890567 41.1162981838842  4.61866306369762 37.6663528655905  4.61866306369762 37.6663528655905  C 4.61866306369762 37.6663528655905  1.31735253461517 38.0874551015315  1.31735253461517 38.0874551015315  C 1.31735253461517 38.0874551015315  0.709171305334301 40.8116695663871  0.709171305334301 40.8116695663871  C 0.709171305334301 40.8116695663871  2.49585179213334 45.2600931863355  2.49585179213334 45.2600931863355  C 2.49585179213334 45.2600931863355  3.08638692771813 48.4179099535042  3.08638692771813 48.4179099535042  C 3.08638692771813 48.4179099535042  3.07433286371425 52.4359312881307  3.07433286371425 52.4359312881307  C 3.07433286371425 52.4359312881307  2.01172622155509 55.299784494431  2.01172622155509 55.299784494431  C 2.01172622155509 55.299784494431  2.45484657440652 57.5951466821948  2.45484657440652 57.5951466821948  C 2.45484657440652 57.5951466821948  6.663575921642 58.0387790377648  6.663575921642 58.0387790377648  C 6.663575921642 58.0387790377648  8.90540382515299 61.7735578684489  8.90540382515299 61.7735578684489  C 8.90540382515299 61.7735578684489  18.6545345904491 69.10990982253  18.6545345904491 69.10990982253  C 18.6545345904491 69.10990982253  18.6461705460382 71.8979246261486  18.6461705460382 71.8979246261486  C 18.6461705460382 71.8979246261486  25.8384087349136 79.519610095275  25.8384087349136 79.519610095275  C 25.8384087349136 79.519610095275  28.2302524349686 82.2498245919891  28.2302524349686 82.2498245919891  C 28.2302524349686 82.2498245919891  30.4861164130074 82.9726024297476  30.4861164130074 82.9726024297476  C 30.4861164130074 82.9726024297476  34.85460460852 78.8306484370715  34.85460460852 78.8306484370715  C 34.85460460852 78.8306484370715  38.751311298998 82.2803877542714  38.751311298998 82.2803877542714  C 38.751311298998 82.2803877542714  55.2419528599266 95.8120526038193  55.2419528599266 95.8120526038193  C 55.2419528599266 95.8120526038193  58.2213076795097 102.708089219943  58.2213076795097 102.708089219943  C 58.2213076795097 102.708089219943  61.8293268371336 102.718913277416  61.8293268371336 102.718913277416  C 61.8293268371336 102.718913277416  63.9353650196372 100.716202643554  63.9353650196372 100.716202643554  C 63.9353650196372 100.716202643554  65.7302115497958 102.442611810328  65.7302115497958 102.442611810328  C 65.7302115497958 102.442611810328  65.7117164515917 108.607644545015  65.7117164515917 108.607644545015  C 65.7117164515917 108.607644545015  75.4632762297852 113.800973120211  75.4632762297852 113.800973120211  C 75.4632762297852 113.800973120211  77.5825834827441 113.375324860132  77.5825834827441 113.375324860132  C 77.5825834827441 113.375324860132  79.0671023651453 118.542852298331  79.0671023651453 118.542852298331  C 79.0671023651453 118.542852298331  87.3173731718929 123.158668807091  87.3173731718929 123.158668807091  C 87.3173731718929 123.158668807091  87.6083357168267 126.172584810185  87.6083357168267 126.172584810185  C 87.6083357168267 126.172584810185  89.1053436655415 127.177090143842  89.1053436655415 127.177090143842  C 89.1053436655415 127.177090143842  96.3202459747573 126.910730729544  96.3202459747573 126.910730729544  C 96.3202459747573 126.910730729544  100.22826672531 126.922454791795  100.22826672531 126.922454791795  C 100.22826672531 126.922454791795  106.077814784857 131.101062979096  106.077814784857 131.101062979096  C 106.077814784857 131.101062979096  118.999179393873 130.707820891084  118.999179393873 130.707820891084  C 118.999179393873 130.707820891084  125.912077099524 130.441555477286  125.912077099524 130.441555477286  C 125.912077099524 130.441555477286  127.703905613658 133.173969985681  127.703905613658 133.173969985681  C 127.703905613658 133.173969985681  126.186260555366 139.048501177882  126.186260555366 139.048501177882  C 126.186260555366 139.048501177882  127.980249080968 141.060911863249  127.980249080968 141.060911863249  C 127.980249080968 141.060911863249  135.210492471641 135.347520526658  135.210492471641 135.347520526658  C 135.210492471641 135.347520526658  144.735482046807 129.06300515755  144.735482046807 129.06300515755  C 144.735482046807 129.06300515755  151.195078345549 130.228400345489  151.195078345549 130.228400345489  Z " fill-rule="nonzero" fill="#3088ca" stroke="none" transform="matrix(1 0 0 1 777 389 )" />
    <path d="M 151.195078345549 130.228400345489  C 151.195078345549 130.228400345489  157.801896425999 133.987274304111  157.801896425999 133.987274304111  C 157.801896425999 133.987274304111  166.364941893497 135.012977750324  166.364941893497 135.012977750324  C 166.364941893497 135.012977750324  169.209340996501 138.89356635522  169.209340996501 138.89356635522  C 169.209340996501 138.89356635522  170.707623951986 139.473069432227  170.707623951986 139.473069432227  C 170.707623951986 139.473069432227  183.634592590757 137.211817425579  183.634592590757 137.211817425579  C 183.634592590757 137.211817425579  184.391052607359 135.062056010917  184.391052607359 135.062056010917  C 184.391052607359 135.062056010917  186.950939199677 133.778717196729  186.950939199677 133.778717196729  C 186.950939199677 133.778717196729  193.12759699609 128.922177409792  193.12759699609 128.922177409792  C 193.12759699609 128.922177409792  198.53878272805 128.219400678234  198.53878272805 128.219400678234  C 198.53878272805 128.219400678234  203.507845112452 125.222264764238  203.507845112452 125.222264764238  C 203.507845112452 125.222264764238  213.290383055131 120.089538510824  213.290383055131 120.089538510824  C 213.290383055131 120.089538510824  214.338231618929 121.81170665508  214.338231618929 121.81170665508  C 214.338231618929 121.81170665508  221.54536988692 124.133360982448  221.54536988692 124.133360982448  C 221.54536988692 124.133360982448  232.079917822572 119.000890730393  232.079917822572 119.000890730393  C 232.079917822572 119.000890730393  235.378476337042 121.163817214959  235.378476337042 121.163817214959  C 235.378476337042 121.163817214959  232.360986314972 125.312824245085  232.360986314972 125.312824245085  C 232.360986314972 125.312824245085  233.557992670758 126.316429573963  233.557992670758 126.316429573963  C 233.557992670758 126.316429573963  237.76301499831 126.329044640945  237.76301499831 126.329044640945  C 237.76301499831 126.329044640945  238.21086037625 128.049412775643  238.21086037625 128.049412775643  C 238.21086037625 128.049412775643  234.585328125636 134.209624484732  234.585328125636 134.209624484732  C 234.585328125636 134.209624484732  235.633333690267 135.212782811236  235.633333690267 135.212782811236  C 235.633333690267 135.212782811236  237.733344840769 135.219082844688  237.733344840769 135.219082844688  C 237.733344840769 135.219082844688  248.245225656065 137.975657481367  248.245225656065 137.975657481367  C 248.245225656065 137.975657481367  252.918434469563 134.261623760834  252.918434469563 134.261623760834  C 252.918434469563 134.261623760834  259.813982083091 139.445384285226  259.813982083091 139.445384285226  C 259.813982083091 139.445384285226  261.921316272476 137.010671357547  261.921316272476 137.010671357547  C 261.921316272476 137.010671357547  263.716150802571 138.741080545561  263.716150802571 138.741080545561  C 263.716150802571 138.741080545561  265.968162760156 138.747836581433  265.968162760156 138.747836581433  C 265.968162760156 138.747836581433  267.025343373505 137.02598343885  267.025343373505 137.02598343885  C 267.025343373505 137.02598343885  266.600996120333 129.139597564235  266.600996120333 129.139597564235  C 266.600996120333 129.139597564235  268.404026693947 128.137992245977  268.404026693947 128.137992245977  C 268.404026693947 128.137992245977  272.775532905484 122.990032911679  272.775532905484 122.990032911679  C 272.775532905484 122.990032911679  272.104301341423 103.063734108323  272.104301341423 103.063734108323  C 272.104301341423 103.063734108323  268.224403740197 93.0109507307119  268.224403740197 93.0109507307119  C 268.224403740197 93.0109507307119  271.086436936833 91.013508124822  271.086436936833 91.013508124822  C 271.086436936833 91.013508124822  262.866854293032 76.5016420706659  262.866854293032 76.5016420706659  C 262.866854293032 76.5016420706659  252.822064957867 68.3833919649131  252.822064957867 68.3833919649131  C 252.822064957867 68.3833919649131  249.962889776406 70.0948390522427  249.962889776406 70.0948390522427  C 249.962889776406 70.0948390522427  250.248083290708 75.0317652660103  250.248083290708 75.0317652660103  C 250.248083290708 75.0317652660103  241.497768828861 85.7616682389464  241.497768828861 85.7616682389464  C 241.497768828861 85.7616682389464  227.080299275925 82.8493747754413  227.080299275925 82.8493747754413  C 227.080299275925 82.8493747754413  226.046785788243 77.6822003391168  226.046785788243 77.6822003391168  C 226.046785788243 77.6822003391168  217.050848022202 70.2851070625154  217.050848022202 70.2851070625154  C 217.050848022202 70.2851070625154  197.224775751022 67.2145857588624  197.224775751022 67.2145857588624  C 197.224775751022 67.2145857588624  188.663023290389 65.7578800241417  188.663023290389 65.7578800241417  C 188.663023290389 65.7578800241417  185.354875725004 65.4579514316004  185.354875725004 65.4579514316004  C 185.354875725004 65.4579514316004  177.86147593704 59.5553870905508  177.86147593704 59.5553870905508  C 177.86147593704 59.5553870905508  162.243725010929 56.0644845547853  162.243725010929 56.0644845547853  C 162.243725010929 56.0644845547853  151.484475882173 36.095921527017  151.484475882173 36.095921527017  C 151.484475882173 36.095921527017  151.201250378321 30.5029918300452  151.201250378321 30.5029918300452  C 151.201250378321 30.5029918300452  155.562306534371 28.5050462214843  155.562306534371 28.5050462214843  C 155.562306534371 28.5050462214843  155.580804632591 22.3390134814875  155.580804632591 22.3390134814875  C 155.580804632591 22.3390134814875  158.761621521884 14.7484471775957  158.761621521884 14.7484471775957  C 158.761621521884 14.7484471775957  155.164931424415 11.2946078386257  155.164931424415 11.2946078386257  C 155.164931424415 11.2946078386257  159.985141018448 7.58101512043425  159.985141018448 7.58101512043425  C 159.985141018448 7.58101512043425  156.990288116574 5.85100593454479  156.990288116574 5.85100593454479  C 156.990288116574 5.85100593454479  149.773249796017 5.8293548195831  149.773249796017 5.8293548195831  C 149.773249796017 5.8293548195831  136.380978686612 0.189097871316108  136.380978686612 0.189097871316108  C 136.380978686612 0.189097871316108  128.116934806733 0.164305739676422  128.116934806733 0.164305739676422  C 128.116934806733 0.164305739676422  121.65173147822 1.86793478549441  121.65173147822 1.86793478549441  C 121.65173147822 1.86793478549441  114.438693178902 1.84629567059648  114.438693178902 1.84629567059648  C 114.438693178902 1.84629567059648  103.151993249522 7.692519712494  103.151993249522 7.692519712494  C 103.151993249522 7.692519712494  94.1349603714709 6.66045423250034  94.1349603714709 6.66045423250034  C 94.1349603714709 6.66045423250034  85.1088764453616 9.64541908187118  85.1088764453616 9.64541908187118  C 85.1088764453616 9.64541908187118  77.6047186002757 7.3288737816307  77.6047186002757 7.3288737816307  C 77.6047186002757 7.3288737816307  72.9573189238172 3.43987613208571  72.9573189238172 3.43987613208571  C 72.9573189238172 3.43987613208571  60.9404121172324 1.68480081310167  60.9404121172324 1.68480081310167  C 60.9404121172324 1.68480081310167  53.1018664966362 6.8293591293405  53.1018664966362 6.8293591293405  C 53.1018664966362 6.8293591293405  48.75299440528 5.09928794312185  48.75299440528 5.09928794312185  C 48.75299440528 5.09928794312185  45.1541562964051 2.36145240594203  45.1541562964051 2.36145240594203  C 45.1541562964051 2.36145240594203  36.4421340378798 0.327287605066999  36.4421340378798 0.327287605066999  C 36.4421340378798 0.327287605066999  30.2710562710952 4.32383182565576  30.2710562710952 4.32383182565576  C 30.2710562710952 4.32383182565576  27.8461043952445 10.6296473078619  27.8461043952445 10.6296473078619  C 27.8461043952445 10.6296473078619  23.0289068172043 13.3392346950515  23.0289068172043 13.3392346950515  C 23.0289068172043 13.3392346950515  21.964708166592 17.0670954890027  21.964708166592 17.0670954890027  C 21.964708166592 17.0670954890027  18.8076914036711 18.0576387485244  18.8076914036711 18.0576387485244  C 18.8076914036711 18.0576387485244  15.2015332559287 17.7598161671655  15.2015332559287 17.7598161671655  C 15.2015332559287 17.7598161671655  13.6933562479092 20.4783306017555  13.6933562479092 20.4783306017555  C 13.6933562479092 20.4783306017555  12.9287331879638 24.3490921544716  12.9287331879638 24.3490921544716  C 12.9287331879638 24.3490921544716  11.3721419228774 24.2054203916127  11.3721419228774 24.2054203916127  C 11.3721419228774 24.2054203916127  11.1145365550613 28.0727029258563  11.1145365550613 28.0727029258563  C 11.1145365550613 28.0727029258563  15.4590886234794 32.2427960679438  15.4590886234794 32.2427960679438  C 15.4590886234794 32.2427960679438  15.7414381226802 38.1277273153663  15.7414381226802 38.1277273153663  C 15.7414381226802 38.1277273153663  14.3795308913144 40.4236745062364  14.3795308913144 40.4236745062364  C 14.3795308913144 40.4236745062364  7.91736057890567 41.1162981838842  7.91736057890567 41.1162981838842  C 7.91736057890567 41.1162981838842  4.61866306369762 37.6663528655905  4.61866306369762 37.6663528655905  C 4.61866306369762 37.6663528655905  1.31735253461517 38.0874551015315  1.31735253461517 38.0874551015315  C 1.31735253461517 38.0874551015315  0.709171305334301 40.8116695663871  0.709171305334301 40.8116695663871  C 0.709171305334301 40.8116695663871  2.49585179213334 45.2600931863355  2.49585179213334 45.2600931863355  C 2.49585179213334 45.2600931863355  3.08638692771813 48.4179099535042  3.08638692771813 48.4179099535042  C 3.08638692771813 48.4179099535042  3.07433286371425 52.4359312881307  3.07433286371425 52.4359312881307  C 3.07433286371425 52.4359312881307  2.01172622155509 55.299784494431  2.01172622155509 55.299784494431  C 2.01172622155509 55.299784494431  2.45484657440652 57.5951466821948  2.45484657440652 57.5951466821948  C 2.45484657440652 57.5951466821948  6.663575921642 58.0387790377648  6.663575921642 58.0387790377648  C 6.663575921642 58.0387790377648  8.90540382515299 61.7735578684489  8.90540382515299 61.7735578684489  C 8.90540382515299 61.7735578684489  18.6545345904491 69.10990982253  18.6545345904491 69.10990982253  C 18.6545345904491 69.10990982253  18.6461705460382 71.8979246261486  18.6461705460382 71.8979246261486  C 18.6461705460382 71.8979246261486  25.8384087349136 79.519610095275  25.8384087349136 79.519610095275  C 25.8384087349136 79.519610095275  28.2302524349686 82.2498245919891  28.2302524349686 82.2498245919891  C 28.2302524349686 82.2498245919891  30.4861164130074 82.9726024297476  30.4861164130074 82.9726024297476  C 30.4861164130074 82.9726024297476  34.85460460852 78.8306484370715  34.85460460852 78.8306484370715  C 34.85460460852 78.8306484370715  38.751311298998 82.2803877542714  38.751311298998 82.2803877542714  C 38.751311298998 82.2803877542714  55.2419528599266 95.8120526038193  55.2419528599266 95.8120526038193  C 55.2419528599266 95.8120526038193  58.2213076795097 102.708089219943  58.2213076795097 102.708089219943  C 58.2213076795097 102.708089219943  61.8293268371336 102.718913277416  61.8293268371336 102.718913277416  C 61.8293268371336 102.718913277416  63.9353650196372 100.716202643554  63.9353650196372 100.716202643554  C 63.9353650196372 100.716202643554  65.7302115497958 102.442611810328  65.7302115497958 102.442611810328  C 65.7302115497958 102.442611810328  65.7117164515917 108.607644545015  65.7117164515917 108.607644545015  C 65.7117164515917 108.607644545015  75.4632762297852 113.800973120211  75.4632762297852 113.800973120211  C 75.4632762297852 113.800973120211  77.5825834827441 113.375324860132  77.5825834827441 113.375324860132  C 77.5825834827441 113.375324860132  79.0671023651453 118.542852298331  79.0671023651453 118.542852298331  C 79.0671023651453 118.542852298331  87.3173731718929 123.158668807091  87.3173731718929 123.158668807091  C 87.3173731718929 123.158668807091  87.6083357168267 126.172584810185  87.6083357168267 126.172584810185  C 87.6083357168267 126.172584810185  89.1053436655415 127.177090143842  89.1053436655415 127.177090143842  C 89.1053436655415 127.177090143842  96.3202459747573 126.910730729544  96.3202459747573 126.910730729544  C 96.3202459747573 126.910730729544  100.22826672531 126.922454791795  100.22826672531 126.922454791795  C 100.22826672531 126.922454791795  106.077814784857 131.101062979096  106.077814784857 131.101062979096  C 106.077814784857 131.101062979096  118.999179393873 130.707820891084  118.999179393873 130.707820891084  C 118.999179393873 130.707820891084  125.912077099524 130.441555477286  125.912077099524 130.441555477286  C 125.912077099524 130.441555477286  127.703905613658 133.173969985681  127.703905613658 133.173969985681  C 127.703905613658 133.173969985681  126.186260555366 139.048501177882  126.186260555366 139.048501177882  C 126.186260555366 139.048501177882  127.980249080968 141.060911863249  127.980249080968 141.060911863249  C 127.980249080968 141.060911863249  135.210492471641 135.347520526658  135.210492471641 135.347520526658  C 135.210492471641 135.347520526658  144.735482046807 129.06300515755  144.735482046807 129.06300515755  C 144.735482046807 129.06300515755  151.195078345549 130.228400345489  151.195078345549 130.228400345489  Z " stroke-width="0.97600957434184" stroke="#199eae" fill="none" transform="matrix(1 0 0 1 777 389 )" mask="url(#clip1467)" />
  </g>
</svg>