<?xml version="1.0" encoding="utf-8"?>
<svg version="1.1" xmlns:xlink="http://www.w3.org/1999/xlink" width="281px" height="203px" xmlns="http://www.w3.org/2000/svg">
  <g transform="matrix(1 0 0 1 -745 -196 )">
    <path d="M 185.733745825199 0.0133911595991094  L 182.871404626927 1.44682477075102  L 181.507920387188 5.60179383253364  L 177.885430152726 9.74798584771249  L 172.774542015267 10.0196572902157  L 168.408343831914 12.7315976898992  L 165.807585022575 28.6390231541053  L 155.727489499944 31.6228259973062  L 153.635659392882 28.8895114841318  L 148.978634665317 28.8755404099491  L 138.473203884268 23.9689543572798  L 136.670759313766 25.1085634083013  L 125.030572507465 47.4489630298922  L 127.880412639359 50.1825515445215  L 125.772232445482 52.8992659695539  L 124.266085448241 52.6077434216465  L 118.862494756609 51.4455162505288  L 116.464518023989 48.4262792191817  L 100.832562022453 49.6704018251425  L 94.817367083365 51.373380867509  L 95.1130696534671 52.8072884811778  L 100.814072924281 54.8334202393995  L 99.7494572714545 58.7002817714076  L 99.3922243746426 77.776483060972  L 99.3853453381168 80.0694952362579  L 97.5773357380658 80.0640712074578  L 91.7049605573126 84.4945177319526  L 89.8821508786772 92.0891580574764  L 88.5239626670584 94.8121225156948  L 67.61951667 99.1944727848113  L 60.3928532983361 104.047862555022  L 46.272379322368 101.138460106868  L 39.3383945047495 108.433762842989  L 33.3245015725747 108.702725271108  L 30.7754880379895 107.695063920693  L 30.3348146981311 104.250692631996  L 29.2849571236661 103.531532813449  L 26.427941953674 104.522976077749  L 22.5219212137409 103.511243705719  L 17.7057356410741 105.216819761875  L 12.2927068993286 106.20059498546  L 6.87837015063789 108.620386833912  L 6.86890810039692 111.774403580904  L 5.29062172011525 113.195689127553  L 1.44467129913957 116.494198641763  L 2.63305860916068 120.370819225589  L 0.370569595944681 124.523091273051  L 1.85852349658486 128.545612631572  L 5.76954426306681 127.55733138406  L 11.615799305129 133.166950169647  L 10.8411401918948 140.049724715353  L 11.5706280652817 148.224030118744  L 9.00529144402529 150.657369039128  L 6.45758591638532 149.213705373657  L 2.09139973309585 150.921631442291  L 2.08710671030104 152.352639040561  L 11.090523516054 157.256719079924  L 12.5823624373226 159.984233562302  L 16.9312075285355 162.723319106119  L 17.5230416710177 165.448133574161  L 15.7062500243363 171.036763248301  L 18.2459105092593 176.495460232532  L 21.5450640268886 176.793361814311  L 33.3911789266137 185.145019159394  L 39.0979012277941 186.598159875185  L 52.936457706855 182.478616001501  L 58.3416194068286 183.783849931947  L 63.727546004669 191.834122676758  L 67.3317071418078 192.130939252775  L 68.68041530309 193.568005883217  L 77.3924375616153 195.602170684092  L 80.9912756704902 198.340006221272  L 85.3401417618146 200.07207741811  L 93.1716693451469 194.933498133618  L 105.188579151748 196.687573447293  L 109.835984828238 200.574571086218  L 117.343124689158 202.897125418365  L 126.370211620593 199.9111635637  L 135.383244477404 200.94321704363  L 146.669944406784 195.096993001733  L 153.880982695483 195.118626116599  L 160.352180055823 193.417015081496  L 168.614223925083 193.441801213104  L 181.523513469983 199.073609116509  L 188.735551763992 199.095245231391  L 191.730413665913 200.822254401351  L 197.436419963292 202.847401154342  L 207.213927879263 199.724688573568  L 205.719091942081 197.996179395643  L 203.166078386257 197.988520354975  L 202.120241833142 195.262343879702  L 202.882556880833 192.827595951837  L 207.544611635106 190.831553353381  L 210.86812128206 185.67744998646  L 200.823731949019 177.759203942676  L 200.394683670887 169.439797768838  L 205.065040469241 166.009759556246  L 238.293711904665 159.94435735057  L 240.5528899003 158.229110243063  L 245.509768220008 158.959991123847  L 243.769566980002 139.018485239745  L 244.834046632106 134.863619178509  L 251.003242388898 132.161087828785  L 259.739949778494 125.300199399289  L 273.130506878798 120.178297203348  L 278.547855643481 117.754514333705  L 278.562486721168 112.877488437992  L 280.97067150799 110.160674012428  L 276.786162289357 102.977017869122  L 273.506959877663 94.3620571259671  L 270.218742418101 87.7520980288392  L 269.926909868548 85.0281835655766  L 264.820054752503 83.2888383301151  L 249.070940128885 72.9184432660705  L 233.902315587516 70.7209065977343  L 219.790451657265 64.9414889105607  L 218.754935158948 59.7753084795141  L 222.832756811098 53.1874474997214  L 222.39206847116 50.7480905473836  L 224.660442515624 44.300803314  L 220.346675610667 33.5357081542026  L 216.013322601713 24.6325808809604  L 214.21331304414 24.6271808522877  L 210.915473533488 21.8912483252124  L 203.405726658726 21.4377129170598  L 201.912198728489 17.2731728044574  L 196.220518507178 11.8060197753263  L 195.926540946235 9.79710910854396  L 193.377125409515 6.92341985001693  L 195.193488053919 1.47779093517315  L 192.257421464185 1.48598297867071  L 185.733745825199 0.0133911595991094  Z " fill-rule="nonzero" fill="#4599d5" stroke="none" transform="matrix(1 0 0 1 745 196 )" />
  </g>
</svg>