<?xml version="1.0" encoding="utf-8"?>
<svg version="1.1" xmlns:xlink="http://www.w3.org/1999/xlink" width="87px" height="72px" xmlns="http://www.w3.org/2000/svg">
  <defs>
    <mask fill="white" id="clip1475">
      <path d="M 33.3193455274982 24.1799920442055  C 33.3193455274982 24.1799920442055  24.6011572362331 23.8678333867259  24.6011572362331 23.8678333867259  C 24.6011572362331 23.8678333867259  22.4839409943769 29.5965638047636  22.4839409943769 29.5965638047636  C 22.4839409943769 29.5965638047636  18.8734838238079 30.7317488322947  18.8734838238079 30.7317488322947  C 18.8734838238079 30.7317488322947  10.9118795498028 29.5618476204298  10.9118795498028 29.5618476204298  C 10.9118795498028 29.5618476204298  9.10670696481566 31.2774567298588  9.10670696481566 31.2774567298588  C 9.10670696481566 31.2774567298588  4.7475568188857 29.9733608054557  4.7475568188857 29.9733608054557  C 4.7475568188857 29.9733608054557  0.832050028584149 35.1236881523265  0.832050028584149 35.1236881523265  C 0.832050028584149 35.1236881523265  2.62542955095336 37.3390999155748  2.62542955095336 37.3390999155748  C 2.62542955095336 37.3390999155748  2.6151064961407 40.7801181864683  2.6151064961407 40.7801181864683  C 2.6151064961407 40.7801181864683  4.4060770057186 43.798534213456  4.4060770057186 43.798534213456  C 4.4060770057186 43.798534213456  12.3780193346159 41.5224171278786  12.3780193346159 41.5224171278786  C 12.3780193346159 41.5224171278786  14.7790080832287 43.5376488282238  14.7790080832287 43.5376488282238  C 14.7790080832287 43.5376488282238  11.1295217054249 58.0159077039347  11.1295217054249 58.0159077039347  C 11.1295217054249 58.0159077039347  15.9222241534025 62.471349361147  15.9222241534025 62.471349361147  C 15.9222241534025 62.471349361147  14.3972500561949 70.7888935250983  14.3972500561949 70.7888935250983  C 14.3972500561949 70.7888935250983  19.0554167898236 71.088872117905  19.0554167898236 71.088872117905  C 19.0554167898236 71.088872117905  24.1777879882547 66.6561755814632  24.1777879882547 66.6561755814632  C 24.1777879882547 66.6561755814632  26.2799231500343 67.9545004752237  26.2799231500343 67.9545004752237  C 26.2799231500343 67.9545004752237  36.0323559328633 71.8568131954682  36.0323559328633 71.8568131954682  C 36.0323559328633 71.8568131954682  37.8353655063655 70.8622079143782  37.8353655063655 70.8622079143782  C 37.8353655063655 70.8622079143782  38.144841149599 67.7050911509264  38.144841149599 67.7050911509264  C 38.144841149599 67.7050911509264  39.955010761119 65.9904970468868  39.955010761119 65.9904970468868  C 39.955010761119 65.9904970468868  54.2939078968561 57.4263905737552  54.2939078968561 57.4263905737552  C 54.2939078968561 57.4263905737552  56.6857365968314 60.1616050970181  56.6857365968314 60.1616050970181  C 56.6857365968314 60.1616050970181  65.0924762343871 62.6218601603193  65.0924762343871 62.6218601603193  C 65.0924762343871 62.6218601603193  69.7691440662517 56.7548060078195  69.7691440662517 56.7548060078195  C 69.7691440662517 56.7548060078195  71.8708352256737 58.2011316874248  71.8708352256737 58.2011316874248  C 71.8708352256737 58.2011316874248  75.1748527691298 58.2110437400552  75.1748527691298 58.2110437400552  C 75.1748527691298 58.2110437400552  75.1800307966237 56.4850345754048  75.1800307966237 56.4850345754048  C 75.1800307966237 56.4850345754048  79.5423529593963 55.0651010359346  79.5423529593963 55.0651010359346  C 79.5423529593963 55.0651010359346  79.5462229799451 53.7750941863407  79.5462229799451 53.7750941863407  C 79.5462229799451 53.7750941863407  81.3513985649482 52.0584850716021  81.3513985649482 52.0584850716021  C 81.3513985649482 52.0584850716021  82.402537146215 52.3506426228811  82.402537146215 52.3506426228811  C 82.402537146215 52.3506426228811  86.7740433577524 48.2026975983943  86.7740433577524 48.2026975983943  C 86.7740433577524 48.2026975983943  83.1875343143416 42.0218497797333  83.1875343143416 42.0218497797333  C 83.1875343143416 42.0218497797333  85.0148080166798 32.9392015532824  85.0148080166798 32.9392015532824  C 85.0148080166798 32.9392015532824  82.7689770919138 30.2054250376549  82.7689770919138 30.2054250376549  C 82.7689770919138 30.2054250376549  76.3037797634324 31.9070540728534  76.3037797634324 31.9070540728534  C 76.3037797634324 31.9070540728534  75.5557937918255 30.8987957192692  75.5557937918255 30.8987957192692  C 75.5557937918255 30.8987957192692  82.789632201587 23.3203884799387  82.789632201587 23.3203884799387  C 82.789632201587 23.3203884799387  79.6717596465115 11.2628624576766  79.6717596465115 11.2628624576766  C 79.6717596465115 11.2628624576766  74.8534140623756 14.6884566466723  74.8534140623756 14.6884566466723  C 74.8534140623756 14.6884566466723  70.6578627851122 10.5188105069583  70.6578627851122 10.5188105069583  C 70.6578627851122 10.5188105069583  66.6173363309895 5.34161501742472  66.6173363309895 5.34161501742472  C 66.6173363309895 5.34161501742472  66.3267997883175 2.18569826034462  66.3267997883175 2.18569826034462  C 66.3267997883175 2.18569826034462  63.4765036540018 1.60413917242028  63.4765036540018 1.60413917242028  C 63.4765036540018 1.60413917242028  60.1664860786872 2.59422342950484  60.1664860786872 2.59422342950484  C 60.1664860786872 2.59422342950484  54.7627713863968 0.139977398110034  54.7627713863968 0.139977398110034  C 54.7627713863968 0.139977398110034  52.1930967421065 6.0193526160316  52.1930967421065 6.0193526160316  C 52.1930967421065 6.0193526160316  47.5322109940407 6.29237406570303  47.5322109940407 6.29237406570303  C 47.5322109940407 6.29237406570303  44.2115593622621 11.1604819140633  44.2115593622621 11.1604819140633  C 44.2115593622621 11.1604819140633  41.6265456365254 10.1527125630756  41.6265456365254 10.1527125630756  C 41.6265456365254 10.1527125630756  38.3165280612108 11.1427968201601  38.3165280612108 11.1427968201601  C 38.3165280612108 11.1427968201601  33.3676887841881 8.3989112508562  33.3676887841881 8.3989112508562  C 33.3676887841881 8.3989112508562  29.2973231716273 12.8347638040556  29.2973231716273 12.8347638040556  C 29.2973231716273 12.8347638040556  29.2913021396573 14.8417744607493  29.2913021396573 14.8417744607493  C 29.2913021396573 14.8417744607493  37.2428613603257 19.0266886815328  37.2428613603257 19.0266886815328  C 37.2428613603257 19.0266886815328  39.0333998676098 22.1891054731263  39.0333998676098 22.1891054731263  C 39.0333998676098 22.1891054731263  33.3193455274982 24.1799920442055  33.3193455274982 24.1799920442055  Z " fill-rule="evenodd" />
    </mask>
  </defs>
  <g transform="matrix(1 0 0 1 -1113 -511 )">
    <path d="M 33.3193455274982 24.1799920442055  C 33.3193455274982 24.1799920442055  24.6011572362331 23.8678333867259  24.6011572362331 23.8678333867259  C 24.6011572362331 23.8678333867259  22.4839409943769 29.5965638047636  22.4839409943769 29.5965638047636  C 22.4839409943769 29.5965638047636  18.8734838238079 30.7317488322947  18.8734838238079 30.7317488322947  C 18.8734838238079 30.7317488322947  10.9118795498028 29.5618476204298  10.9118795498028 29.5618476204298  C 10.9118795498028 29.5618476204298  9.10670696481566 31.2774567298588  9.10670696481566 31.2774567298588  C 9.10670696481566 31.2774567298588  4.7475568188857 29.9733608054557  4.7475568188857 29.9733608054557  C 4.7475568188857 29.9733608054557  0.832050028584149 35.1236881523265  0.832050028584149 35.1236881523265  C 0.832050028584149 35.1236881523265  2.62542955095336 37.3390999155748  2.62542955095336 37.3390999155748  C 2.62542955095336 37.3390999155748  2.6151064961407 40.7801181864683  2.6151064961407 40.7801181864683  C 2.6151064961407 40.7801181864683  4.4060770057186 43.798534213456  4.4060770057186 43.798534213456  C 4.4060770057186 43.798534213456  12.3780193346159 41.5224171278786  12.3780193346159 41.5224171278786  C 12.3780193346159 41.5224171278786  14.7790080832287 43.5376488282238  14.7790080832287 43.5376488282238  C 14.7790080832287 43.5376488282238  11.1295217054249 58.0159077039347  11.1295217054249 58.0159077039347  C 11.1295217054249 58.0159077039347  15.9222241534025 62.471349361147  15.9222241534025 62.471349361147  C 15.9222241534025 62.471349361147  14.3972500561949 70.7888935250983  14.3972500561949 70.7888935250983  C 14.3972500561949 70.7888935250983  19.0554167898236 71.088872117905  19.0554167898236 71.088872117905  C 19.0554167898236 71.088872117905  24.1777879882547 66.6561755814632  24.1777879882547 66.6561755814632  C 24.1777879882547 66.6561755814632  26.2799231500343 67.9545004752237  26.2799231500343 67.9545004752237  C 26.2799231500343 67.9545004752237  36.0323559328633 71.8568131954682  36.0323559328633 71.8568131954682  C 36.0323559328633 71.8568131954682  37.8353655063655 70.8622079143782  37.8353655063655 70.8622079143782  C 37.8353655063655 70.8622079143782  38.144841149599 67.7050911509264  38.144841149599 67.7050911509264  C 38.144841149599 67.7050911509264  39.955010761119 65.9904970468868  39.955010761119 65.9904970468868  C 39.955010761119 65.9904970468868  54.2939078968561 57.4263905737552  54.2939078968561 57.4263905737552  C 54.2939078968561 57.4263905737552  56.6857365968314 60.1616050970181  56.6857365968314 60.1616050970181  C 56.6857365968314 60.1616050970181  65.0924762343871 62.6218601603193  65.0924762343871 62.6218601603193  C 65.0924762343871 62.6218601603193  69.7691440662517 56.7548060078195  69.7691440662517 56.7548060078195  C 69.7691440662517 56.7548060078195  71.8708352256737 58.2011316874248  71.8708352256737 58.2011316874248  C 71.8708352256737 58.2011316874248  75.1748527691298 58.2110437400552  75.1748527691298 58.2110437400552  C 75.1748527691298 58.2110437400552  75.1800307966237 56.4850345754048  75.1800307966237 56.4850345754048  C 75.1800307966237 56.4850345754048  79.5423529593963 55.0651010359346  79.5423529593963 55.0651010359346  C 79.5423529593963 55.0651010359346  79.5462229799451 53.7750941863407  79.5462229799451 53.7750941863407  C 79.5462229799451 53.7750941863407  81.3513985649482 52.0584850716021  81.3513985649482 52.0584850716021  C 81.3513985649482 52.0584850716021  82.402537146215 52.3506426228811  82.402537146215 52.3506426228811  C 82.402537146215 52.3506426228811  86.7740433577524 48.2026975983943  86.7740433577524 48.2026975983943  C 86.7740433577524 48.2026975983943  83.1875343143416 42.0218497797333  83.1875343143416 42.0218497797333  C 83.1875343143416 42.0218497797333  85.0148080166798 32.9392015532824  85.0148080166798 32.9392015532824  C 85.0148080166798 32.9392015532824  82.7689770919138 30.2054250376549  82.7689770919138 30.2054250376549  C 82.7689770919138 30.2054250376549  76.3037797634324 31.9070540728534  76.3037797634324 31.9070540728534  C 76.3037797634324 31.9070540728534  75.5557937918255 30.8987957192692  75.5557937918255 30.8987957192692  C 75.5557937918255 30.8987957192692  82.789632201587 23.3203884799387  82.789632201587 23.3203884799387  C 82.789632201587 23.3203884799387  79.6717596465115 11.2628624576766  79.6717596465115 11.2628624576766  C 79.6717596465115 11.2628624576766  74.8534140623756 14.6884566466723  74.8534140623756 14.6884566466723  C 74.8534140623756 14.6884566466723  70.6578627851122 10.5188105069583  70.6578627851122 10.5188105069583  C 70.6578627851122 10.5188105069583  66.6173363309895 5.34161501742472  66.6173363309895 5.34161501742472  C 66.6173363309895 5.34161501742472  66.3267997883175 2.18569826034462  66.3267997883175 2.18569826034462  C 66.3267997883175 2.18569826034462  63.4765036540018 1.60413917242028  63.4765036540018 1.60413917242028  C 63.4765036540018 1.60413917242028  60.1664860786872 2.59422342950484  60.1664860786872 2.59422342950484  C 60.1664860786872 2.59422342950484  54.7627713863968 0.139977398110034  54.7627713863968 0.139977398110034  C 54.7627713863968 0.139977398110034  52.1930967421065 6.0193526160316  52.1930967421065 6.0193526160316  C 52.1930967421065 6.0193526160316  47.5322109940407 6.29237406570303  47.5322109940407 6.29237406570303  C 47.5322109940407 6.29237406570303  44.2115593622621 11.1604819140633  44.2115593622621 11.1604819140633  C 44.2115593622621 11.1604819140633  41.6265456365254 10.1527125630756  41.6265456365254 10.1527125630756  C 41.6265456365254 10.1527125630756  38.3165280612108 11.1427968201601  38.3165280612108 11.1427968201601  C 38.3165280612108 11.1427968201601  33.3676887841881 8.3989112508562  33.3676887841881 8.3989112508562  C 33.3676887841881 8.3989112508562  29.2973231716273 12.8347638040556  29.2973231716273 12.8347638040556  C 29.2973231716273 12.8347638040556  29.2913021396573 14.8417744607493  29.2913021396573 14.8417744607493  C 29.2913021396573 14.8417744607493  37.2428613603257 19.0266886815328  37.2428613603257 19.0266886815328  C 37.2428613603257 19.0266886815328  39.0333998676098 22.1891054731263  39.0333998676098 22.1891054731263  C 39.0333998676098 22.1891054731263  33.3193455274982 24.1799920442055  33.3193455274982 24.1799920442055  Z " fill-rule="nonzero" fill="#184799" stroke="none" transform="matrix(1 0 0 1 1113 511 )" />
    <path d="M 33.3193455274982 24.1799920442055  C 33.3193455274982 24.1799920442055  24.6011572362331 23.8678333867259  24.6011572362331 23.8678333867259  C 24.6011572362331 23.8678333867259  22.4839409943769 29.5965638047636  22.4839409943769 29.5965638047636  C 22.4839409943769 29.5965638047636  18.8734838238079 30.7317488322947  18.8734838238079 30.7317488322947  C 18.8734838238079 30.7317488322947  10.9118795498028 29.5618476204298  10.9118795498028 29.5618476204298  C 10.9118795498028 29.5618476204298  9.10670696481566 31.2774567298588  9.10670696481566 31.2774567298588  C 9.10670696481566 31.2774567298588  4.7475568188857 29.9733608054557  4.7475568188857 29.9733608054557  C 4.7475568188857 29.9733608054557  0.832050028584149 35.1236881523265  0.832050028584149 35.1236881523265  C 0.832050028584149 35.1236881523265  2.62542955095336 37.3390999155748  2.62542955095336 37.3390999155748  C 2.62542955095336 37.3390999155748  2.6151064961407 40.7801181864683  2.6151064961407 40.7801181864683  C 2.6151064961407 40.7801181864683  4.4060770057186 43.798534213456  4.4060770057186 43.798534213456  C 4.4060770057186 43.798534213456  12.3780193346159 41.5224171278786  12.3780193346159 41.5224171278786  C 12.3780193346159 41.5224171278786  14.7790080832287 43.5376488282238  14.7790080832287 43.5376488282238  C 14.7790080832287 43.5376488282238  11.1295217054249 58.0159077039347  11.1295217054249 58.0159077039347  C 11.1295217054249 58.0159077039347  15.9222241534025 62.471349361147  15.9222241534025 62.471349361147  C 15.9222241534025 62.471349361147  14.3972500561949 70.7888935250983  14.3972500561949 70.7888935250983  C 14.3972500561949 70.7888935250983  19.0554167898236 71.088872117905  19.0554167898236 71.088872117905  C 19.0554167898236 71.088872117905  24.1777879882547 66.6561755814632  24.1777879882547 66.6561755814632  C 24.1777879882547 66.6561755814632  26.2799231500343 67.9545004752237  26.2799231500343 67.9545004752237  C 26.2799231500343 67.9545004752237  36.0323559328633 71.8568131954682  36.0323559328633 71.8568131954682  C 36.0323559328633 71.8568131954682  37.8353655063655 70.8622079143782  37.8353655063655 70.8622079143782  C 37.8353655063655 70.8622079143782  38.144841149599 67.7050911509264  38.144841149599 67.7050911509264  C 38.144841149599 67.7050911509264  39.955010761119 65.9904970468868  39.955010761119 65.9904970468868  C 39.955010761119 65.9904970468868  54.2939078968561 57.4263905737552  54.2939078968561 57.4263905737552  C 54.2939078968561 57.4263905737552  56.6857365968314 60.1616050970181  56.6857365968314 60.1616050970181  C 56.6857365968314 60.1616050970181  65.0924762343871 62.6218601603193  65.0924762343871 62.6218601603193  C 65.0924762343871 62.6218601603193  69.7691440662517 56.7548060078195  69.7691440662517 56.7548060078195  C 69.7691440662517 56.7548060078195  71.8708352256737 58.2011316874248  71.8708352256737 58.2011316874248  C 71.8708352256737 58.2011316874248  75.1748527691298 58.2110437400552  75.1748527691298 58.2110437400552  C 75.1748527691298 58.2110437400552  75.1800307966237 56.4850345754048  75.1800307966237 56.4850345754048  C 75.1800307966237 56.4850345754048  79.5423529593963 55.0651010359346  79.5423529593963 55.0651010359346  C 79.5423529593963 55.0651010359346  79.5462229799451 53.7750941863407  79.5462229799451 53.7750941863407  C 79.5462229799451 53.7750941863407  81.3513985649482 52.0584850716021  81.3513985649482 52.0584850716021  C 81.3513985649482 52.0584850716021  82.402537146215 52.3506426228811  82.402537146215 52.3506426228811  C 82.402537146215 52.3506426228811  86.7740433577524 48.2026975983943  86.7740433577524 48.2026975983943  C 86.7740433577524 48.2026975983943  83.1875343143416 42.0218497797333  83.1875343143416 42.0218497797333  C 83.1875343143416 42.0218497797333  85.0148080166798 32.9392015532824  85.0148080166798 32.9392015532824  C 85.0148080166798 32.9392015532824  82.7689770919138 30.2054250376549  82.7689770919138 30.2054250376549  C 82.7689770919138 30.2054250376549  76.3037797634324 31.9070540728534  76.3037797634324 31.9070540728534  C 76.3037797634324 31.9070540728534  75.5557937918255 30.8987957192692  75.5557937918255 30.8987957192692  C 75.5557937918255 30.8987957192692  82.789632201587 23.3203884799387  82.789632201587 23.3203884799387  C 82.789632201587 23.3203884799387  79.6717596465115 11.2628624576766  79.6717596465115 11.2628624576766  C 79.6717596465115 11.2628624576766  74.8534140623756 14.6884566466723  74.8534140623756 14.6884566466723  C 74.8534140623756 14.6884566466723  70.6578627851122 10.5188105069583  70.6578627851122 10.5188105069583  C 70.6578627851122 10.5188105069583  66.6173363309895 5.34161501742472  66.6173363309895 5.34161501742472  C 66.6173363309895 5.34161501742472  66.3267997883175 2.18569826034462  66.3267997883175 2.18569826034462  C 66.3267997883175 2.18569826034462  63.4765036540018 1.60413917242028  63.4765036540018 1.60413917242028  C 63.4765036540018 1.60413917242028  60.1664860786872 2.59422342950484  60.1664860786872 2.59422342950484  C 60.1664860786872 2.59422342950484  54.7627713863968 0.139977398110034  54.7627713863968 0.139977398110034  C 54.7627713863968 0.139977398110034  52.1930967421065 6.0193526160316  52.1930967421065 6.0193526160316  C 52.1930967421065 6.0193526160316  47.5322109940407 6.29237406570303  47.5322109940407 6.29237406570303  C 47.5322109940407 6.29237406570303  44.2115593622621 11.1604819140633  44.2115593622621 11.1604819140633  C 44.2115593622621 11.1604819140633  41.6265456365254 10.1527125630756  41.6265456365254 10.1527125630756  C 41.6265456365254 10.1527125630756  38.3165280612108 11.1427968201601  38.3165280612108 11.1427968201601  C 38.3165280612108 11.1427968201601  33.3676887841881 8.3989112508562  33.3676887841881 8.3989112508562  C 33.3676887841881 8.3989112508562  29.2973231716273 12.8347638040556  29.2973231716273 12.8347638040556  C 29.2973231716273 12.8347638040556  29.2913021396573 14.8417744607493  29.2913021396573 14.8417744607493  C 29.2913021396573 14.8417744607493  37.2428613603257 19.0266886815328  37.2428613603257 19.0266886815328  C 37.2428613603257 19.0266886815328  39.0333998676098 22.1891054731263  39.0333998676098 22.1891054731263  C 39.0333998676098 22.1891054731263  33.3193455274982 24.1799920442055  33.3193455274982 24.1799920442055  Z " stroke-width="0.97600957434184" stroke="#199eae" fill="none" transform="matrix(1 0 0 1 1113 511 )" mask="url(#clip1475)" />
  </g>
</svg>