<?xml version="1.0" encoding="utf-8"?>
<svg version="1.1" xmlns:xlink="http://www.w3.org/1999/xlink" width="128px" height="127px" xmlns="http://www.w3.org/2000/svg">
  <defs>
    <mask fill="white" id="clip1473">
      <path d="M 110.954898495036 29.6129768919129  C 110.954898495036 29.6129768919129  113.089159827397 23.8692973944994  113.089159827397 23.8692973944994  C 113.089159827397 23.8692973944994  112.047483296371 20.4231230962288  112.047483296371 20.4231230962288  C 112.047483296371 20.4231230962288  108.743906755257 19.2661959532529  108.743906755257 19.2661959532529  C 108.743906755257 19.2661959532529  103.327412995113 22.4049916194246  103.327412995113 22.4049916194246  C 103.327412995113 22.4049916194246  99.7265538755073 20.6741644291916  99.7265538755073 20.6741644291916  C 99.7265538755073 20.6741644291916  99.4398843533683 16.2292408278274  99.4398843533683 16.2292408278274  C 99.4398843533683 16.2292408278274  97.6463368301071 14.0698293619258  97.6463368301071 14.0698293619258  C 97.6463368301071 14.0698293619258  97.6532218666648 11.7748171760204  97.6532218666648 11.7748171760204  C 97.6532218666648 11.7748171760204  92.5456357467385 10.6124780043079  92.5456357467385 10.6124780043079  C 92.5456357467385 10.6124780043079  91.1873265344772 12.0424235969394  91.1873265344772 12.0424235969394  C 91.1873265344772 12.0424235969394  91.9320044885194 15.4867068851693  91.9320044885194 15.4867068851693  C 91.9320044885194 15.4867068851693  87.8648228928649 17.1945299532564  87.8648228928649 17.1945299532564  C 87.8648228928649 17.1945299532564  86.8075032787785 19.6293928817321  86.8075032787785 19.6293928817321  C 86.8075032787785 19.6293928817321  87.8484728060503 22.6445588914631  87.8484728060503 22.6445588914631  C 87.8484728060503 22.6445588914631  78.8033047786095 32.6575670578782  78.8033047786095 32.6575670578782  C 78.8033047786095 32.6575670578782  80.2680295559092 44.4231295298914  80.2680295559092 44.4231295298914  C 80.2680295559092 44.4231295298914  75.8996803611347 47.8520737366748  75.8996803611347 47.8520737366748  C 75.8996803611347 47.8520737366748  73.8061222448969 45.6947622819237  73.8061222448969 45.6947622819237  C 73.8061222448969 45.6947622819237  65.0754508873499 50.5436400281772  65.0754508873499 50.5436400281772  C 65.0754508873499 50.5436400281772  61.28759677485 48.810251824346  61.28759677485 48.810251824346  C 61.28759677485 48.810251824346  48.7348031228483 25.6812630155559  48.7348031228483 25.6812630155559  C 48.7348031228483 25.6812630155559  43.7821028253246 22.2243556602956  43.7821028253246 22.2243556602956  C 43.7821028253246 22.2243556602956  39.7290813048564 21.2121822859237  39.7290813048564 21.2121822859237  C 39.7290813048564 21.2121822859237  37.9385397975563 18.0507654996399  37.9385397975563 18.0507654996399  C 37.9385397975563 18.0507654996399  40.2018838153122 14.6135062487057  40.2018838153122 14.6135062487057  C 40.2018838153122 14.6135062487057  36.6020307010478 11.8806677380588  36.6020307010478 11.8806677380588  C 36.6020307010478 11.8806677380588  32.2336815062733 15.3096119448423  32.2336815062733 15.3096119448423  C 32.2336815062733 15.3096119448423  27.8755013654938 16.0155476931736  27.8755013654938 16.0155476931736  C 27.8755013654938 16.0155476931736  25.048929357147 3.52588937640377  25.048929357147 3.52588937640377  C 25.048929357147 3.52588937640377  24.3049614068747 0.511614371403766  24.3049614068747 0.511614371403766  C 24.3049614068747 0.511614371403766  19.934458200663 5.65857670040725  19.934458200663 5.65857670040725  C 19.934458200663 5.65857670040725  18.1314486271608 6.65318198149731  18.1314486271608 6.65318198149731  C 18.1314486271608 6.65318198149731  18.5557868802842 14.5425678720418  18.5557868802842 14.5425678720418  C 18.5557868802842 14.5425678720418  17.4986062669358 16.2644210146249  17.4986062669358 16.2644210146249  C 17.4986062669358 16.2644210146249  15.2465943093502 16.2576649787521  15.2465943093502 16.2576649787521  C 15.2465943093502 16.2576649787521  13.4517597792553 14.5272557907387  13.4517597792553 14.5272557907387  C 13.4517597792553 14.5272557907387  11.3444285898861 16.9609687131082  11.3444285898861 16.9609687131082  C 11.3444285898861 16.9609687131082  13.4177635987446 25.8593159609697  13.4177635987446 25.8593159609697  C 13.4177635987446 25.8593159609697  15.9747771758079 25.8669870017009  15.9747771758079 25.8669870017009  C 15.9747771758079 25.8669870017009  18.0704923034989 27.3052946387326  18.0704923034989 27.3052946387326  C 18.0704923034989 27.3052946387326  18.8031491937124 32.7565705835607  18.8031491937124 32.7565705835607  C 18.8031491937124 32.7565705835607  17.6963443168724 51.6865210965722  17.6963443168724 51.6865210965722  C 17.6963443168724 51.6865210965722  3.98150949474058 63.8995519445237  3.98150949474058 63.8995519445237  C 3.98150949474058 63.8995519445237  3.21817044161287 68.342325534472  3.21817044161287 68.342325534472  C 3.21817044161287 68.342325534472  0.655694835547706 70.4886689309856  0.655694835547706 70.4886689309856  C 0.655694835547706 70.4886689309856  0.348814206093039 72.7807811014927  0.348814206093039 72.7807811014927  C 0.348814206093039 72.7807811014927  2.43805229939267 78.378128821923  2.43805229939267 78.378128821923  C 2.43805229939267 78.378128821923  0.619559643679452 82.5337328870774  0.619559643679452 82.5337328870774  C 0.619559643679452 82.5337328870774  1.67084322571617 83.1108949516548  1.67084322571617 83.1108949516548  C 1.67084322571617 83.1108949516548  8.58904595953601 81.4096249183626  8.58904595953601 81.4096249183626  C 8.58904595953601 81.4096249183626  18.3568168238061 80.865920031434  18.3568168238061 80.865920031434  C 18.3568168238061 80.865920031434  17.2936271785513 84.5907838094718  17.2936271785513 84.5907838094718  C 17.2936271785513 84.5907838094718  19.0893107131541 88.0382201144433  19.0893107131541 88.0382201144433  C 19.0893107131541 88.0382201144433  19.6738248167689 93.2030475383057  19.6738248167689 93.2030475383057  C 19.6738248167689 93.2030475383057  20.8686741611016 94.9256566849029  20.8686741611016 94.9256566849029  C 20.8686741611016 94.9256566849029  26.578831480521 95.233791321016  26.578831480521 95.233791321016  C 26.578831480521 95.233791321016  29.1266880089628 96.9604594891656  29.1266880089628 96.9604594891656  C 29.1266880089628 96.9604594891656  26.2613437947458 100.3949127252  26.2613437947458 100.3949127252  C 26.2613437947458 100.3949127252  25.7978703338247 104.5505817907  25.7978703338247 104.5505817907  C 25.7978703338247 104.5505817907  23.683222105604 109.423307663581  23.683222105604 109.423307663581  C 23.683222105604 109.423307663581  25.0280662463693 111.148366823187  25.0280662463693 111.148366823187  C 25.0280662463693 111.148366823187  28.6362214047153 111.447195409887  28.6362214047153 111.447195409887  C 28.6362214047153 111.447195409887  34.7928100945668 113.61369591343  34.7928100945668 113.61369591343  C 34.7928100945668 113.61369591343  34.0377820855684 115.619459563502  34.0377820855684 115.619459563502  C 34.0377820855684 115.619459563502  38.0721635070628 121.511646849453  38.0721635070628 121.511646849453  C 38.0721635070628 121.511646849453  43.7821938258078 121.528776940409  43.7821938258078 121.528776940409  C 43.7821938258078 121.528776940409  51.0088481974239 117.678401495937  51.0088481974239 117.678401495937  C 51.0088481974239 117.678401495937  53.2574131367068 118.834163632727  53.2574131367068 118.834163632727  C 53.2574131367068 118.834163632727  53.2505131000694 121.134175845182  53.2505131000694 121.134175845182  C 53.2505131000694 121.134175845182  54.2931956364368 124.578353132849  54.2931956364368 124.578353132849  C 54.2931956364368 124.578353132849  56.0950422037638 126.304783299735  56.0950422037638 126.304783299735  C 56.0950422037638 126.304783299735  59.9967849209817 125.742480314055  59.9967849209817 125.742480314055  C 59.9967849209817 125.742480314055  61.4937748696009 126.75298567957  61.4937748696009 126.75298567957  C 61.4937748696009 126.75298567957  62.8520900818941 125.321040076319  62.8520900818941 125.321040076319  C 62.8520900818941 125.321040076319  62.8684401687087 119.871011138112  62.8684401687087 119.871011138112  C 62.8684401687087 119.871011138112  60.4925505533656 109.822739784459  60.4925505533656 109.822739784459  C 60.4925505533656 109.822739784459  62.3065901854345 106.818138830826  62.3065901854345 106.818138830826  C 62.3065901854345 106.818138830826  70.3086326741557 106.842144958292  70.3086326741557 106.842144958292  C 70.3086326741557 106.842144958292  73.620260258019 102.982024462077  73.620260258019 102.982024462077  C 73.620260258019 102.982024462077  82.1761276874036 105.733731072909  82.1761276874036 105.733731072909  C 82.1761276874036 105.733731072909  85.794191898364 102.729542121463  85.794191898364 102.729542121463  C 85.794191898364 102.729542121463  87.5890354285066 104.456951293547  87.5890354285066 104.456951293547  C 87.5890354285066 104.456951293547  91.2055076310139 102.316769929752  91.2055076310139 102.316769929752  C 91.2055076310139 102.316769929752  94.4960631029899 105.48068672931  94.4960631029899 105.48068672931  C 94.4960631029899 105.48068672931  95.8520703030281 105.48475475091  95.8520703030281 105.48475475091  C 95.8520703030281 105.48475475091  97.0572397021576 103.767345631924  97.0572397021576 103.767345631924  C 97.0572397021576 103.767345631924  99.9164268836825 101.051884213545  99.9164268836825 101.051884213545  C 99.9164268836825 101.051884213545  101.268434062482 102.055954544892  101.268434062482 102.055954544892  C 101.268434062482 102.055954544892  105.326603610285 101.352118807711  105.326603610285 101.352118807711  C 105.326603610285 101.352118807711  109.246666424777 98.3498358663853  109.246666424777 98.3498358663853  C 109.246666424777 98.3498358663853  112.560442020046 93.7737115683801  112.560442020046 93.7737115683801  C 112.560442020046 93.7737115683801  117.22146676885 92.7876803328161  117.22146676885 92.7876803328161  C 117.22146676885 92.7876803328161  119.768175291196 95.2303553027716  119.768175291196 95.2303553027716  C 119.768175291196 95.2303553027716  121.587806952957 90.3617444517405  121.587806952957 90.3617444517405  C 121.587806952957 90.3617444517405  125.194687104533 90.0855609852797  125.194687104533 90.0855609852797  C 125.194687104533 90.0855609852797  126.548694293952 89.0896086970374  126.548694293952 89.0896086970374  C 126.548694293952 89.0896086970374  127.762044736521 84.6451850983281  127.762044736521 84.6451850983281  C 127.762044736521 84.6451850983281  126.269347810696 82.2036721345424  126.269347810696 82.2036721345424  C 126.269347810696 82.2036721345424  113.953735418064 80.0156945169621  113.953735418064 80.0156945169621  C 113.953735418064 80.0156945169621  111.864053322407 76.5663762019977  111.864053322407 76.5663762019977  C 111.864053322407 76.5663762019977  104.951016616017 76.5456370918785  104.951016616017 76.5456370918785  C 104.951016616017 76.5456370918785  102.562187931971 72.8104172588528  102.562187931971 72.8104172588528  C 102.562187931971 72.8104172588528  102.868207556854 70.8053066122476  102.868207556854 70.8053066122476  C 102.868207556854 70.8053066122476  104.394645661835 61.9997598571321  104.394645661835 61.9997598571321  C 104.394645661835 61.9997598571321  99.6019432138577 57.5443181999198  99.6019432138577 57.5443181999198  C 99.6019432138577 57.5443181999198  103.251429591662 43.0660593242089  103.251429591662 43.0660593242089  C 103.251429591662 43.0660593242089  100.850440843049 41.0508276238637  100.850440843049 41.0508276238637  C 100.850440843049 41.0508276238637  92.8784985141514 43.3269447094411  92.8784985141514 43.3269447094411  C 92.8784985141514 43.3269447094411  91.0875280045735 40.3085286824534  91.0875280045735 40.3085286824534  C 91.0875280045735 40.3085286824534  91.0978510593861 36.8675104115599  91.0978510593861 36.8675104115599  C 91.0978510593861 36.8675104115599  89.3030075292435 35.1401012394759  89.3030075292435 35.1401012394759  C 89.3030075292435 35.1401012394759  93.218514319545 29.989773892605  93.218514319545 29.989773892605  C 93.218514319545 29.989773892605  97.577664465475 31.2938698170081  97.577664465475 31.2938698170081  C 97.577664465475 31.2938698170081  99.3828370504622 29.5782607075792  99.3828370504622 29.5782607075792  C 99.3828370504622 29.5782607075792  107.344441324467 30.748161919444  107.344441324467 30.748161919444  C 107.344441324467 30.748161919444  110.954898495036 29.6129768919129  110.954898495036 29.6129768919129  Z " fill-rule="evenodd" />
    </mask>
  </defs>
  <g transform="matrix(1 0 0 1 -1025 -511 )">
    <path d="M 110.954898495036 29.6129768919129  C 110.954898495036 29.6129768919129  113.089159827397 23.8692973944994  113.089159827397 23.8692973944994  C 113.089159827397 23.8692973944994  112.047483296371 20.4231230962288  112.047483296371 20.4231230962288  C 112.047483296371 20.4231230962288  108.743906755257 19.2661959532529  108.743906755257 19.2661959532529  C 108.743906755257 19.2661959532529  103.327412995113 22.4049916194246  103.327412995113 22.4049916194246  C 103.327412995113 22.4049916194246  99.7265538755073 20.6741644291916  99.7265538755073 20.6741644291916  C 99.7265538755073 20.6741644291916  99.4398843533683 16.2292408278274  99.4398843533683 16.2292408278274  C 99.4398843533683 16.2292408278274  97.6463368301071 14.0698293619258  97.6463368301071 14.0698293619258  C 97.6463368301071 14.0698293619258  97.6532218666648 11.7748171760204  97.6532218666648 11.7748171760204  C 97.6532218666648 11.7748171760204  92.5456357467385 10.6124780043079  92.5456357467385 10.6124780043079  C 92.5456357467385 10.6124780043079  91.1873265344772 12.0424235969394  91.1873265344772 12.0424235969394  C 91.1873265344772 12.0424235969394  91.9320044885194 15.4867068851693  91.9320044885194 15.4867068851693  C 91.9320044885194 15.4867068851693  87.8648228928649 17.1945299532564  87.8648228928649 17.1945299532564  C 87.8648228928649 17.1945299532564  86.8075032787785 19.6293928817321  86.8075032787785 19.6293928817321  C 86.8075032787785 19.6293928817321  87.8484728060503 22.6445588914631  87.8484728060503 22.6445588914631  C 87.8484728060503 22.6445588914631  78.8033047786095 32.6575670578782  78.8033047786095 32.6575670578782  C 78.8033047786095 32.6575670578782  80.2680295559092 44.4231295298914  80.2680295559092 44.4231295298914  C 80.2680295559092 44.4231295298914  75.8996803611347 47.8520737366748  75.8996803611347 47.8520737366748  C 75.8996803611347 47.8520737366748  73.8061222448969 45.6947622819237  73.8061222448969 45.6947622819237  C 73.8061222448969 45.6947622819237  65.0754508873499 50.5436400281772  65.0754508873499 50.5436400281772  C 65.0754508873499 50.5436400281772  61.28759677485 48.810251824346  61.28759677485 48.810251824346  C 61.28759677485 48.810251824346  48.7348031228483 25.6812630155559  48.7348031228483 25.6812630155559  C 48.7348031228483 25.6812630155559  43.7821028253246 22.2243556602956  43.7821028253246 22.2243556602956  C 43.7821028253246 22.2243556602956  39.7290813048564 21.2121822859237  39.7290813048564 21.2121822859237  C 39.7290813048564 21.2121822859237  37.9385397975563 18.0507654996399  37.9385397975563 18.0507654996399  C 37.9385397975563 18.0507654996399  40.2018838153122 14.6135062487057  40.2018838153122 14.6135062487057  C 40.2018838153122 14.6135062487057  36.6020307010478 11.8806677380588  36.6020307010478 11.8806677380588  C 36.6020307010478 11.8806677380588  32.2336815062733 15.3096119448423  32.2336815062733 15.3096119448423  C 32.2336815062733 15.3096119448423  27.8755013654938 16.0155476931736  27.8755013654938 16.0155476931736  C 27.8755013654938 16.0155476931736  25.048929357147 3.52588937640377  25.048929357147 3.52588937640377  C 25.048929357147 3.52588937640377  24.3049614068747 0.511614371403766  24.3049614068747 0.511614371403766  C 24.3049614068747 0.511614371403766  19.934458200663 5.65857670040725  19.934458200663 5.65857670040725  C 19.934458200663 5.65857670040725  18.1314486271608 6.65318198149731  18.1314486271608 6.65318198149731  C 18.1314486271608 6.65318198149731  18.5557868802842 14.5425678720418  18.5557868802842 14.5425678720418  C 18.5557868802842 14.5425678720418  17.4986062669358 16.2644210146249  17.4986062669358 16.2644210146249  C 17.4986062669358 16.2644210146249  15.2465943093502 16.2576649787521  15.2465943093502 16.2576649787521  C 15.2465943093502 16.2576649787521  13.4517597792553 14.5272557907387  13.4517597792553 14.5272557907387  C 13.4517597792553 14.5272557907387  11.3444285898861 16.9609687131082  11.3444285898861 16.9609687131082  C 11.3444285898861 16.9609687131082  13.4177635987446 25.8593159609697  13.4177635987446 25.8593159609697  C 13.4177635987446 25.8593159609697  15.9747771758079 25.8669870017009  15.9747771758079 25.8669870017009  C 15.9747771758079 25.8669870017009  18.0704923034989 27.3052946387326  18.0704923034989 27.3052946387326  C 18.0704923034989 27.3052946387326  18.8031491937124 32.7565705835607  18.8031491937124 32.7565705835607  C 18.8031491937124 32.7565705835607  17.6963443168724 51.6865210965722  17.6963443168724 51.6865210965722  C 17.6963443168724 51.6865210965722  3.98150949474058 63.8995519445237  3.98150949474058 63.8995519445237  C 3.98150949474058 63.8995519445237  3.21817044161287 68.342325534472  3.21817044161287 68.342325534472  C 3.21817044161287 68.342325534472  0.655694835547706 70.4886689309856  0.655694835547706 70.4886689309856  C 0.655694835547706 70.4886689309856  0.348814206093039 72.7807811014927  0.348814206093039 72.7807811014927  C 0.348814206093039 72.7807811014927  2.43805229939267 78.378128821923  2.43805229939267 78.378128821923  C 2.43805229939267 78.378128821923  0.619559643679452 82.5337328870774  0.619559643679452 82.5337328870774  C 0.619559643679452 82.5337328870774  1.67084322571617 83.1108949516548  1.67084322571617 83.1108949516548  C 1.67084322571617 83.1108949516548  8.58904595953601 81.4096249183626  8.58904595953601 81.4096249183626  C 8.58904595953601 81.4096249183626  18.3568168238061 80.865920031434  18.3568168238061 80.865920031434  C 18.3568168238061 80.865920031434  17.2936271785513 84.5907838094718  17.2936271785513 84.5907838094718  C 17.2936271785513 84.5907838094718  19.0893107131541 88.0382201144433  19.0893107131541 88.0382201144433  C 19.0893107131541 88.0382201144433  19.6738248167689 93.2030475383057  19.6738248167689 93.2030475383057  C 19.6738248167689 93.2030475383057  20.8686741611016 94.9256566849029  20.8686741611016 94.9256566849029  C 20.8686741611016 94.9256566849029  26.578831480521 95.233791321016  26.578831480521 95.233791321016  C 26.578831480521 95.233791321016  29.1266880089628 96.9604594891656  29.1266880089628 96.9604594891656  C 29.1266880089628 96.9604594891656  26.2613437947458 100.3949127252  26.2613437947458 100.3949127252  C 26.2613437947458 100.3949127252  25.7978703338247 104.5505817907  25.7978703338247 104.5505817907  C 25.7978703338247 104.5505817907  23.683222105604 109.423307663581  23.683222105604 109.423307663581  C 23.683222105604 109.423307663581  25.0280662463693 111.148366823187  25.0280662463693 111.148366823187  C 25.0280662463693 111.148366823187  28.6362214047153 111.447195409887  28.6362214047153 111.447195409887  C 28.6362214047153 111.447195409887  34.7928100945668 113.61369591343  34.7928100945668 113.61369591343  C 34.7928100945668 113.61369591343  34.0377820855684 115.619459563502  34.0377820855684 115.619459563502  C 34.0377820855684 115.619459563502  38.0721635070628 121.511646849453  38.0721635070628 121.511646849453  C 38.0721635070628 121.511646849453  43.7821938258078 121.528776940409  43.7821938258078 121.528776940409  C 43.7821938258078 121.528776940409  51.0088481974239 117.678401495937  51.0088481974239 117.678401495937  C 51.0088481974239 117.678401495937  53.2574131367068 118.834163632727  53.2574131367068 118.834163632727  C 53.2574131367068 118.834163632727  53.2505131000694 121.134175845182  53.2505131000694 121.134175845182  C 53.2505131000694 121.134175845182  54.2931956364368 124.578353132849  54.2931956364368 124.578353132849  C 54.2931956364368 124.578353132849  56.0950422037638 126.304783299735  56.0950422037638 126.304783299735  C 56.0950422037638 126.304783299735  59.9967849209817 125.742480314055  59.9967849209817 125.742480314055  C 59.9967849209817 125.742480314055  61.4937748696009 126.75298567957  61.4937748696009 126.75298567957  C 61.4937748696009 126.75298567957  62.8520900818941 125.321040076319  62.8520900818941 125.321040076319  C 62.8520900818941 125.321040076319  62.8684401687087 119.871011138112  62.8684401687087 119.871011138112  C 62.8684401687087 119.871011138112  60.4925505533656 109.822739784459  60.4925505533656 109.822739784459  C 60.4925505533656 109.822739784459  62.3065901854345 106.818138830826  62.3065901854345 106.818138830826  C 62.3065901854345 106.818138830826  70.3086326741557 106.842144958292  70.3086326741557 106.842144958292  C 70.3086326741557 106.842144958292  73.620260258019 102.982024462077  73.620260258019 102.982024462077  C 73.620260258019 102.982024462077  82.1761276874036 105.733731072909  82.1761276874036 105.733731072909  C 82.1761276874036 105.733731072909  85.794191898364 102.729542121463  85.794191898364 102.729542121463  C 85.794191898364 102.729542121463  87.5890354285066 104.456951293547  87.5890354285066 104.456951293547  C 87.5890354285066 104.456951293547  91.2055076310139 102.316769929752  91.2055076310139 102.316769929752  C 91.2055076310139 102.316769929752  94.4960631029899 105.48068672931  94.4960631029899 105.48068672931  C 94.4960631029899 105.48068672931  95.8520703030281 105.48475475091  95.8520703030281 105.48475475091  C 95.8520703030281 105.48475475091  97.0572397021576 103.767345631924  97.0572397021576 103.767345631924  C 97.0572397021576 103.767345631924  99.9164268836825 101.051884213545  99.9164268836825 101.051884213545  C 99.9164268836825 101.051884213545  101.268434062482 102.055954544892  101.268434062482 102.055954544892  C 101.268434062482 102.055954544892  105.326603610285 101.352118807711  105.326603610285 101.352118807711  C 105.326603610285 101.352118807711  109.246666424777 98.3498358663853  109.246666424777 98.3498358663853  C 109.246666424777 98.3498358663853  112.560442020046 93.7737115683801  112.560442020046 93.7737115683801  C 112.560442020046 93.7737115683801  117.22146676885 92.7876803328161  117.22146676885 92.7876803328161  C 117.22146676885 92.7876803328161  119.768175291196 95.2303553027716  119.768175291196 95.2303553027716  C 119.768175291196 95.2303553027716  121.587806952957 90.3617444517405  121.587806952957 90.3617444517405  C 121.587806952957 90.3617444517405  125.194687104533 90.0855609852797  125.194687104533 90.0855609852797  C 125.194687104533 90.0855609852797  126.548694293952 89.0896086970374  126.548694293952 89.0896086970374  C 126.548694293952 89.0896086970374  127.762044736521 84.6451850983281  127.762044736521 84.6451850983281  C 127.762044736521 84.6451850983281  126.269347810696 82.2036721345424  126.269347810696 82.2036721345424  C 126.269347810696 82.2036721345424  113.953735418064 80.0156945169621  113.953735418064 80.0156945169621  C 113.953735418064 80.0156945169621  111.864053322407 76.5663762019977  111.864053322407 76.5663762019977  C 111.864053322407 76.5663762019977  104.951016616017 76.5456370918785  104.951016616017 76.5456370918785  C 104.951016616017 76.5456370918785  102.562187931971 72.8104172588528  102.562187931971 72.8104172588528  C 102.562187931971 72.8104172588528  102.868207556854 70.8053066122476  102.868207556854 70.8053066122476  C 102.868207556854 70.8053066122476  104.394645661835 61.9997598571321  104.394645661835 61.9997598571321  C 104.394645661835 61.9997598571321  99.6019432138577 57.5443181999198  99.6019432138577 57.5443181999198  C 99.6019432138577 57.5443181999198  103.251429591662 43.0660593242089  103.251429591662 43.0660593242089  C 103.251429591662 43.0660593242089  100.850440843049 41.0508276238637  100.850440843049 41.0508276238637  C 100.850440843049 41.0508276238637  92.8784985141514 43.3269447094411  92.8784985141514 43.3269447094411  C 92.8784985141514 43.3269447094411  91.0875280045735 40.3085286824534  91.0875280045735 40.3085286824534  C 91.0875280045735 40.3085286824534  91.0978510593861 36.8675104115599  91.0978510593861 36.8675104115599  C 91.0978510593861 36.8675104115599  89.3030075292435 35.1401012394759  89.3030075292435 35.1401012394759  C 89.3030075292435 35.1401012394759  93.218514319545 29.989773892605  93.218514319545 29.989773892605  C 93.218514319545 29.989773892605  97.577664465475 31.2938698170081  97.577664465475 31.2938698170081  C 97.577664465475 31.2938698170081  99.3828370504622 29.5782607075792  99.3828370504622 29.5782607075792  C 99.3828370504622 29.5782607075792  107.344441324467 30.748161919444  107.344441324467 30.748161919444  C 107.344441324467 30.748161919444  110.954898495036 29.6129768919129  110.954898495036 29.6129768919129  Z " fill-rule="nonzero" fill="#3088ca" stroke="none" transform="matrix(1 0 0 1 1025 511 )" />
    <path d="M 110.954898495036 29.6129768919129  C 110.954898495036 29.6129768919129  113.089159827397 23.8692973944994  113.089159827397 23.8692973944994  C 113.089159827397 23.8692973944994  112.047483296371 20.4231230962288  112.047483296371 20.4231230962288  C 112.047483296371 20.4231230962288  108.743906755257 19.2661959532529  108.743906755257 19.2661959532529  C 108.743906755257 19.2661959532529  103.327412995113 22.4049916194246  103.327412995113 22.4049916194246  C 103.327412995113 22.4049916194246  99.7265538755073 20.6741644291916  99.7265538755073 20.6741644291916  C 99.7265538755073 20.6741644291916  99.4398843533683 16.2292408278274  99.4398843533683 16.2292408278274  C 99.4398843533683 16.2292408278274  97.6463368301071 14.0698293619258  97.6463368301071 14.0698293619258  C 97.6463368301071 14.0698293619258  97.6532218666648 11.7748171760204  97.6532218666648 11.7748171760204  C 97.6532218666648 11.7748171760204  92.5456357467385 10.6124780043079  92.5456357467385 10.6124780043079  C 92.5456357467385 10.6124780043079  91.1873265344772 12.0424235969394  91.1873265344772 12.0424235969394  C 91.1873265344772 12.0424235969394  91.9320044885194 15.4867068851693  91.9320044885194 15.4867068851693  C 91.9320044885194 15.4867068851693  87.8648228928649 17.1945299532564  87.8648228928649 17.1945299532564  C 87.8648228928649 17.1945299532564  86.8075032787785 19.6293928817321  86.8075032787785 19.6293928817321  C 86.8075032787785 19.6293928817321  87.8484728060503 22.6445588914631  87.8484728060503 22.6445588914631  C 87.8484728060503 22.6445588914631  78.8033047786095 32.6575670578782  78.8033047786095 32.6575670578782  C 78.8033047786095 32.6575670578782  80.2680295559092 44.4231295298914  80.2680295559092 44.4231295298914  C 80.2680295559092 44.4231295298914  75.8996803611347 47.8520737366748  75.8996803611347 47.8520737366748  C 75.8996803611347 47.8520737366748  73.8061222448969 45.6947622819237  73.8061222448969 45.6947622819237  C 73.8061222448969 45.6947622819237  65.0754508873499 50.5436400281772  65.0754508873499 50.5436400281772  C 65.0754508873499 50.5436400281772  61.28759677485 48.810251824346  61.28759677485 48.810251824346  C 61.28759677485 48.810251824346  48.7348031228483 25.6812630155559  48.7348031228483 25.6812630155559  C 48.7348031228483 25.6812630155559  43.7821028253246 22.2243556602956  43.7821028253246 22.2243556602956  C 43.7821028253246 22.2243556602956  39.7290813048564 21.2121822859237  39.7290813048564 21.2121822859237  C 39.7290813048564 21.2121822859237  37.9385397975563 18.0507654996399  37.9385397975563 18.0507654996399  C 37.9385397975563 18.0507654996399  40.2018838153122 14.6135062487057  40.2018838153122 14.6135062487057  C 40.2018838153122 14.6135062487057  36.6020307010478 11.8806677380588  36.6020307010478 11.8806677380588  C 36.6020307010478 11.8806677380588  32.2336815062733 15.3096119448423  32.2336815062733 15.3096119448423  C 32.2336815062733 15.3096119448423  27.8755013654938 16.0155476931736  27.8755013654938 16.0155476931736  C 27.8755013654938 16.0155476931736  25.048929357147 3.52588937640377  25.048929357147 3.52588937640377  C 25.048929357147 3.52588937640377  24.3049614068747 0.511614371403766  24.3049614068747 0.511614371403766  C 24.3049614068747 0.511614371403766  19.934458200663 5.65857670040725  19.934458200663 5.65857670040725  C 19.934458200663 5.65857670040725  18.1314486271608 6.65318198149731  18.1314486271608 6.65318198149731  C 18.1314486271608 6.65318198149731  18.5557868802842 14.5425678720418  18.5557868802842 14.5425678720418  C 18.5557868802842 14.5425678720418  17.4986062669358 16.2644210146249  17.4986062669358 16.2644210146249  C 17.4986062669358 16.2644210146249  15.2465943093502 16.2576649787521  15.2465943093502 16.2576649787521  C 15.2465943093502 16.2576649787521  13.4517597792553 14.5272557907387  13.4517597792553 14.5272557907387  C 13.4517597792553 14.5272557907387  11.3444285898861 16.9609687131082  11.3444285898861 16.9609687131082  C 11.3444285898861 16.9609687131082  13.4177635987446 25.8593159609697  13.4177635987446 25.8593159609697  C 13.4177635987446 25.8593159609697  15.9747771758079 25.8669870017009  15.9747771758079 25.8669870017009  C 15.9747771758079 25.8669870017009  18.0704923034989 27.3052946387326  18.0704923034989 27.3052946387326  C 18.0704923034989 27.3052946387326  18.8031491937124 32.7565705835607  18.8031491937124 32.7565705835607  C 18.8031491937124 32.7565705835607  17.6963443168724 51.6865210965722  17.6963443168724 51.6865210965722  C 17.6963443168724 51.6865210965722  3.98150949474058 63.8995519445237  3.98150949474058 63.8995519445237  C 3.98150949474058 63.8995519445237  3.21817044161287 68.342325534472  3.21817044161287 68.342325534472  C 3.21817044161287 68.342325534472  0.655694835547706 70.4886689309856  0.655694835547706 70.4886689309856  C 0.655694835547706 70.4886689309856  0.348814206093039 72.7807811014927  0.348814206093039 72.7807811014927  C 0.348814206093039 72.7807811014927  2.43805229939267 78.378128821923  2.43805229939267 78.378128821923  C 2.43805229939267 78.378128821923  0.619559643679452 82.5337328870774  0.619559643679452 82.5337328870774  C 0.619559643679452 82.5337328870774  1.67084322571617 83.1108949516548  1.67084322571617 83.1108949516548  C 1.67084322571617 83.1108949516548  8.58904595953601 81.4096249183626  8.58904595953601 81.4096249183626  C 8.58904595953601 81.4096249183626  18.3568168238061 80.865920031434  18.3568168238061 80.865920031434  C 18.3568168238061 80.865920031434  17.2936271785513 84.5907838094718  17.2936271785513 84.5907838094718  C 17.2936271785513 84.5907838094718  19.0893107131541 88.0382201144433  19.0893107131541 88.0382201144433  C 19.0893107131541 88.0382201144433  19.6738248167689 93.2030475383057  19.6738248167689 93.2030475383057  C 19.6738248167689 93.2030475383057  20.8686741611016 94.9256566849029  20.8686741611016 94.9256566849029  C 20.8686741611016 94.9256566849029  26.578831480521 95.233791321016  26.578831480521 95.233791321016  C 26.578831480521 95.233791321016  29.1266880089628 96.9604594891656  29.1266880089628 96.9604594891656  C 29.1266880089628 96.9604594891656  26.2613437947458 100.3949127252  26.2613437947458 100.3949127252  C 26.2613437947458 100.3949127252  25.7978703338247 104.5505817907  25.7978703338247 104.5505817907  C 25.7978703338247 104.5505817907  23.683222105604 109.423307663581  23.683222105604 109.423307663581  C 23.683222105604 109.423307663581  25.0280662463693 111.148366823187  25.0280662463693 111.148366823187  C 25.0280662463693 111.148366823187  28.6362214047153 111.447195409887  28.6362214047153 111.447195409887  C 28.6362214047153 111.447195409887  34.7928100945668 113.61369591343  34.7928100945668 113.61369591343  C 34.7928100945668 113.61369591343  34.0377820855684 115.619459563502  34.0377820855684 115.619459563502  C 34.0377820855684 115.619459563502  38.0721635070628 121.511646849453  38.0721635070628 121.511646849453  C 38.0721635070628 121.511646849453  43.7821938258078 121.528776940409  43.7821938258078 121.528776940409  C 43.7821938258078 121.528776940409  51.0088481974239 117.678401495937  51.0088481974239 117.678401495937  C 51.0088481974239 117.678401495937  53.2574131367068 118.834163632727  53.2574131367068 118.834163632727  C 53.2574131367068 118.834163632727  53.2505131000694 121.134175845182  53.2505131000694 121.134175845182  C 53.2505131000694 121.134175845182  54.2931956364368 124.578353132849  54.2931956364368 124.578353132849  C 54.2931956364368 124.578353132849  56.0950422037638 126.304783299735  56.0950422037638 126.304783299735  C 56.0950422037638 126.304783299735  59.9967849209817 125.742480314055  59.9967849209817 125.742480314055  C 59.9967849209817 125.742480314055  61.4937748696009 126.75298567957  61.4937748696009 126.75298567957  C 61.4937748696009 126.75298567957  62.8520900818941 125.321040076319  62.8520900818941 125.321040076319  C 62.8520900818941 125.321040076319  62.8684401687087 119.871011138112  62.8684401687087 119.871011138112  C 62.8684401687087 119.871011138112  60.4925505533656 109.822739784459  60.4925505533656 109.822739784459  C 60.4925505533656 109.822739784459  62.3065901854345 106.818138830826  62.3065901854345 106.818138830826  C 62.3065901854345 106.818138830826  70.3086326741557 106.842144958292  70.3086326741557 106.842144958292  C 70.3086326741557 106.842144958292  73.620260258019 102.982024462077  73.620260258019 102.982024462077  C 73.620260258019 102.982024462077  82.1761276874036 105.733731072909  82.1761276874036 105.733731072909  C 82.1761276874036 105.733731072909  85.794191898364 102.729542121463  85.794191898364 102.729542121463  C 85.794191898364 102.729542121463  87.5890354285066 104.456951293547  87.5890354285066 104.456951293547  C 87.5890354285066 104.456951293547  91.2055076310139 102.316769929752  91.2055076310139 102.316769929752  C 91.2055076310139 102.316769929752  94.4960631029899 105.48068672931  94.4960631029899 105.48068672931  C 94.4960631029899 105.48068672931  95.8520703030281 105.48475475091  95.8520703030281 105.48475475091  C 95.8520703030281 105.48475475091  97.0572397021576 103.767345631924  97.0572397021576 103.767345631924  C 97.0572397021576 103.767345631924  99.9164268836825 101.051884213545  99.9164268836825 101.051884213545  C 99.9164268836825 101.051884213545  101.268434062482 102.055954544892  101.268434062482 102.055954544892  C 101.268434062482 102.055954544892  105.326603610285 101.352118807711  105.326603610285 101.352118807711  C 105.326603610285 101.352118807711  109.246666424777 98.3498358663853  109.246666424777 98.3498358663853  C 109.246666424777 98.3498358663853  112.560442020046 93.7737115683801  112.560442020046 93.7737115683801  C 112.560442020046 93.7737115683801  117.22146676885 92.7876803328161  117.22146676885 92.7876803328161  C 117.22146676885 92.7876803328161  119.768175291196 95.2303553027716  119.768175291196 95.2303553027716  C 119.768175291196 95.2303553027716  121.587806952957 90.3617444517405  121.587806952957 90.3617444517405  C 121.587806952957 90.3617444517405  125.194687104533 90.0855609852797  125.194687104533 90.0855609852797  C 125.194687104533 90.0855609852797  126.548694293952 89.0896086970374  126.548694293952 89.0896086970374  C 126.548694293952 89.0896086970374  127.762044736521 84.6451850983281  127.762044736521 84.6451850983281  C 127.762044736521 84.6451850983281  126.269347810696 82.2036721345424  126.269347810696 82.2036721345424  C 126.269347810696 82.2036721345424  113.953735418064 80.0156945169621  113.953735418064 80.0156945169621  C 113.953735418064 80.0156945169621  111.864053322407 76.5663762019977  111.864053322407 76.5663762019977  C 111.864053322407 76.5663762019977  104.951016616017 76.5456370918785  104.951016616017 76.5456370918785  C 104.951016616017 76.5456370918785  102.562187931971 72.8104172588528  102.562187931971 72.8104172588528  C 102.562187931971 72.8104172588528  102.868207556854 70.8053066122476  102.868207556854 70.8053066122476  C 102.868207556854 70.8053066122476  104.394645661835 61.9997598571321  104.394645661835 61.9997598571321  C 104.394645661835 61.9997598571321  99.6019432138577 57.5443181999198  99.6019432138577 57.5443181999198  C 99.6019432138577 57.5443181999198  103.251429591662 43.0660593242089  103.251429591662 43.0660593242089  C 103.251429591662 43.0660593242089  100.850440843049 41.0508276238637  100.850440843049 41.0508276238637  C 100.850440843049 41.0508276238637  92.8784985141514 43.3269447094411  92.8784985141514 43.3269447094411  C 92.8784985141514 43.3269447094411  91.0875280045735 40.3085286824534  91.0875280045735 40.3085286824534  C 91.0875280045735 40.3085286824534  91.0978510593861 36.8675104115599  91.0978510593861 36.8675104115599  C 91.0978510593861 36.8675104115599  89.3030075292435 35.1401012394759  89.3030075292435 35.1401012394759  C 89.3030075292435 35.1401012394759  93.218514319545 29.989773892605  93.218514319545 29.989773892605  C 93.218514319545 29.989773892605  97.577664465475 31.2938698170081  97.577664465475 31.2938698170081  C 97.577664465475 31.2938698170081  99.3828370504622 29.5782607075792  99.3828370504622 29.5782607075792  C 99.3828370504622 29.5782607075792  107.344441324467 30.748161919444  107.344441324467 30.748161919444  C 107.344441324467 30.748161919444  110.954898495036 29.6129768919129  110.954898495036 29.6129768919129  Z " stroke-width="0.97600957434184" stroke="#199eae" fill="none" transform="matrix(1 0 0 1 1025 511 )" mask="url(#clip1473)" />
  </g>
</svg>