<?xml version="1.0" encoding="utf-8"?>
<svg version="1.1" xmlns:xlink="http://www.w3.org/1999/xlink" width="62px" height="74px" xmlns="http://www.w3.org/2000/svg">
  <defs>
    <mask fill="white" id="clip1474">
      <path d="M 10.3014894415367 58.5384091685443  C 10.3014894415367 58.5384091685443  0.896415503091134 56.5181654415865  0.896415503091134 56.5181654415865  C 0.896415503091134 56.5181654415865  3.13388838347817 44.037699173624  3.13388838347817 44.037699173624  C 3.13388838347817 44.037699173624  5.25036462140508 40.8890034548857  5.25036462140508 40.8890034548857  C 5.25036462140508 40.8890034548857  6.3116872567465 37.4531382113534  6.3116872567465 37.4531382113534  C 6.3116872567465 37.4531382113534  8.88065689729342 31.8087642412261  8.88065689729342 31.8087642412261  C 8.88065689729342 31.8087642412261  7.53167673456676 29.7956885523286  7.53167673456676 29.7956885523286  C 7.53167673456676 29.7956885523286  7.85001942488191 25.3495799446723  7.85001942488191 25.3495799446723  C 7.85001942488191 25.3495799446723  14.0298522381534 18.7680249983628  14.0298522381534 18.7680249983628  C 14.0298522381534 18.7680249983628  13.592187914272 14.3206483839737  13.592187914272 14.3206483839737  C 13.592187914272 14.3206483839737  17.6730095823517 7.73279640422862  17.6730095823517 7.73279640422862  C 17.6730095823517 7.73279640422862  21.570030274497 8.74450177611556  21.570030274497 8.74450177611556  C 21.570030274497 8.74450177611556  29.5504226482619 3.31836496476967  29.5504226482619 3.31836496476967  C 29.5504226482619 3.31836496476967  31.0585996562814 0.599850530179708  31.0585996562814 0.599850530179708  C 31.0585996562814 0.599850530179708  36.2034789742247 1.33129541395789  36.2034789742247 1.33129541395789  C 36.2034789742247 1.33129541395789  38.7449704688698 7.51300823721192  38.7449704688698 7.51300823721192  C 38.7449704688698 7.51300823721192  40.8324955530738 11.6813303698958  40.8324955530738 11.6813303698958  C 40.8324955530738 11.6813303698958  45.9405226753416 11.6966544512626  45.9405226753416 11.6966544512626  C 45.9405226753416 11.6966544512626  49.1051584787176 7.83309293677667  49.1051584787176 7.83309293677667  C 49.1051584787176 7.83309293677667  53.7498421407547 12.29409062349  53.7498421407547 12.29409062349  C 53.7498421407547 12.29409062349  61.9081174590308 9.57452618332485  61.9081174590308 9.57452618332485  C 61.9081174590308 9.57452618332485  56.7317529739097 21.3381656451273  56.7317529739097 21.3381656451273  C 56.7317529739097 21.3381656451273  53.727048019724 19.892130967067  53.727048019724 19.892130967067  C 53.727048019724 19.892130967067  51.6240188531974 20.8918362752368  51.6240188531974 20.8918362752368  C 51.6240188531974 20.8918362752368  51.32056724195 22.0409423766851  51.32056724195 22.0409423766851  C 51.32056724195 22.0409423766851  54.1655493480497 25.0605204098429  54.1655493480497 25.0605204098429  C 54.1655493480497 25.0605204098429  53.3802741784469 35.8153185149655  53.3802741784469 35.8153185149655  C 53.3802741784469 35.8153185149655  54.1214941141282 39.7455983837083  54.1214941141282 39.7455983837083  C 54.1214941141282 39.7455983837083  53.3654690998359 40.7503447186446  53.3654690998359 40.7503447186446  C 53.3654690998359 40.7503447186446  50.0606085519038 40.021419848247  50.0606085519038 40.021419848247  C 50.0606085519038 40.021419848247  47.9545673693842 42.0251304874186  47.9545673693842 42.0251304874186  C 47.9545673693842 42.0251304874186  49.4459772883749 44.8956457290923  49.4459772883749 44.8956457290923  C 49.4459772883749 44.8956457290923  45.378771692593 48.6114974592785  45.378771692593 48.6114974592785  C 45.378771692593 48.6114974592785  46.1254676573503 50.0497580960607  46.1254676573503 50.0497580960607  C 46.1254676573503 50.0497580960607  42.2124468802489 52.0380476533504  42.2124468802489 52.0380476533504  C 42.2124468802489 52.0380476533504  42.8042720226832 54.7658621373211  42.8042720226832 54.7658621373211  C 42.8042720226832 54.7658621373211  41.4459628104219 56.1958077299526  41.4459628104219 56.1958077299526  C 41.4459628104219 56.1958077299526  36.0399341058447 56.1795896438388  36.0399341058447 56.1795896438388  C 36.0399341058447 56.1795896438388  33.1735988863657 58.611025554118  33.1735988863657 58.611025554118  C 33.1735988863657 58.611025554118  32.720596481043 59.6096808567125  32.720596481043 59.6096808567125  C 32.720596481043 59.6096808567125  35.2704530201042 61.336355024894  35.2704530201042 61.336355024894  C 35.2704530201042 61.336355024894  32.4049518050537 65.4898180786801  32.4049518050537 65.4898180786801  C 32.4049518050537 65.4898180786801  28.2926039695783 69.9195445993519  28.2926039695783 69.9195445993519  C 28.2926039695783 69.9195445993519  26.793880011752 69.4870423028795  26.793880011752 69.4870423028795  C 26.793880011752 69.4870423028795  22.8742401995053 73.3483388053388  22.8742401995053 73.3483388053388  C 22.8742401995053 73.3483388053388  18.5463282194416 64.2982257516412  18.5463282194416 64.2982257516412  C 18.5463282194416 64.2982257516412  14.6495005283211 59.5554675688544  14.6495005283211 59.5554675688544  C 14.6495005283211 59.5554675688544  12.097619978513 59.8368160627402  12.097619978513 59.8368160627402  C 12.097619978513 59.8368160627402  10.3014894415367 58.5384091685443  10.3014894415367 58.5384091685443  Z " fill-rule="evenodd" />
    </mask>
  </defs>
  <g transform="matrix(1 0 0 1 -1291 -510 )">
    <path d="M 10.3014894415367 58.5384091685443  C 10.3014894415367 58.5384091685443  0.896415503091134 56.5181654415865  0.896415503091134 56.5181654415865  C 0.896415503091134 56.5181654415865  3.13388838347817 44.037699173624  3.13388838347817 44.037699173624  C 3.13388838347817 44.037699173624  5.25036462140508 40.8890034548857  5.25036462140508 40.8890034548857  C 5.25036462140508 40.8890034548857  6.3116872567465 37.4531382113534  6.3116872567465 37.4531382113534  C 6.3116872567465 37.4531382113534  8.88065689729342 31.8087642412261  8.88065689729342 31.8087642412261  C 8.88065689729342 31.8087642412261  7.53167673456676 29.7956885523286  7.53167673456676 29.7956885523286  C 7.53167673456676 29.7956885523286  7.85001942488191 25.3495799446723  7.85001942488191 25.3495799446723  C 7.85001942488191 25.3495799446723  14.0298522381534 18.7680249983628  14.0298522381534 18.7680249983628  C 14.0298522381534 18.7680249983628  13.592187914272 14.3206483839737  13.592187914272 14.3206483839737  C 13.592187914272 14.3206483839737  17.6730095823517 7.73279640422862  17.6730095823517 7.73279640422862  C 17.6730095823517 7.73279640422862  21.570030274497 8.74450177611556  21.570030274497 8.74450177611556  C 21.570030274497 8.74450177611556  29.5504226482619 3.31836496476967  29.5504226482619 3.31836496476967  C 29.5504226482619 3.31836496476967  31.0585996562814 0.599850530179708  31.0585996562814 0.599850530179708  C 31.0585996562814 0.599850530179708  36.2034789742247 1.33129541395789  36.2034789742247 1.33129541395789  C 36.2034789742247 1.33129541395789  38.7449704688698 7.51300823721192  38.7449704688698 7.51300823721192  C 38.7449704688698 7.51300823721192  40.8324955530738 11.6813303698958  40.8324955530738 11.6813303698958  C 40.8324955530738 11.6813303698958  45.9405226753416 11.6966544512626  45.9405226753416 11.6966544512626  C 45.9405226753416 11.6966544512626  49.1051584787176 7.83309293677667  49.1051584787176 7.83309293677667  C 49.1051584787176 7.83309293677667  53.7498421407547 12.29409062349  53.7498421407547 12.29409062349  C 53.7498421407547 12.29409062349  61.9081174590308 9.57452618332485  61.9081174590308 9.57452618332485  C 61.9081174590308 9.57452618332485  56.7317529739097 21.3381656451273  56.7317529739097 21.3381656451273  C 56.7317529739097 21.3381656451273  53.727048019724 19.892130967067  53.727048019724 19.892130967067  C 53.727048019724 19.892130967067  51.6240188531974 20.8918362752368  51.6240188531974 20.8918362752368  C 51.6240188531974 20.8918362752368  51.32056724195 22.0409423766851  51.32056724195 22.0409423766851  C 51.32056724195 22.0409423766851  54.1655493480497 25.0605204098429  54.1655493480497 25.0605204098429  C 54.1655493480497 25.0605204098429  53.3802741784469 35.8153185149655  53.3802741784469 35.8153185149655  C 53.3802741784469 35.8153185149655  54.1214941141282 39.7455983837083  54.1214941141282 39.7455983837083  C 54.1214941141282 39.7455983837083  53.3654690998359 40.7503447186446  53.3654690998359 40.7503447186446  C 53.3654690998359 40.7503447186446  50.0606085519038 40.021419848247  50.0606085519038 40.021419848247  C 50.0606085519038 40.021419848247  47.9545673693842 42.0251304874186  47.9545673693842 42.0251304874186  C 47.9545673693842 42.0251304874186  49.4459772883749 44.8956457290923  49.4459772883749 44.8956457290923  C 49.4459772883749 44.8956457290923  45.378771692593 48.6114974592785  45.378771692593 48.6114974592785  C 45.378771692593 48.6114974592785  46.1254676573503 50.0497580960607  46.1254676573503 50.0497580960607  C 46.1254676573503 50.0497580960607  42.2124468802489 52.0380476533504  42.2124468802489 52.0380476533504  C 42.2124468802489 52.0380476533504  42.8042720226832 54.7658621373211  42.8042720226832 54.7658621373211  C 42.8042720226832 54.7658621373211  41.4459628104219 56.1958077299526  41.4459628104219 56.1958077299526  C 41.4459628104219 56.1958077299526  36.0399341058447 56.1795896438388  36.0399341058447 56.1795896438388  C 36.0399341058447 56.1795896438388  33.1735988863657 58.611025554118  33.1735988863657 58.611025554118  C 33.1735988863657 58.611025554118  32.720596481043 59.6096808567125  32.720596481043 59.6096808567125  C 32.720596481043 59.6096808567125  35.2704530201042 61.336355024894  35.2704530201042 61.336355024894  C 35.2704530201042 61.336355024894  32.4049518050537 65.4898180786801  32.4049518050537 65.4898180786801  C 32.4049518050537 65.4898180786801  28.2926039695783 69.9195445993519  28.2926039695783 69.9195445993519  C 28.2926039695783 69.9195445993519  26.793880011752 69.4870423028795  26.793880011752 69.4870423028795  C 26.793880011752 69.4870423028795  22.8742401995053 73.3483388053388  22.8742401995053 73.3483388053388  C 22.8742401995053 73.3483388053388  18.5463282194416 64.2982257516412  18.5463282194416 64.2982257516412  C 18.5463282194416 64.2982257516412  14.6495005283211 59.5554675688544  14.6495005283211 59.5554675688544  C 14.6495005283211 59.5554675688544  12.097619978513 59.8368160627402  12.097619978513 59.8368160627402  C 12.097619978513 59.8368160627402  10.3014894415367 58.5384091685443  10.3014894415367 58.5384091685443  Z " fill-rule="nonzero" fill="#184799" stroke="none" transform="matrix(1 0 0 1 1291 510 )" />
    <path d="M 10.3014894415367 58.5384091685443  C 10.3014894415367 58.5384091685443  0.896415503091134 56.5181654415865  0.896415503091134 56.5181654415865  C 0.896415503091134 56.5181654415865  3.13388838347817 44.037699173624  3.13388838347817 44.037699173624  C 3.13388838347817 44.037699173624  5.25036462140508 40.8890034548857  5.25036462140508 40.8890034548857  C 5.25036462140508 40.8890034548857  6.3116872567465 37.4531382113534  6.3116872567465 37.4531382113534  C 6.3116872567465 37.4531382113534  8.88065689729342 31.8087642412261  8.88065689729342 31.8087642412261  C 8.88065689729342 31.8087642412261  7.53167673456676 29.7956885523286  7.53167673456676 29.7956885523286  C 7.53167673456676 29.7956885523286  7.85001942488191 25.3495799446723  7.85001942488191 25.3495799446723  C 7.85001942488191 25.3495799446723  14.0298522381534 18.7680249983628  14.0298522381534 18.7680249983628  C 14.0298522381534 18.7680249983628  13.592187914272 14.3206483839737  13.592187914272 14.3206483839737  C 13.592187914272 14.3206483839737  17.6730095823517 7.73279640422862  17.6730095823517 7.73279640422862  C 17.6730095823517 7.73279640422862  21.570030274497 8.74450177611556  21.570030274497 8.74450177611556  C 21.570030274497 8.74450177611556  29.5504226482619 3.31836496476967  29.5504226482619 3.31836496476967  C 29.5504226482619 3.31836496476967  31.0585996562814 0.599850530179708  31.0585996562814 0.599850530179708  C 31.0585996562814 0.599850530179708  36.2034789742247 1.33129541395789  36.2034789742247 1.33129541395789  C 36.2034789742247 1.33129541395789  38.7449704688698 7.51300823721192  38.7449704688698 7.51300823721192  C 38.7449704688698 7.51300823721192  40.8324955530738 11.6813303698958  40.8324955530738 11.6813303698958  C 40.8324955530738 11.6813303698958  45.9405226753416 11.6966544512626  45.9405226753416 11.6966544512626  C 45.9405226753416 11.6966544512626  49.1051584787176 7.83309293677667  49.1051584787176 7.83309293677667  C 49.1051584787176 7.83309293677667  53.7498421407547 12.29409062349  53.7498421407547 12.29409062349  C 53.7498421407547 12.29409062349  61.9081174590308 9.57452618332485  61.9081174590308 9.57452618332485  C 61.9081174590308 9.57452618332485  56.7317529739097 21.3381656451273  56.7317529739097 21.3381656451273  C 56.7317529739097 21.3381656451273  53.727048019724 19.892130967067  53.727048019724 19.892130967067  C 53.727048019724 19.892130967067  51.6240188531974 20.8918362752368  51.6240188531974 20.8918362752368  C 51.6240188531974 20.8918362752368  51.32056724195 22.0409423766851  51.32056724195 22.0409423766851  C 51.32056724195 22.0409423766851  54.1655493480497 25.0605204098429  54.1655493480497 25.0605204098429  C 54.1655493480497 25.0605204098429  53.3802741784469 35.8153185149655  53.3802741784469 35.8153185149655  C 53.3802741784469 35.8153185149655  54.1214941141282 39.7455983837083  54.1214941141282 39.7455983837083  C 54.1214941141282 39.7455983837083  53.3654690998359 40.7503447186446  53.3654690998359 40.7503447186446  C 53.3654690998359 40.7503447186446  50.0606085519038 40.021419848247  50.0606085519038 40.021419848247  C 50.0606085519038 40.021419848247  47.9545673693842 42.0251304874186  47.9545673693842 42.0251304874186  C 47.9545673693842 42.0251304874186  49.4459772883749 44.8956457290923  49.4459772883749 44.8956457290923  C 49.4459772883749 44.8956457290923  45.378771692593 48.6114974592785  45.378771692593 48.6114974592785  C 45.378771692593 48.6114974592785  46.1254676573503 50.0497580960607  46.1254676573503 50.0497580960607  C 46.1254676573503 50.0497580960607  42.2124468802489 52.0380476533504  42.2124468802489 52.0380476533504  C 42.2124468802489 52.0380476533504  42.8042720226832 54.7658621373211  42.8042720226832 54.7658621373211  C 42.8042720226832 54.7658621373211  41.4459628104219 56.1958077299526  41.4459628104219 56.1958077299526  C 41.4459628104219 56.1958077299526  36.0399341058447 56.1795896438388  36.0399341058447 56.1795896438388  C 36.0399341058447 56.1795896438388  33.1735988863657 58.611025554118  33.1735988863657 58.611025554118  C 33.1735988863657 58.611025554118  32.720596481043 59.6096808567125  32.720596481043 59.6096808567125  C 32.720596481043 59.6096808567125  35.2704530201042 61.336355024894  35.2704530201042 61.336355024894  C 35.2704530201042 61.336355024894  32.4049518050537 65.4898180786801  32.4049518050537 65.4898180786801  C 32.4049518050537 65.4898180786801  28.2926039695783 69.9195445993519  28.2926039695783 69.9195445993519  C 28.2926039695783 69.9195445993519  26.793880011752 69.4870423028795  26.793880011752 69.4870423028795  C 26.793880011752 69.4870423028795  22.8742401995053 73.3483388053388  22.8742401995053 73.3483388053388  C 22.8742401995053 73.3483388053388  18.5463282194416 64.2982257516412  18.5463282194416 64.2982257516412  C 18.5463282194416 64.2982257516412  14.6495005283211 59.5554675688544  14.6495005283211 59.5554675688544  C 14.6495005283211 59.5554675688544  12.097619978513 59.8368160627402  12.097619978513 59.8368160627402  C 12.097619978513 59.8368160627402  10.3014894415367 58.5384091685443  10.3014894415367 58.5384091685443  Z " stroke-width="0.97600957434184" stroke="#199eae" fill="none" transform="matrix(1 0 0 1 1291 510 )" mask="url(#clip1474)" />
  </g>
</svg>