<?xml version="1.0" encoding="utf-8"?>
<svg version="1.1" xmlns:xlink="http://www.w3.org/1999/xlink" width="36px" height="32px" xmlns="http://www.w3.org/2000/svg">
  <defs>
    <mask fill="white" id="clip1472">
      <path d="M 30.2569900459649 0.000416090704902672  C 30.2569900459649 0.000416090704902672  28.4449624245793 2.00100871332063  28.4449624245793 2.00100871332063  C 28.4449624245793 2.00100871332063  23.0346436972233 2.41478391035707  23.0346436972233 2.41478391035707  C 23.0346436972233 2.41478391035707  10.6705510471737 4.38672038081631  10.6705510471737 4.38672038081631  C 10.6705510471737 4.38672038081631  8.1105224541015 6.38406898620701  8.1105224541015 6.38406898620701  C 8.1105224541015 6.38406898620701  0.874829034490517 13.2474604289935  0.874829034490517 13.2474604289935  C 0.874829034490517 13.2474604289935  0.11088097812916 17.8932350968236  0.11088097812916 17.8932350968236  C 0.11088097812916 17.8932350968236  2.63978340592962 26.9379511218644  2.63978340592962 26.9379511218644  C 2.63978340592962 26.9379511218644  16.0015283532479 31.4200999208846  16.0015283532479 31.4200999208846  C 16.0015283532479 31.4200999208846  29.440722711802 21.4192738191531  29.440722711802 21.4192738191531  C 29.440722711802 21.4192738191531  29.4549097871317 16.6902487092851  29.4549097871317 16.6902487092851  C 29.4549097871317 16.6902487092851  35.9506792779432 5.46457510393861  35.9506792779432 5.46457510393861  C 35.9506792779432 5.46457510393861  34.1640107912078 1.01215146275104  34.1640107912078 1.01215146275104  C 34.1640107912078 1.01215146275104  30.2569900459649 0.000416090704902672  30.2569900459649 0.000416090704902672  Z " fill-rule="evenodd" />
    </mask>
  </defs>
  <g transform="matrix(1 0 0 1 -1193 -648 )">
    <path d="M 30.2569900459649 0.000416090704902672  C 30.2569900459649 0.000416090704902672  28.4449624245793 2.00100871332063  28.4449624245793 2.00100871332063  C 28.4449624245793 2.00100871332063  23.0346436972233 2.41478391035707  23.0346436972233 2.41478391035707  C 23.0346436972233 2.41478391035707  10.6705510471737 4.38672038081631  10.6705510471737 4.38672038081631  C 10.6705510471737 4.38672038081631  8.1105224541015 6.38406898620701  8.1105224541015 6.38406898620701  C 8.1105224541015 6.38406898620701  0.874829034490517 13.2474604289935  0.874829034490517 13.2474604289935  C 0.874829034490517 13.2474604289935  0.11088097812916 17.8932350968236  0.11088097812916 17.8932350968236  C 0.11088097812916 17.8932350968236  2.63978340592962 26.9379511218644  2.63978340592962 26.9379511218644  C 2.63978340592962 26.9379511218644  16.0015283532479 31.4200999208846  16.0015283532479 31.4200999208846  C 16.0015283532479 31.4200999208846  29.440722711802 21.4192738191531  29.440722711802 21.4192738191531  C 29.440722711802 21.4192738191531  29.4549097871317 16.6902487092851  29.4549097871317 16.6902487092851  C 29.4549097871317 16.6902487092851  35.9506792779432 5.46457510393861  35.9506792779432 5.46457510393861  C 35.9506792779432 5.46457510393861  34.1640107912078 1.01215146275104  34.1640107912078 1.01215146275104  C 34.1640107912078 1.01215146275104  30.2569900459649 0.000416090704902672  30.2569900459649 0.000416090704902672  Z " fill-rule="nonzero" fill="#3088ca" stroke="none" transform="matrix(1 0 0 1 1193 648 )" />
    <path d="M 30.2569900459649 0.000416090704902672  C 30.2569900459649 0.000416090704902672  28.4449624245793 2.00100871332063  28.4449624245793 2.00100871332063  C 28.4449624245793 2.00100871332063  23.0346436972233 2.41478391035707  23.0346436972233 2.41478391035707  C 23.0346436972233 2.41478391035707  10.6705510471737 4.38672038081631  10.6705510471737 4.38672038081631  C 10.6705510471737 4.38672038081631  8.1105224541015 6.38406898620701  8.1105224541015 6.38406898620701  C 8.1105224541015 6.38406898620701  0.874829034490517 13.2474604289935  0.874829034490517 13.2474604289935  C 0.874829034490517 13.2474604289935  0.11088097812916 17.8932350968236  0.11088097812916 17.8932350968236  C 0.11088097812916 17.8932350968236  2.63978340592962 26.9379511218644  2.63978340592962 26.9379511218644  C 2.63978340592962 26.9379511218644  16.0015283532479 31.4200999208846  16.0015283532479 31.4200999208846  C 16.0015283532479 31.4200999208846  29.440722711802 21.4192738191531  29.440722711802 21.4192738191531  C 29.440722711802 21.4192738191531  29.4549097871317 16.6902487092851  29.4549097871317 16.6902487092851  C 29.4549097871317 16.6902487092851  35.9506792779432 5.46457510393861  35.9506792779432 5.46457510393861  C 35.9506792779432 5.46457510393861  34.1640107912078 1.01215146275104  34.1640107912078 1.01215146275104  C 34.1640107912078 1.01215146275104  30.2569900459649 0.000416090704902672  30.2569900459649 0.000416090704902672  Z " stroke-width="0.97600957434184" stroke="#199eae" fill="none" transform="matrix(1 0 0 1 1193 648 )" mask="url(#clip1472)" />
  </g>
</svg>