<?xml version="1.0" encoding="utf-8"?>
<svg version="1.1" xmlns:xlink="http://www.w3.org/1999/xlink" width="68px" height="78px" xmlns="http://www.w3.org/2000/svg">
  <defs>
    <mask fill="white" id="clip1476">
      <path d="M 14.8256417910187 4.70689584192479  C 14.8256417910187 4.70689584192479  13.8001133457345 1.54477405189766  13.8001133457345 1.54477405189766  C 13.8001133457345 1.54477405189766  16.3592869342668 0.832441269599656  16.3592869342668 0.832441269599656  C 16.3592869342668 0.832441269599656  24.3128581656185 4.01334715936542  24.3128581656185 4.01334715936542  C 24.3128581656185 4.01334715936542  27.9115542737394 7.46519248774769  27.9115542737394 7.46519248774769  C 27.9115542737394 7.46519248774769  34.8544251385407 9.20804574183575  34.8544251385407 9.20804574183575  C 34.8544251385407 9.20804574183575  37.4054146836179 11.2237274445704  37.4054146836179 11.2237274445704  C 37.4054146836179 11.2237274445704  41.0141648451231 10.6575454382943  41.0141648451231 10.6575454382943  C 41.0141648451231 10.6575454382943  41.762292817484 11.9518083104865  41.762292817484 11.9518083104865  C 41.762292817484 11.9518083104865  40.5343382973714 19.2642291374997  40.5343382973714 19.2642291374997  C 40.5343382973714 19.2642291374997  44.1373364283351 21.2820668516823  44.1373364283351 21.2820668516823  C 44.1373364283351 21.2820668516823  45.6291693495718 24.0115813446796  45.6291693495718 24.0115813446796  C 45.6291693495718 24.0115813446796  51.0381980700782 25.0278227406516  51.0381980700782 25.0278227406516  C 51.0381980700782 25.0278227406516  53.1485292753767 21.5941045085194  53.1485292753767 21.5941045085194  C 53.1485292753767 21.5941045085194  56.4542508278805 22.0360278550151  56.4542508278805 22.0360278550151  C 56.4542508278805 22.0360278550151  58.5460839349591 24.7683423628797  58.5460839349591 24.7683423628797  C 58.5460839349591 24.7683423628797  58.2387713032107 27.2044552979926  58.2387713032107 27.2044552979926  C 58.2387713032107 27.2044552979926  51.7735859747929 27.9020700021415  51.7735859747929 27.9020700021415  C 51.7735859747929 27.9020700021415  51.7593898994156 32.6340951279387  51.7593898994156 32.6340951279387  C 51.7593898994156 32.6340951279387  49.1981983001682 35.3524505616844  49.1981983001682 35.3524505616844  C 49.1981983001682 35.3524505616844  50.9887458075001 38.5118673373486  50.9887458075001 38.5118673373486  C 50.9887458075001 38.5118673373486  56.3849874601106 42.4571122855519  56.3849874601106 42.4571122855519  C 56.3849874601106 42.4571122855519  56.6725059867575 46.6190343842533  56.6725059867575 46.6190343842533  C 56.6725059867575 46.6190343842533  67.4875634118412 47.6514938663391  67.4875634118412 47.6514938663391  C 67.4875634118412 47.6514938663391  67.4712163250425 53.100522799236  67.4712163250425 53.100522799236  C 67.4712163250425 53.100522799236  65.3625981288396 55.9632379994938  65.3625981288396 55.9632379994938  C 65.3625981288396 55.9632379994938  66.8544340500923 58.6917524871814  66.8544340500923 58.6917524871814  C 66.8544340500923 58.6917524871814  65.6492586509308 60.4111616167874  65.6492586509308 60.4111616167874  C 65.6492586509308 60.4111616167874  61.4360912801307 61.1135323461895  61.4360912801307 61.1135323461895  C 61.4360912801307 61.1135323461895  59.6291816859205 63.408144529971  59.6291816859205 63.408144529971  C 59.6291816859205 63.408144529971  59.9115401851691 69.2900757614642  59.9115401851691 69.2900757614642  C 59.9115401851691 69.2900757614642  54.4805753481878 76.5858875002876  54.4805753481878 76.5858875002876  C 54.4805753481878 76.5858875002876  53.572101524433 77.4061738557904  53.572101524433 77.4061738557904  C 53.572101524433 77.4061738557904  50.5797206356849 74.8521602946564  50.5797206356849 74.8521602946564  C 50.5797206356849 74.8521602946564  42.9176799522829 74.8291741726063  42.9176799522829 74.8291741726063  C 42.9176799522829 74.8291741726063  39.7739832600882 71.3796938567816  39.7739832600882 71.3796938567816  C 39.7739832600882 71.3796938567816  33.110727879971 77.0997862289535  33.110727879971 77.0997862289535  C 33.110727879971 77.0997862289535  30.8597159276951 76.0930188832862  30.8597159276951 76.0930188832862  C 30.8597159276951 76.0930188832862  33.4290735703021 71.6526633061769  33.4290735703021 71.6526633061769  C 33.4290735703021 71.6526633061769  33.1333650001682 70.2207557031277  33.1333650001682 70.2207557031277  C 33.1333650001682 70.2207557031277  30.8810780411224 69.6389906141096  30.8810780411224 69.6389906141096  C 30.8810780411224 69.6389906141096  23.6558526770939 73.3463682993008  23.6558526770939 73.3463682993008  C 23.6558526770939 73.3463682993008  16.931821974276 60.9910196956799  16.931821974276 60.9910196956799  C 16.931821974276 60.9910196956799  19.0434491864559 57.1252991697302  19.0434491864559 57.1252991697302  C 19.0434491864559 57.1252991697302  18.2963182193888 55.8320393028637  18.2963182193888 55.8320393028637  C 18.2963182193888 55.8320393028637  14.6917430800519 54.6732091497832  14.6917430800519 54.6732091497832  C 14.6917430800519 54.6732091497832  8.69604024446164 51.2121727725989  8.69604024446164 51.2121727725989  C 8.69604024446164 51.2121727725989  11.1102490632694 46.487347685032  11.1102490632694 46.487347685032  C 11.1102490632694 46.487347685032  14.7154312058295 44.7771386042758  14.7154312058295 44.7771386042758  C 14.7154312058295 44.7771386042758  15.4820512763786 40.9073830569012  15.4820512763786 40.9073830569012  C 15.4820512763786 40.9073830569012  14.1501572043745 33.532281897072  14.1501572043745 33.532281897072  C 14.1501572043745 33.532281897072  13.4028842365536 32.9530318214079  13.4028842365536 32.9530318214079  C 13.4028842365536 32.9530318214079  9.78553002936303 36.3872290560835  9.78553002936303 36.3872290560835  C 9.78553002936303 36.3872290560835  4.38798136981268 32.2109768812932  4.38798136981268 32.2109768812932  C 4.38798136981268 32.2109768812932  0.345584905760688 27.3237799315748  0.345584905760688 27.3237799315748  C 0.345584905760688 27.3237799315748  4.41077549084343 24.6129365377161  4.41077549084343 24.6129365377161  C 4.41077549084343 24.6129365377161  5.4764151491072 19.7380636534353  5.4764151491072 19.7380636534353  C 5.4764151491072 19.7380636534353  8.03359472705188 18.0237105506755  8.03359472705188 18.0237105506755  C 8.03359472705188 18.0237105506755  7.60395444577603 11.5683292743147  7.60395444577603 11.5683292743147  C 7.60395444577603 11.5683292743147  9.40826302617552 10.1407216940975  9.40826302617552 10.1407216940975  C 9.40826302617552 10.1407216940975  12.7078245459712 12.3026511733691  12.7078245459712 12.3026511733691  C 12.7078245459712 12.3026511733691  14.7996636530816 15.0329656706142  14.7996636530816 15.0329656706142  C 14.7996636530816 15.0329656706142  19.1658588364188 12.3220252762404  19.1658588364188 12.3220252762404  C 19.1658588364188 12.3220252762404  20.671038828525 10.6025161461034  20.671038828525 10.6025161461034  C 20.671038828525 10.6025161461034  19.9294938911182 7.44724639245874  19.9294938911182 7.44724639245874  C 19.9294938911182 7.44724639245874  14.8256417910187 4.70689584192479  14.8256417910187 4.70689584192479  Z " fill-rule="evenodd" />
    </mask>
  </defs>
  <g transform="matrix(1 0 0 1 -1263 -418 )">
    <path d="M 14.8256417910187 4.70689584192479  C 14.8256417910187 4.70689584192479  13.8001133457345 1.54477405189766  13.8001133457345 1.54477405189766  C 13.8001133457345 1.54477405189766  16.3592869342668 0.832441269599656  16.3592869342668 0.832441269599656  C 16.3592869342668 0.832441269599656  24.3128581656185 4.01334715936542  24.3128581656185 4.01334715936542  C 24.3128581656185 4.01334715936542  27.9115542737394 7.46519248774769  27.9115542737394 7.46519248774769  C 27.9115542737394 7.46519248774769  34.8544251385407 9.20804574183575  34.8544251385407 9.20804574183575  C 34.8544251385407 9.20804574183575  37.4054146836179 11.2237274445704  37.4054146836179 11.2237274445704  C 37.4054146836179 11.2237274445704  41.0141648451231 10.6575454382943  41.0141648451231 10.6575454382943  C 41.0141648451231 10.6575454382943  41.762292817484 11.9518083104865  41.762292817484 11.9518083104865  C 41.762292817484 11.9518083104865  40.5343382973714 19.2642291374997  40.5343382973714 19.2642291374997  C 40.5343382973714 19.2642291374997  44.1373364283351 21.2820668516823  44.1373364283351 21.2820668516823  C 44.1373364283351 21.2820668516823  45.6291693495718 24.0115813446796  45.6291693495718 24.0115813446796  C 45.6291693495718 24.0115813446796  51.0381980700782 25.0278227406516  51.0381980700782 25.0278227406516  C 51.0381980700782 25.0278227406516  53.1485292753767 21.5941045085194  53.1485292753767 21.5941045085194  C 53.1485292753767 21.5941045085194  56.4542508278805 22.0360278550151  56.4542508278805 22.0360278550151  C 56.4542508278805 22.0360278550151  58.5460839349591 24.7683423628797  58.5460839349591 24.7683423628797  C 58.5460839349591 24.7683423628797  58.2387713032107 27.2044552979926  58.2387713032107 27.2044552979926  C 58.2387713032107 27.2044552979926  51.7735859747929 27.9020700021415  51.7735859747929 27.9020700021415  C 51.7735859747929 27.9020700021415  51.7593898994156 32.6340951279387  51.7593898994156 32.6340951279387  C 51.7593898994156 32.6340951279387  49.1981983001682 35.3524505616844  49.1981983001682 35.3524505616844  C 49.1981983001682 35.3524505616844  50.9887458075001 38.5118673373486  50.9887458075001 38.5118673373486  C 50.9887458075001 38.5118673373486  56.3849874601106 42.4571122855519  56.3849874601106 42.4571122855519  C 56.3849874601106 42.4571122855519  56.6725059867575 46.6190343842533  56.6725059867575 46.6190343842533  C 56.6725059867575 46.6190343842533  67.4875634118412 47.6514938663391  67.4875634118412 47.6514938663391  C 67.4875634118412 47.6514938663391  67.4712163250425 53.100522799236  67.4712163250425 53.100522799236  C 67.4712163250425 53.100522799236  65.3625981288396 55.9632379994938  65.3625981288396 55.9632379994938  C 65.3625981288396 55.9632379994938  66.8544340500923 58.6917524871814  66.8544340500923 58.6917524871814  C 66.8544340500923 58.6917524871814  65.6492586509308 60.4111616167874  65.6492586509308 60.4111616167874  C 65.6492586509308 60.4111616167874  61.4360912801307 61.1135323461895  61.4360912801307 61.1135323461895  C 61.4360912801307 61.1135323461895  59.6291816859205 63.408144529971  59.6291816859205 63.408144529971  C 59.6291816859205 63.408144529971  59.9115401851691 69.2900757614642  59.9115401851691 69.2900757614642  C 59.9115401851691 69.2900757614642  54.4805753481878 76.5858875002876  54.4805753481878 76.5858875002876  C 54.4805753481878 76.5858875002876  53.572101524433 77.4061738557904  53.572101524433 77.4061738557904  C 53.572101524433 77.4061738557904  50.5797206356849 74.8521602946564  50.5797206356849 74.8521602946564  C 50.5797206356849 74.8521602946564  42.9176799522829 74.8291741726063  42.9176799522829 74.8291741726063  C 42.9176799522829 74.8291741726063  39.7739832600882 71.3796938567816  39.7739832600882 71.3796938567816  C 39.7739832600882 71.3796938567816  33.110727879971 77.0997862289535  33.110727879971 77.0997862289535  C 33.110727879971 77.0997862289535  30.8597159276951 76.0930188832862  30.8597159276951 76.0930188832862  C 30.8597159276951 76.0930188832862  33.4290735703021 71.6526633061769  33.4290735703021 71.6526633061769  C 33.4290735703021 71.6526633061769  33.1333650001682 70.2207557031277  33.1333650001682 70.2207557031277  C 33.1333650001682 70.2207557031277  30.8810780411224 69.6389906141096  30.8810780411224 69.6389906141096  C 30.8810780411224 69.6389906141096  23.6558526770939 73.3463682993008  23.6558526770939 73.3463682993008  C 23.6558526770939 73.3463682993008  16.931821974276 60.9910196956799  16.931821974276 60.9910196956799  C 16.931821974276 60.9910196956799  19.0434491864559 57.1252991697302  19.0434491864559 57.1252991697302  C 19.0434491864559 57.1252991697302  18.2963182193888 55.8320393028637  18.2963182193888 55.8320393028637  C 18.2963182193888 55.8320393028637  14.6917430800519 54.6732091497832  14.6917430800519 54.6732091497832  C 14.6917430800519 54.6732091497832  8.69604024446164 51.2121727725989  8.69604024446164 51.2121727725989  C 8.69604024446164 51.2121727725989  11.1102490632694 46.487347685032  11.1102490632694 46.487347685032  C 11.1102490632694 46.487347685032  14.7154312058295 44.7771386042758  14.7154312058295 44.7771386042758  C 14.7154312058295 44.7771386042758  15.4820512763786 40.9073830569012  15.4820512763786 40.9073830569012  C 15.4820512763786 40.9073830569012  14.1501572043745 33.532281897072  14.1501572043745 33.532281897072  C 14.1501572043745 33.532281897072  13.4028842365536 32.9530318214079  13.4028842365536 32.9530318214079  C 13.4028842365536 32.9530318214079  9.78553002936303 36.3872290560835  9.78553002936303 36.3872290560835  C 9.78553002936303 36.3872290560835  4.38798136981268 32.2109768812932  4.38798136981268 32.2109768812932  C 4.38798136981268 32.2109768812932  0.345584905760688 27.3237799315748  0.345584905760688 27.3237799315748  C 0.345584905760688 27.3237799315748  4.41077549084343 24.6129365377161  4.41077549084343 24.6129365377161  C 4.41077549084343 24.6129365377161  5.4764151491072 19.7380636534353  5.4764151491072 19.7380636534353  C 5.4764151491072 19.7380636534353  8.03359472705188 18.0237105506755  8.03359472705188 18.0237105506755  C 8.03359472705188 18.0237105506755  7.60395444577603 11.5683292743147  7.60395444577603 11.5683292743147  C 7.60395444577603 11.5683292743147  9.40826302617552 10.1407216940975  9.40826302617552 10.1407216940975  C 9.40826302617552 10.1407216940975  12.7078245459712 12.3026511733691  12.7078245459712 12.3026511733691  C 12.7078245459712 12.3026511733691  14.7996636530816 15.0329656706142  14.7996636530816 15.0329656706142  C 14.7996636530816 15.0329656706142  19.1658588364188 12.3220252762404  19.1658588364188 12.3220252762404  C 19.1658588364188 12.3220252762404  20.671038828525 10.6025161461034  20.671038828525 10.6025161461034  C 20.671038828525 10.6025161461034  19.9294938911182 7.44724639245874  19.9294938911182 7.44724639245874  C 19.9294938911182 7.44724639245874  14.8256417910187 4.70689584192479  14.8256417910187 4.70689584192479  Z " fill-rule="nonzero" fill="#184799" stroke="none" transform="matrix(1 0 0 1 1263 418 )" />
    <path d="M 14.8256417910187 4.70689584192479  C 14.8256417910187 4.70689584192479  13.8001133457345 1.54477405189766  13.8001133457345 1.54477405189766  C 13.8001133457345 1.54477405189766  16.3592869342668 0.832441269599656  16.3592869342668 0.832441269599656  C 16.3592869342668 0.832441269599656  24.3128581656185 4.01334715936542  24.3128581656185 4.01334715936542  C 24.3128581656185 4.01334715936542  27.9115542737394 7.46519248774769  27.9115542737394 7.46519248774769  C 27.9115542737394 7.46519248774769  34.8544251385407 9.20804574183575  34.8544251385407 9.20804574183575  C 34.8544251385407 9.20804574183575  37.4054146836179 11.2237274445704  37.4054146836179 11.2237274445704  C 37.4054146836179 11.2237274445704  41.0141648451231 10.6575454382943  41.0141648451231 10.6575454382943  C 41.0141648451231 10.6575454382943  41.762292817484 11.9518083104865  41.762292817484 11.9518083104865  C 41.762292817484 11.9518083104865  40.5343382973714 19.2642291374997  40.5343382973714 19.2642291374997  C 40.5343382973714 19.2642291374997  44.1373364283351 21.2820668516823  44.1373364283351 21.2820668516823  C 44.1373364283351 21.2820668516823  45.6291693495718 24.0115813446796  45.6291693495718 24.0115813446796  C 45.6291693495718 24.0115813446796  51.0381980700782 25.0278227406516  51.0381980700782 25.0278227406516  C 51.0381980700782 25.0278227406516  53.1485292753767 21.5941045085194  53.1485292753767 21.5941045085194  C 53.1485292753767 21.5941045085194  56.4542508278805 22.0360278550151  56.4542508278805 22.0360278550151  C 56.4542508278805 22.0360278550151  58.5460839349591 24.7683423628797  58.5460839349591 24.7683423628797  C 58.5460839349591 24.7683423628797  58.2387713032107 27.2044552979926  58.2387713032107 27.2044552979926  C 58.2387713032107 27.2044552979926  51.7735859747929 27.9020700021415  51.7735859747929 27.9020700021415  C 51.7735859747929 27.9020700021415  51.7593898994156 32.6340951279387  51.7593898994156 32.6340951279387  C 51.7593898994156 32.6340951279387  49.1981983001682 35.3524505616844  49.1981983001682 35.3524505616844  C 49.1981983001682 35.3524505616844  50.9887458075001 38.5118673373486  50.9887458075001 38.5118673373486  C 50.9887458075001 38.5118673373486  56.3849874601106 42.4571122855519  56.3849874601106 42.4571122855519  C 56.3849874601106 42.4571122855519  56.6725059867575 46.6190343842533  56.6725059867575 46.6190343842533  C 56.6725059867575 46.6190343842533  67.4875634118412 47.6514938663391  67.4875634118412 47.6514938663391  C 67.4875634118412 47.6514938663391  67.4712163250425 53.100522799236  67.4712163250425 53.100522799236  C 67.4712163250425 53.100522799236  65.3625981288396 55.9632379994938  65.3625981288396 55.9632379994938  C 65.3625981288396 55.9632379994938  66.8544340500923 58.6917524871814  66.8544340500923 58.6917524871814  C 66.8544340500923 58.6917524871814  65.6492586509308 60.4111616167874  65.6492586509308 60.4111616167874  C 65.6492586509308 60.4111616167874  61.4360912801307 61.1135323461895  61.4360912801307 61.1135323461895  C 61.4360912801307 61.1135323461895  59.6291816859205 63.408144529971  59.6291816859205 63.408144529971  C 59.6291816859205 63.408144529971  59.9115401851691 69.2900757614642  59.9115401851691 69.2900757614642  C 59.9115401851691 69.2900757614642  54.4805753481878 76.5858875002876  54.4805753481878 76.5858875002876  C 54.4805753481878 76.5858875002876  53.572101524433 77.4061738557904  53.572101524433 77.4061738557904  C 53.572101524433 77.4061738557904  50.5797206356849 74.8521602946564  50.5797206356849 74.8521602946564  C 50.5797206356849 74.8521602946564  42.9176799522829 74.8291741726063  42.9176799522829 74.8291741726063  C 42.9176799522829 74.8291741726063  39.7739832600882 71.3796938567816  39.7739832600882 71.3796938567816  C 39.7739832600882 71.3796938567816  33.110727879971 77.0997862289535  33.110727879971 77.0997862289535  C 33.110727879971 77.0997862289535  30.8597159276951 76.0930188832862  30.8597159276951 76.0930188832862  C 30.8597159276951 76.0930188832862  33.4290735703021 71.6526633061769  33.4290735703021 71.6526633061769  C 33.4290735703021 71.6526633061769  33.1333650001682 70.2207557031277  33.1333650001682 70.2207557031277  C 33.1333650001682 70.2207557031277  30.8810780411224 69.6389906141096  30.8810780411224 69.6389906141096  C 30.8810780411224 69.6389906141096  23.6558526770939 73.3463682993008  23.6558526770939 73.3463682993008  C 23.6558526770939 73.3463682993008  16.931821974276 60.9910196956799  16.931821974276 60.9910196956799  C 16.931821974276 60.9910196956799  19.0434491864559 57.1252991697302  19.0434491864559 57.1252991697302  C 19.0434491864559 57.1252991697302  18.2963182193888 55.8320393028637  18.2963182193888 55.8320393028637  C 18.2963182193888 55.8320393028637  14.6917430800519 54.6732091497832  14.6917430800519 54.6732091497832  C 14.6917430800519 54.6732091497832  8.69604024446164 51.2121727725989  8.69604024446164 51.2121727725989  C 8.69604024446164 51.2121727725989  11.1102490632694 46.487347685032  11.1102490632694 46.487347685032  C 11.1102490632694 46.487347685032  14.7154312058295 44.7771386042758  14.7154312058295 44.7771386042758  C 14.7154312058295 44.7771386042758  15.4820512763786 40.9073830569012  15.4820512763786 40.9073830569012  C 15.4820512763786 40.9073830569012  14.1501572043745 33.532281897072  14.1501572043745 33.532281897072  C 14.1501572043745 33.532281897072  13.4028842365536 32.9530318214079  13.4028842365536 32.9530318214079  C 13.4028842365536 32.9530318214079  9.78553002936303 36.3872290560835  9.78553002936303 36.3872290560835  C 9.78553002936303 36.3872290560835  4.38798136981268 32.2109768812932  4.38798136981268 32.2109768812932  C 4.38798136981268 32.2109768812932  0.345584905760688 27.3237799315748  0.345584905760688 27.3237799315748  C 0.345584905760688 27.3237799315748  4.41077549084343 24.6129365377161  4.41077549084343 24.6129365377161  C 4.41077549084343 24.6129365377161  5.4764151491072 19.7380636534353  5.4764151491072 19.7380636534353  C 5.4764151491072 19.7380636534353  8.03359472705188 18.0237105506755  8.03359472705188 18.0237105506755  C 8.03359472705188 18.0237105506755  7.60395444577603 11.5683292743147  7.60395444577603 11.5683292743147  C 7.60395444577603 11.5683292743147  9.40826302617552 10.1407216940975  9.40826302617552 10.1407216940975  C 9.40826302617552 10.1407216940975  12.7078245459712 12.3026511733691  12.7078245459712 12.3026511733691  C 12.7078245459712 12.3026511733691  14.7996636530816 15.0329656706142  14.7996636530816 15.0329656706142  C 14.7996636530816 15.0329656706142  19.1658588364188 12.3220252762404  19.1658588364188 12.3220252762404  C 19.1658588364188 12.3220252762404  20.671038828525 10.6025161461034  20.671038828525 10.6025161461034  C 20.671038828525 10.6025161461034  19.9294938911182 7.44724639245874  19.9294938911182 7.44724639245874  C 19.9294938911182 7.44724639245874  14.8256417910187 4.70689584192479  14.8256417910187 4.70689584192479  Z " stroke-width="0.97600957434184" stroke="#199eae" fill="none" transform="matrix(1 0 0 1 1263 418 )" mask="url(#clip1476)" />
  </g>
</svg>