<?xml version="1.0" encoding="utf-8"?>
<svg version="1.1" xmlns:xlink="http://www.w3.org/1999/xlink" width="23px" height="54px" xmlns="http://www.w3.org/2000/svg">
  <defs>
    <mask fill="white" id="clip1469">
      <path d="M 21.387421057103 2.9333973808711  C 21.387421057103 2.9333973808711  22.0992778368736 14.984705370117  22.0992778368736 14.984705370117  C 22.0992778368736 14.984705370117  17.9725159248633 38.5526625097125  17.9725159248633 38.5526625097125  C 17.9725159248633 38.5526625097125  15.8445656260122 45.8593833064601  15.8445656260122 45.8593833064601  C 15.8445656260122 45.8593833064601  15.8260615277603 52.0274160570765  15.8260615277603 52.0274160570765  C 15.8260615277603 52.0274160570765  14.0208949428051 53.7410251558858  14.0208949428051 53.7410251558858  C 14.0208949428051 53.7410251558858  9.19136429927948 47.5614483439736  9.19136429927948 47.5614483439736  C 9.19136429927948 47.5614483439736  4.54468062662284 44.1004589670389  4.54468062662284 44.1004589670389  C 4.54468062662284 44.1004589670389  0.519628254663303 33.7652360897493  0.519628254663303 33.7652360897493  C 0.519628254663303 33.7652360897493  1.00005780561662 23.9575370134709  1.00005780561662 23.9575370134709  C 1.00005780561662 23.9575370134709  7.81287197985114 7.0517332481412  7.81287197985114 7.0517332481412  C 7.81287197985114 7.0517332481412  16.2842759607573 0.624055118876811  16.2842759607573 0.624055118876811  C 16.2842759607573 0.624055118876811  21.387421057103 2.9333973808711  21.387421057103 2.9333973808711  Z " fill-rule="evenodd" />
    </mask>
  </defs>
  <g transform="matrix(1 0 0 1 -1358 -547 )">
    <path d="M 21.387421057103 2.9333973808711  C 21.387421057103 2.9333973808711  22.0992778368736 14.984705370117  22.0992778368736 14.984705370117  C 22.0992778368736 14.984705370117  17.9725159248633 38.5526625097125  17.9725159248633 38.5526625097125  C 17.9725159248633 38.5526625097125  15.8445656260122 45.8593833064601  15.8445656260122 45.8593833064601  C 15.8445656260122 45.8593833064601  15.8260615277603 52.0274160570765  15.8260615277603 52.0274160570765  C 15.8260615277603 52.0274160570765  14.0208949428051 53.7410251558858  14.0208949428051 53.7410251558858  C 14.0208949428051 53.7410251558858  9.19136429927948 47.5614483439736  9.19136429927948 47.5614483439736  C 9.19136429927948 47.5614483439736  4.54468062662284 44.1004589670389  4.54468062662284 44.1004589670389  C 4.54468062662284 44.1004589670389  0.519628254663303 33.7652360897493  0.519628254663303 33.7652360897493  C 0.519628254663303 33.7652360897493  1.00005780561662 23.9575370134709  1.00005780561662 23.9575370134709  C 1.00005780561662 23.9575370134709  7.81287197985114 7.0517332481412  7.81287197985114 7.0517332481412  C 7.81287197985114 7.0517332481412  16.2842759607573 0.624055118876811  16.2842759607573 0.624055118876811  C 16.2842759607573 0.624055118876811  21.387421057103 2.9333973808711  21.387421057103 2.9333973808711  Z " fill-rule="nonzero" fill="#3088ca" stroke="none" transform="matrix(1 0 0 1 1358 547 )" />
    <path d="M 21.387421057103 2.9333973808711  C 21.387421057103 2.9333973808711  22.0992778368736 14.984705370117  22.0992778368736 14.984705370117  C 22.0992778368736 14.984705370117  17.9725159248633 38.5526625097125  17.9725159248633 38.5526625097125  C 17.9725159248633 38.5526625097125  15.8445656260122 45.8593833064601  15.8445656260122 45.8593833064601  C 15.8445656260122 45.8593833064601  15.8260615277603 52.0274160570765  15.8260615277603 52.0274160570765  C 15.8260615277603 52.0274160570765  14.0208949428051 53.7410251558858  14.0208949428051 53.7410251558858  C 14.0208949428051 53.7410251558858  9.19136429927948 47.5614483439736  9.19136429927948 47.5614483439736  C 9.19136429927948 47.5614483439736  4.54468062662284 44.1004589670389  4.54468062662284 44.1004589670389  C 4.54468062662284 44.1004589670389  0.519628254663303 33.7652360897493  0.519628254663303 33.7652360897493  C 0.519628254663303 33.7652360897493  1.00005780561662 23.9575370134709  1.00005780561662 23.9575370134709  C 1.00005780561662 23.9575370134709  7.81287197985114 7.0517332481412  7.81287197985114 7.0517332481412  C 7.81287197985114 7.0517332481412  16.2842759607573 0.624055118876811  16.2842759607573 0.624055118876811  C 16.2842759607573 0.624055118876811  21.387421057103 2.9333973808711  21.387421057103 2.9333973808711  Z " stroke-width="0.97600957434184" stroke="#199eae" fill="none" transform="matrix(1 0 0 1 1358 547 )" mask="url(#clip1469)" />
  </g>
</svg>