<?xml version="1.0" encoding="utf-8"?>
<svg version="1.1" xmlns:xlink="http://www.w3.org/1999/xlink" width="109px" height="86px" xmlns="http://www.w3.org/2000/svg">
  <defs>
    <mask fill="white" id="clip1470">
      <path d="M 31.6905446843081 21.2167747970343  C 31.6905446843081 21.2167747970343  29.6092036329396 14.3204321792859  29.6092036329396 14.3204321792859  C 29.6092036329396 14.3204321792859  32.47024882433 12.318986552141  32.47024882433 12.318986552141  C 32.47024882433 12.318986552141  32.4827138905162 8.16396449007698  32.4827138905162 8.16396449007698  C 32.4827138905162 8.16396449007698  33.9866008757568 6.87545764844776  33.9866008757568 6.87545764844776  C 33.9866008757568 6.87545764844776  37.5857709863947 7.16925920845608  37.5857709863947 7.16925920845608  C 37.5857709863947 7.16925920845608  43.7396226617133 9.9147597863352  43.7396226617133 9.9147597863352  C 43.7396226617133 9.9147597863352  44.7986462848475 7.91190815172479  44.7986462848475 7.91190815172479  C 44.7986462848475 7.91190815172479  43.3059583590709 5.46739517200984  43.3059583590709 5.46739517200984  C 43.3059583590709 5.46739517200984  43.7581177599173 3.74972705164811  43.7581177599173 3.74972705164811  C 43.7581177599173 3.74972705164811  47.6786065766721 0.60544335633648  47.6786065766721 0.60544335633648  C 47.6786065766721 0.60544335633648  55.0744888468436 2.34665560171123  55.0744888468436 2.34665560171123  C 55.0744888468436 2.34665560171123  58.9904096393433 0.0583704515245813  58.9904096393433 0.0583704515245813  C 58.9904096393433 0.0583704515245813  61.8342437393474 2.79394097667785  61.8342437393474 2.79394097667785  C 61.8342437393474 2.79394097667785  68.7524434731513 1.09367094869538  68.7524434731513 1.09367094869538  C 68.7524434731513 1.09367094869538  70.0951396025113 3.53473391009157  70.0951396025113 3.53473391009157  C 70.0951396025113 3.53473391009157  67.9869534086022 6.25344834574349  67.9869534086022 6.25344834574349  C 67.9869534086022 6.25344834574349  64.3634361686878 11.4086517185048  64.3634361686878 11.4086517185048  C 64.3634361686878 11.4086517185048  64.3595691481549 12.6976585627889  64.3595691481549 12.6976585627889  C 64.3595691481549 12.6976585627889  66.455275275798 14.1389662157499  66.455275275798 14.1389662157499  C 66.455275275798 14.1389662157499  80.8987019665593 8.73221850735496  80.8987019665593 8.73221850735496  C 80.8987019665593 8.73221850735496  85.9995480506977 11.4745600684606  85.9995480506977 11.4745600684606  C 85.9995480506977 11.4745600684606  87.5038670382322 10.0420524622255  87.5038670382322 10.0420524622255  C 87.5038670382322 10.0420524622255  86.0128891215353 7.02753645594584  86.0128891215353 7.02753645594584  C 86.0128891215353 7.02753645594584  86.37289103305 5.02858784205938  86.37289103305 5.02858784205938  C 86.37289103305 5.02858784205938  95.7819409926072 7.05684361155903  95.7819409926072 7.05684361155903  C 95.7819409926072 7.05684361155903  97.5780715295836 8.35525050575495  97.5780715295836 8.35525050575495  C 97.5780715295836 8.35525050575495  100.129952079392 8.07390201186917  100.129952079392 8.07390201186917  C 100.129952079392 8.07390201186917  104.024776759877 12.8176541999339  104.024776759877 12.8176541999339  C 104.024776759877 12.8176541999339  108.351691734647 21.8667642483059  108.351691734647 21.8667642483059  C 108.351691734647 21.8667642483059  105.493655559233 23.8652188595693  105.493655559233 23.8652188595693  C 105.493655559233 23.8652188595693  102.928303937897 28.3035864261228  102.928303937897 28.3035864261228  C 102.928303937897 28.3035864261228  100.671143952977 29.0128251919923  100.671143952977 29.0128251919923  C 100.671143952977 29.0128251919923  98.5586497361935 33.1675472524634  98.5586497361935 33.1675472524634  C 98.5586497361935 33.1675472524634  91.3332883714429 36.586920408427  91.3332883714429 36.586920408427  C 91.3332883714429 36.586920408427  88.495563303876 35.1483867701953  88.495563303876 35.1483867701953  C 88.495563303876 35.1483867701953  86.6869467006021 38.0120019752318  86.6869467006021 38.0120019752318  C 86.6869467006021 38.0120019752318  86.6839466846728 39.0120072849945  86.6839466846728 39.0120072849945  C 86.6839466846728 39.0120072849945  80.5189139499857 38.9935121867904  80.5189139499857 38.9935121867904  C 80.5189139499857 38.9935121867904  76.9055777641298 41.4217070798607  76.9055777641298 41.4217070798607  C 76.9055777641298 41.4217070798607  74.3548662205288 39.9800344249616  74.3548662205288 39.9800344249616  C 74.3548662205288 39.9800344249616  71.1978224574647 41.9795920420817  71.1978224574647 41.9795920420817  C 71.1978224574647 41.9795920420817  63.2188480912291 45.5997072639325  63.2188480912291 45.5997072639325  C 63.2188480912291 45.5997072639325  56.7709118543994 40.2142866687789  56.7709118543994 40.2142866687789  C 56.7709118543994 40.2142866687789  56.3068293902447 44.5729568121603  56.3068293902447 44.5729568121603  C 56.3068293902447 44.5729568121603  58.547195285993 50.4617620801528  58.547195285993 50.4617620801528  C 58.547195285993 50.4617620801528  52.1882795218384 52.7367181595656  52.1882795218384 52.7367181595656  C 52.1882795218384 52.7367181595656  49.0217887086128 56.885278187318  49.0217887086128 56.885278187318  C 49.0217887086128 56.885278187318  42.8554509669965 58.3017997086712  42.8554509669965 58.3017997086712  C 42.8554509669965 58.3017997086712  39.5465573976501 59.5838915162383  39.5465573976501 59.5838915162383  C 39.5465573976501 59.5838915162383  33.0835230806535 59.5645024132873  33.0835230806535 59.5645024132873  C 33.0835230806535 59.5645024132873  28.7120018690364 63.717447464323  28.7120018690364 63.717447464323  C 28.7120018690364 63.717447464323  17.1283273628001 67.5537518340806  17.1283273628001 67.5537518340806  C 17.1283273628001 67.5537518340806  11.4061129793609 71.2646385379038  11.4061129793609 71.2646385379038  C 11.4061129793609 71.2646385379038  8.54391678185897 73.9830909721644  8.54391678185897 73.9830909721644  C 8.54391678185897 73.9830909721644  13.9279973698975 82.3153622143126  13.9279973698975 82.3153622143126  C 13.9279973698975 82.3153622143126  10.3119391695884 85.3175571551709  10.3119391695884 85.3175571551709  C 10.3119391695884 85.3175571551709  5.95377702890454 85.0174785618332  5.95377702890454 85.0174785618332  C 5.95377702890454 85.0174785618332  0.870423037644343 76.1111012713343  0.870423037644343 76.1111012713343  C 0.870423037644343 76.1111012713343  2.08935950987342 69.8046677858468  2.08935950987342 69.8046677858468  C 2.08935950987342 69.8046677858468  2.09838955782055 66.7946518034611  2.09838955782055 66.7946518034611  C 2.09838955782055 66.7946518034611  5.72220879933872 61.2054431262468  5.72220879933872 61.2054431262468  C 5.72220879933872 61.2054431262468  10.3852335587622 60.2194178907146  10.3852335587622 60.2194178907146  C 10.3852335587622 60.2194178907146  9.944267217348 57.2060518905411  9.944267217348 57.2060518905411  C 9.944267217348 57.2060518905411  14.7607457915706 55.0694705458614  14.7607457915706 55.0694705458614  C 14.7607457915706 55.0694705458614  15.376244059703 49.9062431304946  15.376244059703 49.9062431304946  C 15.376244059703 49.9062431304946  23.8087928342982 43.7634525139072  23.8087928342982 43.7634525139072  C 23.8087928342982 43.7634525139072  23.3882056010917 34.9570647543262  23.3882056010917 34.9570647543262  C 23.3882056010917 34.9570647543262  29.8728980330869 27.0904059844565  29.8728980330869 27.0904059844565  C 29.8728980330869 27.0904059844565  29.5819294881211 24.0784899919822  29.5819294881211 24.0784899919822  C 29.5819294881211 24.0784899919822  31.6905446843081 21.2167747970343  31.6905446843081 21.2167747970343  Z " fill-rule="evenodd" />
    </mask>
  </defs>
  <g transform="matrix(1 0 0 1 -1206 -561 )">
    <path d="M 31.6905446843081 21.2167747970343  C 31.6905446843081 21.2167747970343  29.6092036329396 14.3204321792859  29.6092036329396 14.3204321792859  C 29.6092036329396 14.3204321792859  32.47024882433 12.318986552141  32.47024882433 12.318986552141  C 32.47024882433 12.318986552141  32.4827138905162 8.16396449007698  32.4827138905162 8.16396449007698  C 32.4827138905162 8.16396449007698  33.9866008757568 6.87545764844776  33.9866008757568 6.87545764844776  C 33.9866008757568 6.87545764844776  37.5857709863947 7.16925920845608  37.5857709863947 7.16925920845608  C 37.5857709863947 7.16925920845608  43.7396226617133 9.9147597863352  43.7396226617133 9.9147597863352  C 43.7396226617133 9.9147597863352  44.7986462848475 7.91190815172479  44.7986462848475 7.91190815172479  C 44.7986462848475 7.91190815172479  43.3059583590709 5.46739517200984  43.3059583590709 5.46739517200984  C 43.3059583590709 5.46739517200984  43.7581177599173 3.74972705164811  43.7581177599173 3.74972705164811  C 43.7581177599173 3.74972705164811  47.6786065766721 0.60544335633648  47.6786065766721 0.60544335633648  C 47.6786065766721 0.60544335633648  55.0744888468436 2.34665560171123  55.0744888468436 2.34665560171123  C 55.0744888468436 2.34665560171123  58.9904096393433 0.0583704515245813  58.9904096393433 0.0583704515245813  C 58.9904096393433 0.0583704515245813  61.8342437393474 2.79394097667785  61.8342437393474 2.79394097667785  C 61.8342437393474 2.79394097667785  68.7524434731513 1.09367094869538  68.7524434731513 1.09367094869538  C 68.7524434731513 1.09367094869538  70.0951396025113 3.53473391009157  70.0951396025113 3.53473391009157  C 70.0951396025113 3.53473391009157  67.9869534086022 6.25344834574349  67.9869534086022 6.25344834574349  C 67.9869534086022 6.25344834574349  64.3634361686878 11.4086517185048  64.3634361686878 11.4086517185048  C 64.3634361686878 11.4086517185048  64.3595691481549 12.6976585627889  64.3595691481549 12.6976585627889  C 64.3595691481549 12.6976585627889  66.455275275798 14.1389662157499  66.455275275798 14.1389662157499  C 66.455275275798 14.1389662157499  80.8987019665593 8.73221850735496  80.8987019665593 8.73221850735496  C 80.8987019665593 8.73221850735496  85.9995480506977 11.4745600684606  85.9995480506977 11.4745600684606  C 85.9995480506977 11.4745600684606  87.5038670382322 10.0420524622255  87.5038670382322 10.0420524622255  C 87.5038670382322 10.0420524622255  86.0128891215353 7.02753645594584  86.0128891215353 7.02753645594584  C 86.0128891215353 7.02753645594584  86.37289103305 5.02858784205938  86.37289103305 5.02858784205938  C 86.37289103305 5.02858784205938  95.7819409926072 7.05684361155903  95.7819409926072 7.05684361155903  C 95.7819409926072 7.05684361155903  97.5780715295836 8.35525050575495  97.5780715295836 8.35525050575495  C 97.5780715295836 8.35525050575495  100.129952079392 8.07390201186917  100.129952079392 8.07390201186917  C 100.129952079392 8.07390201186917  104.024776759877 12.8176541999339  104.024776759877 12.8176541999339  C 104.024776759877 12.8176541999339  108.351691734647 21.8667642483059  108.351691734647 21.8667642483059  C 108.351691734647 21.8667642483059  105.493655559233 23.8652188595693  105.493655559233 23.8652188595693  C 105.493655559233 23.8652188595693  102.928303937897 28.3035864261228  102.928303937897 28.3035864261228  C 102.928303937897 28.3035864261228  100.671143952977 29.0128251919923  100.671143952977 29.0128251919923  C 100.671143952977 29.0128251919923  98.5586497361935 33.1675472524634  98.5586497361935 33.1675472524634  C 98.5586497361935 33.1675472524634  91.3332883714429 36.586920408427  91.3332883714429 36.586920408427  C 91.3332883714429 36.586920408427  88.495563303876 35.1483867701953  88.495563303876 35.1483867701953  C 88.495563303876 35.1483867701953  86.6869467006021 38.0120019752318  86.6869467006021 38.0120019752318  C 86.6869467006021 38.0120019752318  86.6839466846728 39.0120072849945  86.6839466846728 39.0120072849945  C 86.6839466846728 39.0120072849945  80.5189139499857 38.9935121867904  80.5189139499857 38.9935121867904  C 80.5189139499857 38.9935121867904  76.9055777641298 41.4217070798607  76.9055777641298 41.4217070798607  C 76.9055777641298 41.4217070798607  74.3548662205288 39.9800344249616  74.3548662205288 39.9800344249616  C 74.3548662205288 39.9800344249616  71.1978224574647 41.9795920420817  71.1978224574647 41.9795920420817  C 71.1978224574647 41.9795920420817  63.2188480912291 45.5997072639325  63.2188480912291 45.5997072639325  C 63.2188480912291 45.5997072639325  56.7709118543994 40.2142866687789  56.7709118543994 40.2142866687789  C 56.7709118543994 40.2142866687789  56.3068293902447 44.5729568121603  56.3068293902447 44.5729568121603  C 56.3068293902447 44.5729568121603  58.547195285993 50.4617620801528  58.547195285993 50.4617620801528  C 58.547195285993 50.4617620801528  52.1882795218384 52.7367181595656  52.1882795218384 52.7367181595656  C 52.1882795218384 52.7367181595656  49.0217887086128 56.885278187318  49.0217887086128 56.885278187318  C 49.0217887086128 56.885278187318  42.8554509669965 58.3017997086712  42.8554509669965 58.3017997086712  C 42.8554509669965 58.3017997086712  39.5465573976501 59.5838915162383  39.5465573976501 59.5838915162383  C 39.5465573976501 59.5838915162383  33.0835230806535 59.5645024132873  33.0835230806535 59.5645024132873  C 33.0835230806535 59.5645024132873  28.7120018690364 63.717447464323  28.7120018690364 63.717447464323  C 28.7120018690364 63.717447464323  17.1283273628001 67.5537518340806  17.1283273628001 67.5537518340806  C 17.1283273628001 67.5537518340806  11.4061129793609 71.2646385379038  11.4061129793609 71.2646385379038  C 11.4061129793609 71.2646385379038  8.54391678185897 73.9830909721644  8.54391678185897 73.9830909721644  C 8.54391678185897 73.9830909721644  13.9279973698975 82.3153622143126  13.9279973698975 82.3153622143126  C 13.9279973698975 82.3153622143126  10.3119391695884 85.3175571551709  10.3119391695884 85.3175571551709  C 10.3119391695884 85.3175571551709  5.95377702890454 85.0174785618332  5.95377702890454 85.0174785618332  C 5.95377702890454 85.0174785618332  0.870423037644343 76.1111012713343  0.870423037644343 76.1111012713343  C 0.870423037644343 76.1111012713343  2.08935950987342 69.8046677858468  2.08935950987342 69.8046677858468  C 2.08935950987342 69.8046677858468  2.09838955782055 66.7946518034611  2.09838955782055 66.7946518034611  C 2.09838955782055 66.7946518034611  5.72220879933872 61.2054431262468  5.72220879933872 61.2054431262468  C 5.72220879933872 61.2054431262468  10.3852335587622 60.2194178907146  10.3852335587622 60.2194178907146  C 10.3852335587622 60.2194178907146  9.944267217348 57.2060518905411  9.944267217348 57.2060518905411  C 9.944267217348 57.2060518905411  14.7607457915706 55.0694705458614  14.7607457915706 55.0694705458614  C 14.7607457915706 55.0694705458614  15.376244059703 49.9062431304946  15.376244059703 49.9062431304946  C 15.376244059703 49.9062431304946  23.8087928342982 43.7634525139072  23.8087928342982 43.7634525139072  C 23.8087928342982 43.7634525139072  23.3882056010917 34.9570647543262  23.3882056010917 34.9570647543262  C 23.3882056010917 34.9570647543262  29.8728980330869 27.0904059844565  29.8728980330869 27.0904059844565  C 29.8728980330869 27.0904059844565  29.5819294881211 24.0784899919822  29.5819294881211 24.0784899919822  C 29.5819294881211 24.0784899919822  31.6905446843081 21.2167747970343  31.6905446843081 21.2167747970343  Z " fill-rule="nonzero" fill="#3088ca" stroke="none" transform="matrix(1 0 0 1 1206 561 )" />
    <path d="M 31.6905446843081 21.2167747970343  C 31.6905446843081 21.2167747970343  29.6092036329396 14.3204321792859  29.6092036329396 14.3204321792859  C 29.6092036329396 14.3204321792859  32.47024882433 12.318986552141  32.47024882433 12.318986552141  C 32.47024882433 12.318986552141  32.4827138905162 8.16396449007698  32.4827138905162 8.16396449007698  C 32.4827138905162 8.16396449007698  33.9866008757568 6.87545764844776  33.9866008757568 6.87545764844776  C 33.9866008757568 6.87545764844776  37.5857709863947 7.16925920845608  37.5857709863947 7.16925920845608  C 37.5857709863947 7.16925920845608  43.7396226617133 9.9147597863352  43.7396226617133 9.9147597863352  C 43.7396226617133 9.9147597863352  44.7986462848475 7.91190815172479  44.7986462848475 7.91190815172479  C 44.7986462848475 7.91190815172479  43.3059583590709 5.46739517200984  43.3059583590709 5.46739517200984  C 43.3059583590709 5.46739517200984  43.7581177599173 3.74972705164811  43.7581177599173 3.74972705164811  C 43.7581177599173 3.74972705164811  47.6786065766721 0.60544335633648  47.6786065766721 0.60544335633648  C 47.6786065766721 0.60544335633648  55.0744888468436 2.34665560171123  55.0744888468436 2.34665560171123  C 55.0744888468436 2.34665560171123  58.9904096393433 0.0583704515245813  58.9904096393433 0.0583704515245813  C 58.9904096393433 0.0583704515245813  61.8342437393474 2.79394097667785  61.8342437393474 2.79394097667785  C 61.8342437393474 2.79394097667785  68.7524434731513 1.09367094869538  68.7524434731513 1.09367094869538  C 68.7524434731513 1.09367094869538  70.0951396025113 3.53473391009157  70.0951396025113 3.53473391009157  C 70.0951396025113 3.53473391009157  67.9869534086022 6.25344834574349  67.9869534086022 6.25344834574349  C 67.9869534086022 6.25344834574349  64.3634361686878 11.4086517185048  64.3634361686878 11.4086517185048  C 64.3634361686878 11.4086517185048  64.3595691481549 12.6976585627889  64.3595691481549 12.6976585627889  C 64.3595691481549 12.6976585627889  66.455275275798 14.1389662157499  66.455275275798 14.1389662157499  C 66.455275275798 14.1389662157499  80.8987019665593 8.73221850735496  80.8987019665593 8.73221850735496  C 80.8987019665593 8.73221850735496  85.9995480506977 11.4745600684606  85.9995480506977 11.4745600684606  C 85.9995480506977 11.4745600684606  87.5038670382322 10.0420524622255  87.5038670382322 10.0420524622255  C 87.5038670382322 10.0420524622255  86.0128891215353 7.02753645594584  86.0128891215353 7.02753645594584  C 86.0128891215353 7.02753645594584  86.37289103305 5.02858784205938  86.37289103305 5.02858784205938  C 86.37289103305 5.02858784205938  95.7819409926072 7.05684361155903  95.7819409926072 7.05684361155903  C 95.7819409926072 7.05684361155903  97.5780715295836 8.35525050575495  97.5780715295836 8.35525050575495  C 97.5780715295836 8.35525050575495  100.129952079392 8.07390201186917  100.129952079392 8.07390201186917  C 100.129952079392 8.07390201186917  104.024776759877 12.8176541999339  104.024776759877 12.8176541999339  C 104.024776759877 12.8176541999339  108.351691734647 21.8667642483059  108.351691734647 21.8667642483059  C 108.351691734647 21.8667642483059  105.493655559233 23.8652188595693  105.493655559233 23.8652188595693  C 105.493655559233 23.8652188595693  102.928303937897 28.3035864261228  102.928303937897 28.3035864261228  C 102.928303937897 28.3035864261228  100.671143952977 29.0128251919923  100.671143952977 29.0128251919923  C 100.671143952977 29.0128251919923  98.5586497361935 33.1675472524634  98.5586497361935 33.1675472524634  C 98.5586497361935 33.1675472524634  91.3332883714429 36.586920408427  91.3332883714429 36.586920408427  C 91.3332883714429 36.586920408427  88.495563303876 35.1483867701953  88.495563303876 35.1483867701953  C 88.495563303876 35.1483867701953  86.6869467006021 38.0120019752318  86.6869467006021 38.0120019752318  C 86.6869467006021 38.0120019752318  86.6839466846728 39.0120072849945  86.6839466846728 39.0120072849945  C 86.6839466846728 39.0120072849945  80.5189139499857 38.9935121867904  80.5189139499857 38.9935121867904  C 80.5189139499857 38.9935121867904  76.9055777641298 41.4217070798607  76.9055777641298 41.4217070798607  C 76.9055777641298 41.4217070798607  74.3548662205288 39.9800344249616  74.3548662205288 39.9800344249616  C 74.3548662205288 39.9800344249616  71.1978224574647 41.9795920420817  71.1978224574647 41.9795920420817  C 71.1978224574647 41.9795920420817  63.2188480912291 45.5997072639325  63.2188480912291 45.5997072639325  C 63.2188480912291 45.5997072639325  56.7709118543994 40.2142866687789  56.7709118543994 40.2142866687789  C 56.7709118543994 40.2142866687789  56.3068293902447 44.5729568121603  56.3068293902447 44.5729568121603  C 56.3068293902447 44.5729568121603  58.547195285993 50.4617620801528  58.547195285993 50.4617620801528  C 58.547195285993 50.4617620801528  52.1882795218384 52.7367181595656  52.1882795218384 52.7367181595656  C 52.1882795218384 52.7367181595656  49.0217887086128 56.885278187318  49.0217887086128 56.885278187318  C 49.0217887086128 56.885278187318  42.8554509669965 58.3017997086712  42.8554509669965 58.3017997086712  C 42.8554509669965 58.3017997086712  39.5465573976501 59.5838915162383  39.5465573976501 59.5838915162383  C 39.5465573976501 59.5838915162383  33.0835230806535 59.5645024132873  33.0835230806535 59.5645024132873  C 33.0835230806535 59.5645024132873  28.7120018690364 63.717447464323  28.7120018690364 63.717447464323  C 28.7120018690364 63.717447464323  17.1283273628001 67.5537518340806  17.1283273628001 67.5537518340806  C 17.1283273628001 67.5537518340806  11.4061129793609 71.2646385379038  11.4061129793609 71.2646385379038  C 11.4061129793609 71.2646385379038  8.54391678185897 73.9830909721644  8.54391678185897 73.9830909721644  C 8.54391678185897 73.9830909721644  13.9279973698975 82.3153622143126  13.9279973698975 82.3153622143126  C 13.9279973698975 82.3153622143126  10.3119391695884 85.3175571551709  10.3119391695884 85.3175571551709  C 10.3119391695884 85.3175571551709  5.95377702890454 85.0174785618332  5.95377702890454 85.0174785618332  C 5.95377702890454 85.0174785618332  0.870423037644343 76.1111012713343  0.870423037644343 76.1111012713343  C 0.870423037644343 76.1111012713343  2.08935950987342 69.8046677858468  2.08935950987342 69.8046677858468  C 2.08935950987342 69.8046677858468  2.09838955782055 66.7946518034611  2.09838955782055 66.7946518034611  C 2.09838955782055 66.7946518034611  5.72220879933872 61.2054431262468  5.72220879933872 61.2054431262468  C 5.72220879933872 61.2054431262468  10.3852335587622 60.2194178907146  10.3852335587622 60.2194178907146  C 10.3852335587622 60.2194178907146  9.944267217348 57.2060518905411  9.944267217348 57.2060518905411  C 9.944267217348 57.2060518905411  14.7607457915706 55.0694705458614  14.7607457915706 55.0694705458614  C 14.7607457915706 55.0694705458614  15.376244059703 49.9062431304946  15.376244059703 49.9062431304946  C 15.376244059703 49.9062431304946  23.8087928342982 43.7634525139072  23.8087928342982 43.7634525139072  C 23.8087928342982 43.7634525139072  23.3882056010917 34.9570647543262  23.3882056010917 34.9570647543262  C 23.3882056010917 34.9570647543262  29.8728980330869 27.0904059844565  29.8728980330869 27.0904059844565  C 29.8728980330869 27.0904059844565  29.5819294881211 24.0784899919822  29.5819294881211 24.0784899919822  C 29.5819294881211 24.0784899919822  31.6905446843081 21.2167747970343  31.6905446843081 21.2167747970343  Z " stroke-width="0.97600957434184" stroke="#199eae" fill="none" transform="matrix(1 0 0 1 1206 561 )" mask="url(#clip1470)" />
  </g>
</svg>