<?xml version="1.0" encoding="utf-8"?>
<svg version="1.1" xmlns:xlink="http://www.w3.org/1999/xlink" width="112px" height="78px" xmlns="http://www.w3.org/2000/svg">
  <defs>
    <mask fill="white" id="clip1471">
      <path d="M 0.0706113218300288 31.6669261872188  C 0.0706113218300288 31.6669261872188  0.394634042304631 29.6608695355905  0.394634042304631 29.6608695355905  C 0.394634042304631 29.6608695355905  5.05279177588551 29.9638481443265  5.05279177588551 29.9638481443265  C 5.05279177588551 29.9638481443265  10.1751599743007 25.5321516131945  10.1751599743007 25.5321516131945  C 10.1751599743007 25.5321516131945  12.2773041361281 26.8274764910257  12.2773041361281 26.8274764910257  C 12.2773041361281 26.8274764910257  22.029736918957 30.7297892112701  22.029736918957 30.7297892112701  C 22.029736918957 30.7297892112701  23.8327464924593 29.7351839301802  23.8327464924593 29.7351839301802  C 23.8327464924593 29.7351839301802  24.142213135645 26.5810671826577  24.142213135645 26.5810671826577  C 24.142213135645 26.5810671826577  25.9523857471809 24.8654730733084  25.9523857471809 24.8654730733084  C 25.9523857471809 24.8654730733084  39.8032802917538 16.2999025924032  39.8032802917538 16.2999025924032  C 39.8032802917538 16.2999025924032  42.1951059917132 19.0361171209759  42.1951059917132 19.0361171209759  C 42.1951059917132 19.0361171209759  50.6018426292528 21.4973721895868  50.6018426292528 21.4973721895868  C 50.6018426292528 21.4973721895868  55.2795074664112 15.6313210424126  55.2795074664112 15.6313210424126  C 55.2795074664112 15.6313210424126  57.8632071851709 17.0770927190764  57.8632071851709 17.0770927190764  C 57.8632071851709 17.0770927190764  61.1632247073878 17.0869927716431  61.1632247073878 17.0869927716431  C 61.1632247073878 17.0869927716431  61.1684027348818 15.3609836069926  61.1684027348818 15.3609836069926  C 61.1684027348818 15.3609836069926  65.5327309083058 13.9390560569348  65.5327309083058 13.9390560569348  C 65.5327309083058 13.9390560569348  65.5365949288227 12.6510492179604  65.5365949288227 12.6510492179604  C 65.5365949288227 12.6510492179604  67.3417675138099 10.9354401085315  67.3417675138099 10.9354401085315  C 67.3417675138099 10.9354401085315  68.3929090950926 11.2265976545008  68.3929090950926 11.2265976545008  C 68.3929090950926 11.2265976545008  72.7644093065982 7.08065264063345  72.7644093065982 7.08065264063345  C 72.7644093065982 7.08065264063345  76.3674284376732 8.09147600783717  76.3674284376732 8.09147600783717  C 76.3674284376732 8.09147600783717  79.9816496282282 3.36825092876597  79.9816496282282 3.36825092876597  C 79.9816496282282 3.36825092876597  81.7794631741409 7.1056977736165  81.7794631741409 7.1056977736165  C 81.7794631741409 7.1056977736165  82.8333297698927 6.82185526648823  82.8333297698927 6.82185526648823  C 82.8333297698927 6.82185526648823  88.5578551656027 1.6739549325041  88.5578551656027 1.6739549325041  C 88.5578551656027 1.6739549325041  90.0569931256273 1.96845649622918  90.0569931256273 1.96845649622918  C 90.0569931256273 1.96845649622918  92.6128856967384 0.683105671357566  92.6128856967384 0.683105671357566  C 92.6128856967384 0.683105671357566  97.2710314302555 1.99009861114308  97.2710314302555 1.99009861114308  C 97.2710314302555 1.99009861114308  97.2564063526002 6.86512449623632  97.2564063526002 6.86512449623632  C 97.2564063526002 6.86512449623632  100.861274493493 7.59294936079311  100.861274493493 7.59294936079311  C 100.861274493493 7.59294936079311  99.7920758163319 12.3208094644751  99.7920758163319 12.3208094644751  C 99.7920758163319 12.3208094644751  96.4705571799498 17.4779188473568  96.4705571799498 17.4779188473568  C 96.4705571799498 17.4779188473568  94.9572231445479 21.9154424094287  94.9572231445479 21.9154424094287  C 94.9572231445479 21.9154424094287  96.4572311091919 21.9199424333227  96.4572311091919 21.9199424333227  C 96.4572311091919 21.9199424333227  100.375574914557 18.4906482246809  100.375574914557 18.4906482246809  C 100.375574914557 18.4906482246809  103.659946353698 25.3825998191141  103.659946353698 25.3825998191141  C 103.659946353698 25.3825998191141  106.22111995285 23.6702587270375  106.22111995285 23.6702587270375  C 106.22111995285 23.6702587270375  109.076135112222 23.6788237725156  109.076135112222 23.6788237725156  C 109.076135112222 23.6788237725156  111.155494153067 30.5691603583736  111.155494153067 30.5691603583736  C 111.155494153067 30.5691603583736  109.046872956848 33.4328755639411  109.046872956848 33.4328755639411  C 109.046872956848 33.4328755639411  109.337838501798 36.4457915617251  109.337838501798 36.4457915617251  C 109.337838501798 36.4457915617251  102.851682062029 44.800452922759  102.851682062029 44.800452922759  C 102.851682062029 44.800452922759  103.273733303009 53.1188380911758  103.273733303009 53.1188380911758  C 103.273733303009 53.1188380911758  94.8401845231038 59.2616257077472  94.8401845231038 59.2616257077472  C 94.8401845231038 59.2616257077472  94.2246952550192 64.4218531071847  94.2246952550192 64.4218531071847  C 94.2246952550192 64.4218531071847  89.4082106807648 66.560434462484  89.4082106807648 66.560434462484  C 89.4082106807648 66.560434462484  89.8491800221949 69.5728004573477  89.8491800221949 69.5728004573477  C 89.8491800221949 69.5728004573477  85.1861552627714 70.5588256928799  85.1861552627714 70.5588256928799  C 85.1861552627714 70.5588256928799  81.5693360584216 76.1480553702056  81.5693360584216 76.1480553702056  C 81.5693360584216 76.1480553702056  72.0974157650395 77.4096580689811  72.0974157650395 77.4096580689811  C 72.0974157650395 77.4096580689811  67.1457094727937 73.9547537243562  67.1457094727937 73.9547537243562  C 67.1457094727937 73.9547537243562  62.046709398457 71.9304279757239  62.046709398457 71.9304279757239  C 62.046709398457 71.9304279757239  56.920051177263 76.7921177900062  56.920051177263 76.7921177900062  C 56.920051177263 76.7921177900062  51.1791536946213 77.0638992330935  51.1791536946213 77.0638992330935  C 51.1791536946213 77.0638992330935  46.059280509454 77.3305436489044  46.059280509454 77.3305436489044  C 46.059280509454 77.3305436489044  34.5087111789974 71.1318037352412  34.5087111789974 71.1318037352412  C 34.5087111789974 71.1318037352412  32.4250591153581 65.6724747476537  32.4250591153581 65.6724747476537  C 32.4250591153581 65.6724747476537  35.2938743480053 60.0810010584129  35.2938743480053 60.0810010584129  C 35.2938743480053 60.0810010584129  32.0007418623461 57.7760888199408  32.0007418623461 57.7760888199408  C 32.0007418623461 57.7760888199408  27.6397187064709 57.7630057504732  27.6397187064709 57.7630057504732  C 27.6397187064709 57.7630057504732  26.5921511441653 56.6138466487434  26.5921511441653 56.6138466487434  C 26.5921511441653 56.6138466487434  21.9276883771064 57.7458696594851  21.9276883771064 57.7458696594851  C 21.9276883771064 57.7458696594851  17.2791256944727 54.5778788382949  17.2791256944727 54.5778788382949  C 17.2791256944727 54.5778788382949  19.1007603668691 49.7082739819859  19.1007603668691 49.7082739819859  C 19.1007603668691 49.7082739819859  22.7016434866025 49.4310725101197  22.7016434866025 49.4310725101197  C 22.7016434866025 49.4310725101197  24.0556506760213 48.4351202218775  24.0556506760213 48.4351202218775  C 24.0556506760213 48.4351202218775  25.26900111859 43.9906966231681  25.26900111859 43.9906966231681  C 25.26900111859 43.9906966231681  23.7763071927815 41.5481836540727  23.7763071927815 41.5481836540727  C 23.7763071927815 41.5481836540727  11.4596947948395 39.3602030364765  11.4596947948395 39.3602030364765  C 11.4596947948395 39.3602030364765  9.37147670695589 35.4228821303477  9.37147670695589 35.4228821303477  C 9.37147670695589 35.4228821303477  2.4594400058761 35.4021460202445  2.4594400058761 35.4021460202445  C 2.4594400058761 35.4021460202445  0.0706113218300288 31.6669261872188  0.0706113218300288 31.6669261872188  Z " fill-rule="evenodd" />
    </mask>
  </defs>
  <g transform="matrix(1 0 0 1 -1127 -551 )">
    <path d="M 0.0706113218300288 31.6669261872188  C 0.0706113218300288 31.6669261872188  0.394634042304631 29.6608695355905  0.394634042304631 29.6608695355905  C 0.394634042304631 29.6608695355905  5.05279177588551 29.9638481443265  5.05279177588551 29.9638481443265  C 5.05279177588551 29.9638481443265  10.1751599743007 25.5321516131945  10.1751599743007 25.5321516131945  C 10.1751599743007 25.5321516131945  12.2773041361281 26.8274764910257  12.2773041361281 26.8274764910257  C 12.2773041361281 26.8274764910257  22.029736918957 30.7297892112701  22.029736918957 30.7297892112701  C 22.029736918957 30.7297892112701  23.8327464924593 29.7351839301802  23.8327464924593 29.7351839301802  C 23.8327464924593 29.7351839301802  24.142213135645 26.5810671826577  24.142213135645 26.5810671826577  C 24.142213135645 26.5810671826577  25.9523857471809 24.8654730733084  25.9523857471809 24.8654730733084  C 25.9523857471809 24.8654730733084  39.8032802917538 16.2999025924032  39.8032802917538 16.2999025924032  C 39.8032802917538 16.2999025924032  42.1951059917132 19.0361171209759  42.1951059917132 19.0361171209759  C 42.1951059917132 19.0361171209759  50.6018426292528 21.4973721895868  50.6018426292528 21.4973721895868  C 50.6018426292528 21.4973721895868  55.2795074664112 15.6313210424126  55.2795074664112 15.6313210424126  C 55.2795074664112 15.6313210424126  57.8632071851709 17.0770927190764  57.8632071851709 17.0770927190764  C 57.8632071851709 17.0770927190764  61.1632247073878 17.0869927716431  61.1632247073878 17.0869927716431  C 61.1632247073878 17.0869927716431  61.1684027348818 15.3609836069926  61.1684027348818 15.3609836069926  C 61.1684027348818 15.3609836069926  65.5327309083058 13.9390560569348  65.5327309083058 13.9390560569348  C 65.5327309083058 13.9390560569348  65.5365949288227 12.6510492179604  65.5365949288227 12.6510492179604  C 65.5365949288227 12.6510492179604  67.3417675138099 10.9354401085315  67.3417675138099 10.9354401085315  C 67.3417675138099 10.9354401085315  68.3929090950926 11.2265976545008  68.3929090950926 11.2265976545008  C 68.3929090950926 11.2265976545008  72.7644093065982 7.08065264063345  72.7644093065982 7.08065264063345  C 72.7644093065982 7.08065264063345  76.3674284376732 8.09147600783717  76.3674284376732 8.09147600783717  C 76.3674284376732 8.09147600783717  79.9816496282282 3.36825092876597  79.9816496282282 3.36825092876597  C 79.9816496282282 3.36825092876597  81.7794631741409 7.1056977736165  81.7794631741409 7.1056977736165  C 81.7794631741409 7.1056977736165  82.8333297698927 6.82185526648823  82.8333297698927 6.82185526648823  C 82.8333297698927 6.82185526648823  88.5578551656027 1.6739549325041  88.5578551656027 1.6739549325041  C 88.5578551656027 1.6739549325041  90.0569931256273 1.96845649622918  90.0569931256273 1.96845649622918  C 90.0569931256273 1.96845649622918  92.6128856967384 0.683105671357566  92.6128856967384 0.683105671357566  C 92.6128856967384 0.683105671357566  97.2710314302555 1.99009861114308  97.2710314302555 1.99009861114308  C 97.2710314302555 1.99009861114308  97.2564063526002 6.86512449623632  97.2564063526002 6.86512449623632  C 97.2564063526002 6.86512449623632  100.861274493493 7.59294936079311  100.861274493493 7.59294936079311  C 100.861274493493 7.59294936079311  99.7920758163319 12.3208094644751  99.7920758163319 12.3208094644751  C 99.7920758163319 12.3208094644751  96.4705571799498 17.4779188473568  96.4705571799498 17.4779188473568  C 96.4705571799498 17.4779188473568  94.9572231445479 21.9154424094287  94.9572231445479 21.9154424094287  C 94.9572231445479 21.9154424094287  96.4572311091919 21.9199424333227  96.4572311091919 21.9199424333227  C 96.4572311091919 21.9199424333227  100.375574914557 18.4906482246809  100.375574914557 18.4906482246809  C 100.375574914557 18.4906482246809  103.659946353698 25.3825998191141  103.659946353698 25.3825998191141  C 103.659946353698 25.3825998191141  106.22111995285 23.6702587270375  106.22111995285 23.6702587270375  C 106.22111995285 23.6702587270375  109.076135112222 23.6788237725156  109.076135112222 23.6788237725156  C 109.076135112222 23.6788237725156  111.155494153067 30.5691603583736  111.155494153067 30.5691603583736  C 111.155494153067 30.5691603583736  109.046872956848 33.4328755639411  109.046872956848 33.4328755639411  C 109.046872956848 33.4328755639411  109.337838501798 36.4457915617251  109.337838501798 36.4457915617251  C 109.337838501798 36.4457915617251  102.851682062029 44.800452922759  102.851682062029 44.800452922759  C 102.851682062029 44.800452922759  103.273733303009 53.1188380911758  103.273733303009 53.1188380911758  C 103.273733303009 53.1188380911758  94.8401845231038 59.2616257077472  94.8401845231038 59.2616257077472  C 94.8401845231038 59.2616257077472  94.2246952550192 64.4218531071847  94.2246952550192 64.4218531071847  C 94.2246952550192 64.4218531071847  89.4082106807648 66.560434462484  89.4082106807648 66.560434462484  C 89.4082106807648 66.560434462484  89.8491800221949 69.5728004573477  89.8491800221949 69.5728004573477  C 89.8491800221949 69.5728004573477  85.1861552627714 70.5588256928799  85.1861552627714 70.5588256928799  C 85.1861552627714 70.5588256928799  81.5693360584216 76.1480553702056  81.5693360584216 76.1480553702056  C 81.5693360584216 76.1480553702056  72.0974157650395 77.4096580689811  72.0974157650395 77.4096580689811  C 72.0974157650395 77.4096580689811  67.1457094727937 73.9547537243562  67.1457094727937 73.9547537243562  C 67.1457094727937 73.9547537243562  62.046709398457 71.9304279757239  62.046709398457 71.9304279757239  C 62.046709398457 71.9304279757239  56.920051177263 76.7921177900062  56.920051177263 76.7921177900062  C 56.920051177263 76.7921177900062  51.1791536946213 77.0638992330935  51.1791536946213 77.0638992330935  C 51.1791536946213 77.0638992330935  46.059280509454 77.3305436489044  46.059280509454 77.3305436489044  C 46.059280509454 77.3305436489044  34.5087111789974 71.1318037352412  34.5087111789974 71.1318037352412  C 34.5087111789974 71.1318037352412  32.4250591153581 65.6724747476537  32.4250591153581 65.6724747476537  C 32.4250591153581 65.6724747476537  35.2938743480053 60.0810010584129  35.2938743480053 60.0810010584129  C 35.2938743480053 60.0810010584129  32.0007418623461 57.7760888199408  32.0007418623461 57.7760888199408  C 32.0007418623461 57.7760888199408  27.6397187064709 57.7630057504732  27.6397187064709 57.7630057504732  C 27.6397187064709 57.7630057504732  26.5921511441653 56.6138466487434  26.5921511441653 56.6138466487434  C 26.5921511441653 56.6138466487434  21.9276883771064 57.7458696594851  21.9276883771064 57.7458696594851  C 21.9276883771064 57.7458696594851  17.2791256944727 54.5778788382949  17.2791256944727 54.5778788382949  C 17.2791256944727 54.5778788382949  19.1007603668691 49.7082739819859  19.1007603668691 49.7082739819859  C 19.1007603668691 49.7082739819859  22.7016434866025 49.4310725101197  22.7016434866025 49.4310725101197  C 22.7016434866025 49.4310725101197  24.0556506760213 48.4351202218775  24.0556506760213 48.4351202218775  C 24.0556506760213 48.4351202218775  25.26900111859 43.9906966231681  25.26900111859 43.9906966231681  C 25.26900111859 43.9906966231681  23.7763071927815 41.5481836540727  23.7763071927815 41.5481836540727  C 23.7763071927815 41.5481836540727  11.4596947948395 39.3602030364765  11.4596947948395 39.3602030364765  C 11.4596947948395 39.3602030364765  9.37147670695589 35.4228821303477  9.37147670695589 35.4228821303477  C 9.37147670695589 35.4228821303477  2.4594400058761 35.4021460202445  2.4594400058761 35.4021460202445  C 2.4594400058761 35.4021460202445  0.0706113218300288 31.6669261872188  0.0706113218300288 31.6669261872188  Z " fill-rule="nonzero" fill="#156fb8" stroke="none" transform="matrix(1 0 0 1 1127 551 )" />
    <path d="M 0.0706113218300288 31.6669261872188  C 0.0706113218300288 31.6669261872188  0.394634042304631 29.6608695355905  0.394634042304631 29.6608695355905  C 0.394634042304631 29.6608695355905  5.05279177588551 29.9638481443265  5.05279177588551 29.9638481443265  C 5.05279177588551 29.9638481443265  10.1751599743007 25.5321516131945  10.1751599743007 25.5321516131945  C 10.1751599743007 25.5321516131945  12.2773041361281 26.8274764910257  12.2773041361281 26.8274764910257  C 12.2773041361281 26.8274764910257  22.029736918957 30.7297892112701  22.029736918957 30.7297892112701  C 22.029736918957 30.7297892112701  23.8327464924593 29.7351839301802  23.8327464924593 29.7351839301802  C 23.8327464924593 29.7351839301802  24.142213135645 26.5810671826577  24.142213135645 26.5810671826577  C 24.142213135645 26.5810671826577  25.9523857471809 24.8654730733084  25.9523857471809 24.8654730733084  C 25.9523857471809 24.8654730733084  39.8032802917538 16.2999025924032  39.8032802917538 16.2999025924032  C 39.8032802917538 16.2999025924032  42.1951059917132 19.0361171209759  42.1951059917132 19.0361171209759  C 42.1951059917132 19.0361171209759  50.6018426292528 21.4973721895868  50.6018426292528 21.4973721895868  C 50.6018426292528 21.4973721895868  55.2795074664112 15.6313210424126  55.2795074664112 15.6313210424126  C 55.2795074664112 15.6313210424126  57.8632071851709 17.0770927190764  57.8632071851709 17.0770927190764  C 57.8632071851709 17.0770927190764  61.1632247073878 17.0869927716431  61.1632247073878 17.0869927716431  C 61.1632247073878 17.0869927716431  61.1684027348818 15.3609836069926  61.1684027348818 15.3609836069926  C 61.1684027348818 15.3609836069926  65.5327309083058 13.9390560569348  65.5327309083058 13.9390560569348  C 65.5327309083058 13.9390560569348  65.5365949288227 12.6510492179604  65.5365949288227 12.6510492179604  C 65.5365949288227 12.6510492179604  67.3417675138099 10.9354401085315  67.3417675138099 10.9354401085315  C 67.3417675138099 10.9354401085315  68.3929090950926 11.2265976545008  68.3929090950926 11.2265976545008  C 68.3929090950926 11.2265976545008  72.7644093065982 7.08065264063345  72.7644093065982 7.08065264063345  C 72.7644093065982 7.08065264063345  76.3674284376732 8.09147600783717  76.3674284376732 8.09147600783717  C 76.3674284376732 8.09147600783717  79.9816496282282 3.36825092876597  79.9816496282282 3.36825092876597  C 79.9816496282282 3.36825092876597  81.7794631741409 7.1056977736165  81.7794631741409 7.1056977736165  C 81.7794631741409 7.1056977736165  82.8333297698927 6.82185526648823  82.8333297698927 6.82185526648823  C 82.8333297698927 6.82185526648823  88.5578551656027 1.6739549325041  88.5578551656027 1.6739549325041  C 88.5578551656027 1.6739549325041  90.0569931256273 1.96845649622918  90.0569931256273 1.96845649622918  C 90.0569931256273 1.96845649622918  92.6128856967384 0.683105671357566  92.6128856967384 0.683105671357566  C 92.6128856967384 0.683105671357566  97.2710314302555 1.99009861114308  97.2710314302555 1.99009861114308  C 97.2710314302555 1.99009861114308  97.2564063526002 6.86512449623632  97.2564063526002 6.86512449623632  C 97.2564063526002 6.86512449623632  100.861274493493 7.59294936079311  100.861274493493 7.59294936079311  C 100.861274493493 7.59294936079311  99.7920758163319 12.3208094644751  99.7920758163319 12.3208094644751  C 99.7920758163319 12.3208094644751  96.4705571799498 17.4779188473568  96.4705571799498 17.4779188473568  C 96.4705571799498 17.4779188473568  94.9572231445479 21.9154424094287  94.9572231445479 21.9154424094287  C 94.9572231445479 21.9154424094287  96.4572311091919 21.9199424333227  96.4572311091919 21.9199424333227  C 96.4572311091919 21.9199424333227  100.375574914557 18.4906482246809  100.375574914557 18.4906482246809  C 100.375574914557 18.4906482246809  103.659946353698 25.3825998191141  103.659946353698 25.3825998191141  C 103.659946353698 25.3825998191141  106.22111995285 23.6702587270375  106.22111995285 23.6702587270375  C 106.22111995285 23.6702587270375  109.076135112222 23.6788237725156  109.076135112222 23.6788237725156  C 109.076135112222 23.6788237725156  111.155494153067 30.5691603583736  111.155494153067 30.5691603583736  C 111.155494153067 30.5691603583736  109.046872956848 33.4328755639411  109.046872956848 33.4328755639411  C 109.046872956848 33.4328755639411  109.337838501798 36.4457915617251  109.337838501798 36.4457915617251  C 109.337838501798 36.4457915617251  102.851682062029 44.800452922759  102.851682062029 44.800452922759  C 102.851682062029 44.800452922759  103.273733303009 53.1188380911758  103.273733303009 53.1188380911758  C 103.273733303009 53.1188380911758  94.8401845231038 59.2616257077472  94.8401845231038 59.2616257077472  C 94.8401845231038 59.2616257077472  94.2246952550192 64.4218531071847  94.2246952550192 64.4218531071847  C 94.2246952550192 64.4218531071847  89.4082106807648 66.560434462484  89.4082106807648 66.560434462484  C 89.4082106807648 66.560434462484  89.8491800221949 69.5728004573477  89.8491800221949 69.5728004573477  C 89.8491800221949 69.5728004573477  85.1861552627714 70.5588256928799  85.1861552627714 70.5588256928799  C 85.1861552627714 70.5588256928799  81.5693360584216 76.1480553702056  81.5693360584216 76.1480553702056  C 81.5693360584216 76.1480553702056  72.0974157650395 77.4096580689811  72.0974157650395 77.4096580689811  C 72.0974157650395 77.4096580689811  67.1457094727937 73.9547537243562  67.1457094727937 73.9547537243562  C 67.1457094727937 73.9547537243562  62.046709398457 71.9304279757239  62.046709398457 71.9304279757239  C 62.046709398457 71.9304279757239  56.920051177263 76.7921177900062  56.920051177263 76.7921177900062  C 56.920051177263 76.7921177900062  51.1791536946213 77.0638992330935  51.1791536946213 77.0638992330935  C 51.1791536946213 77.0638992330935  46.059280509454 77.3305436489044  46.059280509454 77.3305436489044  C 46.059280509454 77.3305436489044  34.5087111789974 71.1318037352412  34.5087111789974 71.1318037352412  C 34.5087111789974 71.1318037352412  32.4250591153581 65.6724747476537  32.4250591153581 65.6724747476537  C 32.4250591153581 65.6724747476537  35.2938743480053 60.0810010584129  35.2938743480053 60.0810010584129  C 35.2938743480053 60.0810010584129  32.0007418623461 57.7760888199408  32.0007418623461 57.7760888199408  C 32.0007418623461 57.7760888199408  27.6397187064709 57.7630057504732  27.6397187064709 57.7630057504732  C 27.6397187064709 57.7630057504732  26.5921511441653 56.6138466487434  26.5921511441653 56.6138466487434  C 26.5921511441653 56.6138466487434  21.9276883771064 57.7458696594851  21.9276883771064 57.7458696594851  C 21.9276883771064 57.7458696594851  17.2791256944727 54.5778788382949  17.2791256944727 54.5778788382949  C 17.2791256944727 54.5778788382949  19.1007603668691 49.7082739819859  19.1007603668691 49.7082739819859  C 19.1007603668691 49.7082739819859  22.7016434866025 49.4310725101197  22.7016434866025 49.4310725101197  C 22.7016434866025 49.4310725101197  24.0556506760213 48.4351202218775  24.0556506760213 48.4351202218775  C 24.0556506760213 48.4351202218775  25.26900111859 43.9906966231681  25.26900111859 43.9906966231681  C 25.26900111859 43.9906966231681  23.7763071927815 41.5481836540727  23.7763071927815 41.5481836540727  C 23.7763071927815 41.5481836540727  11.4596947948395 39.3602030364765  11.4596947948395 39.3602030364765  C 11.4596947948395 39.3602030364765  9.37147670695589 35.4228821303477  9.37147670695589 35.4228821303477  C 9.37147670695589 35.4228821303477  2.4594400058761 35.4021460202445  2.4594400058761 35.4021460202445  C 2.4594400058761 35.4021460202445  0.0706113218300288 31.6669261872188  0.0706113218300288 31.6669261872188  Z " stroke-width="0.97600957434184" stroke="#199eae" fill="none" transform="matrix(1 0 0 1 1127 551 )" mask="url(#clip1471)" />
  </g>
</svg>