<?xml version="1.0" encoding="utf-8"?>
<svg version="1.1" xmlns:xlink="http://www.w3.org/1999/xlink" width="39px" height="64px" xmlns="http://www.w3.org/2000/svg">
  <g transform="matrix(1 0 0 1 -1123 -356 )">
    <path d="M 34.0480694941742 36.3211335015939  L 35.8632331322113 35.608568718064  L 36.1830348302734 29.0094336784089  L 38.4460738464098 26.0071797372376  L 37.4015393002086 22.8470009575273  L 25.8409639166225 18.6502596739452  L 26.6053029750601 14.2074890840129  L 30.2279562103869 9.34028724046331  L 27.9963123609505 1.87748561496798  L 26.9447537774537 0.72531449724525  L 19.4180798128131 5.58080427860691  L 15.7849285217443 16.6140628622808  L 14.5621220289665 24.2105031973622  L 8.53589403129564 28.9244922273925  L 4.92357585084517 30.3466757788096  L 0.578732780881978 31.2736547008216  L 10.2975843854038 42.7029743874747  L 12.3717683987703 51.3183201326734  L 11.3052977360941 55.470180177948  L 18.057007585881 58.932484561865  L 18.0488325424737 61.6574990309684  L 24.2065602383729 63.1109927486342  L 26.0065697959458 63.1163927773069  L 26.0211948736011 58.2413668922137  L 30.6813796179449 57.5353371433832  L 31.8985880809987 51.804906716319  L 28.597890555171 49.3549697078039  L 26.0531940435081 46.9083007166411  L 27.1363197946184 35.8713921135865  L 29.6942093763329 34.5870472940565  L 34.0480694941742 36.3211335015939  Z " fill-rule="nonzero" fill="#2f88ca" stroke="none" transform="matrix(1 0 0 1 1123 356 )" />
  </g>
</svg>