<?xml version="1.0" encoding="utf-8"?>
<svg version="1.1" xmlns:xlink="http://www.w3.org/1999/xlink" width="191px" height="156px" xmlns="http://www.w3.org/2000/svg">
  <g transform="matrix(1 0 0 1 -988 -306 )">
    <path d="M 19.1886817806113 52.7350811685728  L 2.51376524123131 48.9610031292202  L 0.773561001208805 29.0204972504279  L 1.84004366394862 24.8646371839143  L 8.00625140487466 22.1580968129035  L 16.7419527891298 15.299205394011  L 30.1335068947268 10.1783062033958  L 35.5478556434812 7.75451433370446  L 35.5624867211683 2.87748843799173  L 37.9756655345071 0.162689023127569  L 40.2318255141176 0.453461567052585  L 49.242565358754 1.91651433547437  L 48.7783788940471 5.64317512305377  L 50.5667513898302 11.527624367917  L 49.4849186455855 21.1335163726534  L 57.1156911629618 31.9125626065271  L 61.016391874647 34.3642996245998  L 67.1911976612264 30  L 80.1162662899094 30  L 83.4208398363176 30.9884636998073  L 85.2126683504513 33.7208782082029  L 83.6966273006759 36.727373171893  L 76.4688099228845 42.2987697545297  L 77.214647883086 45.0230462197145  L 85.4610486692849 50.9288695780686  L 88.7660662180507 50.9387846307149  L 89.8132047780784 52.2309444917407  L 89.0548807515792 54.6687044355988  L 94.155288833392 58.5570610817402  L 106.018194822273 60.3116743982711  L 111.733524169155 58.8957998803533  L 118.970223594108 52.0304114269633  L 127.682112851927 52.7755573834905  L 131.266636884798 57.9513848657603  L 129.152432658935 62.6761099527962  L 129.743828799091 65.546925196063  L 125.07462900688 68.2579565909199  L 122.967303817542 70.6896695026699  L 123.701096713788 76.4289529767415  L 131.946340493843 82.0537688430204  L 135.578717780802 81.2786547273703  L 145.293569364085 92.7079624139598  L 147.367780377595 101.314308111371  L 146.302300720181 105.46917117259  L 153.054007569952 108.932475561817  L 153.045838526576 111.655490020301  L 159.205563233079 113.109989743308  L 161.005572790652 113.115389771981  L 161.020203868339 108.238363876268  L 165.681382617961 107.534337138073  L 166.898588080999 101.804906716319  L 163.597890555171 99.3549697078038  L 161.052188038167 96.9102977272445  L 162.138328805286 85.868398097689  L 164.694212376349 84.5860472887466  L 169.04807249419 86.320133496284  L 170.856236095059 85.6075477126427  L 171.903217654253 87.6187173914197  L 183.451505972598 93.2444422625252  L 189.605339647821 96.9959571820735  L 190.646022173569 100.440128469709  L 187.327666553982 104.876237024267  L 189.112184029296 110.045664472555  L 188.049867388676 112.479512395641  L 179.484667909741 113.171827071648  L 177.681658336239 114.166432352738  L 178.277353499222 115.604239987115  L 178.270474462696 117.897252162401  L 171.507290551985 118.592972856493  L 167.904440421808 116.859139650299  L 163.247415694243 116.845168576116  L 162.493393690586 117.848920905775  L 163.237083639382 120.289186862939  L 160.973757621722 122.720431772204  L 160.214578590683 125.443193229344  L 164.560278665197 128.897279569626  L 161.386754814627 135.056847275295  L 162.740288001529 138.218953065238  L 162.435987385774 139.651060669349  L 157.321960231647 139.635718587886  L 153.716772089055 141.347927679262  L 156.557612173162 145.081503503559  L 154.74296553787 149.955129381218  L 149.331060802093 151.230912155286  L 149.771758142079 153.667269091694  L 148.26658715002 155.383778205902  L 138.951688690382 154.638823250389  L 135.351980576888 152.19098925304  L 134.615326665451 146.738701302839  L 132.521345546967 144.722390596764  L 129.206297944945 146.722474216677  L 123.514611723602 141.257321198166  L 119.162204613476 138.37222287906  L 118.729247314587 134.355866553274  L 117.3837021701 131.197784784698  L 115.125690180656 131.19101074873  L 106.097458243141 134.891979399891  L 106.533980560959 139.053348495656  L 103.233963038742 139.043448443089  L 97.8384263898747 133.863187937281  L 92.1285440719154 133.130048044503  L 89.8825621463477 130.113267026197  L 91.6989067906555 126.673666762833  L 94.9898912649094 129.694582803095  L 98.8974680131045 130.854321961002  L 102.209799600706 128.426224068447  L 102.227442694386 122.545192841732  L 105.843926896957 119.400997146888  L 108.709126110404 116.681553707365  L 107.36843299168 113.23948243088  L 114.593821356574 107.811080607508  L 115.670648074238 99.207187923122  L 112.377965590968 94.7522462685645  L 110.594907123401 87.4297923882784  L 101.615846446972 76.073693090406  L 96.9516556813578 77.7817251596028  L 90.5069714617955 72.312313118477  L 81.8034142482173 67.1231285652847  L 78.2283492655714 58.794284341333  L 71.4579993168106 61.2120081788047  L 58.8577324127386 53.5740986235327  L 52.685240638446 56.7086262670423  L 43.2244894043686 55.2472235073817  L 35.9989770388162 59.383606470477  L 31.3380882907343 59.6576279254582  L 24.1385240629597 55.4779697325829  L 19.1886817806113 52.7350811685728  Z " fill-rule="nonzero" fill="#4599d5" stroke="none" transform="matrix(1 0 0 1 988 306 )" />
  </g>
</svg>