<?xml version="1.0" encoding="utf-8"?>
<svg version="1.1" xmlns:xlink="http://www.w3.org/1999/xlink" width="80px" height="62px" xmlns="http://www.w3.org/2000/svg">
  <defs>
    <mask fill="white" id="clip1477">
      <path d="M 68.9747612642194 46.6687832413272  C 68.9747612642194 46.6687832413272  73.9177845103603 48.6846409449962  73.9177845103603 48.6846409449962  C 73.9177845103603 48.6846409449962  72.1022888705604 53.8412683253186  72.1022888705604 53.8412683253186  C 72.1022888705604 53.8412683253186  69.6941400839298 56.5460826871648  69.6941400839298 56.5460826871648  C 69.6941400839298 56.5460826871648  65.6123034104608 61.1389030738217  65.6123034104608 61.1389030738217  C 65.6123034104608 61.1389030738217  59.4572887289669 60.1144236341079  59.4572887289669 60.1144236341079  C 59.4572887289669 60.1144236341079  54.5078664488485 57.231534326731  54.5078664488485 57.231534326731  C 54.5078664488485 57.231534326731  51.4965454595337 58.6575208983412  51.4965454595337 58.6575208983412  C 51.4965454595337 58.6575208983412  40.6804880291402 57.6250584162395  40.6804880291402 57.6250584162395  C 40.6804880291402 57.6250584162395  40.3929665024773 53.4641363228478  40.3929665024773 53.4641363228478  C 40.3929665024773 53.4641363228478  34.5072582509291 50.0054299580353  34.5072582509291 50.0054299580353  C 34.5072582509291 50.0054299580353  32.7167107435972 46.846013182371  32.7167107435972 46.846013182371  C 32.7167107435972 46.846013182371  35.2769023375348 44.1276547486094  35.2769023375348 44.1276547486094  C 35.2769023375348 44.1276547486094  35.2911014129281 39.3946296175025  35.2911014129281 39.3946296175025  C 35.2911014129281 39.3946296175025  42.2442863324942 38.6994789264369  42.2442863324942 38.6994789264369  C 42.2442863324942 38.6994789264369  42.5516019642586 36.2623659860142  42.5516019642586 36.2623659860142  C 42.5516019642586 36.2623659860142  40.4597628571482 33.5320514887691  40.4597628571482 33.5320514887691  C 40.4597628571482 33.5320514887691  36.6660357134641 33.0896641398098  36.6660357134641 33.0896641398098  C 36.6660357134641 33.0896641398098  34.5557045081657 36.5233823719419  34.5557045081657 36.5233823719419  C 34.5557045081657 36.5233823719419  29.1466757876592 35.5071409759699  29.1466757876592 35.5071409759699  C 29.1466757876592 35.5071409759699  27.6548428664224 32.7776264829726  27.6548428664224 32.7776264829726  C 27.6548428664224 32.7776264829726  24.0553087538519 30.2717921776576  24.0553087538519 30.2717921776576  C 24.0553087538519 30.2717921776576  25.2772602420901 22.9603533558586  25.2772602420901 22.9603533558586  C 25.2772602420901 22.9603533558586  24.5291322697291 21.6660904836664  24.5291322697291 21.6660904836664  C 24.5291322697291 21.6660904836664  20.9173820922945 22.2322634898948  20.9173820922945 22.2322634898948  C 20.9173820922945 22.2322634898948  18.3703925684564 20.2165937872238  18.3703925684564 20.2165937872238  C 18.3703925684564 20.2165937872238  11.9155272948354 18.4742045355994  11.9155272948354 18.4742045355994  C 11.9155272948354 18.4742045355994  8.31483117609491 15.0223532071852  8.31483117609491 15.0223532071852  C 8.31483117609491 15.0223532071852  0.366259971292038 11.8414623174992  0.366259971292038 11.8414623174992  C 0.366259971292038 11.8414623174992  1.12658700842678 8.4026940585527  1.12658700842678 8.4026940585527  C 1.12658700842678 8.4026940585527  4.28347077064154 7.12314626449358  4.28347077064154 7.12314626449358  C 4.28347077064154 7.12314626449358  10.1333118317445 11.8707634730806  10.1333118317445 11.8707634730806  C 10.1333118317445 11.8707634730806  11.9333213893174 11.8761635017533  11.9333213893174 11.8761635017533  C 11.9333213893174 11.8761635017533  17.345069124261 11.3193905454367  17.345069124261 11.3193905454367  C 17.345069124261 11.3193905454367  20.507399915398 8.89084265049217  20.507399915398 8.89084265049217  C 20.507399915398 8.89084265049217  24.8560970058251 12.3459379961312  24.8560970058251 12.3459379961312  C 24.8560970058251 12.3459379961312  26.6655716136547 9.19632127250259  26.6655716136547 9.19632127250259  C 26.6655716136547 9.19632127250259  27.1207430304942 7.47466213094958  27.1207430304942 7.47466213094958  C 27.1207430304942 7.47466213094958  30.735783225398 5.47847853174466  30.735783225398 5.47847853174466  C 30.735783225398 5.47847853174466  31.7992628721926 1.32360947049295  31.7992628721926 1.32360947049295  C 31.7992628721926 1.32360947049295  35.40743903065 0.6154237102146  35.40743903065 0.6154237102146  C 35.40743903065 0.6154237102146  44.8978434221779 6.5259790936945  44.8978434221779 6.5259790936945  C 44.8978434221779 6.5259790936945  51.3505666844253 8.98237213648946  51.3505666844253 8.98237213648946  C 51.3505666844253 8.98237213648946  63.6156848089462 28.6684486643294  63.6156848089462 28.6684486643294  C 63.6156848089462 28.6684486643294  63.1581943797935 31.163111910329  63.1581943797935 31.163111910329  C 63.1581943797935 31.163111910329  71.4100571949944 34.9149208314383  71.4100571949944 34.9149208314383  C 71.4100571949944 34.9149208314383  73.653737108339 38.3657011541657  73.653737108339 38.3657011541657  C 73.653737108339 38.3657011541657  77.5575948367871 40.0984373545349  77.5575948367871 40.0984373545349  C 77.5575948367871 40.0984373545349  79.3472753395154 43.5468556647206  79.3472753395154 43.5468556647206  C 79.3472753395154 43.5468556647206  76.7898327601742 44.6821996930959  76.7898327601742 44.6821996930959  C 76.7898327601742 44.6821996930959  72.5871034447974 43.238571027811  72.5871034447974 43.238571027811  C 72.5871034447974 43.238571027811  66.7260723242782 43.2209879344495  66.7260723242782 43.2209879344495  C 66.7260723242782 43.2209879344495  61.3212156259241 41.4807486942411  61.3212156259241 41.4807486942411  C 61.3212156259241 41.4807486942411  59.2160324479603 43.1984578148205  59.2160324479603 43.1984578148205  C 59.2160324479603 43.1984578148205  64.173765772208 44.644351492132  64.173765772208 44.644351492132  C 64.173765772208 44.644351492132  68.9747612642194 46.6687832413272  68.9747612642194 46.6687832413272  Z " fill-rule="evenodd" />
    </mask>
  </defs>
  <g transform="matrix(1 0 0 1 -1279 -407 )">
    <path d="M 68.9747612642194 46.6687832413272  C 68.9747612642194 46.6687832413272  73.9177845103603 48.6846409449962  73.9177845103603 48.6846409449962  C 73.9177845103603 48.6846409449962  72.1022888705604 53.8412683253186  72.1022888705604 53.8412683253186  C 72.1022888705604 53.8412683253186  69.6941400839298 56.5460826871648  69.6941400839298 56.5460826871648  C 69.6941400839298 56.5460826871648  65.6123034104608 61.1389030738217  65.6123034104608 61.1389030738217  C 65.6123034104608 61.1389030738217  59.4572887289669 60.1144236341079  59.4572887289669 60.1144236341079  C 59.4572887289669 60.1144236341079  54.5078664488485 57.231534326731  54.5078664488485 57.231534326731  C 54.5078664488485 57.231534326731  51.4965454595337 58.6575208983412  51.4965454595337 58.6575208983412  C 51.4965454595337 58.6575208983412  40.6804880291402 57.6250584162395  40.6804880291402 57.6250584162395  C 40.6804880291402 57.6250584162395  40.3929665024773 53.4641363228478  40.3929665024773 53.4641363228478  C 40.3929665024773 53.4641363228478  34.5072582509291 50.0054299580353  34.5072582509291 50.0054299580353  C 34.5072582509291 50.0054299580353  32.7167107435972 46.846013182371  32.7167107435972 46.846013182371  C 32.7167107435972 46.846013182371  35.2769023375348 44.1276547486094  35.2769023375348 44.1276547486094  C 35.2769023375348 44.1276547486094  35.2911014129281 39.3946296175025  35.2911014129281 39.3946296175025  C 35.2911014129281 39.3946296175025  42.2442863324942 38.6994789264369  42.2442863324942 38.6994789264369  C 42.2442863324942 38.6994789264369  42.5516019642586 36.2623659860142  42.5516019642586 36.2623659860142  C 42.5516019642586 36.2623659860142  40.4597628571482 33.5320514887691  40.4597628571482 33.5320514887691  C 40.4597628571482 33.5320514887691  36.6660357134641 33.0896641398098  36.6660357134641 33.0896641398098  C 36.6660357134641 33.0896641398098  34.5557045081657 36.5233823719419  34.5557045081657 36.5233823719419  C 34.5557045081657 36.5233823719419  29.1466757876592 35.5071409759699  29.1466757876592 35.5071409759699  C 29.1466757876592 35.5071409759699  27.6548428664224 32.7776264829726  27.6548428664224 32.7776264829726  C 27.6548428664224 32.7776264829726  24.0553087538519 30.2717921776576  24.0553087538519 30.2717921776576  C 24.0553087538519 30.2717921776576  25.2772602420901 22.9603533558586  25.2772602420901 22.9603533558586  C 25.2772602420901 22.9603533558586  24.5291322697291 21.6660904836664  24.5291322697291 21.6660904836664  C 24.5291322697291 21.6660904836664  20.9173820922945 22.2322634898948  20.9173820922945 22.2322634898948  C 20.9173820922945 22.2322634898948  18.3703925684564 20.2165937872238  18.3703925684564 20.2165937872238  C 18.3703925684564 20.2165937872238  11.9155272948354 18.4742045355994  11.9155272948354 18.4742045355994  C 11.9155272948354 18.4742045355994  8.31483117609491 15.0223532071852  8.31483117609491 15.0223532071852  C 8.31483117609491 15.0223532071852  0.366259971292038 11.8414623174992  0.366259971292038 11.8414623174992  C 0.366259971292038 11.8414623174992  1.12658700842678 8.4026940585527  1.12658700842678 8.4026940585527  C 1.12658700842678 8.4026940585527  4.28347077064154 7.12314626449358  4.28347077064154 7.12314626449358  C 4.28347077064154 7.12314626449358  10.1333118317445 11.8707634730806  10.1333118317445 11.8707634730806  C 10.1333118317445 11.8707634730806  11.9333213893174 11.8761635017533  11.9333213893174 11.8761635017533  C 11.9333213893174 11.8761635017533  17.345069124261 11.3193905454367  17.345069124261 11.3193905454367  C 17.345069124261 11.3193905454367  20.507399915398 8.89084265049217  20.507399915398 8.89084265049217  C 20.507399915398 8.89084265049217  24.8560970058251 12.3459379961312  24.8560970058251 12.3459379961312  C 24.8560970058251 12.3459379961312  26.6655716136547 9.19632127250259  26.6655716136547 9.19632127250259  C 26.6655716136547 9.19632127250259  27.1207430304942 7.47466213094958  27.1207430304942 7.47466213094958  C 27.1207430304942 7.47466213094958  30.735783225398 5.47847853174466  30.735783225398 5.47847853174466  C 30.735783225398 5.47847853174466  31.7992628721926 1.32360947049295  31.7992628721926 1.32360947049295  C 31.7992628721926 1.32360947049295  35.40743903065 0.6154237102146  35.40743903065 0.6154237102146  C 35.40743903065 0.6154237102146  44.8978434221779 6.5259790936945  44.8978434221779 6.5259790936945  C 44.8978434221779 6.5259790936945  51.3505666844253 8.98237213648946  51.3505666844253 8.98237213648946  C 51.3505666844253 8.98237213648946  63.6156848089462 28.6684486643294  63.6156848089462 28.6684486643294  C 63.6156848089462 28.6684486643294  63.1581943797935 31.163111910329  63.1581943797935 31.163111910329  C 63.1581943797935 31.163111910329  71.4100571949944 34.9149208314383  71.4100571949944 34.9149208314383  C 71.4100571949944 34.9149208314383  73.653737108339 38.3657011541657  73.653737108339 38.3657011541657  C 73.653737108339 38.3657011541657  77.5575948367871 40.0984373545349  77.5575948367871 40.0984373545349  C 77.5575948367871 40.0984373545349  79.3472753395154 43.5468556647206  79.3472753395154 43.5468556647206  C 79.3472753395154 43.5468556647206  76.7898327601742 44.6821996930959  76.7898327601742 44.6821996930959  C 76.7898327601742 44.6821996930959  72.5871034447974 43.238571027811  72.5871034447974 43.238571027811  C 72.5871034447974 43.238571027811  66.7260723242782 43.2209879344495  66.7260723242782 43.2209879344495  C 66.7260723242782 43.2209879344495  61.3212156259241 41.4807486942411  61.3212156259241 41.4807486942411  C 61.3212156259241 41.4807486942411  59.2160324479603 43.1984578148205  59.2160324479603 43.1984578148205  C 59.2160324479603 43.1984578148205  64.173765772208 44.644351492132  64.173765772208 44.644351492132  C 64.173765772208 44.644351492132  68.9747612642194 46.6687832413272  68.9747612642194 46.6687832413272  Z " fill-rule="nonzero" fill="#3088ca" stroke="none" transform="matrix(1 0 0 1 1279 407 )" />
    <path d="M 68.9747612642194 46.6687832413272  C 68.9747612642194 46.6687832413272  73.9177845103603 48.6846409449962  73.9177845103603 48.6846409449962  C 73.9177845103603 48.6846409449962  72.1022888705604 53.8412683253186  72.1022888705604 53.8412683253186  C 72.1022888705604 53.8412683253186  69.6941400839298 56.5460826871648  69.6941400839298 56.5460826871648  C 69.6941400839298 56.5460826871648  65.6123034104608 61.1389030738217  65.6123034104608 61.1389030738217  C 65.6123034104608 61.1389030738217  59.4572887289669 60.1144236341079  59.4572887289669 60.1144236341079  C 59.4572887289669 60.1144236341079  54.5078664488485 57.231534326731  54.5078664488485 57.231534326731  C 54.5078664488485 57.231534326731  51.4965454595337 58.6575208983412  51.4965454595337 58.6575208983412  C 51.4965454595337 58.6575208983412  40.6804880291402 57.6250584162395  40.6804880291402 57.6250584162395  C 40.6804880291402 57.6250584162395  40.3929665024773 53.4641363228478  40.3929665024773 53.4641363228478  C 40.3929665024773 53.4641363228478  34.5072582509291 50.0054299580353  34.5072582509291 50.0054299580353  C 34.5072582509291 50.0054299580353  32.7167107435972 46.846013182371  32.7167107435972 46.846013182371  C 32.7167107435972 46.846013182371  35.2769023375348 44.1276547486094  35.2769023375348 44.1276547486094  C 35.2769023375348 44.1276547486094  35.2911014129281 39.3946296175025  35.2911014129281 39.3946296175025  C 35.2911014129281 39.3946296175025  42.2442863324942 38.6994789264369  42.2442863324942 38.6994789264369  C 42.2442863324942 38.6994789264369  42.5516019642586 36.2623659860142  42.5516019642586 36.2623659860142  C 42.5516019642586 36.2623659860142  40.4597628571482 33.5320514887691  40.4597628571482 33.5320514887691  C 40.4597628571482 33.5320514887691  36.6660357134641 33.0896641398098  36.6660357134641 33.0896641398098  C 36.6660357134641 33.0896641398098  34.5557045081657 36.5233823719419  34.5557045081657 36.5233823719419  C 34.5557045081657 36.5233823719419  29.1466757876592 35.5071409759699  29.1466757876592 35.5071409759699  C 29.1466757876592 35.5071409759699  27.6548428664224 32.7776264829726  27.6548428664224 32.7776264829726  C 27.6548428664224 32.7776264829726  24.0553087538519 30.2717921776576  24.0553087538519 30.2717921776576  C 24.0553087538519 30.2717921776576  25.2772602420901 22.9603533558586  25.2772602420901 22.9603533558586  C 25.2772602420901 22.9603533558586  24.5291322697291 21.6660904836664  24.5291322697291 21.6660904836664  C 24.5291322697291 21.6660904836664  20.9173820922945 22.2322634898948  20.9173820922945 22.2322634898948  C 20.9173820922945 22.2322634898948  18.3703925684564 20.2165937872238  18.3703925684564 20.2165937872238  C 18.3703925684564 20.2165937872238  11.9155272948354 18.4742045355994  11.9155272948354 18.4742045355994  C 11.9155272948354 18.4742045355994  8.31483117609491 15.0223532071852  8.31483117609491 15.0223532071852  C 8.31483117609491 15.0223532071852  0.366259971292038 11.8414623174992  0.366259971292038 11.8414623174992  C 0.366259971292038 11.8414623174992  1.12658700842678 8.4026940585527  1.12658700842678 8.4026940585527  C 1.12658700842678 8.4026940585527  4.28347077064154 7.12314626449358  4.28347077064154 7.12314626449358  C 4.28347077064154 7.12314626449358  10.1333118317445 11.8707634730806  10.1333118317445 11.8707634730806  C 10.1333118317445 11.8707634730806  11.9333213893174 11.8761635017533  11.9333213893174 11.8761635017533  C 11.9333213893174 11.8761635017533  17.345069124261 11.3193905454367  17.345069124261 11.3193905454367  C 17.345069124261 11.3193905454367  20.507399915398 8.89084265049217  20.507399915398 8.89084265049217  C 20.507399915398 8.89084265049217  24.8560970058251 12.3459379961312  24.8560970058251 12.3459379961312  C 24.8560970058251 12.3459379961312  26.6655716136547 9.19632127250259  26.6655716136547 9.19632127250259  C 26.6655716136547 9.19632127250259  27.1207430304942 7.47466213094958  27.1207430304942 7.47466213094958  C 27.1207430304942 7.47466213094958  30.735783225398 5.47847853174466  30.735783225398 5.47847853174466  C 30.735783225398 5.47847853174466  31.7992628721926 1.32360947049295  31.7992628721926 1.32360947049295  C 31.7992628721926 1.32360947049295  35.40743903065 0.6154237102146  35.40743903065 0.6154237102146  C 35.40743903065 0.6154237102146  44.8978434221779 6.5259790936945  44.8978434221779 6.5259790936945  C 44.8978434221779 6.5259790936945  51.3505666844253 8.98237213648946  51.3505666844253 8.98237213648946  C 51.3505666844253 8.98237213648946  63.6156848089462 28.6684486643294  63.6156848089462 28.6684486643294  C 63.6156848089462 28.6684486643294  63.1581943797935 31.163111910329  63.1581943797935 31.163111910329  C 63.1581943797935 31.163111910329  71.4100571949944 34.9149208314383  71.4100571949944 34.9149208314383  C 71.4100571949944 34.9149208314383  73.653737108339 38.3657011541657  73.653737108339 38.3657011541657  C 73.653737108339 38.3657011541657  77.5575948367871 40.0984373545349  77.5575948367871 40.0984373545349  C 77.5575948367871 40.0984373545349  79.3472753395154 43.5468556647206  79.3472753395154 43.5468556647206  C 79.3472753395154 43.5468556647206  76.7898327601742 44.6821996930959  76.7898327601742 44.6821996930959  C 76.7898327601742 44.6821996930959  72.5871034447974 43.238571027811  72.5871034447974 43.238571027811  C 72.5871034447974 43.238571027811  66.7260723242782 43.2209879344495  66.7260723242782 43.2209879344495  C 66.7260723242782 43.2209879344495  61.3212156259241 41.4807486942411  61.3212156259241 41.4807486942411  C 61.3212156259241 41.4807486942411  59.2160324479603 43.1984578148205  59.2160324479603 43.1984578148205  C 59.2160324479603 43.1984578148205  64.173765772208 44.644351492132  64.173765772208 44.644351492132  C 64.173765772208 44.644351492132  68.9747612642194 46.6687832413272  68.9747612642194 46.6687832413272  Z " stroke-width="0.97600957434184" stroke="#199eae" fill="none" transform="matrix(1 0 0 1 1279 407 )" mask="url(#clip1477)" />
  </g>
</svg>