<?xml version="1.0" encoding="utf-8"?>
<svg version="1.1" xmlns:xlink="http://www.w3.org/1999/xlink" width="76px" height="104px" xmlns="http://www.w3.org/2000/svg">
  <defs>
    <mask fill="white" id="clip1480">
      <path d="M 27.3776864567425 101.613193601028  C 27.3776864567425 101.613193601028  29.4915556808267 102.333545425905  29.4915556808267 102.333545425905  C 29.4915556808267 102.333545425905  29.9437120816572 100.616877310853  29.9437120816572 100.616877310853  C 29.9437120816572 100.616877310853  27.7041861903692 96.4480991757479  27.7041861903692 96.4480991757479  C 27.7041861903692 96.4480991757479  36.4654067101242 81.4161673601807  36.4654067101242 81.4161673601807  C 36.4654067101242 81.4161673601807  44.941106713841 74.5564959371467  44.941106713841 74.5564959371467  C 44.941106713841 74.5564959371467  50.6554390554287 73.1396184139032  50.6554390554287 73.1396184139032  C 50.6554390554287 73.1396184139032  56.0580607419156 66.6247328215903  56.0580607419156 66.6247328215903  C 56.0580607419156 66.6247328215903  53.9831117244872 65.2644885990546  53.9831117244872 65.2644885990546  C 53.9831117244872 65.2644885990546  52.027216339202 60.5535535852403  52.027216339202 60.5535535852403  C 52.027216339202 60.5535535852403  47.8335530719634 62.0879947327154  47.8335530719634 62.0879947327154  C 47.8335530719634 62.0879947327154  40.9236793823687 60.3462404844628  40.9236793823687 60.3462404844628  C 40.9236793823687 60.3462404844628  40.6288288167905 58.6283313628214  40.6288288167905 58.6283313628214  C 40.6288288167905 58.6283313628214  40.3634294075902 47.0933701152396  40.3634294075902 47.0933701152396  C 40.3634294075902 47.0933701152396  36.2621086306656 48.5140866588673  36.2621086306656 48.5140866588673  C 36.2621086306656 48.5140866588673  34.0040786411258 50.5133412743785  34.0040786411258 50.5133412743785  C 34.0040786411258 50.5133412743785  29.3499239288 49.209360350586  29.3499239288 49.209360350586  C 29.3499239288 49.209360350586  23.185873199327 50.1968825940669  23.185873199327 50.1968825940669  C 23.185873199327 50.1968825940669  22.1440516675312 47.4657180923085  22.1440516675312 47.4657180923085  C 22.1440516675312 47.4657180923085  22.9065417161511 42.3059316952126  22.9065417161511 42.3059316952126  C 22.9065417161511 42.3059316952126  27.5830555471979 37.1568873551541  27.5830555471979 37.1568873551541  C 27.5830555471979 37.1568873551541  28.6507012161129 31.2800061504751  28.6507012161129 31.2800061504751  C 28.6507012161129 31.2800061504751  33.3250670357543 26.8469656122068  33.3250670357543 26.8469656122068  C 33.3250670357543 26.8469656122068  42.2146312369803 31.0346938479319  42.2146312369803 31.0346938479319  C 42.2146312369803 31.0346938479319  44.314642387482 31.0409938813835  44.314642387482 31.0409938813835  C 44.314642387482 31.0409938813835  45.7974422607556 36.7815243620763  45.7974422607556 36.7815243620763  C 45.7974422607556 36.7815243620763  48.194019985947 37.9337304799849  48.194019985947 37.9337304799849  C 48.194019985947 37.9337304799849  49.3828302982142 41.6693503151344  49.3828302982142 41.6693503151344  C 49.3828302982142 41.6693503151344  48.9275108805891 44.1070192585094  48.9275108805891 44.1070192585094  C 48.9275108805891 44.1070192585094  54.025220948076 47.5613616001501  54.025220948076 47.5613616001501  C 54.025220948076 47.5613616001501  54.7670408869429 50.2916260971297  54.7670408869429 50.2916260971297  C 54.7670408869429 50.2916260971297  58.9739032242651 52.0242712970157  58.9739032242651 52.0242712970157  C 58.9739032242651 52.0242712970157  69.5073091538542 46.6057935263373  69.5073091538542 46.6057935263373  C 69.5073091538542 46.6057935263373  69.5167772041269 43.4497767687262  69.5167772041269 43.4497767687262  C 69.5167772041269 43.4497767687262  75.7046280599724 34.8622171710646  75.7046280599724 34.8622171710646  C 75.7046280599724 34.8622171710646  71.3662420242944 28.9701178855817  71.3662420242944 28.9701178855817  C 71.3662420242944 28.9701178855817  68.0570854535515 28.6731863089539  68.0570854535515 28.6731863089539  C 68.0570854535515 28.6731863089539  62.0576785982939 24.7801326378724  62.0576785982939 24.7801326378724  C 62.0576785982939 24.7801326378724  64.1761848469996 18.6213999366368  64.1761848469996 18.6213999366368  C 64.1761848469996 18.6213999366368  54.8592833767264 17.8774389864017  54.8592833767264 17.8774389864017  C 54.8592833767264 17.8774389864017  50.8234789476763 12.1262494491121  50.8234789476763 12.1262494491121  C 50.8234789476763 12.1262494491121  51.2819403819848 8.97457971458257  51.2819403819848 8.97457971458257  C 51.2819403819848 8.97457971458257  43.3458552434796 0.631652415853551  43.3458552434796 0.631652415853551  C 43.3458552434796 0.631652415853551  37.7375054646311 3.05486228245462  37.7375054646311 3.05486228245462  C 37.7375054646311 3.05486228245462  33.3700052743645 7.20081929638565  33.3700052743645 7.20081929638565  C 33.3700052743645 7.20081929638565  34.8605451887358 10.3613360778907  34.8605451887358 10.3613360778907  C 34.8605451887358 10.3613360778907  33.8035185762051 12.3651937178428  33.8035185762051 12.3651937178428  C 33.8035185762051 12.3651937178428  27.6416218581695 12.6347121489141  27.6416218581695 12.6347121489141  C 27.6416218581695 12.6347121489141  24.779304660025 15.0601600273984  24.779304660025 15.0601600273984  C 24.779304660025 15.0601600273984  22.2292911201301 14.0524956769682  22.2292911201301 14.0524956769682  C 22.2292911201301 14.0524956769682  19.6669605148349 16.4838435867801  19.6669605148349 16.4838435867801  C 19.6669605148349 16.4838435867801  13.9424501192044 20.6267295844049  13.9424501192044 20.6267295844049  C 13.9424501192044 20.6267295844049  11.3926055802069 18.8960553949844  11.3926055802069 18.8960553949844  C 11.3926055802069 18.8960553949844  11.4093846692994 13.3030256974816  11.4093846692994 13.3030256974816  C 11.4093846692994 13.3030256974816  9.31237353472699 12.2967203542674  9.31237353472699 12.2967203542674  C 9.31237353472699 12.2967203542674  6.00205095779296 13.7218099211146  6.00205095779296 13.7218099211146  C 6.00205095779296 13.7218099211146  2.07337509756718 21.5951367263897  2.07337509756718 21.5951367263897  C 2.07337509756718 21.5951367263897  0.545566985311723 29.1906620566127  0.545566985311723 29.1906620566127  C 0.545566985311723 29.1906620566127  5.18222060471146 36.6616787257277  5.18222060471146 36.6616787257277  C 5.18222060471146 36.6616787257277  9.22891609159018 40.1158680665561  9.22891609159018 40.1158680665561  C 9.22891609159018 40.1158680665561  9.20997999104452 46.4279015817783  9.20997999104452 46.4279015817783  C 9.20997999104452 46.4279015817783  11.5945036522321 51.5981290343135  11.5945036522321 51.5981290343135  C 11.5945036522321 51.5981290343135  10.5238259672178 57.819006065519  10.5238259672178 57.819006065519  C 10.5238259672178 57.819006065519  4.35117719209154 61.6725435267798  4.35117719209154 61.6725435267798  C 4.35117719209154 61.6725435267798  1.47248590700508 70.5560346957595  1.47248590700508 70.5560346957595  C 1.47248590700508 70.5560346957595  6.5637339401805 76.1643884746291  6.5637339401805 76.1643884746291  C 6.5637339401805 76.1643884746291  10.1430979456531 83.0602250896908  10.1430979456531 83.0602250896908  C 10.1430979456531 83.0602250896908  7.88375394913629 86.4974963406886  7.88375394913629 86.4974963406886  C 7.88375394913629 86.4974963406886  7.26956068793311 91.2257214463087  7.26956068793311 91.2257214463087  C 7.26956068793311 91.2257214463087  5.00608366947108 94.3739761627054  5.00608366947108 94.3739761627054  C 5.00608366947108 94.3739761627054  3.94374902875614 97.8138384274607  3.94374902875614 97.8138384274607  C 3.94374902875614 97.8138384274607  7.23829252190745 101.981781558132  7.23829252190745 101.981781558132  C 7.23829252190745 101.981781558132  21.6592060931299 103.74606892603  21.6592060931299 103.74606892603  C 21.6592060931299 103.74606892603  27.3776864567425 101.613193601028  27.3776864567425 101.613193601028  Z " fill-rule="evenodd" />
    </mask>
  </defs>
  <g transform="matrix(1 0 0 1 -1234 -296 )">
    <path d="M 27.3776864567425 101.613193601028  C 27.3776864567425 101.613193601028  29.4915556808267 102.333545425905  29.4915556808267 102.333545425905  C 29.4915556808267 102.333545425905  29.9437120816572 100.616877310853  29.9437120816572 100.616877310853  C 29.9437120816572 100.616877310853  27.7041861903692 96.4480991757479  27.7041861903692 96.4480991757479  C 27.7041861903692 96.4480991757479  36.4654067101242 81.4161673601807  36.4654067101242 81.4161673601807  C 36.4654067101242 81.4161673601807  44.941106713841 74.5564959371467  44.941106713841 74.5564959371467  C 44.941106713841 74.5564959371467  50.6554390554287 73.1396184139032  50.6554390554287 73.1396184139032  C 50.6554390554287 73.1396184139032  56.0580607419156 66.6247328215903  56.0580607419156 66.6247328215903  C 56.0580607419156 66.6247328215903  53.9831117244872 65.2644885990546  53.9831117244872 65.2644885990546  C 53.9831117244872 65.2644885990546  52.027216339202 60.5535535852403  52.027216339202 60.5535535852403  C 52.027216339202 60.5535535852403  47.8335530719634 62.0879947327154  47.8335530719634 62.0879947327154  C 47.8335530719634 62.0879947327154  40.9236793823687 60.3462404844628  40.9236793823687 60.3462404844628  C 40.9236793823687 60.3462404844628  40.6288288167905 58.6283313628214  40.6288288167905 58.6283313628214  C 40.6288288167905 58.6283313628214  40.3634294075902 47.0933701152396  40.3634294075902 47.0933701152396  C 40.3634294075902 47.0933701152396  36.2621086306656 48.5140866588673  36.2621086306656 48.5140866588673  C 36.2621086306656 48.5140866588673  34.0040786411258 50.5133412743785  34.0040786411258 50.5133412743785  C 34.0040786411258 50.5133412743785  29.3499239288 49.209360350586  29.3499239288 49.209360350586  C 29.3499239288 49.209360350586  23.185873199327 50.1968825940669  23.185873199327 50.1968825940669  C 23.185873199327 50.1968825940669  22.1440516675312 47.4657180923085  22.1440516675312 47.4657180923085  C 22.1440516675312 47.4657180923085  22.9065417161511 42.3059316952126  22.9065417161511 42.3059316952126  C 22.9065417161511 42.3059316952126  27.5830555471979 37.1568873551541  27.5830555471979 37.1568873551541  C 27.5830555471979 37.1568873551541  28.6507012161129 31.2800061504751  28.6507012161129 31.2800061504751  C 28.6507012161129 31.2800061504751  33.3250670357543 26.8469656122068  33.3250670357543 26.8469656122068  C 33.3250670357543 26.8469656122068  42.2146312369803 31.0346938479319  42.2146312369803 31.0346938479319  C 42.2146312369803 31.0346938479319  44.314642387482 31.0409938813835  44.314642387482 31.0409938813835  C 44.314642387482 31.0409938813835  45.7974422607556 36.7815243620763  45.7974422607556 36.7815243620763  C 45.7974422607556 36.7815243620763  48.194019985947 37.9337304799849  48.194019985947 37.9337304799849  C 48.194019985947 37.9337304799849  49.3828302982142 41.6693503151344  49.3828302982142 41.6693503151344  C 49.3828302982142 41.6693503151344  48.9275108805891 44.1070192585094  48.9275108805891 44.1070192585094  C 48.9275108805891 44.1070192585094  54.025220948076 47.5613616001501  54.025220948076 47.5613616001501  C 54.025220948076 47.5613616001501  54.7670408869429 50.2916260971297  54.7670408869429 50.2916260971297  C 54.7670408869429 50.2916260971297  58.9739032242651 52.0242712970157  58.9739032242651 52.0242712970157  C 58.9739032242651 52.0242712970157  69.5073091538542 46.6057935263373  69.5073091538542 46.6057935263373  C 69.5073091538542 46.6057935263373  69.5167772041269 43.4497767687262  69.5167772041269 43.4497767687262  C 69.5167772041269 43.4497767687262  75.7046280599724 34.8622171710646  75.7046280599724 34.8622171710646  C 75.7046280599724 34.8622171710646  71.3662420242944 28.9701178855817  71.3662420242944 28.9701178855817  C 71.3662420242944 28.9701178855817  68.0570854535515 28.6731863089539  68.0570854535515 28.6731863089539  C 68.0570854535515 28.6731863089539  62.0576785982939 24.7801326378724  62.0576785982939 24.7801326378724  C 62.0576785982939 24.7801326378724  64.1761848469996 18.6213999366368  64.1761848469996 18.6213999366368  C 64.1761848469996 18.6213999366368  54.8592833767264 17.8774389864017  54.8592833767264 17.8774389864017  C 54.8592833767264 17.8774389864017  50.8234789476763 12.1262494491121  50.8234789476763 12.1262494491121  C 50.8234789476763 12.1262494491121  51.2819403819848 8.97457971458257  51.2819403819848 8.97457971458257  C 51.2819403819848 8.97457971458257  43.3458552434796 0.631652415853551  43.3458552434796 0.631652415853551  C 43.3458552434796 0.631652415853551  37.7375054646311 3.05486228245462  37.7375054646311 3.05486228245462  C 37.7375054646311 3.05486228245462  33.3700052743645 7.20081929638565  33.3700052743645 7.20081929638565  C 33.3700052743645 7.20081929638565  34.8605451887358 10.3613360778907  34.8605451887358 10.3613360778907  C 34.8605451887358 10.3613360778907  33.8035185762051 12.3651937178428  33.8035185762051 12.3651937178428  C 33.8035185762051 12.3651937178428  27.6416218581695 12.6347121489141  27.6416218581695 12.6347121489141  C 27.6416218581695 12.6347121489141  24.779304660025 15.0601600273984  24.779304660025 15.0601600273984  C 24.779304660025 15.0601600273984  22.2292911201301 14.0524956769682  22.2292911201301 14.0524956769682  C 22.2292911201301 14.0524956769682  19.6669605148349 16.4838435867801  19.6669605148349 16.4838435867801  C 19.6669605148349 16.4838435867801  13.9424501192044 20.6267295844049  13.9424501192044 20.6267295844049  C 13.9424501192044 20.6267295844049  11.3926055802069 18.8960553949844  11.3926055802069 18.8960553949844  C 11.3926055802069 18.8960553949844  11.4093846692994 13.3030256974816  11.4093846692994 13.3030256974816  C 11.4093846692994 13.3030256974816  9.31237353472699 12.2967203542674  9.31237353472699 12.2967203542674  C 9.31237353472699 12.2967203542674  6.00205095779296 13.7218099211146  6.00205095779296 13.7218099211146  C 6.00205095779296 13.7218099211146  2.07337509756718 21.5951367263897  2.07337509756718 21.5951367263897  C 2.07337509756718 21.5951367263897  0.545566985311723 29.1906620566127  0.545566985311723 29.1906620566127  C 0.545566985311723 29.1906620566127  5.18222060471146 36.6616787257277  5.18222060471146 36.6616787257277  C 5.18222060471146 36.6616787257277  9.22891609159018 40.1158680665561  9.22891609159018 40.1158680665561  C 9.22891609159018 40.1158680665561  9.20997999104452 46.4279015817783  9.20997999104452 46.4279015817783  C 9.20997999104452 46.4279015817783  11.5945036522321 51.5981290343135  11.5945036522321 51.5981290343135  C 11.5945036522321 51.5981290343135  10.5238259672178 57.819006065519  10.5238259672178 57.819006065519  C 10.5238259672178 57.819006065519  4.35117719209154 61.6725435267798  4.35117719209154 61.6725435267798  C 4.35117719209154 61.6725435267798  1.47248590700508 70.5560346957595  1.47248590700508 70.5560346957595  C 1.47248590700508 70.5560346957595  6.5637339401805 76.1643884746291  6.5637339401805 76.1643884746291  C 6.5637339401805 76.1643884746291  10.1430979456531 83.0602250896908  10.1430979456531 83.0602250896908  C 10.1430979456531 83.0602250896908  7.88375394913629 86.4974963406886  7.88375394913629 86.4974963406886  C 7.88375394913629 86.4974963406886  7.26956068793311 91.2257214463087  7.26956068793311 91.2257214463087  C 7.26956068793311 91.2257214463087  5.00608366947108 94.3739761627054  5.00608366947108 94.3739761627054  C 5.00608366947108 94.3739761627054  3.94374902875614 97.8138384274607  3.94374902875614 97.8138384274607  C 3.94374902875614 97.8138384274607  7.23829252190745 101.981781558132  7.23829252190745 101.981781558132  C 7.23829252190745 101.981781558132  21.6592060931299 103.74606892603  21.6592060931299 103.74606892603  C 21.6592060931299 103.74606892603  27.3776864567425 101.613193601028  27.3776864567425 101.613193601028  Z " fill-rule="nonzero" fill="#184799" stroke="none" transform="matrix(1 0 0 1 1234 296 )" />
    <path d="M 27.3776864567425 101.613193601028  C 27.3776864567425 101.613193601028  29.4915556808267 102.333545425905  29.4915556808267 102.333545425905  C 29.4915556808267 102.333545425905  29.9437120816572 100.616877310853  29.9437120816572 100.616877310853  C 29.9437120816572 100.616877310853  27.7041861903692 96.4480991757479  27.7041861903692 96.4480991757479  C 27.7041861903692 96.4480991757479  36.4654067101242 81.4161673601807  36.4654067101242 81.4161673601807  C 36.4654067101242 81.4161673601807  44.941106713841 74.5564959371467  44.941106713841 74.5564959371467  C 44.941106713841 74.5564959371467  50.6554390554287 73.1396184139032  50.6554390554287 73.1396184139032  C 50.6554390554287 73.1396184139032  56.0580607419156 66.6247328215903  56.0580607419156 66.6247328215903  C 56.0580607419156 66.6247328215903  53.9831117244872 65.2644885990546  53.9831117244872 65.2644885990546  C 53.9831117244872 65.2644885990546  52.027216339202 60.5535535852403  52.027216339202 60.5535535852403  C 52.027216339202 60.5535535852403  47.8335530719634 62.0879947327154  47.8335530719634 62.0879947327154  C 47.8335530719634 62.0879947327154  40.9236793823687 60.3462404844628  40.9236793823687 60.3462404844628  C 40.9236793823687 60.3462404844628  40.6288288167905 58.6283313628214  40.6288288167905 58.6283313628214  C 40.6288288167905 58.6283313628214  40.3634294075902 47.0933701152396  40.3634294075902 47.0933701152396  C 40.3634294075902 47.0933701152396  36.2621086306656 48.5140866588673  36.2621086306656 48.5140866588673  C 36.2621086306656 48.5140866588673  34.0040786411258 50.5133412743785  34.0040786411258 50.5133412743785  C 34.0040786411258 50.5133412743785  29.3499239288 49.209360350586  29.3499239288 49.209360350586  C 29.3499239288 49.209360350586  23.185873199327 50.1968825940669  23.185873199327 50.1968825940669  C 23.185873199327 50.1968825940669  22.1440516675312 47.4657180923085  22.1440516675312 47.4657180923085  C 22.1440516675312 47.4657180923085  22.9065417161511 42.3059316952126  22.9065417161511 42.3059316952126  C 22.9065417161511 42.3059316952126  27.5830555471979 37.1568873551541  27.5830555471979 37.1568873551541  C 27.5830555471979 37.1568873551541  28.6507012161129 31.2800061504751  28.6507012161129 31.2800061504751  C 28.6507012161129 31.2800061504751  33.3250670357543 26.8469656122068  33.3250670357543 26.8469656122068  C 33.3250670357543 26.8469656122068  42.2146312369803 31.0346938479319  42.2146312369803 31.0346938479319  C 42.2146312369803 31.0346938479319  44.314642387482 31.0409938813835  44.314642387482 31.0409938813835  C 44.314642387482 31.0409938813835  45.7974422607556 36.7815243620763  45.7974422607556 36.7815243620763  C 45.7974422607556 36.7815243620763  48.194019985947 37.9337304799849  48.194019985947 37.9337304799849  C 48.194019985947 37.9337304799849  49.3828302982142 41.6693503151344  49.3828302982142 41.6693503151344  C 49.3828302982142 41.6693503151344  48.9275108805891 44.1070192585094  48.9275108805891 44.1070192585094  C 48.9275108805891 44.1070192585094  54.025220948076 47.5613616001501  54.025220948076 47.5613616001501  C 54.025220948076 47.5613616001501  54.7670408869429 50.2916260971297  54.7670408869429 50.2916260971297  C 54.7670408869429 50.2916260971297  58.9739032242651 52.0242712970157  58.9739032242651 52.0242712970157  C 58.9739032242651 52.0242712970157  69.5073091538542 46.6057935263373  69.5073091538542 46.6057935263373  C 69.5073091538542 46.6057935263373  69.5167772041269 43.4497767687262  69.5167772041269 43.4497767687262  C 69.5167772041269 43.4497767687262  75.7046280599724 34.8622171710646  75.7046280599724 34.8622171710646  C 75.7046280599724 34.8622171710646  71.3662420242944 28.9701178855817  71.3662420242944 28.9701178855817  C 71.3662420242944 28.9701178855817  68.0570854535515 28.6731863089539  68.0570854535515 28.6731863089539  C 68.0570854535515 28.6731863089539  62.0576785982939 24.7801326378724  62.0576785982939 24.7801326378724  C 62.0576785982939 24.7801326378724  64.1761848469996 18.6213999366368  64.1761848469996 18.6213999366368  C 64.1761848469996 18.6213999366368  54.8592833767264 17.8774389864017  54.8592833767264 17.8774389864017  C 54.8592833767264 17.8774389864017  50.8234789476763 12.1262494491121  50.8234789476763 12.1262494491121  C 50.8234789476763 12.1262494491121  51.2819403819848 8.97457971458257  51.2819403819848 8.97457971458257  C 51.2819403819848 8.97457971458257  43.3458552434796 0.631652415853551  43.3458552434796 0.631652415853551  C 43.3458552434796 0.631652415853551  37.7375054646311 3.05486228245462  37.7375054646311 3.05486228245462  C 37.7375054646311 3.05486228245462  33.3700052743645 7.20081929638565  33.3700052743645 7.20081929638565  C 33.3700052743645 7.20081929638565  34.8605451887358 10.3613360778907  34.8605451887358 10.3613360778907  C 34.8605451887358 10.3613360778907  33.8035185762051 12.3651937178428  33.8035185762051 12.3651937178428  C 33.8035185762051 12.3651937178428  27.6416218581695 12.6347121489141  27.6416218581695 12.6347121489141  C 27.6416218581695 12.6347121489141  24.779304660025 15.0601600273984  24.779304660025 15.0601600273984  C 24.779304660025 15.0601600273984  22.2292911201301 14.0524956769682  22.2292911201301 14.0524956769682  C 22.2292911201301 14.0524956769682  19.6669605148349 16.4838435867801  19.6669605148349 16.4838435867801  C 19.6669605148349 16.4838435867801  13.9424501192044 20.6267295844049  13.9424501192044 20.6267295844049  C 13.9424501192044 20.6267295844049  11.3926055802069 18.8960553949844  11.3926055802069 18.8960553949844  C 11.3926055802069 18.8960553949844  11.4093846692994 13.3030256974816  11.4093846692994 13.3030256974816  C 11.4093846692994 13.3030256974816  9.31237353472699 12.2967203542674  9.31237353472699 12.2967203542674  C 9.31237353472699 12.2967203542674  6.00205095779296 13.7218099211146  6.00205095779296 13.7218099211146  C 6.00205095779296 13.7218099211146  2.07337509756718 21.5951367263897  2.07337509756718 21.5951367263897  C 2.07337509756718 21.5951367263897  0.545566985311723 29.1906620566127  0.545566985311723 29.1906620566127  C 0.545566985311723 29.1906620566127  5.18222060471146 36.6616787257277  5.18222060471146 36.6616787257277  C 5.18222060471146 36.6616787257277  9.22891609159018 40.1158680665561  9.22891609159018 40.1158680665561  C 9.22891609159018 40.1158680665561  9.20997999104452 46.4279015817783  9.20997999104452 46.4279015817783  C 9.20997999104452 46.4279015817783  11.5945036522321 51.5981290343135  11.5945036522321 51.5981290343135  C 11.5945036522321 51.5981290343135  10.5238259672178 57.819006065519  10.5238259672178 57.819006065519  C 10.5238259672178 57.819006065519  4.35117719209154 61.6725435267798  4.35117719209154 61.6725435267798  C 4.35117719209154 61.6725435267798  1.47248590700508 70.5560346957595  1.47248590700508 70.5560346957595  C 1.47248590700508 70.5560346957595  6.5637339401805 76.1643884746291  6.5637339401805 76.1643884746291  C 6.5637339401805 76.1643884746291  10.1430979456531 83.0602250896908  10.1430979456531 83.0602250896908  C 10.1430979456531 83.0602250896908  7.88375394913629 86.4974963406886  7.88375394913629 86.4974963406886  C 7.88375394913629 86.4974963406886  7.26956068793311 91.2257214463087  7.26956068793311 91.2257214463087  C 7.26956068793311 91.2257214463087  5.00608366947108 94.3739761627054  5.00608366947108 94.3739761627054  C 5.00608366947108 94.3739761627054  3.94374902875614 97.8138384274607  3.94374902875614 97.8138384274607  C 3.94374902875614 97.8138384274607  7.23829252190745 101.981781558132  7.23829252190745 101.981781558132  C 7.23829252190745 101.981781558132  21.6592060931299 103.74606892603  21.6592060931299 103.74606892603  C 21.6592060931299 103.74606892603  27.3776864567425 101.613193601028  27.3776864567425 101.613193601028  Z " stroke-width="0.97600957434184" stroke="#199eae" fill="none" transform="matrix(1 0 0 1 1234 296 )" mask="url(#clip1480)" />
  </g>
</svg>