<?xml version="1.0" encoding="utf-8"?>
<svg version="1.1" xmlns:xlink="http://www.w3.org/1999/xlink" width="70px" height="121px" xmlns="http://www.w3.org/2000/svg">
  <defs>
    <mask fill="white" id="clip1478">
      <path d="M 60.2182910263243 78.125168921251  C 60.2182910263243 78.125168921251  60.2284450802393 76.4071747991583  60.2284450802393 76.4071747991583  C 60.2284450802393 76.4071747991583  58.4359185623995 72.2407376764833  58.4359185623995 72.2407376764833  C 58.4359185623995 72.2407376764833  61.6217654784008 61.6401433901419  61.6217654784008 61.6401433901419  C 61.6217654784008 61.6401433901419  57.0263060777314 40.771058580842  57.0263060777314 40.771058580842  C 57.0263060777314 40.771058580842  60.3508127299791 35.6179582192472  60.3508127299791 35.6179582192472  C 60.3508127299791 35.6179582192472  61.7140159682264 30.8899801149386  61.7140159682264 30.8899801149386  C 61.7140159682264 30.8899801149386  57.5329507678802 22.558317876024  57.5329507678802 22.558317876024  C 57.5329507678802 22.558317876024  61.4586176121289 16.6880107062515  61.4586176121289 16.6880107062515  C 61.4586176121289 16.6880107062515  62.2259746865912 11.2392347746979  62.2259746865912 11.2392347746979  C 62.2259746865912 11.2392347746979  64.3384599033269 7.08751273015605  64.3384599033269 7.08751273015605  C 64.3384599033269 7.08751273015605  64.0530803880374 2.21258684559385  64.0530803880374 2.21258684559385  C 64.0530803880374 2.21258684559385  62.2569528510771 0.91317994608815  62.2569528510771 0.91317994608815  C 62.2569528510771 0.91317994608815  59.3928926436777 3.91963090954462  59.3928926436777 3.91963090954462  C 59.3928926436777 3.91963090954462  51.7275709428545 4.32364105473118  51.7275709428545 4.32364105473118  C 51.7275709428545 4.32364105473118  47.805191116059 9.76495194664744  47.805191116059 9.76495194664744  C 47.805191116059 9.76495194664744  48.0957306587468 12.9198686984178  48.0957306587468 12.9198686984178  C 48.0957306587468 12.9198686984178  47.3386996391131 14.9266263537682  47.3386996391131 14.9266263537682  C 47.3386996391131 14.9266263537682  44.1806828708825 15.917166613274  44.1806828708825 15.917166613274  C 44.1806828708825 15.917166613274  31.7699959734299 32.0871664716803  31.7699959734299 32.0871664716803  C 31.7699959734299 32.0871664716803  30.267011992984 31.07464309545  30.267011992984 31.07464309545  C 30.267011992984 31.07464309545  26.9691424821724 30.3487392410933  26.9691424821724 30.3487392410933  C 26.9691424821724 30.3487392410933  20.2068045759534 30.7624584378324  20.2068045759534 30.7624584378324  C 20.2068045759534 30.7624584378324  17.9397565385302 33.7677003948694  17.9397565385302 33.7677003948694  C 17.9397565385302 33.7677003948694  17.6199548404681 40.3668354345245  17.6199548404681 40.3668354345245  C 17.6199548404681 40.3668354345245  18.6679424050039 42.3760081026979  18.6679424050039 42.3760081026979  C 18.6679424050039 42.3760081026979  30.216227723333 48.0027329791131  30.216227723333 48.0027329791131  C 30.216227723333 48.0027329791131  36.858075989784 51.7517118851958  36.858075989784 51.7517118851958  C 36.858075989784 51.7517118851958  37.898755515516 55.1968831781408  37.898755515516 55.1968831781408  C 37.898755515516 55.1968831781408  34.0923943047484 59.6325277302358  34.0923943047484 59.6325277302358  C 34.0923943047484 59.6325277302358  36.363459363501 65.2884217615315  36.363459363501 65.2884217615315  C 36.363459363501 65.2884217615315  34.8131341316856 67.7228056874639  34.8131341316856 67.7228056874639  C 34.8131341316856 67.7228056874639  26.2479316527344 68.4161203687808  26.2479316527344 68.4161203687808  C 26.2479316527344 68.4161203687808  24.4449040791366 69.4167256817293  24.4449040791366 69.4167256817293  C 24.4449040791366 69.4167256817293  25.0406142421995 70.8495332895573  25.0406142421995 70.8495332895573  C 25.0406142421995 70.8495332895573  25.0337142055621 73.1495455020116  25.0337142055621 73.1495455020116  C 25.0337142055621 73.1495455020116  18.2705242948192 73.8472662067232  18.2705242948192 73.8472662067232  C 18.2705242948192 73.8472662067232  14.6676711646256 72.114433005839  14.6676711646256 72.114433005839  C 14.6676711646256 72.114433005839  10.0096464317509 72.1004589316404  10.0096464317509 72.1004589316404  C 10.0096464317509 72.1004589316404  9.25564242818984 73.0982112294403  9.25564242818984 73.0982112294403  C 9.25564242818984 73.0982112294403  9.99932937697008 75.5394771919144  9.99932937697008 75.5394771919144  C 9.99932937697008 75.5394771919144  7.73700936465139 77.9687250905758  7.73700936465139 77.9687250905758  C 7.73700936465139 77.9687250905758  6.97883333893799 80.6904895424224  6.97883333893799 80.6904895424224  C 6.97883333893799 80.6904895424224  11.3255184186818 84.1495789092687  11.3255184186818 84.1495789092687  C 11.3255184186818 84.1495789092687  8.15100356285069 90.3061435989927  8.15100356285069 90.3061435989927  C 8.15100356285069 90.3061435989927  9.49755471267991 93.4622283569648  9.49755471267991 93.4622283569648  C 9.49755471267991 93.4622283569648  9.19324509687664 94.8973359770052  9.19324509687664 94.8973359770052  C 9.19324509687664 94.8973359770052  4.08221795867945 94.8820028955906  4.08221795867945 94.8820028955906  C 4.08221795867945 94.8820028955906  0.471038784276686 96.5911939709416  0.471038784276686 96.5911939709416  C 0.471038784276686 96.5911939709416  3.31486988426485 100.327778811215  3.31486988426485 100.327778811215  C 3.31486988426485 100.327778811215  1.50023224902077 105.198404672945  1.50023224902077 105.198404672945  C 1.50023224902077 105.198404672945  4.50652621164357 105.781431768664  4.50652621164357 105.781431768664  C 4.50652621164357 105.781431768664  4.79706875434738 108.935348515125  4.79706875434738 108.935348515125  C 4.79706875434738 108.935348515125  7.34722429499618 109.229003074353  7.34722429499618 109.229003074353  C 7.34722429499618 109.229003074353  16.6714308040574 107.537951095316  16.6714308040574 107.537951095316  C 16.6714308040574 107.537951095316  18.4762953874092 108.25837592058  18.4762953874092 108.25837592058  C 18.4762953874092 108.25837592058  18.9189777379349 110.699738883569  18.9189777379349 110.699738883569  C 18.9189777379349 110.699738883569  22.8219834618591 111.716462282101  22.8219834618591 111.716462282101  C 22.8219834618591 111.716462282101  31.0744112800599 115.613274973142  31.0744112800599 115.613274973142  C 31.0744112800599 115.613274973142  36.2266106368707 113.904706901099  36.2266106368707 113.904706901099  C 36.2266106368707 113.904706901099  46.432332826546 117.379373350655  46.432332826546 117.379373350655  C 46.432332826546 117.379373350655  48.5311779708566 120.107708837392  48.5311779708566 120.107708837392  C 48.5311779708566 120.107708837392  53.6422051090537 119.123027608996  53.6422051090537 119.123027608996  C 53.6422051090537 119.123027608996  52.9066902036649 113.957747182728  52.9066902036649 113.957747182728  C 52.9066902036649 113.957747182728  51.8599866459469 112.520586551787  51.8599866459469 112.520586551787  C 51.8599866459469 112.520586551787  52.9234692927574 108.364717485226  52.9234692927574 108.364717485226  C 52.9234692927574 108.364717485226  58.3398060520676 105.944931636805  58.3398060520676 105.944931636805  C 58.3398060520676 105.944931636805  59.7008372787822 103.940985996386  59.7008372787822 103.940985996386  C 59.7008372787822 103.940985996386  56.8458431195211 102.925406603929  56.8458431195211 102.925406603929  C 56.8458431195211 102.925406603929  53.6929713786092 102.200937757192  53.6929713786092 102.200937757192  C 53.6929713786092 102.200937757192  50.3964128747588 99.0380029628477  50.3964128747588 99.0380029628477  C 50.3964128747588 99.0380029628477  51.9002968599835 97.7504961265283  51.9002968599835 97.7504961265283  C 51.9002968599835 97.7504961265283  65.1243670762855 97.7901683371772  65.1243670762855 97.7901683371772  C 65.1243670762855 97.7901683371772  66.6213750250003 98.7946736708338  66.6213750250003 98.7946736708338  C 66.6213750250003 98.7946736708338  69.9287035860369 96.3675607835087  69.9287035860369 96.3675607835087  C 69.9287035860369 96.3675607835087  69.9411656522072 92.2135387267544  69.9411656522072 92.2135387267544  C 69.9411656522072 92.2135387267544  60.2182910263243 78.125168921251  60.2182910263243 78.125168921251  Z " fill-rule="evenodd" />
    </mask>
  </defs>
  <g transform="matrix(1 0 0 1 -1141 -351 )">
    <path d="M 60.2182910263243 78.125168921251  C 60.2182910263243 78.125168921251  60.2284450802393 76.4071747991583  60.2284450802393 76.4071747991583  C 60.2284450802393 76.4071747991583  58.4359185623995 72.2407376764833  58.4359185623995 72.2407376764833  C 58.4359185623995 72.2407376764833  61.6217654784008 61.6401433901419  61.6217654784008 61.6401433901419  C 61.6217654784008 61.6401433901419  57.0263060777314 40.771058580842  57.0263060777314 40.771058580842  C 57.0263060777314 40.771058580842  60.3508127299791 35.6179582192472  60.3508127299791 35.6179582192472  C 60.3508127299791 35.6179582192472  61.7140159682264 30.8899801149386  61.7140159682264 30.8899801149386  C 61.7140159682264 30.8899801149386  57.5329507678802 22.558317876024  57.5329507678802 22.558317876024  C 57.5329507678802 22.558317876024  61.4586176121289 16.6880107062515  61.4586176121289 16.6880107062515  C 61.4586176121289 16.6880107062515  62.2259746865912 11.2392347746979  62.2259746865912 11.2392347746979  C 62.2259746865912 11.2392347746979  64.3384599033269 7.08751273015605  64.3384599033269 7.08751273015605  C 64.3384599033269 7.08751273015605  64.0530803880374 2.21258684559385  64.0530803880374 2.21258684559385  C 64.0530803880374 2.21258684559385  62.2569528510771 0.91317994608815  62.2569528510771 0.91317994608815  C 62.2569528510771 0.91317994608815  59.3928926436777 3.91963090954462  59.3928926436777 3.91963090954462  C 59.3928926436777 3.91963090954462  51.7275709428545 4.32364105473118  51.7275709428545 4.32364105473118  C 51.7275709428545 4.32364105473118  47.805191116059 9.76495194664744  47.805191116059 9.76495194664744  C 47.805191116059 9.76495194664744  48.0957306587468 12.9198686984178  48.0957306587468 12.9198686984178  C 48.0957306587468 12.9198686984178  47.3386996391131 14.9266263537682  47.3386996391131 14.9266263537682  C 47.3386996391131 14.9266263537682  44.1806828708825 15.917166613274  44.1806828708825 15.917166613274  C 44.1806828708825 15.917166613274  31.7699959734299 32.0871664716803  31.7699959734299 32.0871664716803  C 31.7699959734299 32.0871664716803  30.267011992984 31.07464309545  30.267011992984 31.07464309545  C 30.267011992984 31.07464309545  26.9691424821724 30.3487392410933  26.9691424821724 30.3487392410933  C 26.9691424821724 30.3487392410933  20.2068045759534 30.7624584378324  20.2068045759534 30.7624584378324  C 20.2068045759534 30.7624584378324  17.9397565385302 33.7677003948694  17.9397565385302 33.7677003948694  C 17.9397565385302 33.7677003948694  17.6199548404681 40.3668354345245  17.6199548404681 40.3668354345245  C 17.6199548404681 40.3668354345245  18.6679424050039 42.3760081026979  18.6679424050039 42.3760081026979  C 18.6679424050039 42.3760081026979  30.216227723333 48.0027329791131  30.216227723333 48.0027329791131  C 30.216227723333 48.0027329791131  36.858075989784 51.7517118851958  36.858075989784 51.7517118851958  C 36.858075989784 51.7517118851958  37.898755515516 55.1968831781408  37.898755515516 55.1968831781408  C 37.898755515516 55.1968831781408  34.0923943047484 59.6325277302358  34.0923943047484 59.6325277302358  C 34.0923943047484 59.6325277302358  36.363459363501 65.2884217615315  36.363459363501 65.2884217615315  C 36.363459363501 65.2884217615315  34.8131341316856 67.7228056874639  34.8131341316856 67.7228056874639  C 34.8131341316856 67.7228056874639  26.2479316527344 68.4161203687808  26.2479316527344 68.4161203687808  C 26.2479316527344 68.4161203687808  24.4449040791366 69.4167256817293  24.4449040791366 69.4167256817293  C 24.4449040791366 69.4167256817293  25.0406142421995 70.8495332895573  25.0406142421995 70.8495332895573  C 25.0406142421995 70.8495332895573  25.0337142055621 73.1495455020116  25.0337142055621 73.1495455020116  C 25.0337142055621 73.1495455020116  18.2705242948192 73.8472662067232  18.2705242948192 73.8472662067232  C 18.2705242948192 73.8472662067232  14.6676711646256 72.114433005839  14.6676711646256 72.114433005839  C 14.6676711646256 72.114433005839  10.0096464317509 72.1004589316404  10.0096464317509 72.1004589316404  C 10.0096464317509 72.1004589316404  9.25564242818984 73.0982112294403  9.25564242818984 73.0982112294403  C 9.25564242818984 73.0982112294403  9.99932937697008 75.5394771919144  9.99932937697008 75.5394771919144  C 9.99932937697008 75.5394771919144  7.73700936465139 77.9687250905758  7.73700936465139 77.9687250905758  C 7.73700936465139 77.9687250905758  6.97883333893799 80.6904895424224  6.97883333893799 80.6904895424224  C 6.97883333893799 80.6904895424224  11.3255184186818 84.1495789092687  11.3255184186818 84.1495789092687  C 11.3255184186818 84.1495789092687  8.15100356285069 90.3061435989927  8.15100356285069 90.3061435989927  C 8.15100356285069 90.3061435989927  9.49755471267991 93.4622283569648  9.49755471267991 93.4622283569648  C 9.49755471267991 93.4622283569648  9.19324509687664 94.8973359770052  9.19324509687664 94.8973359770052  C 9.19324509687664 94.8973359770052  4.08221795867945 94.8820028955906  4.08221795867945 94.8820028955906  C 4.08221795867945 94.8820028955906  0.471038784276686 96.5911939709416  0.471038784276686 96.5911939709416  C 0.471038784276686 96.5911939709416  3.31486988426485 100.327778811215  3.31486988426485 100.327778811215  C 3.31486988426485 100.327778811215  1.50023224902077 105.198404672945  1.50023224902077 105.198404672945  C 1.50023224902077 105.198404672945  4.50652621164357 105.781431768664  4.50652621164357 105.781431768664  C 4.50652621164357 105.781431768664  4.79706875434738 108.935348515125  4.79706875434738 108.935348515125  C 4.79706875434738 108.935348515125  7.34722429499618 109.229003074353  7.34722429499618 109.229003074353  C 7.34722429499618 109.229003074353  16.6714308040574 107.537951095316  16.6714308040574 107.537951095316  C 16.6714308040574 107.537951095316  18.4762953874092 108.25837592058  18.4762953874092 108.25837592058  C 18.4762953874092 108.25837592058  18.9189777379349 110.699738883569  18.9189777379349 110.699738883569  C 18.9189777379349 110.699738883569  22.8219834618591 111.716462282101  22.8219834618591 111.716462282101  C 22.8219834618591 111.716462282101  31.0744112800599 115.613274973142  31.0744112800599 115.613274973142  C 31.0744112800599 115.613274973142  36.2266106368707 113.904706901099  36.2266106368707 113.904706901099  C 36.2266106368707 113.904706901099  46.432332826546 117.379373350655  46.432332826546 117.379373350655  C 46.432332826546 117.379373350655  48.5311779708566 120.107708837392  48.5311779708566 120.107708837392  C 48.5311779708566 120.107708837392  53.6422051090537 119.123027608996  53.6422051090537 119.123027608996  C 53.6422051090537 119.123027608996  52.9066902036649 113.957747182728  52.9066902036649 113.957747182728  C 52.9066902036649 113.957747182728  51.8599866459469 112.520586551787  51.8599866459469 112.520586551787  C 51.8599866459469 112.520586551787  52.9234692927574 108.364717485226  52.9234692927574 108.364717485226  C 52.9234692927574 108.364717485226  58.3398060520676 105.944931636805  58.3398060520676 105.944931636805  C 58.3398060520676 105.944931636805  59.7008372787822 103.940985996386  59.7008372787822 103.940985996386  C 59.7008372787822 103.940985996386  56.8458431195211 102.925406603929  56.8458431195211 102.925406603929  C 56.8458431195211 102.925406603929  53.6929713786092 102.200937757192  53.6929713786092 102.200937757192  C 53.6929713786092 102.200937757192  50.3964128747588 99.0380029628477  50.3964128747588 99.0380029628477  C 50.3964128747588 99.0380029628477  51.9002968599835 97.7504961265283  51.9002968599835 97.7504961265283  C 51.9002968599835 97.7504961265283  65.1243670762855 97.7901683371772  65.1243670762855 97.7901683371772  C 65.1243670762855 97.7901683371772  66.6213750250003 98.7946736708338  66.6213750250003 98.7946736708338  C 66.6213750250003 98.7946736708338  69.9287035860369 96.3675607835087  69.9287035860369 96.3675607835087  C 69.9287035860369 96.3675607835087  69.9411656522072 92.2135387267544  69.9411656522072 92.2135387267544  C 69.9411656522072 92.2135387267544  60.2182910263243 78.125168921251  60.2182910263243 78.125168921251  Z " fill-rule="nonzero" fill="#156fb8" stroke="none" transform="matrix(1 0 0 1 1141 351 )" />
    <path d="M 60.2182910263243 78.125168921251  C 60.2182910263243 78.125168921251  60.2284450802393 76.4071747991583  60.2284450802393 76.4071747991583  C 60.2284450802393 76.4071747991583  58.4359185623995 72.2407376764833  58.4359185623995 72.2407376764833  C 58.4359185623995 72.2407376764833  61.6217654784008 61.6401433901419  61.6217654784008 61.6401433901419  C 61.6217654784008 61.6401433901419  57.0263060777314 40.771058580842  57.0263060777314 40.771058580842  C 57.0263060777314 40.771058580842  60.3508127299791 35.6179582192472  60.3508127299791 35.6179582192472  C 60.3508127299791 35.6179582192472  61.7140159682264 30.8899801149386  61.7140159682264 30.8899801149386  C 61.7140159682264 30.8899801149386  57.5329507678802 22.558317876024  57.5329507678802 22.558317876024  C 57.5329507678802 22.558317876024  61.4586176121289 16.6880107062515  61.4586176121289 16.6880107062515  C 61.4586176121289 16.6880107062515  62.2259746865912 11.2392347746979  62.2259746865912 11.2392347746979  C 62.2259746865912 11.2392347746979  64.3384599033269 7.08751273015605  64.3384599033269 7.08751273015605  C 64.3384599033269 7.08751273015605  64.0530803880374 2.21258684559385  64.0530803880374 2.21258684559385  C 64.0530803880374 2.21258684559385  62.2569528510771 0.91317994608815  62.2569528510771 0.91317994608815  C 62.2569528510771 0.91317994608815  59.3928926436777 3.91963090954462  59.3928926436777 3.91963090954462  C 59.3928926436777 3.91963090954462  51.7275709428545 4.32364105473118  51.7275709428545 4.32364105473118  C 51.7275709428545 4.32364105473118  47.805191116059 9.76495194664744  47.805191116059 9.76495194664744  C 47.805191116059 9.76495194664744  48.0957306587468 12.9198686984178  48.0957306587468 12.9198686984178  C 48.0957306587468 12.9198686984178  47.3386996391131 14.9266263537682  47.3386996391131 14.9266263537682  C 47.3386996391131 14.9266263537682  44.1806828708825 15.917166613274  44.1806828708825 15.917166613274  C 44.1806828708825 15.917166613274  31.7699959734299 32.0871664716803  31.7699959734299 32.0871664716803  C 31.7699959734299 32.0871664716803  30.267011992984 31.07464309545  30.267011992984 31.07464309545  C 30.267011992984 31.07464309545  26.9691424821724 30.3487392410933  26.9691424821724 30.3487392410933  C 26.9691424821724 30.3487392410933  20.2068045759534 30.7624584378324  20.2068045759534 30.7624584378324  C 20.2068045759534 30.7624584378324  17.9397565385302 33.7677003948694  17.9397565385302 33.7677003948694  C 17.9397565385302 33.7677003948694  17.6199548404681 40.3668354345245  17.6199548404681 40.3668354345245  C 17.6199548404681 40.3668354345245  18.6679424050039 42.3760081026979  18.6679424050039 42.3760081026979  C 18.6679424050039 42.3760081026979  30.216227723333 48.0027329791131  30.216227723333 48.0027329791131  C 30.216227723333 48.0027329791131  36.858075989784 51.7517118851958  36.858075989784 51.7517118851958  C 36.858075989784 51.7517118851958  37.898755515516 55.1968831781408  37.898755515516 55.1968831781408  C 37.898755515516 55.1968831781408  34.0923943047484 59.6325277302358  34.0923943047484 59.6325277302358  C 34.0923943047484 59.6325277302358  36.363459363501 65.2884217615315  36.363459363501 65.2884217615315  C 36.363459363501 65.2884217615315  34.8131341316856 67.7228056874639  34.8131341316856 67.7228056874639  C 34.8131341316856 67.7228056874639  26.2479316527344 68.4161203687808  26.2479316527344 68.4161203687808  C 26.2479316527344 68.4161203687808  24.4449040791366 69.4167256817293  24.4449040791366 69.4167256817293  C 24.4449040791366 69.4167256817293  25.0406142421995 70.8495332895573  25.0406142421995 70.8495332895573  C 25.0406142421995 70.8495332895573  25.0337142055621 73.1495455020116  25.0337142055621 73.1495455020116  C 25.0337142055621 73.1495455020116  18.2705242948192 73.8472662067232  18.2705242948192 73.8472662067232  C 18.2705242948192 73.8472662067232  14.6676711646256 72.114433005839  14.6676711646256 72.114433005839  C 14.6676711646256 72.114433005839  10.0096464317509 72.1004589316404  10.0096464317509 72.1004589316404  C 10.0096464317509 72.1004589316404  9.25564242818984 73.0982112294403  9.25564242818984 73.0982112294403  C 9.25564242818984 73.0982112294403  9.99932937697008 75.5394771919144  9.99932937697008 75.5394771919144  C 9.99932937697008 75.5394771919144  7.73700936465139 77.9687250905758  7.73700936465139 77.9687250905758  C 7.73700936465139 77.9687250905758  6.97883333893799 80.6904895424224  6.97883333893799 80.6904895424224  C 6.97883333893799 80.6904895424224  11.3255184186818 84.1495789092687  11.3255184186818 84.1495789092687  C 11.3255184186818 84.1495789092687  8.15100356285069 90.3061435989927  8.15100356285069 90.3061435989927  C 8.15100356285069 90.3061435989927  9.49755471267991 93.4622283569648  9.49755471267991 93.4622283569648  C 9.49755471267991 93.4622283569648  9.19324509687664 94.8973359770052  9.19324509687664 94.8973359770052  C 9.19324509687664 94.8973359770052  4.08221795867945 94.8820028955906  4.08221795867945 94.8820028955906  C 4.08221795867945 94.8820028955906  0.471038784276686 96.5911939709416  0.471038784276686 96.5911939709416  C 0.471038784276686 96.5911939709416  3.31486988426485 100.327778811215  3.31486988426485 100.327778811215  C 3.31486988426485 100.327778811215  1.50023224902077 105.198404672945  1.50023224902077 105.198404672945  C 1.50023224902077 105.198404672945  4.50652621164357 105.781431768664  4.50652621164357 105.781431768664  C 4.50652621164357 105.781431768664  4.79706875434738 108.935348515125  4.79706875434738 108.935348515125  C 4.79706875434738 108.935348515125  7.34722429499618 109.229003074353  7.34722429499618 109.229003074353  C 7.34722429499618 109.229003074353  16.6714308040574 107.537951095316  16.6714308040574 107.537951095316  C 16.6714308040574 107.537951095316  18.4762953874092 108.25837592058  18.4762953874092 108.25837592058  C 18.4762953874092 108.25837592058  18.9189777379349 110.699738883569  18.9189777379349 110.699738883569  C 18.9189777379349 110.699738883569  22.8219834618591 111.716462282101  22.8219834618591 111.716462282101  C 22.8219834618591 111.716462282101  31.0744112800599 115.613274973142  31.0744112800599 115.613274973142  C 31.0744112800599 115.613274973142  36.2266106368707 113.904706901099  36.2266106368707 113.904706901099  C 36.2266106368707 113.904706901099  46.432332826546 117.379373350655  46.432332826546 117.379373350655  C 46.432332826546 117.379373350655  48.5311779708566 120.107708837392  48.5311779708566 120.107708837392  C 48.5311779708566 120.107708837392  53.6422051090537 119.123027608996  53.6422051090537 119.123027608996  C 53.6422051090537 119.123027608996  52.9066902036649 113.957747182728  52.9066902036649 113.957747182728  C 52.9066902036649 113.957747182728  51.8599866459469 112.520586551787  51.8599866459469 112.520586551787  C 51.8599866459469 112.520586551787  52.9234692927574 108.364717485226  52.9234692927574 108.364717485226  C 52.9234692927574 108.364717485226  58.3398060520676 105.944931636805  58.3398060520676 105.944931636805  C 58.3398060520676 105.944931636805  59.7008372787822 103.940985996386  59.7008372787822 103.940985996386  C 59.7008372787822 103.940985996386  56.8458431195211 102.925406603929  56.8458431195211 102.925406603929  C 56.8458431195211 102.925406603929  53.6929713786092 102.200937757192  53.6929713786092 102.200937757192  C 53.6929713786092 102.200937757192  50.3964128747588 99.0380029628477  50.3964128747588 99.0380029628477  C 50.3964128747588 99.0380029628477  51.9002968599835 97.7504961265283  51.9002968599835 97.7504961265283  C 51.9002968599835 97.7504961265283  65.1243670762855 97.7901683371772  65.1243670762855 97.7901683371772  C 65.1243670762855 97.7901683371772  66.6213750250003 98.7946736708338  66.6213750250003 98.7946736708338  C 66.6213750250003 98.7946736708338  69.9287035860369 96.3675607835087  69.9287035860369 96.3675607835087  C 69.9287035860369 96.3675607835087  69.9411656522072 92.2135387267544  69.9411656522072 92.2135387267544  C 69.9411656522072 92.2135387267544  60.2182910263243 78.125168921251  60.2182910263243 78.125168921251  Z " stroke-width="0.97600957434184" stroke="#199eae" fill="none" transform="matrix(1 0 0 1 1141 351 )" mask="url(#clip1478)" />
  </g>
</svg>