<?xml version="1.0" encoding="utf-8"?>
<svg version="1.1" xmlns:xlink="http://www.w3.org/1999/xlink" width="91px" height="59px" xmlns="http://www.w3.org/2000/svg">
  <g transform="matrix(1 0 0 1 -1259 -362 )">
    <path d="M 18.0453706479858 57.7935133726374  L 20.6015532206366 57.0781715743624  L 21.3638802683907 53.6394093154477  L 24.5207640306055 52.3598615213887  L 30.3706020916925 57.1084787352854  L 32.1706116492653 57.1138787639582  L 37.5823563841931 56.5581058129513  L 40.74468717533 54.1295579180067  L 45.0933872657731 57.583653258336  L 46.9028618736028 54.4340365347074  L 47.3560302798066 52.7133713984323  L 50.9710704747104 50.7171877992274  L 52.0345501215051 46.5623187379757  L 55.6427172799147 45.8571329936266  L 65.7654010286781 29.6772690828447  L 63.9735725145445 26.9448545744492  L 65.7787420995156 25.23024547033  L 67.8766022385961 25.9535493108813  L 71.1887798253797 24.2434612307676  L 73.0059704741797 20.5218594700503  L 81.2899684600095 13.2286067448146  L 87.7590208089601 11.2419851963816  L 90.7672147816714 8.52497076975638  L 90.037847908927 2.64369854176226  L 85.6771117545758 2.2016101943905  L 75.908618886472 3.31932112913881  L 69.15405102151 0.143012263781998  L 65.0938754630556 0.848842011550545  L 54.9908288185601 13.1497093258903  L 52.1286476211379 14.8631474237916  L 45.677785368772 12.1197558571108  L 45.2352540190481 8.96138308698986  L 43.9005939323573 3.5083011325724  L 40.2966017961159 1.48846040775439  L 34.4346946709454 2.76289317465407  L 30.8057944024483 0.378972516668256  L 25.4051727265811 6.89386410901301  L 19.6908403849934 8.31074163225648  L 11.7031459724568 15.1708770577544  L 2.94192545270175 30.2028088733215  L 5.18145434400549 34.3705870031169  L 4.72928594311145 36.0912551394078  L 4.72326791115734 38.0972657907918  L 5.91811125545826 39.8218749480085  L 8.77715643622901 37.8204233208318  L 13.4391811903428 36.8343950852837  L 0.786097005824786 50.1356267112923  L 0.776631955567836 53.2906434635936  L 3.32849150526465 54.0163093166867  L 9.02432274861644 58.7664645387497  L 18.0453706479858 57.7935133726374  Z " fill-rule="nonzero" fill="#4599d5" stroke="none" transform="matrix(1 0 0 1 1259 362 )" />
  </g>
</svg>