<?xml version="1.0" encoding="utf-8"?>
<svg version="1.1" xmlns:xlink="http://www.w3.org/1999/xlink" width="85px" height="73px" xmlns="http://www.w3.org/2000/svg">
  <defs>
    <mask fill="white" id="clip1479">
      <path d="M 10.454181066448 46.2060776871382  C 10.454181066448 46.2060776871382  10.4446890160478 50.370108797038  10.4446890160478 50.370108797038  C 10.4446890160478 50.370108797038  22.2876348989463 60.4447812908742  22.2876348989463 60.4447812908742  C 22.2876348989463 60.4447812908742  32.051662743342 62.4821021085068  32.051662743342 62.4821021085068  C 32.051662743342 62.4821021085068  41.0695866261237 61.21713739188  41.0695866261237 61.21713739188  C 41.0695866261237 61.21713739188  44.4057283401505 62.5191643052972  44.4057283401505 62.5191643052972  C 44.4057283401505 62.5191643052972  47.5699111411211 60.8066322122065  47.5699111411211 60.8066322122065  C 47.5699111411211 60.8066322122065  49.8164670697366 62.9654026747045  49.8164670697366 62.9654026747045  C 49.8164670697366 62.9654026747045  50.8581496007943 66.4095769623556  50.8581496007943 66.4095769623556  C 50.8581496007943 66.4095769623556  55.2092907041984 68.7166632123711  55.2092907041984 68.7166632123711  C 55.2092907041984 68.7166632123711  60.9193210229435 68.7337933033273  60.9193210229435 68.7337933033273  C 60.9193210229435 68.7337933033273  65.2700061239264 72.1928946702373  65.2700061239264 72.1928946702373  C 65.2700061239264 72.1928946702373  69.1811958913056 70.4816035837359  69.1811958913056 70.4816035837359  C 69.1811958913056 70.4816035837359  72.1830398302999 72.2146337856662  72.1830398302999 72.2146337856662  C 72.1830398302999 72.2146337856662  74.5972576491556 67.48680868217  74.5972576491556 67.48680868217  C 74.5972576491556 67.48680868217  78.2084398235742 65.7766176015094  78.2084398235742 65.7766176015094  C 78.2084398235742 65.7766176015094  78.9740688888613 61.9038590381897  78.9740688888613 61.9038590381897  C 78.9740688888613 61.9038590381897  77.640704809052 55.0187604801442  77.640704809052 55.0187604801442  C 77.640704809052 55.0187604801442  76.8934318412309 54.4395104044801  76.8934318412309 54.4395104044801  C 76.8934318412309 54.4395104044801  73.2750746287148 57.8747046444495  73.2750746287148 57.8747046444495  C 73.2750746287148 57.8747046444495  67.87852897449 53.6974554643654  67.87852897449 53.6974554643654  C 67.87852897449 53.6974554643654  63.8361295104221 48.8112585199568  63.8361295104221 48.8112585199568  C 63.8361295104221 48.8112585199568  67.9013290955527 46.0974151101688  67.9013290955527 46.0974151101688  C 67.9013290955527 46.0974151101688  68.9669627537846 41.2245422365075  68.9669627537846 41.2245422365075  C 68.9669627537846 41.2245422365075  71.5231423264195 39.5101861337317  71.5231423264195 39.5101861337317  C 71.5231423264195 39.5101861337317  71.095966058227 32.5668052662227  71.095966058227 32.5668052662227  C 71.095966058227 32.5668052662227  72.9002776386424 31.1381976806957  72.9002776386424 31.1381976806957  C 72.9002776386424 31.1381976806957  76.1988361531123 33.3011241652611  76.1988361531123 33.3011241652611  C 76.1988361531123 33.3011241652611  78.2892112524491 36.5194412536704  78.2892112524491 36.5194412536704  C 78.2892112524491 36.5194412536704  82.6588704541795 33.3205042681643  82.6588704541795 33.3205042681643  C 82.6588704541795 33.3205042681643  84.1640504462856 31.6009951380273  84.1640504462856 31.6009951380273  C 84.1640504462856 31.6009951380273  83.4235085142045 28.4447283790888  83.4235085142045 28.4447283790888  C 83.4235085142045 28.4447283790888  78.319653414089 25.7053778338646  78.319653414089 25.7053778338646  C 78.319653414089 25.7053778338646  77.2771098784597 22.5482050701154  77.2771098784597 22.5482050701154  C 77.2771098784597 22.5482050701154  68.2590469949398 23.5261652628245  68.2590469949398 23.5261652628245  C 68.2590469949398 23.5261652628245  62.563218751604 18.7750100354515  62.563218751604 18.7750100354515  C 62.563218751604 18.7750100354515  60.0133592125268 18.0493501823904  60.0133592125268 18.0493501823904  C 60.0133592125268 18.0493501823904  60.0228242627837 14.894333430089  60.0228242627837 14.894333430089  C 60.0228242627837 14.894333430089  72.6839054897636 1.59412580951755  72.6839054897636 1.59412580951755  C 72.6839054897636 1.59412580951755  68.0218807356499 2.58015404506574  68.0218807356499 2.58015404506574  C 68.0218807356499 2.58015404506574  65.1618325495533 4.58260267753639  65.1618325495533 4.58260267753639  C 65.1618325495533 4.58260267753639  63.9669892052523 2.85799352031967  63.9669892052523 2.85799352031967  C 63.9669892052523 2.85799352031967  63.9730102372224 0.850982863625859  63.9730102372224 0.850982863625859  C 63.9730102372224 0.850982863625859  61.8751590981898 0.124679007145176  61.8751590981898 0.124679007145176  C 61.8751590981898 0.124679007145176  56.1566757345613 2.2585543374567  56.1566757345613 2.2585543374567  C 56.1566757345613 2.2585543374567  41.2487595774843 0.492805961801594  41.2487595774843 0.492805961801594  C 41.2487595774843 0.492805961801594  40.4637594093418 11.8226131200697  40.4637594093418 11.8226131200697  C 40.4637594093418 11.8226131200697  33.5352306206934 16.9659014295651  33.5352306206934 16.9659014295651  C 33.5352306206934 16.9659014295651  24.2140211275457 18.6579624139598  24.2140211275457 18.6579624139598  C 24.2140211275457 18.6579624139598  11.1121515600965 27.2187798696277  11.1121515600965 27.2187798696277  C 11.1121515600965 27.2187798696277  0.737921475689063 29.9126961736081  0.737921475689063 29.9126961736081  C 0.737921475689063 29.9126961736081  0.732755448258843 31.6347053170195  0.732755448258843 31.6347053170195  C 0.732755448258843 31.6347053170195  10.454181066448 46.2060776871382  10.454181066448 46.2060776871382  Z " fill-rule="evenodd" />
    </mask>
  </defs>
  <g transform="matrix(1 0 0 1 -1200 -397 )">
    <path d="M 10.454181066448 46.2060776871382  C 10.454181066448 46.2060776871382  10.4446890160478 50.370108797038  10.4446890160478 50.370108797038  C 10.4446890160478 50.370108797038  22.2876348989463 60.4447812908742  22.2876348989463 60.4447812908742  C 22.2876348989463 60.4447812908742  32.051662743342 62.4821021085068  32.051662743342 62.4821021085068  C 32.051662743342 62.4821021085068  41.0695866261237 61.21713739188  41.0695866261237 61.21713739188  C 41.0695866261237 61.21713739188  44.4057283401505 62.5191643052972  44.4057283401505 62.5191643052972  C 44.4057283401505 62.5191643052972  47.5699111411211 60.8066322122065  47.5699111411211 60.8066322122065  C 47.5699111411211 60.8066322122065  49.8164670697366 62.9654026747045  49.8164670697366 62.9654026747045  C 49.8164670697366 62.9654026747045  50.8581496007943 66.4095769623556  50.8581496007943 66.4095769623556  C 50.8581496007943 66.4095769623556  55.2092907041984 68.7166632123711  55.2092907041984 68.7166632123711  C 55.2092907041984 68.7166632123711  60.9193210229435 68.7337933033273  60.9193210229435 68.7337933033273  C 60.9193210229435 68.7337933033273  65.2700061239264 72.1928946702373  65.2700061239264 72.1928946702373  C 65.2700061239264 72.1928946702373  69.1811958913056 70.4816035837359  69.1811958913056 70.4816035837359  C 69.1811958913056 70.4816035837359  72.1830398302999 72.2146337856662  72.1830398302999 72.2146337856662  C 72.1830398302999 72.2146337856662  74.5972576491556 67.48680868217  74.5972576491556 67.48680868217  C 74.5972576491556 67.48680868217  78.2084398235742 65.7766176015094  78.2084398235742 65.7766176015094  C 78.2084398235742 65.7766176015094  78.9740688888613 61.9038590381897  78.9740688888613 61.9038590381897  C 78.9740688888613 61.9038590381897  77.640704809052 55.0187604801442  77.640704809052 55.0187604801442  C 77.640704809052 55.0187604801442  76.8934318412309 54.4395104044801  76.8934318412309 54.4395104044801  C 76.8934318412309 54.4395104044801  73.2750746287148 57.8747046444495  73.2750746287148 57.8747046444495  C 73.2750746287148 57.8747046444495  67.87852897449 53.6974554643654  67.87852897449 53.6974554643654  C 67.87852897449 53.6974554643654  63.8361295104221 48.8112585199568  63.8361295104221 48.8112585199568  C 63.8361295104221 48.8112585199568  67.9013290955527 46.0974151101688  67.9013290955527 46.0974151101688  C 67.9013290955527 46.0974151101688  68.9669627537846 41.2245422365075  68.9669627537846 41.2245422365075  C 68.9669627537846 41.2245422365075  71.5231423264195 39.5101861337317  71.5231423264195 39.5101861337317  C 71.5231423264195 39.5101861337317  71.095966058227 32.5668052662227  71.095966058227 32.5668052662227  C 71.095966058227 32.5668052662227  72.9002776386424 31.1381976806957  72.9002776386424 31.1381976806957  C 72.9002776386424 31.1381976806957  76.1988361531123 33.3011241652611  76.1988361531123 33.3011241652611  C 76.1988361531123 33.3011241652611  78.2892112524491 36.5194412536704  78.2892112524491 36.5194412536704  C 78.2892112524491 36.5194412536704  82.6588704541795 33.3205042681643  82.6588704541795 33.3205042681643  C 82.6588704541795 33.3205042681643  84.1640504462856 31.6009951380273  84.1640504462856 31.6009951380273  C 84.1640504462856 31.6009951380273  83.4235085142045 28.4447283790888  83.4235085142045 28.4447283790888  C 83.4235085142045 28.4447283790888  78.319653414089 25.7053778338646  78.319653414089 25.7053778338646  C 78.319653414089 25.7053778338646  77.2771098784597 22.5482050701154  77.2771098784597 22.5482050701154  C 77.2771098784597 22.5482050701154  68.2590469949398 23.5261652628245  68.2590469949398 23.5261652628245  C 68.2590469949398 23.5261652628245  62.563218751604 18.7750100354515  62.563218751604 18.7750100354515  C 62.563218751604 18.7750100354515  60.0133592125268 18.0493501823904  60.0133592125268 18.0493501823904  C 60.0133592125268 18.0493501823904  60.0228242627837 14.894333430089  60.0228242627837 14.894333430089  C 60.0228242627837 14.894333430089  72.6839054897636 1.59412580951755  72.6839054897636 1.59412580951755  C 72.6839054897636 1.59412580951755  68.0218807356499 2.58015404506574  68.0218807356499 2.58015404506574  C 68.0218807356499 2.58015404506574  65.1618325495533 4.58260267753639  65.1618325495533 4.58260267753639  C 65.1618325495533 4.58260267753639  63.9669892052523 2.85799352031967  63.9669892052523 2.85799352031967  C 63.9669892052523 2.85799352031967  63.9730102372224 0.850982863625859  63.9730102372224 0.850982863625859  C 63.9730102372224 0.850982863625859  61.8751590981898 0.124679007145176  61.8751590981898 0.124679007145176  C 61.8751590981898 0.124679007145176  56.1566757345613 2.2585543374567  56.1566757345613 2.2585543374567  C 56.1566757345613 2.2585543374567  41.2487595774843 0.492805961801594  41.2487595774843 0.492805961801594  C 41.2487595774843 0.492805961801594  40.4637594093418 11.8226131200697  40.4637594093418 11.8226131200697  C 40.4637594093418 11.8226131200697  33.5352306206934 16.9659014295651  33.5352306206934 16.9659014295651  C 33.5352306206934 16.9659014295651  24.2140211275457 18.6579624139598  24.2140211275457 18.6579624139598  C 24.2140211275457 18.6579624139598  11.1121515600965 27.2187798696277  11.1121515600965 27.2187798696277  C 11.1121515600965 27.2187798696277  0.737921475689063 29.9126961736081  0.737921475689063 29.9126961736081  C 0.737921475689063 29.9126961736081  0.732755448258843 31.6347053170195  0.732755448258843 31.6347053170195  C 0.732755448258843 31.6347053170195  10.454181066448 46.2060776871382  10.454181066448 46.2060776871382  Z " fill-rule="nonzero" fill="#184799" stroke="none" transform="matrix(1 0 0 1 1200 397 )" />
    <path d="M 10.454181066448 46.2060776871382  C 10.454181066448 46.2060776871382  10.4446890160478 50.370108797038  10.4446890160478 50.370108797038  C 10.4446890160478 50.370108797038  22.2876348989463 60.4447812908742  22.2876348989463 60.4447812908742  C 22.2876348989463 60.4447812908742  32.051662743342 62.4821021085068  32.051662743342 62.4821021085068  C 32.051662743342 62.4821021085068  41.0695866261237 61.21713739188  41.0695866261237 61.21713739188  C 41.0695866261237 61.21713739188  44.4057283401505 62.5191643052972  44.4057283401505 62.5191643052972  C 44.4057283401505 62.5191643052972  47.5699111411211 60.8066322122065  47.5699111411211 60.8066322122065  C 47.5699111411211 60.8066322122065  49.8164670697366 62.9654026747045  49.8164670697366 62.9654026747045  C 49.8164670697366 62.9654026747045  50.8581496007943 66.4095769623556  50.8581496007943 66.4095769623556  C 50.8581496007943 66.4095769623556  55.2092907041984 68.7166632123711  55.2092907041984 68.7166632123711  C 55.2092907041984 68.7166632123711  60.9193210229435 68.7337933033273  60.9193210229435 68.7337933033273  C 60.9193210229435 68.7337933033273  65.2700061239264 72.1928946702373  65.2700061239264 72.1928946702373  C 65.2700061239264 72.1928946702373  69.1811958913056 70.4816035837359  69.1811958913056 70.4816035837359  C 69.1811958913056 70.4816035837359  72.1830398302999 72.2146337856662  72.1830398302999 72.2146337856662  C 72.1830398302999 72.2146337856662  74.5972576491556 67.48680868217  74.5972576491556 67.48680868217  C 74.5972576491556 67.48680868217  78.2084398235742 65.7766176015094  78.2084398235742 65.7766176015094  C 78.2084398235742 65.7766176015094  78.9740688888613 61.9038590381897  78.9740688888613 61.9038590381897  C 78.9740688888613 61.9038590381897  77.640704809052 55.0187604801442  77.640704809052 55.0187604801442  C 77.640704809052 55.0187604801442  76.8934318412309 54.4395104044801  76.8934318412309 54.4395104044801  C 76.8934318412309 54.4395104044801  73.2750746287148 57.8747046444495  73.2750746287148 57.8747046444495  C 73.2750746287148 57.8747046444495  67.87852897449 53.6974554643654  67.87852897449 53.6974554643654  C 67.87852897449 53.6974554643654  63.8361295104221 48.8112585199568  63.8361295104221 48.8112585199568  C 63.8361295104221 48.8112585199568  67.9013290955527 46.0974151101688  67.9013290955527 46.0974151101688  C 67.9013290955527 46.0974151101688  68.9669627537846 41.2245422365075  68.9669627537846 41.2245422365075  C 68.9669627537846 41.2245422365075  71.5231423264195 39.5101861337317  71.5231423264195 39.5101861337317  C 71.5231423264195 39.5101861337317  71.095966058227 32.5668052662227  71.095966058227 32.5668052662227  C 71.095966058227 32.5668052662227  72.9002776386424 31.1381976806957  72.9002776386424 31.1381976806957  C 72.9002776386424 31.1381976806957  76.1988361531123 33.3011241652611  76.1988361531123 33.3011241652611  C 76.1988361531123 33.3011241652611  78.2892112524491 36.5194412536704  78.2892112524491 36.5194412536704  C 78.2892112524491 36.5194412536704  82.6588704541795 33.3205042681643  82.6588704541795 33.3205042681643  C 82.6588704541795 33.3205042681643  84.1640504462856 31.6009951380273  84.1640504462856 31.6009951380273  C 84.1640504462856 31.6009951380273  83.4235085142045 28.4447283790888  83.4235085142045 28.4447283790888  C 83.4235085142045 28.4447283790888  78.319653414089 25.7053778338646  78.319653414089 25.7053778338646  C 78.319653414089 25.7053778338646  77.2771098784597 22.5482050701154  77.2771098784597 22.5482050701154  C 77.2771098784597 22.5482050701154  68.2590469949398 23.5261652628245  68.2590469949398 23.5261652628245  C 68.2590469949398 23.5261652628245  62.563218751604 18.7750100354515  62.563218751604 18.7750100354515  C 62.563218751604 18.7750100354515  60.0133592125268 18.0493501823904  60.0133592125268 18.0493501823904  C 60.0133592125268 18.0493501823904  60.0228242627837 14.894333430089  60.0228242627837 14.894333430089  C 60.0228242627837 14.894333430089  72.6839054897636 1.59412580951755  72.6839054897636 1.59412580951755  C 72.6839054897636 1.59412580951755  68.0218807356499 2.58015404506574  68.0218807356499 2.58015404506574  C 68.0218807356499 2.58015404506574  65.1618325495533 4.58260267753639  65.1618325495533 4.58260267753639  C 65.1618325495533 4.58260267753639  63.9669892052523 2.85799352031967  63.9669892052523 2.85799352031967  C 63.9669892052523 2.85799352031967  63.9730102372224 0.850982863625859  63.9730102372224 0.850982863625859  C 63.9730102372224 0.850982863625859  61.8751590981898 0.124679007145176  61.8751590981898 0.124679007145176  C 61.8751590981898 0.124679007145176  56.1566757345613 2.2585543374567  56.1566757345613 2.2585543374567  C 56.1566757345613 2.2585543374567  41.2487595774843 0.492805961801594  41.2487595774843 0.492805961801594  C 41.2487595774843 0.492805961801594  40.4637594093418 11.8226131200697  40.4637594093418 11.8226131200697  C 40.4637594093418 11.8226131200697  33.5352306206934 16.9659014295651  33.5352306206934 16.9659014295651  C 33.5352306206934 16.9659014295651  24.2140211275457 18.6579624139598  24.2140211275457 18.6579624139598  C 24.2140211275457 18.6579624139598  11.1121515600965 27.2187798696277  11.1121515600965 27.2187798696277  C 11.1121515600965 27.2187798696277  0.737921475689063 29.9126961736081  0.737921475689063 29.9126961736081  C 0.737921475689063 29.9126961736081  0.732755448258843 31.6347053170195  0.732755448258843 31.6347053170195  C 0.732755448258843 31.6347053170195  10.454181066448 46.2060776871382  10.454181066448 46.2060776871382  Z " stroke-width="0.97600957434184" stroke="#199eae" fill="none" transform="matrix(1 0 0 1 1200 397 )" mask="url(#clip1479)" />
  </g>
</svg>