<?xml version="1.0" encoding="utf-8"?>
<svg version="1.1" xmlns:xlink="http://www.w3.org/1999/xlink" width="49px" height="96px" xmlns="http://www.w3.org/2000/svg">
  <g transform="matrix(1 0 0 1 -1197 -332 )">
    <path d="M 2.19964030782472 90.9990253930553  L 3.98517578854398 95.1624414996894  L 14.3604148783091 92.4655281797957  L 27.458284424519 83.9046987240641  L 36.782499933628 82.2106467290977  L 43.7110287222765 77.0673584196023  L 44.4960168903552 65.7415512825733  L 41.2004883919738 61.5686051253371  L 42.2648050432126 58.1347488924721  L 44.5282820616746 54.9864941760754  L 45.1424813229097 50.2562690598357  L 47.4068283459913 46.8180128036079  L 43.8194552979928 39.925152204348  L 38.7282072648174 34.3167984254784  L 41.6079045552455 25.4313102458952  L 47.7805473303399 21.5797727952538  L 48.8487700023186 15.8438953392673  L 46.4642433411152 10.674667892042  L 46.4831824416768 4.36163437151001  L 42.4364779547503 0.910445046610903  L 33.1066614159014 5.47152126471471  L 31.6109554741 4.03301362662108  L 26.6426060934837 7.45915781853716  L 22.5864425563322 7.16098523531988  L 14.5877000851332 18.0371449848407  L 12.1816873098442 18.0299269465148  L 7.81533812568915 21.4588771533301  L 8.10071764097864 26.3338030378923  L 5.98823242424299 30.4855250824341  L 5.22087534978067 35.9343010139877  L 1.29520850553189 41.8046081837603  L 5.4762737058781 50.1362704226749  L 4.11307046763085 54.8642485269834  L 0.7885638153831 60.0173488885783  L 5.38548722382598 80.398431106714  L 2.19964030782472 90.9990253930553  Z " fill-rule="nonzero" fill="#4599d5" stroke="none" transform="matrix(1 0 0 1 1197 332 )" />
  </g>
</svg>