<?xml version="1.0" encoding="utf-8"?>
<svg version="1.1" xmlns:xlink="http://www.w3.org/1999/xlink" width="310px" height="266px" xmlns="http://www.w3.org/2000/svg">
  <defs>
    <mask fill="white" id="clip1481">
      <path d="M 83.6995861836435 265.304032171852  C 83.6995861836435 265.304032171852  87.3369844972628 264.521933019113  87.3369844972628 264.521933019113  C 87.3369844972628 264.521933019113  91.6768245406612 263.595939102332  91.6768245406612 263.595939102332  C 91.6768245406612 263.595939102332  95.2891367210798 262.175755561534  95.2891367210798 262.175755561534  C 95.2891367210798 262.175755561534  101.315373718798 257.458766515575  101.315373718798 257.458766515575  C 101.315373718798 257.458766515575  102.538180211576 249.862326180493  102.538180211576 249.862326180493  C 102.538180211576 249.862326180493  106.171334502661 238.828067591509  106.171334502661 238.828067591509  C 106.171334502661 238.828067591509  113.69800246727 233.974577820767  113.69800246727 233.974577820767  C 113.69800246727 233.974577820767  114.749570050814 235.123748922561  114.749570050814 235.123748922561  C 114.749570050814 235.123748922561  116.981204900203 242.589550563985  116.981204900203 242.589550563985  C 116.981204900203 242.589550563985  113.364548696719 247.45777041294  113.364548696719 247.45777041294  C 113.364548696719 247.45777041294  112.600206638265 251.901541008182  112.600206638265 251.901541008182  C 112.600206638265 251.901541008182  124.15680600074 256.090270249223  124.15680600074 256.090270249223  C 124.15680600074 256.090270249223  125.19833453098 259.252440039505  125.19833453098 259.252440039505  C 125.19833453098 259.252440039505  131.960672437199 258.838720842766  131.960672437199 258.838720842766  C 131.960672437199 258.838720842766  135.258535947978 259.566624707742  135.258535947978 259.566624707742  C 135.258535947978 259.566624707742  136.761525928456 260.577148073353  136.761525928456 260.577148073353  C 136.761525928456 260.577148073353  148.692207277207 244.40670821261  148.692207277207 244.40670821261  C 148.692207277207 244.40670821261  151.850224045437 243.416167953104  151.850224045437 243.416167953104  C 151.850224045437 243.416167953104  152.607246065023 241.412410313683  152.607246065023 241.412410313683  C 152.607246065023 241.412410313683  152.316715522383 238.254493545983  152.316715522383 238.254493545983  C 152.316715522383 238.254493545983  156.727091940311 232.81664667246  156.727091940311 232.81664667246  C 156.727091940311 232.81664667246  164.392419641166 232.410636516654  164.392419641166 232.410636516654  C 164.392419641166 232.410636516654  167.258473859153 229.406191563849  167.258473859153 229.406191563849  C 167.258473859153 229.406191563849  169.054604396129 230.704598458045  169.054604396129 230.704598458045  C 169.054604396129 230.704598458045  173.420959580316 227.27364824061  173.420959580316 227.27364824061  C 173.420959580316 227.27364824061  175.820972323747 227.28084827884  175.820972323747 227.28084827884  C 175.820972323747 227.28084827884  183.818714789636 216.404685529304  183.818714789636 216.404685529304  C 183.818714789636 216.404685529304  187.877881342733 216.701867107259  187.877881342733 216.701867107259  C 187.877881342733 216.701867107259  192.846230723349 213.275722915343  192.846230723349 213.275722915343  C 192.846230723349 213.275722915343  194.341939665166 214.713230548127  194.341939665166 214.713230548127  C 194.341939665166 214.713230548127  203.671756204015 210.152154330023  203.671756204015 210.152154330023  C 203.671756204015 210.152154330023  199.039108605886 202.679149650352  199.039108605886 202.679149650352  C 199.039108605886 202.679149650352  200.561916691593 195.08360932005  200.561916691593 195.08360932005  C 200.561916691593 195.08360932005  204.497598589019 187.208303504266  204.497598589019 187.208303504266  C 204.497598589019 187.208303504266  207.801915134063 185.785195947943  207.801915134063 185.785195947943  C 207.801915134063 185.785195947943  209.898926268635 186.791501291157  209.898926268635 186.791501291157  C 209.898926268635 186.791501291157  209.882147179543 192.38453098866  209.882147179543 192.38453098866  C 209.882147179543 192.38453098866  212.43399172916 194.115211178112  212.43399172916 194.115211178112  C 212.43399172916 194.115211178112  218.15650211417 189.972319180456  218.15650211417 189.972319180456  C 218.15650211417 189.972319180456  220.718835719482 187.539971265334  220.718835719482 187.539971265334  C 220.718835719482 187.539971265334  223.267849254067 188.547632615748  223.267849254067 188.547632615748  C 223.267849254067 188.547632615748  226.131178457585 186.118187716041  226.131178457585 186.118187716041  C 226.131178457585 186.118187716041  232.292063170247 185.852666306193  232.292063170247 185.852666306193  C 232.292063170247 185.852666306193  233.351089793397 183.848814666273  233.351089793397 183.848814666273  C 233.351089793397 183.848814666273  231.860555879058 180.686297874148  231.860555879058 180.686297874148  C 231.860555879058 180.686297874148  236.232056090563 176.540352860281  236.232056090563 176.540352860281  C 236.232056090563 176.540352860281  241.348397256977 174.117666996462  241.348397256977 174.117666996462  C 241.348397256977 174.117666996462  249.284479395466 182.461594300501  249.284479395466 182.461594300501  C 249.284479395466 182.461594300501  248.829017977087 185.613273035078  248.829017977087 185.613273035078  C 248.829017977087 185.613273035078  252.865825411462 191.363465567074  252.865825411462 191.363465567074  C 252.865825411462 191.363465567074  262.178726860497 192.107414517245  262.178726860497 192.107414517245  C 262.178726860497 192.107414517245  264.296215103797 187.954707467473  264.296215103797 187.954707467473  C 264.296215103797 187.954707467473  261.939337589403 175.902464473263  261.939337589403 175.902464473263  C 261.939337589403 175.902464473263  264.045369771875 173.90175385002  264.045369771875 173.90175385002  C 264.045369771875 173.90175385002  268.395217868413 176.639842388544  268.395217868413 176.639842388544  C 268.395217868413 176.639842388544  272.278456487379 182.24557215348  272.278456487379 182.24557215348  C 272.278456487379 182.24557215348  278.469591360662 173.230016283272  278.469591360662 173.230016283272  C 278.469591360662 173.230016283272  281.326760531472 172.520577516341  281.326760531472 172.520577516341  C 281.326760531472 172.520577516341  285.996126324564 168.087521977993  285.996126324564 168.087521977993  C 285.996126324564 168.087521977993  288.253138308699 168.094293013945  288.253138308699 168.094293013945  C 288.253138308699 168.094293013945  292.170343108016 164.37799128137  292.170343108016 164.37799128137  C 292.170343108016 164.37799128137  294.423355070912 164.384750317258  294.423355070912 164.384750317258  C 294.423355070912 164.384750317258  296.533695276258 160.948032069197  296.533695276258 160.948032069197  C 296.533695276258 160.948032069197  302.248725621552 160.965177160233  302.248725621552 160.965177160233  C 302.248725621552 160.965177160233  307.369383810887 156.103469345855  307.369383810887 156.103469345855  C 307.369383810887 156.103469345855  309.929708405531 153.674115446631  309.929708405531 153.674115446631  C 309.929708405531 153.674115446631  309.937892448986 150.946100961598  309.937892448986 150.946100961598  C 309.937892448986 150.946100961598  305.885894933955 148.925916234953  305.885894933955 148.925916234953  C 305.885894933955 148.925916234953  305.901384016198 143.762888820649  305.901384016198 143.762888820649  C 305.901384016198 143.762888820649  298.415452267888 134.704301721956  298.415452267888 134.704301721956  C 298.415452267888 134.704301721956  291.183613868746 141.282700651508  291.183613868746 141.282700651508  C 291.183613868746 141.282700651508  289.095901783549 139.843417009294  289.095901783549 139.843417009294  C 289.095901783549 139.843417009294  288.656086448247 136.113044202005  288.656086448247 136.113044202005  C 288.656086448247 136.113044202005  285.816012368207 131.457457482075  285.816012368207 131.457457482075  C 285.816012368207 131.457457482075  285.078210450675 126.72117633368  285.078210450675 126.72117633368  C 285.078210450675 126.72117633368  285.09283552833 121.846150448586  285.09283552833 121.846150448586  C 285.09283552833 121.846150448586  280.148135273285 118.389267093454  280.148135273285 118.389267093454  C 280.148135273285 118.389267093454  279.398152291074 116.379988424717  279.398152291074 116.379988424717  C 279.398152291074 116.379988424717  280.760766526194 113.515035212576  280.760766526194 113.515035212576  C 280.760766526194 113.515035212576  290.221505760208 115.980452303287  290.221505760208 115.980452303287  C 290.221505760208 115.980452303287  290.533987419402 111.821330219452  290.533987419402 111.821330219452  C 290.533987419402 111.821330219452  293.852195038204 108.101231466716  293.852195038204 108.101231466716  C 293.852195038204 108.101231466716  291.601204086039 106.08744977407  291.601204086039 106.08744977407  C 291.601204086039 106.08744977407  292.066819558334 102.21779122721  292.066819558334 102.21779122721  C 292.066819558334 102.21779122721  296.727865307249 100.224745644667  296.727865307249 100.224745644667  C 296.727865307249 100.224745644667  297.785175921288 98.7928970419312  297.785175921288 98.7928970419312  C 297.785175921288 98.7928970419312  297.036041943585 97.5006311803425  297.036041943585 97.5006311803425  C 297.036041943585 97.5006311803425  292.076145607853 98.7757699509909  292.076145607853 98.7757699509909  C 292.076145607853 98.7757699509909  283.076737823386 92.8686875859518  283.076737823386 92.8686875859518  C 283.076737823386 92.8686875859518  282.63090445613 91.1443254300465  282.63090445613 91.1443254300465  C 282.63090445613 91.1443254300465  287.005280682906 85.7063705559499  287.005280682906 85.7063705559499  C 287.005280682906 85.7063705559499  296.058620753738 72.9693479257412  296.058620753738 72.9693479257412  C 296.058620753738 72.9693479257412  296.813500761951 71.6795940774907  296.813500761951 71.6795940774907  C 296.813500761951 71.6795940774907  298.321508769073 71.6841181015121  298.321508769073 71.6841181015121  C 298.321508769073 71.6841181015121  301.163191857656 75.1366924337651  301.163191857656 75.1366924337651  C 301.163191857656 75.1366924337651  301.913470841438 75.7139514988575  301.913470841438 75.7139514988575  C 301.913470841438 75.7139514988575  302.261661690239 59.6517662129179  302.261661690239 59.6517662129179  C 302.261661690239 59.6517662129179  305.118978861834 58.2263176441645  305.118978861834 58.2263176441645  C 305.118978861834 58.2263176441645  305.137482960086 52.0582848935481  305.137482960086 52.0582848935481  C 305.137482960086 52.0582848935481  304.417596137678 42.0169815768933  304.417596137678 42.0169815768933  C 304.417596137678 42.0169815768933  308.068780524498 27.9727340056673  308.068780524498 27.9727340056673  C 308.068780524498 27.9727340056673  297.267523172689 20.3402214790521  297.267523172689 20.3402214790521  C 297.267523172689 20.3402214790521  288.982679182367 26.9154613918304  288.982679182367 26.9154613918304  C 288.982679182367 26.9154613918304  284.625943049255 27.4733993543329  284.625943049255 27.4733993543329  C 284.625943049255 27.4733993543329  282.519472864457 29.6201107528005  282.519472864457 29.6201107528005  C 282.519472864457 29.6201107528005  275.308434575758 28.5984633281239  275.308434575758 28.5984633281239  C 275.308434575758 28.5984633281239  271.720031522291 24.7156427113772  271.720031522291 24.7156427113772  C 271.720031522291 24.7156427113772  269.638527470057 18.5403099219996  269.638527470057 18.5403099219996  C 269.638527470057 18.5403099219996  269.945837101789 16.1051969921964  269.945837101789 16.1051969921964  C 269.945837101789 16.1051969921964  264.246135837889 12.6450486197272  264.246135837889 12.6450486197272  C 264.246135837889 12.6450486197272  260.922623190919 17.8001519919575  260.922623190919 17.8001519919575  C 260.922623190919 17.8001519919575  254.773774542165 14.0536520990377  254.773774542165 14.0536520990377  C 254.773774542165 14.0536520990377  253.725792977661 13.0424937300552  253.725792977661 13.0424937300552  C 253.725792977661 13.0424937300552  257.358917268587 4.01826381379015  257.358917268587 4.01826381379015  C 257.358917268587 4.01826381379015  254.517083179202 0.282684978858285  254.517083179202 0.282684978858285  C 254.517083179202 0.282684978858285  251.960069602139 0.275013938127096  251.960069602139 0.275013938127096  C 251.960069602139 0.275013938127096  245.486706230298 4.6986574264996  245.486706230298 4.6986574264996  C 245.486706230298 4.6986574264996  240.052877378109 12.2824646945028  240.052877378109 12.2824646945028  C 240.052877378109 12.2824646945028  242.14901250803 13.5807715881677  242.14901250803 13.5807715881677  C 242.14901250803 13.5807715881677  246.202735032221 14.0259389518882  246.202735032221 14.0259389518882  C 246.202735032221 14.0259389518882  249.339090685437 21.9224608803233  249.339090685437 21.9224608803233  C 249.339090685437 21.9224608803233  247.513624992699 25.0690295877677  247.513624992699 25.0690295877677  C 247.513624992699 25.0690295877677  244.344273164282 29.5045851393901  244.344273164282 29.5045851393901  C 244.344273164282 29.5045851393901  238.421276714744 50.1421117191773  238.421276714744 50.1421117191773  C 238.421276714744 50.1421117191773  240.66496262812 53.5908920312851  240.66496262812 53.5908920312851  C 240.66496262812 53.5908920312851  238.855920022584 56.5965079903079  238.855920022584 56.5965079903079  C 238.855920022584 56.5965079903079  225.452876855983 65.8804322854812  225.452876855983 65.8804322854812  C 225.452876855983 65.8804322854812  218.245711587849 64.5677923157114  218.245711587849 64.5677923157114  C 218.245711587849 64.5677923157114  214.193992074294 63.1216166369025  214.193992074294 63.1216166369025  C 214.193992074294 63.1216166369025  213.587967856467 65.1268272840387  213.587967856467 65.1268272840387  C 213.587967856467 65.1268272840387  207.651823337115 87.4803389752512  207.651823337115 87.4803389752512  C 207.651823337115 87.4803389752512  204.792198153265 90.3418011688558  204.792198153265 90.3418011688558  C 204.792198153265 90.3418011688558  206.280155053921 94.3633225220665  206.280155053921 94.3633225220665  C 206.280155053921 94.3633225220665  209.878567160534 97.2431588132326  209.878567160534 97.2431588132326  C 209.878567160534 97.2431588132326  215.898073122512 94.103172140737  215.898073122512 94.103172140737  C 215.898073122512 94.103172140737  225.663967976821 94.8514801140537  225.663967976821 94.8514801140537  C 225.663967976821 94.8514801140537  228.534327217667 90.4120275417392  228.534327217667 90.4120275417392  C 228.534327217667 90.4120275417392  233.645795358205 89.2803455328081  233.645795358205 89.2803455328081  C 233.645795358205 89.2803455328081  243.404518174433 92.7526709699343  243.404518174433 92.7526709699343  C 243.404518174433 92.7526709699343  255.240301019297 104.54834660184  255.240301019297 104.54834660184  C 255.240301019297 104.54834660184  255.232992980494 106.984359536422  255.232992980494 106.984359536422  C 255.232992980494 106.984359536422  252.672810386604 108.699703644444  252.672810386604 108.699703644444  C 252.672810386604 108.699703644444  238.996580769455 109.377685244346  238.996580769455 109.377685244346  C 238.996580769455 109.377685244346  234.326235971165 112.8037234357  234.326235971165 112.8037234357  C 234.326235971165 112.8037234357  230.721500830978 112.36490310568  230.721500830978 112.36490310568  C 230.721500830978 112.36490310568  228.156871213475 116.229264624414  228.156871213475 116.229264624414  C 228.156871213475 116.229264624414  221.687969865327 117.498876365715  221.687969865327 117.498876365715  C 221.687969865327 117.498876365715  217.310445621835 123.652832041586  217.310445621835 123.652832041586  C 217.310445621835 123.652832041586  216.546674566414 128.23960639614  216.546674566414 128.23960639614  C 216.546674566414 128.23960639614  207.210946996179 134.43768830631  207.210946996179 134.43768830631  C 207.210946996179 134.43768830631  201.346755858881 135.140106035961  201.346755858881 135.140106035961  C 201.346755858881 135.140106035961  194.860773420036 143.436767089029  194.860773420036 143.436767089029  C 194.860773420036 143.436767089029  188.688408646418 146.862299277695  188.688408646418 146.862299277695  C 188.688408646418 146.862299277695  176.822665642472 144.386667132746  176.822665642472 144.386667132746  C 176.822665642472 144.386667132746  172.92181092997 142.652939927115  172.92181092997 142.652939927115  C 172.92181092997 142.652939927115  168.248439115606 147.087983476018  168.248439115606 147.087983476018  C 168.248439115606 147.087983476018  165.971772027108 154.966266307609  165.971772027108 154.966266307609  C 165.971772027108 154.966266307609  172.408695205461 164.022706394901  172.408695205461 164.022706394901  C 172.408695205461 164.022706394901  168.186198785126 168.168098405832  168.186198785126 168.168098405832  C 168.186198785126 168.168098405832  162.314841609778 171.592533588674  162.314841609778 171.592533588674  C 162.314841609778 171.592533588674  153.23481539725 181.89144127314  153.23481539725 181.89144127314  C 153.23481539725 181.89144127314  141.946559459608 186.58964421935  141.946559459608 186.58964421935  C 141.946559459608 186.58964421935  123.610302098949 188.254660060142  123.610302098949 188.254660060142  C 123.610302098949 188.254660060142  120.752138922861 187.962081506627  120.752138922861 187.962081506627  C 120.752138922861 187.962081506627  99.3912255020823 196.498121830735  99.3912255020823 196.498121830735  C 99.3912255020823 196.498121830735  89.6005305160912 202.349833901773  89.6005305160912 202.349833901773  C 89.6005305160912 202.349833901773  86.7538174008004 200.907273242159  86.7538174008004 200.907273242159  C 86.7538174008004 200.907273242159  85.7099868583372 198.179102756298  85.7099868583372 198.179102756298  C 85.7099868583372 198.179102756298  72.6360744393332 197.420870730287  72.6360744393332 197.420870730287  C 72.6360744393332 197.420870730287  57.6213207149771 192.933762904936  57.6213207149771 192.933762904936  C 57.6213207149771 192.933762904936  53.5806372600208 188.475577233153  53.5806372600208 188.475577233153  C 53.5806372600208 188.475577233153  31.6458407920749 185.969737927812  31.6458407920749 185.969737927812  C 31.6458407920749 185.969737927812  27.5836502229214 187.680576011908  27.5836502229214 187.680576011908  C 27.5836502229214 187.680576011908  0.990823022069037 185.162762642988  0.990823022069037 185.162762642988  C 0.990823022069037 185.162762642988  0.526636557362167 188.889423430567  0.526636557362167 188.889423430567  C 0.526636557362167 188.889423430567  2.31500005309749 194.776872691359  2.31500005309749 194.776872691359  C 2.31500005309749 194.776872691359  1.23317930891659 204.378764674857  1.23317930891659 204.378764674857  C 1.23317930891659 204.378764674857  8.86594883689639 215.158816914072  8.86594883689639 215.158816914072  C 8.86594883689639 215.158816914072  12.764649537962 217.610547932113  12.764649537962 217.610547932113  C 12.764649537962 217.610547932113  18.9394553245414 213.038006653133  18.9394553245414 213.038006653133  C 18.9394553245414 213.038006653133  31.8625239426049 213.076775858987  31.8625239426049 213.076775858987  C 31.8625239426049 213.076775858987  35.1690974996326 214.23471200732  35.1690974996326 214.23471200732  C 35.1690974996326 214.23471200732  36.9609320137982 216.965126505096  36.9609320137982 216.965126505096  C 36.9609320137982 216.965126505096  35.4468849746104 219.973627479438  35.4468849746104 219.973627479438  C 35.4468849746104 219.973627479438  28.2190465967075 225.552024099243  28.2190465967075 225.552024099243  C 28.2190465967075 225.552024099243  28.9648815568932 228.277300569738  28.9648815568932 228.277300569738  C 28.9648815568932 228.277300569738  37.2142913590691 234.18013291221  37.2142913590691 234.18013291221  C 37.2142913590691 234.18013291221  40.514308881286 234.190032964777  40.514308881286 234.190032964777  C 40.514308881286 234.190032964777  41.5604354359403 235.486189847026  41.5604354359403 235.486189847026  C 41.5604354359403 235.486189847026  40.8021204094889 237.920949774955  40.8021204094889 237.920949774955  C 40.8021204094889 237.920949774955  45.9025284913017 241.809306421096  45.9025284913017 241.809306421096  C 45.9025284913017 241.809306421096  57.7644314748574 243.564916742921  57.7644314748574 243.564916742921  C 57.7644314748574 243.564916742921  63.4797608217389 242.149042225003  63.4797608217389 242.149042225003  C 63.4797608217389 242.149042225003  70.7134602307623 235.283644771565  70.7134602307623 235.283644771565  C 70.7134602307623 235.283644771565  79.4263494938912 236.028793728108  79.4263494938912 236.028793728108  C 79.4263494938912 236.028793728108  83.0178735639305 241.20464221049  83.0178735639305 241.20464221049  C 83.0178735639305 241.20464221049  80.9036693380673 245.929367297526  80.9036693380673 245.929367297526  C 80.9036693380673 245.929367297526  81.4950654782238 248.800182540792  81.4950654782238 248.800182540792  C 81.4950654782238 248.800182540792  76.8278656966321 251.511219935681  76.8278656966321 251.511219935681  C 76.8278656966321 251.511219935681  74.7205405072948 253.942932847431  74.7205405072948 253.942932847431  C 74.7205405072948 253.942932847431  75.454342403588 259.679216305573  75.454342403588 259.679216305573  C 75.454342403588 259.679216305573  83.6995861836435 265.304032171852  83.6995861836435 265.304032171852  Z " fill-rule="evenodd" />
    </mask>
  </defs>
  <g transform="matrix(1 0 0 1 -1036 -123 )">
    <path d="M 83.6995861836435 265.304032171852  C 83.6995861836435 265.304032171852  87.3369844972628 264.521933019113  87.3369844972628 264.521933019113  C 87.3369844972628 264.521933019113  91.6768245406612 263.595939102332  91.6768245406612 263.595939102332  C 91.6768245406612 263.595939102332  95.2891367210798 262.175755561534  95.2891367210798 262.175755561534  C 95.2891367210798 262.175755561534  101.315373718798 257.458766515575  101.315373718798 257.458766515575  C 101.315373718798 257.458766515575  102.538180211576 249.862326180493  102.538180211576 249.862326180493  C 102.538180211576 249.862326180493  106.171334502661 238.828067591509  106.171334502661 238.828067591509  C 106.171334502661 238.828067591509  113.69800246727 233.974577820767  113.69800246727 233.974577820767  C 113.69800246727 233.974577820767  114.749570050814 235.123748922561  114.749570050814 235.123748922561  C 114.749570050814 235.123748922561  116.981204900203 242.589550563985  116.981204900203 242.589550563985  C 116.981204900203 242.589550563985  113.364548696719 247.45777041294  113.364548696719 247.45777041294  C 113.364548696719 247.45777041294  112.600206638265 251.901541008182  112.600206638265 251.901541008182  C 112.600206638265 251.901541008182  124.15680600074 256.090270249223  124.15680600074 256.090270249223  C 124.15680600074 256.090270249223  125.19833453098 259.252440039505  125.19833453098 259.252440039505  C 125.19833453098 259.252440039505  131.960672437199 258.838720842766  131.960672437199 258.838720842766  C 131.960672437199 258.838720842766  135.258535947978 259.566624707742  135.258535947978 259.566624707742  C 135.258535947978 259.566624707742  136.761525928456 260.577148073353  136.761525928456 260.577148073353  C 136.761525928456 260.577148073353  148.692207277207 244.40670821261  148.692207277207 244.40670821261  C 148.692207277207 244.40670821261  151.850224045437 243.416167953104  151.850224045437 243.416167953104  C 151.850224045437 243.416167953104  152.607246065023 241.412410313683  152.607246065023 241.412410313683  C 152.607246065023 241.412410313683  152.316715522383 238.254493545983  152.316715522383 238.254493545983  C 152.316715522383 238.254493545983  156.727091940311 232.81664667246  156.727091940311 232.81664667246  C 156.727091940311 232.81664667246  164.392419641166 232.410636516654  164.392419641166 232.410636516654  C 164.392419641166 232.410636516654  167.258473859153 229.406191563849  167.258473859153 229.406191563849  C 167.258473859153 229.406191563849  169.054604396129 230.704598458045  169.054604396129 230.704598458045  C 169.054604396129 230.704598458045  173.420959580316 227.27364824061  173.420959580316 227.27364824061  C 173.420959580316 227.27364824061  175.820972323747 227.28084827884  175.820972323747 227.28084827884  C 175.820972323747 227.28084827884  183.818714789636 216.404685529304  183.818714789636 216.404685529304  C 183.818714789636 216.404685529304  187.877881342733 216.701867107259  187.877881342733 216.701867107259  C 187.877881342733 216.701867107259  192.846230723349 213.275722915343  192.846230723349 213.275722915343  C 192.846230723349 213.275722915343  194.341939665166 214.713230548127  194.341939665166 214.713230548127  C 194.341939665166 214.713230548127  203.671756204015 210.152154330023  203.671756204015 210.152154330023  C 203.671756204015 210.152154330023  199.039108605886 202.679149650352  199.039108605886 202.679149650352  C 199.039108605886 202.679149650352  200.561916691593 195.08360932005  200.561916691593 195.08360932005  C 200.561916691593 195.08360932005  204.497598589019 187.208303504266  204.497598589019 187.208303504266  C 204.497598589019 187.208303504266  207.801915134063 185.785195947943  207.801915134063 185.785195947943  C 207.801915134063 185.785195947943  209.898926268635 186.791501291157  209.898926268635 186.791501291157  C 209.898926268635 186.791501291157  209.882147179543 192.38453098866  209.882147179543 192.38453098866  C 209.882147179543 192.38453098866  212.43399172916 194.115211178112  212.43399172916 194.115211178112  C 212.43399172916 194.115211178112  218.15650211417 189.972319180456  218.15650211417 189.972319180456  C 218.15650211417 189.972319180456  220.718835719482 187.539971265334  220.718835719482 187.539971265334  C 220.718835719482 187.539971265334  223.267849254067 188.547632615748  223.267849254067 188.547632615748  C 223.267849254067 188.547632615748  226.131178457585 186.118187716041  226.131178457585 186.118187716041  C 226.131178457585 186.118187716041  232.292063170247 185.852666306193  232.292063170247 185.852666306193  C 232.292063170247 185.852666306193  233.351089793397 183.848814666273  233.351089793397 183.848814666273  C 233.351089793397 183.848814666273  231.860555879058 180.686297874148  231.860555879058 180.686297874148  C 231.860555879058 180.686297874148  236.232056090563 176.540352860281  236.232056090563 176.540352860281  C 236.232056090563 176.540352860281  241.348397256977 174.117666996462  241.348397256977 174.117666996462  C 241.348397256977 174.117666996462  249.284479395466 182.461594300501  249.284479395466 182.461594300501  C 249.284479395466 182.461594300501  248.829017977087 185.613273035078  248.829017977087 185.613273035078  C 248.829017977087 185.613273035078  252.865825411462 191.363465567074  252.865825411462 191.363465567074  C 252.865825411462 191.363465567074  262.178726860497 192.107414517245  262.178726860497 192.107414517245  C 262.178726860497 192.107414517245  264.296215103797 187.954707467473  264.296215103797 187.954707467473  C 264.296215103797 187.954707467473  261.939337589403 175.902464473263  261.939337589403 175.902464473263  C 261.939337589403 175.902464473263  264.045369771875 173.90175385002  264.045369771875 173.90175385002  C 264.045369771875 173.90175385002  268.395217868413 176.639842388544  268.395217868413 176.639842388544  C 268.395217868413 176.639842388544  272.278456487379 182.24557215348  272.278456487379 182.24557215348  C 272.278456487379 182.24557215348  278.469591360662 173.230016283272  278.469591360662 173.230016283272  C 278.469591360662 173.230016283272  281.326760531472 172.520577516341  281.326760531472 172.520577516341  C 281.326760531472 172.520577516341  285.996126324564 168.087521977993  285.996126324564 168.087521977993  C 285.996126324564 168.087521977993  288.253138308699 168.094293013945  288.253138308699 168.094293013945  C 288.253138308699 168.094293013945  292.170343108016 164.37799128137  292.170343108016 164.37799128137  C 292.170343108016 164.37799128137  294.423355070912 164.384750317258  294.423355070912 164.384750317258  C 294.423355070912 164.384750317258  296.533695276258 160.948032069197  296.533695276258 160.948032069197  C 296.533695276258 160.948032069197  302.248725621552 160.965177160233  302.248725621552 160.965177160233  C 302.248725621552 160.965177160233  307.369383810887 156.103469345855  307.369383810887 156.103469345855  C 307.369383810887 156.103469345855  309.929708405531 153.674115446631  309.929708405531 153.674115446631  C 309.929708405531 153.674115446631  309.937892448986 150.946100961598  309.937892448986 150.946100961598  C 309.937892448986 150.946100961598  305.885894933955 148.925916234953  305.885894933955 148.925916234953  C 305.885894933955 148.925916234953  305.901384016198 143.762888820649  305.901384016198 143.762888820649  C 305.901384016198 143.762888820649  298.415452267888 134.704301721956  298.415452267888 134.704301721956  C 298.415452267888 134.704301721956  291.183613868746 141.282700651508  291.183613868746 141.282700651508  C 291.183613868746 141.282700651508  289.095901783549 139.843417009294  289.095901783549 139.843417009294  C 289.095901783549 139.843417009294  288.656086448247 136.113044202005  288.656086448247 136.113044202005  C 288.656086448247 136.113044202005  285.816012368207 131.457457482075  285.816012368207 131.457457482075  C 285.816012368207 131.457457482075  285.078210450675 126.72117633368  285.078210450675 126.72117633368  C 285.078210450675 126.72117633368  285.09283552833 121.846150448586  285.09283552833 121.846150448586  C 285.09283552833 121.846150448586  280.148135273285 118.389267093454  280.148135273285 118.389267093454  C 280.148135273285 118.389267093454  279.398152291074 116.379988424717  279.398152291074 116.379988424717  C 279.398152291074 116.379988424717  280.760766526194 113.515035212576  280.760766526194 113.515035212576  C 280.760766526194 113.515035212576  290.221505760208 115.980452303287  290.221505760208 115.980452303287  C 290.221505760208 115.980452303287  290.533987419402 111.821330219452  290.533987419402 111.821330219452  C 290.533987419402 111.821330219452  293.852195038204 108.101231466716  293.852195038204 108.101231466716  C 293.852195038204 108.101231466716  291.601204086039 106.08744977407  291.601204086039 106.08744977407  C 291.601204086039 106.08744977407  292.066819558334 102.21779122721  292.066819558334 102.21779122721  C 292.066819558334 102.21779122721  296.727865307249 100.224745644667  296.727865307249 100.224745644667  C 296.727865307249 100.224745644667  297.785175921288 98.7928970419312  297.785175921288 98.7928970419312  C 297.785175921288 98.7928970419312  297.036041943585 97.5006311803425  297.036041943585 97.5006311803425  C 297.036041943585 97.5006311803425  292.076145607853 98.7757699509909  292.076145607853 98.7757699509909  C 292.076145607853 98.7757699509909  283.076737823386 92.8686875859518  283.076737823386 92.8686875859518  C 283.076737823386 92.8686875859518  282.63090445613 91.1443254300465  282.63090445613 91.1443254300465  C 282.63090445613 91.1443254300465  287.005280682906 85.7063705559499  287.005280682906 85.7063705559499  C 287.005280682906 85.7063705559499  296.058620753738 72.9693479257412  296.058620753738 72.9693479257412  C 296.058620753738 72.9693479257412  296.813500761951 71.6795940774907  296.813500761951 71.6795940774907  C 296.813500761951 71.6795940774907  298.321508769073 71.6841181015121  298.321508769073 71.6841181015121  C 298.321508769073 71.6841181015121  301.163191857656 75.1366924337651  301.163191857656 75.1366924337651  C 301.163191857656 75.1366924337651  301.913470841438 75.7139514988575  301.913470841438 75.7139514988575  C 301.913470841438 75.7139514988575  302.261661690239 59.6517662129179  302.261661690239 59.6517662129179  C 302.261661690239 59.6517662129179  305.118978861834 58.2263176441645  305.118978861834 58.2263176441645  C 305.118978861834 58.2263176441645  305.137482960086 52.0582848935481  305.137482960086 52.0582848935481  C 305.137482960086 52.0582848935481  304.417596137678 42.0169815768933  304.417596137678 42.0169815768933  C 304.417596137678 42.0169815768933  308.068780524498 27.9727340056673  308.068780524498 27.9727340056673  C 308.068780524498 27.9727340056673  297.267523172689 20.3402214790521  297.267523172689 20.3402214790521  C 297.267523172689 20.3402214790521  288.982679182367 26.9154613918304  288.982679182367 26.9154613918304  C 288.982679182367 26.9154613918304  284.625943049255 27.4733993543329  284.625943049255 27.4733993543329  C 284.625943049255 27.4733993543329  282.519472864457 29.6201107528005  282.519472864457 29.6201107528005  C 282.519472864457 29.6201107528005  275.308434575758 28.5984633281239  275.308434575758 28.5984633281239  C 275.308434575758 28.5984633281239  271.720031522291 24.7156427113772  271.720031522291 24.7156427113772  C 271.720031522291 24.7156427113772  269.638527470057 18.5403099219996  269.638527470057 18.5403099219996  C 269.638527470057 18.5403099219996  269.945837101789 16.1051969921964  269.945837101789 16.1051969921964  C 269.945837101789 16.1051969921964  264.246135837889 12.6450486197272  264.246135837889 12.6450486197272  C 264.246135837889 12.6450486197272  260.922623190919 17.8001519919575  260.922623190919 17.8001519919575  C 260.922623190919 17.8001519919575  254.773774542165 14.0536520990377  254.773774542165 14.0536520990377  C 254.773774542165 14.0536520990377  253.725792977661 13.0424937300552  253.725792977661 13.0424937300552  C 253.725792977661 13.0424937300552  257.358917268587 4.01826381379015  257.358917268587 4.01826381379015  C 257.358917268587 4.01826381379015  254.517083179202 0.282684978858285  254.517083179202 0.282684978858285  C 254.517083179202 0.282684978858285  251.960069602139 0.275013938127096  251.960069602139 0.275013938127096  C 251.960069602139 0.275013938127096  245.486706230298 4.6986574264996  245.486706230298 4.6986574264996  C 245.486706230298 4.6986574264996  240.052877378109 12.2824646945028  240.052877378109 12.2824646945028  C 240.052877378109 12.2824646945028  242.14901250803 13.5807715881677  242.14901250803 13.5807715881677  C 242.14901250803 13.5807715881677  246.202735032221 14.0259389518882  246.202735032221 14.0259389518882  C 246.202735032221 14.0259389518882  249.339090685437 21.9224608803233  249.339090685437 21.9224608803233  C 249.339090685437 21.9224608803233  247.513624992699 25.0690295877677  247.513624992699 25.0690295877677  C 247.513624992699 25.0690295877677  244.344273164282 29.5045851393901  244.344273164282 29.5045851393901  C 244.344273164282 29.5045851393901  238.421276714744 50.1421117191773  238.421276714744 50.1421117191773  C 238.421276714744 50.1421117191773  240.66496262812 53.5908920312851  240.66496262812 53.5908920312851  C 240.66496262812 53.5908920312851  238.855920022584 56.5965079903079  238.855920022584 56.5965079903079  C 238.855920022584 56.5965079903079  225.452876855983 65.8804322854812  225.452876855983 65.8804322854812  C 225.452876855983 65.8804322854812  218.245711587849 64.5677923157114  218.245711587849 64.5677923157114  C 218.245711587849 64.5677923157114  214.193992074294 63.1216166369025  214.193992074294 63.1216166369025  C 214.193992074294 63.1216166369025  213.587967856467 65.1268272840387  213.587967856467 65.1268272840387  C 213.587967856467 65.1268272840387  207.651823337115 87.4803389752512  207.651823337115 87.4803389752512  C 207.651823337115 87.4803389752512  204.792198153265 90.3418011688558  204.792198153265 90.3418011688558  C 204.792198153265 90.3418011688558  206.280155053921 94.3633225220665  206.280155053921 94.3633225220665  C 206.280155053921 94.3633225220665  209.878567160534 97.2431588132326  209.878567160534 97.2431588132326  C 209.878567160534 97.2431588132326  215.898073122512 94.103172140737  215.898073122512 94.103172140737  C 215.898073122512 94.103172140737  225.663967976821 94.8514801140537  225.663967976821 94.8514801140537  C 225.663967976821 94.8514801140537  228.534327217667 90.4120275417392  228.534327217667 90.4120275417392  C 228.534327217667 90.4120275417392  233.645795358205 89.2803455328081  233.645795358205 89.2803455328081  C 233.645795358205 89.2803455328081  243.404518174433 92.7526709699343  243.404518174433 92.7526709699343  C 243.404518174433 92.7526709699343  255.240301019297 104.54834660184  255.240301019297 104.54834660184  C 255.240301019297 104.54834660184  255.232992980494 106.984359536422  255.232992980494 106.984359536422  C 255.232992980494 106.984359536422  252.672810386604 108.699703644444  252.672810386604 108.699703644444  C 252.672810386604 108.699703644444  238.996580769455 109.377685244346  238.996580769455 109.377685244346  C 238.996580769455 109.377685244346  234.326235971165 112.8037234357  234.326235971165 112.8037234357  C 234.326235971165 112.8037234357  230.721500830978 112.36490310568  230.721500830978 112.36490310568  C 230.721500830978 112.36490310568  228.156871213475 116.229264624414  228.156871213475 116.229264624414  C 228.156871213475 116.229264624414  221.687969865327 117.498876365715  221.687969865327 117.498876365715  C 221.687969865327 117.498876365715  217.310445621835 123.652832041586  217.310445621835 123.652832041586  C 217.310445621835 123.652832041586  216.546674566414 128.23960639614  216.546674566414 128.23960639614  C 216.546674566414 128.23960639614  207.210946996179 134.43768830631  207.210946996179 134.43768830631  C 207.210946996179 134.43768830631  201.346755858881 135.140106035961  201.346755858881 135.140106035961  C 201.346755858881 135.140106035961  194.860773420036 143.436767089029  194.860773420036 143.436767089029  C 194.860773420036 143.436767089029  188.688408646418 146.862299277695  188.688408646418 146.862299277695  C 188.688408646418 146.862299277695  176.822665642472 144.386667132746  176.822665642472 144.386667132746  C 176.822665642472 144.386667132746  172.92181092997 142.652939927115  172.92181092997 142.652939927115  C 172.92181092997 142.652939927115  168.248439115606 147.087983476018  168.248439115606 147.087983476018  C 168.248439115606 147.087983476018  165.971772027108 154.966266307609  165.971772027108 154.966266307609  C 165.971772027108 154.966266307609  172.408695205461 164.022706394901  172.408695205461 164.022706394901  C 172.408695205461 164.022706394901  168.186198785126 168.168098405832  168.186198785126 168.168098405832  C 168.186198785126 168.168098405832  162.314841609778 171.592533588674  162.314841609778 171.592533588674  C 162.314841609778 171.592533588674  153.23481539725 181.89144127314  153.23481539725 181.89144127314  C 153.23481539725 181.89144127314  141.946559459608 186.58964421935  141.946559459608 186.58964421935  C 141.946559459608 186.58964421935  123.610302098949 188.254660060142  123.610302098949 188.254660060142  C 123.610302098949 188.254660060142  120.752138922861 187.962081506627  120.752138922861 187.962081506627  C 120.752138922861 187.962081506627  99.3912255020823 196.498121830735  99.3912255020823 196.498121830735  C 99.3912255020823 196.498121830735  89.6005305160912 202.349833901773  89.6005305160912 202.349833901773  C 89.6005305160912 202.349833901773  86.7538174008004 200.907273242159  86.7538174008004 200.907273242159  C 86.7538174008004 200.907273242159  85.7099868583372 198.179102756298  85.7099868583372 198.179102756298  C 85.7099868583372 198.179102756298  72.6360744393332 197.420870730287  72.6360744393332 197.420870730287  C 72.6360744393332 197.420870730287  57.6213207149771 192.933762904936  57.6213207149771 192.933762904936  C 57.6213207149771 192.933762904936  53.5806372600208 188.475577233153  53.5806372600208 188.475577233153  C 53.5806372600208 188.475577233153  31.6458407920749 185.969737927812  31.6458407920749 185.969737927812  C 31.6458407920749 185.969737927812  27.5836502229214 187.680576011908  27.5836502229214 187.680576011908  C 27.5836502229214 187.680576011908  0.990823022069037 185.162762642988  0.990823022069037 185.162762642988  C 0.990823022069037 185.162762642988  0.526636557362167 188.889423430567  0.526636557362167 188.889423430567  C 0.526636557362167 188.889423430567  2.31500005309749 194.776872691359  2.31500005309749 194.776872691359  C 2.31500005309749 194.776872691359  1.23317930891659 204.378764674857  1.23317930891659 204.378764674857  C 1.23317930891659 204.378764674857  8.86594883689639 215.158816914072  8.86594883689639 215.158816914072  C 8.86594883689639 215.158816914072  12.764649537962 217.610547932113  12.764649537962 217.610547932113  C 12.764649537962 217.610547932113  18.9394553245414 213.038006653133  18.9394553245414 213.038006653133  C 18.9394553245414 213.038006653133  31.8625239426049 213.076775858987  31.8625239426049 213.076775858987  C 31.8625239426049 213.076775858987  35.1690974996326 214.23471200732  35.1690974996326 214.23471200732  C 35.1690974996326 214.23471200732  36.9609320137982 216.965126505096  36.9609320137982 216.965126505096  C 36.9609320137982 216.965126505096  35.4468849746104 219.973627479438  35.4468849746104 219.973627479438  C 35.4468849746104 219.973627479438  28.2190465967075 225.552024099243  28.2190465967075 225.552024099243  C 28.2190465967075 225.552024099243  28.9648815568932 228.277300569738  28.9648815568932 228.277300569738  C 28.9648815568932 228.277300569738  37.2142913590691 234.18013291221  37.2142913590691 234.18013291221  C 37.2142913590691 234.18013291221  40.514308881286 234.190032964777  40.514308881286 234.190032964777  C 40.514308881286 234.190032964777  41.5604354359403 235.486189847026  41.5604354359403 235.486189847026  C 41.5604354359403 235.486189847026  40.8021204094889 237.920949774955  40.8021204094889 237.920949774955  C 40.8021204094889 237.920949774955  45.9025284913017 241.809306421096  45.9025284913017 241.809306421096  C 45.9025284913017 241.809306421096  57.7644314748574 243.564916742921  57.7644314748574 243.564916742921  C 57.7644314748574 243.564916742921  63.4797608217389 242.149042225003  63.4797608217389 242.149042225003  C 63.4797608217389 242.149042225003  70.7134602307623 235.283644771565  70.7134602307623 235.283644771565  C 70.7134602307623 235.283644771565  79.4263494938912 236.028793728108  79.4263494938912 236.028793728108  C 79.4263494938912 236.028793728108  83.0178735639305 241.20464221049  83.0178735639305 241.20464221049  C 83.0178735639305 241.20464221049  80.9036693380673 245.929367297526  80.9036693380673 245.929367297526  C 80.9036693380673 245.929367297526  81.4950654782238 248.800182540792  81.4950654782238 248.800182540792  C 81.4950654782238 248.800182540792  76.8278656966321 251.511219935681  76.8278656966321 251.511219935681  C 76.8278656966321 251.511219935681  74.7205405072948 253.942932847431  74.7205405072948 253.942932847431  C 74.7205405072948 253.942932847431  75.454342403588 259.679216305573  75.454342403588 259.679216305573  C 75.454342403588 259.679216305573  83.6995861836435 265.304032171852  83.6995861836435 265.304032171852  Z " fill-rule="nonzero" fill="#156fb8" stroke="none" transform="matrix(1 0 0 1 1036 123 )" />
    <path d="M 83.6995861836435 265.304032171852  C 83.6995861836435 265.304032171852  87.3369844972628 264.521933019113  87.3369844972628 264.521933019113  C 87.3369844972628 264.521933019113  91.6768245406612 263.595939102332  91.6768245406612 263.595939102332  C 91.6768245406612 263.595939102332  95.2891367210798 262.175755561534  95.2891367210798 262.175755561534  C 95.2891367210798 262.175755561534  101.315373718798 257.458766515575  101.315373718798 257.458766515575  C 101.315373718798 257.458766515575  102.538180211576 249.862326180493  102.538180211576 249.862326180493  C 102.538180211576 249.862326180493  106.171334502661 238.828067591509  106.171334502661 238.828067591509  C 106.171334502661 238.828067591509  113.69800246727 233.974577820767  113.69800246727 233.974577820767  C 113.69800246727 233.974577820767  114.749570050814 235.123748922561  114.749570050814 235.123748922561  C 114.749570050814 235.123748922561  116.981204900203 242.589550563985  116.981204900203 242.589550563985  C 116.981204900203 242.589550563985  113.364548696719 247.45777041294  113.364548696719 247.45777041294  C 113.364548696719 247.45777041294  112.600206638265 251.901541008182  112.600206638265 251.901541008182  C 112.600206638265 251.901541008182  124.15680600074 256.090270249223  124.15680600074 256.090270249223  C 124.15680600074 256.090270249223  125.19833453098 259.252440039505  125.19833453098 259.252440039505  C 125.19833453098 259.252440039505  131.960672437199 258.838720842766  131.960672437199 258.838720842766  C 131.960672437199 258.838720842766  135.258535947978 259.566624707742  135.258535947978 259.566624707742  C 135.258535947978 259.566624707742  136.761525928456 260.577148073353  136.761525928456 260.577148073353  C 136.761525928456 260.577148073353  148.692207277207 244.40670821261  148.692207277207 244.40670821261  C 148.692207277207 244.40670821261  151.850224045437 243.416167953104  151.850224045437 243.416167953104  C 151.850224045437 243.416167953104  152.607246065023 241.412410313683  152.607246065023 241.412410313683  C 152.607246065023 241.412410313683  152.316715522383 238.254493545983  152.316715522383 238.254493545983  C 152.316715522383 238.254493545983  156.727091940311 232.81664667246  156.727091940311 232.81664667246  C 156.727091940311 232.81664667246  164.392419641166 232.410636516654  164.392419641166 232.410636516654  C 164.392419641166 232.410636516654  167.258473859153 229.406191563849  167.258473859153 229.406191563849  C 167.258473859153 229.406191563849  169.054604396129 230.704598458045  169.054604396129 230.704598458045  C 169.054604396129 230.704598458045  173.420959580316 227.27364824061  173.420959580316 227.27364824061  C 173.420959580316 227.27364824061  175.820972323747 227.28084827884  175.820972323747 227.28084827884  C 175.820972323747 227.28084827884  183.818714789636 216.404685529304  183.818714789636 216.404685529304  C 183.818714789636 216.404685529304  187.877881342733 216.701867107259  187.877881342733 216.701867107259  C 187.877881342733 216.701867107259  192.846230723349 213.275722915343  192.846230723349 213.275722915343  C 192.846230723349 213.275722915343  194.341939665166 214.713230548127  194.341939665166 214.713230548127  C 194.341939665166 214.713230548127  203.671756204015 210.152154330023  203.671756204015 210.152154330023  C 203.671756204015 210.152154330023  199.039108605886 202.679149650352  199.039108605886 202.679149650352  C 199.039108605886 202.679149650352  200.561916691593 195.08360932005  200.561916691593 195.08360932005  C 200.561916691593 195.08360932005  204.497598589019 187.208303504266  204.497598589019 187.208303504266  C 204.497598589019 187.208303504266  207.801915134063 185.785195947943  207.801915134063 185.785195947943  C 207.801915134063 185.785195947943  209.898926268635 186.791501291157  209.898926268635 186.791501291157  C 209.898926268635 186.791501291157  209.882147179543 192.38453098866  209.882147179543 192.38453098866  C 209.882147179543 192.38453098866  212.43399172916 194.115211178112  212.43399172916 194.115211178112  C 212.43399172916 194.115211178112  218.15650211417 189.972319180456  218.15650211417 189.972319180456  C 218.15650211417 189.972319180456  220.718835719482 187.539971265334  220.718835719482 187.539971265334  C 220.718835719482 187.539971265334  223.267849254067 188.547632615748  223.267849254067 188.547632615748  C 223.267849254067 188.547632615748  226.131178457585 186.118187716041  226.131178457585 186.118187716041  C 226.131178457585 186.118187716041  232.292063170247 185.852666306193  232.292063170247 185.852666306193  C 232.292063170247 185.852666306193  233.351089793397 183.848814666273  233.351089793397 183.848814666273  C 233.351089793397 183.848814666273  231.860555879058 180.686297874148  231.860555879058 180.686297874148  C 231.860555879058 180.686297874148  236.232056090563 176.540352860281  236.232056090563 176.540352860281  C 236.232056090563 176.540352860281  241.348397256977 174.117666996462  241.348397256977 174.117666996462  C 241.348397256977 174.117666996462  249.284479395466 182.461594300501  249.284479395466 182.461594300501  C 249.284479395466 182.461594300501  248.829017977087 185.613273035078  248.829017977087 185.613273035078  C 248.829017977087 185.613273035078  252.865825411462 191.363465567074  252.865825411462 191.363465567074  C 252.865825411462 191.363465567074  262.178726860497 192.107414517245  262.178726860497 192.107414517245  C 262.178726860497 192.107414517245  264.296215103797 187.954707467473  264.296215103797 187.954707467473  C 264.296215103797 187.954707467473  261.939337589403 175.902464473263  261.939337589403 175.902464473263  C 261.939337589403 175.902464473263  264.045369771875 173.90175385002  264.045369771875 173.90175385002  C 264.045369771875 173.90175385002  268.395217868413 176.639842388544  268.395217868413 176.639842388544  C 268.395217868413 176.639842388544  272.278456487379 182.24557215348  272.278456487379 182.24557215348  C 272.278456487379 182.24557215348  278.469591360662 173.230016283272  278.469591360662 173.230016283272  C 278.469591360662 173.230016283272  281.326760531472 172.520577516341  281.326760531472 172.520577516341  C 281.326760531472 172.520577516341  285.996126324564 168.087521977993  285.996126324564 168.087521977993  C 285.996126324564 168.087521977993  288.253138308699 168.094293013945  288.253138308699 168.094293013945  C 288.253138308699 168.094293013945  292.170343108016 164.37799128137  292.170343108016 164.37799128137  C 292.170343108016 164.37799128137  294.423355070912 164.384750317258  294.423355070912 164.384750317258  C 294.423355070912 164.384750317258  296.533695276258 160.948032069197  296.533695276258 160.948032069197  C 296.533695276258 160.948032069197  302.248725621552 160.965177160233  302.248725621552 160.965177160233  C 302.248725621552 160.965177160233  307.369383810887 156.103469345855  307.369383810887 156.103469345855  C 307.369383810887 156.103469345855  309.929708405531 153.674115446631  309.929708405531 153.674115446631  C 309.929708405531 153.674115446631  309.937892448986 150.946100961598  309.937892448986 150.946100961598  C 309.937892448986 150.946100961598  305.885894933955 148.925916234953  305.885894933955 148.925916234953  C 305.885894933955 148.925916234953  305.901384016198 143.762888820649  305.901384016198 143.762888820649  C 305.901384016198 143.762888820649  298.415452267888 134.704301721956  298.415452267888 134.704301721956  C 298.415452267888 134.704301721956  291.183613868746 141.282700651508  291.183613868746 141.282700651508  C 291.183613868746 141.282700651508  289.095901783549 139.843417009294  289.095901783549 139.843417009294  C 289.095901783549 139.843417009294  288.656086448247 136.113044202005  288.656086448247 136.113044202005  C 288.656086448247 136.113044202005  285.816012368207 131.457457482075  285.816012368207 131.457457482075  C 285.816012368207 131.457457482075  285.078210450675 126.72117633368  285.078210450675 126.72117633368  C 285.078210450675 126.72117633368  285.09283552833 121.846150448586  285.09283552833 121.846150448586  C 285.09283552833 121.846150448586  280.148135273285 118.389267093454  280.148135273285 118.389267093454  C 280.148135273285 118.389267093454  279.398152291074 116.379988424717  279.398152291074 116.379988424717  C 279.398152291074 116.379988424717  280.760766526194 113.515035212576  280.760766526194 113.515035212576  C 280.760766526194 113.515035212576  290.221505760208 115.980452303287  290.221505760208 115.980452303287  C 290.221505760208 115.980452303287  290.533987419402 111.821330219452  290.533987419402 111.821330219452  C 290.533987419402 111.821330219452  293.852195038204 108.101231466716  293.852195038204 108.101231466716  C 293.852195038204 108.101231466716  291.601204086039 106.08744977407  291.601204086039 106.08744977407  C 291.601204086039 106.08744977407  292.066819558334 102.21779122721  292.066819558334 102.21779122721  C 292.066819558334 102.21779122721  296.727865307249 100.224745644667  296.727865307249 100.224745644667  C 296.727865307249 100.224745644667  297.785175921288 98.7928970419312  297.785175921288 98.7928970419312  C 297.785175921288 98.7928970419312  297.036041943585 97.5006311803425  297.036041943585 97.5006311803425  C 297.036041943585 97.5006311803425  292.076145607853 98.7757699509909  292.076145607853 98.7757699509909  C 292.076145607853 98.7757699509909  283.076737823386 92.8686875859518  283.076737823386 92.8686875859518  C 283.076737823386 92.8686875859518  282.63090445613 91.1443254300465  282.63090445613 91.1443254300465  C 282.63090445613 91.1443254300465  287.005280682906 85.7063705559499  287.005280682906 85.7063705559499  C 287.005280682906 85.7063705559499  296.058620753738 72.9693479257412  296.058620753738 72.9693479257412  C 296.058620753738 72.9693479257412  296.813500761951 71.6795940774907  296.813500761951 71.6795940774907  C 296.813500761951 71.6795940774907  298.321508769073 71.6841181015121  298.321508769073 71.6841181015121  C 298.321508769073 71.6841181015121  301.163191857656 75.1366924337651  301.163191857656 75.1366924337651  C 301.163191857656 75.1366924337651  301.913470841438 75.7139514988575  301.913470841438 75.7139514988575  C 301.913470841438 75.7139514988575  302.261661690239 59.6517662129179  302.261661690239 59.6517662129179  C 302.261661690239 59.6517662129179  305.118978861834 58.2263176441645  305.118978861834 58.2263176441645  C 305.118978861834 58.2263176441645  305.137482960086 52.0582848935481  305.137482960086 52.0582848935481  C 305.137482960086 52.0582848935481  304.417596137678 42.0169815768933  304.417596137678 42.0169815768933  C 304.417596137678 42.0169815768933  308.068780524498 27.9727340056673  308.068780524498 27.9727340056673  C 308.068780524498 27.9727340056673  297.267523172689 20.3402214790521  297.267523172689 20.3402214790521  C 297.267523172689 20.3402214790521  288.982679182367 26.9154613918304  288.982679182367 26.9154613918304  C 288.982679182367 26.9154613918304  284.625943049255 27.4733993543329  284.625943049255 27.4733993543329  C 284.625943049255 27.4733993543329  282.519472864457 29.6201107528005  282.519472864457 29.6201107528005  C 282.519472864457 29.6201107528005  275.308434575758 28.5984633281239  275.308434575758 28.5984633281239  C 275.308434575758 28.5984633281239  271.720031522291 24.7156427113772  271.720031522291 24.7156427113772  C 271.720031522291 24.7156427113772  269.638527470057 18.5403099219996  269.638527470057 18.5403099219996  C 269.638527470057 18.5403099219996  269.945837101789 16.1051969921964  269.945837101789 16.1051969921964  C 269.945837101789 16.1051969921964  264.246135837889 12.6450486197272  264.246135837889 12.6450486197272  C 264.246135837889 12.6450486197272  260.922623190919 17.8001519919575  260.922623190919 17.8001519919575  C 260.922623190919 17.8001519919575  254.773774542165 14.0536520990377  254.773774542165 14.0536520990377  C 254.773774542165 14.0536520990377  253.725792977661 13.0424937300552  253.725792977661 13.0424937300552  C 253.725792977661 13.0424937300552  257.358917268587 4.01826381379015  257.358917268587 4.01826381379015  C 257.358917268587 4.01826381379015  254.517083179202 0.282684978858285  254.517083179202 0.282684978858285  C 254.517083179202 0.282684978858285  251.960069602139 0.275013938127096  251.960069602139 0.275013938127096  C 251.960069602139 0.275013938127096  245.486706230298 4.6986574264996  245.486706230298 4.6986574264996  C 245.486706230298 4.6986574264996  240.052877378109 12.2824646945028  240.052877378109 12.2824646945028  C 240.052877378109 12.2824646945028  242.14901250803 13.5807715881677  242.14901250803 13.5807715881677  C 242.14901250803 13.5807715881677  246.202735032221 14.0259389518882  246.202735032221 14.0259389518882  C 246.202735032221 14.0259389518882  249.339090685437 21.9224608803233  249.339090685437 21.9224608803233  C 249.339090685437 21.9224608803233  247.513624992699 25.0690295877677  247.513624992699 25.0690295877677  C 247.513624992699 25.0690295877677  244.344273164282 29.5045851393901  244.344273164282 29.5045851393901  C 244.344273164282 29.5045851393901  238.421276714744 50.1421117191773  238.421276714744 50.1421117191773  C 238.421276714744 50.1421117191773  240.66496262812 53.5908920312851  240.66496262812 53.5908920312851  C 240.66496262812 53.5908920312851  238.855920022584 56.5965079903079  238.855920022584 56.5965079903079  C 238.855920022584 56.5965079903079  225.452876855983 65.8804322854812  225.452876855983 65.8804322854812  C 225.452876855983 65.8804322854812  218.245711587849 64.5677923157114  218.245711587849 64.5677923157114  C 218.245711587849 64.5677923157114  214.193992074294 63.1216166369025  214.193992074294 63.1216166369025  C 214.193992074294 63.1216166369025  213.587967856467 65.1268272840387  213.587967856467 65.1268272840387  C 213.587967856467 65.1268272840387  207.651823337115 87.4803389752512  207.651823337115 87.4803389752512  C 207.651823337115 87.4803389752512  204.792198153265 90.3418011688558  204.792198153265 90.3418011688558  C 204.792198153265 90.3418011688558  206.280155053921 94.3633225220665  206.280155053921 94.3633225220665  C 206.280155053921 94.3633225220665  209.878567160534 97.2431588132326  209.878567160534 97.2431588132326  C 209.878567160534 97.2431588132326  215.898073122512 94.103172140737  215.898073122512 94.103172140737  C 215.898073122512 94.103172140737  225.663967976821 94.8514801140537  225.663967976821 94.8514801140537  C 225.663967976821 94.8514801140537  228.534327217667 90.4120275417392  228.534327217667 90.4120275417392  C 228.534327217667 90.4120275417392  233.645795358205 89.2803455328081  233.645795358205 89.2803455328081  C 233.645795358205 89.2803455328081  243.404518174433 92.7526709699343  243.404518174433 92.7526709699343  C 243.404518174433 92.7526709699343  255.240301019297 104.54834660184  255.240301019297 104.54834660184  C 255.240301019297 104.54834660184  255.232992980494 106.984359536422  255.232992980494 106.984359536422  C 255.232992980494 106.984359536422  252.672810386604 108.699703644444  252.672810386604 108.699703644444  C 252.672810386604 108.699703644444  238.996580769455 109.377685244346  238.996580769455 109.377685244346  C 238.996580769455 109.377685244346  234.326235971165 112.8037234357  234.326235971165 112.8037234357  C 234.326235971165 112.8037234357  230.721500830978 112.36490310568  230.721500830978 112.36490310568  C 230.721500830978 112.36490310568  228.156871213475 116.229264624414  228.156871213475 116.229264624414  C 228.156871213475 116.229264624414  221.687969865327 117.498876365715  221.687969865327 117.498876365715  C 221.687969865327 117.498876365715  217.310445621835 123.652832041586  217.310445621835 123.652832041586  C 217.310445621835 123.652832041586  216.546674566414 128.23960639614  216.546674566414 128.23960639614  C 216.546674566414 128.23960639614  207.210946996179 134.43768830631  207.210946996179 134.43768830631  C 207.210946996179 134.43768830631  201.346755858881 135.140106035961  201.346755858881 135.140106035961  C 201.346755858881 135.140106035961  194.860773420036 143.436767089029  194.860773420036 143.436767089029  C 194.860773420036 143.436767089029  188.688408646418 146.862299277695  188.688408646418 146.862299277695  C 188.688408646418 146.862299277695  176.822665642472 144.386667132746  176.822665642472 144.386667132746  C 176.822665642472 144.386667132746  172.92181092997 142.652939927115  172.92181092997 142.652939927115  C 172.92181092997 142.652939927115  168.248439115606 147.087983476018  168.248439115606 147.087983476018  C 168.248439115606 147.087983476018  165.971772027108 154.966266307609  165.971772027108 154.966266307609  C 165.971772027108 154.966266307609  172.408695205461 164.022706394901  172.408695205461 164.022706394901  C 172.408695205461 164.022706394901  168.186198785126 168.168098405832  168.186198785126 168.168098405832  C 168.186198785126 168.168098405832  162.314841609778 171.592533588674  162.314841609778 171.592533588674  C 162.314841609778 171.592533588674  153.23481539725 181.89144127314  153.23481539725 181.89144127314  C 153.23481539725 181.89144127314  141.946559459608 186.58964421935  141.946559459608 186.58964421935  C 141.946559459608 186.58964421935  123.610302098949 188.254660060142  123.610302098949 188.254660060142  C 123.610302098949 188.254660060142  120.752138922861 187.962081506627  120.752138922861 187.962081506627  C 120.752138922861 187.962081506627  99.3912255020823 196.498121830735  99.3912255020823 196.498121830735  C 99.3912255020823 196.498121830735  89.6005305160912 202.349833901773  89.6005305160912 202.349833901773  C 89.6005305160912 202.349833901773  86.7538174008004 200.907273242159  86.7538174008004 200.907273242159  C 86.7538174008004 200.907273242159  85.7099868583372 198.179102756298  85.7099868583372 198.179102756298  C 85.7099868583372 198.179102756298  72.6360744393332 197.420870730287  72.6360744393332 197.420870730287  C 72.6360744393332 197.420870730287  57.6213207149771 192.933762904936  57.6213207149771 192.933762904936  C 57.6213207149771 192.933762904936  53.5806372600208 188.475577233153  53.5806372600208 188.475577233153  C 53.5806372600208 188.475577233153  31.6458407920749 185.969737927812  31.6458407920749 185.969737927812  C 31.6458407920749 185.969737927812  27.5836502229214 187.680576011908  27.5836502229214 187.680576011908  C 27.5836502229214 187.680576011908  0.990823022069037 185.162762642988  0.990823022069037 185.162762642988  C 0.990823022069037 185.162762642988  0.526636557362167 188.889423430567  0.526636557362167 188.889423430567  C 0.526636557362167 188.889423430567  2.31500005309749 194.776872691359  2.31500005309749 194.776872691359  C 2.31500005309749 194.776872691359  1.23317930891659 204.378764674857  1.23317930891659 204.378764674857  C 1.23317930891659 204.378764674857  8.86594883689639 215.158816914072  8.86594883689639 215.158816914072  C 8.86594883689639 215.158816914072  12.764649537962 217.610547932113  12.764649537962 217.610547932113  C 12.764649537962 217.610547932113  18.9394553245414 213.038006653133  18.9394553245414 213.038006653133  C 18.9394553245414 213.038006653133  31.8625239426049 213.076775858987  31.8625239426049 213.076775858987  C 31.8625239426049 213.076775858987  35.1690974996326 214.23471200732  35.1690974996326 214.23471200732  C 35.1690974996326 214.23471200732  36.9609320137982 216.965126505096  36.9609320137982 216.965126505096  C 36.9609320137982 216.965126505096  35.4468849746104 219.973627479438  35.4468849746104 219.973627479438  C 35.4468849746104 219.973627479438  28.2190465967075 225.552024099243  28.2190465967075 225.552024099243  C 28.2190465967075 225.552024099243  28.9648815568932 228.277300569738  28.9648815568932 228.277300569738  C 28.9648815568932 228.277300569738  37.2142913590691 234.18013291221  37.2142913590691 234.18013291221  C 37.2142913590691 234.18013291221  40.514308881286 234.190032964777  40.514308881286 234.190032964777  C 40.514308881286 234.190032964777  41.5604354359403 235.486189847026  41.5604354359403 235.486189847026  C 41.5604354359403 235.486189847026  40.8021204094889 237.920949774955  40.8021204094889 237.920949774955  C 40.8021204094889 237.920949774955  45.9025284913017 241.809306421096  45.9025284913017 241.809306421096  C 45.9025284913017 241.809306421096  57.7644314748574 243.564916742921  57.7644314748574 243.564916742921  C 57.7644314748574 243.564916742921  63.4797608217389 242.149042225003  63.4797608217389 242.149042225003  C 63.4797608217389 242.149042225003  70.7134602307623 235.283644771565  70.7134602307623 235.283644771565  C 70.7134602307623 235.283644771565  79.4263494938912 236.028793728108  79.4263494938912 236.028793728108  C 79.4263494938912 236.028793728108  83.0178735639305 241.20464221049  83.0178735639305 241.20464221049  C 83.0178735639305 241.20464221049  80.9036693380673 245.929367297526  80.9036693380673 245.929367297526  C 80.9036693380673 245.929367297526  81.4950654782238 248.800182540792  81.4950654782238 248.800182540792  C 81.4950654782238 248.800182540792  76.8278656966321 251.511219935681  76.8278656966321 251.511219935681  C 76.8278656966321 251.511219935681  74.7205405072948 253.942932847431  74.7205405072948 253.942932847431  C 74.7205405072948 253.942932847431  75.454342403588 259.679216305573  75.454342403588 259.679216305573  C 75.454342403588 259.679216305573  83.6995861836435 265.304032171852  83.6995861836435 265.304032171852  Z " stroke-width="0.97600957434184" stroke="#199eae" fill="none" transform="matrix(1 0 0 1 1036 123 )" mask="url(#clip1481)" />
  </g>
</svg>