<?xml version="1.0" encoding="utf-8"?>
<svg version="1.1" xmlns:xlink="http://www.w3.org/1999/xlink" width="82px" height="76px" xmlns="http://www.w3.org/2000/svg">
  <defs>
    <mask fill="white" id="clip1482">
      <path d="M 63.4272047639195 53.9022975254737  C 63.4272047639195 53.9022975254737  67.7842458986509 52.9093542532085  67.7842458986509 52.9093542532085  C 67.7842458986509 52.9093542532085  76.3814355474454 40.886973417558  76.3814355474454 40.886973417558  C 76.3814355474454 40.886973417558  81.8145623959067 34.5371817018498  81.8145623959067 34.5371817018498  C 81.8145623959067 34.5371817018498  81.0787724890575 28.7968922224366  81.0787724890575 28.7968922224366  C 81.0787724890575 28.7968922224366  75.3876752708421 22.4687286215679  75.3876752708421 22.4687286215679  C 75.3876752708421 22.4687286215679  74.6511573601276 17.304445200594  74.6511573601276 17.304445200594  C 74.6511573601276 17.304445200594  64.3261225369339 3.93327920325243  64.3261225369339 3.93327920325243  C 64.3261225369339 3.93327920325243  63.8672411003952 5.22492106152779  63.8672411003952 5.22492106152779  C 63.8672411003952 5.22492106152779  61.7607769156297 7.3696324493759  61.7607769156297 7.3696324493759  C 61.7607769156297 7.3696324493759  57.4163848480612 2.47952948422741  57.4163848480612 2.47952948422741  C 57.4163848480612 2.47952948422741  51.2615121673213 0.741040253311127  51.2615121673213 0.741040253311127  C 51.2615121673213 0.741040253311127  50.9563505469941 2.46014938132419  50.9563505469941 2.46014938132419  C 50.9563505469941 2.46014938132419  50.9481725035709 5.18616385573731  50.9481725035709 5.18616385573731  C 50.9481725035709 5.18616385573731  48.3858478983075 7.61551175492971  48.3858478983075 7.61551175492971  C 48.3858478983075 7.61551175492971  43.2651867089561 12.4782195746173  43.2651867089561 12.4782195746173  C 43.2651867089561 12.4782195746173  37.0661537937369 12.4596224758716  37.0661537937369 12.4596224758716  C 37.0661537937369 12.4596224758716  34.9558135883907 15.8963407239331  34.9558135883907 15.8963407239331  C 34.9558135883907 15.8963407239331  32.6988016042563 15.8895696879807  32.6988016042563 15.8895696879807  C 32.6988016042563 15.8895696879807  28.7815998049548 19.6048714152465  28.7815998049548 19.6048714152465  C 28.7815998049548 19.6048714152465  26.5245878208204 19.5981003792942  26.5245878208204 19.5981003792942  C 26.5245878208204 19.5981003792942  21.8552220277278 24.0311559176421  21.8552220277278 24.0311559176421  C 21.8552220277278 24.0311559176421  18.9980528569181 24.7405946845736  18.9980528569181 24.7405946845736  C 18.9980528569181 24.7405946845736  12.8069179836355 33.7561505547818  12.8069179836355 33.7561505547818  C 12.8069179836355 33.7561505547818  8.92367636465349 28.1514207951547  8.92367636465349 28.1514207951547  C 8.92367636465349 28.1514207951547  4.57182825749533 25.4133262565997  4.57182825749533 25.4133262565997  C 4.57182825749533 25.4133262565997  2.4657960750236 27.4140368798419  2.4657960750236 27.4140368798419  C 2.4657960750236 27.4140368798419  4.82820061876453 39.9573034812575  4.82820061876453 39.9573034812575  C 4.82820061876453 39.9573034812575  2.71071537547994 44.1090105257197  2.71071537547994 44.1090105257197  C 2.71071537547994 44.1090105257197  0.592197126710516 50.2717432481943  0.592197126710516 50.2717432481943  C 0.592197126710516 50.2717432481943  6.58861296608677 54.1617879032987  6.58861296608677 54.1617879032987  C 6.58861296608677 54.1617879032987  9.89776953682951 54.4587194799265  9.89776953682951 54.4587194799265  C 9.89776953682951 54.4587194799265  14.2361555725076 60.3508187654095  14.2361555725076 60.3508187654095  C 14.2361555725076 60.3508187654095  17.3963353522232 58.6392746775647  17.3963353522232 58.6392746775647  C 17.3963353522232 58.6392746775647  22.5240025787749 52.7745735375587  22.5240025787749 52.7745735375587  C 22.5240025787749 52.7745735375587  27.6585548418842 44.6148602116472  27.6585548418842 44.6148602116472  C 27.6585548418842 44.6148602116472  36.2257663315028 42.9185372046224  36.2257663315028 42.9185372046224  C 36.2257663315028 42.9185372046224  42.1103025768281 48.1012647235296  42.1103025768281 48.1012647235296  C 42.1103025768281 48.1012647235296  37.6887540995795 56.2631170607986  37.6887540995795 56.2631170607986  C 37.6887540995795 56.2631170607986  32.5579268562491 63.8478333336284  32.5579268562491 63.8478333336284  C 32.5579268562491 63.8478333336284  37.2044835282313 67.0178181654063  37.2044835282313 67.0178181654063  C 37.2044835282313 67.0178181654063  36.8932858758544 70.7489379766619  36.8932858758544 70.7489379766619  C 36.8932858758544 70.7489379766619  33.2759496687596 74.1771351794789  33.2759496687596 74.1771351794789  C 33.2759496687596 74.1771351794789  34.0226516335488 75.6133958056415  34.0226516335488 75.6133958056415  C 34.0226516335488 75.6133958056415  40.1941464025475 72.4778651568062  40.1941464025475 72.4778651568062  C 40.1941464025475 72.4778651568062  49.7281930258041 61.1743051379034  49.7281930258041 61.1743051379034  C 49.7281930258041 61.1743051379034  63.4272047639195 53.9022975254737  63.4272047639195 53.9022975254737  Z " fill-rule="evenodd" />
    </mask>
  </defs>
  <g transform="matrix(1 0 0 1 -1295 -271 )">
    <path d="M 63.4272047639195 53.9022975254737  C 63.4272047639195 53.9022975254737  67.7842458986509 52.9093542532085  67.7842458986509 52.9093542532085  C 67.7842458986509 52.9093542532085  76.3814355474454 40.886973417558  76.3814355474454 40.886973417558  C 76.3814355474454 40.886973417558  81.8145623959067 34.5371817018498  81.8145623959067 34.5371817018498  C 81.8145623959067 34.5371817018498  81.0787724890575 28.7968922224366  81.0787724890575 28.7968922224366  C 81.0787724890575 28.7968922224366  75.3876752708421 22.4687286215679  75.3876752708421 22.4687286215679  C 75.3876752708421 22.4687286215679  74.6511573601276 17.304445200594  74.6511573601276 17.304445200594  C 74.6511573601276 17.304445200594  64.3261225369339 3.93327920325243  64.3261225369339 3.93327920325243  C 64.3261225369339 3.93327920325243  63.8672411003952 5.22492106152779  63.8672411003952 5.22492106152779  C 63.8672411003952 5.22492106152779  61.7607769156297 7.3696324493759  61.7607769156297 7.3696324493759  C 61.7607769156297 7.3696324493759  57.4163848480612 2.47952948422741  57.4163848480612 2.47952948422741  C 57.4163848480612 2.47952948422741  51.2615121673213 0.741040253311127  51.2615121673213 0.741040253311127  C 51.2615121673213 0.741040253311127  50.9563505469941 2.46014938132419  50.9563505469941 2.46014938132419  C 50.9563505469941 2.46014938132419  50.9481725035709 5.18616385573731  50.9481725035709 5.18616385573731  C 50.9481725035709 5.18616385573731  48.3858478983075 7.61551175492971  48.3858478983075 7.61551175492971  C 48.3858478983075 7.61551175492971  43.2651867089561 12.4782195746173  43.2651867089561 12.4782195746173  C 43.2651867089561 12.4782195746173  37.0661537937369 12.4596224758716  37.0661537937369 12.4596224758716  C 37.0661537937369 12.4596224758716  34.9558135883907 15.8963407239331  34.9558135883907 15.8963407239331  C 34.9558135883907 15.8963407239331  32.6988016042563 15.8895696879807  32.6988016042563 15.8895696879807  C 32.6988016042563 15.8895696879807  28.7815998049548 19.6048714152465  28.7815998049548 19.6048714152465  C 28.7815998049548 19.6048714152465  26.5245878208204 19.5981003792942  26.5245878208204 19.5981003792942  C 26.5245878208204 19.5981003792942  21.8552220277278 24.0311559176421  21.8552220277278 24.0311559176421  C 21.8552220277278 24.0311559176421  18.9980528569181 24.7405946845736  18.9980528569181 24.7405946845736  C 18.9980528569181 24.7405946845736  12.8069179836355 33.7561505547818  12.8069179836355 33.7561505547818  C 12.8069179836355 33.7561505547818  8.92367636465349 28.1514207951547  8.92367636465349 28.1514207951547  C 8.92367636465349 28.1514207951547  4.57182825749533 25.4133262565997  4.57182825749533 25.4133262565997  C 4.57182825749533 25.4133262565997  2.4657960750236 27.4140368798419  2.4657960750236 27.4140368798419  C 2.4657960750236 27.4140368798419  4.82820061876453 39.9573034812575  4.82820061876453 39.9573034812575  C 4.82820061876453 39.9573034812575  2.71071537547994 44.1090105257197  2.71071537547994 44.1090105257197  C 2.71071537547994 44.1090105257197  0.592197126710516 50.2717432481943  0.592197126710516 50.2717432481943  C 0.592197126710516 50.2717432481943  6.58861296608677 54.1617879032987  6.58861296608677 54.1617879032987  C 6.58861296608677 54.1617879032987  9.89776953682951 54.4587194799265  9.89776953682951 54.4587194799265  C 9.89776953682951 54.4587194799265  14.2361555725076 60.3508187654095  14.2361555725076 60.3508187654095  C 14.2361555725076 60.3508187654095  17.3963353522232 58.6392746775647  17.3963353522232 58.6392746775647  C 17.3963353522232 58.6392746775647  22.5240025787749 52.7745735375587  22.5240025787749 52.7745735375587  C 22.5240025787749 52.7745735375587  27.6585548418842 44.6148602116472  27.6585548418842 44.6148602116472  C 27.6585548418842 44.6148602116472  36.2257663315028 42.9185372046224  36.2257663315028 42.9185372046224  C 36.2257663315028 42.9185372046224  42.1103025768281 48.1012647235296  42.1103025768281 48.1012647235296  C 42.1103025768281 48.1012647235296  37.6887540995795 56.2631170607986  37.6887540995795 56.2631170607986  C 37.6887540995795 56.2631170607986  32.5579268562491 63.8478333336284  32.5579268562491 63.8478333336284  C 32.5579268562491 63.8478333336284  37.2044835282313 67.0178181654063  37.2044835282313 67.0178181654063  C 37.2044835282313 67.0178181654063  36.8932858758544 70.7489379766619  36.8932858758544 70.7489379766619  C 36.8932858758544 70.7489379766619  33.2759496687596 74.1771351794789  33.2759496687596 74.1771351794789  C 33.2759496687596 74.1771351794789  34.0226516335488 75.6133958056415  34.0226516335488 75.6133958056415  C 34.0226516335488 75.6133958056415  40.1941464025475 72.4778651568062  40.1941464025475 72.4778651568062  C 40.1941464025475 72.4778651568062  49.7281930258041 61.1743051379034  49.7281930258041 61.1743051379034  C 49.7281930258041 61.1743051379034  63.4272047639195 53.9022975254737  63.4272047639195 53.9022975254737  Z " fill-rule="nonzero" fill="#2f88ca" stroke="none" transform="matrix(1 0 0 1 1295 271 )" />
    <path d="M 63.4272047639195 53.9022975254737  C 63.4272047639195 53.9022975254737  67.7842458986509 52.9093542532085  67.7842458986509 52.9093542532085  C 67.7842458986509 52.9093542532085  76.3814355474454 40.886973417558  76.3814355474454 40.886973417558  C 76.3814355474454 40.886973417558  81.8145623959067 34.5371817018498  81.8145623959067 34.5371817018498  C 81.8145623959067 34.5371817018498  81.0787724890575 28.7968922224366  81.0787724890575 28.7968922224366  C 81.0787724890575 28.7968922224366  75.3876752708421 22.4687286215679  75.3876752708421 22.4687286215679  C 75.3876752708421 22.4687286215679  74.6511573601276 17.304445200594  74.6511573601276 17.304445200594  C 74.6511573601276 17.304445200594  64.3261225369339 3.93327920325243  64.3261225369339 3.93327920325243  C 64.3261225369339 3.93327920325243  63.8672411003952 5.22492106152779  63.8672411003952 5.22492106152779  C 63.8672411003952 5.22492106152779  61.7607769156297 7.3696324493759  61.7607769156297 7.3696324493759  C 61.7607769156297 7.3696324493759  57.4163848480612 2.47952948422741  57.4163848480612 2.47952948422741  C 57.4163848480612 2.47952948422741  51.2615121673213 0.741040253311127  51.2615121673213 0.741040253311127  C 51.2615121673213 0.741040253311127  50.9563505469941 2.46014938132419  50.9563505469941 2.46014938132419  C 50.9563505469941 2.46014938132419  50.9481725035709 5.18616385573731  50.9481725035709 5.18616385573731  C 50.9481725035709 5.18616385573731  48.3858478983075 7.61551175492971  48.3858478983075 7.61551175492971  C 48.3858478983075 7.61551175492971  43.2651867089561 12.4782195746173  43.2651867089561 12.4782195746173  C 43.2651867089561 12.4782195746173  37.0661537937369 12.4596224758716  37.0661537937369 12.4596224758716  C 37.0661537937369 12.4596224758716  34.9558135883907 15.8963407239331  34.9558135883907 15.8963407239331  C 34.9558135883907 15.8963407239331  32.6988016042563 15.8895696879807  32.6988016042563 15.8895696879807  C 32.6988016042563 15.8895696879807  28.7815998049548 19.6048714152465  28.7815998049548 19.6048714152465  C 28.7815998049548 19.6048714152465  26.5245878208204 19.5981003792942  26.5245878208204 19.5981003792942  C 26.5245878208204 19.5981003792942  21.8552220277278 24.0311559176421  21.8552220277278 24.0311559176421  C 21.8552220277278 24.0311559176421  18.9980528569181 24.7405946845736  18.9980528569181 24.7405946845736  C 18.9980528569181 24.7405946845736  12.8069179836355 33.7561505547818  12.8069179836355 33.7561505547818  C 12.8069179836355 33.7561505547818  8.92367636465349 28.1514207951547  8.92367636465349 28.1514207951547  C 8.92367636465349 28.1514207951547  4.57182825749533 25.4133262565997  4.57182825749533 25.4133262565997  C 4.57182825749533 25.4133262565997  2.4657960750236 27.4140368798419  2.4657960750236 27.4140368798419  C 2.4657960750236 27.4140368798419  4.82820061876453 39.9573034812575  4.82820061876453 39.9573034812575  C 4.82820061876453 39.9573034812575  2.71071537547994 44.1090105257197  2.71071537547994 44.1090105257197  C 2.71071537547994 44.1090105257197  0.592197126710516 50.2717432481943  0.592197126710516 50.2717432481943  C 0.592197126710516 50.2717432481943  6.58861296608677 54.1617879032987  6.58861296608677 54.1617879032987  C 6.58861296608677 54.1617879032987  9.89776953682951 54.4587194799265  9.89776953682951 54.4587194799265  C 9.89776953682951 54.4587194799265  14.2361555725076 60.3508187654095  14.2361555725076 60.3508187654095  C 14.2361555725076 60.3508187654095  17.3963353522232 58.6392746775647  17.3963353522232 58.6392746775647  C 17.3963353522232 58.6392746775647  22.5240025787749 52.7745735375587  22.5240025787749 52.7745735375587  C 22.5240025787749 52.7745735375587  27.6585548418842 44.6148602116472  27.6585548418842 44.6148602116472  C 27.6585548418842 44.6148602116472  36.2257663315028 42.9185372046224  36.2257663315028 42.9185372046224  C 36.2257663315028 42.9185372046224  42.1103025768281 48.1012647235296  42.1103025768281 48.1012647235296  C 42.1103025768281 48.1012647235296  37.6887540995795 56.2631170607986  37.6887540995795 56.2631170607986  C 37.6887540995795 56.2631170607986  32.5579268562491 63.8478333336284  32.5579268562491 63.8478333336284  C 32.5579268562491 63.8478333336284  37.2044835282313 67.0178181654063  37.2044835282313 67.0178181654063  C 37.2044835282313 67.0178181654063  36.8932858758544 70.7489379766619  36.8932858758544 70.7489379766619  C 36.8932858758544 70.7489379766619  33.2759496687596 74.1771351794789  33.2759496687596 74.1771351794789  C 33.2759496687596 74.1771351794789  34.0226516335488 75.6133958056415  34.0226516335488 75.6133958056415  C 34.0226516335488 75.6133958056415  40.1941464025475 72.4778651568062  40.1941464025475 72.4778651568062  C 40.1941464025475 72.4778651568062  49.7281930258041 61.1743051379034  49.7281930258041 61.1743051379034  C 49.7281930258041 61.1743051379034  63.4272047639195 53.9022975254737  63.4272047639195 53.9022975254737  Z " stroke-width="0.97600957434184" stroke="#199eae" fill="none" transform="matrix(1 0 0 1 1295 271 )" mask="url(#clip1482)" />
  </g>
</svg>