<?xml version="1.0" encoding="utf-8"?>
<svg version="1.1" xmlns:xlink="http://www.w3.org/1999/xlink" width="161px" height="140px" xmlns="http://www.w3.org/2000/svg">
  <defs>
    <mask fill="white" id="clip1484">
      <path d="M 28.0738641886594 2.48228549001145  C 28.0738641886594 2.48228549001145  17.561847372641 0.437720633914871  17.561847372641 0.437720633914871  C 17.561847372641 0.437720633914871  3.57356509857573 5.13182355835518  3.57356509857573 5.13182355835518  C 3.57356509857573 5.13182355835518  1.01510151381331 7.27417893369345  1.01510151381331 7.27417893369345  C 1.01510151381331 7.27417893369345  3.85792660845982 11.0127607845705  3.85792660845982 11.0127607845705  C 3.85792660845982 11.0127607845705  0.224808317566271 20.0349906902161  0.224808317566271 20.0349906902161  C 0.224808317566271 20.0349906902161  1.2737988874278 21.0431520432852  1.2737988874278 21.0431520432852  C 1.2737988874278 21.0431520432852  7.42264453616576 24.7906519415147  7.42264453616576 24.7906519415147  C 7.42264453616576 24.7906519415147  10.7381451405937 19.6395245903961  10.7381451405937 19.6395245903961  C 10.7381451405937 19.6395245903961  16.4408584204871 23.095681941674  16.4408584204871 23.095681941674  C 16.4408584204871 23.095681941674  16.1335457887386 25.531794876787  16.1335457887386 25.531794876787  C 16.1335457887386 25.531794876787  18.2150558410044 31.7051276555451  18.2150558410044 31.7051276555451  C 18.2150558410044 31.7051276555451  21.8034498944243 35.590948288221  21.8034498944243 35.590948288221  C 21.8034498944243 35.590948288221  29.0154881884329 36.6125987129135  29.0154881884329 36.6125987129135  C 29.0154881884329 36.6125987129135  31.1219553732144 34.4668873197557  31.1219553732144 34.4668873197557  C 31.1219553732144 34.4668873197557  35.4787005063745 33.9059493413239  35.4787005063745 33.9059493413239  C 35.4787005063745 33.9059493413239  43.7625444913867 27.3307064285297  43.7625444913867 27.3307064285297  C 43.7625444913867 27.3307064285297  54.5638018431957 34.9632189551449  54.5638018431957 34.9632189551449  C 54.5638018431957 34.9632189551449  50.9126084563281 49.0104665423002  50.9126084563281 49.0104665423002  C 50.9126084563281 49.0104665423002  51.6324982787519 59.0507698536453  51.6324982787519 59.0507698536453  C 51.6324982787519 59.0507698536453  51.613997180516 65.2178025989519  51.613997180516 65.2178025989519  C 51.613997180516 65.2178025989519  48.7566800089205 66.6432511677053  48.7566800089205 66.6432511677053  C 48.7566800089205 66.6432511677053  48.4070221523302 83.1944390501189  48.4070221523302 83.1944390501189  C 48.4070221523302 83.1944390501189  47.6567371685161 82.619179995646  47.6567371685161 82.619179995646  C 47.6567371685161 82.619179995646  44.8150540799334 79.1666056633929  44.8150540799334 79.1666056633929  C 44.8150540799334 79.1666056633929  43.308046078121 79.1620846393875  43.308046078121 79.1620846393875  C 43.308046078121 79.1620846393875  42.5541630752025 80.4528414929637  42.5541630752025 80.4528414929637  C 42.5541630752025 80.4528414929637  33.5128080680074 93.1949001499123  33.5128080680074 93.1949001499123  C 33.5128080680074 93.1949001499123  29.1404318518505 98.6328610240408  29.1404318518505 98.6328610240408  C 29.1404318518505 98.6328610240408  29.5862772191711 100.353223158707  29.5862772191711 100.353223158707  C 29.5862772191711 100.353223158707  38.5866730088833 106.264308545001  38.5866730088833 106.264308545001  C 38.5866730088833 106.264308545001  43.5455723393222 104.988166769027  43.5455723393222 104.988166769027  C 43.5455723393222 104.988166769027  44.2967033276284 106.281438635957  44.2967033276284 106.281438635957  C 44.2967033276284 106.281438635957  43.2373957029861 107.712281233352  43.2373957029861 107.712281233352  C 43.2373957029861 107.712281233352  38.5763469540548 109.706326821204  38.5763469540548 109.706326821204  C 38.5763469540548 109.706326821204  38.1107314817602 113.575985368064  38.1107314817602 113.575985368064  C 38.1107314817602 113.575985368064  40.3607224286148 115.589764060694  40.3607224286148 115.589764060694  C 40.3607224286148 115.589764060694  48.9320729402106 114.180457577651  48.9320729402106 114.180457577651  C 48.9320729402106 114.180457577651  52.5131559548106 120.503291150218  52.5131559548106 120.503291150218  C 52.5131559548106 120.503291150218  57.9130006265522 124.247544031207  57.9130006265522 124.247544031207  C 57.9130006265522 124.247544031207  61.5243188016929 122.825357479774  61.5243188016929 122.825357479774  C 61.5243188016929 122.825357479774  64.5313347681492 122.834378527674  64.5313347681492 122.834378527674  C 64.5313347681492 122.834378527674  69.9523995525641 119.838598620878  69.9523995525641 119.838598620878  C 69.9523995525641 119.838598620878  73.8412332012383 123.579318483107  73.8412332012383 123.579318483107  C 73.8412332012383 123.579318483107  76.396956771452 124.016991807036  76.396956771452 124.016991807036  C 76.396956771452 124.016991807036  83.651309290138 121.600719977274  83.651309290138 121.600719977274  C 83.651309290138 121.600719977274  88.4580208125 124.053174999159  88.4580208125 124.053174999159  C 88.4580208125 124.053174999159  90.5425368807269 129.224502457535  90.5425368807269 129.224502457535  C 90.5425368807269 129.224502457535  94.1485560277312 129.235320514976  94.1485560277312 129.235320514976  C 94.1485560277312 129.235320514976  95.9476865806368 131.53375071903  95.9476865806368 131.53375071903  C 95.9476865806368 131.53375071903  100.589080225205 136.42474468891  100.589080225205 136.42474468891  C 100.589080225205 136.42474468891  102.392089798707 135.43013940782  102.392089798707 135.43013940782  C 102.392089798707 135.43013940782  101.662589925256 129.259862645288  101.662589925256 129.259862645288  C 101.662589925256 129.259862645288  104.224775529782 127.543524531989  104.224775529782 127.543524531989  C 104.224775529782 127.543524531989  107.804136535238 134.44036115236  107.804136535238 134.44036115236  C 107.804136535238 134.44036115236  111.109275084646 135.743295070593  111.109275084646 135.743295070593  C 111.109275084646 135.743295070593  114.697687138162 139.623115671411  114.697687138162 139.623115671411  C 114.697687138162 139.623115671411  117.253990711455 139.200778428912  117.253990711455 139.200778428912  C 117.253990711455 139.200778428912  118.311150324692 137.485925323497  118.311150324692 137.485925323497  C 118.311150324692 137.485925323497  124.042684757618 131.335031663885  124.042684757618 131.335031663885  C 124.042684757618 131.335031663885  126.590535286028 133.063699842654  126.590535286028 133.063699842654  C 126.590535286028 133.063699842654  128.397852882405 130.633086936745  128.397852882405 130.633086936745  C 128.397852882405 130.633086936745  130.188403389752 133.791503707099  130.188403389752 133.791503707099  C 130.188403389752 133.791503707099  135.592263082813 135.530739941982  135.592263082813 135.530739941982  C 135.592263082813 135.530739941982  139.201282245746 135.541566999471  139.201282245746 135.541566999471  C 139.201282245746 135.541566999471  141.813978118468 135.655406603929  141.813978118468 135.655406603929  C 141.813978118468 135.655406603929  140.259607865175 133.104707060391  140.259607865175 133.104707060391  C 140.259607865175 133.104707060391  139.52856098351 124.783394876433  139.52856098351 124.783394876433  C 139.52856098351 124.783394876433  133.098350840801 115.155966757346  133.098350840801 115.155966757346  C 133.098350840801 115.155966757346  136.717705058611 111.721775522702  136.717705058611 111.721775522702  C 136.717705058611 111.721775522702  140.040365701057 105.850659348634  140.040365701057 105.850659348634  C 140.040365701057 105.850659348634  152.210430320869 105.887169542493  152.210430320869 105.887169542493  C 152.210430320869 105.887169542493  154.469460315719 103.887917926998  154.469460315719 103.887917926998  C 154.469460315719 103.887917926998  153.731785398861 99.4426413237592  153.731785398861 99.4426413237592  C 153.731785398861 99.4426413237592  156.298137025506 95.0042767572217  156.298137025506 95.0042767572217  C 156.298137025506 95.0042767572217  155.554450076726 92.5630107947476  155.554450076726 92.5630107947476  C 155.554450076726 92.5630107947476  156.617926723505 88.4091417388057  156.617926723505 88.4091417388057  C 156.617926723505 88.4091417388057  156.383502478774 66.5491256679239  156.383502478774 66.5491256679239  C 156.383502478774 66.5491256679239  160.012173746056 59.6759131729903  160.012173746056 59.6759131729903  C 160.012173746056 59.6759131729903  155.96749026986 55.2177155011443  155.96749026986 55.2177155011443  C 155.96749026986 55.2177155011443  156.724666290264 52.4959480492817  156.724666290264 52.4959480492817  C 156.724666290264 52.4959480492817  154.931976771558 50.050535064788  154.931976771558 50.050535064788  C 154.931976771558 50.050535064788  150.26478899003 51.7575581286273  150.26478899003 51.7575581286273  C 150.26478899003 51.7575581286273  144.865123319239 57.6204432589908  144.865123319239 57.6204432589908  C 144.865123319239 57.6204432589908  139.450783570532 60.0412351127528  139.450783570532 60.0412351127528  C 139.450783570532 60.0412351127528  134.016244714574 67.1950340975262  134.016244714574 67.1950340975262  C 134.016244714574 67.1950340975262  120.62137459137 72.0879200774518  120.62137459137 72.0879200774518  C 120.62137459137 72.0879200774518  114.476146961842 67.1344137756484  114.476146961842 67.1344137756484  C 114.476146961842 67.1344137756484  115.234322987556 64.4126493238017  115.234322987556 64.4126493238017  C 115.234322987556 64.4126493238017  112.092644306076 59.9571606663398  112.092644306076 59.9571606663398  C 112.092644306076 59.9571606663398  110.606400414516 55.3646362812546  110.606400414516 55.3646362812546  C 110.606400414516 55.3646362812546  105.502234312749 55.0623196760337  105.502234312749 55.0623196760337  C 105.502234312749 55.0623196760337  96.4985305054718 50.5872449145748  96.4985305054718 50.5872449145748  C 96.4985305054718 50.5872449145748  92.8816473007822 51.8644126959966  92.8816473007822 51.8644126959966  C 92.8816473007822 51.8644126959966  88.6876250316374 49.8518020095682  88.6876250316374 49.8518020095682  C 88.6876250316374 49.8518020095682  82.515592259782 50.8333002210631  82.515592259782 50.8333002210631  C 82.515592259782 50.8333002210631  76.6327210232976 49.0956269944796  76.6327210232976 49.0956269944796  C 76.6327210232976 49.0956269944796  73.3370415241144 44.6396763345646  73.3370415241144 44.6396763345646  C 73.3370415241144 44.6396763345646  70.1973478531745 41.1892080134939  70.1973478531745 41.1892080134939  C 70.1973478531745 41.1892080134939  69.0016675044293 37.7435717180799  69.0016675044293 37.7435717180799  C 69.0016675044293 37.7435717180799  64.8081252378332 33.5709315624685  64.8081252378332 33.5709315624685  C 64.8081252378332 33.5709315624685  62.2633017254959 29.8332437163383  62.2633017254959 29.8332437163383  C 62.2633017254959 29.8332437163383  56.4240707207296 22.2156172687643  56.4240707207296 22.2156172687643  C 56.4240707207296 22.2156172687643  54.6373932339464 17.7661936435061  54.6373932339464 17.7661936435061  C 54.6373932339464 17.7661936435061  48.1980260426163 9.8577626518371  48.1980260426163 9.8577626518371  C 48.1980260426163 9.8577626518371  46.4104995513252 5.69134052924175  46.4104995513252 5.69134052924175  C 46.4104995513252 5.69134052924175  38.1430806535255 1.79148282203268  38.1430806535255 1.79148282203268  C 38.1430806535255 1.79148282203268  32.7278889002951 3.49626187395685  32.7278889002951 3.49626187395685  C 32.7278889002951 3.49626187395685  28.0738641886594 2.48228549001145  28.0738641886594 2.48228549001145  Z " fill-rule="evenodd" />
    </mask>
  </defs>
  <g transform="matrix(1 0 0 1 -1289 -116 )">
    <path d="M 28.0738641886594 2.48228549001145  C 28.0738641886594 2.48228549001145  17.561847372641 0.437720633914871  17.561847372641 0.437720633914871  C 17.561847372641 0.437720633914871  3.57356509857573 5.13182355835518  3.57356509857573 5.13182355835518  C 3.57356509857573 5.13182355835518  1.01510151381331 7.27417893369345  1.01510151381331 7.27417893369345  C 1.01510151381331 7.27417893369345  3.85792660845982 11.0127607845705  3.85792660845982 11.0127607845705  C 3.85792660845982 11.0127607845705  0.224808317566271 20.0349906902161  0.224808317566271 20.0349906902161  C 0.224808317566271 20.0349906902161  1.2737988874278 21.0431520432852  1.2737988874278 21.0431520432852  C 1.2737988874278 21.0431520432852  7.42264453616576 24.7906519415147  7.42264453616576 24.7906519415147  C 7.42264453616576 24.7906519415147  10.7381451405937 19.6395245903961  10.7381451405937 19.6395245903961  C 10.7381451405937 19.6395245903961  16.4408584204871 23.095681941674  16.4408584204871 23.095681941674  C 16.4408584204871 23.095681941674  16.1335457887386 25.531794876787  16.1335457887386 25.531794876787  C 16.1335457887386 25.531794876787  18.2150558410044 31.7051276555451  18.2150558410044 31.7051276555451  C 18.2150558410044 31.7051276555451  21.8034498944243 35.590948288221  21.8034498944243 35.590948288221  C 21.8034498944243 35.590948288221  29.0154881884329 36.6125987129135  29.0154881884329 36.6125987129135  C 29.0154881884329 36.6125987129135  31.1219553732144 34.4668873197557  31.1219553732144 34.4668873197557  C 31.1219553732144 34.4668873197557  35.4787005063745 33.9059493413239  35.4787005063745 33.9059493413239  C 35.4787005063745 33.9059493413239  43.7625444913867 27.3307064285297  43.7625444913867 27.3307064285297  C 43.7625444913867 27.3307064285297  54.5638018431957 34.9632189551449  54.5638018431957 34.9632189551449  C 54.5638018431957 34.9632189551449  50.9126084563281 49.0104665423002  50.9126084563281 49.0104665423002  C 50.9126084563281 49.0104665423002  51.6324982787519 59.0507698536453  51.6324982787519 59.0507698536453  C 51.6324982787519 59.0507698536453  51.613997180516 65.2178025989519  51.613997180516 65.2178025989519  C 51.613997180516 65.2178025989519  48.7566800089205 66.6432511677053  48.7566800089205 66.6432511677053  C 48.7566800089205 66.6432511677053  48.4070221523302 83.1944390501189  48.4070221523302 83.1944390501189  C 48.4070221523302 83.1944390501189  47.6567371685161 82.619179995646  47.6567371685161 82.619179995646  C 47.6567371685161 82.619179995646  44.8150540799334 79.1666056633929  44.8150540799334 79.1666056633929  C 44.8150540799334 79.1666056633929  43.308046078121 79.1620846393875  43.308046078121 79.1620846393875  C 43.308046078121 79.1620846393875  42.5541630752025 80.4528414929637  42.5541630752025 80.4528414929637  C 42.5541630752025 80.4528414929637  33.5128080680074 93.1949001499123  33.5128080680074 93.1949001499123  C 33.5128080680074 93.1949001499123  29.1404318518505 98.6328610240408  29.1404318518505 98.6328610240408  C 29.1404318518505 98.6328610240408  29.5862772191711 100.353223158707  29.5862772191711 100.353223158707  C 29.5862772191711 100.353223158707  38.5866730088833 106.264308545001  38.5866730088833 106.264308545001  C 38.5866730088833 106.264308545001  43.5455723393222 104.988166769027  43.5455723393222 104.988166769027  C 43.5455723393222 104.988166769027  44.2967033276284 106.281438635957  44.2967033276284 106.281438635957  C 44.2967033276284 106.281438635957  43.2373957029861 107.712281233352  43.2373957029861 107.712281233352  C 43.2373957029861 107.712281233352  38.5763469540548 109.706326821204  38.5763469540548 109.706326821204  C 38.5763469540548 109.706326821204  38.1107314817602 113.575985368064  38.1107314817602 113.575985368064  C 38.1107314817602 113.575985368064  40.3607224286148 115.589764060694  40.3607224286148 115.589764060694  C 40.3607224286148 115.589764060694  48.9320729402106 114.180457577651  48.9320729402106 114.180457577651  C 48.9320729402106 114.180457577651  52.5131559548106 120.503291150218  52.5131559548106 120.503291150218  C 52.5131559548106 120.503291150218  57.9130006265522 124.247544031207  57.9130006265522 124.247544031207  C 57.9130006265522 124.247544031207  61.5243188016929 122.825357479774  61.5243188016929 122.825357479774  C 61.5243188016929 122.825357479774  64.5313347681492 122.834378527674  64.5313347681492 122.834378527674  C 64.5313347681492 122.834378527674  69.9523995525641 119.838598620878  69.9523995525641 119.838598620878  C 69.9523995525641 119.838598620878  73.8412332012383 123.579318483107  73.8412332012383 123.579318483107  C 73.8412332012383 123.579318483107  76.396956771452 124.016991807036  76.396956771452 124.016991807036  C 76.396956771452 124.016991807036  83.651309290138 121.600719977274  83.651309290138 121.600719977274  C 83.651309290138 121.600719977274  88.4580208125 124.053174999159  88.4580208125 124.053174999159  C 88.4580208125 124.053174999159  90.5425368807269 129.224502457535  90.5425368807269 129.224502457535  C 90.5425368807269 129.224502457535  94.1485560277312 129.235320514976  94.1485560277312 129.235320514976  C 94.1485560277312 129.235320514976  95.9476865806368 131.53375071903  95.9476865806368 131.53375071903  C 95.9476865806368 131.53375071903  100.589080225205 136.42474468891  100.589080225205 136.42474468891  C 100.589080225205 136.42474468891  102.392089798707 135.43013940782  102.392089798707 135.43013940782  C 102.392089798707 135.43013940782  101.662589925256 129.259862645288  101.662589925256 129.259862645288  C 101.662589925256 129.259862645288  104.224775529782 127.543524531989  104.224775529782 127.543524531989  C 104.224775529782 127.543524531989  107.804136535238 134.44036115236  107.804136535238 134.44036115236  C 107.804136535238 134.44036115236  111.109275084646 135.743295070593  111.109275084646 135.743295070593  C 111.109275084646 135.743295070593  114.697687138162 139.623115671411  114.697687138162 139.623115671411  C 114.697687138162 139.623115671411  117.253990711455 139.200778428912  117.253990711455 139.200778428912  C 117.253990711455 139.200778428912  118.311150324692 137.485925323497  118.311150324692 137.485925323497  C 118.311150324692 137.485925323497  124.042684757618 131.335031663885  124.042684757618 131.335031663885  C 124.042684757618 131.335031663885  126.590535286028 133.063699842654  126.590535286028 133.063699842654  C 126.590535286028 133.063699842654  128.397852882405 130.633086936745  128.397852882405 130.633086936745  C 128.397852882405 130.633086936745  130.188403389752 133.791503707099  130.188403389752 133.791503707099  C 130.188403389752 133.791503707099  135.592263082813 135.530739941982  135.592263082813 135.530739941982  C 135.592263082813 135.530739941982  139.201282245746 135.541566999471  139.201282245746 135.541566999471  C 139.201282245746 135.541566999471  141.813978118468 135.655406603929  141.813978118468 135.655406603929  C 141.813978118468 135.655406603929  140.259607865175 133.104707060391  140.259607865175 133.104707060391  C 140.259607865175 133.104707060391  139.52856098351 124.783394876433  139.52856098351 124.783394876433  C 139.52856098351 124.783394876433  133.098350840801 115.155966757346  133.098350840801 115.155966757346  C 133.098350840801 115.155966757346  136.717705058611 111.721775522702  136.717705058611 111.721775522702  C 136.717705058611 111.721775522702  140.040365701057 105.850659348634  140.040365701057 105.850659348634  C 140.040365701057 105.850659348634  152.210430320869 105.887169542493  152.210430320869 105.887169542493  C 152.210430320869 105.887169542493  154.469460315719 103.887917926998  154.469460315719 103.887917926998  C 154.469460315719 103.887917926998  153.731785398861 99.4426413237592  153.731785398861 99.4426413237592  C 153.731785398861 99.4426413237592  156.298137025506 95.0042767572217  156.298137025506 95.0042767572217  C 156.298137025506 95.0042767572217  155.554450076726 92.5630107947476  155.554450076726 92.5630107947476  C 155.554450076726 92.5630107947476  156.617926723505 88.4091417388057  156.617926723505 88.4091417388057  C 156.617926723505 88.4091417388057  156.383502478774 66.5491256679239  156.383502478774 66.5491256679239  C 156.383502478774 66.5491256679239  160.012173746056 59.6759131729903  160.012173746056 59.6759131729903  C 160.012173746056 59.6759131729903  155.96749026986 55.2177155011443  155.96749026986 55.2177155011443  C 155.96749026986 55.2177155011443  156.724666290264 52.4959480492817  156.724666290264 52.4959480492817  C 156.724666290264 52.4959480492817  154.931976771558 50.050535064788  154.931976771558 50.050535064788  C 154.931976771558 50.050535064788  150.26478899003 51.7575581286273  150.26478899003 51.7575581286273  C 150.26478899003 51.7575581286273  144.865123319239 57.6204432589908  144.865123319239 57.6204432589908  C 144.865123319239 57.6204432589908  139.450783570532 60.0412351127528  139.450783570532 60.0412351127528  C 139.450783570532 60.0412351127528  134.016244714574 67.1950340975262  134.016244714574 67.1950340975262  C 134.016244714574 67.1950340975262  120.62137459137 72.0879200774518  120.62137459137 72.0879200774518  C 120.62137459137 72.0879200774518  114.476146961842 67.1344137756484  114.476146961842 67.1344137756484  C 114.476146961842 67.1344137756484  115.234322987556 64.4126493238017  115.234322987556 64.4126493238017  C 115.234322987556 64.4126493238017  112.092644306076 59.9571606663398  112.092644306076 59.9571606663398  C 112.092644306076 59.9571606663398  110.606400414516 55.3646362812546  110.606400414516 55.3646362812546  C 110.606400414516 55.3646362812546  105.502234312749 55.0623196760337  105.502234312749 55.0623196760337  C 105.502234312749 55.0623196760337  96.4985305054718 50.5872449145748  96.4985305054718 50.5872449145748  C 96.4985305054718 50.5872449145748  92.8816473007822 51.8644126959966  92.8816473007822 51.8644126959966  C 92.8816473007822 51.8644126959966  88.6876250316374 49.8518020095682  88.6876250316374 49.8518020095682  C 88.6876250316374 49.8518020095682  82.515592259782 50.8333002210631  82.515592259782 50.8333002210631  C 82.515592259782 50.8333002210631  76.6327210232976 49.0956269944796  76.6327210232976 49.0956269944796  C 76.6327210232976 49.0956269944796  73.3370415241144 44.6396763345646  73.3370415241144 44.6396763345646  C 73.3370415241144 44.6396763345646  70.1973478531745 41.1892080134939  70.1973478531745 41.1892080134939  C 70.1973478531745 41.1892080134939  69.0016675044293 37.7435717180799  69.0016675044293 37.7435717180799  C 69.0016675044293 37.7435717180799  64.8081252378332 33.5709315624685  64.8081252378332 33.5709315624685  C 64.8081252378332 33.5709315624685  62.2633017254959 29.8332437163383  62.2633017254959 29.8332437163383  C 62.2633017254959 29.8332437163383  56.4240707207296 22.2156172687643  56.4240707207296 22.2156172687643  C 56.4240707207296 22.2156172687643  54.6373932339464 17.7661936435061  54.6373932339464 17.7661936435061  C 54.6373932339464 17.7661936435061  48.1980260426163 9.8577626518371  48.1980260426163 9.8577626518371  C 48.1980260426163 9.8577626518371  46.4104995513252 5.69134052924175  46.4104995513252 5.69134052924175  C 46.4104995513252 5.69134052924175  38.1430806535255 1.79148282203268  38.1430806535255 1.79148282203268  C 38.1430806535255 1.79148282203268  32.7278889002951 3.49626187395685  32.7278889002951 3.49626187395685  C 32.7278889002951 3.49626187395685  28.0738641886594 2.48228549001145  28.0738641886594 2.48228549001145  Z " fill-rule="nonzero" fill="#156fb8" stroke="none" transform="matrix(1 0 0 1 1289 116 )" />
    <path d="M 28.0738641886594 2.48228549001145  C 28.0738641886594 2.48228549001145  17.561847372641 0.437720633914871  17.561847372641 0.437720633914871  C 17.561847372641 0.437720633914871  3.57356509857573 5.13182355835518  3.57356509857573 5.13182355835518  C 3.57356509857573 5.13182355835518  1.01510151381331 7.27417893369345  1.01510151381331 7.27417893369345  C 1.01510151381331 7.27417893369345  3.85792660845982 11.0127607845705  3.85792660845982 11.0127607845705  C 3.85792660845982 11.0127607845705  0.224808317566271 20.0349906902161  0.224808317566271 20.0349906902161  C 0.224808317566271 20.0349906902161  1.2737988874278 21.0431520432852  1.2737988874278 21.0431520432852  C 1.2737988874278 21.0431520432852  7.42264453616576 24.7906519415147  7.42264453616576 24.7906519415147  C 7.42264453616576 24.7906519415147  10.7381451405937 19.6395245903961  10.7381451405937 19.6395245903961  C 10.7381451405937 19.6395245903961  16.4408584204871 23.095681941674  16.4408584204871 23.095681941674  C 16.4408584204871 23.095681941674  16.1335457887386 25.531794876787  16.1335457887386 25.531794876787  C 16.1335457887386 25.531794876787  18.2150558410044 31.7051276555451  18.2150558410044 31.7051276555451  C 18.2150558410044 31.7051276555451  21.8034498944243 35.590948288221  21.8034498944243 35.590948288221  C 21.8034498944243 35.590948288221  29.0154881884329 36.6125987129135  29.0154881884329 36.6125987129135  C 29.0154881884329 36.6125987129135  31.1219553732144 34.4668873197557  31.1219553732144 34.4668873197557  C 31.1219553732144 34.4668873197557  35.4787005063745 33.9059493413239  35.4787005063745 33.9059493413239  C 35.4787005063745 33.9059493413239  43.7625444913867 27.3307064285297  43.7625444913867 27.3307064285297  C 43.7625444913867 27.3307064285297  54.5638018431957 34.9632189551449  54.5638018431957 34.9632189551449  C 54.5638018431957 34.9632189551449  50.9126084563281 49.0104665423002  50.9126084563281 49.0104665423002  C 50.9126084563281 49.0104665423002  51.6324982787519 59.0507698536453  51.6324982787519 59.0507698536453  C 51.6324982787519 59.0507698536453  51.613997180516 65.2178025989519  51.613997180516 65.2178025989519  C 51.613997180516 65.2178025989519  48.7566800089205 66.6432511677053  48.7566800089205 66.6432511677053  C 48.7566800089205 66.6432511677053  48.4070221523302 83.1944390501189  48.4070221523302 83.1944390501189  C 48.4070221523302 83.1944390501189  47.6567371685161 82.619179995646  47.6567371685161 82.619179995646  C 47.6567371685161 82.619179995646  44.8150540799334 79.1666056633929  44.8150540799334 79.1666056633929  C 44.8150540799334 79.1666056633929  43.308046078121 79.1620846393875  43.308046078121 79.1620846393875  C 43.308046078121 79.1620846393875  42.5541630752025 80.4528414929637  42.5541630752025 80.4528414929637  C 42.5541630752025 80.4528414929637  33.5128080680074 93.1949001499123  33.5128080680074 93.1949001499123  C 33.5128080680074 93.1949001499123  29.1404318518505 98.6328610240408  29.1404318518505 98.6328610240408  C 29.1404318518505 98.6328610240408  29.5862772191711 100.353223158707  29.5862772191711 100.353223158707  C 29.5862772191711 100.353223158707  38.5866730088833 106.264308545001  38.5866730088833 106.264308545001  C 38.5866730088833 106.264308545001  43.5455723393222 104.988166769027  43.5455723393222 104.988166769027  C 43.5455723393222 104.988166769027  44.2967033276284 106.281438635957  44.2967033276284 106.281438635957  C 44.2967033276284 106.281438635957  43.2373957029861 107.712281233352  43.2373957029861 107.712281233352  C 43.2373957029861 107.712281233352  38.5763469540548 109.706326821204  38.5763469540548 109.706326821204  C 38.5763469540548 109.706326821204  38.1107314817602 113.575985368064  38.1107314817602 113.575985368064  C 38.1107314817602 113.575985368064  40.3607224286148 115.589764060694  40.3607224286148 115.589764060694  C 40.3607224286148 115.589764060694  48.9320729402106 114.180457577651  48.9320729402106 114.180457577651  C 48.9320729402106 114.180457577651  52.5131559548106 120.503291150218  52.5131559548106 120.503291150218  C 52.5131559548106 120.503291150218  57.9130006265522 124.247544031207  57.9130006265522 124.247544031207  C 57.9130006265522 124.247544031207  61.5243188016929 122.825357479774  61.5243188016929 122.825357479774  C 61.5243188016929 122.825357479774  64.5313347681492 122.834378527674  64.5313347681492 122.834378527674  C 64.5313347681492 122.834378527674  69.9523995525641 119.838598620878  69.9523995525641 119.838598620878  C 69.9523995525641 119.838598620878  73.8412332012383 123.579318483107  73.8412332012383 123.579318483107  C 73.8412332012383 123.579318483107  76.396956771452 124.016991807036  76.396956771452 124.016991807036  C 76.396956771452 124.016991807036  83.651309290138 121.600719977274  83.651309290138 121.600719977274  C 83.651309290138 121.600719977274  88.4580208125 124.053174999159  88.4580208125 124.053174999159  C 88.4580208125 124.053174999159  90.5425368807269 129.224502457535  90.5425368807269 129.224502457535  C 90.5425368807269 129.224502457535  94.1485560277312 129.235320514976  94.1485560277312 129.235320514976  C 94.1485560277312 129.235320514976  95.9476865806368 131.53375071903  95.9476865806368 131.53375071903  C 95.9476865806368 131.53375071903  100.589080225205 136.42474468891  100.589080225205 136.42474468891  C 100.589080225205 136.42474468891  102.392089798707 135.43013940782  102.392089798707 135.43013940782  C 102.392089798707 135.43013940782  101.662589925256 129.259862645288  101.662589925256 129.259862645288  C 101.662589925256 129.259862645288  104.224775529782 127.543524531989  104.224775529782 127.543524531989  C 104.224775529782 127.543524531989  107.804136535238 134.44036115236  107.804136535238 134.44036115236  C 107.804136535238 134.44036115236  111.109275084646 135.743295070593  111.109275084646 135.743295070593  C 111.109275084646 135.743295070593  114.697687138162 139.623115671411  114.697687138162 139.623115671411  C 114.697687138162 139.623115671411  117.253990711455 139.200778428912  117.253990711455 139.200778428912  C 117.253990711455 139.200778428912  118.311150324692 137.485925323497  118.311150324692 137.485925323497  C 118.311150324692 137.485925323497  124.042684757618 131.335031663885  124.042684757618 131.335031663885  C 124.042684757618 131.335031663885  126.590535286028 133.063699842654  126.590535286028 133.063699842654  C 126.590535286028 133.063699842654  128.397852882405 130.633086936745  128.397852882405 130.633086936745  C 128.397852882405 130.633086936745  130.188403389752 133.791503707099  130.188403389752 133.791503707099  C 130.188403389752 133.791503707099  135.592263082813 135.530739941982  135.592263082813 135.530739941982  C 135.592263082813 135.530739941982  139.201282245746 135.541566999471  139.201282245746 135.541566999471  C 139.201282245746 135.541566999471  141.813978118468 135.655406603929  141.813978118468 135.655406603929  C 141.813978118468 135.655406603929  140.259607865175 133.104707060391  140.259607865175 133.104707060391  C 140.259607865175 133.104707060391  139.52856098351 124.783394876433  139.52856098351 124.783394876433  C 139.52856098351 124.783394876433  133.098350840801 115.155966757346  133.098350840801 115.155966757346  C 133.098350840801 115.155966757346  136.717705058611 111.721775522702  136.717705058611 111.721775522702  C 136.717705058611 111.721775522702  140.040365701057 105.850659348634  140.040365701057 105.850659348634  C 140.040365701057 105.850659348634  152.210430320869 105.887169542493  152.210430320869 105.887169542493  C 152.210430320869 105.887169542493  154.469460315719 103.887917926998  154.469460315719 103.887917926998  C 154.469460315719 103.887917926998  153.731785398861 99.4426413237592  153.731785398861 99.4426413237592  C 153.731785398861 99.4426413237592  156.298137025506 95.0042767572217  156.298137025506 95.0042767572217  C 156.298137025506 95.0042767572217  155.554450076726 92.5630107947476  155.554450076726 92.5630107947476  C 155.554450076726 92.5630107947476  156.617926723505 88.4091417388057  156.617926723505 88.4091417388057  C 156.617926723505 88.4091417388057  156.383502478774 66.5491256679239  156.383502478774 66.5491256679239  C 156.383502478774 66.5491256679239  160.012173746056 59.6759131729903  160.012173746056 59.6759131729903  C 160.012173746056 59.6759131729903  155.96749026986 55.2177155011443  155.96749026986 55.2177155011443  C 155.96749026986 55.2177155011443  156.724666290264 52.4959480492817  156.724666290264 52.4959480492817  C 156.724666290264 52.4959480492817  154.931976771558 50.050535064788  154.931976771558 50.050535064788  C 154.931976771558 50.050535064788  150.26478899003 51.7575581286273  150.26478899003 51.7575581286273  C 150.26478899003 51.7575581286273  144.865123319239 57.6204432589908  144.865123319239 57.6204432589908  C 144.865123319239 57.6204432589908  139.450783570532 60.0412351127528  139.450783570532 60.0412351127528  C 139.450783570532 60.0412351127528  134.016244714574 67.1950340975262  134.016244714574 67.1950340975262  C 134.016244714574 67.1950340975262  120.62137459137 72.0879200774518  120.62137459137 72.0879200774518  C 120.62137459137 72.0879200774518  114.476146961842 67.1344137756484  114.476146961842 67.1344137756484  C 114.476146961842 67.1344137756484  115.234322987556 64.4126493238017  115.234322987556 64.4126493238017  C 115.234322987556 64.4126493238017  112.092644306076 59.9571606663398  112.092644306076 59.9571606663398  C 112.092644306076 59.9571606663398  110.606400414516 55.3646362812546  110.606400414516 55.3646362812546  C 110.606400414516 55.3646362812546  105.502234312749 55.0623196760337  105.502234312749 55.0623196760337  C 105.502234312749 55.0623196760337  96.4985305054718 50.5872449145748  96.4985305054718 50.5872449145748  C 96.4985305054718 50.5872449145748  92.8816473007822 51.8644126959966  92.8816473007822 51.8644126959966  C 92.8816473007822 51.8644126959966  88.6876250316374 49.8518020095682  88.6876250316374 49.8518020095682  C 88.6876250316374 49.8518020095682  82.515592259782 50.8333002210631  82.515592259782 50.8333002210631  C 82.515592259782 50.8333002210631  76.6327210232976 49.0956269944796  76.6327210232976 49.0956269944796  C 76.6327210232976 49.0956269944796  73.3370415241144 44.6396763345646  73.3370415241144 44.6396763345646  C 73.3370415241144 44.6396763345646  70.1973478531745 41.1892080134939  70.1973478531745 41.1892080134939  C 70.1973478531745 41.1892080134939  69.0016675044293 37.7435717180799  69.0016675044293 37.7435717180799  C 69.0016675044293 37.7435717180799  64.8081252378332 33.5709315624685  64.8081252378332 33.5709315624685  C 64.8081252378332 33.5709315624685  62.2633017254959 29.8332437163383  62.2633017254959 29.8332437163383  C 62.2633017254959 29.8332437163383  56.4240707207296 22.2156172687643  56.4240707207296 22.2156172687643  C 56.4240707207296 22.2156172687643  54.6373932339464 17.7661936435061  54.6373932339464 17.7661936435061  C 54.6373932339464 17.7661936435061  48.1980260426163 9.8577626518371  48.1980260426163 9.8577626518371  C 48.1980260426163 9.8577626518371  46.4104995513252 5.69134052924175  46.4104995513252 5.69134052924175  C 46.4104995513252 5.69134052924175  38.1430806535255 1.79148282203268  38.1430806535255 1.79148282203268  C 38.1430806535255 1.79148282203268  32.7278889002951 3.49626187395685  32.7278889002951 3.49626187395685  C 32.7278889002951 3.49626187395685  28.0738641886594 2.48228549001145  28.0738641886594 2.48228549001145  Z " stroke-width="0.97600957434184" stroke="#199eae" fill="none" transform="matrix(1 0 0 1 1289 116 )" mask="url(#clip1484)" />
  </g>
</svg>