<?xml version="1.0" encoding="utf-8"?>
<svg version="1.1" xmlns:xlink="http://www.w3.org/1999/xlink" width="8px" height="10px" xmlns="http://www.w3.org/2000/svg">
  <defs>
    <mask fill="white" id="clip1485">
      <path d="M 0.390629932548336 3.35036962143161  C 0.390629932548336 3.35036962143161  7.31335269036833 0.809101127970621  7.31335269036833 0.809101127970621  C 7.31335269036833 0.809101127970621  6.2770341877922 5.57706044456876  6.2770341877922 5.57706044456876  C 6.2770341877922 5.57706044456876  7.02801417529645 7.58734211863074  7.02801417529645 7.58734211863074  C 7.02801417529645 7.58734211863074  1.87396280865198 9.57990869863031  1.87396280865198 9.57990869863031  C 1.87396280865198 9.57990869863031  1.43228946348381 6.13553440991723  1.43228946348381 6.13553440991723  C 1.43228946348381 6.13553440991723  0.390629932548336 3.35036962143161  0.390629932548336 3.35036962143161  Z " fill-rule="evenodd" />
    </mask>
  </defs>
  <g transform="matrix(1 0 0 1 -1272 -334 )">
    <path d="M 0.390629932548336 3.35036962143161  C 0.390629932548336 3.35036962143161  7.31335269036833 0.809101127970621  7.31335269036833 0.809101127970621  C 7.31335269036833 0.809101127970621  6.2770341877922 5.57706044456876  6.2770341877922 5.57706044456876  C 6.2770341877922 5.57706044456876  7.02801417529645 7.58734211863074  7.02801417529645 7.58734211863074  C 7.02801417529645 7.58734211863074  1.87396280865198 9.57990869863031  1.87396280865198 9.57990869863031  C 1.87396280865198 9.57990869863031  1.43228946348381 6.13553440991723  1.43228946348381 6.13553440991723  C 1.43228946348381 6.13553440991723  0.390629932548336 3.35036962143161  0.390629932548336 3.35036962143161  Z " fill-rule="nonzero" fill="#2f88ca" stroke="none" transform="matrix(1 0 0 1 1272 334 )" />
    <path d="M 0.390629932548336 3.35036962143161  C 0.390629932548336 3.35036962143161  7.31335269036833 0.809101127970621  7.31335269036833 0.809101127970621  C 7.31335269036833 0.809101127970621  6.2770341877922 5.57706044456876  6.2770341877922 5.57706044456876  C 6.2770341877922 5.57706044456876  7.02801417529645 7.58734211863074  7.02801417529645 7.58734211863074  C 7.02801417529645 7.58734211863074  1.87396280865198 9.57990869863031  1.87396280865198 9.57990869863031  C 1.87396280865198 9.57990869863031  1.43228946348381 6.13553440991723  1.43228946348381 6.13553440991723  C 1.43228946348381 6.13553440991723  0.390629932548336 3.35036962143161  0.390629932548336 3.35036962143161  Z " stroke-width="0.97600957434184" stroke="#199eae" fill="none" transform="matrix(1 0 0 1 1272 334 )" mask="url(#clip1485)" />
  </g>
</svg>