<?xml version="1.0" encoding="utf-8"?>
<svg version="1.1" xmlns:xlink="http://www.w3.org/1999/xlink" width="118px" height="78px" xmlns="http://www.w3.org/2000/svg">
  <defs>
    <mask fill="white" id="clip1483">
      <path d="M 117.812596420866 23.7874186146122  C 117.812596420866 23.7874186146122  116.83845424843 22.163472991892  116.83845424843 22.163472991892  C 116.83845424843 22.163472991892  114.223758365089 22.0496273874021  114.223758365089 22.0496273874021  C 114.223758365089 22.0496273874021  110.615739207465 22.0388033299292  110.615739207465 22.0388033299292  C 110.615739207465 22.0388033299292  105.210882509111 20.2985640897209  105.210882509111 20.2985640897209  C 105.210882509111 20.2985640897209  103.41533497523 17.1391323139769  103.41533497523 17.1391323139769  C 103.41533497523 17.1391323139769  101.608011378822 19.5717452305057  101.608011378822 19.5717452305057  C 101.608011378822 19.5717452305057  99.0601608504118 17.8430770517366  99.0601608504118 17.8430770517366  C 99.0601608504118 17.8430770517366  93.3296234227794 23.9949737166746  93.3296234227794 23.9949737166746  C 93.3296234227794 23.9949737166746  92.2724638095426 25.7098268220894  92.2724638095426 25.7098268220894  C 92.2724638095426 25.7098268220894  89.7181602468687 26.1321700646198  89.7181602468687 26.1321700646198  C 89.7181602468687 26.1321700646198  86.122754156217 22.2503284530714  86.122754156217 22.2503284530714  C 86.122754156217 22.2503284530714  82.8176156068088 20.9473945348383  82.8176156068088 20.9473945348383  C 82.8176156068088 20.9473945348383  79.2382426012883 14.0545579357059  79.2382426012883 14.0545579357059  C 79.2382426012883 14.0545579357059  76.6760659968108 15.7678960330763  76.6760659968108 15.7678960330763  C 76.6760659968108 15.7678960330763  77.4055658702615 21.9381727956078  77.4055658702615 21.9381727956078  C 77.4055658702615 21.9381727956078  75.6025562967594 22.9327780766978  75.6025562967594 22.9327780766978  C 75.6025562967594 22.9327780766978  70.9591656415878 18.0407781014767  70.9591656415878 18.0407781014767  C 70.9591656415878 18.0407781014767  69.1580320780467 15.7433419027004  69.1580320780467 15.7433419027004  C 69.1580320780467 15.7433419027004  65.558012962901 15.7325418453549  65.558012962901 15.7325418453549  C 65.558012962901 15.7325418453549  63.4734968946741 10.561214386979  63.4734968946741 10.561214386979  C 63.4734968946741 10.561214386979  58.1797827864575 8.1072983573364  58.1797827864575 8.1072983573364  C 58.1797827864575 8.1072983573364  51.4144328642454 10.5250371948877  51.4144328642454 10.5250371948877  C 51.4144328642454 10.5250371948877  48.8597092993415 10.0873668709745  48.8597092993415 10.0873668709745  C 48.8597092993415 10.0873668709745  44.9628756081892 6.34662300861773  44.9628756081892 6.34662300861773  C 44.9628756081892 6.34662300861773  39.5428138291002 9.34140591011987  39.5428138291002 9.34140591011987  C 39.5428138291002 9.34140591011987  36.5427978998121 9.33240586233201  36.5427978998121 9.33240586233201  C 36.5427978998121 9.33240586233201  32.9314647245917 10.7595924403138  32.9314647245917 10.7595924403138  C 32.9314647245917 10.7595924403138  27.530626047572 7.01333654868962  27.530626047572 7.01333654868962  C 27.530626047572 7.01333654868962  23.94953703294 0.692502986741502  23.94953703294 0.692502986741502  C 23.94953703294 0.692502986741502  15.3781925213763 2.09980945916526  15.3781925213763 2.09980945916526  C 15.3781925213763 2.09980945916526  12.0599849025748 5.819908211902  12.0599849025748 5.819908211902  C 12.0599849025748 5.819908211902  11.7475092434121 9.97703028511654  11.7475092434121 9.97703028511654  C 11.7475092434121 9.97703028511654  2.28477299879478 7.51060718906471  2.28477299879478 7.51060718906471  C 2.28477299879478 7.51060718906471  0.925161779620226 10.3745693959437  0.925161779620226 10.3745693959437  C 0.925161779620226 10.3745693959437  1.67514476183067 12.38384806468  1.67514476183067 12.38384806468  C 1.67514476183067 12.38384806468  6.61983601682857 15.8437314357421  6.61983601682857 15.8437314357421  C 6.61983601682857 15.8437314357421  6.60521693920509 20.7167573102158  6.60521693920509 20.7167573102158  C 6.60521693920509 20.7167573102158  7.34301885673733 25.4530384586112  7.34301885673733 25.4530384586112  C 7.34301885673733 25.4530384586112  10.1845479445025 29.6236226033059  10.1845479445025 29.6236226033059  C 10.1845479445025 29.6236226033059  10.624369279837 33.3519953999756  10.624369279837 33.3519953999756  C 10.624369279837 33.3519953999756  12.7050543277221 34.800258089866  12.7050543277221 34.800258089866  C 12.7050543277221 34.800258089866  19.936892726864 28.2218591603142  19.936892726864 28.2218591603142  C 19.936892726864 28.2218591603142  27.4228244751743 37.2804462590067  27.4228244751743 37.2804462590067  C 27.4228244751743 37.2804462590067  27.405868385142 42.9324762697855  27.405868385142 42.9324762697855  C 27.405868385142 42.9324762697855  31.4578689001888 44.9516609911203  31.4578689001888 44.9516609911203  C 31.4578689001888 44.9516609911203  31.7630365205479 43.2305518524877  31.7630365205479 43.2305518524877  C 31.7630365205479 43.2305518524877  37.9199032118754 44.9710470940554  37.9199032118754 44.9710470940554  C 37.9199032118754 44.9710470940554  42.2633042741819 49.8581470432587  42.2633042741819 49.8581470432587  C 42.2633042741819 49.8581470432587  44.3697654589316 47.7144356607204  44.3697654589316 47.7144356607204  C 44.3697654589316 47.7144356607204  44.8246468742311 46.4227818023813  44.8246468742311 46.4227818023813  C 44.8246468742311 46.4227818023813  55.1526817133542 59.7939567997706  55.1526817133542 59.7939567997706  C 55.1526817133542 59.7939567997706  55.888199618759 64.9582372207286  55.888199618759 64.9582372207286  C 55.888199618759 64.9582372207286  62.0702964440519 71.2888738347284  62.0702964440519 71.2888738347284  C 62.0702964440519 71.2888738347284  62.8030953350195 77.0261542981645  62.8030953350195 77.0261542981645  C 62.8030953350195 77.0261542981645  67.92215551587 74.0304683918676  67.92215551587 74.0304683918676  C 67.92215551587 74.0304683918676  72.6174754467723 61.2793716869294  72.6174754467723 61.2793716869294  C 72.6174754467723 61.2793716869294  74.7196316086635 60.5706679239005  74.7196316086635 60.5706679239005  C 74.7196316086635 60.5706679239005  79.8224837034534 63.3110154744185  79.8224837034534 63.3110154744185  C 79.8224837034534 63.3110154744185  88.0895275992617 62.3358022962954  88.0895275992617 62.3358022962954  C 88.0895275992617 62.3358022962954  90.9498567868502 59.9063483965402  90.9498567868502 59.9063483965402  C 90.9498567868502 59.9063483965402  87.0670441701461 54.1586178776171  87.0670441701461 54.1586178776171  C 87.0670441701461 54.1586178776171  88.1223577735811 52.7257632695396  88.1223577735811 52.7257632695396  C 88.1223577735811 52.7257632695396  95.7937035063904 50.3137424623494  95.7937035063904 50.3137424623494  C 95.7937035063904 50.3137424623494  98.966360352356 44.4431762912016  98.966360352356 44.4431762912016  C 98.966360352356 44.4431762912016  103.027547916184 42.7333352123994  103.027547916184 42.7333352123994  C 103.027547916184 42.7333352123994  103.346227608288 36.5082021585956  103.346227608288 36.5082021585956  C 103.346227608288 36.5082021585956  104.41284627175 32.6403466213096  104.41284627175 32.6403466213096  C 104.41284627175 32.6403466213096  106.666006235431 31.9310958553763  106.666006235431 31.9310958553763  C 106.666006235431 31.9310958553763  108.765561383512 34.0894253155327  108.765561383512 34.0894253155327  C 108.765561383512 34.0894253155327  110.866415538489 35.8147524765618  110.866415538489 35.8147524765618  C 110.866415538489 35.8147524765618  116.297096373963 28.9469460103329  116.297096373963 28.9469460103329  C 116.297096373963 28.9469460103329  117.812596420866 23.7874186146122  117.812596420866 23.7874186146122  Z " fill-rule="evenodd" />
    </mask>
  </defs>
  <g transform="matrix(1 0 0 1 -1314 -229 )">
    <path d="M 117.812596420866 23.7874186146122  C 117.812596420866 23.7874186146122  116.83845424843 22.163472991892  116.83845424843 22.163472991892  C 116.83845424843 22.163472991892  114.223758365089 22.0496273874021  114.223758365089 22.0496273874021  C 114.223758365089 22.0496273874021  110.615739207465 22.0388033299292  110.615739207465 22.0388033299292  C 110.615739207465 22.0388033299292  105.210882509111 20.2985640897209  105.210882509111 20.2985640897209  C 105.210882509111 20.2985640897209  103.41533497523 17.1391323139769  103.41533497523 17.1391323139769  C 103.41533497523 17.1391323139769  101.608011378822 19.5717452305057  101.608011378822 19.5717452305057  C 101.608011378822 19.5717452305057  99.0601608504118 17.8430770517366  99.0601608504118 17.8430770517366  C 99.0601608504118 17.8430770517366  93.3296234227794 23.9949737166746  93.3296234227794 23.9949737166746  C 93.3296234227794 23.9949737166746  92.2724638095426 25.7098268220894  92.2724638095426 25.7098268220894  C 92.2724638095426 25.7098268220894  89.7181602468687 26.1321700646198  89.7181602468687 26.1321700646198  C 89.7181602468687 26.1321700646198  86.122754156217 22.2503284530714  86.122754156217 22.2503284530714  C 86.122754156217 22.2503284530714  82.8176156068088 20.9473945348383  82.8176156068088 20.9473945348383  C 82.8176156068088 20.9473945348383  79.2382426012883 14.0545579357059  79.2382426012883 14.0545579357059  C 79.2382426012883 14.0545579357059  76.6760659968108 15.7678960330763  76.6760659968108 15.7678960330763  C 76.6760659968108 15.7678960330763  77.4055658702615 21.9381727956078  77.4055658702615 21.9381727956078  C 77.4055658702615 21.9381727956078  75.6025562967594 22.9327780766978  75.6025562967594 22.9327780766978  C 75.6025562967594 22.9327780766978  70.9591656415878 18.0407781014767  70.9591656415878 18.0407781014767  C 70.9591656415878 18.0407781014767  69.1580320780467 15.7433419027004  69.1580320780467 15.7433419027004  C 69.1580320780467 15.7433419027004  65.558012962901 15.7325418453549  65.558012962901 15.7325418453549  C 65.558012962901 15.7325418453549  63.4734968946741 10.561214386979  63.4734968946741 10.561214386979  C 63.4734968946741 10.561214386979  58.1797827864575 8.1072983573364  58.1797827864575 8.1072983573364  C 58.1797827864575 8.1072983573364  51.4144328642454 10.5250371948877  51.4144328642454 10.5250371948877  C 51.4144328642454 10.5250371948877  48.8597092993415 10.0873668709745  48.8597092993415 10.0873668709745  C 48.8597092993415 10.0873668709745  44.9628756081892 6.34662300861773  44.9628756081892 6.34662300861773  C 44.9628756081892 6.34662300861773  39.5428138291002 9.34140591011987  39.5428138291002 9.34140591011987  C 39.5428138291002 9.34140591011987  36.5427978998121 9.33240586233201  36.5427978998121 9.33240586233201  C 36.5427978998121 9.33240586233201  32.9314647245917 10.7595924403138  32.9314647245917 10.7595924403138  C 32.9314647245917 10.7595924403138  27.530626047572 7.01333654868962  27.530626047572 7.01333654868962  C 27.530626047572 7.01333654868962  23.94953703294 0.692502986741502  23.94953703294 0.692502986741502  C 23.94953703294 0.692502986741502  15.3781925213763 2.09980945916526  15.3781925213763 2.09980945916526  C 15.3781925213763 2.09980945916526  12.0599849025748 5.819908211902  12.0599849025748 5.819908211902  C 12.0599849025748 5.819908211902  11.7475092434121 9.97703028511654  11.7475092434121 9.97703028511654  C 11.7475092434121 9.97703028511654  2.28477299879478 7.51060718906471  2.28477299879478 7.51060718906471  C 2.28477299879478 7.51060718906471  0.925161779620226 10.3745693959437  0.925161779620226 10.3745693959437  C 0.925161779620226 10.3745693959437  1.67514476183067 12.38384806468  1.67514476183067 12.38384806468  C 1.67514476183067 12.38384806468  6.61983601682857 15.8437314357421  6.61983601682857 15.8437314357421  C 6.61983601682857 15.8437314357421  6.60521693920509 20.7167573102158  6.60521693920509 20.7167573102158  C 6.60521693920509 20.7167573102158  7.34301885673733 25.4530384586112  7.34301885673733 25.4530384586112  C 7.34301885673733 25.4530384586112  10.1845479445025 29.6236226033059  10.1845479445025 29.6236226033059  C 10.1845479445025 29.6236226033059  10.624369279837 33.3519953999756  10.624369279837 33.3519953999756  C 10.624369279837 33.3519953999756  12.7050543277221 34.800258089866  12.7050543277221 34.800258089866  C 12.7050543277221 34.800258089866  19.936892726864 28.2218591603142  19.936892726864 28.2218591603142  C 19.936892726864 28.2218591603142  27.4228244751743 37.2804462590067  27.4228244751743 37.2804462590067  C 27.4228244751743 37.2804462590067  27.405868385142 42.9324762697855  27.405868385142 42.9324762697855  C 27.405868385142 42.9324762697855  31.4578689001888 44.9516609911203  31.4578689001888 44.9516609911203  C 31.4578689001888 44.9516609911203  31.7630365205479 43.2305518524877  31.7630365205479 43.2305518524877  C 31.7630365205479 43.2305518524877  37.9199032118754 44.9710470940554  37.9199032118754 44.9710470940554  C 37.9199032118754 44.9710470940554  42.2633042741819 49.8581470432587  42.2633042741819 49.8581470432587  C 42.2633042741819 49.8581470432587  44.3697654589316 47.7144356607204  44.3697654589316 47.7144356607204  C 44.3697654589316 47.7144356607204  44.8246468742311 46.4227818023813  44.8246468742311 46.4227818023813  C 44.8246468742311 46.4227818023813  55.1526817133542 59.7939567997706  55.1526817133542 59.7939567997706  C 55.1526817133542 59.7939567997706  55.888199618759 64.9582372207286  55.888199618759 64.9582372207286  C 55.888199618759 64.9582372207286  62.0702964440519 71.2888738347284  62.0702964440519 71.2888738347284  C 62.0702964440519 71.2888738347284  62.8030953350195 77.0261542981645  62.8030953350195 77.0261542981645  C 62.8030953350195 77.0261542981645  67.92215551587 74.0304683918676  67.92215551587 74.0304683918676  C 67.92215551587 74.0304683918676  72.6174754467723 61.2793716869294  72.6174754467723 61.2793716869294  C 72.6174754467723 61.2793716869294  74.7196316086635 60.5706679239005  74.7196316086635 60.5706679239005  C 74.7196316086635 60.5706679239005  79.8224837034534 63.3110154744185  79.8224837034534 63.3110154744185  C 79.8224837034534 63.3110154744185  88.0895275992617 62.3358022962954  88.0895275992617 62.3358022962954  C 88.0895275992617 62.3358022962954  90.9498567868502 59.9063483965402  90.9498567868502 59.9063483965402  C 90.9498567868502 59.9063483965402  87.0670441701461 54.1586178776171  87.0670441701461 54.1586178776171  C 87.0670441701461 54.1586178776171  88.1223577735811 52.7257632695396  88.1223577735811 52.7257632695396  C 88.1223577735811 52.7257632695396  95.7937035063904 50.3137424623494  95.7937035063904 50.3137424623494  C 95.7937035063904 50.3137424623494  98.966360352356 44.4431762912016  98.966360352356 44.4431762912016  C 98.966360352356 44.4431762912016  103.027547916184 42.7333352123994  103.027547916184 42.7333352123994  C 103.027547916184 42.7333352123994  103.346227608288 36.5082021585956  103.346227608288 36.5082021585956  C 103.346227608288 36.5082021585956  104.41284627175 32.6403466213096  104.41284627175 32.6403466213096  C 104.41284627175 32.6403466213096  106.666006235431 31.9310958553763  106.666006235431 31.9310958553763  C 106.666006235431 31.9310958553763  108.765561383512 34.0894253155327  108.765561383512 34.0894253155327  C 108.765561383512 34.0894253155327  110.866415538489 35.8147524765618  110.866415538489 35.8147524765618  C 110.866415538489 35.8147524765618  116.297096373963 28.9469460103329  116.297096373963 28.9469460103329  C 116.297096373963 28.9469460103329  117.812596420866 23.7874186146122  117.812596420866 23.7874186146122  Z " fill-rule="nonzero" fill="#2f88ca" stroke="none" transform="matrix(1 0 0 1 1314 229 )" />
    <path d="M 117.812596420866 23.7874186146122  C 117.812596420866 23.7874186146122  116.83845424843 22.163472991892  116.83845424843 22.163472991892  C 116.83845424843 22.163472991892  114.223758365089 22.0496273874021  114.223758365089 22.0496273874021  C 114.223758365089 22.0496273874021  110.615739207465 22.0388033299292  110.615739207465 22.0388033299292  C 110.615739207465 22.0388033299292  105.210882509111 20.2985640897209  105.210882509111 20.2985640897209  C 105.210882509111 20.2985640897209  103.41533497523 17.1391323139769  103.41533497523 17.1391323139769  C 103.41533497523 17.1391323139769  101.608011378822 19.5717452305057  101.608011378822 19.5717452305057  C 101.608011378822 19.5717452305057  99.0601608504118 17.8430770517366  99.0601608504118 17.8430770517366  C 99.0601608504118 17.8430770517366  93.3296234227794 23.9949737166746  93.3296234227794 23.9949737166746  C 93.3296234227794 23.9949737166746  92.2724638095426 25.7098268220894  92.2724638095426 25.7098268220894  C 92.2724638095426 25.7098268220894  89.7181602468687 26.1321700646198  89.7181602468687 26.1321700646198  C 89.7181602468687 26.1321700646198  86.122754156217 22.2503284530714  86.122754156217 22.2503284530714  C 86.122754156217 22.2503284530714  82.8176156068088 20.9473945348383  82.8176156068088 20.9473945348383  C 82.8176156068088 20.9473945348383  79.2382426012883 14.0545579357059  79.2382426012883 14.0545579357059  C 79.2382426012883 14.0545579357059  76.6760659968108 15.7678960330763  76.6760659968108 15.7678960330763  C 76.6760659968108 15.7678960330763  77.4055658702615 21.9381727956078  77.4055658702615 21.9381727956078  C 77.4055658702615 21.9381727956078  75.6025562967594 22.9327780766978  75.6025562967594 22.9327780766978  C 75.6025562967594 22.9327780766978  70.9591656415878 18.0407781014767  70.9591656415878 18.0407781014767  C 70.9591656415878 18.0407781014767  69.1580320780467 15.7433419027004  69.1580320780467 15.7433419027004  C 69.1580320780467 15.7433419027004  65.558012962901 15.7325418453549  65.558012962901 15.7325418453549  C 65.558012962901 15.7325418453549  63.4734968946741 10.561214386979  63.4734968946741 10.561214386979  C 63.4734968946741 10.561214386979  58.1797827864575 8.1072983573364  58.1797827864575 8.1072983573364  C 58.1797827864575 8.1072983573364  51.4144328642454 10.5250371948877  51.4144328642454 10.5250371948877  C 51.4144328642454 10.5250371948877  48.8597092993415 10.0873668709745  48.8597092993415 10.0873668709745  C 48.8597092993415 10.0873668709745  44.9628756081892 6.34662300861773  44.9628756081892 6.34662300861773  C 44.9628756081892 6.34662300861773  39.5428138291002 9.34140591011987  39.5428138291002 9.34140591011987  C 39.5428138291002 9.34140591011987  36.5427978998121 9.33240586233201  36.5427978998121 9.33240586233201  C 36.5427978998121 9.33240586233201  32.9314647245917 10.7595924403138  32.9314647245917 10.7595924403138  C 32.9314647245917 10.7595924403138  27.530626047572 7.01333654868962  27.530626047572 7.01333654868962  C 27.530626047572 7.01333654868962  23.94953703294 0.692502986741502  23.94953703294 0.692502986741502  C 23.94953703294 0.692502986741502  15.3781925213763 2.09980945916526  15.3781925213763 2.09980945916526  C 15.3781925213763 2.09980945916526  12.0599849025748 5.819908211902  12.0599849025748 5.819908211902  C 12.0599849025748 5.819908211902  11.7475092434121 9.97703028511654  11.7475092434121 9.97703028511654  C 11.7475092434121 9.97703028511654  2.28477299879478 7.51060718906471  2.28477299879478 7.51060718906471  C 2.28477299879478 7.51060718906471  0.925161779620226 10.3745693959437  0.925161779620226 10.3745693959437  C 0.925161779620226 10.3745693959437  1.67514476183067 12.38384806468  1.67514476183067 12.38384806468  C 1.67514476183067 12.38384806468  6.61983601682857 15.8437314357421  6.61983601682857 15.8437314357421  C 6.61983601682857 15.8437314357421  6.60521693920509 20.7167573102158  6.60521693920509 20.7167573102158  C 6.60521693920509 20.7167573102158  7.34301885673733 25.4530384586112  7.34301885673733 25.4530384586112  C 7.34301885673733 25.4530384586112  10.1845479445025 29.6236226033059  10.1845479445025 29.6236226033059  C 10.1845479445025 29.6236226033059  10.624369279837 33.3519953999756  10.624369279837 33.3519953999756  C 10.624369279837 33.3519953999756  12.7050543277221 34.800258089866  12.7050543277221 34.800258089866  C 12.7050543277221 34.800258089866  19.936892726864 28.2218591603142  19.936892726864 28.2218591603142  C 19.936892726864 28.2218591603142  27.4228244751743 37.2804462590067  27.4228244751743 37.2804462590067  C 27.4228244751743 37.2804462590067  27.405868385142 42.9324762697855  27.405868385142 42.9324762697855  C 27.405868385142 42.9324762697855  31.4578689001888 44.9516609911203  31.4578689001888 44.9516609911203  C 31.4578689001888 44.9516609911203  31.7630365205479 43.2305518524877  31.7630365205479 43.2305518524877  C 31.7630365205479 43.2305518524877  37.9199032118754 44.9710470940554  37.9199032118754 44.9710470940554  C 37.9199032118754 44.9710470940554  42.2633042741819 49.8581470432587  42.2633042741819 49.8581470432587  C 42.2633042741819 49.8581470432587  44.3697654589316 47.7144356607204  44.3697654589316 47.7144356607204  C 44.3697654589316 47.7144356607204  44.8246468742311 46.4227818023813  44.8246468742311 46.4227818023813  C 44.8246468742311 46.4227818023813  55.1526817133542 59.7939567997706  55.1526817133542 59.7939567997706  C 55.1526817133542 59.7939567997706  55.888199618759 64.9582372207286  55.888199618759 64.9582372207286  C 55.888199618759 64.9582372207286  62.0702964440519 71.2888738347284  62.0702964440519 71.2888738347284  C 62.0702964440519 71.2888738347284  62.8030953350195 77.0261542981645  62.8030953350195 77.0261542981645  C 62.8030953350195 77.0261542981645  67.92215551587 74.0304683918676  67.92215551587 74.0304683918676  C 67.92215551587 74.0304683918676  72.6174754467723 61.2793716869294  72.6174754467723 61.2793716869294  C 72.6174754467723 61.2793716869294  74.7196316086635 60.5706679239005  74.7196316086635 60.5706679239005  C 74.7196316086635 60.5706679239005  79.8224837034534 63.3110154744185  79.8224837034534 63.3110154744185  C 79.8224837034534 63.3110154744185  88.0895275992617 62.3358022962954  88.0895275992617 62.3358022962954  C 88.0895275992617 62.3358022962954  90.9498567868502 59.9063483965402  90.9498567868502 59.9063483965402  C 90.9498567868502 59.9063483965402  87.0670441701461 54.1586178776171  87.0670441701461 54.1586178776171  C 87.0670441701461 54.1586178776171  88.1223577735811 52.7257632695396  88.1223577735811 52.7257632695396  C 88.1223577735811 52.7257632695396  95.7937035063904 50.3137424623494  95.7937035063904 50.3137424623494  C 95.7937035063904 50.3137424623494  98.966360352356 44.4431762912016  98.966360352356 44.4431762912016  C 98.966360352356 44.4431762912016  103.027547916184 42.7333352123994  103.027547916184 42.7333352123994  C 103.027547916184 42.7333352123994  103.346227608288 36.5082021585956  103.346227608288 36.5082021585956  C 103.346227608288 36.5082021585956  104.41284627175 32.6403466213096  104.41284627175 32.6403466213096  C 104.41284627175 32.6403466213096  106.666006235431 31.9310958553763  106.666006235431 31.9310958553763  C 106.666006235431 31.9310958553763  108.765561383512 34.0894253155327  108.765561383512 34.0894253155327  C 108.765561383512 34.0894253155327  110.866415538489 35.8147524765618  110.866415538489 35.8147524765618  C 110.866415538489 35.8147524765618  116.297096373963 28.9469460103329  116.297096373963 28.9469460103329  C 116.297096373963 28.9469460103329  117.812596420866 23.7874186146122  117.812596420866 23.7874186146122  Z " stroke-width="0.97600957434184" stroke="#199eae" fill="none" transform="matrix(1 0 0 1 1314 229 )" mask="url(#clip1483)" />
  </g>
</svg>