<?xml version="1.0" encoding="utf-8"?>
<svg version="1.1" xmlns:xlink="http://www.w3.org/1999/xlink" width="60px" height="25px" xmlns="http://www.w3.org/2000/svg">
  <g transform="matrix(1 0 0 1 -1444 -310 )">
    <path d="M 1444.5 315  A 4.5 4.5 0 0 1 1449 310.5 L 1499 310.5  A 4.5 4.5 0 0 1 1503.5 315 L 1503.5 330  A 4.5 4.5 0 0 1 1499 334.5 L 1449 334.5  A 4.5 4.5 0 0 1 1444.5 330 L 1444.5 315  Z " fill-rule="nonzero" fill="#dd6161" stroke="none" />
    <path d="M 1444.5 315  A 4.5 4.5 0 0 1 1449 310.5 L 1499 310.5  A 4.5 4.5 0 0 1 1503.5 315 L 1503.5 330  A 4.5 4.5 0 0 1 1499 334.5 L 1449 334.5  A 4.5 4.5 0 0 1 1444.5 330 L 1444.5 315  Z " stroke-width="1" stroke="#dd6161" fill="none" />
  </g>
</svg>