<?xml version="1.0" encoding="utf-8"?>
<svg version="1.1" xmlns:xlink="http://www.w3.org/1999/xlink" width="100px" height="35px" xmlns="http://www.w3.org/2000/svg">
  <g transform="matrix(1 0 0 1 -170 -185 )">
    <path d="M 170.5 190  A 4.5 4.5 0 0 1 175 185.5 L 265 185.5  A 4.5 4.5 0 0 1 269.5 190 L 269.5 215  A 4.5 4.5 0 0 1 265 219.5 L 175 219.5  A 4.5 4.5 0 0 1 170.5 215 L 170.5 190  Z " fill-rule="nonzero" fill="#f0f7ff" stroke="none" />
    <path d="M 170.5 190  A 4.5 4.5 0 0 1 175 185.5 L 265 185.5  A 4.5 4.5 0 0 1 269.5 190 L 269.5 215  A 4.5 4.5 0 0 1 265 219.5 L 175 219.5  A 4.5 4.5 0 0 1 170.5 215 L 170.5 190  Z " stroke-width="1" stroke="#409eff" fill="none" />
  </g>
</svg>