<?xml version="1.0" encoding="utf-8"?>
<svg version="1.1" xmlns:xlink="http://www.w3.org/1999/xlink" width="12px" height="12px" viewBox="191 40.5  12 12" xmlns="http://www.w3.org/2000/svg">
  <path d="M 197 40.5  C 200.36 40.5  203 43.14  203 46.5  C 203 49.86  200.36 52.5  197 52.5  C 193.64 52.5  191 49.86  191 46.5  C 191 43.14  193.64 40.5  197 40.5  Z " fill-rule="nonzero" fill="#f0f0f0" stroke="none" />
  <path d="M 197 41  C 200.08 41  202.5 43.42  202.5 46.5  C 202.5 49.58  200.08 52  197 52  C 193.92 52  191.5 49.58  191.5 46.5  C 191.5 43.42  193.92 41  197 41  Z " stroke-width="1" stroke="#555555" fill="none" />
  <path d="M 197 49.5  C 195.32 49.5  194 48.18  194 46.5  C 194 44.82  195.32 43.5  197 43.5  C 198.68 43.5  200 44.82  200 46.5  C 200 48.18  198.68 49.5  197 49.5  " fill-rule="nonzero" fill="#555555" stroke="none" />
</svg>