<?xml version="1.0" encoding="utf-8"?>
<svg version="1.1" xmlns:xlink="http://www.w3.org/1999/xlink" width="12px" height="12px" viewBox="401 40.5  12 12" xmlns="http://www.w3.org/2000/svg">
  <path d="M 407 40.5  C 410.36 40.5  413 43.14  413 46.5  C 413 49.86  410.36 52.5  407 52.5  C 403.64 52.5  401 49.86  401 46.5  C 401 43.14  403.64 40.5  407 40.5  Z " fill-rule="nonzero" fill="#f0f0f0" stroke="none" />
  <path d="M 407 41  C 410.08 41  412.5 43.42  412.5 46.5  C 412.5 49.58  410.08 52  407 52  C 403.92 52  401.5 49.58  401.5 46.5  C 401.5 43.42  403.92 41  407 41  Z " stroke-width="1" stroke="#555555" fill="none" />
  <path d="M 407 49.5  C 405.32 49.5  404 48.18  404 46.5  C 404 44.82  405.32 43.5  407 43.5  C 408.68 43.5  410 44.82  410 46.5  C 410 48.18  408.68 49.5  407 49.5  " fill-rule="nonzero" fill="#555555" stroke="none" />
</svg>