<?xml version="1.0" encoding="utf-8"?>
<svg version="1.1" xmlns:xlink="http://www.w3.org/1999/xlink" width="12px" height="12px" viewBox="301 40.5  12 12" xmlns="http://www.w3.org/2000/svg">
  <path d="M 307 40.5  C 310.36 40.5  313 43.14  313 46.5  C 313 49.86  310.36 52.5  307 52.5  C 303.64 52.5  301 49.86  301 46.5  C 301 43.14  303.64 40.5  307 40.5  Z " fill-rule="nonzero" fill="#f0f0f0" stroke="none" />
  <path d="M 307 41  C 310.08 41  312.5 43.42  312.5 46.5  C 312.5 49.58  310.08 52  307 52  C 303.92 52  301.5 49.58  301.5 46.5  C 301.5 43.42  303.92 41  307 41  Z " stroke-width="1" stroke="#555555" fill="none" />
  <path d="M 307 49.5  C 305.32 49.5  304 48.18  304 46.5  C 304 44.82  305.32 43.5  307 43.5  C 308.68 43.5  310 44.82  310 46.5  C 310 48.18  308.68 49.5  307 49.5  " fill-rule="nonzero" fill="#555555" stroke="none" />
</svg>