<?xml version="1.0" encoding="utf-8"?>
<svg version="1.1" xmlns:xlink="http://www.w3.org/1999/xlink" width="145px" height="152px" xmlns="http://www.w3.org/2000/svg">
  <defs>
    <mask fill="white" id="clip600">
      <path d="M 28.061 15.074  C 28.061 15.074  72.75 0.75  72.75 0.75  C 72.75 0.75  116.939 15.074  116.939 15.074  C 116.939 15.074  144.25 52.574  144.25 52.574  C 144.25 52.574  144.25 99.426  144.25 99.426  C 144.25 99.426  116.939 136.926  116.939 136.926  C 116.939 136.926  72.75 151.25  72.75 151.25  C 72.75 151.25  28.061 136.926  28.061 136.926  C 28.061 136.926  0.75 99.426  0.75 99.426  C 0.75 99.426  0.75 52.574  0.75 52.574  C 0.75 52.574  28.061 15.074  28.061 15.074  Z " fill-rule="evenodd" />
    </mask>
  </defs>
  <g transform="matrix(1 0 0 1 -125 -470 )">
    <path d="M 28.061 15.074  C 28.061 15.074  72.75 0.75  72.75 0.75  C 72.75 0.75  116.939 15.074  116.939 15.074  C 116.939 15.074  144.25 52.574  144.25 52.574  C 144.25 52.574  144.25 99.426  144.25 99.426  C 144.25 99.426  116.939 136.926  116.939 136.926  C 116.939 136.926  72.75 151.25  72.75 151.25  C 72.75 151.25  28.061 136.926  28.061 136.926  C 28.061 136.926  0.75 99.426  0.75 99.426  C 0.75 99.426  0.75 52.574  0.75 52.574  C 0.75 52.574  28.061 15.074  28.061 15.074  Z " fill-rule="nonzero" fill="#ffffff" stroke="none" fill-opacity="0" transform="matrix(1 0 0 1 125 470 )" />
    <path d="M 28.061 15.074  C 28.061 15.074  72.75 0.75  72.75 0.75  C 72.75 0.75  116.939 15.074  116.939 15.074  C 116.939 15.074  144.25 52.574  144.25 52.574  C 144.25 52.574  144.25 99.426  144.25 99.426  C 144.25 99.426  116.939 136.926  116.939 136.926  C 116.939 136.926  72.75 151.25  72.75 151.25  C 72.75 151.25  28.061 136.926  28.061 136.926  C 28.061 136.926  0.75 99.426  0.75 99.426  C 0.75 99.426  0.75 52.574  0.75 52.574  C 0.75 52.574  28.061 15.074  28.061 15.074  Z " stroke-width="1" stroke="#4b97db" fill="none" transform="matrix(1 0 0 1 125 470 )" mask="url(#clip600)" />
  </g>
</svg>