<?xml version="1.0" encoding="utf-8"?>
<svg version="1.1" xmlns:xlink="http://www.w3.org/1999/xlink" width="95px" height="100px" xmlns="http://www.w3.org/2000/svg">
  <defs>
    <mask fill="white" id="clip601">
      <path d="M 18.511 10.108  C 18.511 10.108  47.75 0.75  47.75 0.75  C 47.75 0.75  76.489 10.108  76.489 10.108  C 76.489 10.108  94.25 34.608  94.25 34.608  C 94.25 34.608  94.25 65.392  94.25 65.392  C 94.25 65.392  76.489 89.892  76.489 89.892  C 76.489 89.892  47.75 99.25  47.75 99.25  C 47.75 99.25  18.511 89.892  18.511 89.892  C 18.511 89.892  0.75 65.392  0.75 65.392  C 0.75 65.392  0.75 34.608  0.75 34.608  C 0.75 34.608  18.511 10.108  18.511 10.108  Z " fill-rule="evenodd" />
    </mask>
  </defs>
  <g transform="matrix(1 0 0 1 -150 -496 )">
    <path d="M 18.511 10.108  C 18.511 10.108  47.75 0.75  47.75 0.75  C 47.75 0.75  76.489 10.108  76.489 10.108  C 76.489 10.108  94.25 34.608  94.25 34.608  C 94.25 34.608  94.25 65.392  94.25 65.392  C 94.25 65.392  76.489 89.892  76.489 89.892  C 76.489 89.892  47.75 99.25  47.75 99.25  C 47.75 99.25  18.511 89.892  18.511 89.892  C 18.511 89.892  0.75 65.392  0.75 65.392  C 0.75 65.392  0.75 34.608  0.75 34.608  C 0.75 34.608  18.511 10.108  18.511 10.108  Z " fill-rule="nonzero" fill="#ffffff" stroke="none" fill-opacity="0" transform="matrix(1 0 0 1 150 496 )" />
    <path d="M 18.511 10.108  C 18.511 10.108  47.75 0.75  47.75 0.75  C 47.75 0.75  76.489 10.108  76.489 10.108  C 76.489 10.108  94.25 34.608  94.25 34.608  C 94.25 34.608  94.25 65.392  94.25 65.392  C 94.25 65.392  76.489 89.892  76.489 89.892  C 76.489 89.892  47.75 99.25  47.75 99.25  C 47.75 99.25  18.511 89.892  18.511 89.892  C 18.511 89.892  0.75 65.392  0.75 65.392  C 0.75 65.392  0.75 34.608  0.75 34.608  C 0.75 34.608  18.511 10.108  18.511 10.108  Z " stroke-width="1" stroke="#4b97db" fill="none" transform="matrix(1 0 0 1 150 496 )" mask="url(#clip601)" />
  </g>
</svg>