<?xml version="1.0" encoding="utf-8"?>
<svg version="1.1" xmlns:xlink="http://www.w3.org/1999/xlink" width="121px" height="147px" xmlns="http://www.w3.org/2000/svg">
  <defs>
    <mask fill="white" id="clip603">
      <path d="M 0.108000000000004 56.349  C 0.108000000000004 56.349  1.449 10.417  1.449 10.417  C 1.449 10.417  48 39  48 39  C 48 39  102.533 0.231999999999999  102.533 0.231999999999999  C 102.533 0.231999999999999  120.921 49.867  120.921 49.867  C 120.921 49.867  105.557 94.18  105.557 94.18  C 105.557 94.18  102.533 146.188  102.533 146.188  C 102.533 146.188  45.614 135.701  45.614 135.701  C 45.614 135.701  18.328 113.172  18.328 113.172  C 18.328 113.172  0.108000000000004 88.815  0.108000000000004 88.815  C 0.108000000000004 88.815  0.108000000000004 56.349  0.108000000000004 56.349  Z " fill-rule="evenodd" />
    </mask>
  </defs>
  <g transform="matrix(1 0 0 1 -149 -473 )">
    <path d="M 0.108000000000004 56.349  C 0.108000000000004 56.349  1.449 10.417  1.449 10.417  C 1.449 10.417  48 39  48 39  C 48 39  102.533 0.231999999999999  102.533 0.231999999999999  C 102.533 0.231999999999999  120.921 49.867  120.921 49.867  C 120.921 49.867  105.557 94.18  105.557 94.18  C 105.557 94.18  102.533 146.188  102.533 146.188  C 102.533 146.188  45.614 135.701  45.614 135.701  C 45.614 135.701  18.328 113.172  18.328 113.172  C 18.328 113.172  0.108000000000004 88.815  0.108000000000004 88.815  C 0.108000000000004 88.815  0.108000000000004 56.349  0.108000000000004 56.349  Z " fill-rule="nonzero" fill="#61ddaa" stroke="none" fill-opacity="0.250980392156863" transform="matrix(1 0 0 1 149 473 )" />
    <path d="M 0.108000000000004 56.349  C 0.108000000000004 56.349  1.449 10.417  1.449 10.417  C 1.449 10.417  48 39  48 39  C 48 39  102.533 0.231999999999999  102.533 0.231999999999999  C 102.533 0.231999999999999  120.921 49.867  120.921 49.867  C 120.921 49.867  105.557 94.18  105.557 94.18  C 105.557 94.18  102.533 146.188  102.533 146.188  C 102.533 146.188  45.614 135.701  45.614 135.701  C 45.614 135.701  18.328 113.172  18.328 113.172  C 18.328 113.172  0.108000000000004 88.815  0.108000000000004 88.815  C 0.108000000000004 88.815  0.108000000000004 56.349  0.108000000000004 56.349  Z " stroke-width="4" stroke="#5ad8a6" fill="none" transform="matrix(1 0 0 1 149 473 )" mask="url(#clip603)" />
  </g>
</svg>