<?xml version="1.0" encoding="utf-8"?>
<svg version="1.1" xmlns:xlink="http://www.w3.org/1999/xlink" width="129px" height="173px" xmlns="http://www.w3.org/2000/svg">
  <defs>
    <mask fill="white" id="clip608">
      <path d="M 114 149.488727905273  L 71.1769029541016 172.769169189453  L 35.6441270751953 137.713444091797  L 38.6507074279785 100.621868469238  L 38.6910707397461 100.123867370605  L 38.3170930786133 99.7925456542969  L 0.247833196640016 66.0669139404297  L 35.2096635742188 39.8489573974609  L 35.297298614502 39.7832301635742  L 35.3686410827637 39.7000926513672  L 68.9082414550781 0.610392548561094  L 114.609222595215 27.2313102264404  L 128.096351806641 69.7053111572266  L 114.520050231934 102.907589294434  L 114.445663635254 103.08952746582  L 114 103.28606829834  L 114 149.488727905273  Z " fill-rule="evenodd" />
    </mask>
  </defs>
  <g transform="matrix(1 0 0 1 -127 -458 )">
    <path d="M 114 149.488727905273  L 71.1769029541016 172.769169189453  L 35.6441270751953 137.713444091797  L 38.6507074279785 100.621868469238  L 38.6910707397461 100.123867370605  L 38.3170930786133 99.7925456542969  L 0.247833196640016 66.0669139404297  L 35.2096635742188 39.8489573974609  L 35.297298614502 39.7832301635742  L 35.3686410827637 39.7000926513672  L 68.9082414550781 0.610392548561094  L 114.609222595215 27.2313102264404  L 128.096351806641 69.7053111572266  L 114.520050231934 102.907589294434  L 114.445663635254 103.08952746582  L 114 103.28606829834  L 114 149.488727905273  Z " fill-rule="nonzero" fill="#5b8ff9" stroke="none" fill-opacity="0.250980392156863" transform="matrix(1 0 0 1 127 458 )" />
    <path d="M 114 149.488727905273  L 71.1769029541016 172.769169189453  L 35.6441270751953 137.713444091797  L 38.6507074279785 100.621868469238  L 38.6910707397461 100.123867370605  L 38.3170930786133 99.7925456542969  L 0.247833196640016 66.0669139404297  L 35.2096635742188 39.8489573974609  L 35.297298614502 39.7832301635742  L 35.3686410827637 39.7000926513672  L 68.9082414550781 0.610392548561094  L 114.609222595215 27.2313102264404  L 128.096351806641 69.7053111572266  L 114.520050231934 102.907589294434  L 114.445663635254 103.08952746582  L 114 103.28606829834  L 114 149.488727905273  Z " stroke-width="4" stroke="#588bf2" fill="none" transform="matrix(1 0 0 1 127 458 )" mask="url(#clip608)" />
  </g>
</svg>