<?xml version="1.0" encoding="utf-8"?>
<svg version="1.1" xmlns:xlink="http://www.w3.org/1999/xlink" width="88px" height="88px" xmlns="http://www.w3.org/2000/svg">
  <g transform="matrix(1 0 0 1 -1472 -462 )">
    <path d="M 1474 506  A 42 42 0 0 1 1516 464 A 42 42 0 0 1 1558 506 A 42 42 0 0 1 1516 548 A 42 42 0 0 1 1474 506 Z " fill-rule="nonzero" fill="#ffffff" stroke="none" fill-opacity="0" />
    <path d="M 1473 506  A 43 43 0 0 1 1516 463 A 43 43 0 0 1 1559 506 A 43 43 0 0 1 1516 549 A 43 43 0 0 1 1473 506 Z " stroke-width="2" stroke="#65b8f8" fill="none" stroke-opacity="0.2" />
  </g>
</svg>