<?xml version="1.0" encoding="utf-8"?>
<svg version="1.1" xmlns:xlink="http://www.w3.org/1999/xlink" width="326px" height="168px" xmlns="http://www.w3.org/2000/svg">
  <defs>
    <linearGradient gradientUnits="userSpaceOnUse" x1="163" y1="0" x2="163" y2="168" id="LinearGradient614">
      <stop id="Stop615" stop-color="#65b8f8" offset="0" />
      <stop id="Stop616" stop-color="#00ffff" offset="1" />
    </linearGradient>
  </defs>
  <g transform="matrix(1 0 0 1 -1514 -803 )">
    <path d="M 0 168  C 5.40362589928054 168  325.997185611511 166.872960264901  325.997185611511 166.872960264901  C 325.997185611511 166.872960264901  295.661830215827 73.9710860927153  284.862552517985 81.5246026490066  C 272.72128057554 90.0171324503311  271.546273381295 106.396701986755  258.166201438849 110.395622516556  C 244.787067625899 114.394543046358  219.412071942446 31.8609867549669  207.537228776979 31.7535430463575  C 189.387237410072 31.5901390728477  179.747018705036 115.327960264901  160.454854676259 118.393463576159  C 145.915723741007 120.704622516556  134.914279136691 67.2032516556291  126.382460431655 38.4083377483444  C 117.329041726619 7.85515231788088  110.535576978417 -7.4399072847682  102.816178417266 3.75774172185424  C 95.0967798561151 14.9553907284768  90.720874820144 44.4509271523179  81.2551482014389 76.3404437086092  C 70.567507913669 112.348635761589  68.2170244604317 -35.9539006622516  38.2100143884893 89.8201523178809  C 27.3497582733812 135.791509933775  13.4157208633094 148.982463576159  0 168  Z " fill-rule="nonzero" fill="url(#LinearGradient614)" stroke="none" transform="matrix(1 0 0 1 1514 803 )" />
  </g>
</svg>