<?xml version="1.0" encoding="utf-8"?>
<svg version="1.1" xmlns:xlink="http://www.w3.org/1999/xlink" width="326px" height="111px" xmlns="http://www.w3.org/2000/svg">
  <defs>
    <linearGradient gradientUnits="userSpaceOnUse" x1="163" y1="0" x2="163" y2="111" id="LinearGradient617">
      <stop id="Stop618" stop-color="#958eff" offset="0" />
      <stop id="Stop619" stop-color="#958eff" offset="0.08" />
      <stop id="Stop620" stop-color="#6136cf" offset="0.98" />
      <stop id="Stop621" stop-color="#6136cf" offset="1" />
    </linearGradient>
  </defs>
  <g transform="matrix(1 0 0 1 -1514 -859 )">
    <path d="M 326 111  C 320.596374100719 111  0.00281438848924087 110.259754966887  0.00281438848924087 110.259754966887  C 0.00281438848924087 110.259754966887  30.3381697841728 49.2413642384106  41.1374474820145 54.2025496688742  C 53.2787194244604 59.7804834437086  54.4537266187049 70.5386622516556  67.8337985611511 73.1651721854305  C 81.2129323741008 75.7916821192053  106.587928057554 21.5832516556292  118.462771223022 21.5126821192052  C 136.612762589928 21.4053576158941  146.252981294964 76.4047549668874  165.545145323741 78.4181920529802  C 180.084276258993 79.9361721854305  191.085720863309 44.7962185430463  199.617539568345 25.883582781457  C 208.670958273381 5.81610596026496  215.464423021583 -4.22976158940401  223.183821582734 3.12490728476814  C 230.903220143885 10.4795761589404  235.279125179856 29.8523841059603  244.744851798561 50.7975695364238  C 255.432492086331 74.4479205298013  257.782975539568 -22.9578874172186  287.789985611511 59.6511059602649  C 298.650241726619 89.8453112582781  312.584279136691 98.5091920529801  326 111  Z " fill-rule="nonzero" fill="url(#LinearGradient617)" stroke="none" transform="matrix(1 0 0 1 1514 859 )" />
  </g>
</svg>