<?xml version="1.0" encoding="utf-8"?>
<svg version="1.1" xmlns:xlink="http://www.w3.org/1999/xlink" width="71px" height="86px" xmlns="http://www.w3.org/2000/svg">
  <defs>
    <mask fill="white" id="clip577">
      <path d="M 44.7237719298246 25.1267266187049  L 44.5057894736842 24.9389568345324  L 44.3251754385965 24.9389568345324  L 44.3251754385965 24.7574460431656  C 42.3072807017543 17.7473741007194  40.47 13.8730575539569  39.1870175438598 13.3222661870504  L 32.7658771929825 11.1065827338131  C 29.0975438596492 10.0050000000001  26.525350877193 9.26643884892087  25.429210526316 8.52787769784175  C 23.5919298245617 7.42003597122311  21.212807017544 4.8413309352519  18.46 0.597733812949741  L 17.3576315789473 0.597733812949741  L 17.5382456140351 0.785503597122442  C 17.905701754386 2.26262589928058  19.3755263157896 4.8413309352519  22.4895614035088 8.53413669064753  L 22.6764035087717 8.71564748201445  L 22.8632456140354 9.08492805755407  L 19.9298245614036 14.4301079136691  C 18.8274561403509 16.4580215827339  17.7313157894737 17.3780935251799  16.628947368421 17.0088129496403  C 15.8940350877192 16.6395323741008  14.4242105263158 14.9808992805756  12.038859649123 11.8451438848922  L 8.91859649122807 10.9250719424462  C 8.91859649122807 11.8451438848922  9.47289473684214 13.69154676259  10.7496491228071 16.6395323741008  L 10.7496491228071 16.8273021582734  L 10.7496491228071 17.0088129496403  L 10.7496491228071 17.1965827338129  L 10.7496491228071 17.3780935251798  L 10.2015789473685 19.4060071942445  L 6.89447368421042 20.8831294964028  L 5.79833333333363 21.2524100719425  C 5.24403508771957 21.8032014388489  5.24403508771957 22.7295323741007  5.43087719298251 23.8373741007194  C 5.79833333333363 26.6038489208632  5.61771929824567 28.2624820143885  5.06342105263161 29.0010431654676  C 4.70219298245615 29.3703237410072  4.51535087719321 29.3703237410072  4.14789473684232 29.3703237410072  L 3.96728070175459 29.3703237410072  L 0.298947368421068 28.6317625899281  C 0.479561403508797 29.3703237410072  1.02763157894742 30.1026258992806  1.94938596491238 30.6596762589928  C 3.78666666666686 32.318309352518  5.25026315789478 34.7155035971223  6.72631578947357 37.4819784172662  L 6.90692982456153 38.0390287769784  L 8.56359649122805 37.6697482014389  C 10.5814912280703 37.3004676258993  12.4125438596491 37.6697482014389  14.2498245614036 38.9653597122302  L 16.273947368421 41.3625539568345  L 16.4545614035087 41.5440647482014  L 16.4545614035087 41.731834532374  L 16.273947368421 41.731834532374  L 16.0871052631578 46.5262230215826  C 16.6414035087719 47.2647841726617  17.0088596491228 48.1848561151078  16.6414035087719 48.923417266187  C 16.273947368421 49.8434892086331  15.5390350877194 50.4005395683453  14.2498245614036 50.5820503597122  C 12.7862280701756 50.5820503597122  12.0513157894736 51.5021223021583  11.6838596491227 53.348525179856  L 11.6838596491227 53.5362949640287  L 10.2202631578948 56.6720503597121  L 12.4187719298245 58.8814748201438  L 17.1894736842105 59.8078057553955  L 17.5569298245614 59.8078057553955  L 19.9422807017545 62.3865107913669  L 17.0088596491228 66.8116187050359  L 23.7974561403507 81.5640647482014  L 23.9842982456139 81.933345323741  L 22.8819298245614 83.2226978417266  L 23.2493859649123 84.3305395683452  L 23.4299999999998 84.3305395683452  L 29.75 79.166870503597  L 30.5 81.933345323741  C 28.8495614035087 84.6998201438849  29 83.5068705035969  29.75 85.2568705035969  C 30.5 87.0068705035969  34.9955263157894 84.336798561151  36.0978947368419 81.3825539568345  L 36.2785087719299 81.0132733812949  L 36.4653508771928 81.0132733812949  L 39.9530701754384 79.166870503597  L 40.1336842105261 78.7975899280574  L 45.0849999999998 83.2289568345323  L 50.5906140350876 83.4104676258992  L 50.7774561403508 83.5982374100718  L 53.3434210526316 85.2568705035969  L 60.1320175438595 79.3546402877696  C 60.6863157894734 78.7975899280574  61.234385964912 77.6960071942445  61.9692982456138 75.8496043165466  L 62.7042105263158 74.3724820143883  C 62.8848245614033 73.6339208633092  63.8065789473681 72.1567985611508  61.9692982456138 69.0210431654674  L 61.0537719298245 67.7254316546761  L 66.5531578947366 69.0210431654674  L 68.9447368421052 67.7254316546761  L 66.5531578947366 62.5617625899279  L 66.3725438596491 62.3739928057552  L 70.4083333333333 57.02881294964  L 68.757894736842 54.4438489208632  C 67.1074561403507 52.603705035971  66.005087719298 51.6773741007193  65.2701754385967 51.6773741007193  L 64.9027192982455 51.8651438848918  L 62.8848245614033 53.8930575539566  L 62.5173684210524 53.7115467625897  L 62.1499122807018 53.7115467625897  L 58.8428070175437 52.6037050359711  L 57.9272807017542 49.6494604316546  C 56.6380701754383 49.4679496402877  55.3613157894733 48.7293884892084  54.2589473684209 47.4400359712229  L 52.2410526315789 46.1444244604315  C 50.5906140350876 45.4058633093524  49.6750877192981 44.4857913669063  49.6750877192981 43.5657194244602  C 49.3076315789472 42.4578776978415  49.6750877192981 41.1685251798558  50.7774561403508 39.5098920863308  C 52.795350877193 36.5556474820143  53.89149122807 34.1584532374098  53.89149122807 32.3183093525178  L 53.89149122807 29.9211151079135  L 55.1807017543858 30.1026258992803  L 59.4033333333332 30.290395683453  C 59.7707894736841 29.9211151079134  60.3188596491227 28.0747122302155  61.0537719298245 24.7574460431651  L 59.7707894736841 24.5696762589924  C 56.8311403508769 26.5975899280573  54.6326315789474 27.8932014388486  52.9821929824561 28.4439928057551  C 50.9580701754385 28.9947841726615  48.3921052631579 27.8932014388487  44.7237719298246 25.3082374100717  L 44.7237719298246 25.1267266187049  Z " fill-rule="evenodd" />
    </mask>
  </defs>
  <g transform="matrix(1 0 0 1 -1073 -461 )">
    <path d="M 44.7237719298246 25.1267266187049  L 44.5057894736842 24.9389568345324  L 44.3251754385965 24.9389568345324  L 44.3251754385965 24.7574460431656  C 42.3072807017543 17.7473741007194  40.47 13.8730575539569  39.1870175438598 13.3222661870504  L 32.7658771929825 11.1065827338131  C 29.0975438596492 10.0050000000001  26.525350877193 9.26643884892087  25.429210526316 8.52787769784175  C 23.5919298245617 7.42003597122311  21.212807017544 4.8413309352519  18.46 0.597733812949741  L 17.3576315789473 0.597733812949741  L 17.5382456140351 0.785503597122442  C 17.905701754386 2.26262589928058  19.3755263157896 4.8413309352519  22.4895614035088 8.53413669064753  L 22.6764035087717 8.71564748201445  L 22.8632456140354 9.08492805755407  L 19.9298245614036 14.4301079136691  C 18.8274561403509 16.4580215827339  17.7313157894737 17.3780935251799  16.628947368421 17.0088129496403  C 15.8940350877192 16.6395323741008  14.4242105263158 14.9808992805756  12.038859649123 11.8451438848922  L 8.91859649122807 10.9250719424462  C 8.91859649122807 11.8451438848922  9.47289473684214 13.69154676259  10.7496491228071 16.6395323741008  L 10.7496491228071 16.8273021582734  L 10.7496491228071 17.0088129496403  L 10.7496491228071 17.1965827338129  L 10.7496491228071 17.3780935251798  L 10.2015789473685 19.4060071942445  L 6.89447368421042 20.8831294964028  L 5.79833333333363 21.2524100719425  C 5.24403508771957 21.8032014388489  5.24403508771957 22.7295323741007  5.43087719298251 23.8373741007194  C 5.79833333333363 26.6038489208632  5.61771929824567 28.2624820143885  5.06342105263161 29.0010431654676  C 4.70219298245615 29.3703237410072  4.51535087719321 29.3703237410072  4.14789473684232 29.3703237410072  L 3.96728070175459 29.3703237410072  L 0.298947368421068 28.6317625899281  C 0.479561403508797 29.3703237410072  1.02763157894742 30.1026258992806  1.94938596491238 30.6596762589928  C 3.78666666666686 32.318309352518  5.25026315789478 34.7155035971223  6.72631578947357 37.4819784172662  L 6.90692982456153 38.0390287769784  L 8.56359649122805 37.6697482014389  C 10.5814912280703 37.3004676258993  12.4125438596491 37.6697482014389  14.2498245614036 38.9653597122302  L 16.273947368421 41.3625539568345  L 16.4545614035087 41.5440647482014  L 16.4545614035087 41.731834532374  L 16.273947368421 41.731834532374  L 16.0871052631578 46.5262230215826  C 16.6414035087719 47.2647841726617  17.0088596491228 48.1848561151078  16.6414035087719 48.923417266187  C 16.273947368421 49.8434892086331  15.5390350877194 50.4005395683453  14.2498245614036 50.5820503597122  C 12.7862280701756 50.5820503597122  12.0513157894736 51.5021223021583  11.6838596491227 53.348525179856  L 11.6838596491227 53.5362949640287  L 10.2202631578948 56.6720503597121  L 12.4187719298245 58.8814748201438  L 17.1894736842105 59.8078057553955  L 17.5569298245614 59.8078057553955  L 19.9422807017545 62.3865107913669  L 17.0088596491228 66.8116187050359  L 23.7974561403507 81.5640647482014  L 23.9842982456139 81.933345323741  L 22.8819298245614 83.2226978417266  L 23.2493859649123 84.3305395683452  L 23.4299999999998 84.3305395683452  L 29.75 79.166870503597  L 30.5 81.933345323741  C 28.8495614035087 84.6998201438849  29 83.5068705035969  29.75 85.2568705035969  C 30.5 87.0068705035969  34.9955263157894 84.336798561151  36.0978947368419 81.3825539568345  L 36.2785087719299 81.0132733812949  L 36.4653508771928 81.0132733812949  L 39.9530701754384 79.166870503597  L 40.1336842105261 78.7975899280574  L 45.0849999999998 83.2289568345323  L 50.5906140350876 83.4104676258992  L 50.7774561403508 83.5982374100718  L 53.3434210526316 85.2568705035969  L 60.1320175438595 79.3546402877696  C 60.6863157894734 78.7975899280574  61.234385964912 77.6960071942445  61.9692982456138 75.8496043165466  L 62.7042105263158 74.3724820143883  C 62.8848245614033 73.6339208633092  63.8065789473681 72.1567985611508  61.9692982456138 69.0210431654674  L 61.0537719298245 67.7254316546761  L 66.5531578947366 69.0210431654674  L 68.9447368421052 67.7254316546761  L 66.5531578947366 62.5617625899279  L 66.3725438596491 62.3739928057552  L 70.4083333333333 57.02881294964  L 68.757894736842 54.4438489208632  C 67.1074561403507 52.603705035971  66.005087719298 51.6773741007193  65.2701754385967 51.6773741007193  L 64.9027192982455 51.8651438848918  L 62.8848245614033 53.8930575539566  L 62.5173684210524 53.7115467625897  L 62.1499122807018 53.7115467625897  L 58.8428070175437 52.6037050359711  L 57.9272807017542 49.6494604316546  C 56.6380701754383 49.4679496402877  55.3613157894733 48.7293884892084  54.2589473684209 47.4400359712229  L 52.2410526315789 46.1444244604315  C 50.5906140350876 45.4058633093524  49.6750877192981 44.4857913669063  49.6750877192981 43.5657194244602  C 49.3076315789472 42.4578776978415  49.6750877192981 41.1685251798558  50.7774561403508 39.5098920863308  C 52.795350877193 36.5556474820143  53.89149122807 34.1584532374098  53.89149122807 32.3183093525178  L 53.89149122807 29.9211151079135  L 55.1807017543858 30.1026258992803  L 59.4033333333332 30.290395683453  C 59.7707894736841 29.9211151079134  60.3188596491227 28.0747122302155  61.0537719298245 24.7574460431651  L 59.7707894736841 24.5696762589924  C 56.8311403508769 26.5975899280573  54.6326315789474 27.8932014388486  52.9821929824561 28.4439928057551  C 50.9580701754385 28.9947841726615  48.3921052631579 27.8932014388487  44.7237719298246 25.3082374100717  L 44.7237719298246 25.1267266187049  Z " fill-rule="nonzero" fill="#00ccff" stroke="none" fill-opacity="0.498039215686275" transform="matrix(1 0 0 1 1073 461 )" />
    <path d="M 44.7237719298246 25.1267266187049  L 44.5057894736842 24.9389568345324  L 44.3251754385965 24.9389568345324  L 44.3251754385965 24.7574460431656  C 42.3072807017543 17.7473741007194  40.47 13.8730575539569  39.1870175438598 13.3222661870504  L 32.7658771929825 11.1065827338131  C 29.0975438596492 10.0050000000001  26.525350877193 9.26643884892087  25.429210526316 8.52787769784175  C 23.5919298245617 7.42003597122311  21.212807017544 4.8413309352519  18.46 0.597733812949741  L 17.3576315789473 0.597733812949741  L 17.5382456140351 0.785503597122442  C 17.905701754386 2.26262589928058  19.3755263157896 4.8413309352519  22.4895614035088 8.53413669064753  L 22.6764035087717 8.71564748201445  L 22.8632456140354 9.08492805755407  L 19.9298245614036 14.4301079136691  C 18.8274561403509 16.4580215827339  17.7313157894737 17.3780935251799  16.628947368421 17.0088129496403  C 15.8940350877192 16.6395323741008  14.4242105263158 14.9808992805756  12.038859649123 11.8451438848922  L 8.91859649122807 10.9250719424462  C 8.91859649122807 11.8451438848922  9.47289473684214 13.69154676259  10.7496491228071 16.6395323741008  L 10.7496491228071 16.8273021582734  L 10.7496491228071 17.0088129496403  L 10.7496491228071 17.1965827338129  L 10.7496491228071 17.3780935251798  L 10.2015789473685 19.4060071942445  L 6.89447368421042 20.8831294964028  L 5.79833333333363 21.2524100719425  C 5.24403508771957 21.8032014388489  5.24403508771957 22.7295323741007  5.43087719298251 23.8373741007194  C 5.79833333333363 26.6038489208632  5.61771929824567 28.2624820143885  5.06342105263161 29.0010431654676  C 4.70219298245615 29.3703237410072  4.51535087719321 29.3703237410072  4.14789473684232 29.3703237410072  L 3.96728070175459 29.3703237410072  L 0.298947368421068 28.6317625899281  C 0.479561403508797 29.3703237410072  1.02763157894742 30.1026258992806  1.94938596491238 30.6596762589928  C 3.78666666666686 32.318309352518  5.25026315789478 34.7155035971223  6.72631578947357 37.4819784172662  L 6.90692982456153 38.0390287769784  L 8.56359649122805 37.6697482014389  C 10.5814912280703 37.3004676258993  12.4125438596491 37.6697482014389  14.2498245614036 38.9653597122302  L 16.273947368421 41.3625539568345  L 16.4545614035087 41.5440647482014  L 16.4545614035087 41.731834532374  L 16.273947368421 41.731834532374  L 16.0871052631578 46.5262230215826  C 16.6414035087719 47.2647841726617  17.0088596491228 48.1848561151078  16.6414035087719 48.923417266187  C 16.273947368421 49.8434892086331  15.5390350877194 50.4005395683453  14.2498245614036 50.5820503597122  C 12.7862280701756 50.5820503597122  12.0513157894736 51.5021223021583  11.6838596491227 53.348525179856  L 11.6838596491227 53.5362949640287  L 10.2202631578948 56.6720503597121  L 12.4187719298245 58.8814748201438  L 17.1894736842105 59.8078057553955  L 17.5569298245614 59.8078057553955  L 19.9422807017545 62.3865107913669  L 17.0088596491228 66.8116187050359  L 23.7974561403507 81.5640647482014  L 23.9842982456139 81.933345323741  L 22.8819298245614 83.2226978417266  L 23.2493859649123 84.3305395683452  L 23.4299999999998 84.3305395683452  L 29.75 79.166870503597  L 30.5 81.933345323741  C 28.8495614035087 84.6998201438849  29 83.5068705035969  29.75 85.2568705035969  C 30.5 87.0068705035969  34.9955263157894 84.336798561151  36.0978947368419 81.3825539568345  L 36.2785087719299 81.0132733812949  L 36.4653508771928 81.0132733812949  L 39.9530701754384 79.166870503597  L 40.1336842105261 78.7975899280574  L 45.0849999999998 83.2289568345323  L 50.5906140350876 83.4104676258992  L 50.7774561403508 83.5982374100718  L 53.3434210526316 85.2568705035969  L 60.1320175438595 79.3546402877696  C 60.6863157894734 78.7975899280574  61.234385964912 77.6960071942445  61.9692982456138 75.8496043165466  L 62.7042105263158 74.3724820143883  C 62.8848245614033 73.6339208633092  63.8065789473681 72.1567985611508  61.9692982456138 69.0210431654674  L 61.0537719298245 67.7254316546761  L 66.5531578947366 69.0210431654674  L 68.9447368421052 67.7254316546761  L 66.5531578947366 62.5617625899279  L 66.3725438596491 62.3739928057552  L 70.4083333333333 57.02881294964  L 68.757894736842 54.4438489208632  C 67.1074561403507 52.603705035971  66.005087719298 51.6773741007193  65.2701754385967 51.6773741007193  L 64.9027192982455 51.8651438848918  L 62.8848245614033 53.8930575539566  L 62.5173684210524 53.7115467625897  L 62.1499122807018 53.7115467625897  L 58.8428070175437 52.6037050359711  L 57.9272807017542 49.6494604316546  C 56.6380701754383 49.4679496402877  55.3613157894733 48.7293884892084  54.2589473684209 47.4400359712229  L 52.2410526315789 46.1444244604315  C 50.5906140350876 45.4058633093524  49.6750877192981 44.4857913669063  49.6750877192981 43.5657194244602  C 49.3076315789472 42.4578776978415  49.6750877192981 41.1685251798558  50.7774561403508 39.5098920863308  C 52.795350877193 36.5556474820143  53.89149122807 34.1584532374098  53.89149122807 32.3183093525178  L 53.89149122807 29.9211151079135  L 55.1807017543858 30.1026258992803  L 59.4033333333332 30.290395683453  C 59.7707894736841 29.9211151079134  60.3188596491227 28.0747122302155  61.0537719298245 24.7574460431651  L 59.7707894736841 24.5696762589924  C 56.8311403508769 26.5975899280573  54.6326315789474 27.8932014388486  52.9821929824561 28.4439928057551  C 50.9580701754385 28.9947841726615  48.3921052631579 27.8932014388487  44.7237719298246 25.3082374100717  L 44.7237719298246 25.1267266187049  Z " stroke-width="4" stroke="#00ccff" fill="none" stroke-opacity="0.498039215686275" transform="matrix(1 0 0 1 1073 461 )" mask="url(#clip577)" />
  </g>
</svg>