<?xml version="1.0" encoding="utf-8"?>
<svg version="1.1" xmlns:xlink="http://www.w3.org/1999/xlink" width="15px" height="15px" xmlns="http://www.w3.org/2000/svg">
  <defs>
    <mask fill="white" id="clip1149">
      <path d="M 12.8114306839186 3.99237954405419  C 12.8114306839186 3.99237954405419  8.08852248921744 -1.85722242760323  2.33598028342567 2.11022057917438  C 2.33598028342567 2.11022057917438  -2.04671842267419 6.26878126925442  2.33598028342567 10.639472581639  C 2.33598028342567 10.639472581639  7.03787553912503 15.2252963647566  12.8114306839186 14.4037905113987  C 12.8114306839186 14.4037905113987  16.944975970425 11.112764017252  12.8114306839186 3.99237954405419  Z " fill-rule="evenodd" />
    </mask>
  </defs>
  <g transform="matrix(1 0 0 1 -1173 -706 )">
    <path d="M 12.8114306839186 3.99237954405419  C 12.8114306839186 3.99237954405419  8.08852248921744 -1.85722242760323  2.33598028342567 2.11022057917438  C 2.33598028342567 2.11022057917438  -2.04671842267419 6.26878126925442  2.33598028342567 10.639472581639  C 2.33598028342567 10.639472581639  7.03787553912503 15.2252963647566  12.8114306839186 14.4037905113987  C 12.8114306839186 14.4037905113987  16.944975970425 11.112764017252  12.8114306839186 3.99237954405419  Z " fill-rule="nonzero" fill="#113f7d" stroke="none" transform="matrix(1 0 0 1 1173 706 )" />
    <path d="M 12.8114306839186 3.99237954405419  C 12.8114306839186 3.99237954405419  8.08852248921744 -1.85722242760323  2.33598028342567 2.11022057917438  C 2.33598028342567 2.11022057917438  -2.04671842267419 6.26878126925442  2.33598028342567 10.639472581639  C 2.33598028342567 10.639472581639  7.03787553912503 15.2252963647566  12.8114306839186 14.4037905113987  C 12.8114306839186 14.4037905113987  16.944975970425 11.112764017252  12.8114306839186 3.99237954405419  Z " stroke-width="2.00123228589033" stroke="#2d8bc9" fill="none" transform="matrix(1 0 0 1 1173 706 )" mask="url(#clip1149)" />
  </g>
</svg>