<?xml version="1.0" encoding="utf-8"?>
<svg version="1.1" xmlns:xlink="http://www.w3.org/1999/xlink" width="13px" height="13px" xmlns="http://www.w3.org/2000/svg">
  <defs>
    <mask fill="white" id="clip1148">
      <path d="M 2.97991373998764 10.4809956869994  C 0.373308687615463 7.92542205791744  -0.400167590881097 3.50369932224271  1.25485150955012 1.83967467652496  C 2.90886999383849 0.174649414664202  7.36361306223034 0.897094269870649  9.97121873074548 3.45266789895254  C 12.5778237831177 6.00824152803455  13.3502994454714 10.4299642637092  11.696280961183 12.0949895255699  C 10.0422624768946 13.7590141712877  5.58751940850277 13.0365693160813  2.97991373998764 10.4809956869994  Z " fill-rule="evenodd" />
    </mask>
  </defs>
  <g transform="matrix(1 0 0 1 -1169 -720 )">
    <path d="M 2.97991373998764 10.4809956869994  C 0.373308687615463 7.92542205791744  -0.400167590881097 3.50369932224271  1.25485150955012 1.83967467652496  C 2.90886999383849 0.174649414664202  7.36361306223034 0.897094269870649  9.97121873074548 3.45266789895254  C 12.5778237831177 6.00824152803455  13.3502994454714 10.4299642637092  11.696280961183 12.0949895255699  C 10.0422624768946 13.7590141712877  5.58751940850277 13.0365693160813  2.97991373998764 10.4809956869994  Z " fill-rule="nonzero" fill="#113f7d" stroke="none" transform="matrix(1 0 0 1 1169 720 )" />
    <path d="M 2.97991373998764 10.4809956869994  C 0.373308687615463 7.92542205791744  -0.400167590881097 3.50369932224271  1.25485150955012 1.83967467652496  C 2.90886999383849 0.174649414664202  7.36361306223034 0.897094269870649  9.97121873074548 3.45266789895254  C 12.5778237831177 6.00824152803455  13.3502994454714 10.4299642637092  11.696280961183 12.0949895255699  C 10.0422624768946 13.7590141712877  5.58751940850277 13.0365693160813  2.97991373998764 10.4809956869994  Z " stroke-width="2.00123228589033" stroke="#2d8bc9" fill="none" transform="matrix(1 0 0 1 1169 720 )" mask="url(#clip1148)" />
  </g>
</svg>