<?xml version="1.0" encoding="utf-8"?>
<svg version="1.1" xmlns:xlink="http://www.w3.org/1999/xlink" width="8px" height="7px" xmlns="http://www.w3.org/2000/svg">
  <defs>
    <mask fill="white" id="clip1147">
      <path d="M 0.976404189771984 2.74231916204565  C 0.976404189771984 1.44151817621696  3.25380653111517 0.386868761552591  4.82777572396787 0.386868761552591  C 6.40274553296365 0.386868761552591  7.67853111521868 1.44151817621696  7.67853111521868 2.74231916204565  C 7.67853111521868 4.04412076401729  6.40274553296365 6.09938632162664  4.82777572396787 6.09938632162664  C 3.25380653111517 6.09938632162664  0.976404189771984 4.04412076401729  0.976404189771984 2.74231916204565  Z " fill-rule="evenodd" />
    </mask>
  </defs>
  <g transform="matrix(1 0 0 1 -1253 -751 )">
    <path d="M 0.976404189771984 2.74231916204565  C 0.976404189771984 1.44151817621696  3.25380653111517 0.386868761552591  4.82777572396787 0.386868761552591  C 6.40274553296365 0.386868761552591  7.67853111521868 1.44151817621696  7.67853111521868 2.74231916204565  C 7.67853111521868 4.04412076401729  6.40274553296365 6.09938632162664  4.82777572396787 6.09938632162664  C 3.25380653111517 6.09938632162664  0.976404189771984 4.04412076401729  0.976404189771984 2.74231916204565  Z " fill-rule="nonzero" fill="#113f7d" stroke="none" transform="matrix(1 0 0 1 1253 751 )" />
    <path d="M 0.976404189771984 2.74231916204565  C 0.976404189771984 1.44151817621696  3.25380653111517 0.386868761552591  4.82777572396787 0.386868761552591  C 6.40274553296365 0.386868761552591  7.67853111521868 1.44151817621696  7.67853111521868 2.74231916204565  C 7.67853111521868 4.04412076401729  6.40274553296365 6.09938632162664  4.82777572396787 6.09938632162664  C 3.25380653111517 6.09938632162664  0.976404189771984 4.04412076401729  0.976404189771984 2.74231916204565  Z " stroke-width="2.00123228589033" stroke="#2d8bc9" fill="none" transform="matrix(1 0 0 1 1253 751 )" mask="url(#clip1147)" />
  </g>
</svg>