<?xml version="1.0" encoding="utf-8"?>
<svg version="1.1" xmlns:xlink="http://www.w3.org/1999/xlink" width="23px" height="27px" xmlns="http://www.w3.org/2000/svg">
  <defs>
    <mask fill="white" id="clip1146">
      <path d="M 15.9306913123845 0.870240295748658  C 15.9306913123845 0.870240295748658  11.3868934072705 -1.28108441158349  2.61249044978433 1.81182008626001  C 2.61249044978433 1.81182008626001  -2.21848428835494 6.59776709796665  10.192157732594 6.51671719038825  C 19.2137128773875 6.45868145409725  15.756584103512 21.4699248305607  5.45524091189156 21.6340258780037  C 5.45524091189156 21.6340258780037  0.620263709180449 18.7672606284658  0.717323475046101 23.5161848428835  C 0.717323475046101 23.5161848428835  10.0830905730129 32.8019026494146  20.6686087492297 20.6924460874923  C 20.6686087492297 20.6924460874923  27.4988145409734 6.80989772027101  15.9306913123845 0.870240295748658  Z " fill-rule="evenodd" />
    </mask>
  </defs>
  <g transform="matrix(1 0 0 1 -1258 -743 )">
    <path d="M 15.9306913123845 0.870240295748658  C 15.9306913123845 0.870240295748658  11.3868934072705 -1.28108441158349  2.61249044978433 1.81182008626001  C 2.61249044978433 1.81182008626001  -2.21848428835494 6.59776709796665  10.192157732594 6.51671719038825  C 19.2137128773875 6.45868145409725  15.756584103512 21.4699248305607  5.45524091189156 21.6340258780037  C 5.45524091189156 21.6340258780037  0.620263709180449 18.7672606284658  0.717323475046101 23.5161848428835  C 0.717323475046101 23.5161848428835  10.0830905730129 32.8019026494146  20.6686087492297 20.6924460874923  C 20.6686087492297 20.6924460874923  27.4988145409734 6.80989772027101  15.9306913123845 0.870240295748658  Z " fill-rule="nonzero" fill="#113f7d" stroke="none" transform="matrix(1 0 0 1 1258 743 )" />
    <path d="M 15.9306913123845 0.870240295748658  C 15.9306913123845 0.870240295748658  11.3868934072705 -1.28108441158349  2.61249044978433 1.81182008626001  C 2.61249044978433 1.81182008626001  -2.21848428835494 6.59776709796665  10.192157732594 6.51671719038825  C 19.2137128773875 6.45868145409725  15.756584103512 21.4699248305607  5.45524091189156 21.6340258780037  C 5.45524091189156 21.6340258780037  0.620263709180449 18.7672606284658  0.717323475046101 23.5161848428835  C 0.717323475046101 23.5161848428835  10.0830905730129 32.8019026494146  20.6686087492297 20.6924460874923  C 20.6686087492297 20.6924460874923  27.4988145409734 6.80989772027101  15.9306913123845 0.870240295748658  Z " stroke-width="2.00123228589033" stroke="#2d8bc9" fill="none" transform="matrix(1 0 0 1 1258 743 )" mask="url(#clip1146)" />
  </g>
</svg>