<?xml version="1.0" encoding="utf-8"?>
<svg version="1.1" xmlns:xlink="http://www.w3.org/1999/xlink" width="149px" height="74px" xmlns="http://www.w3.org/2000/svg">
  <defs>
    <mask fill="white" id="clip1150">
      <path d="M 0.890916853932595 73.6676359550562  C 0.890916853932595 73.6676359550562  0.890916853932595 0.33521348314606  0.890916853932595 0.33521348314606  C 0.890916853932595 0.33521348314606  148.49486741573 0.33521348314606  148.49486741573 0.33521348314606  C 148.49486741573 0.33521348314606  148.49486741573 73.6676359550562  148.49486741573 73.6676359550562  C 148.49486741573 73.6676359550562  0.890916853932595 73.6676359550562  0.890916853932595 73.6676359550562  Z " fill-rule="evenodd" />
    </mask>
  </defs>
  <g transform="matrix(1 0 0 1 -852 -612 )">
    <path d="M 0.890916853932595 73.6676359550562  C 0.890916853932595 73.6676359550562  0.890916853932595 0.33521348314606  0.890916853932595 0.33521348314606  C 0.890916853932595 0.33521348314606  148.49486741573 0.33521348314606  148.49486741573 0.33521348314606  C 148.49486741573 0.33521348314606  148.49486741573 73.6676359550562  148.49486741573 73.6676359550562  C 148.49486741573 73.6676359550562  0.890916853932595 73.6676359550562  0.890916853932595 73.6676359550562  Z " fill-rule="nonzero" fill="#ff000f" stroke="none" fill-opacity="0.376470588235294" transform="matrix(1 0 0 1 852 612 )" />
    <path d="M 0.890916853932595 73.6676359550562  C 0.890916853932595 73.6676359550562  0.890916853932595 0.33521348314606  0.890916853932595 0.33521348314606  C 0.890916853932595 0.33521348314606  148.49486741573 0.33521348314606  148.49486741573 0.33521348314606  C 148.49486741573 0.33521348314606  148.49486741573 73.6676359550562  148.49486741573 73.6676359550562  C 148.49486741573 73.6676359550562  0.890916853932595 73.6676359550562  0.890916853932595 73.6676359550562  Z " stroke-width="2.00449438202247" stroke="#ff0000" fill="none" transform="matrix(1 0 0 1 852 612 )" mask="url(#clip1150)" />
  </g>
</svg>