<?xml version="1.0" encoding="utf-8"?>
<svg version="1.1" xmlns:xlink="http://www.w3.org/1999/xlink" width="116px" height="116px" xmlns="http://www.w3.org/2000/svg">
  <g transform="matrix(1 0 0 1 -1472 -218 )">
    <path d="M 27.226 102.334  C 27.963 102.847  28.714 103.343  29.478 103.819  L 27.253 107.202  L 25 105.719  L 27.226 102.334  Z M 31.844 105.215  C 32.63 105.651  33.426 106.068  34.235 106.465  L 32.364 110.05  L 29.973 108.802  L 31.844 105.215  Z M 18.905 95.196  C 19.525 95.848  20.161 96.483  20.813 97.104  L 17.947 99.971  L 16.039 98.062  L 18.905 95.196  Z M 22.85 98.945  C 23.533 99.531  24.229 100.101  24.94 100.652  L 22.377 103.793  L 20.287 102.087  L 22.85 98.945  Z M 46.715 110.781  C 47.591 110.967  48.475 111.132  49.367 111.275  L 48.618 115.262  L 45.967 114.763  L 46.715 110.781  Z M 52.088 111.642  C 52.978 111.738  53.874 111.813  54.776 111.866  L 54.432 115.917  L 51.744 115.688  L 52.088 111.642  Z M 36.283 107.413  C 37.105 107.774  37.936 108.116  38.779 108.437  L 37.243 112.183  L 34.747 111.159  L 36.283 107.413  Z M 41.37 109.35  C 42.223 109.626  43.085 109.881  43.956 110.115  L 42.805 113.999  L 40.219 113.232  L 41.37 109.35  Z M 4.882 67.575  C 5.042 68.464  5.222 69.345  5.425 70.219  L 1.474 71.034  L 0.929000000000002 68.391  L 4.882 67.575  Z M 6.113 72.88  C 6.361 73.748  6.63 74.606  6.921 75.455  L 3.075 76.664  L 2.267 74.089  L 6.113 72.88  Z M 4.052 56.652  C 4.041 57.101  4.018 57.548  4.018 58  C 4.018 58.452  4.041 58.899  4.052 59.348  L 0 59.348  L 0 56.652  L 4.052 56.652  Z M 4.188 62.082  C 4.255 62.984  4.344 63.879  4.456 64.768  L 0.436 65.175  L 0.164000000000001 62.49  L 4.188 62.082  Z M 12.698 87.337  C 13.189 88.092  13.696 88.835  14.223 89.563  L 10.885 91.846  L 9.362 89.618  L 12.698 87.337  Z M 15.887 91.75  C 16.45 92.452  17.03 93.14  17.627 93.812  L 14.533 96.422  L 12.794 94.358  L 15.887 91.75  Z M 7.695 77.577  C 8.023 78.417  8.37 79.247  8.738 80.066  L 5.018 81.623  L 3.977 79.133  L 7.695 77.577  Z M 9.927 82.544  C 10.338 83.346  10.767 84.137  11.216 84.915  L 7.667 86.841  L 6.38 84.469  L 9.927 82.544  Z M 102.316 88.768  C 102.829 88.03  103.325 87.28  103.802 86.515  L 107.201 88.753  L 105.718 91.007  L 102.316 88.768  Z M 105.196 84.151  C 105.632 83.365  106.05 82.569  106.448 81.76  L 110.048 83.64  L 108.8 86.032  L 105.196 84.151  Z M 95.18 97.085  C 95.831 96.464  96.467 95.828  97.087 95.176  L 99.972 98.062  L 98.065 99.971  L 95.18 97.085  Z M 98.928 93.141  C 99.514 92.459  100.083 91.763  100.635 91.052  L 103.793 93.63  L 102.088 95.721  L 98.928 93.141  Z M 110.765 69.281  C 110.952 68.404  111.117 67.52  111.26 66.628  L 115.257 67.38  L 114.759 70.032  L 110.765 69.281  Z M 111.627 63.907  C 111.724 63.017  111.798 62.12  111.851 61.218  L 115.912 61.564  L 115.683 64.253  L 111.627 63.907  Z M 107.395 79.713  C 107.757 78.891  108.099 78.059  108.42 77.216  L 112.179 78.759  L 111.156 81.256  L 107.395 79.713  Z M 109.333 74.627  C 109.609 73.773  109.865 72.911  110.099 72.039  L 113.995 73.195  L 113.228 75.782  L 109.333 74.627  Z M 67.583 111.101  C 68.471 110.941  69.352 110.76  70.225 110.558  L 71.047 114.542  L 68.405 115.087  L 67.583 111.101  Z M 72.882 109.87  C 73.75 109.621  74.607 109.352  75.456 109.062  L 76.674 112.94  L 74.1 113.749  L 72.882 109.87  Z M 56.656 111.935  C 57.1 111.946  57.54 111.969  57.987 111.969  C 58.442 111.969  58.891 111.946  59.344 111.934  L 59.344 116  L 56.656 116  L 56.656 111.935  Z M 62.095 111.797  C 62.996 111.729  63.891 111.64  64.779 111.528  L 65.189 115.58  L 62.505 115.852  L 62.095 111.797  Z M 87.325 103.287  C 88.081 102.797  88.823 102.289  89.551 101.763  L 91.851 105.128  L 89.624 106.651  L 87.325 103.287  Z M 91.735 100.101  C 92.437 99.538  93.125 98.958  93.798 98.361  L 96.424 101.478  L 94.362 103.217  L 91.735 100.101  Z M 77.574 108.287  C 78.414 107.96  79.243 107.612  80.062 107.244  L 81.631 110.997  L 79.142 112.038  L 77.574 108.287  Z M 82.537 106.057  C 83.339 105.646  84.129 105.216  84.907 104.767  L 86.848 108.347  L 84.476 109.634  L 82.537 106.057  Z M 88.763 13.677  C 88.026 13.163  87.275 12.668  86.511 12.191  L 88.758 8.774  L 91.012 10.258  L 88.763 13.677  Z M 84.149 10.797  C 83.364 10.361  82.568 9.943  81.759 9.545  L 83.647 5.926  L 86.039 7.175  L 84.149 10.797  Z M 97.076 20.812  C 96.456 20.16  95.82 19.524  95.168 18.904  L 98.065 16.006  L 99.972 17.914  L 97.076 20.812  Z M 93.134 17.064  C 92.452 16.478  91.756 15.909  91.045 15.357  L 93.634 12.183  L 95.724 13.89  L 93.134 17.064  Z M 69.291 5.226  C 68.415 5.04  67.531 4.874  66.639 4.731  L 67.394 0.715000000000003  L 70.045 1.213  L 69.291 5.226  Z M 63.921 4.363  C 63.031 4.265  62.135 4.191  61.233 4.137  L 61.58 0.0600000000000023  L 64.268 0.289000000000001  L 63.921 4.363  Z M 79.714 8.598  C 78.893 8.236  78.061 7.894  77.219 7.573  L 78.768 3.794  L 81.264 4.818  L 79.714 8.598  Z M 74.632 6.66  C 73.779 6.383  72.917 6.127  72.046 5.893  L 73.207 1.978  L 75.793 2.745  L 74.632 6.66  Z M 111.088 48.41  C 110.929 47.521  110.748 46.64  110.545 45.766  L 114.537 44.942  L 115.082 47.586  L 111.088 48.41  Z M 109.857 43.109  C 109.609 42.242  109.34 41.383  109.049 40.534  L 112.936 39.313  L 113.745 41.888  L 109.857 43.109  Z M 116 59.348  L 111.921 59.348  C 111.932 58.899  111.955 58.452  111.955 58  C 111.955 57.548  111.932 57.101  111.921 56.652  L 116 56.652  L 116 59.348  Z M 111.784 53.898  C 111.716 52.997  111.627 52.102  111.515 51.213  L 115.576 50.802  L 115.847 53.487  L 111.784 53.898  Z M 103.276 28.665  C 102.786 27.91  102.278 27.167  101.752 26.439  L 105.127 24.13  L 106.649 26.358  L 103.276 28.665  Z M 100.091 24.256  C 99.527 23.554  98.948 22.866  98.351 22.193  L 101.479 19.555  L 103.218 21.618  L 100.091 24.256  Z M 108.275 38.417  C 107.948 37.577  107.6 36.747  107.232 35.928  L 110.994 34.354  L 112.035 36.844  L 108.275 38.417  Z M 106.045 33.454  C 105.634 32.652  105.205 31.861  104.756 31.083  L 108.345 29.135  L 109.631 31.508  L 106.045 33.454  Z M 13.681 27.199  C 13.167 27.937  12.671 28.687  12.193 29.451  L 8.811 27.224  L 10.293 24.969  L 13.681 27.199  Z M 10.796 31.816  C 10.359 32.601  9.941 33.397  9.543 34.206  L 5.964 32.337  L 7.212 29.945  L 10.796 31.816  Z M 20.825 18.885  C 20.173 19.505  19.537 20.14  18.916 20.792  L 16.039 17.914  L 17.947 16.006  L 20.825 18.885  Z M 17.073 22.827  C 16.487 23.508  15.917 24.204  15.364 24.915  L 12.218 22.346  L 13.924 20.255  L 17.073 22.827  Z M 5.215 46.69  C 5.028 47.566  4.862 48.45  4.718 49.342  L 0.753999999999998 48.597  L 1.252 45.945  L 5.215 46.69  Z M 4.35 52.066  C 4.252 52.956  4.178 53.853  4.124 54.756  L 0.100000000000001 54.413  L 0.328000000000003 51.724  L 4.35 52.066  Z M 8.593 36.254  C 8.231 37.076  7.888 37.908  7.567 38.75  L 3.832 37.218  L 4.856 34.721  L 8.593 36.254  Z M 6.651 41.342  C 6.374 42.195  6.118 43.058  5.883 43.929  L 2.016 42.782  L 2.784 40.194  L 6.651 41.342  Z M 48.432 4.892  C 47.543 5.051  46.663 5.231  45.789 5.433  L 44.965 1.435  L 47.607 0.890000000000001  L 48.432 4.892  Z M 43.133 6.118  C 42.265 6.366  41.407 6.635  40.558 6.924  L 39.338 3.037  L 41.911 2.228  L 43.133 6.118  Z M 59.344 4.066  C 58.891 4.054  58.442 4.031  57.987 4.031  C 57.54 4.031  57.1 4.054  56.656 4.065  L 56.656 0  L 59.344 0  L 59.344 4.066  Z M 53.919 4.2  C 53.017 4.267  52.123 4.356  51.234 4.467  L 50.822 0.396999999999998  L 53.506 0.125  L 53.919 4.2  Z M 28.686 12.689  C 27.93 13.178  27.187 13.685  26.458 14.211  L 24.161 10.849  L 26.388 9.326  L 28.686 12.689  Z M 24.273 15.872  C 23.571 16.434  22.882 17.013  22.209 17.61  L 19.587 14.499  L 21.65 12.759  L 24.273 15.872  Z M 38.44 7.696  C 37.6 8.023  36.771 8.37  35.952 8.737  L 34.381 4.98  L 36.869 3.939  L 38.44 7.696  Z M 33.477 9.923  C 32.674 10.333  31.884 10.762  31.105 11.21  L 29.164 7.63  L 31.535 6.343  L 33.477 9.923  Z " fill-rule="nonzero" fill="#2d5470" stroke="none" transform="matrix(1 0 0 1 1472 218 )" />
  </g>
</svg>