<?xml version="1.0" encoding="utf-8"?>
<svg version="1.1" xmlns:xlink="http://www.w3.org/1999/xlink" width="329px" height="158px" xmlns="http://www.w3.org/2000/svg">
  <defs>
    <linearGradient gradientUnits="userSpaceOnUse" x1="163.498610261254" y1="-2.02078793345572" x2="165.501389738746" y2="160.02078793345" id="LinearGradient755">
      <stop id="Stop756" stop-color="#66bbf9" offset="0" />
      <stop id="Stop757" stop-color="#66bbf9" stop-opacity="0.0980392156862745" offset="0.87" />
      <stop id="Stop758" stop-color="#66bbf9" stop-opacity="0.0980392156862745" offset="1" />
    </linearGradient>
  </defs>
  <g transform="matrix(1 0 0 1 -121 -826 )">
    <path d="M 27.2318186138614 157  L 0 157  L 2.08241038613863 135.999  L 9.38304742574255 135.073  L 14.4861631683168 126.989  L 19.8212401980198 126.545  L 23.709042970297 114.658  L 27.1285256435644 83.7559  L 29.3205777227722 72.6989  L 35.1749861386139 95.7620999999999  L 39.9363653465347 99.2716  L 43.4201821782178 92.5761  L 47.6235643564357 63.0619  L 59.6760396039604 122.904  L 64.638401980198 97.1295999999999  L 70.3274960396039 110.067  L 73.3940366336634 90.3421  L 73.9921000000001 80.8789  L 78.6101524752475 71.2144  L 80.9952396039604 58.0813000000001  L 83.6311485148515 76.4267  L 83.1949792079207 88.4724  L 85.6266475247525 90.254  L 87.5136742574257 84.8919000000001  L 92.3213089108911 0  L 97.0217742574258 111.32  L 101.103654455446 95.4518000000001  L 101.103654455446 86.3896  L 104.593008910891 77.0249  L 106.226933663366 69.847  L 109.233537623762 59.0517  L 116.380981188119 70.3085  L 119.939067326733 76.4267  L 122.811465346535 72.4662  L 127.821386138614 90.2672  L 135.108573267327 55.2806  L 137.240558415842 74.3597  L 141.809749504951 87.5585000000001  L 146.239197029703 83.3311  L 148.307988118812 74.357  L 151.619812871287 70.3032000000001  L 152.037089108911 62.5979999999999  L 155.816354455445 43.653  L 161.364401980198 49.0336  L 164.349832673267 35.2680000000001  L 170.664026732673 142.655  L 176.087640594059 120.566  L 183.23540990099 119.021  L 191.800159405941 134.699  L 195.127294059406 73.5444  L 199.301685148515 76.9867999999999  L 201.265912871287 69.7996000000001  L 202.37246039604 72.0954  L 204.449069306931 71.3946000000001  L 205.635423762376 74.4872  L 208.931612871287 76.5042  L 208.990572277228 83.3469  L 212.930428712871 87.6847  L 217.854027722772 86.7249  L 218.112341584158 75.2709  L 219.351140594059 30.2674999999999  L 223.047993069307 31.0432  L 227.37418019802 41.3691  L 238.198605940594 20.2532  L 244.306930693069 35.2680000000001  L 246.261386138614 35.2680000000001  L 248.465686138614 35.2680000000001  L 251.147524752475 44.6848  L 254.404950495049 55.2806  L 271.80449009901 59.0517  L 274.60099009901 43.653  L 286.327722772277 87.552  L 293.07776039604 49.0336  L 300.013145544555 62.552  L 306.55991980198 45.552  L 313.803131683168 59.0517  L 319.276258415842 67.8597  L 322.349313861386 65.1674  L 325.742574257426 58.0813000000001  L 329 49.0336  L 329 157.552  L 27.2318186138614 157  Z " fill-rule="nonzero" fill="url(#LinearGradient755)" stroke="none" transform="matrix(1 0 0 1 121 826 )" />
  </g>
</svg>