<?xml version="1.0" encoding="utf-8"?>
<svg version="1.1" xmlns:xlink="http://www.w3.org/1999/xlink" width="332px" height="162px" xmlns="http://www.w3.org/2000/svg">
  <g transform="matrix(1 0 0 1 -120 -825 )">
    <path d="M 0 158.552  L 2.10723358771062 136.194  L 9.41709514370663 135.267  L 14.5266379583746 127.175  L 19.8684697720516 126.73  L 23.7612016848366 114.83  L 27.1849863230922 83.8929000000001  L 29.4251861248761 72.8237  L 35.2414757185332 95.9125  L 40.0088780971258 99.4258  L 43.4971258671953 92.723  L 47.6410911793855 62.7115  L 59.7736590683844 123.085  L 64.7422438057483 97.2814999999999  L 70.4386065411298 110.233  L 73.5088384539147 90.4865  L 74.1078206144697 81.0126999999999  L 78.7317542120912 71.3375  L 81.1198572844401 58.1898  L 83.7590307234887 76.5554999999999  L 83.3224291377602 88.6146  L 85.7571595639247 90.3983  L 87.6463825569871 85.0302  L 92.4604122893954 0.0438842999999451  L 97.1665143706641 111.488  L 101.253744301288 95.6018000000001  L 101.253744301288 86.5295  L 104.74753518335 77.1545  L 106.383079286422 69.9684999999999  L 109.393641228939 59.1613000000001  L 116.550124876115 70.4304999999999  L 120.11271555996 76.5554999999999  L 122.988612487612 72.5907  L 128.004802775025 90.4114  L 135.301494549059 55.3860000000001  L 137.436244796829 74.4862000000001  L 142.011268582755 87.6998000000001  L 146.446410307235 83.4677  L 148.517577799802 74.4836  L 151.833663032706 70.4253000000001  L 152.251352824579 62.7115  L 156.035341922696 43.7454  L 161.590518334985 49.1320000000001  L 164.579886025768 35.3511  L 170.90164222002 142.858  L 176.332587710605 120.744  L 183.48907135778 119.197  L 192.064591674926 134.892  L 195.396001982161 73.6701  L 199.575508424182 77.1163  L 201.542334985134 69.9211  L 202.650305252725 72.2195  L 204.729624380575 71.5178  L 205.917480673935 74.6139000000002  L 209.217914767096 76.6332  L 209.276932606541 83.4835  L 213.221671952428 87.8261  L 218.151454905847 86.8652  L 218.410350842418 75.3985  L 219.650377601586 30.345  L 223.351872150644 31.1216000000001  L 227.683651139742 41.4590000000001  L 238.521739345887 20.3197  L 244.549058473736 35.3511  L 248.711935579782 35.3511  L 254.74153716551 55.3860000000001  L 262.921540138751 59.1613000000001  L 272.073870168484 59.1613000000001  L 274.87314172448 43.7454  L 281.286196233895 67.8597  L 286.611496531219 88.6146  L 293.527996035679 49.1320000000001  C 293.527996035679 49.1320000000001  299.857577799802 63.7401  300.584703666997 62.7115  C 301.311503468781 61.6828  307.360995044599 45.552  307.360995044599 45.552  L 313.228216055501 58.1898  L 320.240904856293 69.9684999999999  L 326.065411298315 59.1613000000001  L 328.810882061447 49.1320000000001  L 328.021803766105 49.1320000000001  L 328.021803766105 52.4239130434783  " stroke-width="2" stroke="#66bbf9" fill="none" transform="matrix(1 0 0 1 121 826 )" />
  </g>
</svg>