<svg t="1636451377945" class="icon" viewBox="0 0 1024 1024" version="1.1" xmlns="http://www.w3.org/2000/svg" p-id="10469" width="32" height="32"><path d="M1022.857143 238.4V162.285714c0-13.257143-10.742857-24-24-24H864V67.428571c0-12.571429-10.285714-22.857143-22.857143-22.857142s-22.857143 10.285714-22.857143 22.857142v70.857143H645.257143V67.428571c0-12.571429-10.285714-22.857143-22.857143-22.857142s-22.857143 10.285714-22.857143 22.857142v70.857143H426.514286V67.428571c0-12.571429-10.285714-22.857143-22.857143-22.857142s-22.857143 10.285714-22.857143 22.857142v70.857143H207.771429V67.428571c0-12.571429-10.285714-22.857143-22.857143-22.857142s-22.857143 10.285714-22.857143 22.857142v70.857143H25.142857c-13.257143 0-24 10.742857-24 24v728.8c0 13.257143 10.742857 24 24 24h128.914286v38.857143c0 13.257143 10.742857 24 24 24H334.857143c13.257143 0 24-10.742857 24-24v-38.857143h306.171428v38.857143c0 13.257143 10.742857 24 24 24H845.714286c13.257143 0 24-10.742857 24-24v-38.857143h129.142857c13.257143 0 24-10.742857 24-24V327.314286h-45.714286v542.057143H824v62.857142h-113.257143v-62.857142H313.142857v62.857142h-113.257143v-62.857142H46.857143V184h930.285714v54.4h45.714286z" p-id="10470" fill="#ffffff"></path><path d="M469.371429 717.942857c-2.971429 0-6.057143-0.457143-9.028572-1.485714-11.771429-3.885714-19.771429-14.857143-19.771428-27.314286V560h-64.914286c-10.971429 0-20.8-6.057143-25.714286-15.885714s-3.771429-21.371429 2.857143-30.057143L518.628571 294.857143c7.885714-10.4 21.371429-14.171429 33.485715-9.371429s19.314286 16.8 17.942857 29.828572L556.571429 437.371429h77.028571c10.857143 0 20.685714 6.057143 25.6 15.771428 4.914286 9.714286 4 21.257143-2.514286 29.942857L492.457143 706.285714c-5.6 7.542857-14.171429 11.657143-23.085714 11.657143z m-59.428572-203.542857h47.657143c15.885714 0 28.685714 12.914286 28.685714 28.685714v94.4L600 483.085714h-62.4c-8.114286 0-16-3.428571-21.371429-9.6-5.485714-6.057143-8-14.171429-7.2-22.285714l8.8-79.657143-107.885714 142.857143z" p-id="10471" fill="#ffffff"></path></svg>