<?xml version="1.0" encoding="utf-8"?>
<svg version="1.1" xmlns:xlink="http://www.w3.org/1999/xlink" width="30px" height="20px" xmlns="http://www.w3.org/2000/svg">
  <g transform="matrix(1 0 0 1 -15 -90 )">
    <path d="M 37 90  C 37 90  39 90.6666666666667  39 90.6666666666667  C 39 90.6666666666667  45 100  45 100  C 45 100  39 109.333333333333  39 109.333333333333  C 39 109.333333333333  37 110  37 110  C 37 110  20 110  20 110  C 17.2 110  15 107.8  15 105  C 15 105  15 95  15 95  C 15 92.2  17.2 90  20 90  C 20 90  37 90  37 90  Z " fill-rule="nonzero" fill="#ffd200" stroke="none" />
  </g>
</svg>