<?xml version="1.0" encoding="utf-8"?>
<svg version="1.1" xmlns:xlink="http://www.w3.org/1999/xlink" width="87px" height="99px" xmlns="http://www.w3.org/2000/svg">
  <g transform="matrix(1 0 0 1 -1555 -830 )">
    <path d="M 85 25.3489575121193  L 43.6136078572701 1.28911190899021  L 2 25.3489575121193  L 2 73.4685938846221  L 43.6136078572701 97.5285491552625  L 85 73.4685938846221  L 85 25.3489575121193  Z M 43.1601860092712 0.511733756221474  C 43.3004309549503 0.431073301772472  43.4570194061102 0.390715657670171  43.6136078572701 0.390715657670171  C 43.7701963084301 0.390715657670171  43.92678475959 0.431073301772472  44.0670297052691 0.511733756221474  L 85.8869682158941 24.5715793593506  C 86.1662433872509 24.7322422631817  86.3381814820714 25.028454210791  86 25.3489575121193  L 86 73.4685938846221  C 86.3381814820714 73.7890971859506  86.1662433872509 74.0853091335598  85.8869682158941 74.2459720373909  L 44.0670297052691 98.3059273080313  C 43.92678475959 98.3865877624801  43.7701963084301 98.4269454065825  43.6136078572701 98.4269454065825  C 43.4570194061102 98.4269454065825  43.3004309549503 98.3865877624801  43.1601860092712 98.3059273080313  L 1.34013706955557 74.2459720373909  C 1.06086189819871 74.0853091335598  0.888923803378248 73.7890971859506  1 73.4685938846221  L 1 25.3489575121193  C 0.888923803378248 25.028454210791  1.06086189819871 24.7322422631817  1.34013706955557 24.5715793593506  L 43.1601860092712 0.511733756221474  Z " fill-rule="nonzero" fill="#66bbf9" stroke="none" fill-opacity="0.498039215686275" transform="matrix(1 0 0 1 1555 830 )" />
  </g>
</svg>