<?xml version="1.0" encoding="utf-8"?>
<svg version="1.1" xmlns:xlink="http://www.w3.org/1999/xlink" width="122px" height="107px" xmlns="http://www.w3.org/2000/svg">
  <defs>
    <mask fill="white" id="clip759">
      <path d="M 2.93597456035263 19.4777934474517  L 58.4538989521566 0.34942241716692  L 117.402222732719 17.19418575974  L 89.9635579969136 72.5815930732322  L 58.4566171767121 102.559806316461  L 0.649041634513878 85.715042973888  L 2.93597456035263 19.4777934474517  Z " fill-rule="evenodd" />
    </mask>
    <filter x="1538px" y="828px" width="122px" height="107px" filterUnits="userSpaceOnUse" id="filter760">
      <feOffset dx="0" dy="2" in="SourceAlpha" result="shadowOffsetInner" />
      <feGaussianBlur stdDeviation="1" in="shadowOffsetInner" result="shadowGaussian" />
      <feComposite in2="shadowGaussian" operator="atop" in="SourceAlpha" result="shadowComposite" />
      <feColorMatrix type="matrix" values="0 0 0 0 0  0 0 0 0 0  0 0 0 0 0  0 0 0 0.298039215686275 0  " in="shadowComposite" />
    </filter>
    <g id="widget761">
      <path d="M 2.93597456035263 19.4777934474517  L 58.4538989521566 0.34942241716692  L 117.402222732719 17.19418575974  L 89.9635579969136 72.5815930732322  L 58.4566171767121 102.559806316461  L 0.649041634513878 85.715042973888  L 2.93597456035263 19.4777934474517  Z " fill-rule="nonzero" fill="#87f7c7" stroke="none" fill-opacity="0.498039215686275" transform="matrix(1 0 0 1 1540 828 )" />
      <path d="M 2.93597456035263 19.4777934474517  L 58.4538989521566 0.34942241716692  L 117.402222732719 17.19418575974  L 89.9635579969136 72.5815930732322  L 58.4566171767121 102.559806316461  L 0.649041634513878 85.715042973888  L 2.93597456035263 19.4777934474517  Z " stroke-width="4" stroke="#87f7c7" fill="none" transform="matrix(1 0 0 1 1540 828 )" mask="url(#clip759)" />
    </g>
  </defs>
  <g transform="matrix(1 0 0 1 -1538 -828 )">
    <use xlink:href="#widget761" filter="url(#filter760)" />
    <use xlink:href="#widget761" />
  </g>
</svg>