<?xml version="1.0" encoding="utf-8"?>
<svg version="1.1" xmlns:xlink="http://www.w3.org/1999/xlink" width="142px" height="165px" xmlns="http://www.w3.org/2000/svg">
  <g transform="matrix(1 0 0 1 -1528 -798 )">
    <path d="M 140 42.0137191464238  L 70.6637990464294 1.62024228960195  L 2 42.0137191464238  L 2 122.800838566471  L 70.6637990464294 163.194315423293  L 140 122.800838566471  L 140 42.0137191464238  Z M 70.2112734858522 0.837169058791005  C 70.3512412067323 0.755917685261807  70.5075201265809 0.715264380763188  70.6637990464294 0.715264380763188  C 70.820077966278 0.715264380763188  70.9764670969309 0.755917685261807  71.1163246070066 0.837169058791005  L 140.678628722268 41.2306459156129  C 140.957351845185 41.3924858370542  141.128950066768 41.6908678355618  141 42.0137191464238  L 141 122.800838566471  C 141.128950066768 123.123689877334  140.957351845185 123.422071875841  140.678628722268 123.583911797283  L 71.1163246070066 163.977388654104  C 70.9764670969309 164.058640027634  70.820077966278 164.099293332132  70.6637990464294 164.099293332132  C 70.5075201265809 164.099293332132  70.3512412067323 164.058640027634  70.2112734858522 163.977388654104  L 0.64918979219965 123.583911797283  C 0.370466669281541 123.422071875841  0.198868447699397 123.123689877334  1 122.800838566471  L 1 42.0137191464238  C 0.198868447699397 41.6908678355618  0.370466669281541 41.3924858370542  0.64918979219965 41.2306459156129  L 70.2112734858522 0.837169058791005  Z " fill-rule="nonzero" fill="#66bbf9" stroke="none" transform="matrix(1 0 0 1 1528 798 )" />
  </g>
</svg>