<?xml version="1.0" encoding="utf-8"?>
<svg version="1.1" xmlns:xlink="http://www.w3.org/1999/xlink" width="58px" height="67px" xmlns="http://www.w3.org/2000/svg">
  <g transform="matrix(1 0 0 1 -1569 -846 )">
    <path d="M 57 17.2725006794187  L 29.1121722790865 1.136194341752  L 2 17.2725006794187  L 2 49.5449478654898  L 29.1121722790865 65.6811438769817  L 57 49.5449478654898  L 57 17.2725006794187  Z M 28.6587504310874 0.354147251128779  C 28.7988849476751 0.273002349505987  28.9555838279264 0.232402317150786  29.1121722790865 0.232402317150786  C 29.2687607302464 0.232402317150786  29.425459610497 0.273002349505987  29.5657045561761 0.354147251128779  L 57.4456267535627 16.4904535887955  C 57.7249019249189 16.6520814349918  57.89684001974 16.9500724333376  57 17.2725006794187  L 57 49.5449478654898  C 57.89684001974 49.8673761115708  57.7249019249189 50.1653671099166  57.4456267535627 50.326994956113  L 29.5655941270854 66.4631909676048  C 29.4253491814061 66.5443358692276  29.2687607302464 66.5849359015828  29.1121722790865 66.5849359015828  C 28.9555838279264 66.5849359015828  28.7988849476751 66.5443358692276  28.6587504310874 66.4631909676048  L 0.778938662792143 50.326994956113  C 0.499663491435513 50.1653671099166  0.327725396614824 49.8673761115708  1 49.5449478654898  L 1 17.2725006794187  C 0.327725396614824 16.9500724333376  0.499663491435513 16.6520814349918  0.778938662792143 16.4904535887955  L 28.6587504310874 0.354147251128779  Z " fill-rule="nonzero" fill="#66bbf9" stroke="none" fill-opacity="0.498039215686275" transform="matrix(1 0 0 1 1569 846 )" />
  </g>
</svg>