<?xml version="1.0" encoding="utf-8"?>
<svg version="1.1" xmlns:xlink="http://www.w3.org/1999/xlink" width="31px" height="34px" xmlns="http://www.w3.org/2000/svg">
  <g transform="matrix(1 0 0 1 -1583 -863 )">
    <path d="M 29.6365878570005 8.93712404719963  L 15.6115216561395 0.964148480770405  L 2 8.93712404719963  L 2 24.8832932324193  L 15.6115216561395 32.8563233119388  L 29.6365878570005 24.8832932324193  L 29.6365878570005 8.93712404719963  Z M 15.1553406488219 0.191316399070502  C 15.2964390120205 0.111127643185569  15.4539803340799 0.0710060086979638  15.6115216561395 0.0710060086979638  C 15.7690629781989 0.0710060086979638  15.9266043002585 0.111127643185569  16.0677026634569 0.191316399070502  L 30.0927688643178 8.16429196549961  C 30.3737434789082 8.32401532018548  30.5467278501678 8.61849503418296  30 8.93712404719963  L 30 24.8832932324193  C 30.5467278501678 25.2019222454359  30.3737434789082 25.4964019594333  30.0927688643178 25.6561253141192  L 16.0677026634569 33.6291553936387  C 15.9266043002585 33.7093441495236  15.7690629781989 33.7494657840114  15.6115216561395 33.7494657840114  C 15.4539803340799 33.7494657840114  15.2963279109465 33.7093441495236  15.1553406488219 33.6291553936387  L 1.13049665010658 25.6561253141192  C 0.849633136590228 25.4964019594333  0.67664876533081 25.2019222454359  1 24.8832932324193  L 1 8.93712404719963  C 0.67664876533081 8.61849503418296  0.849633136590228 8.32401532018548  1.13060775118061 8.16429196549961  L 15.1553406488219 0.191316399070502  Z " fill-rule="nonzero" fill="#389aff" stroke="none" transform="matrix(1 0 0 1 1583 863 )" />
  </g>
</svg>