<?xml version="1.0" encoding="utf-8"?>
<svg version="1.1" xmlns:xlink="http://www.w3.org/1999/xlink" width="114px" height="132px" xmlns="http://www.w3.org/2000/svg">
  <g transform="matrix(1 0 0 1 -1541 -814 )">
    <path d="M 112 33.6816320794954  L 57.1147442822148 1.45537322511575  L 2 33.6816320794954  L 2 98.1342599565309  L 57.1147442822148 130.360573895048  L 112 98.1342599565309  L 112 33.6816320794954  Z M 56.66206696927 0.674445400416516  C 56.8020816276819 0.593416633390234  56.9584129549482 0.552874707807973  57.1147442822148 0.552874707807973  C 57.2710756094812 0.552874707807973  57.4274069367477 0.593416633390234  57.5674215951597 0.674445400416516  L 113.235816558886 32.9007042547962  C 113.514633150322 33.0621007791927  113.68628891658 33.3596652927728  113 33.6816320794954  L 113 98.1342599565309  C 113.68628891658 98.4562267432534  113.514633150322 98.7537912568336  113.235816558886 98.91518778123  L 57.5674215951597 131.141501719748  C 57.4274069367477 131.222530486774  57.2710756094812 131.263072412356  57.1147442822148 131.263072412356  C 56.9584129549482 131.263072412356  56.8020816276819 131.222530486774  56.66206696927 131.141501719748  L 0.993561757781663 98.91518778123  C 0.714855414107888 98.7537912568336  0.543199647850088 98.4562267432534  1 98.1342599565309  L 1 33.6816320794954  C 0.543199647850088 33.3596652927728  0.714855414107888 33.0621007791927  0.993561757781663 32.9007042547962  L 56.66206696927 0.674445400416516  Z " fill-rule="nonzero" fill="#66bbf9" stroke="none" fill-opacity="0.498039215686275" transform="matrix(1 0 0 1 1541 814 )" />
  </g>
</svg>