<?xml version="1.0" encoding="utf-8"?>
<svg version="1.1" xmlns:xlink="http://www.w3.org/1999/xlink" width="96px" height="137px" xmlns="http://www.w3.org/2000/svg">
  <defs>
    <mask fill="white" id="clip764">
      <path d="M 27.6094917415473 57.6321165913479  L 48.7777415273656 0.384488336175878  L 94.4745820963919 41.6811633886268  L 95.6154888326594 95.7951027721717  L 48.7777415273656 136.523161296667  L 0.799087485804421 96.935934666867  L 27.6094917415473 57.6321165913479  Z " fill-rule="evenodd" />
    </mask>
  </defs>
  <g transform="matrix(1 0 0 1 -1550 -810 )">
    <path d="M 27.6094917415473 57.6321165913479  L 48.7777415273656 0.384488336175878  L 94.4745820963919 41.6811633886268  L 95.6154888326594 95.7951027721717  L 48.7777415273656 136.523161296667  L 0.799087485804421 96.935934666867  L 27.6094917415473 57.6321165913479  Z " fill-rule="nonzero" fill="#eda44e" stroke="none" fill-opacity="0.498039215686275" transform="matrix(1 0 0 1 1550 810 )" />
    <path d="M 27.6094917415473 57.6321165913479  L 48.7777415273656 0.384488336175878  L 94.4745820963919 41.6811633886268  L 95.6154888326594 95.7951027721717  L 48.7777415273656 136.523161296667  L 0.799087485804421 96.935934666867  L 27.6094917415473 57.6321165913479  Z " stroke-width="4" stroke="#eda44e" fill="none" transform="matrix(1 0 0 1 1550 810 )" mask="url(#clip764)" />
  </g>
</svg>