<?xml version="1.0" encoding="utf-8"?>
<svg version="1.1" xmlns:xlink="http://www.w3.org/1999/xlink" width="36px" height="55px" xmlns="http://www.w3.org/2000/svg">
  <g transform="matrix(1 0 0 1 -807 -139 )">
    <path d="M 808 144  A 4 4 0 0 1 812 140 L 838 140  A 4 4 0 0 1 842 144 L 842 189  A 4 4 0 0 1 838 193 L 812 193  A 4 4 0 0 1 808 189 L 808 144  Z " fill-rule="nonzero" fill="#66bbf9" stroke="none" fill-opacity="0.0980392156862745" />
    <path d="M 807.5 144  A 4.5 4.5 0 0 1 812 139.5 L 838 139.5  A 4.5 4.5 0 0 1 842.5 144 L 842.5 189  A 4.5 4.5 0 0 1 838 193.5 L 812 193.5  A 4.5 4.5 0 0 1 807.5 189 L 807.5 144  Z " stroke-width="1" stroke="#66bbf9" fill="none" stroke-opacity="0.498039215686275" />
  </g>
</svg>