<?xml version="1.0" encoding="utf-8"?>
<svg version="1.1" xmlns:xlink="http://www.w3.org/1999/xlink" width="36px" height="56px" xmlns="http://www.w3.org/2000/svg">
  <g transform="matrix(1 0 0 1 -1126 -138 )">
    <path d="M 1127 143  A 4 4 0 0 1 1131 139 L 1157 139  A 4 4 0 0 1 1161 143 L 1161 189  A 4 4 0 0 1 1157 193 L 1131 193  A 4 4 0 0 1 1127 189 L 1127 143  Z " fill-rule="nonzero" fill="#66bbf9" stroke="none" fill-opacity="0.0980392156862745" />
    <path d="M 1126.5 143  A 4.5 4.5 0 0 1 1131 138.5 L 1157 138.5  A 4.5 4.5 0 0 1 1161.5 143 L 1161.5 189  A 4.5 4.5 0 0 1 1157 193.5 L 1131 193.5  A 4.5 4.5 0 0 1 1126.5 189 L 1126.5 143  Z " stroke-width="1" stroke="#66bbf9" fill="none" stroke-opacity="0.498039215686275" />
  </g>
</svg>