<?xml version="1.0" encoding="utf-8"?>
<svg version="1.1" xmlns:xlink="http://www.w3.org/1999/xlink" width="16px" height="16px" viewBox="500 1032.5  16 16" xmlns="http://www.w3.org/2000/svg">
  <path d="M 508 1032.5  C 512.48 1032.5  516 1036.02  516 1040.5  C 516 1044.98  512.48 1048.5  508 1048.5  C 503.52 1048.5  500 1044.98  500 1040.5  C 500 1036.02  503.52 1032.5  508 1032.5  Z " fill-rule="nonzero" fill="#f0f0f0" stroke="none" />
  <path d="M 508 1033  C 512.2 1033  515.5 1036.3  515.5 1040.5  C 515.5 1044.7  512.2 1048  508 1048  C 503.8 1048  500.5 1044.7  500.5 1040.5  C 500.5 1036.3  503.8 1033  508 1033  Z " stroke-width="1" stroke="#8c8c8c" fill="none" />
  <path d="M 508 1044.5  C 505.76 1044.5  504 1042.74  504 1040.5  C 504 1038.26  505.76 1036.5  508 1036.5  C 510.24 1036.5  512 1038.26  512 1040.5  C 512 1042.74  510.24 1044.5  508 1044.5  " fill-rule="nonzero" fill="#8c8c8c" stroke="none" />
</svg>