<?xml version="1.0" encoding="utf-8"?>
<svg version="1.1" xmlns:xlink="http://www.w3.org/1999/xlink" width="16px" height="16px" viewBox="360 1032.5  16 16" xmlns="http://www.w3.org/2000/svg">
  <path d="M 368 1032.5  C 372.48 1032.5  376 1036.02  376 1040.5  C 376 1044.98  372.48 1048.5  368 1048.5  C 363.52 1048.5  360 1044.98  360 1040.5  C 360 1036.02  363.52 1032.5  368 1032.5  Z " fill-rule="nonzero" fill="#ffffff" stroke="none" />
  <path d="M 368 1033  C 372.2 1033  375.5 1036.3  375.5 1040.5  C 375.5 1044.7  372.2 1048  368 1048  C 363.8 1048  360.5 1044.7  360.5 1040.5  C 360.5 1036.3  363.8 1033  368 1033  Z " stroke-width="1" stroke="#8c8c8c" fill="none" />
  <path d="M 368 1044.5  C 365.76 1044.5  364 1042.74  364 1040.5  C 364 1038.26  365.76 1036.5  368 1036.5  C 370.24 1036.5  372 1038.26  372 1040.5  C 372 1042.74  370.24 1044.5  368 1044.5  " fill-rule="nonzero" fill="#8c8c8c" stroke="none" />
</svg>