<?xml version="1.0" encoding="utf-8"?>
<svg version="1.1" xmlns:xlink="http://www.w3.org/1999/xlink" width="25px" height="20px" xmlns="http://www.w3.org/2000/svg">
  <g transform="matrix(1 0 0 1 -885 -209 )">
    <path d="M 901.816718427 210  C 901.816718427 210  903.339396933869 210.609071402747  903.339396933869 210.609071402747  C 903.339396933869 210.609071402747  908.811741671207 219  908.811741671207 219  C 908.811741671207 219  903.339396933869 227.390928597253  903.339396933869 227.390928597253  C 903.339396933869 227.390928597253  901.816718427 228  901.816718427 228  C 901.816718427 228  890 228  890 228  C 887.76 228  886 226.24  886 224  C 886 224  886 214  886 214  C 886 211.76  887.76 210  890 210  C 890 210  901.816718427 210  901.816718427 210  Z " fill-rule="nonzero" fill="#ff9800" stroke="none" />
    <path d="M 901.9083592135 209.5  C 901.9083592135 209.5  903.669698466934 210.204535701374  903.669698466934 210.204535701374  C 903.669698466934 210.204535701374  909.405870835604 219  909.405870835604 219  C 909.405870835604 219  903.669698466934 227.795464298626  903.669698466934 227.795464298626  C 903.669698466934 227.795464298626  901.9083592135 228.5  901.9083592135 228.5  C 901.9083592135 228.5  890 228.5  890 228.5  C 887.48 228.5  885.5 226.52  885.5 224  C 885.5 224  885.5 214  885.5 214  C 885.5 211.48  887.48 209.5  890 209.5  C 890 209.5  901.9083592135 209.5  901.9083592135 209.5  Z " stroke-width="1" stroke="#02a6b5" fill="none" stroke-opacity="0.149019607843137" />
  </g>
</svg>