<?xml version="1.0" encoding="utf-8"?>
<svg version="1.1" xmlns:xlink="http://www.w3.org/1999/xlink" width="25px" height="20px" xmlns="http://www.w3.org/2000/svg">
  <g transform="matrix(1 0 0 1 -885 -243 )">
    <path d="M 901.816718427 244  C 901.816718427 244  903.339396933869 244.609071402747  903.339396933869 244.609071402747  C 903.339396933869 244.609071402747  908.811741671207 253  908.811741671207 253  C 908.811741671207 253  903.339396933869 261.390928597253  903.339396933869 261.390928597253  C 903.339396933869 261.390928597253  901.816718427 262  901.816718427 262  C 901.816718427 262  890 262  890 262  C 887.76 262  886 260.24  886 258  C 886 258  886 248  886 248  C 886 245.76  887.76 244  890 244  C 890 244  901.816718427 244  901.816718427 244  Z " fill-rule="nonzero" fill="#ffd200" stroke="none" />
    <path d="M 901.9083592135 243.5  C 901.9083592135 243.5  903.669698466934 244.204535701374  903.669698466934 244.204535701374  C 903.669698466934 244.204535701374  909.405870835604 253  909.405870835604 253  C 909.405870835604 253  903.669698466934 261.795464298626  903.669698466934 261.795464298626  C 903.669698466934 261.795464298626  901.9083592135 262.5  901.9083592135 262.5  C 901.9083592135 262.5  890 262.5  890 262.5  C 887.48 262.5  885.5 260.52  885.5 258  C 885.5 258  885.5 248  885.5 248  C 885.5 245.48  887.48 243.5  890 243.5  C 890 243.5  901.9083592135 243.5  901.9083592135 243.5  Z " stroke-width="1" stroke="#02a6b5" fill="none" stroke-opacity="0.149019607843137" />
  </g>
</svg>