<?xml version="1.0" encoding="utf-8"?>
<svg version="1.1" xmlns:xlink="http://www.w3.org/1999/xlink" width="25px" height="20px" xmlns="http://www.w3.org/2000/svg">
  <g transform="matrix(1 0 0 1 -885 -278 )">
    <path d="M 901.816718427 279  C 901.816718427 279  903.339396933869 279.609071402747  903.339396933869 279.609071402747  C 903.339396933869 279.609071402747  908.811741671207 288  908.811741671207 288  C 908.811741671207 288  903.339396933869 296.390928597253  903.339396933869 296.390928597253  C 903.339396933869 296.390928597253  901.816718427 297  901.816718427 297  C 901.816718427 297  890 297  890 297  C 887.76 297  886 295.24  886 293  C 886 293  886 283  886 283  C 886 280.76  887.76 279  890 279  C 890 279  901.816718427 279  901.816718427 279  Z " fill-rule="nonzero" fill="#00ccff" stroke="none" fill-opacity="0.498039215686275" />
    <path d="M 901.9083592135 278.5  C 901.9083592135 278.5  903.669698466934 279.204535701374  903.669698466934 279.204535701374  C 903.669698466934 279.204535701374  909.405870835604 288  909.405870835604 288  C 909.405870835604 288  903.669698466934 296.795464298626  903.669698466934 296.795464298626  C 903.669698466934 296.795464298626  901.9083592135 297.5  901.9083592135 297.5  C 901.9083592135 297.5  890 297.5  890 297.5  C 887.48 297.5  885.5 295.52  885.5 293  C 885.5 293  885.5 283  885.5 283  C 885.5 280.48  887.48 278.5  890 278.5  C 890 278.5  901.9083592135 278.5  901.9083592135 278.5  Z " stroke-width="1" stroke="#02a6b5" fill="none" stroke-opacity="0.149019607843137" />
  </g>
</svg>