<?xml version="1.0" encoding="utf-8"?>
<svg version="1.1" xmlns:xlink="http://www.w3.org/1999/xlink" width="25px" height="20px" xmlns="http://www.w3.org/2000/svg">
  <g transform="matrix(1 0 0 1 -885 -173 )">
    <path d="M 901.816718427 174  C 901.816718427 174  903.339396933869 174.609071402747  903.339396933869 174.609071402747  C 903.339396933869 174.609071402747  908.811741671207 183  908.811741671207 183  C 908.811741671207 183  903.339396933869 191.390928597253  903.339396933869 191.390928597253  C 903.339396933869 191.390928597253  901.816718427 192  901.816718427 192  C 901.816718427 192  890 192  890 192  C 887.76 192  886 190.24  886 188  C 886 188  886 178  886 178  C 886 175.76  887.76 174  890 174  C 890 174  901.816718427 174  901.816718427 174  Z " fill-rule="nonzero" fill="#e86452" stroke="none" />
    <path d="M 901.9083592135 173.5  C 901.9083592135 173.5  903.669698466934 174.204535701374  903.669698466934 174.204535701374  C 903.669698466934 174.204535701374  909.405870835604 183  909.405870835604 183  C 909.405870835604 183  903.669698466934 191.795464298626  903.669698466934 191.795464298626  C 903.669698466934 191.795464298626  901.9083592135 192.5  901.9083592135 192.5  C 901.9083592135 192.5  890 192.5  890 192.5  C 887.48 192.5  885.5 190.52  885.5 188  C 885.5 188  885.5 178  885.5 178  C 885.5 175.48  887.48 173.5  890 173.5  C 890 173.5  901.9083592135 173.5  901.9083592135 173.5  Z " stroke-width="1" stroke="#02a6b5" fill="none" stroke-opacity="0.149019607843137" />
  </g>
</svg>