<?xml version="1.0" encoding="utf-8"?>
<svg version="1.1" xmlns:xlink="http://www.w3.org/1999/xlink" width="577px" height="151px" xmlns="http://www.w3.org/2000/svg">
  <defs>
    <linearGradient gradientUnits="userSpaceOnUse" x1="288.5" y1="0" x2="288.5" y2="151" id="LinearGradient659">
      <stop id="Stop660" stop-color="#958eff" offset="0" />
      <stop id="Stop661" stop-color="#958eff" offset="0.08" />
      <stop id="Stop662" stop-color="#6136cf" offset="0.98" />
      <stop id="Stop663" stop-color="#6136cf" offset="1" />
    </linearGradient>
  </defs>
  <g transform="matrix(1 0 0 1 -1312 -867 )">
    <path d="M 0 151  C 9.5640863309352 151  576.995018705036 149.993  576.995018705036 149.993  C 576.995018705036 149.993  523.303300719424 66.986  504.189241726619 73.735  C 482.699935251798 81.323  480.620244604317 95.958  456.938338129497 99.5310000000001  C 433.258092086331 103.104  388.34590647482 29.361  367.328162589928 29.265  C 335.203791366906 29.119  318.141195683453 103.938  283.995248920863 106.677  C 258.261879136691 108.742  238.789997122302 60.939  223.689201438849 35.211  C 207.665205755396 7.91200000000004  195.641189928058 -5.75400000000002  181.978328057554 4.25099999999998  C 168.31546618705 14.256  160.570382733813 40.61  143.81662733813 69.103  C 124.90015971223 101.276  120.739948201439 -31.231  67.6293812949641 81.147  C 48.4073942446044 122.222  23.7450028776977 134.008  0 151  Z " fill-rule="nonzero" fill="url(#LinearGradient659)" stroke="none" transform="matrix(1 0 0 1 1312 867 )" />
  </g>
</svg>