<?xml version="1.0" encoding="utf-8"?>
<svg version="1.1" xmlns:xlink="http://www.w3.org/1999/xlink" width="105px" height="105px" xmlns="http://www.w3.org/2000/svg">
  <g transform="matrix(1 0 0 1 -1063 -698 )">
    <path d="M 104.771485721382 52.3445025624139  C 104.771485721382 23.4354320597139  81.4123353573423 0  52.597363094976 0  C 23.7823908326103 0  0.423240468569958 23.4354320597139  0.423240468569958 52.3445025624139  C 0.423240468569958 81.2535730651141  23.7823908326103 104.689005124828  52.597363094976 104.689005124828  C 81.4123353573423 104.689005124828  104.771485721382 81.2535730651141  104.771485721382 52.3445025624139  Z M 95.5921595804921 52.3404739962854  C 95.5921595919984 76.1636045848567  76.3429500281728 95.4762756222035  52.597363094976 95.4770172444236  C 52.5969169321205 95.4770172583582  52.5964707734141 95.4770172653252  52.5960246105583 95.4770172653252  C 28.8499149649972 95.4770172653252  9.59988964062407 76.1641290135505  9.59988964062407 52.3404740171873  C 9.59988964062407 28.5168190208241  28.8499149649972 9.20393076904918  52.5960246105583 9.20393076904918  C 76.3421342561196 9.20393076904918  95.5921595804924 28.5168190208241  95.5921595804924 52.3404740171873  Z " fill-rule="nonzero" fill="#ffffff" stroke="none" fill-opacity="0.2" transform="matrix(1 0 0 1 1063 698 )" />
  </g>
</svg>