<?xml version="1.0" encoding="utf-8"?>
<svg version="1.1" xmlns:xlink="http://www.w3.org/1999/xlink" width="105px" height="105px" xmlns="http://www.w3.org/2000/svg">
  <g transform="matrix(1 0 0 1 -1063 -885 )">
    <path d="M 52.4183218632072 0.590999330997079  C 52.4178756995831 0.590999330997079  52.4174295424135 0.590999336720074  52.4169833787892 0.590999348166179  C 23.6025338351964 0.591738559288387  0.244199236801137 23.9506724043283  0.244199236801137 52.7651219574032  C 0.244199236801137 81.5800942197689  23.6033496008415 104.939244583809  52.4183218632072 104.939244583809  C 81.2332941255732 104.939244583809  104.592444489613 81.5800942197689  104.592444489613 52.7651219574032  C 104.592444489613 23.9501496950373  81.2332941255732 0.590999330997079  52.4183218632072 0.590999330997079  Z M 52.4169833787892 95.7612569445067  L 52.4169833787892 95.7572414912516  C 28.6708737332278 95.7572414912516  9.42084840885497 76.5072161668785  9.42084840885497 52.7611065213173  C 9.42084840885497 29.0149968757561  28.6708737332278 9.76497155138281  52.4169833787892 9.76497155138281  C 76.1630930243505 9.76497155138281  95.4131183487236 29.0149968757561  95.4131183487236 52.7611065213173  C 95.4131185709588 52.7628911742645  95.4131186820763 52.7646758268741  95.4131186820763 52.7664604798354  C 95.4131186820763 76.5118309008643  76.1636926175896 95.7612569653513  52.4183221965602 95.7612569653513  C 52.4178759236189 95.7612569653513  52.4174296517305 95.7612569584032  52.4169833787892 95.7612569445067  Z " fill-rule="nonzero" fill="#ffffff" stroke="none" fill-opacity="0.2" transform="matrix(1 0 0 1 1063 885 )" />
  </g>
</svg>