<?xml version="1.0" encoding="utf-8"?>
<svg version="1.1" xmlns:xlink="http://www.w3.org/1999/xlink" width="36px" height="60px" xmlns="http://www.w3.org/2000/svg">
  <g transform="matrix(1 0 0 1 -76 -228 )">
    <path d="M 77 233  A 4 4 0 0 1 81 229 L 107 229  A 4 4 0 0 1 111 233 L 111 283  A 4 4 0 0 1 107 287 L 81 287  A 4 4 0 0 1 77 283 L 77 233  Z " fill-rule="nonzero" fill="#07a6ff" stroke="none" fill-opacity="0.298039215686275" />
    <path d="M 76.5 233  A 4.5 4.5 0 0 1 81 228.5 L 107 228.5  A 4.5 4.5 0 0 1 111.5 233 L 111.5 283  A 4.5 4.5 0 0 1 107 287.5 L 81 287.5  A 4.5 4.5 0 0 1 76.5 283 L 76.5 233  Z " stroke-width="1" stroke="#07a6ff" fill="none" stroke-opacity="0.498039215686275" />
  </g>
</svg>