<?xml version="1.0" encoding="utf-8"?>
<svg version="1.1" xmlns:xlink="http://www.w3.org/1999/xlink" width="220px" height="151px" xmlns="http://www.w3.org/2000/svg">
  <g transform="matrix(1 0 0 1 -667 -934 )">
    <path d="M 668 938  A 3 3 0 0 1 671 935 L 883 935  A 3 3 0 0 1 886 938 L 886 1081  A 3 3 0 0 1 883 1084 L 671 1084  A 3 3 0 0 1 668 1081 L 668 938  Z " fill-rule="nonzero" fill="#ff3399" stroke="none" fill-opacity="0.0980392156862745" />
    <path d="M 667.5 938  A 3.5 3.5 0 0 1 671 934.5 L 883 934.5  A 3.5 3.5 0 0 1 886.5 938 L 886.5 1081  A 3.5 3.5 0 0 1 883 1084.5 L 671 1084.5  A 3.5 3.5 0 0 1 667.5 1081 L 667.5 938  Z " stroke-width="1" stroke-dasharray="9,4" stroke="#ff3399" fill="none" stroke-dashoffset="0.5" />
  </g>
</svg>