<?xml version="1.0" encoding="utf-8"?>
<svg version="1.1" xmlns:xlink="http://www.w3.org/1999/xlink" width="30px" height="30px" xmlns="http://www.w3.org/2000/svg">
  <g transform="matrix(1 0 0 1 -310 -154 )">
    <path d="M 325 155  C 332.84 155  339 161.16  339 169  C 339 176.84  332.84 183  325 183  C 317.16 183  311 176.84  311 169  C 311 161.16  317.16 155  325 155  Z " fill-rule="nonzero" fill="#ffffff" stroke="none" />
    <path d="M 325 155  C 332.84 155  339 161.16  339 169  C 339 176.84  332.84 183  325 183  C 317.16 183  311 176.84  311 169  C 311 161.16  317.16 155  325 155  Z " stroke-width="2" stroke="#e4e4e4" fill="none" />
  </g>
</svg>