<?xml version="1.0" encoding="utf-8"?>
<svg version="1.1" xmlns:xlink="http://www.w3.org/1999/xlink" width="100px" height="35px" xmlns="http://www.w3.org/2000/svg">
  <defs>
    <mask fill="white" id="clip14">
      <path d="M 0 30  L 0 5  C 0 2.2  2.00000000000004 0  4.54545454545455 0  L 49.5125164690384 0  L 60.1515151515134 0  L 95.4545454545455 0  C 98 0  100 2.2  100 5  L 100 30  C 100 32.8  98 35  95.4545454545455 35  L 4.54545454545455 35  C 2.00000000000004 35  0 32.8  0 30  Z " fill-rule="evenodd" />
    </mask>
  </defs>
  <g transform="matrix(1 0 0 1 -1200 -93 )">
    <path d="M 0 30  L 0 5  C 0 2.2  2.00000000000004 0  4.54545454545455 0  L 49.5125164690384 0  L 60.1515151515134 0  L 95.4545454545455 0  C 98 0  100 2.2  100 5  L 100 30  C 100 32.8  98 35  95.4545454545455 35  L 4.54545454545455 35  C 2.00000000000004 35  0 32.8  0 30  Z " fill-rule="nonzero" fill="#f0f7ff" stroke="none" transform="matrix(1 0 0 1 1200 93 )" />
    <path d="M 0 30  L 0 5  C 0 2.2  2.00000000000004 0  4.54545454545455 0  L 49.5125164690384 0  L 60.1515151515134 0  L 95.4545454545455 0  C 98 0  100 2.2  100 5  L 100 30  C 100 32.8  98 35  95.4545454545455 35  L 4.54545454545455 35  C 2.00000000000004 35  0 32.8  0 30  Z " stroke-width="2" stroke="#7abbff" fill="none" stroke-opacity="0.996078431372549" transform="matrix(1 0 0 1 1200 93 )" mask="url(#clip14)" />
  </g>
</svg>