<?xml version="1.0" encoding="utf-8"?>
<svg version="1.1" xmlns:xlink="http://www.w3.org/1999/xlink" width="66px" height="28px" xmlns="http://www.w3.org/2000/svg">
  <g transform="matrix(1 0 0 1 -1567 -311 )">
    <path d="M 1.444841397456 27.7807542756908  L 1.44784095892396 27.7827539833357  L 0.587966671539107 27.0038678555767  C 0.742944014032901 26.9418769185792  0.902920625639581 26.8818856892267  1.05789796813337 26.8228943136969  L 1.06789650635869 26.8228943136969  C 1.19887735711154 26.7729016225698  1.32985820786416 26.7229089314428  1.45983920479466 26.6729162403158  L 0.587966671539107 25.8840315743313  C 0.741944160210551 25.8230404911563  0.900920917994426 25.7630492618039  1.05389855284307 25.7050577400965  C 1.1918783803535 25.6530653413244  1.32685864639643 25.6050723578425  1.45983920479443 25.5500803976028  L 0.587966671538879 24.7601958777958  C 0.739944452565169 24.6992047946208  0.897921356526467 24.6402134190909  1.04989913755276 24.5822218973835  L 1.05789796813315 24.5822218973835  C 1.19287823417608 24.531229352434  1.32685864639643 24.4822365151294  1.45783949714928 24.4282444087123  L 0.585966963893952 23.6393597427278  C 0.740944306387746 23.5773688057303  0.900920917994199 23.5173775763778  1.05589826048799 23.4583862008479  L 1.06589679871354 23.4583862008479  C 1.19687764946639 23.4083935097209  1.32785850021901 23.3584008185939  1.45783949714928 23.3084081274669  L 0.585966963893952 22.5185236076598  C 0.74794328314556 22.4545329630172  0.914918871509826 22.3905423183746  1.07689519076143 22.3295512351996  L 1.09289285192199 22.3235521122644  L 1.45783949714928 22.1845724309313  L 0.585966963893952 21.3946879111242  C 0.735945037275087 21.3346966817718  0.891922233591458 21.2757053062418  1.04290016079517 21.2187136383571  L 1.05589826048799 21.2187136383571  C 1.19087852653092 21.1677210934075  1.32585879257385 21.118728256103  1.45583978950435 21.0647361496858  L 0.583967256248798 20.2758514837013  C 0.750942844613064 20.2088612775911  0.92291770208999 20.143870779126  1.08989329045448 20.0758807191933  L 1.45583978950435 19.9359011840376  L 0.583967256248798 19.1460166642305  C 0.738944598742592 19.084025727233  0.898921210349272 19.0240344978806  1.05389855284307 18.9650431223507  L 1.06389709106838 18.9650431223507  C 1.19487794182123 18.9150504312236  1.32585879257385 18.8650577400966  1.45583978950435 18.8150650489696  L 0.583967256248798 18.0261803829851  C 0.74794328314556 17.9601900306975  0.916918579154981 17.8961993860549  1.08389416751925 17.8342084490573  L 1.09689226721207 17.8342084490573  L 1.45883935097186 17.6962286215468  L 0.586966817716529 16.9063441017397  C 0.736944891097664 16.8463528723872  0.892922087413808 16.7873614968573  1.04390001461752 16.7303698289726  L 1.05689811431057 16.7303698289726  C 1.1918783803535 16.679377284023  1.32685864639643 16.6303844467185  1.45683964332693 16.5763923403013  L 0.584967110071375 15.7875076743168  C 0.751942698435641 15.7205174682066  0.923917555912567 15.6555269697415  1.09089314427706 15.5875369098087  L 1.45683964332693 15.4475573746531  L 0.584967110071375 14.657672854846  C 0.739944452565169 14.5956819178485  0.899921064171849 14.5356906884961  1.05489840666542 14.4766993129662  L 1.06489694489096 14.4766993129662  C 1.19587779564381 14.4267066218391  1.32685864639643 14.3767139307121  1.45683964332693 14.3267212395851  L 0.584967110071375 13.5378365736006  C 0.743943867855478 13.473845928958  0.90891974857459 13.4118549919605  1.06789650635847 13.3518637626081  C 1.19887735711131 13.3028709253036  1.32885835404159 13.251878380354  1.4568396433267 13.2028855430495  L 0.584967110071148 12.4130010232425  C 19.9551352141496 4.69013009793917  42.5148370121321 0.609726648151138  65 0.609726648151138  L 65 16.3314281537787  L 65.8184300540852 16.3314281537787  C 42.8557871656187 16.3314281537787  20.5950416605754 20.2908492910393  1.444841397456 27.7807542756908  Z " fill-rule="nonzero" fill="#436ada" stroke="none" fill-opacity="0.752941176470588" transform="matrix(1 0 0 1 1567 311 )" />
  </g>
</svg>