<?xml version="1.0" encoding="utf-8"?>
<svg version="1.1" xmlns:xlink="http://www.w3.org/1999/xlink" width="294px" height="176px" xmlns="http://www.w3.org/2000/svg">
  <g transform="matrix(1 0 0 1 -1486 -319 )">
    <path d="M 147.961262973249 175.846937582225  L 145.711591872533 175.846937582225  L 145.711591872533 172.477430200263  L 147.961262973249 172.477430200263  L 147.961262973249 175.846937582225  Z M 158.450729425522 175.577976903961  L 157.9618009063 172.21646835258  L 160.201473468791 172.099485455343  L 160.691401841836 175.459994152902  L 158.450729425522 175.577976903961  Z M 135.213126735857 175.577976903961  L 132.973454173366 175.459994152902  L 133.463382546411 172.099485455343  L 135.703055108902 172.21646835258  L 135.213126735857 175.577976903961  Z M 171.106879111241 174.638114310773  L 170.131021780441 171.315600058471  L 172.345697997369 171.081634263997  L 173.321555328168 174.403148662476  L 171.106879111241 174.638114310773  Z M 122.557976903961 174.638114310773  L 120.344300540856 174.403148662476  L 121.320157871656 171.081634263997  L 123.534834088583 171.315600058471  L 122.557976903961 174.638114310773  Z M 183.578055839789 173.039348048531  L 182.123268527993 169.781824294694  L 184.294951030551 169.432875310627  L 185.749738342347 172.690399064464  L 183.578055839789 173.039348048531  Z M 110.088799883058 173.039348048531  L 107.9171173805 172.690399064464  L 109.370904838474 169.432875310627  L 111.543587194854 169.781824294694  L 110.088799883058 173.039348048531  Z M 195.768273644204 170.79567607075  L 193.845554743458 167.626139453296  L 195.958245870487 167.164206987283  L 197.880964771232 170.333743604736  L 195.768273644204 170.79567607075  Z M 97.8975822248208 170.79567607075  L 95.7848910977925 170.333743604736  L 97.7076099985379 167.164206987283  L 99.8203011255662 167.626139453296  L 97.8975822248208 170.79567607075  Z M 207.587545680456 167.922096184768  L 205.210893144277 164.865543049262  L 207.248595234615 164.294626516591  L 209.625247770794 167.351179652098  L 207.587545680456 167.922096184768  Z M 86.080309896214 167.923096038591  L 84.0416079520537 167.35217950592  L 86.41726063441 164.295626370414  L 88.4559625785703 164.866542903084  L 86.080309896214 167.923096038591  Z M 218.941885689226 164.441605028505  L 216.131296594065 161.521032012864  L 218.079011840374 160.846130682649  L 220.889600935536 163.76670369829  L 218.941885689226 164.441605028505  Z M 74.7209706183307 164.44360473615  L 72.772255518199 163.768703405935  L 75.5838444671831 160.848130390294  L 77.531559713492 161.523031720509  L 74.7209706183307 164.44360473615  Z M 229.745306241777 160.38219850899  L 226.520777664084 157.618602543488  L 228.362508405204 156.845715538664  L 231.587036982897 159.608311650343  L 229.745306241777 160.38219850899  Z M 63.9125507966671 160.38219850899  L 62.0708200555473 159.608311650344  L 65.2953486332406 156.845715538664  L 67.1370793743604 157.618602543488  L 63.9125507966671 160.38219850899  Z M 239.91981873995 155.770872679433  L 236.307346879111 153.187250401988  L 238.030095015348 152.319377284023  L 241.642566876188 154.902999561468  L 239.91981873995 155.770872679433  Z M 53.7360385908491 155.770872679433  L 52.0132904546119 154.902999561468  L 55.6267621692734 152.319377284023  L 57.3495103055109 153.187250401988  L 53.7360385908491 155.770872679433  Z M 249.387434585587 150.644622131267  L 245.413015640988 148.259970764508  L 247.002783218828 147.306110217804  L 250.977202163426 149.690761584564  L 249.387434585587 150.644622131267  Z M 44.2684227452125 150.644622131267  L 42.6786551673731 149.690761584564  L 46.6530741119718 147.306110217804  L 48.2428416898113 148.259970764508  L 44.2684227452125 150.644622131267  Z M 258.074164595819 145.043441017395  L 253.767794182137 142.875757930127  L 255.212582955708 141.84190907762  L 259.51895336939 144.010592018711  L 258.074164595819 145.043441017395  Z M 35.5806928811576 145.043441017395  L 34.1359041075866 144.010592018711  L 38.4422745212687 141.84190907762  L 39.8870632948399 142.875757930127  L 35.5806928811576 145.043441017395  Z M 265.920017541295 139.007323490718  L 261.314690834673 137.072606344102  L 262.60450226575 135.967767870194  L 267.209828972372 137.90248501681  L 265.920017541295 139.007323490718  Z M 27.7458383277296 139.007323490718  L 26.4560268966525 137.90248501681  L 31.0613536032743 135.967767870194  L 32.3511650343514 137.072606344102  L 27.7458383277296 139.007323490718  Z M 272.854003800614 132.590261657652  L 267.985715538664 130.903508259026  L 269.109551235199 129.735678994299  L 273.978839350972 131.422432392925  L 272.854003800614 132.590261657652  Z M 20.8128519222334 132.58926180383  L 19.6880163718754 131.421432539102  L 24.5573044876478 129.734679140476  L 25.6811401841833 130.902508405204  L 20.8128519222334 132.58926180383  Z M 278.833129659406 125.831249817278  L 273.73387516445 124.405458266335  L 274.683736295863 123.182637041368  L 279.78299079082 124.608428592311  L 278.833129659406 125.831249817278  Z M 14.8367256249087 125.828250255811  L 13.8868644934951 124.605429030843  L 18.9861189884518 123.179637479901  L 19.9359801198655 124.402458704868  L 14.8367256249087 125.828250255811  Z M 283.798403742143 118.782280368367  L 278.516175997661 117.628449057155  L 279.286063441017 116.360634410174  L 284.568291185499 117.514465721386  L 283.798403742143 118.782280368367  Z M 9.86745212688174 118.782280368367  L 9.09756468352566 117.514465721386  L 14.3797924280072 116.360634410174  L 15.1496798713636 117.628449057155  L 9.86745212688174 118.782280368367  Z M 287.726829410905 111.503344540272  L 282.296623300687 110.630472153194  L 282.878538225405 109.330662183891  L 288.308744335623 110.203534570969  L 287.726829410905 111.503344540272  Z M 5.93902645812 111.500344978804  L 5.35711153340139 110.200535009501  L 10.7873176436192 109.327662622424  L 11.3692325683378 110.627472591726  L 5.93902645812 111.500344978804  Z M 290.583411781903 104.047434585587  L 285.046221312673 103.461520245578  L 285.437164157287 102.132714515422  L 290.974354626517 102.71862885543  L 290.583411781903 104.047434585587  Z M 3.08344394094411 104.047434585587  L 2.69250109633072 102.71862885543  L 8.22969156556042 102.132714515422  L 8.62063441017381 103.461520245578  L 3.08344394094411 104.047434585587  Z M 292.340154948107 96.4725420260197  L 286.74097354188 96.1785850021927  L 286.940944306388 94.8347814646982  L 292.540125712615 95.1277386347026  L 292.340154948107 96.4725420260197  Z M 1.32270135945032 96.4735418798421  L 1.12273059494214 95.1287384885251  L 6.72191200116913 94.8357813185207  L 6.92188276567731 96.1795848560152  L 1.32270135945032 96.4735418798421  Z M 293.000058470984 88.8296594065195  L 287.380879988306 88.8296594065195  L 287.380879988306 87.4798567460898  L 293.000058470984 87.4798567460898  L 293.000058470984 88.8296594065195  Z M 6.28197631925127 88.8296594065195  L 0.662797836573418 88.8296594065195  L 0.662797836573418 87.4798567460898  L 6.28197631925127 87.4798567460898  L 6.28197631925127 88.8296594065195  Z M 286.940944306388 81.4757345417337  L 286.74097354188 80.1309311504166  L 292.340154948107 79.8369741265897  L 292.540125712615 81.1817775179068  L 286.940944306388 81.4757345417337  Z M 6.72191200116913 81.4747346879112  L 1.12273059494214 81.1807776640842  L 1.32270135945032 79.8359742727671  L 6.92188276567731 80.1299312965941  L 6.72191200116913 81.4747346879112  Z M 285.434164595819 74.1728022218974  L 285.043221751206 72.843996491741  L 290.580412220435 72.2580821517322  L 290.971355065049 73.5868878818886  L 285.434164595819 74.1728022218974  Z M 8.22669200409291 74.1728022218974  L 2.68950153486321 73.5868878818886  L 3.0804443794766 72.2580821517322  L 8.6176348487063 72.843996491741  L 8.22669200409291 74.1728022218974  Z M 282.875538663938 66.9738546996053  L 282.293623739219 65.6740447303026  L 287.723829849437 64.8011723432247  L 288.305744774156 66.1009823125274  L 282.875538663938 66.9738546996053  Z M 10.7843180821517 66.976854261073  L 5.35411197193366 66.1039818739951  L 5.93602689665249 64.8041719046923  L 11.3662330068703 65.6770442917702  L 10.7843180821517 66.976854261073  Z M 279.284063733372 59.9438824733226  L 278.514176290016 58.6760678263412  L 283.796404034498 57.5222365151294  L 284.566291477854 58.7900511621108  L 279.284063733372 59.9438824733226  Z M 14.3777927203623 59.9438824733226  L 9.09556497588051 58.7900511621108  L 9.86545241923682 57.5222365151294  L 15.1476801637184 58.6760678263412  L 14.3777927203623 59.9438824733226  Z M 274.681736588218 53.124879403596  L 273.731875456804 51.9020581786289  L 278.831129951761 50.476266627686  L 279.780991083175 51.6990878526532  L 274.681736588218 53.124879403596  Z M 18.9841192808065 53.1278789650636  L 13.8848647858497 51.7020874141208  L 14.8347259172633 50.4792661891536  L 19.9339804122201 51.9050577400965  L 18.9841192808065 53.1278789650636  Z M 269.107551527554 46.5718374506651  L 267.983715831019 45.4030083321152  L 272.852004092968 43.7162549334893  L 273.976839643327 44.8840841982167  L 269.107551527554 46.5718374506651  Z M 24.5553047800024 46.5728373044877  L 19.68601666423 44.8850840520392  L 20.8108522145881 43.7172547873118  L 25.6791404765381 45.4040081859378  L 24.5553047800024 46.5728373044877  Z M 262.603502411928 40.3357491594796  L 261.31369098085 39.2299108317498  L 265.919017687472 37.2951936851338  L 267.20882911855 38.4010320128637  L 262.603502411928 40.3357491594796  Z M 31.0603537494515 40.3357491594796  L 26.4550270428297 38.4010320128637  L 27.7448384739068 37.2951936851338  L 32.3501651805288 39.2299108317498  L 31.0603537494515 40.3357491594796  Z M 255.216582370998 34.4626078058764  L 253.771793597427 33.4287589533694  L 258.078164011109 31.2610758661015  L 259.52295278468 32.2949247186084  L 255.216582370998 34.4626078058764  Z M 38.4462739365586 34.4626078058764  L 34.1399035228762 32.2949247186084  L 35.5846922964474 31.2610758661015  L 39.8910627101295 33.4287589533694  L 38.4462739365586 34.4626078058764  Z M 247.005782780295 28.9994065195148  L 245.416015202455 28.0445461189885  L 249.390434147054 25.6598947522293  L 250.980201724894 26.613755298933  L 247.005782780295 28.9994065195148  Z M 46.6560736734391 28.9994065195147  L 42.6816547288406 26.613755298933  L 44.2714223066798 25.6598947522293  L 48.2458412512785 28.0445461189885  L 46.6560736734391 28.9994065195147  Z M 238.034094430638 23.9811401841837  L 236.310346440579 23.114266920041  L 239.92381815524 20.5296447887736  L 241.646566291477 21.3975179067389  L 238.034094430638 23.9811401841837  Z M 55.6307615845633 23.9811401841837  L 52.0162900160792 21.3975179067389  L 53.740038006139 20.5296447887736  L 57.3535097208007 23.114266920041  L 55.6307615845633 23.9811401841837  Z M 228.365507966671 19.4568016371877  L 226.523777225551 18.6829147785413  L 229.748305803245 15.9193188130391  L 231.590036544364 16.6932056716855  L 228.365507966671 19.4568016371877  Z M 65.2983481947081 19.4638006139454  L 62.073819617015 16.7002046484432  L 63.9155503581349 15.9263177897968  L 67.1400789358279 18.689913755299  L 65.2983481947081 19.4638006139454  Z M 218.079011840374 15.4653851776056  L 216.131296594065 14.7904838473908  L 218.941885689227 11.8699108317497  L 220.889600935536 12.5448121619647  L 218.079011840374 15.4653851776056  Z M 75.5828446133605 15.4603859084929  L 72.772255518199 12.539812892852  L 74.7199707645081 11.8649115626371  L 77.5305598596697 14.785484578278  L 75.5828446133605 15.4603859084929  Z M 207.243595965502 12.0098903669055  L 205.206893728987 11.4399736880573  L 207.582546411343 8.38242069872825  L 209.620248501681 8.95333723139896  L 207.243595965502 12.0098903669055  Z M 86.4122613652973 12.0088905130829  L 84.0376085367636 8.95233737757638  L 86.0753106271013 8.38142084490568  L 88.4509633094576 11.4389738342347  L 86.4122613652973 12.0088905130829  Z M 195.954246455197 9.13931004239146  L 193.841555328168 8.67737757637775  L 195.764274228914 5.50784095892413  L 197.876965355942 5.9697734249379  L 195.954246455197 9.13931004239146  Z M 97.7036105832478 9.13931004239146  L 95.7808916825024 5.9697734249379  L 97.8935828095307 5.50784095892413  L 99.8163017102763 8.67737757637775  L 97.7036105832478 9.13931004239146  Z M 184.289951761438 6.87164157286947  L 182.11826925888 6.52269258880278  L 183.573056570676 3.26416898114309  L 185.744739073235 3.61311796520971  L 184.289951761438 6.87164157286947  Z M 109.365905569361 6.87164157286947  L 107.912118111387 3.61311796520971  L 110.083800613945 3.26416898114309  L 111.538587925741 6.52269258880278  L 109.365905569361 6.87164157286947  Z M 172.341698582078 5.22088291185497  L 170.126022511328 4.98691711738047  L 171.102879695951 1.66540271890074  L 173.317555912878 1.89936851337524  L 172.341698582078 5.22088291185497  Z M 121.316158456366 5.22088291185497  L 120.339301271743 1.89936851337524  L 122.553977488671 1.66540271890074  L 123.530834673293 4.98691711738047  L 121.316158456366 5.22088291185497  Z M 160.200473614969 4.209030843444  L 157.959801198655 4.09204794620672  L 158.4497295717 0.731539248647891  L 160.690401988013 0.84852214588517  L 160.200473614969 4.209030843444  Z M 133.461382838766 4.21003069726646  L 132.971454465721 0.848522145885113  L 135.211127028212 0.731539248647834  L 135.701055401257 4.09204794620666  L 133.461382838766 4.21003069726646  Z M 147.959263265604 3.82508697558831  L 145.709592164888 3.82508697558831  L 145.709592164888 0.455579593626624  L 147.959263265604 0.455579593626624  L 147.959263265604 3.82508697558831  Z " fill-rule="nonzero" fill="#009fe9" stroke="none" transform="matrix(1 0 0 1 1486 319 )" />
  </g>
</svg>