<?xml version="1.0" encoding="utf-8"?>
<svg version="1.1" xmlns:xlink="http://www.w3.org/1999/xlink" width="66px" height="88px" xmlns="http://www.w3.org/2000/svg">
  <g transform="matrix(1 0 0 1 -1567 -311 )">
    <path d="M 65 87.1510744043268  L 0.588966525361684 28.1277035521123  C 0.876257857038581 28.0130536471277  1.16488232714528 27.8990703113581  1.45483993568178 27.7857535448034  L 0.588966525361684 27.0028680017542  C 0.876257857038581 26.8882180967695  1.16454904253783 26.7742347609999  1.4538400818592 26.6609179944453  L 0.588966525361684 25.878032451396  C 0.876257857038581 25.7633825464114  1.16488232714528 25.6493992106418  1.45483993568178 25.5360824440872  L 0.588966525361684 24.7531969010379  C 0.876257857038581 24.6385469960532  1.16454904253783 24.5245636602837  1.4538400818592 24.411246893729  L 0.588966525361684 23.6283613506798  C 0.876257857038581 23.5137114456951  1.16488232714528 23.3997281099255  1.45483993568178 23.2864113433709  L 0.588966525361684 22.5035258003216  C 0.876257857038581 22.388875895337  1.16454904253783 22.2748925595674  1.4538400818592 22.1615757930127  L 0.588966525361684 21.3786902499635  C 0.876257857038581 21.2640403449788  1.16454904253783 21.1500570092092  1.4538400818592 21.0367402426546  L 0.588966525361684 20.2538546996054  C 0.876257857038581 20.1392047946207  1.16488232714528 20.0252214588511  1.45483993568178 19.9119046922965  L 0.588966525361684 19.1290191492472  C 0.876257857038581 19.0143692442626  1.16454904253783 18.900385908493  1.4538400818592 18.7870691419383  L 0.588966525361684 18.0041835988891  C 0.876257857038581 17.8895336939044  1.16488232714528 17.7755503581348  1.45483993568178 17.6622335915802  L 0.588966525361684 16.8793480485309  C 0.876257857038581 16.7646981435463  1.16454904253783 16.6507148077767  1.4538400818592 16.5373980412221  L 0.588966525361684 15.7545124981728  C 0.876257857038581 15.6398625931882  1.16488232714528 15.5258792574186  1.45483993568178 15.4125624908639  L 0.588966525361684 14.6296769478147  C 0.876257857038581 14.51502704283  1.16454904253783 14.4010437070604  1.4538400818592 14.2877269405058  L 0.588966525361684 13.5048413974565  C 0.876257857038581 13.3901914924719  1.16488232714528 13.2762081567023  1.45483993568178 13.1628913901477  L 0.588966525361684 12.3800058470984  C 19.2862330068704 4.92709545388101  41.7069551235199 0.576731472007054  65 0.576731472007054  L 65 87.1510744043268  Z " fill-rule="nonzero" fill="#436ada" stroke="none" fill-opacity="0.501960784313725" transform="matrix(1 0 0 1 1567 311 )" />
  </g>
</svg>