<?xml version="1.0" encoding="utf-8"?>
<svg version="1.1" xmlns:xlink="http://www.w3.org/1999/xlink" width="119px" height="61px" xmlns="http://www.w3.org/2000/svg">
  <g transform="matrix(1 0 0 1 -1632 -362 )">
    <path d="M 111.621230814208 60.6384943721674  L 0.832428007601038 36.1570735272621  L 3.67701213272903 35.6621458851046  L 0.832428007601038 35.0332378307265  L 3.67701213272903 34.5383101885689  L 0.832428007601038 33.9094021341909  L 3.67901184037396 33.4094752229206  L 0.832428007601038 32.7795673147201  L 3.67701213272903 32.2846396725625  L 0.832428007601038 31.6557316181845  L 3.67901184037396 31.1558047069142  L 0.832428007601038 30.5258967987136  L 3.67701213272903 30.030969156556  L 0.832428007601038 29.402061102178  L 3.67901184037396 28.9021341909077  L 0.832428007601038 28.2722262827072  L 3.67701213272903 27.7772986405496  L 0.832428007601038 27.1483905861716  L 3.67901184037396 26.6484636749013  L 0.832428007601038 26.0185557667007  L 3.67701213272903 25.5236281245431  L 0.832428007601038 24.8947200701651  L 3.67901184037396 24.3947931588948  L 0.832428007601038 23.7648852506942  L 3.67701213272903 23.2699576085367  L 0.832428007601038 22.6410495541587  L 3.67901184037396 22.1411226428884  L 0.832428007601038 21.5112147346878  L 3.67701213272903 21.0162870925302  L 0.832428007601038 20.3873790381522  L 114.215851483701 0.668261950007263  C 117.248210617582 6.80199802045814  118.845613193411 13.545143054811  118.887168542611 20.3873790381522  C 118.887168542611 20.5760181260049  118.887168542611 20.7646572138575  118.887168542611 20.9532963017101  C 118.887168542611 21.1392691127027  118.887168542611 21.3252419236952  118.887168542611 21.5112147346878  C 118.887168542611 21.6971875456803  118.887168542611 21.8891594796081  118.887168542611 22.0781318520683  C 118.887168542611 22.2671042245285  118.887168542611 22.4500774740534  118.887168542611 22.6360502850459  C 118.887168542611 22.8220230960384  118.887168542611 23.0139950299662  118.887168542611 23.2019675486038  C 118.887168542611 23.3899400672414  118.887168542611 23.5739131705889  118.887168542611 23.7598859815814  C 118.887168542611 23.945858792574  118.887168542611 24.1378307265018  118.887168542611 24.3268030989619  C 118.887168542611 24.5157754714222  118.887168542611 24.698748720947  118.887168542611 24.8847215319396  C 118.887168542611 25.0706943429321  118.887168542611 25.2626662768599  118.887168542611 25.4506387954975  C 118.887168542611 25.6386113141351  118.887168542611 25.8225844174826  118.887168542611 26.0085572284751  C 118.887168542611 26.1945300394677  118.887168542611 26.3865019733955  118.887168542611 26.5754743458556  C 118.887168542611 26.7644467183158  118.887168542611 26.9474199678407  118.887168542611 27.1333927788333  C 118.887168542611 27.3193655898258  118.887168542611 27.5113375237536  118.887168542611 27.6993100423912  C 118.887168542611 27.8872825610288  118.887168542611 28.0712556643763  118.887168542611 28.2572284753688  C 118.887168542611 28.4432012863614  118.887168542611 28.6351732202892  118.887168542611 28.8241455927493  C 118.887168542611 29.0131179652095  118.887168542611 29.1960912147345  118.887168542611 29.3820640257269  C 118.887168542611 29.5680368367195  118.887168542611 29.7600087706473  118.887168542611 29.9479812892849  C 118.887168542611 30.1359538079225  118.887168542611 30.31992691127  118.887168542611 30.5058997222625  C 118.887168542611 30.691872533255  118.887168542611 30.8838444671828  118.887168542611 31.0728168396431  C 118.887168542611 31.2617892121032  118.887168542611 31.4447624616282  118.887168542611 31.6307352726207  C 118.887168542611 31.8167080836132  118.887168542611 32.008680017541  118.887168542611 32.1966525361786  C 118.887168542611 32.3846250548162  118.887168542611 32.5685981581637  118.887168542611 32.7545709691562  C 118.887168542611 32.9405437801487  118.887168542611 33.1325157140765  118.887168542611 33.3214880865368  C 118.887168542611 33.5104604589969  118.887168542611 33.6934337085219  118.887168542611 33.8794065195144  C 118.887168542611 34.0653793305069  118.887168542611 34.2573512644347  118.887168542611 34.4453237830723  C 118.887168542611 34.6332963017099  118.887168542611 34.8172694050574  118.887168542611 35.0032422160499  C 118.887168542611 35.1892150270425  118.887168542611 35.3811869609702  118.887168542611 35.5691594796078  C 118.887168542611 35.7571319982455  118.887168542611 35.9411051015929  118.887168542611 36.1270779125854  C 118.804582622039 44.8161918588174  116.287327570013 53.3080740110727  111.621230814208 60.6384943721674  Z " fill-rule="nonzero" fill="#cdd965" stroke="none" fill-opacity="0.501960784313725" transform="matrix(1 0 0 1 1632 362 )" />
  </g>
</svg>