<?xml version="1.0" encoding="utf-8"?>
<svg version="1.1" xmlns:xlink="http://www.w3.org/1999/xlink" width="115px" height="88px" xmlns="http://www.w3.org/2000/svg">
  <g transform="matrix(1 0 0 1 -1632 -311 )">
    <path d="M 1 87.1570735272622  L 1 16.3234293231984  L 0.832428007601038 0.582730594942234  C 54.6245636602835 0.582730594942234  99.9799327583685 22.1795731618184  114.215851483701 51.6982575646835  L 113.702926472738 51.7872445548896  C 113.87823417629 52.1311942698435  114.049209179944 52.4761438386201  114.215851483701 52.8220932612191  L 113.702926472738 52.9110802514252  C 113.87823417629 53.2550299663793  114.049209179944 53.5999795351557  114.215851483701 53.9459289577547  L 113.701926618915 54.0349159479608  C 113.877234322468 54.3788656629148  114.04854261073 54.7241485162989  114.215851483701 55.0707645081129  L 113.702926472738 55.159751498319  C 113.87823417629 55.503701213273  114.049209179944 55.8486507820495  114.215851483701 56.1946002046485  L 113.701926618915 56.2835871948546  C 113.877234322468 56.6275369098086  114.04854261073 56.9728197631926  114.215851483701 57.3194357550066  L 113.702926472738 57.4084227452128  C 113.87823417629 57.7523724601667  114.049209179944 58.0973220289432  114.215851483701 58.4432714515423  L 113.701926618915 58.5322584417484  C 113.877234322468 58.8762081567024  114.04854261073 59.2214910100864  114.215851483701 59.5681070019004  L 113.702926472738 59.6570939921065  C 113.87823417629 60.0010437070605  114.049209179944 60.345993275837  114.215851483701 60.691942698436  L 113.701926618915 60.7809296886421  C 113.877234322468 61.1248794035961  114.04854261073 61.4701622569801  114.215851483701 61.8167782487942  L 113.702926472738 61.9057652390002  C 113.87823417629 62.2497149539543  114.049209179944 62.5946645227308  114.215851483701 62.9406139453297  L 113.701926618915 63.0296009355359  C 113.877234322468 63.3735506504898  114.04854261073 63.7188335038738  114.215851483701 64.0654494956879  L 113.702926472738 64.154436485894  C 113.87823417629 64.498386200848  114.049209179944 64.8433357696244  114.215851483701 65.1892851922235  L 113.701926618915 65.2782721824296  C 113.877234322468 65.6222218973836  114.04854261073 65.9675047507676  114.215851483701 66.3141207425816  L 113.702926472738 66.4031077327878  C 113.87823417629 66.7470574477417  114.049209179944 67.0920070165182  114.215851483701 67.4379564391173  L 1 87.1570735272622  Z " fill-rule="nonzero" fill="#d95f5f" stroke="none" fill-opacity="0.501960784313725" transform="matrix(1 0 0 1 1632 311 )" />
  </g>
</svg>