<?xml version="1.0" encoding="utf-8"?>
<svg version="1.1" xmlns:xlink="http://www.w3.org/1999/xlink" width="67px" height="80px" xmlns="http://www.w3.org/2000/svg">
  <g transform="matrix(1 0 0 1 -1514 -323 )">
    <path d="M 1.02765092822665 79.8073936558982  C 0.860396272697244 78.2629216349858  0.776287201415471 76.7105752439824  0.775687764946724 75.1570735272621  C 0.775687764946724 75.1170793743604  0.775687764946724 75.0770852214588  0.775687764946724 75.0370910685572  C 0.775687764946724 75.0780850752814  0.775687764946724 75.1190790820055  0.775687764946724 75.1610729425523  C 0.776261627775739 76.7132181695204  0.860036250187022 78.2642168561538  1.0266510744043 79.8073936558982  Z M 0.785686303171815 74.3681888612781  L 0.778687326414229 74.3811869609706  C 0.778687326414229 74.267203625201  0.770688495833838 74.1502207279638  0.770688495833838 74.0342376845491  C 0.770688495833838 73.9182546411344  0.770688495833838 73.8222686741705  0.778687326414229 73.7342815377869  C 0.78668615699462 73.6462944014033  0.784686449349465 73.5833036105832  0.785686303172042 73.5073147200702  C 0.78668615699462 73.4313258295572  0.785686303172042 73.3353398625932  0.778687326414229 73.2493524338548  C 0.771688349656415 73.1633650051163  0.770688495833838 73.0263850314282  0.770688495833838 72.909402134191  C 0.770688495833838 72.7924192369538  0.770688495833838 72.6974331238124  0.778687326414229 72.6094459874288  C 0.78668615699462 72.5214588510452  0.784686449349465 72.4584680602252  0.785686303172042 72.3814793158896  C 0.78668615699462 72.304490571554  0.785686303172042 72.2095044584125  0.778687326414229 72.1235170296741  C 0.771688349656415 72.0375296009357  0.770688495833838 71.9005496272476  0.770688495833838 71.7825668761878  C 0.770688495833838 71.664584125128  0.770688495833838 71.5705978658092  0.778687326414229 71.4826107294256  C 0.78668615699462 71.394623593042  0.784686449349465 71.331632802222  0.785686303172042 71.2556439117089  C 0.78668615699462 71.1796550211959  0.785686303172042 71.0836690542319  0.778687326414229 70.9976816254934  C 0.771688349656415 70.911694196755  0.770688495833838 70.7747142230669  0.770688495833838 70.6577313258297  C 0.770688495833838 70.5407484285925  0.770688495833838 70.4457623154511  0.778687326414229 70.3577751790675  C 0.78668615699462 70.269788042684  0.784686449349465 70.2067972518639  0.785686303172042 70.1318082151734  C 0.78668615699462 70.0568191784828  0.785686303172042 69.9588335038738  0.778687326414229 69.8728460751353  C 0.771688349656415 69.7868586463968  0.770688495833838 69.6498786727088  0.770688495833838 69.5328957754716  C 0.770688495833838 69.4159128782343  0.770688495833838 69.320926765093  0.778687326414229 69.2329396287094  C 0.78668615699462 69.1449524923258  0.784686449349465 69.0819617015057  0.785686303172042 69.0059728109927  C 0.78668615699462 68.9299839204796  0.785686303172042 68.8339979535157  0.778687326414229 68.7480105247773  C 0.771688349656415 68.6620230960388  0.770688495833838 68.5250431223507  0.770688495833838 68.4080602251135  C 0.770688495833838 68.2910773278763  0.770688495833838 68.1960912147349  0.778687326414229 68.1081040783513  C 0.78668615699462 68.0201169419677  0.784686449349465 67.9571261511477  0.785686303172042 67.8821371144571  C 0.78668615699462 67.8071480777666  0.785686303172042 67.7091624031576  0.778687326414229 67.6231749744191  C 0.771688349656415 67.5371875456806  0.770688495833838 67.4002075719926  0.770688495833838 67.2832246747553  C 0.770688495833838 67.1662417775182  0.770688495833838 67.0712556643768  0.778687326414229 66.9832685279932  C 0.78668615699462 66.8952813916096  0.784686449349465 66.8322906007895  0.785686303172042 66.7563017102765  C 0.78668615699462 66.6803128197635  0.785686303172042 66.5843268527995  0.778687326414229 66.498339424061  C 0.771688349656415 66.4123519953226  0.770688495833838 66.2753720216345  0.770688495833838 66.1583891243973  C 0.770688495833838 66.0414062271601  0.770688495833838 65.9464201140187  0.778687326414229 65.8584329776351  C 0.78668615699462 65.7704458412515  0.784686449349465 65.7074550504315  0.785686303172042 65.632466013741  C 0.78668615699462 65.5574769770504  0.785686303172042 65.4604911562639  0.778687326414229 65.3745037275255  L 0.778687326414229 65.3645051893001  C 0.778687326414229 65.2555211226432  0.771688349656415 65.1435374945186  0.771688349656415 65.0325537202166  C 0.771688349656415 64.9215699459147  0.771688349656415 64.820584709838  0.779687180236806 64.7325975734544  C 0.787686010817197 64.6446104370709  0.785686303172042 64.5816196462508  0.78668615699462 64.5056307557377  C 0.787686010817197 64.4296418652247  0.78668615699462 64.3336558982608  0.779687180236806 64.2476684695223  C 0.772688203478992 64.1616810407839  0.771688349656415 64.0247010670957  0.771688349656415 63.9077181698585  C 0.771688349656415 63.7907352726214  0.771688349656415 63.69574915948  0.779687180236806 63.6077620230964  C 0.787686010817197 63.5197748867128  0.785686303172042 63.4567840958927  0.78668615699462 63.3817950592022  C 0.787686010817197 63.3068060225117  0.78668615699462 63.2098202017252  0.779687180236806 63.1238327729868  L 0.779687180236806 63.1138342347614  C 0.779687180236806 63.0048501681044  0.772688203478992 62.8928665399799  0.772688203478992 62.7818827656779  C 0.772688203478992 62.6708989913759  0.772688203478992 62.5699137552993  0.780687034059156 62.4819266189157  C 0.788685864639547 62.3939394825321  0.78668615699462 62.3309486917121  0.787686010817197 62.2549598011991  C 0.788685864639547 62.178970910686  0.787686010817197 62.082984943722  0.780687034059156 61.9969975149836  C 0.773688057301342 61.9110100862451  0.772688203478992 61.774030112557  0.772688203478992 61.6570472153198  C 0.772688203478992 61.5400643180826  0.772688203478992 61.4450782049412  0.780687034059156 61.3570910685576  C 0.788685864639547 61.2691039321741  0.78668615699462 61.206113141354  0.787686010817197 61.1301242508409  C 0.788685864639547 61.0541353603279  0.787686010817197 60.958149393364  0.780687034059156 60.8721619646255  L 0.780687034059156 60.8621634264001  C 0.780687034059156 60.7531793597432  0.773688057301342 60.6411957316187  0.773688057301342 60.5302119573166  C 0.773688057301342 60.4192281830146  0.773688057301342 60.3182429469381  0.781686887881733 60.2302558105545  C 0.789685718462124 60.1422686741709  0.787686010817197 60.0792778833508  0.788685864639547 60.0032889928378  C 0.789685718462124 59.9273001023248  0.788685864639547 59.8313141353608  0.781686887881733 59.7453267066223  C 0.77468791112392 59.6593392778839  0.773688057301342 59.5223593041958  0.773688057301342 59.4053764069585  C 0.794413831327574 53.2636748472495  2.07993806204331 47.1920659640775  4.55013594503748 41.5689840666574  C 7.19463533558383 35.6250664792119  10.810201411452 30.1628584776785  15.2485718462212 25.4063470252892  C 20.1973104876874 20.0859605440158  25.7954088745212 15.4089534129094  31.9111357988597 11.485382254057  C 38.7529840288664 7.07518262506449  46.0146815471562 3.3532361016463  53.5899663791843 0.374006724163621  L 66.1561292208739 11.7433445402724  C 47.0039292501097 17.4825054816552  30.7823008332116 26.2492237976909  19.2429878672706 37.0996374799011  C 7.40771816985807 48.2280105247776  1.02565122058149 61.1151264435029  0.785686303171815 74.3681888612781  Z " fill-rule="nonzero" fill="#309ae3" stroke="none" fill-opacity="0.752941176470588" transform="matrix(1 0 0 1 1514 323 )" />
  </g>
</svg>