<?xml version="1.0" encoding="utf-8"?>
<svg version="1.1" xmlns:xlink="http://www.w3.org/1999/xlink" width="188px" height="87px" xmlns="http://www.w3.org/2000/svg">
  <g transform="matrix(1 0 0 1 -1556 -382 )">
    <path d="M 76.832428007601 86.9917175851488  C 47.6476947814647 86.9927174389709  20.9565969887442 80.62464844321  0.352609267650905 70.0961876918579  L 1.28047361496851 69.4412834380939  C 0.969852360766026 69.2859728109927  0.660564244993566 69.1296623300688  0.352609267650905 68.9723519953224  L 1.28147346879109 68.3174477415583  C 0.970852214588831 68.162137114457  0.661230814208693 68.0054933489257  0.352609267650905 67.8475164449642  L 1.28047361496851 67.1926121912002  C 0.969852360766026 67.0373015640989  0.660564244993566 66.8809910831751  0.352609267650905 66.7236807484287  L 1.28147346879109 66.0687764946646  C 0.970852214588831 65.9134658675634  0.661230814208693 65.7568221020321  0.352609267650905 65.5988451980705  L 1.28047361496851 64.9439409443065  C 0.969852360766026 64.7886303172053  0.660564244993566 64.6323198362815  0.352609267650905 64.475009501535  L 1.28047361496851 63.820105247771  C 0.969852360766026 63.6647946206697  0.660564244993566 63.5084841397459  0.352609267650905 63.3511738049995  L 1.28147346879109 62.6962695512354  C 0.970852214588831 62.5409589241341  0.661230814208693 62.3843151586028  0.352609267650905 62.2263382546413  L 1.28047361496851 61.5714340008773  C 0.969852360766026 61.416123373776  0.660564244993566 61.2598128928522  0.352609267650905 61.1025025581058  L 1.28147346879109 60.4475983043417  C 0.970852214588831 60.2922876772404  0.661230814208693 60.1356439117091  0.352609267650905 59.9776670077476  L 1.28047361496851 59.3227627539836  C 0.969852360766026 59.1674521268823  0.660564244993566 59.0111416459585  0.352609267650905 58.853831311212  L 1.28147346879109 58.198927057448  C 0.970852214588831 58.0436164303468  0.661230814208693 57.8869726648154  0.352609267650905 57.7289957608539  L 1.28047361496851 57.0740915070899  C 0.969852360766026 56.9187808799886  0.660564244993566 56.7624703990648  0.352609267650905 56.6051600643183  L 1.28147346879109 55.9502558105543  C 0.970852214588831 55.794945183453  0.661230814208693 55.6383014179217  0.352609267650905 55.4803245139602  L 1.28047361496851 54.8254202601962  C 0.969852360766026 54.6701096330949  0.660564244993566 54.5137991521711  0.352609267650905 54.3564888174246  L 76.832428007601 0.417374652828812  L 187.623230521853 24.9287911124108  C 187.423259757345 25.2620757199243  187.216290016079 25.5910276275401  187.002321298056 25.9156468352583  L 187.623230521853 26.0526268089463  C 187.423259757345 26.3859114164599  187.216290016079 26.7148633240757  187.002321298056 27.0394825317939  L 187.623230521853 27.176462505482  C 187.423259757345 27.5097471129956  187.216290016079 27.8390323052189  187.002321298056 28.1643180821521  L 187.623230521853 28.3012980558401  C 187.423259757345 28.6345826633537  187.216290016079 28.9635345709696  187.002321298056 29.2881537786877  L 187.623230521853 29.4251337523758  C 187.423259757345 29.7584183598893  187.216290016079 30.0877035521127  187.002321298056 30.4129893290458  L 187.623230521853 30.5499693027339  C 187.423259757345 30.8832539102474  187.216290016079 31.2122058178633  187.002321298056 31.5368250255814  L 187.623230521853 31.6738049992695  C 187.423259757345 32.007089606783  187.216290016079 32.3363747990064  187.002321298056 32.6616605759396  L 187.623230521853 32.7986405496276  C 187.423259757345 33.1319251571412  187.216290016079 33.460877064757  187.002321298056 33.7854962724752  L 187.623230521853 33.9224762461632  C 187.423259757345 34.2557608536768  187.216290016079 34.5850460459002  187.002321298056 34.9103318228333  L 187.623230521853 35.0473117965214  C 187.423259757345 35.3805964040349  187.216290016079 35.7095483116508  187.002321298056 36.034167519369  L 187.623230521853 36.171147493057  C 187.423259757345 36.5044321005706  187.216290016079 36.8337172927939  187.002321298056 37.1590030697271  L 187.623230521853 37.2959830434151  C 187.423259757345 37.6292676509287  187.216290016079 37.9582195585446  187.002321298056 38.2828387662627  L 187.623230521853 38.4198187399508  C 187.423259757345 38.7531033474643  187.216290016079 39.0823885396877  187.002321298056 39.4076743166208  L 187.623230521853 39.5446542903089  C 187.423259757345 39.8779388978224  187.216290016079 40.2068908054383  187.002321298056 40.5315100131564  L 187.623230521853 40.6684899868445  C 170.999660868294 67.7085367636315  127.671995322321 86.9917175851488  76.832428007601 86.9917175851488  Z " fill-rule="nonzero" fill="#87d051" stroke="none" fill-opacity="0.501960784313725" transform="matrix(1 0 0 1 1556 382 )" />
  </g>
</svg>