<?xml version="1.0" encoding="utf-8"?>
<svg version="1.1" xmlns:xlink="http://www.w3.org/1999/xlink" width="115px" height="67px" xmlns="http://www.w3.org/2000/svg">
  <g transform="matrix(1 0 0 1 -1632 -311 )">
    <path d="M 113.722923549189 66.3881099254494  L 113.730922379769 66.3991083174975  C 106.48998099693 52.2081830141792  91.5521648881743 39.4570472153194  71.6690717731326 30.4953574038884  C 51.1110773278763 21.2297120304049  26.6166583832774 16.3314281537787  1 16.3314281537787  L 1 0.582730594942234  C 13.7317685107093 0.556691734145602  26.6003566911347 1.84177502001529  39.2398128928521 4.41816985820788  C 50.6443243216186 6.71308535225859  61.7538345020348 10.2861195566476  72.3579710568631 15.0696126297325  C 81.6531430500584 19.2118721888654  90.3079013602896 24.6626359423896  98.0592135652682 31.2562461628417  C 104.775277740145 36.9042178098255  110.272848860801 43.8587592361413  114.217851191346 51.697257710861  L 113.681929542465 51.7902441163573  C 113.752919163865 51.930223651513  113.827908200555 52.0712030404912  113.900897529601 52.2071831603567  L 113.900897529601 52.215181990937  C 114.005882180968 52.4151527554451  114.114866247625 52.6151235199532  114.213851776056 52.8220932612192  L 113.677930127174 52.9150796667155  C 113.748919748575 53.0540593480486  113.823908785266 53.1960385908494  113.896898114311 53.3320187107149  C 113.996883496565 53.5219909369976  114.11286653998 53.7379593626663  114.213851776056 53.9469288115773  L 113.677930127174 54.0409150708961  C 113.748919748575 54.1798947522292  113.823908785266 54.32187399503  113.896898114311 54.4578541148955  C 113.996883496565 54.6478263411782  114.11286653998 54.863794766847  114.213851776056 55.072764215758  L 113.677930127174 55.1657506212542  C 113.748919748575 55.3057301564099  113.823908785266 55.4467095453882  113.896898114311 55.5826896652537  L 113.901897383424 55.592688203479  C 114.001882765678 55.7926589679872  114.115866101447 55.9926297324952  114.213851776056 56.1926004970034  L 113.677930127174 56.2865867563222  C 113.748919748575 56.4265662914779  113.823908785266 56.5675456804561  113.896898114311 56.7035258003216  L 113.901897383424 56.713524338547  C 114.001882765678 56.9134951030551  114.115866101447 57.1134658675632  114.213851776056 57.3134366320713  L 113.677930127174 57.4064230375677  C 113.748919748575 57.5454027189008  113.823908785266 57.6873819617015  113.896898114311 57.823362081567  C 113.996883496565 58.0133343078497  114.11286653998 58.2293027335185  114.213851776056 58.4382721824295  L 113.677930127174 58.5322584417483  C 113.748919748575 58.6712381230814  113.823908785266 58.8132173658822  113.896898114311 58.9491974857477  C 113.996883496565 59.1391697120304  114.11286653998 59.3551381376992  114.213851776056 59.5641075866101  L 113.677930127174 59.6570939921064  C 113.748919748575 59.7970735272621  113.823908785266 59.9380529162403  113.896898114311 60.0740330361058  L 113.901897383424 60.0840315743312  C 114.001882765678 60.2840023388393  114.115866101447 60.4839731033474  114.213851776056 60.6839438678556  L 113.677930127174 60.7779301271744  C 113.748919748575 60.9169098085075  113.823908785266 61.0568893436632  113.895898260488 61.1928694635287  L 113.895898260488 61.2008682941091  C 114.001882765678 61.4008390586171  114.110866832335 61.6008098231252  114.208852506944 61.8097792720362  L 113.672930858062 61.9027656775325  C 113.745920187107 62.0467446279783  113.826908346733 62.2027218242947  113.891898845198 62.3197047215319  C 113.999883058033 62.51967548604  114.109866978512 62.728644934951  114.208852506944 62.9336149685718  L 113.672930858062 63.0276012278906  C 113.743920479462 63.1655810554012  113.818909516153 63.3085601520245  113.886899576086 63.4335418798421  C 113.995883642742 63.6335126443502  114.107867270867 63.8484812161964  114.208852506943 64.0584505189299  L 113.672930858062 64.1514369244262  C 113.743920479462 64.2914164595819  113.818909516153 64.4323958485601  113.891898845198 64.5683759684256  C 113.991884227452 64.7583481947083  114.107867270867 64.9733167665545  114.208852506943 65.1822862154655  L 113.672930858062 65.2762724747843  C 113.741920771817 65.4112527408273  113.81391024704 65.5472328606928  113.88489986844 65.6762140038005  C 113.99488378892 65.8831837450664  114.106867417044 66.0931530477999  114.208852506943 66.304122204356  L 113.722923549189 66.3881099254494  Z " fill-rule="nonzero" fill="#d95f5f" stroke="none" fill-opacity="0.752941176470588" transform="matrix(1 0 0 1 1632 311 )" />
  </g>
</svg>