<?xml version="1.0" encoding="utf-8"?>
<svg version="1.1" xmlns:xlink="http://www.w3.org/1999/xlink" width="289px" height="176px" xmlns="http://www.w3.org/2000/svg">
  <g transform="matrix(1 0 0 1 -1488 -319 )">
    <path d="M 145.961262973249 175.85693612045  L 143.711591872533 175.85693612045  L 143.711591872533 169.107922818301  L 145.961262973249 169.107922818301  L 145.961262973249 175.85693612045  Z M 193.768273644204 170.798675632218  L 189.921835988891 164.458602543488  L 192.034527115919 163.997669931297  L 195.880964771232 170.336743166204  L 193.768273644204 170.798675632218  Z M 95.897582224821 170.798675632218  L 93.7848910977928 170.336743166204  L 97.6303288992838 163.997669931297  L 99.7440198801346 164.458602543488  L 95.897582224821 170.798675632218  Z M 237.924818009063 155.772872387078  L 230.69787457974 150.604627978366  L 232.420622715977 149.736754860401  L 239.647566145301 154.904999269113  L 237.924818009063 155.772872387078  Z M 51.741037859962 155.771872533255  L 50.0172898699022 154.90399941529  L 57.245233153048 149.735755006578  L 58.9679812892853 150.603628124543  L 51.741037859962 155.771872533255  Z M 270.853003946791 132.58926180383  L 261.115427569069 129.216754860401  L 262.240263119427 128.047925741851  L 271.977839497149 131.421432539103  L 270.853003946791 132.58926180383  Z M 18.8118520684111 132.58926180383  L 17.687016518053 131.421432539103  L 27.4245928957755 128.047925741851  L 28.5484285923112 129.2167548604  L 18.8118520684111 132.58926180383  Z M 288.582411928081 104.049434293232  L 277.510030697267 102.877605613214  L 277.90097354188 101.548799883058  L 288.973354772694 102.720628563076  L 288.582411928081 104.049434293232  Z M 1.08244408712198 104.048434439409  L 0.692501096330943 102.719628709253  L 11.7648823271452 101.547800029235  L 12.1558251717586 102.876605759392  L 1.08244408712198 104.048434439409  Z M 277.901973395703 74.7627159771963  L 277.510030697267 73.4339102470399  L 288.583411781903 72.2620815670223  L 288.974354626517 73.5908872971788  L 277.901973395703 74.7627159771963  Z M 11.7658821809678 74.7637158310189  L 0.692501096330943 73.5918871510013  L 1.08344394094433 72.2630814208449  L 12.1568250255812 73.4349101008625  L 11.7658821809678 74.7637158310189  Z M 262.24126297325 48.2645899722263  L 261.116427422891 47.0957608536764  L 270.854003800614 43.723253910247  L 271.978839350972 44.8910831749744  L 262.24126297325 48.2645899722263  Z M 27.4255927495981 48.269589241339  L 17.6880163718756 44.8960824440871  L 18.8128519222337 43.7282531793597  L 28.5494284461338 47.100760122789  L 27.4255927495981 48.269589241339  Z M 232.4216225698 26.5827598304342  L 230.698874433562 25.7148867124689  L 237.925817862886 20.5466423037568  L 239.648565999123 21.4145154217219  L 232.4216225698 26.5827598304342  Z M 57.2462330068702 26.5837596842566  L 50.0182897237246 21.4155152755445  L 51.7420377137844 20.5476421575793  L 58.9689811431076 25.7158865662914  L 57.2462330068702 26.5837596842566  Z M 192.035526969741 12.3238444671831  L 189.922835842713 11.8619120011694  L 193.769273498026 5.52183891243965  L 195.881964625055 5.98377137845341  L 192.035526969741 12.3238444671831  Z M 97.6313287531061 12.3238444671831  L 93.7858909516151 5.98377137845341  L 95.8985820786433 5.52183891243965  L 99.7450197339567 11.8619120011694  L 97.6313287531061 12.3238444671831  Z M 145.963262680894 7.21259172635575  L 143.713591580178 7.21259172635575  L 143.713591580178 0.463578424206901  L 145.963262680894 0.463578424206901  L 145.963262680894 7.21259172635575  Z " fill-rule="nonzero" fill="#009fe9" stroke="none" transform="matrix(1 0 0 1 1488 319 )" />
  </g>
</svg>