<?xml version="1.0" encoding="utf-8"?>
<svg version="1.1" xmlns:xlink="http://www.w3.org/1999/xlink" width="119px" height="130px" xmlns="http://www.w3.org/2000/svg">
  <g transform="matrix(1 0 0 1 -1514 -323 )">
    <path d="M 42.3556088291184 129.096187691858  C 16.9243268527991 116.104087121766  0.778687326414229 96.7679140476538  0.778687326414229 75.1570735272621  C 0.778687326414229 74.9691010086245  0.778687326414229 74.7821283438094  0.778687326414229 74.5941558251718  C 0.778687326414229 74.4061833065342  0.778687326414229 74.2202104955416  0.778687326414229 74.0332378307266  C 0.778687326414229 73.8462651659115  0.778687326414229 73.6582926472739  0.778687326414229 73.4703201286362  C 0.778687326414229 73.2823476099986  0.778687326414229 73.0963747990061  0.778687326414229 72.909402134191  C 0.778687326414229 72.722429469376  0.778687326414229 72.5334570969158  0.778687326414229 72.3464844321007  C 0.778687326414229 72.1595117672856  0.778687326414229 71.9725391024705  0.778687326414229 71.7845665838329  C 0.778687326414229 71.5965940651952  0.778687326414229 71.4096214003802  0.778687326414229 71.2216488817426  C 0.778687326414229 71.0336763631049  0.778687326414229 70.8477035521124  0.778687326414229 70.6607308872973  C 0.778687326414229 70.4737582224823  0.778687326414229 70.2847858500221  0.778687326414229 70.097813185207  C 0.778687326414229 69.9108405203919  0.778687326414229 69.7238678555768  0.778687326414229 69.5358953369392  C 0.778687326414229 69.3479228183016  0.778687326414229 69.1609501534865  0.778687326414229 68.9729776348489  C 0.778687326414229 68.7850051162112  0.778687326414229 68.5990323052187  0.778687326414229 68.4120596404036  C 0.778687326414229 68.2250869755886  0.778687326414229 68.0361146031284  0.778687326414229 67.8491419383133  C 0.778687326414229 67.6621692734982  0.778687326414229 67.4751966086831  0.778687326414229 67.2872240900455  C 0.778687326414229 67.0992515714079  0.778687326414229 66.9122789065927  0.778687326414229 66.7243063879552  C 0.778687326414229 66.5363338693176  0.778687326414229 66.350361058325  0.778687326414229 66.1633883935099  C 0.778687326414229 65.9764157286949  0.778687326414229 65.7874433562347  0.778687326414229 65.6004706914196  C 0.778687326414229 65.4134980266045  0.778687326414229 65.2265253617894  0.778687326414229 65.0385528431518  C 0.778687326414229 64.8505803245142  0.778687326414229 64.6636076596991  0.778687326414229 64.4756351410614  C 0.778687326414229 64.2876626224239  0.778687326414229 64.1016898114312  0.778687326414229 63.9147171466162  C 0.778687326414229 63.7277444818012  0.778687326414229 63.538772109341  0.778687326414229 63.3517994445259  C 0.778687326414229 63.1648267797108  0.778687326414229 62.9778541148957  0.778687326414229 62.7898815962581  C 0.778687326414229 62.6019090776205  0.778687326414229 62.4149364128054  0.778687326414229 62.2269638941677  C 0.778687326414229 62.0389913755301  0.778687326414229 61.8530185645376  0.778687326414229 61.6660458997225  C 0.778687326414229 61.4790732349075  0.778687326414229 61.2901008624473  0.778687326414229 61.1031281976322  C 0.778687326414229 60.9161555328171  0.778687326414229 60.729182868002  0.778687326414229 60.5412103493644  C 0.778687326414229 60.3532378307268  0.778687326414229 60.1662651659117  0.778687326414229 59.9782926472741  C 0.778687326414229 59.7903201286364  0.778687326414229 59.6043473176439  0.778687326414229 59.4173746528288  C 0.778687326414229 34.772977634849  21.7666189153631 13.0761496857187  53.5919660868292 0.3870048238565  L 118.835427569069 59.4173746528288  L 118.13552989329 59.9093027335188  L 118.835427569069 60.5412103493645  L 118.13552989329 61.0341382838769  L 118.835427569069 61.6660458997226  L 118.13552989329 62.1579739804126  L 118.835427569069 62.7898815962582  L 118.13552989329 63.2828095307707  L 118.835427569069 63.9147171466163  L 118.13552989329 64.4066452273063  L 118.835427569069 65.0385528431519  L 118.13552989329 65.5314807776645  L 118.835427569069 66.1633883935101  L 118.13552989329 66.6553164742  L 118.835427569069 67.2872240900457  L 118.13552989329 67.7801520245582  L 118.835427569069 68.4120596404039  L 118.13552989329 68.9039877210938  L 118.835427569069 69.5358953369395  L 118.13552989329 70.0288232714519  L 118.835427569069 70.6607308872976  L 118.13552989329 71.1526589679876  L 118.835427569069 71.7845665838332  L 118.13552989329 72.2774945183457  L 118.835427569069 72.9094021341913  L 118.13552989329 73.4013302148813  L 118.835427569069 74.033237830727  L 118.13552989329 74.5251659114169  L 118.835427569069 75.1570735272626  L 42.3556088291184 129.096187691858  Z " fill-rule="nonzero" fill="#309ae3" stroke="none" fill-opacity="0.501960784313725" transform="matrix(1 0 0 1 1514 323 )" />
  </g>
</svg>