<?xml version="1.0" encoding="utf-8"?>
<svg version="1.1" xmlns:xlink="http://www.w3.org/1999/xlink" width="15px" height="47px" xmlns="http://www.w3.org/2000/svg">
  <g transform="matrix(1 0 0 1 -1736 -362 )">
    <path d="M 14.8861686887883 36.1580733810847  C 14.8833201221064 39.6124653792708  14.4708331086165 43.05433220054  13.6573483408858 46.4115743312381  C 14.4700700706308 43.0552122725095  14.8825478640117 39.6144292474969  14.8861686887881 36.1610729425523  C 14.8861686887881 36.070086244701  14.8861686887881 35.9820991083175  14.8861686887881 35.8921122642888  C 14.8861686887881 35.9171086098523  14.8861686887881 35.946104370706  14.8861686887881 35.9760999853822  C 14.8861686887881 36.0320917994445  14.8861686887881 36.094082736442  14.8861686887883 36.1580733810847  Z M 14.8951673731908 35.2912001169428  L 14.8781698582079 35.3321941236661  C 14.6582020172489 23.8218769185792  9.72392340301121 12.4235433416167  0.610255810554008 2.3690133021488  L 10.2198508989914 0.698257564683502  C 13.2508213596293 6.83249396793121  14.8481470588463 13.5753144816204  14.891167957901 20.4173746528285  C 14.891167957901 20.5043619353895  14.891167957901 20.5923490717731  14.8821692734982 20.6763367928665  L 14.8821692734982 20.6873351849145  C 14.8821692734982 20.7633240754276  14.8741704429178 20.8413126735857  14.8731705890953 20.9193012717439  C 14.8721707352727 20.9972898699021  14.8781698582081 21.0922759830435  14.8821692734982 21.1762637041368  L 14.8821692734982 21.1952609267651  C 14.8821692734982 21.3082444087122  14.8921678117235 21.4252273059495  14.8921678117235 21.5402104955417  C 14.8921678117235 21.6271977781026  14.8921678117235 21.7151849144863  14.8831691273206 21.8011723432248  L 14.8831691273206 21.8121707352727  C 14.8831691273206 21.8881596257858  14.8751702967402 21.9661482239439  14.8741704429178 22.0441368221022  C 14.8731705890953 22.1221254202604  14.8791697120305 22.2171115334017  14.8831691273206 22.3010992544951  L 14.8831691273206 22.3200964771234  C 14.8831691273206 22.4330799590705  14.8931676655461 22.5500628563077  14.8931676655461 22.6660458997224  C 14.8931676655461 22.7530331822834  14.8931676655461 22.841020318667  14.8841689811431 22.9250080397604  L 14.8841689811431 22.9360064318084  C 14.8841689811431 23.0119953223215  14.8761701505628 23.0899839204797  14.8751702967402 23.1679725186378  C 14.8741704429178 23.245961116796  14.8801695658531 23.3409472299373  14.8841689811431 23.4249349510308  L 14.8841689811431 23.4439321736591  C 14.8841689811431 23.5569156556061  14.8941675193685 23.6738985528434  14.8941675193685 23.7888817424356  C 14.8941675193685 23.8758690249966  14.8941675193685 23.9638561613802  14.8851688349657 24.0488437362961  L 14.8851688349657 24.0598421283441  C 14.8851688349657 24.1358310188572  14.8771700043853 24.2138196170153  14.8761701505628 24.2918082151736  C 14.8751702967402 24.3697968133317  14.8811694196756 24.4647829264731  14.8851688349657 24.5487706475665  L 14.8851688349657 24.5677678701947  C 14.8851688349657 24.6807513521418  14.895167373191 24.7977342493791  14.895167373191 24.9137172927938  C 14.895167373191 25.0007045753548  14.895167373191 25.0886917117384  14.8861686887881 25.1726794328318  L 14.8861686887881 25.1836778248797  C 14.8861686887881 25.2596667153929  14.8781698582079 25.337655313551  14.8771700043853 25.4156439117092  C 14.8761701505628 25.4936325098674  14.8821692734982 25.5886186230087  14.8861686887881 25.6726063441021  L 14.8861686887881 25.6916035667304  C 14.8861686887881 25.8045870486775  14.8961672270136 25.9215699459148  14.8961672270136 26.036553135507  C 14.8961672270136 26.1235404180679  14.8961672270136 26.2115275544516  14.8871685426107 26.2965151293674  L 14.8871685426107 26.3075135214154  C 14.8871685426107 26.3835024119285  14.8791697120303 26.4624908639092  14.8781698582079 26.5394796082448  C 14.8771700043853 26.6164683525806  14.8831691273206 26.7194532963022  14.8871685426107 26.8064405788632  L 14.8871685426107 26.8144394094435  C 14.8871685426107 26.9274228913906  14.8971670808362 27.0454056424504  14.8971670808362 27.1613886858651  C 14.8971670808362 27.248375968426  14.8971670808362 27.3363631048097  14.8881683964332 27.4203508259031  L 14.8881683964332 27.431349217951  C 14.8881683964332 27.5073381084641  14.8801695658528 27.5853267066223  14.8791697120303 27.6633153047805  C 14.8781698582079 27.7413039029387  14.8841689811431 27.83629001608  14.8881683964332 27.9202777371734  L 14.8881683964332 27.9392749598017  C 14.8881683964332 28.0522584417488  14.8981669346585 28.169241338986  14.8981669346585 28.2842245285782  C 14.8981669346585 28.3712118111392  14.8981669346585 28.4591989475229  14.8891682502558 28.5441865224387  L 14.8891682502558 28.5551849144867  C 14.8891682502558 28.6311738049998  14.8811694196754 28.709162403158  14.8801695658528 28.7861511474936  C 14.8791697120303 28.8631398918292  14.8851688349657 28.9671246893734  14.8891682502558 29.055111825757  L 14.8891682502558 29.0621108025148  C 14.8891682502558 29.1750942844619  14.8991667884811 29.2920771816991  14.8991667884811 29.4090600789364  C 14.8991667884811 29.4960473614973  14.8991667884811 29.584034497881  14.8901681040782 29.6680222189744  L 14.8901681040782 29.6790206110223  C 14.8901681040782 29.7550095015354  14.882169273498 29.8329980996936  14.8811694196754 29.9109866978518  C 14.8801695658528 29.98897529601  14.8861686887881 30.0839614091513  14.8901681040782 30.1679491302447  L 14.8901681040782 30.186946352873  C 14.8901681040782 30.2999298348201  14.9001666423037 30.4169127320573  14.9001666423037 30.5318959216495  C 14.9001666423037 30.6188832042105  14.9001666423037 30.7068703405941  14.8911679579007 30.79185791551  L 14.8911679579007 30.802856307558  C 14.8911679579007 30.8788451980711  14.8831691273203 30.9568337962293  14.882169273498 31.0338225405649  C 14.8811694196754 31.1108112849005  14.8871685426107 31.2147960824447  14.8911679579007 31.3027832188283  L 14.8911679579007 31.3097821955861  C 14.8911679579007 31.4227656775332  14.9011664961261 31.540748428593  14.9011664961261 31.6567314720077  C 14.9011664961261 31.7437187545687  14.9011664961261 31.8317058909523  14.8921678117233 31.9156936120457  L 14.8921678117233 31.9266920040936  C 14.8921678117233 32.0026808946067  14.8841689811429 32.0806694927649  14.8831691273203 32.1586580909231  C 14.882169273498 32.2366466890813  14.8881683964332 32.3316328022226  14.8921678117233 32.415620523316  L 14.8921678117233 32.4346177459443  C 14.8921678117233 32.5476012278913  14.9021663499486 32.6645841251286  14.9021663499486 32.7795673147208  C 14.9021663499486 32.8665545972818  14.9021663499486 32.9545417336654  14.8931676655459 33.0395293085813  L 14.8931676655459 33.0505277006293  C 14.8931676655459 33.1265165911424  14.8851688349655 33.2045051893006  14.8841689811429 33.2814939336362  C 14.8831691273203 33.3584826779718  14.8891682502558 33.462467475516  14.8931676655459 33.5504546118996  L 14.8931676655459 33.5574535886574  C 14.8931676655459 33.6704370706045  14.9031662037712 33.7884198216643  14.9031662037712 33.9044028650789  C 14.9031662037712 33.9913901476399  14.9031662037712 34.0793772840236  14.8941675193682 34.1633650051169  L 14.8941675193682 34.1743633971649  C 14.8941675193682 34.250352287678  14.8861686887878 34.3283408858362  14.8851688349655 34.4063294839943  C 14.8841689811429 34.4843180821526  14.8901681040782 34.5793041952939  14.8941675193682 34.6632919163873  L 14.8941675193682 34.6822891390156  C 14.8941675193682 34.7952726209626  14.9041660575938 34.9122555181999  14.9041660575938 35.0272387077921  C 14.9041660575938 35.1162256979982  14.9041660575938 35.2052126882043  14.8951673731908 35.2912001169428  Z " fill-rule="nonzero" fill="#cdd965" stroke="none" fill-opacity="0.752941176470588" transform="matrix(1 0 0 1 1736 362 )" />
  </g>
</svg>