<?xml version="1.0" encoding="utf-8"?>
<svg version="1.1" xmlns:xlink="http://www.w3.org/1999/xlink" width="19px" height="20px" xmlns="http://www.w3.org/2000/svg">
  <g transform="matrix(1 0 0 1 -850 -2886 )">
    <path d="M 6.78764204545455 7.6171875  C 6.86860795454546 7.6953125  6.90909090909091 7.79513888888889  6.90909090909091 7.91666666666667  L 6.90909090909091 15.4166666666667  C 6.90909090909091 15.5381944444444  6.86860795454546 15.6380208333333  6.78764204545455 15.7161458333333  C 6.70667613636364 15.7942708333333  6.6032196969697 15.8333333333333  6.47727272727273 15.8333333333333  L 5.61363636363636 15.8333333333333  C 5.48768939393939 15.8333333333333  5.38423295454546 15.7942708333333  5.30326704545455 15.7161458333333  C 5.22230113636364 15.6380208333333  5.18181818181818 15.5381944444444  5.18181818181818 15.4166666666667  L 5.18181818181818 7.91666666666667  C 5.18181818181818 7.79513888888889  5.22230113636364 7.6953125  5.30326704545455 7.6171875  C 5.38423295454546 7.5390625  5.48768939393939 7.5  5.61363636363636 7.5  L 6.47727272727273 7.5  C 6.6032196969697 7.5  6.70667613636364 7.5390625  6.78764204545455 7.6171875  Z M 10.2421875 7.6171875  C 10.3231534090909 7.6953125  10.3636363636364 7.79513888888889  10.3636363636364 7.91666666666667  L 10.3636363636364 15.4166666666667  C 10.3636363636364 15.5381944444444  10.3231534090909 15.6380208333333  10.2421875 15.7161458333333  C 10.1612215909091 15.7942708333333  10.0577651515152 15.8333333333333  9.93181818181818 15.8333333333333  L 9.06818181818182 15.8333333333333  C 8.94223484848485 15.8333333333333  8.83877840909091 15.7942708333333  8.7578125 15.7161458333333  C 8.67684659090909 15.6380208333333  8.63636363636364 15.5381944444444  8.63636363636364 15.4166666666667  L 8.63636363636364 7.91666666666667  C 8.63636363636364 7.79513888888889  8.67684659090909 7.6953125  8.7578125 7.6171875  C 8.83877840909091 7.5390625  8.94223484848485 7.5  9.06818181818182 7.5  L 9.93181818181818 7.5  C 10.0577651515152 7.5  10.1612215909091 7.5390625  10.2421875 7.6171875  Z M 13.6967329545455 7.6171875  C 13.7776988636364 7.6953125  13.8181818181818 7.79513888888889  13.8181818181818 7.91666666666667  L 13.8181818181818 15.4166666666667  C 13.8181818181818 15.5381944444444  13.7776988636364 15.6380208333333  13.6967329545455 15.7161458333333  C 13.6157670454545 15.7942708333333  13.5123106060606 15.8333333333333  13.3863636363636 15.8333333333333  L 12.5227272727273 15.8333333333333  C 12.3967803030303 15.8333333333333  12.2933238636364 15.7942708333333  12.2123579545455 15.7161458333333  C 12.1313920454545 15.6380208333333  12.0909090909091 15.5381944444444  12.0909090909091 15.4166666666667  L 12.0909090909091 7.91666666666667  C 12.0909090909091 7.79513888888889  12.1313920454545 7.6953125  12.2123579545455 7.6171875  C 12.2933238636364 7.5390625  12.3967803030303 7.5  12.5227272727273 7.5  L 13.3863636363636 7.5  C 13.5123106060606 7.5  13.6157670454545 7.5390625  13.6967329545455 7.6171875  Z M 15.4509943181818 17.87109375  C 15.5139678030303 17.7105034722222  15.5454545454545 17.5347222222222  15.5454545454545 17.34375  L 15.5454545454545 5  L 3.45454545454545 5  L 3.45454545454545 17.34375  C 3.45454545454545 17.5347222222222  3.4860321969697 17.7105034722222  3.54900568181818 17.87109375  C 3.61197916666667 18.0316840277778  3.67720170454545 18.1488715277778  3.74467329545455 18.22265625  C 3.81214488636364 18.2964409722222  3.859375 18.3333333333333  3.88636363636364 18  L 15.1136363636364 18  C 15.140625 18.3333333333333  15.1878551136364 18.2964409722222  15.2553267045455 18.22265625  C 15.3227982954545 18.1488715277778  15.3880208333333 18.0316840277778  15.4509943181818 17.87109375  Z M 7.13849431818182 1.80989583333333  L 6.47727272727273 3.33333333333333  L 12.5227272727273 3.33333333333333  L 11.875 1.80989583333333  C 11.8120265151515 1.73177083333333  11.7355587121212 1.68402777777778  11.6455965909091 1.66666666666667  L 7.36789772727273 1.66666666666667  C 7.27793560606061 1.68402777777778  7.2014678030303 1.73177083333333  7.13849431818182 1.80989583333333  Z M 18.8785511363636 3.45052083333333  C 18.9595170454545 3.52864583333333  19 3.62847222222222  19 3.75  L 19 4.58333333333333  C 19 4.70486111111111  18.9595170454545 4.8046875  18.8785511363636 4.8828125  C 18.7975852272727 4.9609375  18.6941287878788 5  18.5681818181818 5  L 17 5  L 17 17.34375  C 17.2727272727273 18.0642361111111  17.0613162878788 18.6870659722222  16.6384943181818 19.2122395833333  C 16.2156723484849 19.7374131944444  15.7073863636364 20  15.1136363636364 20  L 3.88636363636364 20  C 3.29261363636364 20  2.78432765151515 19.74609375  2.36150568181818 19.23828125  C 1.93868371212121 18.73046875  1.72727272727273 18.1163194444444  2 17.3958333333333  L 2 5  L 0.431818181818182 5  C 0.305871212121212 5  0.202414772727273 4.9609375  0.121448863636364 4.8828125  C 0.0404829545454545 4.8046875  0 4.70486111111111  0 4.58333333333333  L 0 3.75  C 0 3.62847222222222  0.0404829545454545 3.52864583333333  0.121448863636364 3.45052083333333  C 0.202414772727273 3.37239583333333  0.305871212121212 3.33333333333333  0.431818181818182 3.33333333333333  L 4.6015625 3.33333333333333  L 5.54616477272727 1.15885416666667  C 5.68110795454546 0.837673611111109  5.92400568181818 0.564236111111109  6.27485795454546 0.338541666666667  C 6.62571022727273 0.112847222222221  6.98106060606061 0  7.34090909090909 0  L 11.6590909090909 0  C 12.0189393939394 0  12.3742897727273 0.112847222222221  12.7251420454545 0.338541666666667  C 13.0759943181818 0.564236111111109  13.3188920454545 0.837673611111109  13.4538352272727 1.15885416666667  L 14.3984375 3.33333333333333  L 18.5681818181818 3.33333333333333  C 18.6941287878788 3.33333333333333  18.7975852272727 3.37239583333333  18.8785511363636 3.45052083333333  Z " fill-rule="nonzero" fill="#d9001b" stroke="none" transform="matrix(1 0 0 1 850 2886 )" />
  </g>
</svg>