<?xml version="1.0" encoding="utf-8"?>
<svg version="1.1" xmlns:xlink="http://www.w3.org/1999/xlink" width="335px" height="99px" xmlns="http://www.w3.org/2000/svg">
  <defs>
    <linearGradient gradientUnits="userSpaceOnUse" x1="167.5" y1="99" x2="167.5" y2="0" id="LinearGradient1289">
      <stop id="Stop1290" stop-color="#051026" stop-opacity="0.4" offset="0" />
      <stop id="Stop1291" stop-color="#00f6ff" stop-opacity="0.4" offset="1" />
    </linearGradient>
  </defs>
  <g transform="matrix(1 0 0 1 -103 -893 )">
    <path d="M 1 99  L 1 15.3139798799991  C 0.820122094995085 15.3139798799991  34.2557761721627 1.35236218997898  46.9990655125158 13.3214555914277  C 59.742354852869 25.2905489928763  85.139724211064 43.2332302114622  94.227530371344 38.2280091985708  C 103.315336531624 33.2227881856793  131.557958517203 10.3794934793519  142.505516671479 9.33640701428476  C 153.453074825756 8.29332054921758  172.311925604606 -6.74127147019828  191.833024412922 26.2728634671421  C 211.354123221237 59.2869984044825  235.571830479403 71.4364152540468  239.06148927175 71.1046599599997  C 250.14863377772 70.0516108734897  276.183062650788 53.7995865137567  287.339475571885 47.1943684971424  C 298.495888492982 40.589150480528  334.567940430713 0.370047715713213  334 0.370047715713213  L 334 99  L 1 99  Z " fill-rule="nonzero" fill="url(#LinearGradient1289)" stroke="none" transform="matrix(1 0 0 1 103 893 )" />
  </g>
</svg>