<?xml version="1.0" encoding="utf-8"?>
<svg version="1.1" xmlns:xlink="http://www.w3.org/1999/xlink" width="336px" height="133px" xmlns="http://www.w3.org/2000/svg">
  <defs>
    <linearGradient gradientUnits="userSpaceOnUse" x1="168" y1="133" x2="168" y2="0" id="LinearGradient1285">
      <stop id="Stop1286" stop-color="#ffa06c" stop-opacity="0" offset="0" />
      <stop id="Stop1287" stop-color="#ffa06c" stop-opacity="0" offset="0.01" />
      <stop id="Stop1288" stop-color="#ffa06c" stop-opacity="0.4" offset="1" />
    </linearGradient>
  </defs>
  <g transform="matrix(1 0 0 1 -103 -859 )">
    <path d="M 1 132  L 1 62.2653877557135  C 0.81999163061839 62.2653877557135  22.9319893230153 34.3700477157132  48.0409434224684 34.3700477157132  C 73.1498975219216 34.3700477157132  79.1427609815493 57.6317725226406  95.2618952143185 89.1644656514282  C 111.381029447088 120.697158780216  133.202355947344 101.594828425681  143.532201490432 81.1943684971424  C 153.86204703352 60.7939085686036  181.802159531516 63.8594071865707  191.802507766545 69.2392227657136  C 201.802856001575 74.6190383448566  222.511866748512 90.4506400797011  240.072814042659 65.2541741885707  C 257.633761336805 40.0577082974404  276.57251106879 20.8208825534274  288.343120318772 13.4485426857131  C 300.113729568754 6.07620281799871  332.78223337284 0.680447044547122  335 0.497134809998556  L 335 132  L 1 132  Z " fill-rule="nonzero" fill="url(#LinearGradient1285)" stroke="none" transform="matrix(1 0 0 1 103 859 )" />
  </g>
</svg>