<?xml version="1.0" encoding="utf-8"?>
<svg version="1.1" xmlns:xlink="http://www.w3.org/1999/xlink" width="66px" height="69px" xmlns="http://www.w3.org/2000/svg">
  <defs>
    <mask fill="white" id="clip1294">
      <path d="M 65.2895192 58.49811993  C 65.2895192 58.49811993  32.0909828 68.29661993  32.0909828 68.29661993  C 27.2451828 52.30531993  15.9570828 38.19168353  0.938882799999988 30.86648353  C 0.938882799999988 30.86648353  15.7507828 0.49928353  15.7507828 0.49928353  C 39.2165828 11.94498353  57.7178492 33.51171993  65.2895192 58.49811993  Z " fill-rule="evenodd" />
    </mask>
  </defs>
  <g transform="matrix(1 0 0 1 -1697 -199 )">
    <path d="M 65.2895192 58.49811993  C 65.2895192 58.49811993  32.0909828 68.29661993  32.0909828 68.29661993  C 27.2451828 52.30531993  15.9570828 38.19168353  0.938882799999988 30.86648353  C 0.938882799999988 30.86648353  15.7507828 0.49928353  15.7507828 0.49928353  C 39.2165828 11.94498353  57.7178492 33.51171993  65.2895192 58.49811993  Z " fill-rule="nonzero" fill="#f9da4f" stroke="none" transform="matrix(1 0 0 1 1697 199 )" />
    <path d="M 65.2895192 58.49811993  C 65.2895192 58.49811993  32.0909828 68.29661993  32.0909828 68.29661993  C 27.2451828 52.30531993  15.9570828 38.19168353  0.938882799999988 30.86648353  C 0.938882799999988 30.86648353  15.7507828 0.49928353  15.7507828 0.49928353  C 39.2165828 11.94498353  57.7178492 33.51171993  65.2895192 58.49811993  Z " stroke-width="1.7272728" stroke="#023d41" fill="none" transform="matrix(1 0 0 1 1697 199 )" mask="url(#clip1294)" />
  </g>
</svg>