<?xml version="1.0" encoding="utf-8"?>
<svg version="1.1" xmlns:xlink="http://www.w3.org/1999/xlink" width="150px" height="123px" xmlns="http://www.w3.org/2000/svg">
  <defs>
    <mask fill="white" id="clip1293">
      <path d="M 0.795287099999996 105.60909193  C 0.795287099999996 105.60909193  20.1672871 77.92779193  20.1672871 77.92779193  C 41.1462871 92.60949193  69.9898235 92.37729193  90.7223235 77.34929193  C 111.4547235 62.32129193  120.3806235 34.93865553  112.9546235 10.43295553  C 112.9546235 10.43295553  145.2895235 0.634455530000011  145.2895235 0.634455530000011  C 156.8926435 38.92455553  142.9458935 81.22429193  110.5514235 104.70509193  C 78.1570235 128.18709193  33.5742871 128.54909193  0.795287099999996 105.60909193  Z " fill-rule="evenodd" />
    </mask>
  </defs>
  <g transform="matrix(1 0 0 1 -1617 -256 )">
    <path d="M 0.795287099999996 105.60909193  C 0.795287099999996 105.60909193  20.1672871 77.92779193  20.1672871 77.92779193  C 41.1462871 92.60949193  69.9898235 92.37729193  90.7223235 77.34929193  C 111.4547235 62.32129193  120.3806235 34.93865553  112.9546235 10.43295553  C 112.9546235 10.43295553  145.2895235 0.634455530000011  145.2895235 0.634455530000011  C 156.8926435 38.92455553  142.9458935 81.22429193  110.5514235 104.70509193  C 78.1570235 128.18709193  33.5742871 128.54909193  0.795287099999996 105.60909193  Z " fill-rule="nonzero" fill="#23be72" stroke="none" transform="matrix(1 0 0 1 1617 256 )" />
    <path d="M 0.795287099999996 105.60909193  C 0.795287099999996 105.60909193  20.1672871 77.92779193  20.1672871 77.92779193  C 41.1462871 92.60949193  69.9898235 92.37729193  90.7223235 77.34929193  C 111.4547235 62.32129193  120.3806235 34.93865553  112.9546235 10.43295553  C 112.9546235 10.43295553  145.2895235 0.634455530000011  145.2895235 0.634455530000011  C 156.8926435 38.92455553  142.9458935 81.22429193  110.5514235 104.70509193  C 78.1570235 128.18709193  33.5742871 128.54909193  0.795287099999996 105.60909193  Z " stroke-width="1.7272728" stroke="#023d41" fill="none" transform="matrix(1 0 0 1 1617 256 )" mask="url(#clip1293)" />
  </g>
</svg>