<?xml version="1.0" encoding="utf-8"?>
<svg version="1.1" xmlns:xlink="http://www.w3.org/1999/xlink" width="43px" height="41px" xmlns="http://www.w3.org/2000/svg">
  <defs>
    <mask fill="white" id="clip1295">
      <path d="M 42.6143782 9.4992872193451  C 42.6143782 9.4992872193451  27.8025782 40.7300436193451  27.8025782 40.7300436193451  C 19.6009782 36.7296436193451  9.73204179999999 34.6505436193451  0.606741799999995 34.6505436193451  C 0.606741799999995 34.6505436193451  0.606741799999995 0  0.606741799999995 0  C 14.8649418 0  29.7993782 3.2486472193451  42.6143782 9.4992872193451  Z " fill-rule="evenodd" />
    </mask>
  </defs>
  <g transform="matrix(1 0 0 1 -1671 -190 )">
    <path d="M 42.6143782 9.4992872193451  C 42.6143782 9.4992872193451  27.8025782 40.7300436193451  27.8025782 40.7300436193451  C 19.6009782 36.7296436193451  9.73204179999999 34.6505436193451  0.606741799999995 34.6505436193451  C 0.606741799999995 34.6505436193451  0.606741799999995 0  0.606741799999995 0  C 14.8649418 0  29.7993782 3.2486472193451  42.6143782 9.4992872193451  Z " fill-rule="nonzero" fill="#7d5afb" stroke="none" transform="matrix(1 0 0 1 1671 190 )" />
    <path d="M 42.6143782 9.4992872193451  C 42.6143782 9.4992872193451  27.8025782 40.7300436193451  27.8025782 40.7300436193451  C 19.6009782 36.7296436193451  9.73204179999999 34.6505436193451  0.606741799999995 34.6505436193451  C 0.606741799999995 34.6505436193451  0.606741799999995 0  0.606741799999995 0  C 14.8649418 0  29.7993782 3.2486472193451  42.6143782 9.4992872193451  Z " stroke-width="1.7272728" stroke="#023d41" fill="none" transform="matrix(1 0 0 1 1671 190 )" mask="url(#clip1295)" />
  </g>
</svg>