<?xml version="1.0" encoding="utf-8"?>
<svg version="1.1" xmlns:xlink="http://www.w3.org/1999/xlink" width="96px" height="172px" xmlns="http://www.w3.org/2000/svg">
  <defs>
    <mask fill="white" id="clip1292">
      <path d="M 95.4704182 0  C 95.4704182 0  95.4704182 33.7869072193453  95.4704182 33.7869072193453  C 69.2523182 33.7869072193453  45.1995818 50.7921072193453  37.3188818 75.7978072193453  C 29.4381818 100.803007219345  39.5503182 128.895643619345  61.0308182 143.927643619345  C 61.0308182 143.927643619345  40.7948818 171.609643619345  40.7948818 171.609643619345  C 7.2315818 148.120643619345  -7.21921819999999 104.713007219345  5.09448180000001 65.6420072193453  C 17.4080818 26.5706072193453  54.5045182 0  95.4704182 0  Z " fill-rule="evenodd" />
    </mask>
  </defs>
  <g transform="matrix(1 0 0 1 -1577 -190 )">
    <path d="M 95.4704182 0  C 95.4704182 0  95.4704182 33.7869072193453  95.4704182 33.7869072193453  C 69.2523182 33.7869072193453  45.1995818 50.7921072193453  37.3188818 75.7978072193453  C 29.4381818 100.803007219345  39.5503182 128.895643619345  61.0308182 143.927643619345  C 61.0308182 143.927643619345  40.7948818 171.609643619345  40.7948818 171.609643619345  C 7.2315818 148.120643619345  -7.21921819999999 104.713007219345  5.09448180000001 65.6420072193453  C 17.4080818 26.5706072193453  54.5045182 0  95.4704182 0  Z " fill-rule="nonzero" fill="#00d1c8" stroke="none" transform="matrix(1 0 0 1 1577 190 )" />
    <path d="M 95.4704182 0  C 95.4704182 0  95.4704182 33.7869072193453  95.4704182 33.7869072193453  C 69.2523182 33.7869072193453  45.1995818 50.7921072193453  37.3188818 75.7978072193453  C 29.4381818 100.803007219345  39.5503182 128.895643619345  61.0308182 143.927643619345  C 61.0308182 143.927643619345  40.7948818 171.609643619345  40.7948818 171.609643619345  C 7.2315818 148.120643619345  -7.21921819999999 104.713007219345  5.09448180000001 65.6420072193453  C 17.4080818 26.5706072193453  54.5045182 0  95.4704182 0  Z " stroke-width="1.7272728" stroke="#023d41" fill="none" transform="matrix(1 0 0 1 1577 190 )" mask="url(#clip1292)" />
  </g>
</svg>