<?xml version="1.0" encoding="utf-8"?>
<svg version="1.1" xmlns:xlink="http://www.w3.org/1999/xlink" width="8px" height="10px" xmlns="http://www.w3.org/2000/svg">
  <g transform="matrix(1 0 0 1 -1139 -1268 )">
    <path d="M 2.66666666666667 2.14285714285714  L 3.33333333333333 2.14285714285714  L 3.33333333333333 1.42857142857143  L 2.66666666666667 1.42857142857143  L 2.66666666666667 2.14285714285714  Z M 3.33333333333333 2.85714285714286  L 4 2.85714285714286  L 4 2.14285714285714  L 3.33333333333333 2.14285714285714  L 3.33333333333333 2.85714285714286  Z M 2.66666666666667 3.57142857142857  L 3.33333333333333 3.57142857142857  L 3.33333333333333 2.85714285714286  L 2.66666666666667 2.85714285714286  L 2.66666666666667 3.57142857142857  Z M 3.33333333333333 4.28571428571429  L 4 4.28571428571429  L 4 3.57142857142857  L 3.33333333333333 3.57142857142857  L 3.33333333333333 4.28571428571429  Z M 6.02083333333333 0.379464285714286  L 7.64583333333333 2.12053571428571  C 7.74305555555556 2.22470238095238  7.82638888888889 2.36607142857143  7.89583333333333 2.54464285714286  C 7.96527777777778 2.72321428571429  8 2.88690476190476  8 3.03571428571429  L 8 9.46428571428571  C 8 9.61309523809524  7.95138888888889 9.73958333333333  7.85416666666667 9.84375  C 7.75694444444445 9.94791666666667  7.63888888888889 10  7.5 10  L 0.5 10  C 0.361111111111111 10  0.243055555555556 9.94791666666667  0.145833333333333 9.84375  C 0.0486111111111111 9.73958333333333  0 9.61309523809524  0 9.46428571428571  L 0 0.535714285714286  C 0 0.386904761904762  0.0486111111111111 0.260416666666666  0.145833333333333 0.15625  C 0.243055555555556 0.0520833333333337  0.361111111111111 0  0.5 0  L 5.16666666666667 0  C 5.30555555555556 0  5.45833333333333 0.0372023809523814  5.625 0.111607142857143  C 5.79166666666667 0.186011904761905  5.92361111111111 0.275297619047619  6.02083333333333 0.379464285714286  Z M 5.546875 0.881696428571429  C 5.50520833333333 0.837053571428571  5.43402777777778 0.796130952380951  5.33333333333333 0.758928571428571  L 5.33333333333333 2.85714285714286  L 7.29166666666667 2.85714285714286  C 7.25694444444445 2.74925595238095  7.21875 2.67299107142857  7.17708333333333 2.62834821428571  L 5.546875 0.881696428571429  Z M 0.666666666666667 9.28571428571429  L 7.33333333333333 9.28571428571429  L 7.33333333333333 3.57142857142857  L 5.16666666666667 3.57142857142857  C 5.02777777777778 3.57142857142857  4.90972222222222 3.51934523809524  4.8125 3.41517857142857  C 4.71527777777778 3.3110119047619  4.66666666666667 3.18452380952381  4.66666666666667 3.03571428571429  L 4.66666666666667 0.714285714285714  L 4 0.714285714285714  L 4 1.42857142857143  L 3.33333333333333 1.42857142857143  L 3.33333333333333 0.714285714285714  L 0.666666666666667 0.714285714285714  L 0.666666666666667 9.28571428571429  Z M 3.94791666666667 5.07254464285714  C 4.00694444444444 5.12090773809524  4.046875 5.18415178571429  4.06770833333333 5.26227678571429  L 4.625 7.20982142857143  C 4.65277777777778 7.31026785714286  4.66666666666667 7.40699404761905  4.66666666666667 7.5  C 4.66666666666667 7.80877976190476  4.54079861111111 8.06454613095238  4.2890625 8.26729910714286  C 4.03732638888889 8.47005208333333  3.71875 8.57142857142857  3.33333333333333 8.57142857142857  C 2.94791666666667 8.57142857142857  2.62934027777778 8.47005208333333  2.37760416666667 8.26729910714286  C 2.12586805555556 8.06454613095238  2 7.80877976190476  2 7.5  C 2 7.40699404761905  2.01388888888889 7.31026785714286  2.04166666666667 7.20982142857143  C 2.11458333333333 6.97544642857143  2.32291666666667 6.23883928571429  2.66666666666667 5  L 2.66666666666667 4.28571428571429  L 3.33333333333333 4.28571428571429  L 3.33333333333333 5  L 3.74479166666667 5  C 3.82118055555556 5  3.88888888888889 5.02418154761905  3.94791666666667 5.07254464285714  Z M 2.86197916666667 7.75111607142857  C 2.9921875 7.82180059523809  3.14930555555556 7.85714285714286  3.33333333333333 7.85714285714286  C 3.51736111111111 7.85714285714286  3.67447916666667 7.82180059523809  3.8046875 7.75111607142857  C 3.93489583333333 7.68043154761905  4 7.59672619047619  4 7.5  C 4 7.40327380952381  3.93489583333333 7.31956845238095  3.8046875 7.24888392857143  C 3.67447916666667 7.17819940476191  3.51736111111111 7.14285714285714  3.33333333333333 7.14285714285714  C 3.14930555555556 7.14285714285714  2.9921875 7.17819940476191  2.86197916666667 7.24888392857143  C 2.73177083333333 7.31956845238095  2.66666666666667 7.40327380952381  2.66666666666667 7.5  C 2.66666666666667 7.59672619047619  2.73177083333333 7.68043154761905  2.86197916666667 7.75111607142857  Z " fill-rule="nonzero" fill="#8400ff" stroke="none" transform="matrix(1 0 0 1 1139 1268 )" />
  </g>
</svg>