<?xml version="1.0" encoding="utf-8"?>
<svg version="1.1" xmlns:xlink="http://www.w3.org/1999/xlink" width="12px" height="12px" viewBox="911 3036.5  12 12" xmlns="http://www.w3.org/2000/svg">
  <path d="M 917 3036.5  C 920.36 3036.5  923 3039.14  923 3042.5  C 923 3045.86  920.36 3048.5  917 3048.5  C 913.64 3048.5  911 3045.86  911 3042.5  C 911 3039.14  913.64 3036.5  917 3036.5  Z " fill-rule="nonzero" fill="#ffffff" stroke="none" />
  <path d="M 917 3037  C 920.08 3037  922.5 3039.42  922.5 3042.5  C 922.5 3045.58  920.08 3048  917 3048  C 913.92 3048  911.5 3045.58  911.5 3042.5  C 911.5 3039.42  913.92 3037  917 3037  Z " stroke-width="1" stroke="#d9001b" fill="none" />
  <path d="M 917 3045.5  C 915.32 3045.5  914 3044.18  914 3042.5  C 914 3040.82  915.32 3039.5  917 3039.5  C 918.68 3039.5  920 3040.82  920 3042.5  C 920 3044.18  918.68 3045.5  917 3045.5  " fill-rule="nonzero" fill="#d9001b" stroke="none" />
</svg>