<?xml version="1.0" encoding="utf-8"?>
<svg version="1.1" xmlns:xlink="http://www.w3.org/1999/xlink" width="85px" height="32px" xmlns="http://www.w3.org/2000/svg">
  <g transform="matrix(1 0 0 1 -1331 -121 )">
    <path d="M 1332 125  A 3 3 0 0 1 1335 122 L 1412 122  A 3 3 0 0 1 1415 125 L 1415 149  A 3 3 0 0 1 1412 152 L 1335 152  A 3 3 0 0 1 1332 149 L 1332 125  Z " fill-rule="nonzero" fill="#ffffff" stroke="none" />
    <path d="M 1331.5 125  A 3.5 3.5 0 0 1 1335 121.5 L 1412 121.5  A 3.5 3.5 0 0 1 1415.5 125 L 1415.5 149  A 3.5 3.5 0 0 1 1412 152.5 L 1335 152.5  A 3.5 3.5 0 0 1 1331.5 149 L 1331.5 125  Z " stroke-width="1" stroke="#d9001b" fill="none" stroke-opacity="0.647058823529412" />
  </g>
</svg>