<?xml version="1.0" encoding="utf-8"?>
<svg version="1.1" xmlns:xlink="http://www.w3.org/1999/xlink" width="88px" height="75px" xmlns="http://www.w3.org/2000/svg">
  <defs>
    <linearGradient gradientUnits="userSpaceOnUse" x1="-0.285405277651356" y1="74.6598672350137" x2="88.2854052776514" y2="0.34013276498635" id="LinearGradient1380">
      <stop id="Stop1381" stop-color="#214c67" stop-opacity="0.2" offset="0" />
      <stop id="Stop1382" stop-color="#61ffc9" offset="0.89" />
      <stop id="Stop1383" stop-color="#61ffc9" offset="1" />
    </linearGradient>
  </defs>
  <g transform="matrix(1 0 0 1 -1621 -175 )">
    <path d="M 75.9331428571429 46.9074006968641  C 76.014425087108 45.9761672473868  76.0645993031359 45.0369059233449  76.0645993031359 44.0845993031359  C 76.0645993031359 26.387149825784  61.7268153310105 12.0403344947735  44.0394006968641 12.0403344947735  C 26.3529895470383 12.0403344947735  12.0142020905923 26.387149825784  12.0142020905923 44.0845993031359  C 12.0142020905923 52.5931428571429  15.3347317073171 60.3209756097561  20.7415052264808 66.0578954703833  L 12.2710940766551 74.0446271777003  C 4.89749128919861 66.2224668989547  0.368766550522652 55.6848780487805  0.368766550522652 44.0845993031359  C 0.368766550522652 19.9548153310105  19.9206550522648 0.394898954703834  44.0394006968641 0.394898954703834  C 68.1581463414634 0.394898954703834  87.7100348432056 19.9548153310105  87.7100348432056 44.0845993031359  C 87.7100348432056 45.3811010452962  87.6428013937282 46.6625505226481  87.5314146341463 47.9309547038328  L 75.9331428571429 46.9074006968641  Z " fill-rule="nonzero" fill="url(#LinearGradient1380)" stroke="none" transform="matrix(1 0 0 1 1621 175 )" />
  </g>
</svg>