<?xml version="1.0" encoding="utf-8"?>
<svg version="1.1" xmlns:xlink="http://www.w3.org/1999/xlink" width="22px" height="23px" xmlns="http://www.w3.org/2000/svg">
  <defs>
    <mask fill="white" id="clip1384">
      <path d="M 0.329212543554014 11.1458675958188  C 0.329212543554014 5.5183275261324  4.89908013937282 0.956487804878051  10.5376585365854 0.956487804878051  C 16.1762369337979 0.956487804878051  21.7505923344948 5.5183275261324  21.7505923344948 11.1458675958188  C 21.7505923344948 16.7744111498258  16.1762369337979 22.3397351916376  10.5376585365854 22.3397351916376  C 4.89908013937282 22.3397351916376  0.329212543554014 16.7744111498258  0.329212543554014 11.1458675958188  Z " fill-rule="evenodd" />
    </mask>
  </defs>
  <g transform="matrix(1 0 0 1 -1654 -206 )">
    <path d="M 0.329212543554014 11.1458675958188  C 0.329212543554014 5.5183275261324  4.89908013937282 0.956487804878051  10.5376585365854 0.956487804878051  C 16.1762369337979 0.956487804878051  21.7505923344948 5.5183275261324  21.7505923344948 11.1458675958188  C 21.7505923344948 16.7744111498258  16.1762369337979 22.3397351916376  10.5376585365854 22.3397351916376  C 4.89908013937282 22.3397351916376  0.329212543554014 16.7744111498258  0.329212543554014 11.1458675958188  Z " fill-rule="nonzero" fill="#02f3d4" stroke="none" fill-opacity="0.301960784313725" transform="matrix(1 0 0 1 1654 206 )" />
    <path d="M 0.329212543554014 11.1458675958188  C 0.329212543554014 5.5183275261324  4.89908013937282 0.956487804878051  10.5376585365854 0.956487804878051  C 16.1762369337979 0.956487804878051  21.7505923344948 5.5183275261324  21.7505923344948 11.1458675958188  C 21.7505923344948 16.7744111498258  16.1762369337979 22.3397351916376  10.5376585365854 22.3397351916376  C 4.89908013937282 22.3397351916376  0.329212543554014 16.7744111498258  0.329212543554014 11.1458675958188  Z " stroke-width="2.00696864111498" stroke="#02f3d4" fill="none" transform="matrix(1 0 0 1 1654 206 )" mask="url(#clip1384)" />
  </g>
</svg>