<?xml version="1.0" encoding="utf-8"?>
<svg version="1.1" xmlns:xlink="http://www.w3.org/1999/xlink" width="88px" height="75px" xmlns="http://www.w3.org/2000/svg">
  <g transform="matrix(1 0 0 1 -1621 -175 )">
    <path d="M 67.0151777003484 66.3960696864111  C 72.6126132404181 60.6260348432056  76.0645993031359 52.760724738676  76.0645993031359 44.0845993031359  C 76.0645993031359 26.387149825784  61.7268153310105 12.0403344947735  44.0394006968641 12.0403344947735  C 26.3529895470383 12.0403344947735  12.0142020905923 26.387149825784  12.0142020905923 44.0845993031359  C 12.0142020905923 52.5931428571429  15.3347317073171 60.3209756097561  20.7415052264808 66.0578954703833  L 12.2710940766551 74.0446271777003  C 4.89749128919861 66.2224668989547  0.368766550522652 55.6848780487805  0.368766550522652 44.0845993031359  C 0.368766550522652 19.9548153310105  19.9206550522648 0.394898954703834  44.0394006968641 0.394898954703834  C 68.1581463414634 0.394898954703834  87.7100348432056 19.9548153310105  87.7100348432056 44.0845993031359  C 87.7100348432056 55.9136724738676  83.0026898954704 66.6379094076655  75.3701881533101 74.5042229965157  L 67.0151777003484 66.3960696864111  Z " fill-rule="nonzero" fill="#ffffff" stroke="none" transform="matrix(1 0 0 1 1621 175 )" />
  </g>
</svg>