<?xml version="1.0" encoding="utf-8"?>
<svg version="1.1" xmlns:xlink="http://www.w3.org/1999/xlink" width="88px" height="75px" xmlns="http://www.w3.org/2000/svg">
  <g transform="matrix(1 0 0 1 -1761 -174 )">
    <path d="M 66.8746898954704 66.3980766550523  C 72.4761393728223 60.6280418118467  75.9311358885017 52.7617282229965  75.9311358885017 44.0845993031359  C 75.9311358885017 26.387149825784  61.5843205574913 12.0403344947735  43.8868710801394 12.0403344947735  C 26.1894216027875 12.0403344947735  11.842606271777 26.387149825784  11.842606271777 44.0845993031359  C 11.842606271777 52.5981602787456  15.1691567944251 60.3310104529617  20.5859651567944 66.0689337979094  L 12.1145505226481 74.0556655052265  C 4.73191637630662 66.2325017421603  0.197170731707321 55.6908989547038  0.197170731707321 44.0845993031359  C 0.197170731707321 19.9548153310105  19.7580905923345 0.394898954703834  43.8868710801394 0.394898954703834  C 68.0166550522648 0.394898954703834  87.5765714285714 19.9548153310105  87.5765714285714 44.0845993031359  C 87.5765714285714 55.9146759581882  82.8662160278746 66.6399163763066  75.2286968641115 74.5072334494773  L 66.8746898954704 66.3980766550523  Z " fill-rule="nonzero" fill="#ffffff" stroke="none" transform="matrix(1 0 0 1 1761 174 )" />
  </g>
</svg>