<?xml version="1.0" encoding="utf-8"?>
<svg version="1.1" xmlns:xlink="http://www.w3.org/1999/xlink" width="22px" height="23px" xmlns="http://www.w3.org/2000/svg">
  <defs>
    <mask fill="white" id="clip1389">
      <path d="M 0.195749128919864 11.1458675958188  C 0.195749128919864 5.5183275261324  5.76107317073171 0.956487804878051  11.3886132404181 0.956487804878051  C 17.0161533101045 0.956487804878051  21.5779930313589 5.5183275261324  21.5779930313589 11.1458675958188  C 21.5779930313589 16.7744111498258  17.0161533101045 22.3397351916376  11.3886132404181 22.3397351916376  C 5.76107317073171 22.3397351916376  0.195749128919864 16.7744111498258  0.195749128919864 11.1458675958188  Z " fill-rule="evenodd" />
    </mask>
  </defs>
  <g transform="matrix(1 0 0 1 -1794 -205 )">
    <path d="M 0.195749128919864 11.1458675958188  C 0.195749128919864 5.5183275261324  5.76107317073171 0.956487804878051  11.3886132404181 0.956487804878051  C 17.0161533101045 0.956487804878051  21.5779930313589 5.5183275261324  21.5779930313589 11.1458675958188  C 21.5779930313589 16.7744111498258  17.0161533101045 22.3397351916376  11.3886132404181 22.3397351916376  C 5.76107317073171 22.3397351916376  0.195749128919864 16.7744111498258  0.195749128919864 11.1458675958188  Z " fill-rule="nonzero" fill="#02f3d4" stroke="none" fill-opacity="0.301960784313725" transform="matrix(1 0 0 1 1794 205 )" />
    <path d="M 0.195749128919864 11.1458675958188  C 0.195749128919864 5.5183275261324  5.76107317073171 0.956487804878051  11.3886132404181 0.956487804878051  C 17.0161533101045 0.956487804878051  21.5779930313589 5.5183275261324  21.5779930313589 11.1458675958188  C 21.5779930313589 16.7744111498258  17.0161533101045 22.3397351916376  11.3886132404181 22.3397351916376  C 5.76107317073171 22.3397351916376  0.195749128919864 16.7744111498258  0.195749128919864 11.1458675958188  Z " stroke-width="2.00696864111498" stroke="#02f3d4" fill="none" transform="matrix(1 0 0 1 1794 205 )" mask="url(#clip1389)" />
  </g>
</svg>