<?xml version="1.0" encoding="utf-8"?>
<svg version="1.1" xmlns:xlink="http://www.w3.org/1999/xlink" width="88px" height="75px" xmlns="http://www.w3.org/2000/svg">
  <g transform="matrix(1 0 0 1 -1627 -343 )">
    <path d="M 67.0171846689895 66.3077630662021  C 72.6136167247387 60.5377282229965  76.0645993031359 52.6734216027875  76.0645993031359 43.9972961672474  C 76.0645993031359 26.2998466898955  61.7268153310105 11.953031358885  44.0394006968641 11.953031358885  C 26.3529895470383 11.953031358885  12.0142020905923 26.2998466898955  12.0142020905923 43.9972961672474  C 12.0142020905923 52.5048362369338  15.3347317073171 60.232668989547  20.7405017421603 65.9695888501742  L 12.2690871080139 73.9563205574913  C 4.89648780487805 66.1341602787456  0.368766550522652 55.597574912892  0.368766550522652 43.9972961672474  C 0.368766550522652 19.8685156794425  19.9206550522648 0.307595818815329  44.0394006968641 0.307595818815329  C 68.1581463414634 0.307595818815329  87.7100348432056 19.8685156794425  87.7100348432056 43.9972961672474  C 87.7100348432056 55.8263693379791  83.0036933797909 66.5496027874565  75.3711916376307 74.4159163763066  L 67.0171846689895 66.3077630662021  Z " fill-rule="nonzero" fill="#ffffff" stroke="none" transform="matrix(1 0 0 1 1627 343 )" />
  </g>
</svg>