<?xml version="1.0" encoding="utf-8"?>
<svg version="1.1" xmlns:xlink="http://www.w3.org/1999/xlink" width="88px" height="75px" xmlns="http://www.w3.org/2000/svg">
  <g transform="matrix(1 0 0 1 -1765 -344 )">
    <path d="M 66.8722090592335 66.3097700348432  C 72.4736585365854 60.5397351916376  75.9276515679443 52.674425087108  75.9276515679443 43.9972961672474  C 75.9276515679443 26.2998466898955  61.5808362369338 11.953031358885  43.8833867595819 11.953031358885  C 26.18593728223 11.953031358885  11.8391219512195 26.2998466898955  11.8391219512195 43.9972961672474  C 11.8391219512195 52.5108571428571  15.1656724738676 60.2427038327526  20.5804738675958 65.9816306620209  L 12.11006271777 73.968362369338  C 4.72742857142856 66.1441951219512  0.19368641114982 55.6035958188153  0.19368641114982 43.9972961672474  C 0.19368641114982 19.8685156794425  19.754606271777 0.307595818815329  43.8833867595819 0.307595818815329  C 68.0131707317073 0.307595818815329  87.5730871080139 19.8685156794425  87.5730871080139 43.9972961672474  C 87.5730871080139 55.8273728222997  82.8637351916376 66.5526132404181  75.2272195121951 74.4189268292683  L 66.8722090592335 66.3097700348432  Z " fill-rule="nonzero" fill="#ffffff" stroke="none" transform="matrix(1 0 0 1 1765 344 )" />
  </g>
</svg>