<?xml version="1.0" encoding="utf-8"?>
<svg version="1.1" xmlns:xlink="http://www.w3.org/1999/xlink" width="22px" height="23px" xmlns="http://www.w3.org/2000/svg">
  <defs>
    <mask fill="white" id="clip1397">
      <path d="M 0.19226480836236 11.0595679442509  C 0.19226480836236 5.43202787456445  4.75410452961672 0.87018815331011  10.3816445993031 0.87018815331011  C 16.0091846689895 0.87018815331011  21.5745087108014 5.43202787456445  21.5745087108014 11.0595679442509  C 21.5745087108014 16.6871080139373  16.0091846689895 22.2534355400697  10.3816445993031 22.2534355400697  C 4.75410452961672 22.2534355400697  0.19226480836236 16.6871080139373  0.19226480836236 11.0595679442509  Z " fill-rule="evenodd" />
    </mask>
  </defs>
  <g transform="matrix(1 0 0 1 -1798 -375 )">
    <path d="M 0.19226480836236 11.0595679442509  C 0.19226480836236 5.43202787456445  4.75410452961672 0.87018815331011  10.3816445993031 0.87018815331011  C 16.0091846689895 0.87018815331011  21.5745087108014 5.43202787456445  21.5745087108014 11.0595679442509  C 21.5745087108014 16.6871080139373  16.0091846689895 22.2534355400697  10.3816445993031 22.2534355400697  C 4.75410452961672 22.2534355400697  0.19226480836236 16.6871080139373  0.19226480836236 11.0595679442509  Z " fill-rule="nonzero" fill="#02f3d4" stroke="none" fill-opacity="0.301960784313725" transform="matrix(1 0 0 1 1798 375 )" />
    <path d="M 0.19226480836236 11.0595679442509  C 0.19226480836236 5.43202787456445  4.75410452961672 0.87018815331011  10.3816445993031 0.87018815331011  C 16.0091846689895 0.87018815331011  21.5745087108014 5.43202787456445  21.5745087108014 11.0595679442509  C 21.5745087108014 16.6871080139373  16.0091846689895 22.2534355400697  10.3816445993031 22.2534355400697  C 4.75410452961672 22.2534355400697  0.19226480836236 16.6871080139373  0.19226480836236 11.0595679442509  Z " stroke-width="2.00696864111498" stroke="#02f3d4" fill="none" transform="matrix(1 0 0 1 1798 375 )" mask="url(#clip1397)" />
  </g>
</svg>