<?xml version="1.0" encoding="utf-8"?>
<svg version="1.1" xmlns:xlink="http://www.w3.org/1999/xlink" width="50px" height="74px" xmlns="http://www.w3.org/2000/svg">
  <defs>
    <linearGradient gradientUnits="userSpaceOnUse" x1="-7.88954565156247" y1="64.5976056258144" x2="57.8895456515625" y2="9.4023943741856" id="LinearGradient1394">
      <stop id="Stop1395" stop-color="#214c67" stop-opacity="0.2" offset="0" />
      <stop id="Stop1396" stop-color="#61ffc9" offset="1" />
    </linearGradient>
  </defs>
  <g transform="matrix(1 0 0 1 -1765 -344 )">
    <path d="M 49.3092264808362 0.654801393728221  L 47.8642090592334 12.2079163763066  C 46.5596794425087 12.0463554006969  45.2330731707317 11.953031358885  43.8833867595819 11.953031358885  C 26.18593728223 11.953031358885  11.8391219512195 26.2998466898955  11.8391219512195 43.9972961672474  C 11.8391219512195 52.5108571428571  15.1656724738676 60.2427038327526  20.5804738675958 65.9816306620209  L 12.11006271777 73.968362369338  C 4.72742857142856 66.1441951219512  0.19368641114982 55.6035958188153  0.19368641114982 43.9972961672474  C 0.19368641114982 19.8685156794425  19.754606271777 0.307595818815329  43.8833867595819 0.307595818815329  C 45.7217700348432 0.307595818815329  47.5300487804878 0.435038327526129  49.3092264808362 0.654801393728221  Z " fill-rule="nonzero" fill="url(#LinearGradient1394)" stroke="none" transform="matrix(1 0 0 1 1765 344 )" />
  </g>
</svg>