<?xml version="1.0" encoding="utf-8"?>
<svg version="1.1" xmlns:xlink="http://www.w3.org/1999/xlink" width="62px" height="74px" xmlns="http://www.w3.org/2000/svg">
  <defs>
    <linearGradient gradientUnits="userSpaceOnUse" x1="-5.41049018456326" y1="67.552028884851" x2="67.4104901845633" y2="6.44797111514897" id="LinearGradient1390">
      <stop id="Stop1391" stop-color="#214c67" stop-opacity="0.2" offset="0" />
      <stop id="Stop1392" stop-color="#61ffc9" offset="1" />
    </linearGradient>
  </defs>
  <g transform="matrix(1 0 0 1 -1627 -343 )">
    <path d="M 61.5512055749129 3.97332404181185  L 56.8829965156795 14.6423693379791  C 52.9503414634146 12.9173797909408  48.6082648083624 11.953031358885  44.0394006968641 11.953031358885  C 26.3529895470383 11.953031358885  12.0142020905923 26.2998466898955  12.0142020905923 43.9972961672474  C 12.0142020905923 52.5048362369338  15.3347317073171 60.232668989547  20.7405017421603 65.9695888501742  L 12.2690871080139 73.9563205574913  C 4.89648780487805 66.1341602787456  0.368766550522652 55.597574912892  0.368766550522652 43.9972961672474  C 0.368766550522652 19.8685156794425  19.9206550522648 0.307595818815329  44.0394006968641 0.307595818815329  C 50.269031358885 0.307595818815329  56.1885853658537 1.62216027874564  61.5512055749129 3.97332404181185  Z " fill-rule="nonzero" fill="url(#LinearGradient1390)" stroke="none" transform="matrix(1 0 0 1 1627 343 )" />
  </g>
</svg>