<?xml version="1.0" encoding="utf-8"?>
<svg version="1.1" xmlns:xlink="http://www.w3.org/1999/xlink" width="22px" height="23px" xmlns="http://www.w3.org/2000/svg">
  <defs>
    <mask fill="white" id="clip1393">
      <path d="M 0.329212543554014 11.0595679442509  C 0.329212543554014 5.43202787456445  4.89908013937282 0.87018815331011  10.5376585365854 0.87018815331011  C 16.1762369337979 0.87018815331011  21.7505923344948 5.43202787456445  21.7505923344948 11.0595679442509  C 21.7505923344948 16.6871080139373  16.1762369337979 22.2534355400697  10.5376585365854 22.2534355400697  C 4.89908013937282 22.2534355400697  0.329212543554014 16.6871080139373  0.329212543554014 11.0595679442509  Z " fill-rule="evenodd" />
    </mask>
  </defs>
  <g transform="matrix(1 0 0 1 -1660 -374 )">
    <path d="M 0.329212543554014 11.0595679442509  C 0.329212543554014 5.43202787456445  4.89908013937282 0.87018815331011  10.5376585365854 0.87018815331011  C 16.1762369337979 0.87018815331011  21.7505923344948 5.43202787456445  21.7505923344948 11.0595679442509  C 21.7505923344948 16.6871080139373  16.1762369337979 22.2534355400697  10.5376585365854 22.2534355400697  C 4.89908013937282 22.2534355400697  0.329212543554014 16.6871080139373  0.329212543554014 11.0595679442509  Z " fill-rule="nonzero" fill="#02f3d4" stroke="none" fill-opacity="0.301960784313725" transform="matrix(1 0 0 1 1660 374 )" />
    <path d="M 0.329212543554014 11.0595679442509  C 0.329212543554014 5.43202787456445  4.89908013937282 0.87018815331011  10.5376585365854 0.87018815331011  C 16.1762369337979 0.87018815331011  21.7505923344948 5.43202787456445  21.7505923344948 11.0595679442509  C 21.7505923344948 16.6871080139373  16.1762369337979 22.2534355400697  10.5376585365854 22.2534355400697  C 4.89908013937282 22.2534355400697  0.329212543554014 16.6871080139373  0.329212543554014 11.0595679442509  Z " stroke-width="2.00696864111498" stroke="#02f3d4" fill="none" transform="matrix(1 0 0 1 1660 374 )" mask="url(#clip1393)" />
  </g>
</svg>