<?xml version="1.0" encoding="utf-8"?>
<svg version="1.1" xmlns:xlink="http://www.w3.org/1999/xlink" width="45px" height="45px" xmlns="http://www.w3.org/2000/svg">
  <g transform="matrix(1 0 0 1 -689 -930 )">
    <path d="M 45 10.546875  C 45 8.6923828125  43.98046875 6.9521484375  42.1875 5.43603515625  C 38.35107421875 2.19287109375  30.97265625 0  22.5 0  C 14.02734375 0  6.64892578125 2.19287109375  2.8125 5.43603515625  C 1.01953125 6.9521484375  0 8.6923828125  0 10.546875  L 0 26.62646484375  C 0 26.6572265625  0 26.68798828125  0.00439453125 26.71435546875  L 0 26.71435546875  L 0 34.44873046875  C 0 40.271484375  10.072265625 44.99560546875  22.5 44.99560546875  C 34.927734375 44.99560546875  45 40.271484375  45 34.44873046875  L 45 26.71875  L 44.99560546875 26.71875  C 45 26.6396484375  45 26.56494140625  45 26.48583984375  L 45 10.546875  Z M 2.8125 19.1337890625  L 2.8125 15.65771484375  C 6.64892578125 18.90087890625  14.02734375 21.09375  22.5 21.09375  C 30.97265625 21.09375  38.35107421875 18.90087890625  42.1875 15.65771484375  L 42.1875 19.13818359375  C 41.40087890625 19.6435546875  40.53955078125 20.11376953125  39.603515625 20.55322265625  C 34.9892578125 22.71533203125  28.916015625 23.90625  22.5 23.90625  C 16.083984375 23.90625  10.0107421875 22.71533203125  5.396484375 20.548828125  C 4.46044921875 20.109375  3.59912109375 19.63916015625  2.8125 19.1337890625  Z M 2.8125 27.10546875  L 2.8125 23.625  C 6.64892578125 26.8681640625  14.02734375 29.06103515625  22.5 29.06103515625  C 30.97265625 29.06103515625  38.35107421875 26.8681640625  42.1875 23.625  L 42.1875 27.10546875  C 41.40087890625 27.6064453125  40.53955078125 28.0810546875  39.603515625 28.5205078125  C 34.9892578125 30.6826171875  28.91162109375 31.87353515625  22.5 31.87353515625  C 16.08837890625 31.87353515625  10.0107421875 30.6826171875  5.396484375 28.5205078125  C 4.46044921875 28.0810546875  3.59912109375 27.61083984375  2.8125 27.10546875  Z M 42.08203125 35.14306640625  C 41.32177734375 35.6220703125  40.49560546875 36.0703125  39.603515625 36.48779296875  C 34.9892578125 38.64990234375  28.91162109375 39.8408203125  22.5 39.8408203125  C 16.08837890625 39.8408203125  10.0107421875 38.64990234375  5.396484375 36.48779296875  C 4.50439453125 36.0703125  3.67822265625 35.61767578125  2.91796875 35.14306640625  C 2.84765625 34.91015625  2.8125 34.681640625  2.8125 34.453125  L 2.8125 31.5966796875  C 6.64892578125 34.83984375  14.02734375 37.03271484375  22.5 37.03271484375  C 30.97265625 37.03271484375  38.35107421875 34.83544921875  42.1875 31.5966796875  L 42.1875 34.453125  C 42.1875 34.67724609375  42.15234375 34.91015625  42.08203125 35.14306640625  Z " fill-rule="nonzero" fill="#25e3c9" stroke="none" transform="matrix(1 0 0 1 689 930 )" />
  </g>
</svg>