<?xml version="1.0" encoding="utf-8"?>
<svg version="1.1" xmlns:xlink="http://www.w3.org/1999/xlink" width="48px" height="46px" xmlns="http://www.w3.org/2000/svg">
  <g transform="matrix(1 0 0 1 -1013 -931 )">
    <path d="M 38.423589375 14.99375  L 37.092339375 16.3296875  C 36.857964375 16.5640625  36.801714375 16.925  36.961089375 17.215625  C 37.781401875 18.7109375  38.245464375 20.4265625  38.245464375 22.25  C 38.245464375 24.884375  37.275151875 27.29375  35.672026875 29.140625  C 35.461089375 29.3796875  35.432964375 29.73125  35.587651875 30.003125  L 37.425151875 33.1859375  C 37.579839375 33.453125  37.875151875 33.59375  38.179839375 33.5515625  C 38.461089375 33.5140625  38.747026875 33.4953125  39.037651875 33.4953125  C 42.323589375 33.51875  45.037651875 36.29375  44.995464375 39.575  C 44.953276875 42.8421875  42.304839375 45.4765625  39.037651875 45.5  C 35.714214375 45.5234375  32.995464375 42.8234375  32.995464375 39.5  C 32.995464375 37.7140625  33.778276875 36.1109375  35.015776875 35.009375  L 33.281401875 32.009375  C 33.084526875 31.6671875  32.657964375 31.540625  32.301714375 31.709375  C 30.928276875 32.375  29.381401875 32.75  27.745464375 32.75  C 26.493901875 32.75  25.293901875 32.5296875  24.182964375 32.13125  C 23.840776875 32.009375  23.461089375 32.1453125  23.278276875 32.459375  L 22.111089375 34.4796875  C 21.965776875 34.7328125  21.979839375 35.046875  22.148589375 35.2859375  C 22.851714375 36.2796875  23.259526875 37.49375  23.250151875 38.80625  C 23.217339375 42.0640625  20.554839375 44.721875  17.297026875 44.75  C 13.940776875 44.778125  11.212651875 42.0453125  11.245464375 38.684375  C 11.282964375 35.4171875  13.964214375 32.7546875  17.236089375 32.75  C 17.798589375 32.75  18.347026875 32.825  18.867339375 32.9703125  C 19.195464375 33.0640625  19.547026875 32.91875  19.720464375 32.6234375  L 20.737651875 30.8609375  C 20.911089375 30.5609375  20.854839375 30.1765625  20.601714375 29.9421875  C 19.026714375 28.4796875  17.906401875 26.5390625  17.461089375 24.3546875  C 17.390776875 24.003125  17.086089375 23.75  16.725151875 23.75  L 12.412651875 23.75  C 12.089214375 23.75  11.798589375 23.9609375  11.700151875 24.2703125  C 10.912651875 26.665625  8.657964375 28.390625  6.000151875 28.390625  C 2.672026875 28.390625  -0.023285625 25.68125  0.000151875 22.3484375  C 0.018901875 19.0390625  2.747026875 16.3578125  6.056401875 16.390625  C 8.597026875 16.4140625  10.762651875 18.021875  11.611089375 20.271875  C 11.718901875 20.5625  12.000151875 20.75  12.309526875 20.75  L 16.720464375 20.75  C 17.076714375 20.75  17.386089375 20.5015625  17.456401875 20.1546875  C 17.972026875 17.6140625  19.401714375 15.40625  21.393901875 13.8921875  C 21.693901875 13.6625  21.778276875 13.2453125  21.590776875 12.9171875  L 21.487651875 12.7390625  C 21.323589375 12.4578125  21.004839375 12.3171875  20.686089375 12.378125  C 20.273589375 12.4625  19.842339375 12.5046875  19.401714375 12.4953125  C 16.143901875 12.4484375  13.453276875 9.678125  13.495464375 6.4203125  C 13.537651875 3.125  16.232964375 0.471875000000002  19.542339375 0.500000000000002  C 22.790776875 0.528125000000002  25.448589375 3.171875  25.495464375 6.415625  C 25.514214375 7.896875  24.998589375 9.2609375  24.122026875 10.315625  C 23.920464375 10.559375  23.887651875 10.9015625  24.047026875 11.1734375  L 24.356401875 11.7078125  C 24.525151875 11.9984375  24.862651875 12.14375  25.186089375 12.059375  C 26.006401875 11.853125  26.864214375 11.7453125  27.745464375 11.7453125  C 30.197026875 11.7453125  32.451714375 12.584375  34.242339375 13.9953125  C 34.542339375 14.2296875  34.968901875 14.20625  35.236089375 13.9390625  L 36.370464375 12.8046875  C 36.590776875 12.584375  36.651714375 12.2515625  36.525151875 11.9703125  C 36.182964375 11.215625  35.995464375 10.3765625  35.995464375 9.4953125  C 35.995464375 6.18125  38.681401875 3.4953125  41.995464375 3.4953125  C 45.304839375 3.4953125  47.995464375 6.1859375  47.995464375 9.4953125  C 47.995464375 12.809375  45.309526875 15.4953125  41.995464375 15.4953125  C 41.025151875 15.4953125  40.111089375 15.265625  39.300151875 14.8578125  C 39.009526875 14.7125  38.657964375 14.7640625  38.423589375 14.99375  Z " fill-rule="nonzero" fill="#25e3c9" stroke="none" transform="matrix(1 0 0 1 1013 931 )" />
  </g>
</svg>