<?xml version="1.0" encoding="utf-8"?>
<svg version="1.1" xmlns:xlink="http://www.w3.org/1999/xlink" width="42px" height="40px" xmlns="http://www.w3.org/2000/svg">
  <g transform="matrix(1 0 0 1 -1177 -934 )">
    <path d="M 31.6 20  C 31.6 22.2176  30.8464 24.26  29.584 25.8872  L 33.6472 29.9504  C 34.3036984171689 29.6359990073072  35.0403380100981 29.5288514301539  35.7592 29.6432  C 37.7435512806707 26.8195691392934  38.8057149903508 23.4511604688161  38.8 20  C 38.8 16.412  37.6744 13.088  35.7592 10.3568  C 35.1243389686257 10.2724101075531  34.5129807430681 10.0610058613323  33.9616 9.7352  L 29.584 14.1128  C 30.8464 15.74  31.6 17.7824  31.6 20  Z M 31.9504 31.6472  L 27.8872 27.584  C 26.2030436927159 28.8901279534792  24.1322984374281 29.5990006312113  22.0010188456747 29.5990006312113  C 17.6230151664602 29.5990006312113  13.7989973771457 26.6384419787998  12.7024 22.4  L 7.396 22.4  C 7.1032 23.2256  6.5176 23.912  5.764 24.3392  C 7.73120781618318 31.6893168825275  14.3909315523534 36.8010139787305  21.9997504343395 36.8010139787305  C 25.4502657628725 36.8010139787305  28.8171685688536 35.7389985712222  31.6432 33.7592  C 31.5314313297631 33.0403231068673  31.638467757032 32.3044476693938  31.9504 31.6472  Z M 41.2 20  C 41.2 24.0032  39.976 27.7184  37.8808 30.7952  C 38.4707187722716 31.4551305887702  38.7968292164803 32.3092667794819  38.7968292164803 33.1944292164803  C 38.7968292164803 35.1826543158712  37.1850543158712 36.7944292164803  35.1968292164804 36.7944292164803  C 34.3116667794819 36.7944292164803  33.4575305887702 36.4683187722715  32.7976 35.8784  C 29.6132596029435 38.0423166195865  25.8521020089322 39.1993295186857  22.0020943594789 39.1993295186857  C 13.2256770884875 39.1993295186857  5.56555202512537 33.2504140248185  3.3928 24.7472  C 1.6655319371908 24.4499655799105  0.403327037979685 22.9520036472419  0.403327037979685 21.1993475882027  C 0.403327037979685 19.6247373507112  1.42665745280117 18.2328393295206  2.9296 17.7632  C 4.06462216336936 8.0900539245928  12.2616507643443 0.798607901140629  22.00115949464 0.798607901140629  C 25.5386926792188 0.798607901140629  29.0074756568195 1.7758099426114  32.0248 3.6224  C 32.8023552313003 1.90564964663106  34.512599704048 0.802771973572526  36.3972280264275 0.802771973572526  C 39.0481948256153 0.802771973572526  41.1972280264275 2.95180517438472  41.1972280264275 5.60277197357253  C 41.1972280264275 7.48740029595198  40.0943503533689 9.19764476869974  38.3776 9.9752  C 40.2283082003351 12.9910793639811  41.2053909977082 16.4615511706373  41.2 20  Z M 21.9999999407226 10.3989331700895  C 24.1319317476436 10.3989331700895  26.2032107900969 11.1085928062416  27.8872 12.416  L 32.2648 8.0384  C 31.9381531500113 7.48720320567758  31.7259291121418 6.87583472735341  31.6408 6.2408  C 28.8154233468113 4.26122395506483  25.4491842956765 3.19931414860228  21.9993329148102 3.19931414860228  C 13.5488480356507 3.19931414860228  6.41314854662781 9.47545188253984  5.3344 17.8568  C 6.2944 18.2408  7.0504 19.0232  7.396 20  L 12.4 20  C 12.3999999604817 19.9996443900504  12.3999999407226 19.9992887800414  12.3999999407226 19.9989331700895  C 12.3999999407226 14.6969995717139  16.698066342347 10.3989331700895  21.9999999407226 10.3989331700895  Z " fill-rule="nonzero" fill="#25e3c9" stroke="none" transform="matrix(1 0 0 1 1177 934 )" />
  </g>
</svg>