<?xml version="1.0" encoding="utf-8"?>
<svg version="1.1" xmlns:xlink="http://www.w3.org/1999/xlink" width="400px" height="158px" xmlns="http://www.w3.org/2000/svg">
  <defs>
    <linearGradient gradientUnits="userSpaceOnUse" x1="200" y1="158" x2="200" y2="0" id="LinearGradient1115">
      <stop id="Stop1116" stop-color="#051026" stop-opacity="0.4" offset="0" />
      <stop id="Stop1117" stop-color="#00f6ff" stop-opacity="0.4" offset="1" />
    </linearGradient>
  </defs>
  <g transform="matrix(1 0 0 1 -102 -535 )">
    <path d="M 1 158  L 1 24.4404931418168  C 0.979250262680694 24.4404931418168  40.902419310045 2.15831541430987  56.1182871791233 21.2605048832887  C 71.3341550482018 40.3626943522672  101.659372192315 68.9984886203134  112.510484025485 61.0103581148908  C 123.361595858655 53.022227609468  157.084129572779 16.5652522195718  170.155840801766 14.9005283662323  C 183.227552030753 13.2358045128926  205.74558281147 -10.7587968918316  229.054357507966 41.9304285637218  C 252.363132204462 94.619654019275  281.279797587347 114.00963242565  285.446554354328 113.480164380606  C 298.684935853994 111.799540585973  329.770821075568 85.8619663552885  343.091911130609 75.3203052782676  C 356.41300118565 64.7786442012467  399.484107976971 0.590581202855446  399 0.590581202855446  L 399 158  L 1 158  Z " fill-rule="nonzero" fill="url(#LinearGradient1115)" stroke="none" transform="matrix(1 0 0 1 102 535 )" />
  </g>
</svg>