<?xml version="1.0" encoding="utf-8"?>
<svg version="1.1" xmlns:xlink="http://www.w3.org/1999/xlink" width="84px" height="84px" xmlns="http://www.w3.org/2000/svg">
  <g transform="matrix(1 0 0 1 -1441 -669 )">
    <path d="M 1443 711  A 40 40 0 0 1 1483 671 A 40 40 0 0 1 1523 711 A 40 40 0 0 1 1483 751 A 40 40 0 0 1 1443 711 Z " fill-rule="nonzero" fill="#ffffff" stroke="none" fill-opacity="0" />
    <path d="M 1442 711  A 41 41 0 0 1 1483 670 A 41 41 0 0 1 1524 711 A 41 41 0 0 1 1483 752 A 41 41 0 0 1 1442 711 Z " stroke-width="2" stroke="#2391ff" fill="none" stroke-opacity="0.498039215686275" />
  </g>
</svg>