<?xml version="1.0" encoding="utf-8"?>
<svg version="1.1" xmlns:xlink="http://www.w3.org/1999/xlink" width="84px" height="84px" xmlns="http://www.w3.org/2000/svg">
  <g transform="matrix(1 0 0 1 -1553 -669 )">
    <path d="M 1555 711  A 40 40 0 0 1 1595 671 A 40 40 0 0 1 1635 711 A 40 40 0 0 1 1595 751 A 40 40 0 0 1 1555 711 Z " fill-rule="nonzero" fill="#ffffff" stroke="none" fill-opacity="0" />
    <path d="M 1554 711  A 41 41 0 0 1 1595 670 A 41 41 0 0 1 1636 711 A 41 41 0 0 1 1595 752 A 41 41 0 0 1 1554 711 Z " stroke-width="2" stroke="#ef742f" fill="none" stroke-opacity="0.498039215686275" />
  </g>
</svg>