<?xml version="1.0" encoding="utf-8"?>
<svg version="1.1" xmlns:xlink="http://www.w3.org/1999/xlink" width="84px" height="84px" xmlns="http://www.w3.org/2000/svg">
  <g transform="matrix(1 0 0 1 -1661 -669 )">
    <path d="M 1663 711  A 40 40 0 0 1 1703 671 A 40 40 0 0 1 1743 711 A 40 40 0 0 1 1703 751 A 40 40 0 0 1 1663 711 Z " fill-rule="nonzero" fill="#ffffff" stroke="none" fill-opacity="0" />
    <path d="M 1662 711  A 41 41 0 0 1 1703 670 A 41 41 0 0 1 1744 711 A 41 41 0 0 1 1703 752 A 41 41 0 0 1 1662 711 Z " stroke-width="2" stroke="#539da2" fill="none" stroke-opacity="0.498039215686275" />
  </g>
</svg>