<?xml version="1.0" encoding="utf-8"?>
<svg version="1.1" xmlns:xlink="http://www.w3.org/1999/xlink" width="356px" height="52px" xmlns="http://www.w3.org/2000/svg">
  <g transform="matrix(1 0 0 1 -1495.5 -902.5 )">
    <path d="M 0.210158026284944 49.9131342001629  L 2.47586698139071 42.9017784140398  L 10.3348586811537 42.6110758997837  L 15.828230076251 40.0731520077945  L 21.571555128317 39.9336022571538  L 25.756964259527 36.2018224085597  L 29.4379087169948 26.5001355870509  L 31.8462980905952 23.0289531379678  L 38.0996968746247 30.2695468290761  L 43.2246232578361 31.3715194667199  L 46.9756809430648 29.2704333334777  L 51.4310260011564 19.8588218363344  L 64.4752414600052 38.7914894665169  L 69.8171682831382 30.7007398788087  L 75.9415587280866 34.7624216098163  L 79.2428400572271 28.5698622257669  L 79.8868300542144 25.5988637143736  L 84.8582084686286 22.564832618983  L 87.4257548692472 18.4416862787045  L 90.2632371967466 24.2011710433497  L 89.7938291368848 27.9828124882401  L 92.4115064953523 28.5422658705841  L 94.442686703597 26.8588882044284  L 99.6180946107968 0.205826616889794  L 104.678867390607 35.154101696446  L 109.073213940546 30.1723323960456  L 109.073213940546 27.3273990526468  L 112.829530117857 24.3874464408342  L 114.588320436248 22.1339531641958  L 117.825097595849 18.7446189958257  L 125.519323210372 22.2785204339607  L 129.349608842972 24.1992894736782  L 132.441602187244 22.9558855157222  L 137.834711666643 28.5444610352008  L 145.679330154715 17.5607980774691  L 147.974486665481 23.5504615319353  L 152.892228460658 27.694305138601  L 157.659927948425 26.3671713302607  L 159.887074628263 23.5498343420447  L 163.452332259924 22.2772660541797  L 163.901407483735 19.858194646444  L 167.970078090723 13.9099257247522  L 173.942673397569 15.5992616948678  L 177.156663758146 11.2776097542396  L 183.953790623464 44.9909479393618  L 189.792469665286 38.0567365097727  L 197.48669527981 37.5716051294554  L 206.706584730419 42.4934777953113  L 210.288318970605 23.2945680566031  L 214.781875737826 24.3752162379691  L 216.896490687107 22.117332632097  L 218.088415559048 22.8386010061951  L 220.323975826217 22.619084544513  L 221.601088269889 23.5912288748191  L 225.149518726888 24.2243770692991  L 225.212971198012 26.3725024443301  L 229.45482147757 27.7344452915943  L 234.754680364045 27.4330805491994  L 235.033029878258 23.8370873119029  L 236.365181205723 9.70869424310376  L 240.344808013454 9.95235751557084  L 245.002079167497 13.1939884647235  L 256.654547055285 6.56490491687225  L 263.134762131122 11.2779233491849  L 267.610440025264 11.2779233491849  L 274.093109064072 17.5607980774691  L 282.88776178831 18.7446189958257  L 292.727802738468 18.7446189958257  L 295.737413040122 13.9099257247522  L 302.632347858167 21.4719542347519  L 308.357794037154 27.9812445135138  L 315.794002973516 15.5995752898131  C 315.794002973516 15.5995752898131  322.599192860027 20.1818246299523  323.380955349566 19.858194646444  C 324.162717839104 19.5345646629356  330.666420846241 14.4772189807275  330.666420846241 14.4772189807275  L 336.974507947924 18.4401183039782  L 344.514133895235 22.1339531641958  L 350.776296832734 18.7446189958257  L 353.726661456929 15.5995752898131  L 353.334027381466 15.5995752898131  " stroke-width="1.99446385185364" stroke="#4ad991" fill="none" transform="matrix(1 0 0 1 1496 903 )" />
  </g>
</svg>