<?xml version="1.0" encoding="utf-8"?>
<svg version="1.1" xmlns:xlink="http://www.w3.org/1999/xlink" width="22px" height="22px" xmlns="http://www.w3.org/2000/svg">
  <g transform="matrix(1 0 0 1 -46 -669 )">
    <path d="M 0 11  C 0 17.0751  4.92486 22  11 22  C 17.0751 22  22 17.0751  22 11  C 22 4.92486  17.0751 0  11 0  C 4.92486 0  0 4.92486  0 11  Z M 2.19234 7.35175  C 2.9139 5.60977  4.13581 4.12086  5.70356 3.07333  C 7.27131 2.02579  9.11448 1.46666  11 1.46666  L 11 11  L 4.25892 17.7411  C 2.92565 16.4079  2.01769 14.7092  1.64985 12.8599  C 1.282 11.0106  1.47079 9.09374  2.19234 7.35175  Z " fill-rule="nonzero" fill="#87fbfc" stroke="none" fill-opacity="0.8" transform="matrix(1 0 0 1 46 669 )" />
  </g>
</svg>