<?xml version="1.0" encoding="utf-8"?>
<svg version="1.1" xmlns:xlink="http://www.w3.org/1999/xlink" width="22px" height="22px" xmlns="http://www.w3.org/2000/svg">
  <g transform="matrix(1 0 0 1 -46 -708 )">
    <path d="M 0 11  C 0 17.0751  4.92486 22  11 22  C 17.0751 22  22 17.0751  22 11  C 22 4.92492  17.0751 0  11 0  C 4.92486 0  0 4.92492  0 11  Z M 1.59988 9.41189  C 1.9752 7.19033  3.12523 5.17337  4.84597 3.71903  C 6.56671 2.26468  8.74695 1.46667  11 1.46667  L 11 11  L 7.86811 20.0042  C 5.74011 19.2641  3.94302 17.794  2.7956 15.8551  C 1.64817 13.9162  1.22455 11.6335  1.59988 9.41189  Z " fill-rule="nonzero" fill="#87fbfc" stroke="none" fill-opacity="0.8" transform="matrix(1 0 0 1 46 708 )" />
  </g>
</svg>