<?xml version="1.0" encoding="utf-8"?>
<svg version="1.1" xmlns:xlink="http://www.w3.org/1999/xlink" width="22px" height="22px" xmlns="http://www.w3.org/2000/svg">
  <g transform="matrix(1 0 0 1 -46 -747 )">
    <path d="M 0 11  C 0 17.0751  4.92486 22  11 22  C 17.0751 22  22 17.0751  22 11  C 22 4.92492  17.0751 0  11 0  C 4.92486 0  0 4.92492  0 11  Z M 3.07333 5.70357  C 3.94432 4.4  5.12337 3.33139  6.50602 2.59233  C 7.88866 1.85328  9.43224 1.46667  11 1.46667  L 11 11  L 17.7411 17.7411  C 16.6324 18.8496  15.2677 19.6677  13.7674 20.1228  C 12.2671 20.5779  10.6778 20.6559  9.14015 20.3501  C 7.6025 20.0443  6.16402 19.364  4.95211 18.3694  C 3.74022 17.3747  2.79231 16.0967  2.19234 14.6482  C 1.59239 13.1999  1.3589 11.6258  1.51257 10.0656  C 1.66624 8.50535  2.20232 7.00715  3.07333 5.70357  Z " fill-rule="nonzero" fill="#87fbfc" stroke="none" fill-opacity="0.8" transform="matrix(1 0 0 1 46 747 )" />
  </g>
</svg>