<?xml version="1.0" encoding="utf-8"?>
<svg version="1.1" xmlns:xlink="http://www.w3.org/1999/xlink" width="14px" height="14px" xmlns="http://www.w3.org/2000/svg">
  <g transform="matrix(1 0 0 1 -403 -246 )">
    <path d="M 410 246  C 413.92 246  417 249.08  417 253  C 417 256.92  413.92 260  410 260  C 406.08 260  403 256.92  403 253  C 403 249.08  406.08 246  410 246  Z " fill-rule="nonzero" fill="#ffffff" stroke="none" fill-opacity="0" />
    <path d="M 410 246.5  C 413.64 246.5  416.5 249.36  416.5 253  C 416.5 256.64  413.64 259.5  410 259.5  C 406.36 259.5  403.5 256.64  403.5 253  C 403.5 249.36  406.36 246.5  410 246.5  Z " stroke-width="1" stroke="#1890ff" fill="none" />
  </g>
</svg>