<?xml version="1.0" encoding="utf-8"?>
<svg version="1.1" xmlns:xlink="http://www.w3.org/1999/xlink" width="25px" height="20px" xmlns="http://www.w3.org/2000/svg">
  <g transform="matrix(1 0 0 1 -45 -600 )">
    <path d="M 61.8167184270003 601  C 61.8167184270003 601  63.3393969338687 601.609071402747  63.3393969338687 601.609071402747  C 63.3393969338687 601.609071402747  68.8117416712074 610  68.8117416712074 610  C 68.8117416712074 610  63.3393969338687 618.390928597253  63.3393969338687 618.390928597253  C 63.3393969338687 618.390928597253  61.8167184270003 619  61.8167184270003 619  C 61.8167184270003 619  50 619  50 619  C 47.76 619  46 617.24  46 615  C 46 615  46 605  46 605  C 46 602.76  47.76 601  50 601  C 50 601  61.8167184270003 601  61.8167184270003 601  Z " fill-rule="nonzero" fill="#3d8fff" stroke="none" />
    <path d="M 61.9083592135001 600.5  C 61.9083592135001 600.5  63.6696984669343 601.204535701374  63.6696984669343 601.204535701374  C 63.6696984669343 601.204535701374  69.4058708356037 610  69.4058708356037 610  C 69.4058708356037 610  63.6696984669343 618.795464298626  63.6696984669343 618.795464298626  C 63.6696984669343 618.795464298626  61.9083592135001 619.5  61.9083592135001 619.5  C 61.9083592135001 619.5  50 619.5  50 619.5  C 47.48 619.5  45.5 617.52  45.5 615  C 45.5 615  45.5 605  45.5 605  C 45.5 602.48  47.48 600.5  50 600.5  C 50 600.5  61.9083592135001 600.5  61.9083592135001 600.5  Z " stroke-width="1" stroke="#02a6b5" fill="none" stroke-opacity="0.149019607843137" />
  </g>
</svg>