<?xml version="1.0" encoding="utf-8"?>
<svg version="1.1" xmlns:xlink="http://www.w3.org/1999/xlink" width="25px" height="20px" xmlns="http://www.w3.org/2000/svg">
  <g transform="matrix(1 0 0 1 -45 -495 )">
    <path d="M 61.8167184270003 496  C 61.8167184270003 496  63.3393969338687 496.609071402747  63.3393969338687 496.609071402747  C 63.3393969338687 496.609071402747  68.8117416712074 505  68.8117416712074 505  C 68.8117416712074 505  63.3393969338687 513.390928597253  63.3393969338687 513.390928597253  C 63.3393969338687 513.390928597253  61.8167184270003 514  61.8167184270003 514  C 61.8167184270003 514  50 514  50 514  C 47.76 514  46 512.24  46 510  C 46 510  46 500  46 500  C 46 497.76  47.76 496  50 496  C 50 496  61.8167184270003 496  61.8167184270003 496  Z " fill-rule="nonzero" fill="#ff3232" stroke="none" />
    <path d="M 61.9083592135001 495.5  C 61.9083592135001 495.5  63.6696984669343 496.204535701374  63.6696984669343 496.204535701374  C 63.6696984669343 496.204535701374  69.4058708356037 505  69.4058708356037 505  C 69.4058708356037 505  63.6696984669343 513.795464298626  63.6696984669343 513.795464298626  C 63.6696984669343 513.795464298626  61.9083592135001 514.5  61.9083592135001 514.5  C 61.9083592135001 514.5  50 514.5  50 514.5  C 47.48 514.5  45.5 512.52  45.5 510  C 45.5 510  45.5 500  45.5 500  C 45.5 497.48  47.48 495.5  50 495.5  C 50 495.5  61.9083592135001 495.5  61.9083592135001 495.5  Z " stroke-width="1" stroke="#02a6b5" fill="none" stroke-opacity="0.149019607843137" />
  </g>
</svg>