<?xml version="1.0" encoding="utf-8"?>
<svg version="1.1" xmlns:xlink="http://www.w3.org/1999/xlink" width="12px" height="12px" xmlns="http://www.w3.org/2000/svg">
  <g transform="matrix(1 0 0 1 -1704 -191 )">
    <path d="M 1710 193  C 1712.24 193  1714 194.76  1714 197  C 1714 199.24  1712.24 201  1710 201  C 1707.76 201  1706 199.24  1706 197  C 1706 194.76  1707.76 193  1710 193  Z " fill-rule="nonzero" fill="#ffffff" stroke="none" fill-opacity="0" />
    <path d="M 1710 192.5  C 1712.52 192.5  1714.5 194.48  1714.5 197  C 1714.5 199.52  1712.52 201.5  1710 201.5  C 1707.48 201.5  1705.5 199.52  1705.5 197  C 1705.5 194.48  1707.48 192.5  1710 192.5  Z " stroke-width="3" stroke="#1e67f2" fill="none" />
  </g>
</svg>