<?xml version="1.0" encoding="utf-8"?>
<svg version="1.1" xmlns:xlink="http://www.w3.org/1999/xlink" width="12px" height="12px" xmlns="http://www.w3.org/2000/svg">
  <g transform="matrix(1 0 0 1 -1704 -281 )">
    <path d="M 1710 283  C 1712.24 283  1714 284.76  1714 287  C 1714 289.24  1712.24 291  1710 291  C 1707.76 291  1706 289.24  1706 287  C 1706 284.76  1707.76 283  1710 283  Z " fill-rule="nonzero" fill="#ffffff" stroke="none" fill-opacity="0" />
    <path d="M 1710 282.5  C 1712.52 282.5  1714.5 284.48  1714.5 287  C 1714.5 289.52  1712.52 291.5  1710 291.5  C 1707.48 291.5  1705.5 289.52  1705.5 287  C 1705.5 284.48  1707.48 282.5  1710 282.5  Z " stroke-width="3" stroke="#00b7ee" fill="none" />
  </g>
</svg>