<?xml version="1.0" encoding="utf-8"?>
<svg version="1.1" xmlns:xlink="http://www.w3.org/1999/xlink" width="12px" height="12px" xmlns="http://www.w3.org/2000/svg">
  <g transform="matrix(1 0 0 1 -1704 -326 )">
    <path d="M 1710 328  C 1712.24 328  1714 329.76  1714 332  C 1714 334.24  1712.24 336  1710 336  C 1707.76 336  1706 334.24  1706 332  C 1706 329.76  1707.76 328  1710 328  Z " fill-rule="nonzero" fill="#ffffff" stroke="none" fill-opacity="0" />
    <path d="M 1710 327.5  C 1712.52 327.5  1714.5 329.48  1714.5 332  C 1714.5 334.52  1712.52 336.5  1710 336.5  C 1707.48 336.5  1705.5 334.52  1705.5 332  C 1705.5 329.48  1707.48 327.5  1710 327.5  Z " stroke-width="3" stroke="#ffe400" fill="none" />
  </g>
</svg>