<?xml version="1.0" encoding="utf-8"?>
<svg version="1.1" xmlns:xlink="http://www.w3.org/1999/xlink" width="12px" height="12px" xmlns="http://www.w3.org/2000/svg">
  <g transform="matrix(1 0 0 1 -1704 -505 )">
    <path d="M 1710 507  C 1712.24 507  1714 508.76  1714 511  C 1714 513.24  1712.24 515  1710 515  C 1707.76 515  1706 513.24  1706 511  C 1706 508.76  1707.76 507  1710 507  Z " fill-rule="nonzero" fill="#ffffff" stroke="none" fill-opacity="0" />
    <path d="M 1710 506.5  C 1712.52 506.5  1714.5 508.48  1714.5 511  C 1714.5 513.52  1712.52 515.5  1710 515.5  C 1707.48 515.5  1705.5 513.52  1705.5 511  C 1705.5 508.48  1707.48 506.5  1710 506.5  Z " stroke-width="3" stroke="#22a4f8" fill="none" />
  </g>
</svg>