<?xml version="1.0" encoding="utf-8"?>
<svg version="1.1" xmlns:xlink="http://www.w3.org/1999/xlink" width="12px" height="12px" xmlns="http://www.w3.org/2000/svg">
  <g transform="matrix(1 0 0 1 -1704 -595 )">
    <path d="M 1710 597  C 1712.24 597  1714 598.76  1714 601  C 1714 603.24  1712.24 605  1710 605  C 1707.76 605  1706 603.24  1706 601  C 1706 598.76  1707.76 597  1710 597  Z " fill-rule="nonzero" fill="#ffffff" stroke="none" fill-opacity="0" />
    <path d="M 1710 596.5  C 1712.52 596.5  1714.5 598.48  1714.5 601  C 1714.5 603.52  1712.52 605.5  1710 605.5  C 1707.48 605.5  1705.5 603.52  1705.5 601  C 1705.5 598.48  1707.48 596.5  1710 596.5  Z " stroke-width="3" stroke="#f97b00" fill="none" />
  </g>
</svg>