<?xml version="1.0" encoding="utf-8"?>
<svg version="1.1" xmlns:xlink="http://www.w3.org/1999/xlink" width="142px" height="125px" xmlns="http://www.w3.org/2000/svg">
  <defs>
    <path d="M 0 0  L 122 0  L 122 105  L 0 105  Z " fill-rule="evenodd" fill="black" id="path2219" />
    <clipPath id="clip2220">
      <use xlink:href="#path2219" />
    </clipPath>
    <defs>
      <linearGradient id="PSgrad_0" x1="0%" x2="0%" y1="100%" y2="0%">
        <stop offset="0%" stop-color="rgb(0,206,255)" stop-opacity="1" />
        <stop offset="100%" stop-color="rgb(0,255,238)" stop-opacity="1" />
      </linearGradient>
    </defs>
    <path fill-rule="evenodd" fill="url(#PSgrad_0)" d="M36.202,12.983 L12.009,52.498 L36.202,92.014 L83.822,92.014 L108.016,52.498 L103.408,44.899 L98.608,52.498 L79.406,84.035 L40.619,84.035 L21.418,52.498 L40.619,20.962 L79.406,20.962 L60.012,52.498 L30.634,52.498 L45.227,76.246 L74.798,76.246 L93.999,44.899 L98.608,37.300 L83.822,12.983 L36.202,12.983 Z" />
    <filter x="-50.00%" y="-50.00%" width="200.00%" height="200.00%" filterUnits="objectBoundingBox" id="filter2221">
      <feColorMatrix type="matrix" values="1 0 0 0 0  0 1 0 0 0  0 0 1 0 0  0 0 0 1 0  " in="SourceGraphic" />
    </filter>
    <filter x="1136px" y="580px" width="142px" height="125px" filterUnits="userSpaceOnUse" id="filter2222">
      <feOffset dx="0" dy="0" in="SourceAlpha" result="shadowOffsetInner" />
      <feGaussianBlur stdDeviation="5" in="shadowOffsetInner" result="shadowGaussian" />
      <feComposite in2="shadowGaussian" operator="atop" in="SourceAlpha" result="shadowComposite" />
      <feColorMatrix type="matrix" values="0 0 0 0 0.0235294117647059  0 0 0 0 0.933333333333333  0 0 0 0 0.941176470588235  0 0 0 0.498039215686275 0  " in="shadowComposite" />
    </filter>
    <g id="widget2223">
      <g transform="matrix(1 0 0 1 1146 590 )" clip-path="url(#clip2220)" filter="url(#filter2221)">
        <path fill-rule="evenodd" fill="url(#PSgrad_0)" d="M36.202,12.983 L12.009,52.498 L36.202,92.014 L83.822,92.014 L108.016,52.498 L103.408,44.899 L98.608,52.498 L79.406,84.035 L40.619,84.035 L21.418,52.498 L40.619,20.962 L79.406,20.962 L60.012,52.498 L30.634,52.498 L45.227,76.246 L74.798,76.246 L93.999,44.899 L98.608,37.300 L83.822,12.983 L36.202,12.983 Z" />
      </g>
    </g>
  </defs>
  <g transform="matrix(1 0 0 1 -1136 -580 )">
    <use xlink:href="#widget2223" filter="url(#filter2222)" />
    <use xlink:href="#widget2223" />
  </g>
</svg>