<?xml version="1.0" encoding="utf-8"?>
<svg version="1.1" xmlns:xlink="http://www.w3.org/1999/xlink" width="117px" height="105px" xmlns="http://www.w3.org/2000/svg">
  <defs>
    <path d="M 0 0  L 97 0  L 97 85  L 0 85  Z " fill-rule="evenodd" fill="black" id="path2214" />
    <clipPath id="clip2215">
      <use xlink:href="#path2214" />
    </clipPath>
    <defs>
      <linearGradient id="PSgrad_0" x1="0%" x2="0%" y1="100%" y2="0%">
        <stop offset="0%" stop-color="rgb(0,206,255)" stop-opacity="1" />
        <stop offset="100%" stop-color="rgb(0,255,238)" stop-opacity="1" />
      </linearGradient>
    </defs>
    <path fill-rule="evenodd" fill="url(#PSgrad_0)" d="M19.606,41.371 C19.020,42.318 19.028,43.348 19.538,44.157 L26.590,54.734 C28.417,56.971 30.563,54.843 30.692,54.709 L35.635,47.684 C38.062,44.270 42.760,43.444 46.192,45.829 C47.836,46.959 48.959,48.706 49.310,50.678 C49.661,52.650 49.210,54.681 48.059,56.316 L34.285,75.875 C32.662,78.135 30.046,79.459 27.276,79.423 C24.504,79.388 21.923,77.997 20.358,75.695 L1.601,47.566 C-0.504,44.687 -0.537,40.774 1.520,37.860 L25.664,3.584 C28.357,-0.216 33.578,-1.141 37.398,1.505 C39.223,2.761 40.471,4.702 40.860,6.893 C41.250,9.083 40.749,11.340 39.470,13.155 L19.602,41.371 L19.606,41.371 ZM95.480,47.131 L71.343,81.411 C68.649,85.214 63.422,86.137 59.602,83.486 C57.776,82.229 56.527,80.287 56.137,78.096 C55.747,75.904 56.249,73.647 57.529,71.831 L77.390,43.624 C77.984,42.688 77.980,41.651 77.466,40.837 L70.414,30.265 C68.611,28.048 66.493,30.094 66.319,30.277 L61.365,37.315 C58.937,40.727 54.239,41.551 50.807,39.165 C49.165,38.035 48.042,36.289 47.691,34.318 C47.340,32.347 47.790,30.316 48.940,28.683 L62.714,9.116 C64.339,6.854 66.955,5.530 69.727,5.566 C72.500,5.603 75.081,6.995 76.646,9.299 L95.399,37.424 C97.501,40.313 97.537,44.210 95.480,47.131 L95.480,47.131 Z" />
    <filter x="-50.00%" y="-50.00%" width="200.00%" height="200.00%" filterUnits="objectBoundingBox" id="filter2216">
      <feColorMatrix type="matrix" values="1 0 0 0 0  0 1 0 0 0  0 0 1 0 0  0 0 0 1 0  " in="SourceGraphic" />
    </filter>
    <filter x="664px" y="601px" width="117px" height="105px" filterUnits="userSpaceOnUse" id="filter2217">
      <feOffset dx="0" dy="0" in="SourceAlpha" result="shadowOffsetInner" />
      <feGaussianBlur stdDeviation="5" in="shadowOffsetInner" result="shadowGaussian" />
      <feComposite in2="shadowGaussian" operator="atop" in="SourceAlpha" result="shadowComposite" />
      <feColorMatrix type="matrix" values="0 0 0 0 0.0235294117647059  0 0 0 0 0.933333333333333  0 0 0 0 0.941176470588235  0 0 0 0.498039215686275 0  " in="shadowComposite" />
    </filter>
    <g id="widget2218">
      <g transform="matrix(1 0 0 1 674 611 )" clip-path="url(#clip2215)" filter="url(#filter2216)">
        <path fill-rule="evenodd" fill="url(#PSgrad_0)" d="M19.606,41.371 C19.020,42.318 19.028,43.348 19.538,44.157 L26.590,54.734 C28.417,56.971 30.563,54.843 30.692,54.709 L35.635,47.684 C38.062,44.270 42.760,43.444 46.192,45.829 C47.836,46.959 48.959,48.706 49.310,50.678 C49.661,52.650 49.210,54.681 48.059,56.316 L34.285,75.875 C32.662,78.135 30.046,79.459 27.276,79.423 C24.504,79.388 21.923,77.997 20.358,75.695 L1.601,47.566 C-0.504,44.687 -0.537,40.774 1.520,37.860 L25.664,3.584 C28.357,-0.216 33.578,-1.141 37.398,1.505 C39.223,2.761 40.471,4.702 40.860,6.893 C41.250,9.083 40.749,11.340 39.470,13.155 L19.602,41.371 L19.606,41.371 ZM95.480,47.131 L71.343,81.411 C68.649,85.214 63.422,86.137 59.602,83.486 C57.776,82.229 56.527,80.287 56.137,78.096 C55.747,75.904 56.249,73.647 57.529,71.831 L77.390,43.624 C77.984,42.688 77.980,41.651 77.466,40.837 L70.414,30.265 C68.611,28.048 66.493,30.094 66.319,30.277 L61.365,37.315 C58.937,40.727 54.239,41.551 50.807,39.165 C49.165,38.035 48.042,36.289 47.691,34.318 C47.340,32.347 47.790,30.316 48.940,28.683 L62.714,9.116 C64.339,6.854 66.955,5.530 69.727,5.566 C72.500,5.603 75.081,6.995 76.646,9.299 L95.399,37.424 C97.501,40.313 97.537,44.210 95.480,47.131 L95.480,47.131 Z" />
      </g>
    </g>
  </defs>
  <g transform="matrix(1 0 0 1 -664 -601 )">
    <use xlink:href="#widget2218" filter="url(#filter2217)" />
    <use xlink:href="#widget2218" />
  </g>
</svg>