<?xml version="1.0" encoding="utf-8"?>
<svg version="1.1" xmlns:xlink="http://www.w3.org/1999/xlink" width="175px" height="136px" xmlns="http://www.w3.org/2000/svg">
  <defs>
    <path d="M 0 0  L 83 0  L 83 62  L 0 62  Z " fill-rule="evenodd" fill="black" id="path2224" />
    <clipPath id="clip2225">
      <use xlink:href="#path2224" />
    </clipPath>
    <defs>
      <linearGradient id="PSgrad_0" x1="0%" x2="0%" y1="100%" y2="0%">
        <stop offset="0%" stop-color="rgb(0,206,255)" stop-opacity="1" />
        <stop offset="100%" stop-color="rgb(0,255,174)" stop-opacity="1" />
      </linearGradient>
    </defs>
    <path fill-rule="evenodd" fill="url(#PSgrad_0)" d="M33.238,49.006 L12.003,27.856 L27.929,11.994 L49.164,33.144 L33.238,49.006 ZM54.071,11.994 L32.836,33.144 L48.762,49.006 L69.997,27.856 L54.071,11.994 Z" />
    <filter x="-50.00%" y="-50.00%" width="200.00%" height="200.00%" filterUnits="objectBoundingBox" id="filter2226">
      <feColorMatrix type="matrix" values="1 0 0 0 0  0 1 0 0 0  0 0 1 0 0  0 0 0 1 0  " in="SourceGraphic" />
    </filter>
    <filter x="386px" y="411px" width="175px" height="136px" filterUnits="userSpaceOnUse" id="filter2227">
      <feOffset dx="0" dy="0" in="SourceAlpha" result="shadowOffsetInner" />
      <feGaussianBlur stdDeviation="5" in="shadowOffsetInner" result="shadowGaussian" />
      <feComposite in2="shadowGaussian" operator="atop" in="SourceAlpha" result="shadowComposite" />
      <feColorMatrix type="matrix" values="0 0 0 0 0.0235294117647059  0 0 0 0 0.933333333333333  0 0 0 0 0.941176470588235  0 0 0 0.498039215686275 0  " in="shadowComposite" />
    </filter>
    <g id="widget2228">
      <g transform="matrix(1.86746987951807 0 0 1.86746987951807 396 421.10843373494 )" clip-path="url(#clip2225)" filter="url(#filter2226)">
        <path fill-rule="evenodd" fill="url(#PSgrad_0)" d="M33.238,49.006 L12.003,27.856 L27.929,11.994 L49.164,33.144 L33.238,49.006 ZM54.071,11.994 L32.836,33.144 L48.762,49.006 L69.997,27.856 L54.071,11.994 Z" />
      </g>
    </g>
  </defs>
  <g transform="matrix(1 0 0 1 -386 -411 )">
    <use xlink:href="#widget2228" filter="url(#filter2227)" />
    <use xlink:href="#widget2228" />
  </g>
</svg>