<?xml version="1.0" encoding="utf-8"?>
<svg version="1.1" xmlns:xlink="http://www.w3.org/1999/xlink" width="73px" height="32px" xmlns="http://www.w3.org/2000/svg">
  <g transform="matrix(1 0 0 1 -1303 -206 )">
    <path d="M 1304 210  A 3 3 0 0 1 1307 207 L 1372 207  A 3 3 0 0 1 1375 210 L 1375 234  A 3 3 0 0 1 1372 237 L 1307 237  A 3 3 0 0 1 1304 234 L 1304 210  Z " fill-rule="nonzero" fill="#8407e6" stroke="none" fill-opacity="0" />
    <path d="M 1303.5 210  A 3.5 3.5 0 0 1 1307 206.5 L 1372 206.5  A 3.5 3.5 0 0 1 1375.5 210 L 1375.5 234  A 3.5 3.5 0 0 1 1372 237.5 L 1307 237.5  A 3.5 3.5 0 0 1 1303.5 234 L 1303.5 210  Z " stroke-width="1" stroke="#d9001b" fill="none" stroke-opacity="0.647058823529412" />
  </g>
</svg>