<?xml version="1.0" encoding="utf-8"?>
<svg version="1.1" xmlns:xlink="http://www.w3.org/1999/xlink" width="80px" height="30px" xmlns="http://www.w3.org/2000/svg">
  <g transform="matrix(1 0 0 1 -260 -304 )">
    <path d="M 261 309  A 4 4 0 0 1 265 305 L 335 305  A 4 4 0 0 1 339 309 L 339 329  A 4 4 0 0 1 335 333 L 265 333  A 4 4 0 0 1 261 329 L 261 309  Z " fill-rule="nonzero" fill="#f0f7ff" stroke="none" />
    <path d="M 260.5 309  A 4.5 4.5 0 0 1 265 304.5 L 335 304.5  A 4.5 4.5 0 0 1 339.5 309 L 339.5 329  A 4.5 4.5 0 0 1 335 333.5 L 265 333.5  A 4.5 4.5 0 0 1 260.5 329 L 260.5 309  Z " stroke-width="1" stroke="#7abbff" fill="none" stroke-opacity="0.996078431372549" />
  </g>
</svg>