<?xml version="1.0" encoding="utf-8"?>
<svg version="1.1" xmlns:xlink="http://www.w3.org/1999/xlink" width="80px" height="40px" xmlns="http://www.w3.org/2000/svg">
  <g transform="matrix(1 0 0 1 -1490 -125 )">
    <path d="M 1490.5 130  A 4.5 4.5 0 0 1 1495 125.5 L 1565 125.5  A 4.5 4.5 0 0 1 1569.5 130 L 1569.5 160  A 4.5 4.5 0 0 1 1565 164.5 L 1495 164.5  A 4.5 4.5 0 0 1 1490.5 160 L 1490.5 130  Z " fill-rule="nonzero" fill="#f0f7ff" stroke="none" />
    <path d="M 1490.5 130  A 4.5 4.5 0 0 1 1495 125.5 L 1565 125.5  A 4.5 4.5 0 0 1 1569.5 130 L 1569.5 160  A 4.5 4.5 0 0 1 1565 164.5 L 1495 164.5  A 4.5 4.5 0 0 1 1490.5 160 L 1490.5 130  Z " stroke-width="1" stroke="#409eff" fill="none" />
  </g>
</svg>