<?xml version="1.0" encoding="utf-8"?>
<svg version="1.1" xmlns:xlink="http://www.w3.org/1999/xlink" width="344px" height="75px" xmlns="http://www.w3.org/2000/svg">
  <g transform="matrix(1 0 0 1 -98 -456 )">
    <path d="M 0 6.0516744827587  L 14.4992997023809 42.7123862068967  C 14.806199702381 43.4883310344829  15.1235868055555 44.2377103448275  15.4514610119048 44.960524137931  C 15.779335218254 45.6833379310344  16.116918452381 46.3778482758621  16.4642107142857 47.0440551724139  C 16.8115706349206 47.7104275862069  17.1677938492064 48.3469241379312  17.5328803571429 48.9535448275863  C 17.8980345238096 49.5601655172413  18.2712062500001 50.1355034482759  18.6523955357142 50.6795586206897  C 19.0336524801588 51.2236137931035  19.422047420635 51.7351448275863  19.8175803571429 52.214151724138  C 20.2131132936508 52.693324137931  20.6148708333333 53.1387310344827  21.0228529761905 53.550372413793  C 21.4308351190477 53.9621793103448  21.8441284722223 54.3393931034483  22.2627330357143 54.6820137931034  C 22.6812699404762 55.0244689655174  23.1041031746032 55.3315862068966  23.5312327380952 55.6033655172414  C 23.9584299603175 55.8749793103449  24.3889086309524 56.1105931034483  24.82266875 56.3102068965517  C 25.2564288690476 56.509820689655  25.6924555555556 56.6729379310345  26.1307488095238 56.7995586206898  C 26.569042063492 56.926179310345  27.0086208333333 57.0159724137932  27.4494851190476 57.0689379310346  C 27.8902817460318 57.1219034482759  28.3313151785714 57.1378758620691  28.7725854166667 57.1168551724138  C 29.2138556547619 57.096  29.6543139880953 57.0382344827586  30.0939604166666 56.9435586206896  C 30.5336745039682 56.8488827586208  30.9714941468254 56.7174620689655  31.4074193452381 56.5492965517242  C 31.843412202381 56.3812965517241  32.2765633928572 56.1770482758621  32.7068729166666 55.9365517241379  C 33.1371147817461 55.6960551724138  33.5635000992064 55.4198068965517  33.9860288690476 55.1078068965517  L 40.5021735119048 50.2964689655174  C 41.2845114087302 49.7188137931036  42.0507126984127 49.0333241379311  42.8007773809524 48.2399999999999  C 43.5508420634921 47.4468413793105  44.2798310515873 46.5510620689654  44.9877443452381 45.5526620689656  C 45.695725297619 44.5542620689655  46.3779621031746 43.4598620689654  47.0344547619047 42.2694620689654  C 47.6909474206349 41.0790620689655  48.3173657738095 39.800524137931  48.9137098214286 38.433848275862  L 56.5644913690477 20.9015999999999  C 56.7473729166667 20.4825103448276  56.9344154761905 20.0748000000001  57.125619047619 19.6784689655173  C 57.3168226190476 19.2822041379309  57.5119842261905 18.8978648275863  57.7111038690476 18.5254510344828  C 57.9101558531746 18.1530206896553  58.1128952380952 17.7929793103448  58.3193220238095 17.4453268965516  C 58.5256811507937 17.0976744827586  58.7354908730159 16.7628413793104  58.9487511904762 16.4408275862069  C 59.1620115079365 16.1188137931034  59.3784179563492 15.8100165517242  59.5979705357143 15.514435862069  C 59.8175231150794 15.2188717241379  60.0399850198413 14.9368882758621  60.26535625 14.6684855172414  C 60.4906598214286 14.4000827586206  60.7185682539683 14.1456082758622  60.949081547619 13.9050620689654  C 61.1795948412699 13.664515862069  61.4124085317461 13.4381958620688  61.6475226190477 13.2261020689656  C 61.8826367063492 13.013991724138  62.1197805555556 12.816372413793  62.3589541666667 12.633244137931  C 62.5981277777777 12.4501158620691  62.8389928571429 12.2817103448275  63.0815494047619 12.1280275862068  C 63.3241736111112 11.9743282758621  63.5682186507936 11.8355337931033  63.8136845238096 11.711644137931  C 64.0590827380952 11.5877710344827  64.3056311507937 11.47896  64.5533297619047 11.3852110344827  C 64.8009607142857 11.2914455172412  65.0494035714286 11.2128662068967  65.2986583333334 11.1494731034483  C 65.547913095238 11.0860800000002  65.7976752976191 11.0379393103449  66.0479449404762 11.0050510344827  C 66.2981469246032 10.9721627586207  66.5485518849207 10.9545848275862  66.7991598214286 10.9523172413793  C 67.0497677579365 10.9500331034483  67.3002403769842 10.9630427586206  67.5505776785715 10.9913462068965  C 67.8009149801587 11.0196662068964  68.0508125 11.0632551724137  68.3002702380952 11.1221131034482  C 68.5497279761905 11.1809710344827  68.798441468254 11.2550151724138  69.0464107142857 11.3442455172413  C 69.2943123015873 11.433492413793  69.5411651785714 11.5378179310344  69.7869693452381 11.6572220689656  C 70.0327735119048 11.7766096551725  70.2772245039683 11.9109434482758  70.5203223214286 12.0602234482758  C 70.7633524801587 12.2094868965518  71.004725 12.3734979310344  71.2444398809524 12.5522565517242  C 71.4841547619048 12.7310151724139  71.7219075396825 12.9243062068966  71.9576982142857 13.1321296551723  C 72.193488888889 13.3399365517241  72.4269791666667 13.5620110344828  72.6581690476191 13.7983531034481  C 72.8894265873016 14.0346786206896  73.1181130952381 14.2849820689656  73.3442285714285 14.549263448276  C 73.570344047619 14.8135448275863  73.7936516865079 15.0914731034482  74.0141514880952 15.3830482758619  C 74.2345836309524 15.6746068965517  74.4519034722223 15.9794482758621  74.6661110119047 16.2975724137932  C 74.8803185515873 16.6156800000001  75.091176984127 16.9466731034482  75.2986863095238 17.2905517241379  C 75.5061279761905 17.6344468965516  75.7099499007936 17.990780689655  75.9101520833333 18.3595531034483  C 76.110354265873 18.7283420689656  76.3066660714286 19.1091227586207  76.4990875 19.5018951724138  C 76.6915089285714 19.8946179310345  76.8798031746031 20.2988689655172  77.0639702380952 20.7146482758619  C 77.2481373015873 21.130427586207  77.4279403769841 21.5572137931035  77.6033794642858 21.9950068965517  C 77.7788185515873 22.4328  77.9496906746032 22.8810206896552  78.1159958333334 23.3396689655174  L 86.0454636904762 45.2070620689656  C 86.4838246031746 46.4160000000001  86.9441746031746 47.5725517241378  87.4265136904762 48.6767172413793  C 87.9088527777778 49.7808827586206  88.4110497023809 50.8278620689654  88.9331044642857 51.8176551724137  C 89.4552268849207 52.8076137931034  89.995008234127 53.7361655172413  90.5524485119047 54.6033103448276  C 91.1098211309524 55.4704551724137  91.6824507936508 56.2724689655172  92.2703375 57.009351724138  C 92.8582242063492 57.7462344827586  93.4588307539682 58.4147586206896  94.0721571428572 59.014924137931  C 94.685483531746 59.6152551724139  95.3088572420635 60.1445793103447  95.9422782738095 60.6028965517241  C 96.5756993055555 61.0613793103448  97.2164274801588 61.446951724138  97.8644627976191 61.7596137931034  C 98.5125657738095 62.0724413793104  99.1652018849207 62.310951724138  99.8223711309524 62.4751448275862  L 106.163651785714 64.0598896551724  C 106.757695436508 64.2083586206895  107.353430555556 64.2955862068966  107.950857142857 64.3215724137933  C 108.547607142857 64.3473931034484  109.144018849206 64.3119724137932  109.740092261905 64.2153103448277  C 110.336165674603 64.1184827586205  110.929532738095 63.9606620689656  111.520193452381 63.7418482758621  C 112.110854166667 63.5232  112.696778769841 63.2442206896552  113.277967261905 62.9049103448277  C 113.858479166667 62.5656000000001  114.432563492063 62.1672  115.000220238095 61.7097103448275  C 115.567200396825 61.2523862068965  116.125723214286 60.7375448275862  116.675788690476 60.1651862068966  C 117.225177579365 59.5929931034483  117.763741071429 58.9653517241378  118.291479166667 58.2822620689657  C 118.819893849206 57.599172413793  119.335453373016 56.8630344827587  119.838157738095 56.073848275862  L 124.859788690476 48.1908413793103  C 125.063441468254 47.871724137931  125.269462301587 47.5625379310344  125.477851190476 47.2632827586208  C 125.685563492063 46.9638620689655  125.895982142857 46.6746206896553  126.109107142857 46.3955586206897  C 126.322232142857 46.116496551724  126.537386904762 45.8476965517242  126.754571428571 45.5891586206897  C 126.971755952381 45.3307862068965  127.190970238095 45.0829241379311  127.412214285714 44.8455724137931  C 127.633458333333 44.6083862068966  127.856732142857 44.3817931034482  128.082035714286 44.1657931034482  C 128.306662698413 43.9499586206897  128.532981150794 43.745048275862  128.760991071429 43.5510620689655  C 128.989000992063 43.3569103448276  129.218702380952 43.1738482758622  129.450095238095 43.001875862069  C 129.681488095238 42.8299034482759  129.913895833333 42.6691034482758  130.147318452381 42.5194758620689  C 130.38141765873 42.3698482758621  130.616193452381 42.2315586206895  130.851645833333 42.1046068965517  C 131.087774801587 41.9774896551725  131.324580357143 41.8617931034481  131.5620625 41.7575172413794  C 131.800221230159 41.6532413793102  132.039056547619 41.5604689655172  132.278568452381 41.4792  C 132.517403769841 41.3979310344828  132.757253968254 41.3281655172414  132.998119047619 41.2699034482758  C 133.238307539683 41.2116413793102  133.478834325397 41.1649655172413  133.719699404762 41.129875862069  C 133.961241071429 41.0947862068965  134.202782738095 41.0713655172415  134.444324404762 41.0596137931033  C 134.685866071429 41.0476965517242  134.927407738095 41.0474482758621  135.168949404762 41.0588689655173  C 135.410491071429 41.0701241379311  135.651694444444 41.0930482758622  135.892559523809 41.1276413793104  C 136.134101190476 41.1622344827587  136.374966269841 41.2084137931034  136.615154761905 41.2661793103449  C 136.855343253968 41.3239448275863  137.095193452381 41.3932137931034  137.334705357143 41.4739862068966  C 137.574217261905 41.5547586206897  137.812714285714 41.6470344827585  138.050196428571 41.7508137931036  C 138.28835515873 41.8545931034482  138.525160714286 41.9697931034482  138.760613095238 42.0964137931035  C 138.996742063492 42.2228689655173  139.231856150794 42.3606620689654  139.465955357143 42.5097931034483  C 139.69937797619 42.6589241379311  139.931785714286 42.8192275862069  140.163178571429 42.9907034482758  C 140.394571428571 43.1623448275861  140.62427281746 43.3449103448277  140.852282738095 43.5383999999999  C 141.08029265873 43.7320551724139  141.306949404762 43.936551724138  141.53225297619 44.1518896551726  C 141.756879960318 44.3673931034482  141.979815476191 44.5935724137931  142.20105952381 44.830427586207  C 142.42298015873 45.0672827586208  142.642532738095 45.3146482758619  142.859717261905 45.5725241379309  C 143.076901785714 45.8305655172416  143.292056547619 46.0988689655173  143.505181547619 46.3774344827585  C 143.718306547619 46.6561655172414  143.929063492063 46.9449931034484  144.137452380952 47.2439172413793  C 144.345841269841 47.5428413793103  144.551862103175 47.8516137931034  144.755514880952 48.1702344827587  C 144.958491071429 48.4890206896553  145.159099206349 48.8174068965519  145.357339285714 49.1553931034483  C 145.555579365079 49.4935448275862  145.751113095238 49.8410482758619  145.94394047619 50.1979034482758  C 146.136091269841 50.5547586206897  146.325535714286 50.9207172413793  146.512273809524 51.2957793103449  L 150.518008928571 59.3424  C 150.853596230159 60.017379310345  151.197640873016 60.6665379310346  151.550142857143 61.289875862069  C 151.901968253968 61.9133793103449  152.261574404762 62.5099034482759  152.628961309524 63.0794482758621  C 152.995671626984 63.6489931034482  153.369486111111 64.1905655172415  153.750404761905 64.7041655172413  C 154.131323412698 65.2177655172413  154.517993055556 65.7023999999999  154.910413690476 66.1580689655171  C 155.303510912698 66.6139034482758  155.701682539683 67.0398620689655  156.104928571429 67.4359448275861  C 156.508174603175 67.832027586207  156.916156746032 68.1976551724139  157.328875 68.532827586207  C 157.741593253968 68.8678344827587  158.158032738095 69.1716413793104  158.578193452381 69.444248275862  C 158.998354166667 69.7170206896551  159.42155952381 69.9580965517241  159.84780952381 70.1674758620688  C 160.27405952381 70.3768551724138  160.702339285714 70.5541241379311  161.132648809524 70.6992827586206  C 161.563634920635 70.8446068965518  161.995635912698 70.9574896551725  162.428651785714 71.0379310344829  C 162.862344246032 71.1185379310344  163.296375 71.1666206896551  163.730744047619 71.1821793103449  C 164.16578968254 71.1977379310345  164.60049702381 71.180772413793  165.034866071429 71.1312827586208  C 165.468558531746 71.0819586206896  165.901574404762 71.0001103448275  166.333913690476 70.8857379310344  C 166.76625297619 70.7713655172414  167.1965625 70.6248000000001  167.624842261905 70.4460413793103  C 168.053798611111 70.2672827586208  168.47971031746 70.0566620689655  168.902577380952 69.8141793103448  C 169.326121031746 69.571696551724  169.745943452381 69.2977655172415  170.162044642857 68.9923862068965  L 176.803425595238 64.1222068965518  C 177.631568452381 63.514924137931  178.441781746032 62.7871448275862  179.23406547619 61.9388689655174  C 180.025672619048 61.0904275862068  180.793599206349 60.1276137931036  181.537845238095 59.050427586207  C 182.282091269841 57.9734068965516  182.996567460317 56.7899586206897  183.681273809524 55.5000827586206  C 184.366656746032 54.2103724137933  185.017533730159 52.823751724138  185.633904761905 51.3402206896551  L 195.468101190476 27.6614068965517  C 195.628452380952 27.2747586206896  195.792186507936 26.8962206896553  195.959303571429 26.5257931034485  C 196.125744047619 26.1553655172415  196.295567460317 25.7932965517241  196.468773809524 25.4395862068965  C 196.641303571429 25.0857103448277  196.81653968254 24.7405241379311  196.994482142857 24.4040275862069  C 197.173101190476 24.0675310344828  197.354426587302 23.7398896551724  197.538458333333 23.4211034482759  C 197.721813492063 23.1023172413793  197.907875 22.7927172413793  198.096642857143 22.4923034482758  C 198.285410714286 22.1918896551724  198.476884920635 21.900827586207  198.671065476191 21.6191172413792  C 198.864569444444 21.3375724137931  199.060441468254 21.0655448275861  199.258681547619 20.8030344827587  C 199.456245039682 20.5406896551723  199.656176587302 20.2881103448276  199.858476190476 20.0452965517242  C 200.060775793651 19.8025655172414  200.26510515873 19.569848275862  200.471464285714 19.3471448275861  C 200.677146825397 19.1244579310344  200.884859126984 18.9119668965517  201.094601190476 18.7096717241379  C 201.303666666667 18.5073931034482  201.514761904762 18.315484137931  201.727886904762 18.1339448275862  C 201.94033531746 17.9524055172416  202.154475198413 17.7813765517243  202.370306547619 17.6208579310345  C 202.585461309524 17.460355862069  202.801969246032 17.3104965517242  203.019830357143 17.1712799999999  C 203.237691468254 17.0320634482759  203.456905753968 16.9036055172414  203.677473214286 16.7859062068965  C 203.897364087302 16.6681903448275  204.11826984127 16.5613406896551  204.34019047619 16.4653572413795  C 204.562111111111 16.3693572413794  204.784370039682 16.2842896551724  205.006967261905 16.2101544827586  C 205.230241071429 16.1360193103449  205.454191468254 16.0728744827586  205.678818452381 16.02072  C 205.902768849206 15.9685655172414  206.127395833333 15.9274427586207  206.352699404762 15.8973517241379  C 206.577326388889 15.8672606896553  206.802291666667 15.8482262068966  207.027595238095 15.8402482758622  C 207.252898809524 15.8322703448275  207.478202380952 15.8353572413793  207.703505952381 15.8495089655172  C 207.928132936508 15.863660689655  208.153098214286 15.8888606896552  208.378401785714 15.9251089655173  C 208.603028769841 15.9613572413793  208.827317460317 16.0086289655172  209.051267857143 16.066924137931  C 209.275218253968 16.125219310345  209.498492063492 16.1944882758621  209.721089285714 16.2747310344827  C 209.944363095238 16.3549903448275  210.16662202381 16.4461489655173  210.387866071429 16.5482068965517  C 210.609110119048 16.6502813793103  210.829339285714 16.7631806896553  211.048553571429 16.8869048275861  C 211.268444444444 17.0106289655173  211.486982142857 17.1450786206898  211.704166666667 17.2902537931034  C 211.921351190476 17.4354455172414  212.137520833333 17.5912386206896  212.352675595238 17.7576331034484  C 212.567153769841 17.9240441379311  212.780278769841 18.1009241379311  212.992050595238 18.2882731034482  C 213.203822420635 18.4756386206896  213.413902777778 18.6733241379311  213.622291666667 18.8813296551724  C 213.831357142857 19.0893517241379  214.038392857143 19.3075282758621  214.243398809524 19.5358593103448  C 214.448404761905 19.7642565517242  214.651380952381 20.0025931034482  214.852327380952 20.2508689655173  C 215.053273809524 20.4991448275861  215.252190476191 20.7571862068966  215.449077380952 21.0249931034482  L 223.895931547619 32.5171862068966  C 225.602961309524 34.8390620689654  227.406066468254 36.5546482758622  229.30524702381 37.6639448275863  L 247.845092261905 48.4924965517242  C 249.013558531746 49.1750896551724  250.150563492064 50.0929655172413  251.256107142857 51.246124137931  L 262.896791666667 63.3905379310346  C 263.295301587302 63.806648275862  263.698885912698 64.192551724138  264.107544642857 64.548248275862  C 264.515526785714 64.9041103448277  264.927906746032 65.2291034482759  265.34468452381 65.5232275862069  C 265.760785714286 65.8175172413793  266.180608134921 66.0804413793103  266.604151785714 66.3119999999999  C 267.027018849206 66.5433931034485  267.452592261905 66.7430896551723  267.88087202381 66.9110896551723  C 268.308475198413 67.0790896551724  268.738108134921 67.2150620689654  269.169770833333 67.3190068965517  C 269.601433531746 67.4227862068965  270.03377281746 67.4943724137931  270.466788690476 67.5337655172414  C 270.899804563492 67.5729931034483  271.333158730159 67.5799448275861  271.766851190476 67.5546206896553  C 272.199867063492 67.5291310344827  272.632544642857 67.4714482758619  273.064883928572 67.3815724137929  C 273.496546626984 67.2915310344827  273.926856150794 67.1693793103448  274.3558125 67.0151172413792  C 274.784768849206 66.8608551724137  275.211357142857 66.6747310344826  275.635577380952 66.456744827586  C 276.059797619048 66.2389241379311  276.480973214286 65.9895724137931  276.899104166667 65.7086896551724  C 277.317235119048 65.4278068965518  277.731306547619 65.1160551724138  278.141318452381 64.7734344827585  C 278.552006944444 64.4308137931034  278.957959325397 64.057903448276  279.359175595238 63.6547034482759  C 279.759715277778 63.2515034482757  280.155180555556 62.8187586206897  280.545571428571 62.3564689655171  C 280.935962301587 61.8941793103447  281.319925595238 61.4032551724138  281.697461309524 60.8836965517243  C 282.075673611111 60.3641379310344  282.446781746032 59.8168551724139  282.810785714286 59.2418482758621  L 292.478541666667 43.981324137931  C 293.602353174603 42.207144827586  294.784351190476 40.7051586206895  296.024535714286 39.4753655172414  C 297.264043650794 38.2455724137932  298.539410714286 37.3095724137931  299.850636904762 36.6673655172415  L 315.746717261905 28.8851586206896  C 317.553881944444 28.0003034482758  319.285268849206 26.5660965517243  320.94087797619 24.5825379310344  L 341 0.542408275862158  " stroke-width="2" stroke="#87f7c7" fill="none" transform="matrix(1 0 0 1 99 457 )" />
  </g>
</svg>