<?xml version="1.0" encoding="utf-8"?>
<svg version="1.1" xmlns:xlink="http://www.w3.org/1999/xlink" width="94px" height="124px" xmlns="http://www.w3.org/2000/svg">
  <defs>
    <filter x="640px" y="404px" width="94px" height="124px" filterUnits="userSpaceOnUse" id="filter769">
      <feOffset dx="0" dy="0" in="SourceAlpha" result="shadowOffsetInner" />
      <feGaussianBlur stdDeviation="10" in="shadowOffsetInner" result="shadowGaussian" />
      <feComposite in2="shadowGaussian" operator="atop" in="SourceAlpha" result="shadowComposite" />
      <feColorMatrix type="matrix" values="0 0 0 0 0  0 0 0 0 0  0 0 0 0 0  0 0 0 1 0  " in="shadowComposite" />
    </filter>
    <g id="widget770">
      <path d="M 661 429  A 4 4 0 0 1 665 425 L 709 425  A 4 4 0 0 1 713 429 L 713 503  A 4 4 0 0 1 709 507 L 665 507  A 4 4 0 0 1 661 503 L 661 429  Z " fill-rule="nonzero" fill="#07a6ff" stroke="none" fill-opacity="0.498039215686275" />
      <path d="M 660.5 429  A 4.5 4.5 0 0 1 665 424.5 L 709 424.5  A 4.5 4.5 0 0 1 713.5 429 L 713.5 503  A 4.5 4.5 0 0 1 709 507.5 L 665 507.5  A 4.5 4.5 0 0 1 660.5 503 L 660.5 429  Z " stroke-width="1" stroke="#07a6ff" fill="none" stroke-opacity="0.8" />
    </g>
  </defs>
  <g transform="matrix(1 0 0 1 -640 -404 )">
    <use xlink:href="#widget770" filter="url(#filter769)" />
    <use xlink:href="#widget770" />
  </g>
</svg>