<?xml version="1.0" encoding="utf-8"?>
<svg version="1.1" xmlns:xlink="http://www.w3.org/1999/xlink" width="341px" height="163px" xmlns="http://www.w3.org/2000/svg">
  <defs>
    <linearGradient gradientUnits="userSpaceOnUse" x1="170.5" y1="0" x2="170.5" y2="163" id="LinearGradient765">
      <stop id="Stop766" stop-color="#87f7c7" stop-opacity="0.6" offset="0" />
      <stop id="Stop767" stop-color="#87f7c7" stop-opacity="0.0470588235294118" offset="0.84" />
      <stop id="Stop768" stop-color="#87f7c7" stop-opacity="0.0470588235294118" offset="1" />
    </linearGradient>
  </defs>
  <g transform="matrix(1 0 0 1 -99 -457 )">
    <path d="M 0 163  L 0 6.16142507692314  L 14.5149288690477 43.3933584615385  C 14.8210169642857 44.1784333333331  15.1376598214286 44.9366758974359  15.4648574404762 45.6680861538463  C 15.7919874007937 46.3994964102563  16.1289278769841 47.1023189743589  16.4756788690476 47.7765538461539  C 16.822362202381 48.4507887179489  17.1780103174603 49.0948476923077  17.5426232142857 49.7087307692308  C 17.9072361111111 50.3226138461539  18.2799342261904 50.9049000000001  18.6607175595238 51.4555892307692  C 19.0415008928571 52.0062784615384  19.4294560515873 52.5239497435898  19.8245830357143 53.008603076923  C 20.2197776785715 53.4934235897434  20.6212307539683 53.9442230769232  21.0289422619048 54.3610015384617  C 21.4366537698412 54.7776128205129  21.8496764880952 55.1591999999999  22.2680104166667 55.5057630769229  C 22.686276686508 55.8523261538461  23.1089069444445 56.1630292307692  23.5359011904762 56.4378723076923  C 23.9628277777778 56.7127153846154  24.3930696428572 56.9511133333333  24.8266267857143 57.1530661538462  C 25.2602515873016 57.3548517948718  25.6961429563492 57.5196907692308  26.1343008928572 57.6475830769232  C 26.5724588293651 57.7754753846153  27.011868452381 57.8660866666665  27.4525297619048 57.9194169230771  C 27.8931910714285 57.9725799999999  28.3340891865079 57.9884620512821  28.7752241071429 57.9670630769232  C 29.2163590277778 57.945496923077  29.6566482142857 57.886566153846  30.0960916666667 57.7902707692308  C 30.5356027777778 57.6941425641025  30.9732194444444 57.5608169230769  31.4089416666667 57.3902938461538  C 31.844731547619 57.2197707692308  32.2776459325397 57.0125517948717  32.7076848214285 56.7686369230768  C 33.1376560515873 56.5245548717949  33.563770734127 56.2444456410257  33.9860288690476 55.9283092307693  L 40.4934455357143 51.0536061538462  C 41.2771366071429 50.4666389743588  42.0445895833334 49.7703364102564  42.7958044642857 48.9646984615385  C 43.546951686508 48.1590605128206  44.2769217261905 47.2494369230768  44.9857145833333 46.2358276923075  C 45.6944397817461 45.2223856410255  46.377285515873 44.1116451282052  47.0342517857143 42.9036061538461  C 47.6911503968254 41.6955671794873  48.3178055555556 40.3982543589743  48.9142172619048 39.0116676923077  L 56.5644913690477 21.2263615384616  C 56.747102281746 20.8018928205128  56.9338742063492 20.3889845641027  57.1248071428572 19.9876367692307  C 57.3158077380953 19.5862555384615  57.5107325396825 19.1969279487179  57.7095815476191 18.819654  C 57.9084305555556 18.4423967692308  58.1109669642857 18.0776696410256  58.3171907738096 17.7254726153847  C 58.5234145833333 17.373258871795  58.7330889880952 17.0340266153845  58.9462139880952 16.7077758461538  C 59.1593389880953 16.3815250769231  59.3756439484127 16.0686570256411  59.5951288690477 15.7691716923077  C 59.8146137896825 15.4696863589744  60.0369742063492 15.1839598974359  60.2622101190476 14.9119923076923  C 60.4875136904762 14.6400247179488  60.7153882936509 14.3821587179488  60.9458339285715 14.1383943076922  C 61.1763472222223 13.8946298974358  61.4091609126984 13.665268  61.644275 13.4503086153846  C 61.8793890873016 13.2353492307691  62.116532936508 13.0350598461539  62.3557065476191 12.8494404615385  C 62.5949478174603 12.6638377948719  62.8358805555556 12.4931391794871  63.0785047619048 12.3373446153847  C 63.3211966269841 12.1815333333334  63.5652754960317 12.0408350769231  63.8107413690476 11.915249846154  C 64.0562749007937 11.789647897436  64.3028909722223 11.6793094358975  64.5505895833334 11.5842344615385  C 64.7983558531747 11.4891594871797  65.0469001984128 11.4094650256411  65.2962226190476 11.345151076923  C 65.5456126984127 11.280837128205  65.7954763888889 11.231978923077  66.0458136904762 11.1985764615386  C 66.2961509920635 11.165174  66.5466912698413 11.1472774358975  66.7974345238095 11.1448867692309  C 67.0481101190476 11.1424961025642  67.2986842261905 11.155602974359  67.5491568452381 11.1842073846154  C 67.7995618055556 11.2128285128206  68.049560813492 11.2569137435896  68.2991538690476 11.3164630769232  C 68.548679265873 11.3760124102564  68.7974604166667 11.4509506153845  69.0454973214286 11.5412776923076  C 69.2935342261905 11.6316214871795  69.5404885912698 11.7372371282052  69.7863604166666 11.8581246153847  C 70.0322322420635 11.9790288205128  70.2767508928571 12.1150544102563  70.5199163690476 12.2662013846153  C 70.7630141865079 12.4173650769231  71.0044543650794 12.583457897436  71.2442369047619 12.7644798461538  C 71.4840194444445 12.9455185128205  71.7218060515873 13.141268974359  71.9575967261905 13.3517312307695  C 72.1933874007937 13.5621934871795  72.4269115079365 13.7871000512821  72.6581690476191 14.0264509230771  C 72.8893589285715 14.2658017948717  73.1180116071428 14.5193044102563  73.3441270833334 14.7869587692306  C 73.5702425595239 15.0546131282052  73.7934825396825 15.3360848717948  74.0138470238095 15.6313739999998  C 74.2342791666667 15.9266464102564  74.4515651785714 16.2353684102565  74.6657050595238 16.5575400000001  C 74.8798449404762 16.8797115897435  75.0906018849207 17.2149148205128  75.2979758928572 17.5631496923078  C 75.5052822420635 17.9114012820512  75.7089688492064 18.2722498461538  75.9090357142857 18.6456953846154  C 76.1090349206349 19.0191576410257  76.3051437500001 19.4047487692309  76.4973622023809 19.8024687692307  C 76.689580654762 20.2002054871795  76.8776380952382 20.6095528205126  77.0615345238095 21.0305107692307  C 77.2454986111111 21.4514687179487  77.4250648809524 21.8835441025642  77.6002333333334 22.326736923077  C 77.7754017857143 22.7700969230771  77.9459694444444 23.2239056410257  78.1119363095239 23.6881630769229  L 86.04495625 45.8824938461538  C 86.4832495039682 47.1087553846154  86.9436671626985 48.282021025641  87.4262092261905 49.4022907692307  C 87.9087512896825 50.5223933333333  88.4113541666667 51.5847353846154  88.9340178571428 52.589316923077  C 89.4566138888889 53.5937312820515  89.9970041666667 54.535954871795  90.5551886904762 55.4159876923077  C 91.1133732142857 56.2958533333334  91.6868824404762 57.1097666666667  92.2757163690476 57.8577276923077  C 92.8646179563492 58.6056887179486  93.4663070436508 59.284353846154  94.0807836309524 59.893723076923  C 94.695260218254 60.5030923076924  95.3198517857143 61.0404907692307  95.9545583333333 61.5059184615386  C 96.5892648809524 61.9715133333332  97.2313800595238 62.3631312820513  97.8809038690476 62.6807723076925  C 98.5304276785714 62.9982461538461  99.1845184523809 63.2404892307692  99.8431761904762 63.4075015384617  L 106.134220238095 65.0026446153845  C 106.730970238095 65.1537748717948  107.329073412698 65.2426307692307  107.928529761905 65.2692123076923  C 108.527986111111 65.2957938461537  109.126765873016 65.2599338461539  109.724869047619 65.1616323076923  C 110.322972222222 65.0633307692308  110.918369047619 64.902922051282  111.51105952381 64.6804061538462  C 112.10375 64.4578902564103  112.691366071429 64.1741030769228  113.273907738095 63.8290446153845  C 113.857125992064 63.4839861538461  114.433240079365 63.0788266666667  115.00225 62.613566153846  C 115.571259920635 62.1484728205129  116.131474206349 61.6248666666667  116.682892857143 61.0427476923076  C 117.234311507937 60.460795897436  117.774904761905 59.8225046153845  118.304672619048 59.1278738461539  C 118.833763888889 58.433075897436  119.350338293651 57.6845297435897  119.854395833333 56.8822353846153  L 124.859788690476 48.9112846153847  C 125.062764880952 48.5877923076923  125.268447420635 48.2743307692308  125.476836309524 47.9709  C 125.685225198413 47.6676364102564  125.895643849206 47.3744871794871  126.108092261905 47.0914523076923  C 126.321217261905 46.8085846153847  126.53637202381 46.5362492307694  126.753556547619 46.274446153846  C 126.970064484127 46.0124758974359  127.188940476191 45.7612051282051  127.41018452381 45.5206338461537  C 127.631428571429 45.2800625641025  127.854702380952 45.0503579487181  128.080005952381 44.8315200000001  C 128.304632936508 44.6126820512822  128.530951388889 44.4048779487181  128.758961309524 44.2081076923079  C 128.986971230159 44.0115046153846  129.216672619048 43.8260189743589  129.448065476191 43.6516507692307  C 129.678781746032 43.4772825641026  129.911189484127 43.3141989743591  130.145288690476 43.1624  C 130.378711309524 43.0107682051281  130.613487103175 42.8705046153847  130.849616071429 42.7416092307693  C 131.085745039683 42.6127138461538  131.322550595238 42.4954374358975  131.560032738095 42.38978  C 131.798191468254 42.2839553846153  132.036688492063 42.1898333333334  132.275523809524 42.1074138461538  C 132.515035714286 42.0249943589744  132.754885912699 41.954193846154  132.995074404762 41.8950123076922  C 133.235939484127 41.835997948718  133.476804563492 41.7886861538462  133.717669642857 41.7530769230769  C 133.959211309524 41.7173005128204  134.200752976191 41.6933938461537  134.442294642857 41.6813569230769  C 134.683836309524 41.66932  134.925377976191 41.6689856410258  135.166919642857 41.6803538461538  C 135.408461309524 41.6918892307693  135.65000297619 41.7151271794871  135.891544642857 41.7500676923077  C 136.132409722222 41.7850082051283  136.373274801587 41.8317348717949  136.614139880952 41.8902476923076  C 136.854328373016 41.9487605128205  137.094178571429 42.0188923076922  137.33369047619 42.1006430769229  C 137.572525793651 42.182561025641  137.81102281746 42.2760143589744  138.049181547619 42.3810030769232  C 138.287340277778 42.486158974359  138.524145833333 42.6028502564103  138.759598214286 42.731076923077  C 138.99572718254 42.8593035897436  139.230841269841 42.998982051282  139.46494047619 43.1501123076924  C 139.698363095238 43.3010753846154  139.930770833333 43.4634902564103  140.162163690476 43.6373569230769  C 140.393556547619 43.8110564102565  140.623257936508 43.995956923077  140.851267857143 44.1920584615383  C 141.079277777778 44.3881600000001  141.305934523809 44.5953789743591  141.531238095238 44.8137153846153  C 141.755865079365 45.0318846153846  141.978800595238 45.2609205128205  142.200044642857 45.5008230769231  C 142.421288690476 45.7408928205127  142.64050297619 45.9915784615384  142.8576875 46.2528799999999  C 143.074872023809 46.5141815384617  143.290026785714 46.7860153846153  143.503151785714 47.0683815384616  C 143.716276785714 47.3507476923078  143.926695436508 47.6433117948718  144.134407738095 47.9460738461539  C 144.342796626984 48.2490030769231  144.548817460317 48.5618794871793  144.752470238095 48.8847030769231  C 144.955446428571 49.2075266666667  145.156054563492 49.5402138461537  145.354294642857 49.8827646153846  C 145.551858134921 50.2251482051281  145.746715277778 50.5770610256411  145.938866071429 50.9385030769231  C 146.131693452381 51.2999451282053  146.321137896825 51.6706656410257  146.507199404762 52.0506646153847  L 150.497711309524 60.1833615384617  C 150.833975198413 60.8692989743589  151.178696428571 61.5289892307691  151.531875 62.1624323076921  C 151.884376984127 62.7960425641027  152.244659722222 63.4023189743591  152.612723214286 63.9812615384616  C 152.980786706349 64.5600369230768  153.355616071429 65.1103917948718  153.737211309524 65.6323261538461  C 154.118806547619 66.1544276923077  154.506491071429 66.647022051282  154.900264880952 67.1101092307694  C 155.294715277778 67.5733635897434  155.694240079365 68.0062748717949  156.098839285714 68.4088430769231  C 156.503438492064 68.8114112820514  156.912435515873 69.1828841025641  157.325830357143 69.5232615384615  C 157.739901785714 69.8638061538461  158.157694444444 70.1726702564104  158.579208333333 70.4498538461538  C 159.000722222222 70.7268702564102  159.425280753968 70.9717882051282  159.852883928571 71.1846076923077  C 160.280487103175 71.39726  160.710458333333 71.5773123076923  161.142797619048 71.7247646153846  C 161.575136904762 71.872216923077  162.008491071429 71.9868184615385  162.442860119048 72.0685692307693  C 162.877905753968 72.1501528205129  163.31362797619 72.198802051282  163.750026785714 72.2145169230769  C 164.185749007937 72.2300646153847  164.62180952381 72.2125943589742  165.058208333333 72.1621061538461  C 165.493930555556 72.1116179487179  165.928299603175 72.028111794872  166.36131547619 71.9115876923076  C 166.795007936508 71.7950635897436  167.227008928571 71.6457723076923  167.657318452381 71.4637138461538  C 168.086951388889 71.2818225641026  168.514216269841 71.0674148717949  168.939113095238 70.8204907692307  C 169.363333333333 70.5737338461538  169.784508928572 70.294962051282  170.202639880952 69.9841753846154  L 176.795306547619 65.0798815384615  C 177.624802579365 64.4628220512819  178.436030753968 63.7235543589744  179.228991071429 62.8620784615384  C 180.021951388889 62.0004353846155  180.790892857143 61.0230205128205  181.535815476191 59.9298338461538  C 182.280061507937 58.8366471794873  182.995214285714 57.6357133333333  183.681273809524 56.3270323076923  C 184.366656746032 55.0181841025642  185.017195436508 53.6113687179487  185.632889880952 52.1065861538461  L 195.47825 28.0595723076923  C 195.638601190476 27.6682051282053  195.801997023809 27.2850297435898  195.9684375 26.9100461538462  C 196.13487797619 26.5350625641026  196.304363095238 26.1685215384614  196.476892857143 25.8104230769231  C 196.649422619048 25.4521574358976  196.824658730159 25.1027523076924  197.002601190476 24.7622076923077  C 197.180543650794 24.4214958974359  197.361192460317 24.0897282051283  197.544547619048 23.7669046153846  C 197.728579365079 23.4442482051281  197.914640873016 23.1308702564103  198.102732142857 22.8267707692308  C 198.2915 22.5225041025641  198.482635912698 22.2277666666664  198.676139880952 21.9425584615383  C 198.869643849206 21.6575174358976  199.065177579365 21.3820892307691  199.262741071429 21.1162738461538  C 199.460981150794 20.8506256410254  199.661250992063 20.5949246153847  199.863550595238 20.3491707692308  C 200.065173611111 20.1034336410256  200.26916468254 19.867835948718  200.475523809524 19.6423776923077  C 200.681206349206 19.4169027179488  200.888918650794 19.2017761538461  201.098660714286 18.996998  C 201.307726190476 18.7922031282052  201.518483134921 18.5979154871793  201.730931547619 18.4141350769231  C 201.944056547619 18.2303546666666  202.158196428572 18.0572319487179  202.373351190476 17.8947669230769  C 202.589182539683 17.732285179487  202.806028769841 17.5805948717949  203.023889880952 17.4396959999999  C 203.241750992064 17.2987971282053  203.460626984127 17.1687900000001  203.680517857143 17.0496746153846  C 203.900408730159 16.930575948718  204.121314484127 16.8224693333334  204.343235119048 16.7253547692309  C 204.565155753968 16.6282402051284  204.787752976191 16.542192923077  205.011026785714 16.4672129230771  C 205.233624007936 16.3922496410257  205.457236111111 16.3284205128205  205.681863095238 16.2757255384614  C 205.905813492063 16.2230305641026  206.13044047619 16.1815115384617  206.355744047619 16.1511684615385  C 206.580371031746 16.1208253846153  206.805336309524 16.1016833333332  207.030639880952 16.0937423076923  C 207.255943452381 16.0858012820513  207.48124702381 16.089078  207.706550595238 16.1035724615383  C 207.931854166667 16.1180502051282  208.156819444445 16.143728974359  208.381446428571 16.1806087692307  C 208.606073412698 16.2174718461539  208.830362103175 16.2655108717948  209.0543125 16.3247258461538  C 209.278262896826 16.3839408205129  209.501536706349 16.4542732307691  209.724133928571 16.535723076923  C 209.947407738095 16.6171729230769  210.169666666667 16.7096733333334  210.390910714286 16.8132243076922  C 210.612154761905 16.9167752820512  210.832383928571 17.0313015897436  211.051598214286 17.1568032307691  C 211.271489087302 17.2822881538461  211.490026785714 17.418648102564  211.707211309524 17.5658830769232  C 211.924395833333 17.7131013333334  212.14022718254 17.8710692307692  212.354705357143 18.0397867692308  C 212.569183531746 18.2085210256412  212.782308531746 18.3878628205127  212.994080357143 18.5778121538463  C 213.20585218254 18.7677447692306  213.415932539683 18.9681428205128  213.624321428571 19.1790063076924  C 213.83271031746 19.3898697948719  214.039407738095 19.6110148205128  214.244413690476 19.8424413846153  C 214.449419642857 20.0739348205129  214.652395833333 20.3154841025641  214.853342261905 20.5670892307693  C 215.054288690476 20.8186943589743  215.252867063492 21.080163076923  215.449077380952 21.3514953846152  L 223.890857142857 33.0027353846154  C 225.60126984127 35.3633097435899  227.409111111111 37.1079948717949  229.314380952381 38.2367907692308  L 247.83900297619 49.2137123076922  C 249.011528769841 49.9085102564104  250.151916666667 50.8424584615386  251.260166666667 52.0155569230768  L 262.858226190476 64.2907107692307  C 263.258089285714 64.7140092307693  263.663026785714 65.1067138461539  264.073038690476 65.4688246153845  C 264.482374007937 65.8309353846154  264.896107142857 66.1617000000001  265.314238095238 66.4611184615383  C 265.732369047619 66.760536923077  266.153544642857 67.0281076923078  266.577764880952 67.2638307692306  C 267.002661706349 67.4993866666666  267.429588293651 67.7026769230768  267.858544642857 67.8737015384615  C 268.288177579365 68.0448933333332  268.719501984127 68.183317948718  269.152517857143 68.2889753846154  C 269.585533730159 68.3947999999999  270.019564484127 68.4677738461539  270.454610119048 68.5078969230769  C 270.889655753968 68.5480200000001  271.324701388889 68.5552087179486  271.75974702381 68.5294630769232  C 272.19479265873 68.5037174358973  272.628823412698 68.445121025641  273.061839285714 68.3536738461539  C 273.495531746032 68.2622266666666  273.927532738095 68.138095897436  274.357842261905 67.9812815384616  C 274.788828373016 67.8244671794872  275.217108134921 67.6352199999999  275.642681547619 67.41354  C 276.068254960317 67.1918600000001  276.490783730159 66.9382487179487  276.910267857143 66.6527061538461  C 277.329751984127 66.3671635897437  277.745514880952 66.0501076923076  278.157556547619 65.7015384615383  C 278.568921626984 65.3531364102563  278.975550595238 64.9738897435897  279.377443452381 64.5637984615385  C 279.780012896826 64.153707179487  280.176831349206 63.7136071794872  280.567898809524 63.2434984615384  C 280.959642857143 62.7733897435897  281.344959325397 62.2741082051281  281.723848214286 61.7456538461538  C 282.102737103175 61.2171994871794  282.474860119048 60.6605753846153  282.840217261905 60.0757815384616  L 292.472452380952 44.6507153846154  C 293.598293650794 42.8476846153845  294.782659722222 41.3209179487179  296.025550595238 40.0704153846152  C 297.268441468254 38.8200800000002  298.547529761905 37.8682435897438  299.862815476191 37.2149061538462  L 315.737583333333 29.3302199999998  C 317.550837301587 28.4296241025643  319.287298611111 26.9704815384615  320.946967261905 24.9527923076923  L 341 0.572355692307838  L 341 163  L 0 163  Z " fill-rule="nonzero" fill="url(#LinearGradient765)" stroke="none" transform="matrix(1 0 0 1 99 457 )" />
  </g>
</svg>