<?xml version="1.0" encoding="utf-8"?>
<svg version="1.1" xmlns:xlink="http://www.w3.org/1999/xlink" width="83px" height="83px" xmlns="http://www.w3.org/2000/svg">
  <g transform="matrix(1 0 0 1 -640 -842 )">
    <path d="M 644 883.5  A 37.5 37.5 0 0 1 681.5 846 A 37.5 37.5 0 0 1 719 883.5 A 37.5 37.5 0 0 1 681.5 921 A 37.5 37.5 0 0 1 644 883.5 Z " fill-rule="nonzero" fill="#ffffff" stroke="none" fill-opacity="0" />
    <path d="M 642 883.5  A 39.5 39.5 0 0 1 681.5 844 A 39.5 39.5 0 0 1 721 883.5 A 39.5 39.5 0 0 1 681.5 923 A 39.5 39.5 0 0 1 642 883.5 Z " stroke-width="4" stroke="#66bbf9" fill="none" stroke-opacity="0.247058823529412" />
  </g>
</svg>