<?xml version="1.0" encoding="utf-8"?>
<svg version="1.1" xmlns:xlink="http://www.w3.org/1999/xlink" width="104px" height="104px" xmlns="http://www.w3.org/2000/svg">
  <g transform="matrix(1 0 0 1 -1490 -449 )">
    <path d="M 1495 501  A 47 47 0 0 1 1542 454 A 47 47 0 0 1 1589 501 A 47 47 0 0 1 1542 548 A 47 47 0 0 1 1495 501 Z " fill-rule="nonzero" fill="#ffffff" stroke="none" fill-opacity="0" />
    <path d="M 1492.5 501  A 49.5 49.5 0 0 1 1542 451.5 A 49.5 49.5 0 0 1 1591.5 501 A 49.5 49.5 0 0 1 1542 550.5 A 49.5 49.5 0 0 1 1492.5 501 Z " stroke-width="5" stroke="#11e48a" fill="none" stroke-opacity="0.2" />
  </g>
</svg>