<?xml version="1.0" encoding="utf-8"?>
<svg version="1.1" xmlns:xlink="http://www.w3.org/1999/xlink" width="104px" height="104px" xmlns="http://www.w3.org/2000/svg">
  <g transform="matrix(1 0 0 1 -1758 -448 )">
    <path d="M 1763 500  A 47 47 0 0 1 1810 453 A 47 47 0 0 1 1857 500 A 47 47 0 0 1 1810 547 A 47 47 0 0 1 1763 500 Z " fill-rule="nonzero" fill="#ffffff" stroke="none" fill-opacity="0" />
    <path d="M 1760.5 500  A 49.5 49.5 0 0 1 1810 450.5 A 49.5 49.5 0 0 1 1859.5 500 A 49.5 49.5 0 0 1 1810 549.5 A 49.5 49.5 0 0 1 1760.5 500 Z " stroke-width="5" stroke="#ffbf2f" fill="none" stroke-opacity="0.2" />
  </g>
</svg>