<?xml version="1.0" encoding="utf-8"?>
<svg version="1.1" xmlns:xlink="http://www.w3.org/1999/xlink" width="70px" height="70px" xmlns="http://www.w3.org/2000/svg">
  <g transform="matrix(1 0 0 1 -1387 -552 )">
    <path d="M 1422 553  C 1441.04 553  1456 567.96  1456 587  C 1456 606.04  1441.04 621  1422 621  C 1402.96 621  1388 606.04  1388 587  C 1388 567.96  1402.96 553  1422 553  Z " fill-rule="nonzero" fill="#ffffff" stroke="none" fill-opacity="0" />
    <path d="M 1422 553  C 1441.04 553  1456 567.96  1456 587  C 1456 606.04  1441.04 621  1422 621  C 1402.96 621  1388 606.04  1388 587  C 1388 567.96  1402.96 553  1422 553  Z " stroke-width="2" stroke="#cccccc" fill="none" />
  </g>
</svg>