<?xml version="1.0" encoding="utf-8"?>
<svg version="1.1" xmlns:xlink="http://www.w3.org/1999/xlink" width="60px" height="78px" xmlns="http://www.w3.org/2000/svg">
  <defs>
    <mask fill="white" id="clip1776">
      <path d="M 5.09915406890764 13.8707691473672  C 5.09915406890764 13.8707691473672  1.90297503922193 16.8752434374068  1.90297503922193 16.8752434374068  C 1.90297503922193 16.8752434374068  5.59329375148172 23.7985409173795  5.59329375148172 23.7985409173795  C 5.59329375148172 23.7985409173795  5.98110757537597 27.4455913833727  5.98110757537597 27.4455913833727  C 5.98110757537597 27.4455913833727  3.98126695675319 31.0837743416079  3.98126695675319 31.0837743416079  C 3.98126695675319 31.0837743416079  1.18832271519614 33.2139095621727  1.18832271519614 33.2139095621727  C 1.18832271519614 33.2139095621727  0.506408506177422 40.1741345415915  0.506408506177422 40.1741345415915  C 0.506408506177422 40.1741345415915  1.43160459519345 41.1847710089264  1.43160459519345 41.1847710089264  C 1.43160459519345 41.1847710089264  3.02174627371778 40.5611182592936  3.02174627371778 40.5611182592936  C 3.02174627371778 40.5611182592936  3.94985326054302 41.1922748240506  3.94985326054302 41.1922748240506  C 3.94985326054302 41.1922748240506  3.93732995875348 45.3385665026799  3.93732995875348 45.3385665026799  C 3.93732995875348 45.3385665026799  5.9113404402251 50.2523840094767  5.9113404402251 50.2523840094767  C 5.9113404402251 50.2523840094767  8.16488181769637 51.135516091932  8.16488181769637 51.135516091932  C 8.16488181769637 51.135516091932  8.40793869649906 58.3044552806913  8.40793869649906 58.3044552806913  C 8.40793869649906 58.3044552806913  7.06430832688443 63.2004992099691  7.06430832688443 63.2004992099691  C 7.06430832688443 63.2004992099691  8.38669064250098 65.3393915107395  8.38669064250098 65.3393915107395  C 8.38669064250098 65.3393915107395  10.8968383824838 67.7368604429103  10.8968383824838 67.7368604429103  C 10.8968383824838 67.7368604429103  16.998485192373 66.2467282610411  16.998485192373 66.2467282610411  C 16.998485192373 66.2467282610411  18.1876262122785 68.3869763667633  18.1876262122785 68.3869763667633  C 18.1876262122785 68.3869763667633  16.327467217681 70.7679170988141  16.327467217681 70.7679170988141  C 16.327467217681 70.7679170988141  13.1302461236387 75.2859605041555  13.1302461236387 75.2859605041555  C 13.1302461236387 75.2859605041555  13.1268340466979 76.4156518957752  13.1268340466979 76.4156518957752  C 13.1268340466979 76.4156518957752  14.9759838651928 77.6796968097653  14.9759838651928 77.6796968097653  C 14.9759838651928 77.6796968097653  27.7201865335255 72.9403224089905  27.7201865335255 72.9403224089905  C 27.7201865335255 72.9403224089905  32.6515235999691 75.3450059412666  32.6515235999691 75.3450059412666  C 32.6515235999691 75.3450059412666  33.9788638830878 74.0895498369257  33.9788638830878 74.0895498369257  C 33.9788638830878 74.0895498369257  32.6632951330612 71.4476144606356  32.6632951330612 71.4476144606356  C 32.6632951330612 71.4476144606356  32.9782968056363 69.6957190237044  32.9782968056363 69.6957190237044  C 32.9782968056363 69.6957190237044  34.9525375824485 58.7577822944788  34.9525375824485 58.7577822944788  C 34.9525375824485 58.7577822944788  36.8191342582872 55.9982485859077  36.8191342582872 55.9982485859077  C 36.8191342582872 55.9982485859077  37.7555954071179 52.9870408443851  37.7555954071179 52.9870408443851  C 37.7555954071179 52.9870408443851  40.0236886265614 48.4679816808413  40.0236886265614 48.4679816808413  C 40.0236886265614 48.4679816808413  38.8351740805704 46.7045947671633  38.8351740805704 46.7045947671633  C 38.8351740805704 46.7045947671633  39.1116555486137 42.8071156456175  39.1116555486137 42.8071156456175  C 39.1116555486137 42.8071156456175  44.5657409789474 36.6113236464832  44.5657409789474 36.6113236464832  C 44.5657409789474 36.6113236464832  44.1822136484016 32.7136306811054  44.1822136484016 32.7136306811054  C 44.1822136484016 32.7136306811054  47.7811739343956 26.9400023392785  47.7811739343956 26.9400023392785  C 47.7811739343956 26.9400023392785  51.2197216039356 27.8266654741906  51.2197216039356 27.8266654741906  C 51.2197216039356 27.8266654741906  58.2612469337423 23.0702983764475  58.2612469337423 23.0702983764475  C 58.2612469337423 23.0702983764475  59.59640843486 20.6860404357719  59.59640843486 20.6860404357719  C 59.59640843486 20.6860404357719  55.1114825622708 12.7524956141259  55.1114825622708 12.7524956141259  C 55.1114825622708 12.7524956141259  52.2052841899524 8.85079132407827  52.2052841899524 8.85079132407827  C 52.2052841899524 8.85079132407827  54.3287475238026 6.93513620863803  54.3287475238026 6.93513620863803  C 54.3287475238026 6.93513620863803  51.6884114454954 4.69678724494759  51.6884114454954 4.69678724494759  C 51.6884114454954 4.69678724494759  44.9286696707084 4.6766447335018  44.9286696707084 4.6766447335018  C 44.9286696707084 4.6766447335018  42.1530549329309 1.65349942297587  42.1530549329309 1.65349942297587  C 42.1530549329309 1.65349942297587  36.7060539519782 6.67228445341459  36.7060539519782 6.67228445341459  C 36.7060539519782 6.67228445341459  34.7198669352642 5.78994902687464  34.7198669352642 5.78994902687464  C 34.7198669352642 5.78994902687464  36.9869472081527 1.89840144244181  36.9869472081527 1.89840144244181  C 36.9869472081527 1.89840144244181  36.7260278815641 0.643471183589668  36.7260278815641 0.643471183589668  C 36.7260278815641 0.643471183589668  34.7387185059495 0.132733235751743  34.7387185059495 0.132733235751743  C 34.7387185059495 0.132733235751743  27.9329238395746 3.38236545672817  27.9329238395746 3.38236545672817  C 27.9329238395746 3.38236545672817  22.8883467600922 4.87389463477916  22.8883467600922 4.87389463477916  C 22.8883467600922 4.87389463477916  18.7817343668353 4.60924974643899  18.7817343668353 4.60924974643899  C 18.7817343668353 4.60924974643899  9.87549972415263 12.3766878658777  9.87549972415263 12.3766878658777  C 9.87549972415263 12.3766878658777  5.09915406890764 13.8707691473672  5.09915406890764 13.8707691473672  Z " fill-rule="evenodd" />
    </mask>
  </defs>
  <g transform="matrix(1 0 0 1 -1075 -762 )">
    <path d="M 5.09915406890764 13.8707691473672  C 5.09915406890764 13.8707691473672  1.90297503922193 16.8752434374068  1.90297503922193 16.8752434374068  C 1.90297503922193 16.8752434374068  5.59329375148172 23.7985409173795  5.59329375148172 23.7985409173795  C 5.59329375148172 23.7985409173795  5.98110757537597 27.4455913833727  5.98110757537597 27.4455913833727  C 5.98110757537597 27.4455913833727  3.98126695675319 31.0837743416079  3.98126695675319 31.0837743416079  C 3.98126695675319 31.0837743416079  1.18832271519614 33.2139095621727  1.18832271519614 33.2139095621727  C 1.18832271519614 33.2139095621727  0.506408506177422 40.1741345415915  0.506408506177422 40.1741345415915  C 0.506408506177422 40.1741345415915  1.43160459519345 41.1847710089264  1.43160459519345 41.1847710089264  C 1.43160459519345 41.1847710089264  3.02174627371778 40.5611182592936  3.02174627371778 40.5611182592936  C 3.02174627371778 40.5611182592936  3.94985326054302 41.1922748240506  3.94985326054302 41.1922748240506  C 3.94985326054302 41.1922748240506  3.93732995875348 45.3385665026799  3.93732995875348 45.3385665026799  C 3.93732995875348 45.3385665026799  5.9113404402251 50.2523840094767  5.9113404402251 50.2523840094767  C 5.9113404402251 50.2523840094767  8.16488181769637 51.135516091932  8.16488181769637 51.135516091932  C 8.16488181769637 51.135516091932  8.40793869649906 58.3044552806913  8.40793869649906 58.3044552806913  C 8.40793869649906 58.3044552806913  7.06430832688443 63.2004992099691  7.06430832688443 63.2004992099691  C 7.06430832688443 63.2004992099691  8.38669064250098 65.3393915107395  8.38669064250098 65.3393915107395  C 8.38669064250098 65.3393915107395  10.8968383824838 67.7368604429103  10.8968383824838 67.7368604429103  C 10.8968383824838 67.7368604429103  16.998485192373 66.2467282610411  16.998485192373 66.2467282610411  C 16.998485192373 66.2467282610411  18.1876262122785 68.3869763667633  18.1876262122785 68.3869763667633  C 18.1876262122785 68.3869763667633  16.327467217681 70.7679170988141  16.327467217681 70.7679170988141  C 16.327467217681 70.7679170988141  13.1302461236387 75.2859605041555  13.1302461236387 75.2859605041555  C 13.1302461236387 75.2859605041555  13.1268340466979 76.4156518957752  13.1268340466979 76.4156518957752  C 13.1268340466979 76.4156518957752  14.9759838651928 77.6796968097653  14.9759838651928 77.6796968097653  C 14.9759838651928 77.6796968097653  27.7201865335255 72.9403224089905  27.7201865335255 72.9403224089905  C 27.7201865335255 72.9403224089905  32.6515235999691 75.3450059412666  32.6515235999691 75.3450059412666  C 32.6515235999691 75.3450059412666  33.9788638830878 74.0895498369257  33.9788638830878 74.0895498369257  C 33.9788638830878 74.0895498369257  32.6632951330612 71.4476144606356  32.6632951330612 71.4476144606356  C 32.6632951330612 71.4476144606356  32.9782968056363 69.6957190237044  32.9782968056363 69.6957190237044  C 32.9782968056363 69.6957190237044  34.9525375824485 58.7577822944788  34.9525375824485 58.7577822944788  C 34.9525375824485 58.7577822944788  36.8191342582872 55.9982485859077  36.8191342582872 55.9982485859077  C 36.8191342582872 55.9982485859077  37.7555954071179 52.9870408443851  37.7555954071179 52.9870408443851  C 37.7555954071179 52.9870408443851  40.0236886265614 48.4679816808413  40.0236886265614 48.4679816808413  C 40.0236886265614 48.4679816808413  38.8351740805704 46.7045947671633  38.8351740805704 46.7045947671633  C 38.8351740805704 46.7045947671633  39.1116555486137 42.8071156456175  39.1116555486137 42.8071156456175  C 39.1116555486137 42.8071156456175  44.5657409789474 36.6113236464832  44.5657409789474 36.6113236464832  C 44.5657409789474 36.6113236464832  44.1822136484016 32.7136306811054  44.1822136484016 32.7136306811054  C 44.1822136484016 32.7136306811054  47.7811739343956 26.9400023392785  47.7811739343956 26.9400023392785  C 47.7811739343956 26.9400023392785  51.2197216039356 27.8266654741906  51.2197216039356 27.8266654741906  C 51.2197216039356 27.8266654741906  58.2612469337423 23.0702983764475  58.2612469337423 23.0702983764475  C 58.2612469337423 23.0702983764475  59.59640843486 20.6860404357719  59.59640843486 20.6860404357719  C 59.59640843486 20.6860404357719  55.1114825622708 12.7524956141259  55.1114825622708 12.7524956141259  C 55.1114825622708 12.7524956141259  52.2052841899524 8.85079132407827  52.2052841899524 8.85079132407827  C 52.2052841899524 8.85079132407827  54.3287475238026 6.93513620863803  54.3287475238026 6.93513620863803  C 54.3287475238026 6.93513620863803  51.6884114454954 4.69678724494759  51.6884114454954 4.69678724494759  C 51.6884114454954 4.69678724494759  44.9286696707084 4.6766447335018  44.9286696707084 4.6766447335018  C 44.9286696707084 4.6766447335018  42.1530549329309 1.65349942297587  42.1530549329309 1.65349942297587  C 42.1530549329309 1.65349942297587  36.7060539519782 6.67228445341459  36.7060539519782 6.67228445341459  C 36.7060539519782 6.67228445341459  34.7198669352642 5.78994902687464  34.7198669352642 5.78994902687464  C 34.7198669352642 5.78994902687464  36.9869472081527 1.89840144244181  36.9869472081527 1.89840144244181  C 36.9869472081527 1.89840144244181  36.7260278815641 0.643471183589668  36.7260278815641 0.643471183589668  C 36.7260278815641 0.643471183589668  34.7387185059495 0.132733235751743  34.7387185059495 0.132733235751743  C 34.7387185059495 0.132733235751743  27.9329238395746 3.38236545672817  27.9329238395746 3.38236545672817  C 27.9329238395746 3.38236545672817  22.8883467600922 4.87389463477916  22.8883467600922 4.87389463477916  C 22.8883467600922 4.87389463477916  18.7817343668353 4.60924974643899  18.7817343668353 4.60924974643899  C 18.7817343668353 4.60924974643899  9.87549972415263 12.3766878658777  9.87549972415263 12.3766878658777  C 9.87549972415263 12.3766878658777  5.09915406890764 13.8707691473672  5.09915406890764 13.8707691473672  Z " fill-rule="nonzero" fill="#031e4b" stroke="none" transform="matrix(1 0 0 1 1075 762 )" />
    <path d="M 5.09915406890764 13.8707691473672  C 5.09915406890764 13.8707691473672  1.90297503922193 16.8752434374068  1.90297503922193 16.8752434374068  C 1.90297503922193 16.8752434374068  5.59329375148172 23.7985409173795  5.59329375148172 23.7985409173795  C 5.59329375148172 23.7985409173795  5.98110757537597 27.4455913833727  5.98110757537597 27.4455913833727  C 5.98110757537597 27.4455913833727  3.98126695675319 31.0837743416079  3.98126695675319 31.0837743416079  C 3.98126695675319 31.0837743416079  1.18832271519614 33.2139095621727  1.18832271519614 33.2139095621727  C 1.18832271519614 33.2139095621727  0.506408506177422 40.1741345415915  0.506408506177422 40.1741345415915  C 0.506408506177422 40.1741345415915  1.43160459519345 41.1847710089264  1.43160459519345 41.1847710089264  C 1.43160459519345 41.1847710089264  3.02174627371778 40.5611182592936  3.02174627371778 40.5611182592936  C 3.02174627371778 40.5611182592936  3.94985326054302 41.1922748240506  3.94985326054302 41.1922748240506  C 3.94985326054302 41.1922748240506  3.93732995875348 45.3385665026799  3.93732995875348 45.3385665026799  C 3.93732995875348 45.3385665026799  5.9113404402251 50.2523840094767  5.9113404402251 50.2523840094767  C 5.9113404402251 50.2523840094767  8.16488181769637 51.135516091932  8.16488181769637 51.135516091932  C 8.16488181769637 51.135516091932  8.40793869649906 58.3044552806913  8.40793869649906 58.3044552806913  C 8.40793869649906 58.3044552806913  7.06430832688443 63.2004992099691  7.06430832688443 63.2004992099691  C 7.06430832688443 63.2004992099691  8.38669064250098 65.3393915107395  8.38669064250098 65.3393915107395  C 8.38669064250098 65.3393915107395  10.8968383824838 67.7368604429103  10.8968383824838 67.7368604429103  C 10.8968383824838 67.7368604429103  16.998485192373 66.2467282610411  16.998485192373 66.2467282610411  C 16.998485192373 66.2467282610411  18.1876262122785 68.3869763667633  18.1876262122785 68.3869763667633  C 18.1876262122785 68.3869763667633  16.327467217681 70.7679170988141  16.327467217681 70.7679170988141  C 16.327467217681 70.7679170988141  13.1302461236387 75.2859605041555  13.1302461236387 75.2859605041555  C 13.1302461236387 75.2859605041555  13.1268340466979 76.4156518957752  13.1268340466979 76.4156518957752  C 13.1268340466979 76.4156518957752  14.9759838651928 77.6796968097653  14.9759838651928 77.6796968097653  C 14.9759838651928 77.6796968097653  27.7201865335255 72.9403224089905  27.7201865335255 72.9403224089905  C 27.7201865335255 72.9403224089905  32.6515235999691 75.3450059412666  32.6515235999691 75.3450059412666  C 32.6515235999691 75.3450059412666  33.9788638830878 74.0895498369257  33.9788638830878 74.0895498369257  C 33.9788638830878 74.0895498369257  32.6632951330612 71.4476144606356  32.6632951330612 71.4476144606356  C 32.6632951330612 71.4476144606356  32.9782968056363 69.6957190237044  32.9782968056363 69.6957190237044  C 32.9782968056363 69.6957190237044  34.9525375824485 58.7577822944788  34.9525375824485 58.7577822944788  C 34.9525375824485 58.7577822944788  36.8191342582872 55.9982485859077  36.8191342582872 55.9982485859077  C 36.8191342582872 55.9982485859077  37.7555954071179 52.9870408443851  37.7555954071179 52.9870408443851  C 37.7555954071179 52.9870408443851  40.0236886265614 48.4679816808413  40.0236886265614 48.4679816808413  C 40.0236886265614 48.4679816808413  38.8351740805704 46.7045947671633  38.8351740805704 46.7045947671633  C 38.8351740805704 46.7045947671633  39.1116555486137 42.8071156456175  39.1116555486137 42.8071156456175  C 39.1116555486137 42.8071156456175  44.5657409789474 36.6113236464832  44.5657409789474 36.6113236464832  C 44.5657409789474 36.6113236464832  44.1822136484016 32.7136306811054  44.1822136484016 32.7136306811054  C 44.1822136484016 32.7136306811054  47.7811739343956 26.9400023392785  47.7811739343956 26.9400023392785  C 47.7811739343956 26.9400023392785  51.2197216039356 27.8266654741906  51.2197216039356 27.8266654741906  C 51.2197216039356 27.8266654741906  58.2612469337423 23.0702983764475  58.2612469337423 23.0702983764475  C 58.2612469337423 23.0702983764475  59.59640843486 20.6860404357719  59.59640843486 20.6860404357719  C 59.59640843486 20.6860404357719  55.1114825622708 12.7524956141259  55.1114825622708 12.7524956141259  C 55.1114825622708 12.7524956141259  52.2052841899524 8.85079132407827  52.2052841899524 8.85079132407827  C 52.2052841899524 8.85079132407827  54.3287475238026 6.93513620863803  54.3287475238026 6.93513620863803  C 54.3287475238026 6.93513620863803  51.6884114454954 4.69678724494759  51.6884114454954 4.69678724494759  C 51.6884114454954 4.69678724494759  44.9286696707084 4.6766447335018  44.9286696707084 4.6766447335018  C 44.9286696707084 4.6766447335018  42.1530549329309 1.65349942297587  42.1530549329309 1.65349942297587  C 42.1530549329309 1.65349942297587  36.7060539519782 6.67228445341459  36.7060539519782 6.67228445341459  C 36.7060539519782 6.67228445341459  34.7198669352642 5.78994902687464  34.7198669352642 5.78994902687464  C 34.7198669352642 5.78994902687464  36.9869472081527 1.89840144244181  36.9869472081527 1.89840144244181  C 36.9869472081527 1.89840144244181  36.7260278815641 0.643471183589668  36.7260278815641 0.643471183589668  C 36.7260278815641 0.643471183589668  34.7387185059495 0.132733235751743  34.7387185059495 0.132733235751743  C 34.7387185059495 0.132733235751743  27.9329238395746 3.38236545672817  27.9329238395746 3.38236545672817  C 27.9329238395746 3.38236545672817  22.8883467600922 4.87389463477916  22.8883467600922 4.87389463477916  C 22.8883467600922 4.87389463477916  18.7817343668353 4.60924974643899  18.7817343668353 4.60924974643899  C 18.7817343668353 4.60924974643899  9.87549972415263 12.3766878658777  9.87549972415263 12.3766878658777  C 9.87549972415263 12.3766878658777  5.09915406890764 13.8707691473672  5.09915406890764 13.8707691473672  Z " stroke-width="0.97600957434184" stroke="#47b3fe" fill="none" transform="matrix(1 0 0 1 1075 762 )" mask="url(#clip1776)" />
  </g>
</svg>