<?xml version="1.0" encoding="utf-8"?>
<svg version="1.1" xmlns:xlink="http://www.w3.org/1999/xlink" width="240px" height="125px" xmlns="http://www.w3.org/2000/svg">
  <defs>
    <mask fill="white" id="clip1783">
      <path d="M 132.918750193889 114.637676360465  C 132.918750193889 114.637676360465  138.726941912966 117.946544281788  138.726941912966 117.946544281788  C 138.726941912966 117.946544281788  146.254893972305 118.849452245004  146.254893972305 118.849452245004  C 146.254893972305 118.849452245004  148.755464612308 122.265463340862  148.755464612308 122.265463340862  C 148.755464612308 122.265463340862  150.072636441306 122.775589288932  150.072636441306 122.775589288932  C 150.072636441306 122.775589288932  161.437004475391 120.785050550686  161.437004475391 120.785050550686  C 161.437004475391 120.785050550686  162.102024270206 118.892654939187  162.102024270206 118.892654939187  C 162.102024270206 118.892654939187  164.352474021694 117.76295527881  164.352474021694 117.76295527881  C 164.352474021694 117.76295527881  169.782502853706 113.487832226929  169.782502853706 113.487832226929  C 169.782502853706 113.487832226929  174.539589211472 112.869190737882  174.539589211472 112.869190737882  C 174.539589211472 112.869190737882  178.907995703254 110.230866869928  178.907995703254 110.230866869928  C 178.907995703254 110.230866869928  187.508029059456 105.712621928542  187.508029059456 105.712621928542  C 187.508029059456 105.712621928542  188.429214610047 107.228615013274  188.429214610047 107.228615013274  C 188.429214610047 107.228615013274  194.765160340149 109.272324808493  194.765160340149 109.272324808493  C 194.765160340149 109.272324808493  204.026301382481 104.754305220417  204.026301382481 104.754305220417  C 204.026301382481 104.754305220417  206.926133043554 106.6582898019  206.926133043554 106.6582898019  C 206.926133043554 106.6582898019  204.273394562612 110.310584722786  204.273394562612 110.310584722786  C 204.273394562612 110.310584722786  205.325707842424 111.194040117925  205.325707842424 111.194040117925  C 205.325707842424 111.194040117925  209.022430767745 111.205144930409  209.022430767745 111.205144930409  C 209.022430767745 111.205144930409  209.41614099011 112.719553499686  209.41614099011 112.719553499686  C 209.41614099011 112.719553499686  206.228859890669 118.142275074588  206.228859890669 118.142275074588  C 206.228859890669 118.142275074588  207.150183463971 119.025336981722  207.150183463971 119.025336981722  C 207.150183463971 119.025336981722  208.996347112764 119.030882785817  208.996347112764 119.030882785817  C 208.996347112764 119.030882785817  218.237561016321 121.457444965992  218.237561016321 121.457444965992  C 218.237561016321 121.457444965992  222.345876456759 118.188049085241  222.345876456759 118.188049085241  C 222.345876456759 118.188049085241  228.407896336783 122.751218560939  228.407896336783 122.751218560939  C 228.407896336783 122.751218560939  230.260497821957 120.607985349954  230.260497821957 120.607985349954  C 230.260497821957 120.607985349954  231.83837433193 122.131232874613  231.83837433193 122.131232874613  C 231.83837433193 122.131232874613  233.818165063874 122.13718008929  233.818165063874 122.13718008929  C 233.818165063874 122.13718008929  234.74755461407 120.621464294763  234.74755461407 120.621464294763  C 234.74755461407 120.621464294763  234.374502083809 113.679223207953  234.374502083809 113.679223207953  C 234.374502083809 113.679223207953  235.959583906767 112.797528385543  235.959583906767 112.797528385543  C 235.959583906767 112.797528385543  239.802666290536 108.265874041971  239.802666290536 108.265874041971  C 239.802666290536 108.265874041971  239.212572607844 90.725118053101  239.212572607844 90.725118053101  C 239.212572607844 90.725118053101  235.801673617755 81.875836910838  235.801673617755 81.875836910838  C 235.801673617755 81.875836910838  238.317746757656 80.1175247577658  238.317746757656 80.1175247577658  C 238.317746757656 80.1175247577658  231.09174003783 67.3429947805158  231.09174003783 67.3429947805158  C 231.09174003783 67.3429947805158  222.261156006916 60.1966478564376  222.261156006916 60.1966478564376  C 222.261156006916 60.1966478564376  219.747595407829 61.7032033910588  219.747595407829 61.7032033910588  C 219.747595407829 61.7032033910588  219.998314980842 66.0490891426148  219.998314980842 66.0490891426148  C 219.998314980842 66.0490891426148  212.305730838559 75.4944262666781  212.305730838559 75.4944262666781  C 212.305730838559 75.4944262666781  199.631032330484 72.9307876544377  199.631032330484 72.9307876544377  C 199.631032330484 72.9307876544377  198.722449044609 68.3822186083775  198.722449044609 68.3822186083775  C 198.722449044609 68.3822186083775  190.81393232721 61.8706928367212  190.81393232721 61.8706928367212  C 190.81393232721 61.8706928367212  173.384418242656 59.1677691539281  173.384418242656 59.1677691539281  C 173.384418242656 59.1677691539281  165.85760289265 57.8854577677304  165.85760289265 57.8854577677304  C 165.85760289265 57.8854577677304  162.949341296707 57.6214361193665  162.949341296707 57.6214361193665  C 162.949341296707 57.6214361193665  156.361737087508 52.4255168050623  156.361737087508 52.4255168050623  C 156.361737087508 52.4255168050623  142.631846163454 49.3525392207617  142.631846163454 49.3525392207617  C 142.631846163454 49.3525392207617  133.173165610701 31.7745788089938  133.173165610701 31.7745788089938  C 133.173165610701 31.7745788089938  132.924176156765 26.8512252025046  132.924176156765 26.8512252025046  C 132.924176156765 26.8512252025046  136.758071678568 25.0924702653912  136.758071678568 25.0924702653912  C 136.758071678568 25.0924702653912  136.774333742937 19.6646245435629  136.774333742937 19.6646245435629  C 136.774333742937 19.6646245435629  139.570656282975 12.9827880084468  139.570656282975 12.9827880084468  C 139.570656282975 12.9827880084468  136.408730922562 9.94243647766348  136.408730922562 9.94243647766348  C 136.408730922562 9.94243647766348  140.646277818416 6.67342880319916  140.646277818416 6.67342880319916  C 140.646277818416 6.67342880319916  138.013440102483 5.1505333930852  138.013440102483 5.1505333930852  C 138.013440102483 5.1505333930852  131.668791029465 5.13147431301331  131.668791029465 5.13147431301331  C 131.668791029465 5.13147431301331  119.895365878341 0.166459393764171  119.895365878341 0.166459393764171  C 119.895365878341 0.166459393764171  112.630272357568 0.144635334222244  112.630272357568 0.144635334222244  C 112.630272357568 0.144635334222244  106.94657712371 1.64430879004794  106.94657712371 1.64430879004794  C 106.94657712371 1.64430879004794  100.605444552881 1.62526027341244  100.605444552881 1.62526027341244  C 100.605444552881 1.62526027341244  90.6830709885904 6.77158425395601  90.6830709885904 6.77158425395601  C 90.6830709885904 6.77158425395601  82.7560091177767 5.86307590889112  82.7560091177767 5.86307590889112  C 82.7560091177767 5.86307590889112  74.8209902816366 8.4906858115063  74.8209902816366 8.4906858115063  C 74.8209902816366 8.4906858115063  68.2239284398028 6.45147339932282  68.2239284398028 6.45147339932282  C 68.2239284398028 6.45147339932282  64.1383023506086 3.0280599754276  64.1383023506086 3.0280599754276  C 64.1383023506086 3.0280599754276  53.57398867449 1.48309930730784  53.57398867449 1.48309930730784  C 53.57398867449 1.48309930730784  46.6829595574824 6.01175979695472  46.6829595574824 6.01175979695472  C 46.6829595574824 6.01175979695472  42.8597753013451 4.48880980908609  42.8597753013451 4.48880980908609  C 42.8597753013451 4.48880980908609  39.6959615792572 2.07874331508981  39.6959615792572 2.07874331508981  C 39.6959615792572 2.07874331508981  32.0370409124218 0.28810528615054  32.0370409124218 0.28810528615054  C 32.0370409124218 0.28810528615054  26.6119176009628 3.80618998737305  26.6119176009628 3.80618998737305  C 26.6119176009628 3.80618998737305  24.4800917760391 9.35708389776573  24.4800917760391 9.35708389776573  C 24.4800917760391 9.35708389776573  20.2451928063334 11.7422840625453  20.2451928063334 11.7422840625453  C 20.2451928063334 11.7422840625453  19.3096335530479 15.0238516628544  19.3096335530479 15.0238516628544  C 19.3096335530479 15.0238516628544  16.5342342010296 15.8958087575038  16.5342342010296 15.8958087575038  C 16.5342342010296 15.8958087575038  13.3639852799373 15.6336409922231  13.3639852799373 15.6336409922231  C 13.3639852799373 15.6336409922231  12.0381153827774 18.0266994733763  12.0381153827774 18.0266994733763  C 12.0381153827774 18.0266994733763  11.365919286122 21.4340599951335  11.365919286122 21.4340599951335  C 11.365919286122 21.4340599951335  9.99748740472739 21.3075883728985  9.99748740472739 21.3075883728985  C 9.99748740472739 21.3075883728985  9.77102114730667 24.7118863783946  9.77102114730667 24.7118863783946  C 9.77102114730667 24.7118863783946  13.5904075810807 28.3827430175562  13.5904075810807 28.3827430175562  C 13.5904075810807 28.3827430175562  13.8386269210375 33.5631402423999  13.8386269210375 33.5631402423999  C 13.8386269210375 33.5631402423999  12.6413458385182 35.5842205160532  12.6413458385182 35.5842205160532  C 12.6413458385182 35.5842205160532  6.96031699244452 36.1939244576445  6.96031699244452 36.1939244576445  C 6.96031699244452 36.1939244576445  4.060363132921 33.1570007619634  4.060363132921 33.1570007619634  C 4.060363132921 33.1570007619634  1.15811211834296 33.5276893499397  1.15811211834296 33.5276893499397  C 1.15811211834296 33.5276893499397  0.623447301392844 35.925765463369  0.623447301392844 35.925765463369  C 0.623447301392844 35.925765463369  2.19415542165564 39.8416313259995  2.19415542165564 39.8416313259995  C 2.19415542165564 39.8416313259995  2.71330718920274 42.6213996069579  2.71330718920274 42.6213996069579  C 2.71330718920274 42.6213996069579  2.70271020985865 46.158390218425  2.70271020985865 46.158390218425  C 2.70271020985865 46.158390218425  1.76855052444409 48.6793877591822  1.76855052444409 48.6793877591822  C 1.76855052444409 48.6793877591822  2.15810687859914 50.6999530653123  2.15810687859914 50.6999530653123  C 2.15810687859914 50.6999530653123  5.85808872232269 51.0904745050746  5.85808872232269 51.0904745050746  C 5.85808872232269 51.0904745050746  7.8289264396949 54.3781319264515  7.8289264396949 54.3781319264515  C 7.8289264396949 54.3781319264515  16.3995908487465 60.8361882240581  16.3995908487465 60.8361882240581  C 16.3995908487465 60.8361882240581  16.392237842671 63.2904266075251  16.392237842671 63.2904266075251  C 16.392237842671 63.2904266075251  22.7150846021218 69.9996567740096  22.7150846021218 69.9996567740096  C 22.7150846021218 69.9996567740096  24.8178043384339 72.4030146056242  24.8178043384339 72.4030146056242  C 24.8178043384339 72.4030146056242  26.8009814619845 73.0392627022426  26.8009814619845 73.0392627022426  C 26.8009814619845 73.0392627022426  30.6414106448527 69.3931764410841  30.6414106448527 69.3931764410841  C 30.6414106448527 69.3931764410841  34.067086856262 72.4299187977741  34.067086856262 72.4299187977741  C 34.067086856262 72.4299187977741  48.5643541625728 84.3415956019536  48.5643541625728 84.3415956019536  C 48.5643541625728 84.3415956019536  51.1835671907778 90.4120503696681  51.1835671907778 90.4120503696681  C 51.1835671907778 90.4120503696681  54.3554521645131 90.4215785892745  54.3554521645131 90.4215785892745  C 54.3554521645131 90.4215785892745  56.2069143029778 88.6586290876356  56.2069143029778 88.6586290876356  C 56.2069143029778 88.6586290876356  57.7848013624579 90.1783554668383  57.7848013624579 90.1783554668383  C 57.7848013624579 90.1783554668383  57.7685419354652 95.6053209023023  57.7685419354652 95.6053209023023  C 57.7685419354652 95.6053209023023  66.3413417404705 100.176912957933  66.3413417404705 100.176912957933  C 66.3413417404705 100.176912957933  68.204468995819 99.8022225881444  68.204468995819 99.8022225881444  C 68.204468995819 99.8022225881444  69.509540540787 104.351102375291  69.509540540787 104.351102375291  C 69.509540540787 104.351102375291  76.7625258654003 108.414321133003  76.7625258654003 108.414321133003  C 76.7625258654003 108.414321133003  77.0183171136938 111.067416206149  77.0183171136938 111.067416206149  C 77.0183171136938 111.067416206149  78.3343680576189 111.951663859016  78.3343680576189 111.951663859016  C 78.3343680576189 111.951663859016  84.677139318468 111.717192543612  84.677139318468 111.717192543612  C 84.677139318468 111.717192543612  88.1127619563165 111.727513020947  88.1127619563165 111.727513020947  C 88.1127619563165 111.727513020947  93.2552217888855 115.4058652985  93.2552217888855 115.4058652985  C 93.2552217888855 115.4058652985  104.614663203405 115.059701488631  104.614663203405 115.059701488631  C 104.614663203405 115.059701488631  110.69193591167 114.825312920146  110.69193591167 114.825312920146  C 110.69193591167 114.825312920146  112.267169770249 117.230607381762  112.267169770249 117.230607381762  C 112.267169770249 117.230607381762  110.932976312409 122.401849628418  110.932976312409 122.401849628418  C 110.932976312409 122.401849628418  112.51010908217 124.17333790779  112.51010908217 124.17333790779  C 112.51010908217 124.17333790779  118.866367008036 119.143944125579  118.866367008036 119.143944125579  C 118.866367008036 119.143944125579  127.239984216973 113.611800314744  127.239984216973 113.611800314744  C 127.239984216973 113.611800314744  132.918750193889 114.637676360465  132.918750193889 114.637676360465  Z " fill-rule="evenodd" />
    </mask>
  </defs>
  <g transform="matrix(1 0 0 1 -655 -676 )">
    <path d="M 132.918750193889 114.637676360465  C 132.918750193889 114.637676360465  138.726941912966 117.946544281788  138.726941912966 117.946544281788  C 138.726941912966 117.946544281788  146.254893972305 118.849452245004  146.254893972305 118.849452245004  C 146.254893972305 118.849452245004  148.755464612308 122.265463340862  148.755464612308 122.265463340862  C 148.755464612308 122.265463340862  150.072636441306 122.775589288932  150.072636441306 122.775589288932  C 150.072636441306 122.775589288932  161.437004475391 120.785050550686  161.437004475391 120.785050550686  C 161.437004475391 120.785050550686  162.102024270206 118.892654939187  162.102024270206 118.892654939187  C 162.102024270206 118.892654939187  164.352474021694 117.76295527881  164.352474021694 117.76295527881  C 164.352474021694 117.76295527881  169.782502853706 113.487832226929  169.782502853706 113.487832226929  C 169.782502853706 113.487832226929  174.539589211472 112.869190737882  174.539589211472 112.869190737882  C 174.539589211472 112.869190737882  178.907995703254 110.230866869928  178.907995703254 110.230866869928  C 178.907995703254 110.230866869928  187.508029059456 105.712621928542  187.508029059456 105.712621928542  C 187.508029059456 105.712621928542  188.429214610047 107.228615013274  188.429214610047 107.228615013274  C 188.429214610047 107.228615013274  194.765160340149 109.272324808493  194.765160340149 109.272324808493  C 194.765160340149 109.272324808493  204.026301382481 104.754305220417  204.026301382481 104.754305220417  C 204.026301382481 104.754305220417  206.926133043554 106.6582898019  206.926133043554 106.6582898019  C 206.926133043554 106.6582898019  204.273394562612 110.310584722786  204.273394562612 110.310584722786  C 204.273394562612 110.310584722786  205.325707842424 111.194040117925  205.325707842424 111.194040117925  C 205.325707842424 111.194040117925  209.022430767745 111.205144930409  209.022430767745 111.205144930409  C 209.022430767745 111.205144930409  209.41614099011 112.719553499686  209.41614099011 112.719553499686  C 209.41614099011 112.719553499686  206.228859890669 118.142275074588  206.228859890669 118.142275074588  C 206.228859890669 118.142275074588  207.150183463971 119.025336981722  207.150183463971 119.025336981722  C 207.150183463971 119.025336981722  208.996347112764 119.030882785817  208.996347112764 119.030882785817  C 208.996347112764 119.030882785817  218.237561016321 121.457444965992  218.237561016321 121.457444965992  C 218.237561016321 121.457444965992  222.345876456759 118.188049085241  222.345876456759 118.188049085241  C 222.345876456759 118.188049085241  228.407896336783 122.751218560939  228.407896336783 122.751218560939  C 228.407896336783 122.751218560939  230.260497821957 120.607985349954  230.260497821957 120.607985349954  C 230.260497821957 120.607985349954  231.83837433193 122.131232874613  231.83837433193 122.131232874613  C 231.83837433193 122.131232874613  233.818165063874 122.13718008929  233.818165063874 122.13718008929  C 233.818165063874 122.13718008929  234.74755461407 120.621464294763  234.74755461407 120.621464294763  C 234.74755461407 120.621464294763  234.374502083809 113.679223207953  234.374502083809 113.679223207953  C 234.374502083809 113.679223207953  235.959583906767 112.797528385543  235.959583906767 112.797528385543  C 235.959583906767 112.797528385543  239.802666290536 108.265874041971  239.802666290536 108.265874041971  C 239.802666290536 108.265874041971  239.212572607844 90.725118053101  239.212572607844 90.725118053101  C 239.212572607844 90.725118053101  235.801673617755 81.875836910838  235.801673617755 81.875836910838  C 235.801673617755 81.875836910838  238.317746757656 80.1175247577658  238.317746757656 80.1175247577658  C 238.317746757656 80.1175247577658  231.09174003783 67.3429947805158  231.09174003783 67.3429947805158  C 231.09174003783 67.3429947805158  222.261156006916 60.1966478564376  222.261156006916 60.1966478564376  C 222.261156006916 60.1966478564376  219.747595407829 61.7032033910588  219.747595407829 61.7032033910588  C 219.747595407829 61.7032033910588  219.998314980842 66.0490891426148  219.998314980842 66.0490891426148  C 219.998314980842 66.0490891426148  212.305730838559 75.4944262666781  212.305730838559 75.4944262666781  C 212.305730838559 75.4944262666781  199.631032330484 72.9307876544377  199.631032330484 72.9307876544377  C 199.631032330484 72.9307876544377  198.722449044609 68.3822186083775  198.722449044609 68.3822186083775  C 198.722449044609 68.3822186083775  190.81393232721 61.8706928367212  190.81393232721 61.8706928367212  C 190.81393232721 61.8706928367212  173.384418242656 59.1677691539281  173.384418242656 59.1677691539281  C 173.384418242656 59.1677691539281  165.85760289265 57.8854577677304  165.85760289265 57.8854577677304  C 165.85760289265 57.8854577677304  162.949341296707 57.6214361193665  162.949341296707 57.6214361193665  C 162.949341296707 57.6214361193665  156.361737087508 52.4255168050623  156.361737087508 52.4255168050623  C 156.361737087508 52.4255168050623  142.631846163454 49.3525392207617  142.631846163454 49.3525392207617  C 142.631846163454 49.3525392207617  133.173165610701 31.7745788089938  133.173165610701 31.7745788089938  C 133.173165610701 31.7745788089938  132.924176156765 26.8512252025046  132.924176156765 26.8512252025046  C 132.924176156765 26.8512252025046  136.758071678568 25.0924702653912  136.758071678568 25.0924702653912  C 136.758071678568 25.0924702653912  136.774333742937 19.6646245435629  136.774333742937 19.6646245435629  C 136.774333742937 19.6646245435629  139.570656282975 12.9827880084468  139.570656282975 12.9827880084468  C 139.570656282975 12.9827880084468  136.408730922562 9.94243647766348  136.408730922562 9.94243647766348  C 136.408730922562 9.94243647766348  140.646277818416 6.67342880319916  140.646277818416 6.67342880319916  C 140.646277818416 6.67342880319916  138.013440102483 5.1505333930852  138.013440102483 5.1505333930852  C 138.013440102483 5.1505333930852  131.668791029465 5.13147431301331  131.668791029465 5.13147431301331  C 131.668791029465 5.13147431301331  119.895365878341 0.166459393764171  119.895365878341 0.166459393764171  C 119.895365878341 0.166459393764171  112.630272357568 0.144635334222244  112.630272357568 0.144635334222244  C 112.630272357568 0.144635334222244  106.94657712371 1.64430879004794  106.94657712371 1.64430879004794  C 106.94657712371 1.64430879004794  100.605444552881 1.62526027341244  100.605444552881 1.62526027341244  C 100.605444552881 1.62526027341244  90.6830709885904 6.77158425395601  90.6830709885904 6.77158425395601  C 90.6830709885904 6.77158425395601  82.7560091177767 5.86307590889112  82.7560091177767 5.86307590889112  C 82.7560091177767 5.86307590889112  74.8209902816366 8.4906858115063  74.8209902816366 8.4906858115063  C 74.8209902816366 8.4906858115063  68.2239284398028 6.45147339932282  68.2239284398028 6.45147339932282  C 68.2239284398028 6.45147339932282  64.1383023506086 3.0280599754276  64.1383023506086 3.0280599754276  C 64.1383023506086 3.0280599754276  53.57398867449 1.48309930730784  53.57398867449 1.48309930730784  C 53.57398867449 1.48309930730784  46.6829595574824 6.01175979695472  46.6829595574824 6.01175979695472  C 46.6829595574824 6.01175979695472  42.8597753013451 4.48880980908609  42.8597753013451 4.48880980908609  C 42.8597753013451 4.48880980908609  39.6959615792572 2.07874331508981  39.6959615792572 2.07874331508981  C 39.6959615792572 2.07874331508981  32.0370409124218 0.28810528615054  32.0370409124218 0.28810528615054  C 32.0370409124218 0.28810528615054  26.6119176009628 3.80618998737305  26.6119176009628 3.80618998737305  C 26.6119176009628 3.80618998737305  24.4800917760391 9.35708389776573  24.4800917760391 9.35708389776573  C 24.4800917760391 9.35708389776573  20.2451928063334 11.7422840625453  20.2451928063334 11.7422840625453  C 20.2451928063334 11.7422840625453  19.3096335530479 15.0238516628544  19.3096335530479 15.0238516628544  C 19.3096335530479 15.0238516628544  16.5342342010296 15.8958087575038  16.5342342010296 15.8958087575038  C 16.5342342010296 15.8958087575038  13.3639852799373 15.6336409922231  13.3639852799373 15.6336409922231  C 13.3639852799373 15.6336409922231  12.0381153827774 18.0266994733763  12.0381153827774 18.0266994733763  C 12.0381153827774 18.0266994733763  11.365919286122 21.4340599951335  11.365919286122 21.4340599951335  C 11.365919286122 21.4340599951335  9.99748740472739 21.3075883728985  9.99748740472739 21.3075883728985  C 9.99748740472739 21.3075883728985  9.77102114730667 24.7118863783946  9.77102114730667 24.7118863783946  C 9.77102114730667 24.7118863783946  13.5904075810807 28.3827430175562  13.5904075810807 28.3827430175562  C 13.5904075810807 28.3827430175562  13.8386269210375 33.5631402423999  13.8386269210375 33.5631402423999  C 13.8386269210375 33.5631402423999  12.6413458385182 35.5842205160532  12.6413458385182 35.5842205160532  C 12.6413458385182 35.5842205160532  6.96031699244452 36.1939244576445  6.96031699244452 36.1939244576445  C 6.96031699244452 36.1939244576445  4.060363132921 33.1570007619634  4.060363132921 33.1570007619634  C 4.060363132921 33.1570007619634  1.15811211834296 33.5276893499397  1.15811211834296 33.5276893499397  C 1.15811211834296 33.5276893499397  0.623447301392844 35.925765463369  0.623447301392844 35.925765463369  C 0.623447301392844 35.925765463369  2.19415542165564 39.8416313259995  2.19415542165564 39.8416313259995  C 2.19415542165564 39.8416313259995  2.71330718920274 42.6213996069579  2.71330718920274 42.6213996069579  C 2.71330718920274 42.6213996069579  2.70271020985865 46.158390218425  2.70271020985865 46.158390218425  C 2.70271020985865 46.158390218425  1.76855052444409 48.6793877591822  1.76855052444409 48.6793877591822  C 1.76855052444409 48.6793877591822  2.15810687859914 50.6999530653123  2.15810687859914 50.6999530653123  C 2.15810687859914 50.6999530653123  5.85808872232269 51.0904745050746  5.85808872232269 51.0904745050746  C 5.85808872232269 51.0904745050746  7.8289264396949 54.3781319264515  7.8289264396949 54.3781319264515  C 7.8289264396949 54.3781319264515  16.3995908487465 60.8361882240581  16.3995908487465 60.8361882240581  C 16.3995908487465 60.8361882240581  16.392237842671 63.2904266075251  16.392237842671 63.2904266075251  C 16.392237842671 63.2904266075251  22.7150846021218 69.9996567740096  22.7150846021218 69.9996567740096  C 22.7150846021218 69.9996567740096  24.8178043384339 72.4030146056242  24.8178043384339 72.4030146056242  C 24.8178043384339 72.4030146056242  26.8009814619845 73.0392627022426  26.8009814619845 73.0392627022426  C 26.8009814619845 73.0392627022426  30.6414106448527 69.3931764410841  30.6414106448527 69.3931764410841  C 30.6414106448527 69.3931764410841  34.067086856262 72.4299187977741  34.067086856262 72.4299187977741  C 34.067086856262 72.4299187977741  48.5643541625728 84.3415956019536  48.5643541625728 84.3415956019536  C 48.5643541625728 84.3415956019536  51.1835671907778 90.4120503696681  51.1835671907778 90.4120503696681  C 51.1835671907778 90.4120503696681  54.3554521645131 90.4215785892745  54.3554521645131 90.4215785892745  C 54.3554521645131 90.4215785892745  56.2069143029778 88.6586290876356  56.2069143029778 88.6586290876356  C 56.2069143029778 88.6586290876356  57.7848013624579 90.1783554668383  57.7848013624579 90.1783554668383  C 57.7848013624579 90.1783554668383  57.7685419354652 95.6053209023023  57.7685419354652 95.6053209023023  C 57.7685419354652 95.6053209023023  66.3413417404705 100.176912957933  66.3413417404705 100.176912957933  C 66.3413417404705 100.176912957933  68.204468995819 99.8022225881444  68.204468995819 99.8022225881444  C 68.204468995819 99.8022225881444  69.509540540787 104.351102375291  69.509540540787 104.351102375291  C 69.509540540787 104.351102375291  76.7625258654003 108.414321133003  76.7625258654003 108.414321133003  C 76.7625258654003 108.414321133003  77.0183171136938 111.067416206149  77.0183171136938 111.067416206149  C 77.0183171136938 111.067416206149  78.3343680576189 111.951663859016  78.3343680576189 111.951663859016  C 78.3343680576189 111.951663859016  84.677139318468 111.717192543612  84.677139318468 111.717192543612  C 84.677139318468 111.717192543612  88.1127619563165 111.727513020947  88.1127619563165 111.727513020947  C 88.1127619563165 111.727513020947  93.2552217888855 115.4058652985  93.2552217888855 115.4058652985  C 93.2552217888855 115.4058652985  104.614663203405 115.059701488631  104.614663203405 115.059701488631  C 104.614663203405 115.059701488631  110.69193591167 114.825312920146  110.69193591167 114.825312920146  C 110.69193591167 114.825312920146  112.267169770249 117.230607381762  112.267169770249 117.230607381762  C 112.267169770249 117.230607381762  110.932976312409 122.401849628418  110.932976312409 122.401849628418  C 110.932976312409 122.401849628418  112.51010908217 124.17333790779  112.51010908217 124.17333790779  C 112.51010908217 124.17333790779  118.866367008036 119.143944125579  118.866367008036 119.143944125579  C 118.866367008036 119.143944125579  127.239984216973 113.611800314744  127.239984216973 113.611800314744  C 127.239984216973 113.611800314744  132.918750193889 114.637676360465  132.918750193889 114.637676360465  Z " fill-rule="nonzero" fill="#031e4b" stroke="none" transform="matrix(1 0 0 1 655 676 )" />
    <path d="M 132.918750193889 114.637676360465  C 132.918750193889 114.637676360465  138.726941912966 117.946544281788  138.726941912966 117.946544281788  C 138.726941912966 117.946544281788  146.254893972305 118.849452245004  146.254893972305 118.849452245004  C 146.254893972305 118.849452245004  148.755464612308 122.265463340862  148.755464612308 122.265463340862  C 148.755464612308 122.265463340862  150.072636441306 122.775589288932  150.072636441306 122.775589288932  C 150.072636441306 122.775589288932  161.437004475391 120.785050550686  161.437004475391 120.785050550686  C 161.437004475391 120.785050550686  162.102024270206 118.892654939187  162.102024270206 118.892654939187  C 162.102024270206 118.892654939187  164.352474021694 117.76295527881  164.352474021694 117.76295527881  C 164.352474021694 117.76295527881  169.782502853706 113.487832226929  169.782502853706 113.487832226929  C 169.782502853706 113.487832226929  174.539589211472 112.869190737882  174.539589211472 112.869190737882  C 174.539589211472 112.869190737882  178.907995703254 110.230866869928  178.907995703254 110.230866869928  C 178.907995703254 110.230866869928  187.508029059456 105.712621928542  187.508029059456 105.712621928542  C 187.508029059456 105.712621928542  188.429214610047 107.228615013274  188.429214610047 107.228615013274  C 188.429214610047 107.228615013274  194.765160340149 109.272324808493  194.765160340149 109.272324808493  C 194.765160340149 109.272324808493  204.026301382481 104.754305220417  204.026301382481 104.754305220417  C 204.026301382481 104.754305220417  206.926133043554 106.6582898019  206.926133043554 106.6582898019  C 206.926133043554 106.6582898019  204.273394562612 110.310584722786  204.273394562612 110.310584722786  C 204.273394562612 110.310584722786  205.325707842424 111.194040117925  205.325707842424 111.194040117925  C 205.325707842424 111.194040117925  209.022430767745 111.205144930409  209.022430767745 111.205144930409  C 209.022430767745 111.205144930409  209.41614099011 112.719553499686  209.41614099011 112.719553499686  C 209.41614099011 112.719553499686  206.228859890669 118.142275074588  206.228859890669 118.142275074588  C 206.228859890669 118.142275074588  207.150183463971 119.025336981722  207.150183463971 119.025336981722  C 207.150183463971 119.025336981722  208.996347112764 119.030882785817  208.996347112764 119.030882785817  C 208.996347112764 119.030882785817  218.237561016321 121.457444965992  218.237561016321 121.457444965992  C 218.237561016321 121.457444965992  222.345876456759 118.188049085241  222.345876456759 118.188049085241  C 222.345876456759 118.188049085241  228.407896336783 122.751218560939  228.407896336783 122.751218560939  C 228.407896336783 122.751218560939  230.260497821957 120.607985349954  230.260497821957 120.607985349954  C 230.260497821957 120.607985349954  231.83837433193 122.131232874613  231.83837433193 122.131232874613  C 231.83837433193 122.131232874613  233.818165063874 122.13718008929  233.818165063874 122.13718008929  C 233.818165063874 122.13718008929  234.74755461407 120.621464294763  234.74755461407 120.621464294763  C 234.74755461407 120.621464294763  234.374502083809 113.679223207953  234.374502083809 113.679223207953  C 234.374502083809 113.679223207953  235.959583906767 112.797528385543  235.959583906767 112.797528385543  C 235.959583906767 112.797528385543  239.802666290536 108.265874041971  239.802666290536 108.265874041971  C 239.802666290536 108.265874041971  239.212572607844 90.725118053101  239.212572607844 90.725118053101  C 239.212572607844 90.725118053101  235.801673617755 81.875836910838  235.801673617755 81.875836910838  C 235.801673617755 81.875836910838  238.317746757656 80.1175247577658  238.317746757656 80.1175247577658  C 238.317746757656 80.1175247577658  231.09174003783 67.3429947805158  231.09174003783 67.3429947805158  C 231.09174003783 67.3429947805158  222.261156006916 60.1966478564376  222.261156006916 60.1966478564376  C 222.261156006916 60.1966478564376  219.747595407829 61.7032033910588  219.747595407829 61.7032033910588  C 219.747595407829 61.7032033910588  219.998314980842 66.0490891426148  219.998314980842 66.0490891426148  C 219.998314980842 66.0490891426148  212.305730838559 75.4944262666781  212.305730838559 75.4944262666781  C 212.305730838559 75.4944262666781  199.631032330484 72.9307876544377  199.631032330484 72.9307876544377  C 199.631032330484 72.9307876544377  198.722449044609 68.3822186083775  198.722449044609 68.3822186083775  C 198.722449044609 68.3822186083775  190.81393232721 61.8706928367212  190.81393232721 61.8706928367212  C 190.81393232721 61.8706928367212  173.384418242656 59.1677691539281  173.384418242656 59.1677691539281  C 173.384418242656 59.1677691539281  165.85760289265 57.8854577677304  165.85760289265 57.8854577677304  C 165.85760289265 57.8854577677304  162.949341296707 57.6214361193665  162.949341296707 57.6214361193665  C 162.949341296707 57.6214361193665  156.361737087508 52.4255168050623  156.361737087508 52.4255168050623  C 156.361737087508 52.4255168050623  142.631846163454 49.3525392207617  142.631846163454 49.3525392207617  C 142.631846163454 49.3525392207617  133.173165610701 31.7745788089938  133.173165610701 31.7745788089938  C 133.173165610701 31.7745788089938  132.924176156765 26.8512252025046  132.924176156765 26.8512252025046  C 132.924176156765 26.8512252025046  136.758071678568 25.0924702653912  136.758071678568 25.0924702653912  C 136.758071678568 25.0924702653912  136.774333742937 19.6646245435629  136.774333742937 19.6646245435629  C 136.774333742937 19.6646245435629  139.570656282975 12.9827880084468  139.570656282975 12.9827880084468  C 139.570656282975 12.9827880084468  136.408730922562 9.94243647766348  136.408730922562 9.94243647766348  C 136.408730922562 9.94243647766348  140.646277818416 6.67342880319916  140.646277818416 6.67342880319916  C 140.646277818416 6.67342880319916  138.013440102483 5.1505333930852  138.013440102483 5.1505333930852  C 138.013440102483 5.1505333930852  131.668791029465 5.13147431301331  131.668791029465 5.13147431301331  C 131.668791029465 5.13147431301331  119.895365878341 0.166459393764171  119.895365878341 0.166459393764171  C 119.895365878341 0.166459393764171  112.630272357568 0.144635334222244  112.630272357568 0.144635334222244  C 112.630272357568 0.144635334222244  106.94657712371 1.64430879004794  106.94657712371 1.64430879004794  C 106.94657712371 1.64430879004794  100.605444552881 1.62526027341244  100.605444552881 1.62526027341244  C 100.605444552881 1.62526027341244  90.6830709885904 6.77158425395601  90.6830709885904 6.77158425395601  C 90.6830709885904 6.77158425395601  82.7560091177767 5.86307590889112  82.7560091177767 5.86307590889112  C 82.7560091177767 5.86307590889112  74.8209902816366 8.4906858115063  74.8209902816366 8.4906858115063  C 74.8209902816366 8.4906858115063  68.2239284398028 6.45147339932282  68.2239284398028 6.45147339932282  C 68.2239284398028 6.45147339932282  64.1383023506086 3.0280599754276  64.1383023506086 3.0280599754276  C 64.1383023506086 3.0280599754276  53.57398867449 1.48309930730784  53.57398867449 1.48309930730784  C 53.57398867449 1.48309930730784  46.6829595574824 6.01175979695472  46.6829595574824 6.01175979695472  C 46.6829595574824 6.01175979695472  42.8597753013451 4.48880980908609  42.8597753013451 4.48880980908609  C 42.8597753013451 4.48880980908609  39.6959615792572 2.07874331508981  39.6959615792572 2.07874331508981  C 39.6959615792572 2.07874331508981  32.0370409124218 0.28810528615054  32.0370409124218 0.28810528615054  C 32.0370409124218 0.28810528615054  26.6119176009628 3.80618998737305  26.6119176009628 3.80618998737305  C 26.6119176009628 3.80618998737305  24.4800917760391 9.35708389776573  24.4800917760391 9.35708389776573  C 24.4800917760391 9.35708389776573  20.2451928063334 11.7422840625453  20.2451928063334 11.7422840625453  C 20.2451928063334 11.7422840625453  19.3096335530479 15.0238516628544  19.3096335530479 15.0238516628544  C 19.3096335530479 15.0238516628544  16.5342342010296 15.8958087575038  16.5342342010296 15.8958087575038  C 16.5342342010296 15.8958087575038  13.3639852799373 15.6336409922231  13.3639852799373 15.6336409922231  C 13.3639852799373 15.6336409922231  12.0381153827774 18.0266994733763  12.0381153827774 18.0266994733763  C 12.0381153827774 18.0266994733763  11.365919286122 21.4340599951335  11.365919286122 21.4340599951335  C 11.365919286122 21.4340599951335  9.99748740472739 21.3075883728985  9.99748740472739 21.3075883728985  C 9.99748740472739 21.3075883728985  9.77102114730667 24.7118863783946  9.77102114730667 24.7118863783946  C 9.77102114730667 24.7118863783946  13.5904075810807 28.3827430175562  13.5904075810807 28.3827430175562  C 13.5904075810807 28.3827430175562  13.8386269210375 33.5631402423999  13.8386269210375 33.5631402423999  C 13.8386269210375 33.5631402423999  12.6413458385182 35.5842205160532  12.6413458385182 35.5842205160532  C 12.6413458385182 35.5842205160532  6.96031699244452 36.1939244576445  6.96031699244452 36.1939244576445  C 6.96031699244452 36.1939244576445  4.060363132921 33.1570007619634  4.060363132921 33.1570007619634  C 4.060363132921 33.1570007619634  1.15811211834296 33.5276893499397  1.15811211834296 33.5276893499397  C 1.15811211834296 33.5276893499397  0.623447301392844 35.925765463369  0.623447301392844 35.925765463369  C 0.623447301392844 35.925765463369  2.19415542165564 39.8416313259995  2.19415542165564 39.8416313259995  C 2.19415542165564 39.8416313259995  2.71330718920274 42.6213996069579  2.71330718920274 42.6213996069579  C 2.71330718920274 42.6213996069579  2.70271020985865 46.158390218425  2.70271020985865 46.158390218425  C 2.70271020985865 46.158390218425  1.76855052444409 48.6793877591822  1.76855052444409 48.6793877591822  C 1.76855052444409 48.6793877591822  2.15810687859914 50.6999530653123  2.15810687859914 50.6999530653123  C 2.15810687859914 50.6999530653123  5.85808872232269 51.0904745050746  5.85808872232269 51.0904745050746  C 5.85808872232269 51.0904745050746  7.8289264396949 54.3781319264515  7.8289264396949 54.3781319264515  C 7.8289264396949 54.3781319264515  16.3995908487465 60.8361882240581  16.3995908487465 60.8361882240581  C 16.3995908487465 60.8361882240581  16.392237842671 63.2904266075251  16.392237842671 63.2904266075251  C 16.392237842671 63.2904266075251  22.7150846021218 69.9996567740096  22.7150846021218 69.9996567740096  C 22.7150846021218 69.9996567740096  24.8178043384339 72.4030146056242  24.8178043384339 72.4030146056242  C 24.8178043384339 72.4030146056242  26.8009814619845 73.0392627022426  26.8009814619845 73.0392627022426  C 26.8009814619845 73.0392627022426  30.6414106448527 69.3931764410841  30.6414106448527 69.3931764410841  C 30.6414106448527 69.3931764410841  34.067086856262 72.4299187977741  34.067086856262 72.4299187977741  C 34.067086856262 72.4299187977741  48.5643541625728 84.3415956019536  48.5643541625728 84.3415956019536  C 48.5643541625728 84.3415956019536  51.1835671907778 90.4120503696681  51.1835671907778 90.4120503696681  C 51.1835671907778 90.4120503696681  54.3554521645131 90.4215785892745  54.3554521645131 90.4215785892745  C 54.3554521645131 90.4215785892745  56.2069143029778 88.6586290876356  56.2069143029778 88.6586290876356  C 56.2069143029778 88.6586290876356  57.7848013624579 90.1783554668383  57.7848013624579 90.1783554668383  C 57.7848013624579 90.1783554668383  57.7685419354652 95.6053209023023  57.7685419354652 95.6053209023023  C 57.7685419354652 95.6053209023023  66.3413417404705 100.176912957933  66.3413417404705 100.176912957933  C 66.3413417404705 100.176912957933  68.204468995819 99.8022225881444  68.204468995819 99.8022225881444  C 68.204468995819 99.8022225881444  69.509540540787 104.351102375291  69.509540540787 104.351102375291  C 69.509540540787 104.351102375291  76.7625258654003 108.414321133003  76.7625258654003 108.414321133003  C 76.7625258654003 108.414321133003  77.0183171136938 111.067416206149  77.0183171136938 111.067416206149  C 77.0183171136938 111.067416206149  78.3343680576189 111.951663859016  78.3343680576189 111.951663859016  C 78.3343680576189 111.951663859016  84.677139318468 111.717192543612  84.677139318468 111.717192543612  C 84.677139318468 111.717192543612  88.1127619563165 111.727513020947  88.1127619563165 111.727513020947  C 88.1127619563165 111.727513020947  93.2552217888855 115.4058652985  93.2552217888855 115.4058652985  C 93.2552217888855 115.4058652985  104.614663203405 115.059701488631  104.614663203405 115.059701488631  C 104.614663203405 115.059701488631  110.69193591167 114.825312920146  110.69193591167 114.825312920146  C 110.69193591167 114.825312920146  112.267169770249 117.230607381762  112.267169770249 117.230607381762  C 112.267169770249 117.230607381762  110.932976312409 122.401849628418  110.932976312409 122.401849628418  C 110.932976312409 122.401849628418  112.51010908217 124.17333790779  112.51010908217 124.17333790779  C 112.51010908217 124.17333790779  118.866367008036 119.143944125579  118.866367008036 119.143944125579  C 118.866367008036 119.143944125579  127.239984216973 113.611800314744  127.239984216973 113.611800314744  C 127.239984216973 113.611800314744  132.918750193889 114.637676360465  132.918750193889 114.637676360465  Z " stroke-width="0.97600957434184" stroke="#47b3fe" fill="none" transform="matrix(1 0 0 1 655 676 )" mask="url(#clip1783)" />
  </g>
</svg>