<?xml version="1.0" encoding="utf-8"?>
<svg version="1.1" xmlns:xlink="http://www.w3.org/1999/xlink" width="48px" height="53px" xmlns="http://www.w3.org/2000/svg">
  <defs>
    <mask fill="white" id="clip1778">
      <path d="M 35.5938624987068 48.64793522001  C 35.5938624987068 48.64793522001  34.8302404077126 50.4061250388646  34.8302404077126 50.4061250388646  C 34.8302404077126 50.4061250388646  27.7120365028486 52.8084122610386  27.7120365028486 52.8084122610386  C 27.7120365028486 52.8084122610386  23.2308583817098 48.8656824595234  23.2308583817098 48.8656824595234  C 23.2308583817098 48.8656824595234  20.4689944078543 52.2784951306527  20.4689944078543 52.2784951306527  C 20.4689944078543 52.2784951306527  16.007588900794 52.2649482587224  16.007588900794 52.2649482587224  C 16.007588900794 52.2649482587224  14.1857488273067 48.5829303748517  14.1857488273067 48.5829303748517  C 14.1857488273067 48.5829303748517  11.9746729416263 43.1321552993497  11.9746729416263 43.1321552993497  C 11.9746729416263 43.1321552993497  7.90874938901538 42.4855668828036  7.90874938901538 42.4855668828036  C 7.90874938901538 42.4855668828036  3.47536817621085 34.4893075414561  3.47536817621085 34.4893075414561  C 3.47536817621085 34.4893075414561  0.600873786135935 30.5567564439871  0.600873786135935 30.5567564439871  C 0.600873786135935 30.5567564439871  2.701172065435 28.6259561919504  2.701172065435 28.6259561919504  C 2.701172065435 28.6259561919504  3.48878817473997 27.9004706731482  3.48878817473997 27.9004706731482  C 3.48878817473997 27.9004706731482  8.23155983032575 21.0256566530443  8.23155983032575 21.0256566530443  C 8.23155983032575 21.0256566530443  7.98513786734497 15.8299507318919  7.98513786734497 15.8299507318919  C 7.98513786734497 15.8299507318919  9.56206144039061 13.8083433310267  9.56206144039061 13.8083433310267  C 9.56206144039061 13.8083433310267  13.2372646638348 13.1870272153363  13.2372646638348 13.1870272153363  C 13.2372646638348 13.1870272153363  14.2890541031029 11.6682158175176  14.2890541031029 11.6682158175176  C 14.2890541031029 11.6682158175176  12.9870882081916 9.25802802006035  12.9870882081916 9.25802802006035  C 12.9870882081916 9.25802802006035  14.8273394339826 6.72841292180908  14.8273394339826 6.72841292180908  C 14.8273394339826 6.72841292180908  14.8416033642657 1.91598736910703  14.8416033642657 1.91598736910703  C 14.8416033642657 1.91598736910703  17.4696627003812 0.657249235541713  17.4696627003812 0.657249235541713  C 17.4696627003812 0.657249235541713  21.78916112668 3.20291811903439  21.78916112668 3.20291811903439  C 21.78916112668 3.20291811903439  27.5867034737273 4.10916816431472  27.5867034737273 4.10916816431472  C 27.5867034737273 4.10916816431472  31.149033661482 0.0521768227678194  31.149033661482 0.0521768227678194  C 31.149033661482 0.0521768227678194  35.5432021569864 3.61127027060911  35.5432021569864 3.61127027060911  C 35.5432021569864 3.61127027060911  33.6190211764599 5.01259771128582  33.6190211764599 5.01259771128582  C 33.6190211764599 5.01259771128582  31.3820434805205 8.30068570349351  31.3820434805205 8.30068570349351  C 31.3820434805205 8.30068570349351  27.8357462506237 9.30399869748578  27.8357462506237 9.30399869748578  C 27.8357462506237 9.30399869748578  26.6523217851357 10.1837512520716  26.6523217851357 10.1837512520716  C 26.6523217851357 10.1837512520716  30.0568332440059 11.9660809324357  30.0568332440059 11.9660809324357  C 30.0568332440059 11.9660809324357  36.3623448336893 9.32723932088732  36.3623448336893 9.32723932088732  C 36.3623448336893 9.32723932088732  46.7092858822903 13.5377671776723  46.7092858822903 13.5377671776723  C 46.7092858822903 13.5377671776723  47.7313954548754 22.0324756156523  47.7313954548754 22.0324756156523  C 47.7313954548754 22.0324756156523  43.541409570799 22.019752898098  43.541409570799 22.019752898098  C 43.541409570799 22.019752898098  43.2720862498547 24.5506046695823  43.2720862498547 24.5506046695823  C 43.2720862498547 24.5506046695823  45.4927394954791 28.5368212020005  45.4927394954791 28.5368212020005  C 45.4927394954791 28.5368212020005  43.5174652982068 30.6870708859221  43.5174652982068 30.6870708859221  C 43.5174652982068 30.6870708859221  45.7371655205893 34.1114764852734  45.7371655205893 34.1114764852734  C 45.7371655205893 34.1114764852734  42.3157562265415 38.0302104093769  42.3157562265415 38.0302104093769  C 42.3157562265415 38.0302104093769  40.750478388059 36.1227302811639  40.750478388059 36.1227302811639  C 40.750478388059 36.1227302811639  35.5938624987068 48.64793522001  35.5938624987068 48.64793522001  Z " fill-rule="evenodd" />
    </mask>
  </defs>
  <g transform="matrix(1 0 0 1 -1126 -741 )">
    <path d="M 35.5938624987068 48.64793522001  C 35.5938624987068 48.64793522001  34.8302404077126 50.4061250388646  34.8302404077126 50.4061250388646  C 34.8302404077126 50.4061250388646  27.7120365028486 52.8084122610386  27.7120365028486 52.8084122610386  C 27.7120365028486 52.8084122610386  23.2308583817098 48.8656824595234  23.2308583817098 48.8656824595234  C 23.2308583817098 48.8656824595234  20.4689944078543 52.2784951306527  20.4689944078543 52.2784951306527  C 20.4689944078543 52.2784951306527  16.007588900794 52.2649482587224  16.007588900794 52.2649482587224  C 16.007588900794 52.2649482587224  14.1857488273067 48.5829303748517  14.1857488273067 48.5829303748517  C 14.1857488273067 48.5829303748517  11.9746729416263 43.1321552993497  11.9746729416263 43.1321552993497  C 11.9746729416263 43.1321552993497  7.90874938901538 42.4855668828036  7.90874938901538 42.4855668828036  C 7.90874938901538 42.4855668828036  3.47536817621085 34.4893075414561  3.47536817621085 34.4893075414561  C 3.47536817621085 34.4893075414561  0.600873786135935 30.5567564439871  0.600873786135935 30.5567564439871  C 0.600873786135935 30.5567564439871  2.701172065435 28.6259561919504  2.701172065435 28.6259561919504  C 2.701172065435 28.6259561919504  3.48878817473997 27.9004706731482  3.48878817473997 27.9004706731482  C 3.48878817473997 27.9004706731482  8.23155983032575 21.0256566530443  8.23155983032575 21.0256566530443  C 8.23155983032575 21.0256566530443  7.98513786734497 15.8299507318919  7.98513786734497 15.8299507318919  C 7.98513786734497 15.8299507318919  9.56206144039061 13.8083433310267  9.56206144039061 13.8083433310267  C 9.56206144039061 13.8083433310267  13.2372646638348 13.1870272153363  13.2372646638348 13.1870272153363  C 13.2372646638348 13.1870272153363  14.2890541031029 11.6682158175176  14.2890541031029 11.6682158175176  C 14.2890541031029 11.6682158175176  12.9870882081916 9.25802802006035  12.9870882081916 9.25802802006035  C 12.9870882081916 9.25802802006035  14.8273394339826 6.72841292180908  14.8273394339826 6.72841292180908  C 14.8273394339826 6.72841292180908  14.8416033642657 1.91598736910703  14.8416033642657 1.91598736910703  C 14.8416033642657 1.91598736910703  17.4696627003812 0.657249235541713  17.4696627003812 0.657249235541713  C 17.4696627003812 0.657249235541713  21.78916112668 3.20291811903439  21.78916112668 3.20291811903439  C 21.78916112668 3.20291811903439  27.5867034737273 4.10916816431472  27.5867034737273 4.10916816431472  C 27.5867034737273 4.10916816431472  31.149033661482 0.0521768227678194  31.149033661482 0.0521768227678194  C 31.149033661482 0.0521768227678194  35.5432021569864 3.61127027060911  35.5432021569864 3.61127027060911  C 35.5432021569864 3.61127027060911  33.6190211764599 5.01259771128582  33.6190211764599 5.01259771128582  C 33.6190211764599 5.01259771128582  31.3820434805205 8.30068570349351  31.3820434805205 8.30068570349351  C 31.3820434805205 8.30068570349351  27.8357462506237 9.30399869748578  27.8357462506237 9.30399869748578  C 27.8357462506237 9.30399869748578  26.6523217851357 10.1837512520716  26.6523217851357 10.1837512520716  C 26.6523217851357 10.1837512520716  30.0568332440059 11.9660809324357  30.0568332440059 11.9660809324357  C 30.0568332440059 11.9660809324357  36.3623448336893 9.32723932088732  36.3623448336893 9.32723932088732  C 36.3623448336893 9.32723932088732  46.7092858822903 13.5377671776723  46.7092858822903 13.5377671776723  C 46.7092858822903 13.5377671776723  47.7313954548754 22.0324756156523  47.7313954548754 22.0324756156523  C 47.7313954548754 22.0324756156523  43.541409570799 22.019752898098  43.541409570799 22.019752898098  C 43.541409570799 22.019752898098  43.2720862498547 24.5506046695823  43.2720862498547 24.5506046695823  C 43.2720862498547 24.5506046695823  45.4927394954791 28.5368212020005  45.4927394954791 28.5368212020005  C 45.4927394954791 28.5368212020005  43.5174652982068 30.6870708859221  43.5174652982068 30.6870708859221  C 43.5174652982068 30.6870708859221  45.7371655205893 34.1114764852734  45.7371655205893 34.1114764852734  C 45.7371655205893 34.1114764852734  42.3157562265415 38.0302104093769  42.3157562265415 38.0302104093769  C 42.3157562265415 38.0302104093769  40.750478388059 36.1227302811639  40.750478388059 36.1227302811639  C 40.750478388059 36.1227302811639  35.5938624987068 48.64793522001  35.5938624987068 48.64793522001  Z " fill-rule="nonzero" fill="#031e4b" stroke="none" transform="matrix(1 0 0 1 1126 741 )" />
    <path d="M 35.5938624987068 48.64793522001  C 35.5938624987068 48.64793522001  34.8302404077126 50.4061250388646  34.8302404077126 50.4061250388646  C 34.8302404077126 50.4061250388646  27.7120365028486 52.8084122610386  27.7120365028486 52.8084122610386  C 27.7120365028486 52.8084122610386  23.2308583817098 48.8656824595234  23.2308583817098 48.8656824595234  C 23.2308583817098 48.8656824595234  20.4689944078543 52.2784951306527  20.4689944078543 52.2784951306527  C 20.4689944078543 52.2784951306527  16.007588900794 52.2649482587224  16.007588900794 52.2649482587224  C 16.007588900794 52.2649482587224  14.1857488273067 48.5829303748517  14.1857488273067 48.5829303748517  C 14.1857488273067 48.5829303748517  11.9746729416263 43.1321552993497  11.9746729416263 43.1321552993497  C 11.9746729416263 43.1321552993497  7.90874938901538 42.4855668828036  7.90874938901538 42.4855668828036  C 7.90874938901538 42.4855668828036  3.47536817621085 34.4893075414561  3.47536817621085 34.4893075414561  C 3.47536817621085 34.4893075414561  0.600873786135935 30.5567564439871  0.600873786135935 30.5567564439871  C 0.600873786135935 30.5567564439871  2.701172065435 28.6259561919504  2.701172065435 28.6259561919504  C 2.701172065435 28.6259561919504  3.48878817473997 27.9004706731482  3.48878817473997 27.9004706731482  C 3.48878817473997 27.9004706731482  8.23155983032575 21.0256566530443  8.23155983032575 21.0256566530443  C 8.23155983032575 21.0256566530443  7.98513786734497 15.8299507318919  7.98513786734497 15.8299507318919  C 7.98513786734497 15.8299507318919  9.56206144039061 13.8083433310267  9.56206144039061 13.8083433310267  C 9.56206144039061 13.8083433310267  13.2372646638348 13.1870272153363  13.2372646638348 13.1870272153363  C 13.2372646638348 13.1870272153363  14.2890541031029 11.6682158175176  14.2890541031029 11.6682158175176  C 14.2890541031029 11.6682158175176  12.9870882081916 9.25802802006035  12.9870882081916 9.25802802006035  C 12.9870882081916 9.25802802006035  14.8273394339826 6.72841292180908  14.8273394339826 6.72841292180908  C 14.8273394339826 6.72841292180908  14.8416033642657 1.91598736910703  14.8416033642657 1.91598736910703  C 14.8416033642657 1.91598736910703  17.4696627003812 0.657249235541713  17.4696627003812 0.657249235541713  C 17.4696627003812 0.657249235541713  21.78916112668 3.20291811903439  21.78916112668 3.20291811903439  C 21.78916112668 3.20291811903439  27.5867034737273 4.10916816431472  27.5867034737273 4.10916816431472  C 27.5867034737273 4.10916816431472  31.149033661482 0.0521768227678194  31.149033661482 0.0521768227678194  C 31.149033661482 0.0521768227678194  35.5432021569864 3.61127027060911  35.5432021569864 3.61127027060911  C 35.5432021569864 3.61127027060911  33.6190211764599 5.01259771128582  33.6190211764599 5.01259771128582  C 33.6190211764599 5.01259771128582  31.3820434805205 8.30068570349351  31.3820434805205 8.30068570349351  C 31.3820434805205 8.30068570349351  27.8357462506237 9.30399869748578  27.8357462506237 9.30399869748578  C 27.8357462506237 9.30399869748578  26.6523217851357 10.1837512520716  26.6523217851357 10.1837512520716  C 26.6523217851357 10.1837512520716  30.0568332440059 11.9660809324357  30.0568332440059 11.9660809324357  C 30.0568332440059 11.9660809324357  36.3623448336893 9.32723932088732  36.3623448336893 9.32723932088732  C 36.3623448336893 9.32723932088732  46.7092858822903 13.5377671776723  46.7092858822903 13.5377671776723  C 46.7092858822903 13.5377671776723  47.7313954548754 22.0324756156523  47.7313954548754 22.0324756156523  C 47.7313954548754 22.0324756156523  43.541409570799 22.019752898098  43.541409570799 22.019752898098  C 43.541409570799 22.019752898098  43.2720862498547 24.5506046695823  43.2720862498547 24.5506046695823  C 43.2720862498547 24.5506046695823  45.4927394954791 28.5368212020005  45.4927394954791 28.5368212020005  C 45.4927394954791 28.5368212020005  43.5174652982068 30.6870708859221  43.5174652982068 30.6870708859221  C 43.5174652982068 30.6870708859221  45.7371655205893 34.1114764852734  45.7371655205893 34.1114764852734  C 45.7371655205893 34.1114764852734  42.3157562265415 38.0302104093769  42.3157562265415 38.0302104093769  C 42.3157562265415 38.0302104093769  40.750478388059 36.1227302811639  40.750478388059 36.1227302811639  C 40.750478388059 36.1227302811639  35.5938624987068 48.64793522001  35.5938624987068 48.64793522001  Z " stroke-width="0.97600957434184" stroke="#47b3fe" fill="none" transform="matrix(1 0 0 1 1126 741 )" mask="url(#clip1778)" />
  </g>
</svg>