<?xml version="1.0" encoding="utf-8"?>
<svg version="1.1" xmlns:xlink="http://www.w3.org/1999/xlink" width="20px" height="47px" xmlns="http://www.w3.org/2000/svg">
  <defs>
    <mask fill="white" id="clip1786">
      <path d="M 18.5977574409592 2.55314216483225  C 18.5977574409592 2.55314216483225  19.2167633364118 13.0422435628797  19.2167633364118 13.0422435628797  C 19.2167633364118 13.0422435628797  15.6282747172725 33.5550951473424  15.6282747172725 33.5550951473424  C 15.6282747172725 33.5550951473424  13.7778831530541 39.9146484334005  13.7778831530541 39.9146484334005  C 13.7778831530541 39.9146484334005  13.7617926328351 45.283121383011  13.7617926328351 45.283121383011  C 13.7617926328351 45.283121383011  12.1920825589609 46.7745959690118  12.1920825589609 46.7745959690118  C 12.1920825589609 46.7745959690118  7.99249069502571 41.3960754104955  7.99249069502571 41.3960754104955  C 7.99249069502571 41.3960754104955  3.95189619706343 38.383732804645  3.95189619706343 38.383732804645  C 3.95189619706343 38.383732804645  0.451850656228999 29.3882610410781  0.451850656228999 29.3882610410781  C 0.451850656228999 29.3882610410781  0.869615483144798 20.8519303635766  0.869615483144798 20.8519303635766  C 0.869615483144798 20.8519303635766  6.79380172160973 6.13761967893777  6.79380172160973 6.13761967893777  C 6.79380172160973 6.13761967893777  14.1602399658759 0.543159084948343  14.1602399658759 0.543159084948343  C 14.1602399658759 0.543159084948343  18.5977574409592 2.55314216483225  18.5977574409592 2.55314216483225  Z " fill-rule="evenodd" />
    </mask>
  </defs>
  <g transform="matrix(1 0 0 1 -1165 -814 )">
    <path d="M 18.5977574409592 2.55314216483225  C 18.5977574409592 2.55314216483225  19.2167633364118 13.0422435628797  19.2167633364118 13.0422435628797  C 19.2167633364118 13.0422435628797  15.6282747172725 33.5550951473424  15.6282747172725 33.5550951473424  C 15.6282747172725 33.5550951473424  13.7778831530541 39.9146484334005  13.7778831530541 39.9146484334005  C 13.7778831530541 39.9146484334005  13.7617926328351 45.283121383011  13.7617926328351 45.283121383011  C 13.7617926328351 45.283121383011  12.1920825589609 46.7745959690118  12.1920825589609 46.7745959690118  C 12.1920825589609 46.7745959690118  7.99249069502571 41.3960754104955  7.99249069502571 41.3960754104955  C 7.99249069502571 41.3960754104955  3.95189619706343 38.383732804645  3.95189619706343 38.383732804645  C 3.95189619706343 38.383732804645  0.451850656228999 29.3882610410781  0.451850656228999 29.3882610410781  C 0.451850656228999 29.3882610410781  0.869615483144798 20.8519303635766  0.869615483144798 20.8519303635766  C 0.869615483144798 20.8519303635766  6.79380172160973 6.13761967893777  6.79380172160973 6.13761967893777  C 6.79380172160973 6.13761967893777  14.1602399658759 0.543159084948343  14.1602399658759 0.543159084948343  C 14.1602399658759 0.543159084948343  18.5977574409592 2.55314216483225  18.5977574409592 2.55314216483225  Z " fill-rule="nonzero" fill="#031e4b" stroke="none" transform="matrix(1 0 0 1 1165 814 )" />
    <path d="M 18.5977574409592 2.55314216483225  C 18.5977574409592 2.55314216483225  19.2167633364118 13.0422435628797  19.2167633364118 13.0422435628797  C 19.2167633364118 13.0422435628797  15.6282747172725 33.5550951473424  15.6282747172725 33.5550951473424  C 15.6282747172725 33.5550951473424  13.7778831530541 39.9146484334005  13.7778831530541 39.9146484334005  C 13.7778831530541 39.9146484334005  13.7617926328351 45.283121383011  13.7617926328351 45.283121383011  C 13.7617926328351 45.283121383011  12.1920825589609 46.7745959690118  12.1920825589609 46.7745959690118  C 12.1920825589609 46.7745959690118  7.99249069502571 41.3960754104955  7.99249069502571 41.3960754104955  C 7.99249069502571 41.3960754104955  3.95189619706343 38.383732804645  3.95189619706343 38.383732804645  C 3.95189619706343 38.383732804645  0.451850656228999 29.3882610410781  0.451850656228999 29.3882610410781  C 0.451850656228999 29.3882610410781  0.869615483144798 20.8519303635766  0.869615483144798 20.8519303635766  C 0.869615483144798 20.8519303635766  6.79380172160973 6.13761967893777  6.79380172160973 6.13761967893777  C 6.79380172160973 6.13761967893777  14.1602399658759 0.543159084948343  14.1602399658759 0.543159084948343  C 14.1602399658759 0.543159084948343  18.5977574409592 2.55314216483225  18.5977574409592 2.55314216483225  Z " stroke-width="0.97600957434184" stroke="#47b3fe" fill="none" transform="matrix(1 0 0 1 1165 814 )" mask="url(#clip1786)" />
  </g>
</svg>