<?xml version="1.0" encoding="utf-8"?>
<svg version="1.1" xmlns:xlink="http://www.w3.org/1999/xlink" width="247px" height="178px" xmlns="http://www.w3.org/2000/svg">
  <defs>
    <mask fill="white" id="clip1785">
      <path d="M 163.260623554534 0.0117420020129657  L 160.744615454986 1.26864438026439  L 159.546107955998 4.91191774478318  L 156.361926148482 8.54749497976763  L 151.869437287441 8.7857093480709  L 148.031533546202 11.1636669399116  L 145.745457297424 25.1120498592647  L 136.885017460805 27.7283892981305  L 135.046291352462 25.3316898727855  L 130.952750043891 25.319439374241  L 121.718439001474 21.0171126876641  L 120.134083809609 22.0163757964416  L 109.902318182718 41.6054946764572  L 112.407337800433 44.0024343592356  L 110.554239907594 46.3845780422689  L 109.230331337066 46.1289572859757  L 104.480555889261 45.1098615398726  L 102.372725807564 42.4624517291347  L 88.6321808524766 43.5533572653959  L 83.3448030946304 45.0466098247124  L 83.6047267060725 46.3039278307865  L 88.6159288693857 48.0805359734636  L 87.6801279218835 51.4711830310865  L 87.3661189342944 68.1980984475518  L 87.3600722367077 70.2087199608567  L 85.770825364065 70.203963915899  L 80.6089866820506 74.0887889472293  L 79.0067304876629 80.7481287400532  L 77.8128782162399 83.1357527477521  L 59.4377957917793 86.9784047078641  L 53.0855329704235 91.2340863782955  L 40.6735860947506 88.6829847242486  L 34.5785887639613 95.0798511628176  L 29.2923554748254 95.3156901391978  L 27.0517635067025 94.4321250142041  L 26.6644100727344 91.4119373817505  L 25.7415815286317 90.7813440433195  L 23.230255026895 91.6506883834451  L 19.796848896064 90.7635535941771  L 15.5634046382395 92.2590833379986  L 10.8053331107977 93.1217039773985  L 6.04611184059627 95.2434919036276  L 6.03779466476169 98.0090829428616  L 4.65047531981656 99.2553333236671  L 1.26987121312266 102.147622454353  L 2.31446788776759 105.546826710122  L 0.32573199358842 109.187735204941  L 1.63364876746073 112.714872159703  L 5.07144993942177 111.848300425432  L 10.2103289265724 116.767079459099  L 9.52940080924554 122.80222167159  L 10.170623245995 129.969839217421  L 7.91568322659873 132.103505856969  L 5.67624100123555 130.837633283305  L 1.83834780809491 132.335223629201  L 1.83457422578067 133.58999876463  L 9.74860963866672 137.890128060229  L 11.0599413594971 140.281741744285  L 14.8825916709902 142.683501482213  L 15.4028159884034 145.072747666013  L 13.8058496655199 149.973122454175  L 16.0382202697048 154.759566115225  L 18.9381879524608 155.020780310085  L 29.3509651063117 162.343908425478  L 34.3671943176695 163.618090925039  L 46.5313347102961 160.005880040725  L 51.2824910800238 161.150370876288  L 56.016739726524 168.209230721492  L 59.1848101922652 168.46949353199  L 60.3703294657055 169.729581513363  L 68.0282280345871 171.513233407726  L 71.1916195395412 173.913897080721  L 75.0142883102071 175.432659016865  L 81.8982289261612 170.926909693518  L 92.4611354109668 172.464965879892  L 96.546221539412 175.873269228309  L 103.145024192961 177.909794701818  L 111.079865730557 175.291562139599  L 119.002353686544 176.196515437272  L 128.923403090661 171.070269725657  L 135.261931408485 171.089238663816  L 140.950136917396 169.597185637962  L 148.212502880767 169.618919290308  L 159.559814331266 174.557154791815  L 165.899221657317 174.57612636053  L 168.531715926977 176.09044967212  L 173.547315768445 177.86619411563  L 182.141780021986 175.128052049729  L 180.827813913502 173.612413460219  L 178.583705912475 173.605697651161  L 177.664411860449 171.21525719501  L 178.334489500234 169.080355071069  L 182.432452220182 167.33013052661  L 185.353829027291 162.810768953645  L 176.52477505839 155.867676363529  L 176.14764009505 148.572827600262  L 180.25290034129 145.565207886757  L 209.461020784528 140.246776396066  L 211.44684628247 138.74276661707  L 215.80395996563 139.383637537166  L 214.274316882777 121.897982131402  L 215.209998285161 118.254799082634  L 220.632743309814 115.885091790757  L 228.312340196755 109.869140359968  L 240.082687541149 105.378014296532  L 244.844556384128 103.252726854184  L 244.857417153483 98.9763199111455  L 246.974220151152 96.5940885429176  L 243.296021656481 90.2951191167667  L 240.413591066843 82.7411141301584  L 237.523236218046 76.945189404598  L 237.266714368439 74.5567323875499  L 232.777770547574 73.0315922303473  L 218.934242746743 63.9383394155692  L 205.600967794009 62.0114353418556  L 193.196589179162 56.9437686013783  L 192.286366492029 52.4138172874558  L 195.87078623609 46.6372692362089  L 195.483419616998 44.4983257016467  L 197.477328474587 38.8450393590739  L 193.685512013647 29.4056948347195  L 189.876479297591 21.5990118069506  L 188.294264490757 21.5942768064394  L 185.395451824809 19.1952817826985  L 178.794357596816 18.7976004888504  L 177.481541231092 15.1459347743518  L 172.478534061469 10.3520764532417  L 172.220126739217 8.59056857793507  L 169.979181409788 6.07078193745326  L 171.575770638142 1.2957969776395  L 168.99495765713 1.3029801487852  L 163.260623554534 0.0117420020129657  Z " fill-rule="evenodd" />
    </mask>
  </defs>
  <g transform="matrix(1 0 0 1 -627 -506 )">
    <path d="M 163.260623554534 0.0117420020129657  L 160.744615454986 1.26864438026439  L 159.546107955998 4.91191774478318  L 156.361926148482 8.54749497976763  L 151.869437287441 8.7857093480709  L 148.031533546202 11.1636669399116  L 145.745457297424 25.1120498592647  L 136.885017460805 27.7283892981305  L 135.046291352462 25.3316898727855  L 130.952750043891 25.319439374241  L 121.718439001474 21.0171126876641  L 120.134083809609 22.0163757964416  L 109.902318182718 41.6054946764572  L 112.407337800433 44.0024343592356  L 110.554239907594 46.3845780422689  L 109.230331337066 46.1289572859757  L 104.480555889261 45.1098615398726  L 102.372725807564 42.4624517291347  L 88.6321808524766 43.5533572653959  L 83.3448030946304 45.0466098247124  L 83.6047267060725 46.3039278307865  L 88.6159288693857 48.0805359734636  L 87.6801279218835 51.4711830310865  L 87.3661189342944 68.1980984475518  L 87.3600722367077 70.2087199608567  L 85.770825364065 70.203963915899  L 80.6089866820506 74.0887889472293  L 79.0067304876629 80.7481287400532  L 77.8128782162399 83.1357527477521  L 59.4377957917793 86.9784047078641  L 53.0855329704235 91.2340863782955  L 40.6735860947506 88.6829847242486  L 34.5785887639613 95.0798511628176  L 29.2923554748254 95.3156901391978  L 27.0517635067025 94.4321250142041  L 26.6644100727344 91.4119373817505  L 25.7415815286317 90.7813440433195  L 23.230255026895 91.6506883834451  L 19.796848896064 90.7635535941771  L 15.5634046382395 92.2590833379986  L 10.8053331107977 93.1217039773985  L 6.04611184059627 95.2434919036276  L 6.03779466476169 98.0090829428616  L 4.65047531981656 99.2553333236671  L 1.26987121312266 102.147622454353  L 2.31446788776759 105.546826710122  L 0.32573199358842 109.187735204941  L 1.63364876746073 112.714872159703  L 5.07144993942177 111.848300425432  L 10.2103289265724 116.767079459099  L 9.52940080924554 122.80222167159  L 10.170623245995 129.969839217421  L 7.91568322659873 132.103505856969  L 5.67624100123555 130.837633283305  L 1.83834780809491 132.335223629201  L 1.83457422578067 133.58999876463  L 9.74860963866672 137.890128060229  L 11.0599413594971 140.281741744285  L 14.8825916709902 142.683501482213  L 15.4028159884034 145.072747666013  L 13.8058496655199 149.973122454175  L 16.0382202697048 154.759566115225  L 18.9381879524608 155.020780310085  L 29.3509651063117 162.343908425478  L 34.3671943176695 163.618090925039  L 46.5313347102961 160.005880040725  L 51.2824910800238 161.150370876288  L 56.016739726524 168.209230721492  L 59.1848101922652 168.46949353199  L 60.3703294657055 169.729581513363  L 68.0282280345871 171.513233407726  L 71.1916195395412 173.913897080721  L 75.0142883102071 175.432659016865  L 81.8982289261612 170.926909693518  L 92.4611354109668 172.464965879892  L 96.546221539412 175.873269228309  L 103.145024192961 177.909794701818  L 111.079865730557 175.291562139599  L 119.002353686544 176.196515437272  L 128.923403090661 171.070269725657  L 135.261931408485 171.089238663816  L 140.950136917396 169.597185637962  L 148.212502880767 169.618919290308  L 159.559814331266 174.557154791815  L 165.899221657317 174.57612636053  L 168.531715926977 176.09044967212  L 173.547315768445 177.86619411563  L 182.141780021986 175.128052049729  L 180.827813913502 173.612413460219  L 178.583705912475 173.605697651161  L 177.664411860449 171.21525719501  L 178.334489500234 169.080355071069  L 182.432452220182 167.33013052661  L 185.353829027291 162.810768953645  L 176.52477505839 155.867676363529  L 176.14764009505 148.572827600262  L 180.25290034129 145.565207886757  L 209.461020784528 140.246776396066  L 211.44684628247 138.74276661707  L 215.80395996563 139.383637537166  L 214.274316882777 121.897982131402  L 215.209998285161 118.254799082634  L 220.632743309814 115.885091790757  L 228.312340196755 109.869140359968  L 240.082687541149 105.378014296532  L 244.844556384128 103.252726854184  L 244.857417153483 98.9763199111455  L 246.974220151152 96.5940885429176  L 243.296021656481 90.2951191167667  L 240.413591066843 82.7411141301584  L 237.523236218046 76.945189404598  L 237.266714368439 74.5567323875499  L 232.777770547574 73.0315922303473  L 218.934242746743 63.9383394155692  L 205.600967794009 62.0114353418556  L 193.196589179162 56.9437686013783  L 192.286366492029 52.4138172874558  L 195.87078623609 46.6372692362089  L 195.483419616998 44.4983257016467  L 197.477328474587 38.8450393590739  L 193.685512013647 29.4056948347195  L 189.876479297591 21.5990118069506  L 188.294264490757 21.5942768064394  L 185.395451824809 19.1952817826985  L 178.794357596816 18.7976004888504  L 177.481541231092 15.1459347743518  L 172.478534061469 10.3520764532417  L 172.220126739217 8.59056857793507  L 169.979181409788 6.07078193745326  L 171.575770638142 1.2957969776395  L 168.99495765713 1.3029801487852  L 163.260623554534 0.0117420020129657  Z " fill-rule="nonzero" fill="#031e4b" stroke="none" transform="matrix(1 0 0 1 627 506 )" />
    <path d="M 163.260623554534 0.0117420020129657  L 160.744615454986 1.26864438026439  L 159.546107955998 4.91191774478318  L 156.361926148482 8.54749497976763  L 151.869437287441 8.7857093480709  L 148.031533546202 11.1636669399116  L 145.745457297424 25.1120498592647  L 136.885017460805 27.7283892981305  L 135.046291352462 25.3316898727855  L 130.952750043891 25.319439374241  L 121.718439001474 21.0171126876641  L 120.134083809609 22.0163757964416  L 109.902318182718 41.6054946764572  L 112.407337800433 44.0024343592356  L 110.554239907594 46.3845780422689  L 109.230331337066 46.1289572859757  L 104.480555889261 45.1098615398726  L 102.372725807564 42.4624517291347  L 88.6321808524766 43.5533572653959  L 83.3448030946304 45.0466098247124  L 83.6047267060725 46.3039278307865  L 88.6159288693857 48.0805359734636  L 87.6801279218835 51.4711830310865  L 87.3661189342944 68.1980984475518  L 87.3600722367077 70.2087199608567  L 85.770825364065 70.203963915899  L 80.6089866820506 74.0887889472293  L 79.0067304876629 80.7481287400532  L 77.8128782162399 83.1357527477521  L 59.4377957917793 86.9784047078641  L 53.0855329704235 91.2340863782955  L 40.6735860947506 88.6829847242486  L 34.5785887639613 95.0798511628176  L 29.2923554748254 95.3156901391978  L 27.0517635067025 94.4321250142041  L 26.6644100727344 91.4119373817505  L 25.7415815286317 90.7813440433195  L 23.230255026895 91.6506883834451  L 19.796848896064 90.7635535941771  L 15.5634046382395 92.2590833379986  L 10.8053331107977 93.1217039773985  L 6.04611184059627 95.2434919036276  L 6.03779466476169 98.0090829428616  L 4.65047531981656 99.2553333236671  L 1.26987121312266 102.147622454353  L 2.31446788776759 105.546826710122  L 0.32573199358842 109.187735204941  L 1.63364876746073 112.714872159703  L 5.07144993942177 111.848300425432  L 10.2103289265724 116.767079459099  L 9.52940080924554 122.80222167159  L 10.170623245995 129.969839217421  L 7.91568322659873 132.103505856969  L 5.67624100123555 130.837633283305  L 1.83834780809491 132.335223629201  L 1.83457422578067 133.58999876463  L 9.74860963866672 137.890128060229  L 11.0599413594971 140.281741744285  L 14.8825916709902 142.683501482213  L 15.4028159884034 145.072747666013  L 13.8058496655199 149.973122454175  L 16.0382202697048 154.759566115225  L 18.9381879524608 155.020780310085  L 29.3509651063117 162.343908425478  L 34.3671943176695 163.618090925039  L 46.5313347102961 160.005880040725  L 51.2824910800238 161.150370876288  L 56.016739726524 168.209230721492  L 59.1848101922652 168.46949353199  L 60.3703294657055 169.729581513363  L 68.0282280345871 171.513233407726  L 71.1916195395412 173.913897080721  L 75.0142883102071 175.432659016865  L 81.8982289261612 170.926909693518  L 92.4611354109668 172.464965879892  L 96.546221539412 175.873269228309  L 103.145024192961 177.909794701818  L 111.079865730557 175.291562139599  L 119.002353686544 176.196515437272  L 128.923403090661 171.070269725657  L 135.261931408485 171.089238663816  L 140.950136917396 169.597185637962  L 148.212502880767 169.618919290308  L 159.559814331266 174.557154791815  L 165.899221657317 174.57612636053  L 168.531715926977 176.09044967212  L 173.547315768445 177.86619411563  L 182.141780021986 175.128052049729  L 180.827813913502 173.612413460219  L 178.583705912475 173.605697651161  L 177.664411860449 171.21525719501  L 178.334489500234 169.080355071069  L 182.432452220182 167.33013052661  L 185.353829027291 162.810768953645  L 176.52477505839 155.867676363529  L 176.14764009505 148.572827600262  L 180.25290034129 145.565207886757  L 209.461020784528 140.246776396066  L 211.44684628247 138.74276661707  L 215.80395996563 139.383637537166  L 214.274316882777 121.897982131402  L 215.209998285161 118.254799082634  L 220.632743309814 115.885091790757  L 228.312340196755 109.869140359968  L 240.082687541149 105.378014296532  L 244.844556384128 103.252726854184  L 244.857417153483 98.9763199111455  L 246.974220151152 96.5940885429176  L 243.296021656481 90.2951191167667  L 240.413591066843 82.7411141301584  L 237.523236218046 76.945189404598  L 237.266714368439 74.5567323875499  L 232.777770547574 73.0315922303473  L 218.934242746743 63.9383394155692  L 205.600967794009 62.0114353418556  L 193.196589179162 56.9437686013783  L 192.286366492029 52.4138172874558  L 195.87078623609 46.6372692362089  L 195.483419616998 44.4983257016467  L 197.477328474587 38.8450393590739  L 193.685512013647 29.4056948347195  L 189.876479297591 21.5990118069506  L 188.294264490757 21.5942768064394  L 185.395451824809 19.1952817826985  L 178.794357596816 18.7976004888504  L 177.481541231092 15.1459347743518  L 172.478534061469 10.3520764532417  L 172.220126739217 8.59056857793507  L 169.979181409788 6.07078193745326  L 171.575770638142 1.2957969776395  L 168.99495765713 1.3029801487852  L 163.260623554534 0.0117420020129657  Z " stroke-width="2" stroke="#47b3fe" fill="none" transform="matrix(1 0 0 1 627 506 )" mask="url(#clip1785)" />
  </g>
</svg>