<?xml version="1.0" encoding="utf-8"?>
<svg version="1.1" xmlns:xlink="http://www.w3.org/1999/xlink" width="155px" height="107px" xmlns="http://www.w3.org/2000/svg">
  <defs>
    <mask fill="white" id="clip1784">
      <path d="M 4.09473205267454 41.4810415623272  C 4.09473205267454 41.4810415623272  8.3202112402596 38.2196659993871  8.3202112402596 38.2196659993871  C 8.3202112402596 38.2196659993871  13.3143692833366 39.9958114056576  13.3143692833366 39.9958114056576  C 13.3143692833366 39.9958114056576  21.8809749109812 37.2561749982598  21.8809749109812 37.2561749982598  C 21.8809749109812 37.2561749982598  20.5666808985306 35.7410487074397  20.5666808985306 35.7410487074397  C 20.5666808985306 35.7410487074397  18.3309910615094 35.7343313521003  18.3309910615094 35.7343313521003  C 18.3309910615094 35.7343313521003  17.4168942869943 33.344222825193  17.4168942869943 33.344222825193  C 17.4168942869943 33.344222825193  18.0809580954826 31.2079415722706  18.0809580954826 31.2079415722706  C 18.0809580954826 31.2079415722706  22.1652998387501 29.4573193097181  22.1652998387501 29.4573193097181  C 22.1652998387501 29.4573193097181  25.0730881314414 24.937786336788  25.0730881314414 24.937786336788  C 25.0730881314414 24.937786336788  16.2780296806035 17.9930977656142  16.2780296806035 17.9930977656142  C 16.2780296806035 17.9930977656142  15.9031851479057 10.6965720311963  15.9031851479057 10.6965720311963  C 15.9031851479057 10.6965720311963  19.9912915721795 7.68913161986325  19.9912915721795 7.68913161986325  C 19.9912915721795 7.68913161986325  49.0924727866411 2.36948348050134  49.0924727866411 2.36948348050134  C 49.0924727866411 2.36948348050134  51.0699732866437 0.865124779641178  51.0699732866437 0.865124779641178  C 51.0699732866437 0.865124779641178  55.410745063803 1.50526620321239  55.410745063803 1.50526620321239  C 55.410745063803 1.50526620321239  70.0095597547745 4.81881594482275  70.0095597547745 4.81881594482275  C 70.0095597547745 4.81881594482275  74.3441647760262 7.2253411654558  74.3441647760262 7.2253411654558  C 74.3441647760262 7.2253411654558  81.0762174423426 10.8915139105483  81.0762174423426 10.8915139105483  C 81.0762174423426 10.8915139105483  85.1577866850131 10.6511836180648  85.1577866850131 10.6511836180648  C 85.1577866850131 10.6511836180648  91.4852101407089 7.02424938459706  91.4852101407089 7.02424938459706  C 91.4852101407089 7.02424938459706  99.7700514191521 8.3050944232491  99.7700514191521 8.3050944232491  C 99.7700514191521 8.3050944232491  105.175340826019 5.55595952279396  105.175340826019 5.55595952279396  C 105.175340826019 5.55595952279396  116.209472860658 12.2547818376636  116.209472860658 12.2547818376636  C 116.209472860658 12.2547818376636  122.138310386409 10.1343191277499  122.138310386409 10.1343191277499  C 122.138310386409 10.1343191277499  125.26901700963 17.4391251274452  125.26901700963 17.4391251274452  C 125.26901700963 17.4391251274452  132.889903067732 21.9894155013938  132.889903067732 21.9894155013938  C 132.889903067732 21.9894155013938  138.537050679705 26.788123481259  138.537050679705 26.788123481259  C 138.537050679705 26.788123481259  142.618884387057 25.2900874615118  142.618884387057 25.2900874615118  C 142.618884387057 25.2900874615118  150.483655045206 35.2499503047557  150.483655045206 35.2499503047557  C 150.483655045206 35.2499503047557  152.040709244954 41.6729663764789  152.040709244954 41.6729663764789  C 152.040709244954 41.6729663764789  154.924134385684 45.5792922491798  154.924134385684 45.5792922491798  C 154.924134385684 45.5792922491798  153.981153164015 53.1244522218121  153.981153164015 53.1244522218121  C 153.981153164015 53.1244522218121  147.652553628628 58.3134298640698  147.652553628628 58.3134298640698  C 147.652553628628 58.3134298640698  148.826601670421 61.3340497634152  148.826601670421 61.3340497634152  C 148.826601670421 61.3340497634152  146.317534167148 63.7173812953222  146.317534167148 63.7173812953222  C 146.317534167148 63.7173812953222  143.151434813628 66.4741211296001  143.151434813628 66.4741211296001  C 143.151434813628 66.4741211296001  143.135989901111 71.6303206387981  143.135989901111 71.6303206387981  C 143.135989901111 71.6303206387981  140.234479579608 73.7616333817325  140.234479579608 73.7616333817325  C 140.234479579608 73.7616333817325  136.812590336838 72.744485103896  136.812590336838 72.744485103896  C 136.812590336838 72.744485103896  133.930654780288 70.0949931669447  133.930654780288 70.0949931669447  C 133.930654780288 70.0949931669447  132.345324752437 73.1117075455529  132.345324752437 73.1117075455529  C 132.345324752437 73.1117075455529  134.31477221533 75.7575807583717  134.31477221533 75.7575807583717  C 134.31477221533 75.7575807583717  139.311448802853 76.4005699757523  139.311448802853 76.4005699757523  C 139.311448802853 76.4005699757523  144.03635377785 80.9439132062561  144.03635377785 80.9439132062561  C 144.03635377785 80.9439132062561  146.926199630639 80.9525960392449  146.926199630639 80.9525960392449  C 146.926199630639 80.9525960392449  149.159111712798 83.3484212030634  149.159111712798 83.3484212030634  C 149.159111712798 83.3484212030634  147.169819766005 87.619874235804  147.169819766005 87.619874235804  C 147.169819766005 87.619874235804  147.16906577895 87.871588687095  147.16906577895 87.871588687095  C 147.16906577895 87.871588687095  143.091517800569 87.3541497265167  143.091517800569 87.3541497265167  C 143.091517800569 87.3541497265167  140.190375277629 89.3626749322359  140.190375277629 89.3626749322359  C 140.190375277629 89.3626749322359  138.360422425472 86.3392072390809  138.360422425472 86.3392072390809  C 138.360422425472 86.3392072390809  133.34921078902 88.2098332699692  133.34921078902 88.2098332699692  C 133.34921078902 88.2098332699692  132.028485555981 90.5958582342103  132.028485555981 90.5958582342103  C 132.028485555981 90.5958582342103  132.017559311524 94.2435251433367  132.017559311524 94.2435251433367  C 132.017559311524 94.2435251433367  127.016361428808 95.1099455798649  127.016361428808 95.1099455798649  C 127.016361428808 95.1099455798649  120.718822482073 89.0524539735696  120.718822482073 89.0524539735696  C 120.718822482073 89.0524539735696  118.751385651325 86.02769613422  118.751385651325 86.02769613422  C 118.751385651325 86.02769613422  113.748306741672 87.5220871182197  113.748306741672 87.5220871182197  C 113.748306741672 87.5220871182197  105.201521953734 85.1064142260641  105.201521953734 85.1064142260641  C 105.201521953734 85.1064142260641  92.2996527702676 86.8287892156803  92.2996527702676 86.8287892156803  C 92.2996527702676 86.8287892156803  91.2450324247509 88.0833270244841  91.2450324247509 88.0833270244841  C 91.2450324247509 88.0833270244841  90.048515393597 91.9791484233762  90.048515393597 91.9791484233762  C 90.048515393597 91.9791484233762  87.5429664965772 93.4801664261703  87.5429664965772 93.4801664261703  C 87.5429664965772 93.4801664261703  87.793994270146 97.3820912427158  87.793994270146 97.3820912427158  C 87.793994270146 97.3820912427158  80.1312868882888 106.793620903964  80.1312868882888 106.793620903964  C 80.1312868882888 106.793620903964  67.0775965879584 104.238109670943  67.0775965879584 104.238109670943  C 67.0775965879584 104.238109670943  66.1734154875617 99.7071232519528  66.1734154875617 99.7071232519528  C 66.1734154875617 99.7071232519528  58.2934670087093 93.6448771368059  58.2934670087093 93.6448771368059  C 58.2934670087093 93.6448771368059  40.9316523079583 90.9518789442578  40.9316523079583 90.9518789442578  C 40.9316523079583 90.9518789442578  33.4367074835425 89.6716531056148  33.4367074835425 89.6716531056148  C 33.4367074835425 89.6716531056148  30.5379854254312 89.4103498247212  30.5379854254312 89.4103498247212  C 30.5379854254312 89.4103498247212  23.9750903239633 84.2343850302468  23.9750903239633 84.2343850302468  C 23.9750903239633 84.2343850302468  10.2932771404446 81.1717989818429  10.2932771404446 81.1717989818429  C 10.2932771404446 81.1717989818429  0.871335813002474 63.6583871460133  0.871335813002474 63.6583871460133  C 0.871335813002474 63.6583871460133  0.623310851987981 58.7539897934901  0.623310851987981 58.7539897934901  C 0.623310851987981 58.7539897934901  4.44143911958577 57.0016906040006  4.44143911958577 57.0016906040006  C 4.44143911958577 57.0016906040006  4.45892005986252 51.1657743709332  4.45892005986252 51.1657743709332  C 4.45892005986252 51.1657743709332  7.24438117760519 44.5084744158803  7.24438117760519 44.5084744158803  C 7.24438117760519 44.5084744158803  4.09473205267454 41.4810415623272  4.09473205267454 41.4810415623272  Z " fill-rule="evenodd" />
    </mask>
  </defs>
  <g transform="matrix(1 0 0 1 -787 -644 )">
    <path d="M 4.09473205267454 41.4810415623272  C 4.09473205267454 41.4810415623272  8.3202112402596 38.2196659993871  8.3202112402596 38.2196659993871  C 8.3202112402596 38.2196659993871  13.3143692833366 39.9958114056576  13.3143692833366 39.9958114056576  C 13.3143692833366 39.9958114056576  21.8809749109812 37.2561749982598  21.8809749109812 37.2561749982598  C 21.8809749109812 37.2561749982598  20.5666808985306 35.7410487074397  20.5666808985306 35.7410487074397  C 20.5666808985306 35.7410487074397  18.3309910615094 35.7343313521003  18.3309910615094 35.7343313521003  C 18.3309910615094 35.7343313521003  17.4168942869943 33.344222825193  17.4168942869943 33.344222825193  C 17.4168942869943 33.344222825193  18.0809580954826 31.2079415722706  18.0809580954826 31.2079415722706  C 18.0809580954826 31.2079415722706  22.1652998387501 29.4573193097181  22.1652998387501 29.4573193097181  C 22.1652998387501 29.4573193097181  25.0730881314414 24.937786336788  25.0730881314414 24.937786336788  C 25.0730881314414 24.937786336788  16.2780296806035 17.9930977656142  16.2780296806035 17.9930977656142  C 16.2780296806035 17.9930977656142  15.9031851479057 10.6965720311963  15.9031851479057 10.6965720311963  C 15.9031851479057 10.6965720311963  19.9912915721795 7.68913161986325  19.9912915721795 7.68913161986325  C 19.9912915721795 7.68913161986325  49.0924727866411 2.36948348050134  49.0924727866411 2.36948348050134  C 49.0924727866411 2.36948348050134  51.0699732866437 0.865124779641178  51.0699732866437 0.865124779641178  C 51.0699732866437 0.865124779641178  55.410745063803 1.50526620321239  55.410745063803 1.50526620321239  C 55.410745063803 1.50526620321239  70.0095597547745 4.81881594482275  70.0095597547745 4.81881594482275  C 70.0095597547745 4.81881594482275  74.3441647760262 7.2253411654558  74.3441647760262 7.2253411654558  C 74.3441647760262 7.2253411654558  81.0762174423426 10.8915139105483  81.0762174423426 10.8915139105483  C 81.0762174423426 10.8915139105483  85.1577866850131 10.6511836180648  85.1577866850131 10.6511836180648  C 85.1577866850131 10.6511836180648  91.4852101407089 7.02424938459706  91.4852101407089 7.02424938459706  C 91.4852101407089 7.02424938459706  99.7700514191521 8.3050944232491  99.7700514191521 8.3050944232491  C 99.7700514191521 8.3050944232491  105.175340826019 5.55595952279396  105.175340826019 5.55595952279396  C 105.175340826019 5.55595952279396  116.209472860658 12.2547818376636  116.209472860658 12.2547818376636  C 116.209472860658 12.2547818376636  122.138310386409 10.1343191277499  122.138310386409 10.1343191277499  C 122.138310386409 10.1343191277499  125.26901700963 17.4391251274452  125.26901700963 17.4391251274452  C 125.26901700963 17.4391251274452  132.889903067732 21.9894155013938  132.889903067732 21.9894155013938  C 132.889903067732 21.9894155013938  138.537050679705 26.788123481259  138.537050679705 26.788123481259  C 138.537050679705 26.788123481259  142.618884387057 25.2900874615118  142.618884387057 25.2900874615118  C 142.618884387057 25.2900874615118  150.483655045206 35.2499503047557  150.483655045206 35.2499503047557  C 150.483655045206 35.2499503047557  152.040709244954 41.6729663764789  152.040709244954 41.6729663764789  C 152.040709244954 41.6729663764789  154.924134385684 45.5792922491798  154.924134385684 45.5792922491798  C 154.924134385684 45.5792922491798  153.981153164015 53.1244522218121  153.981153164015 53.1244522218121  C 153.981153164015 53.1244522218121  147.652553628628 58.3134298640698  147.652553628628 58.3134298640698  C 147.652553628628 58.3134298640698  148.826601670421 61.3340497634152  148.826601670421 61.3340497634152  C 148.826601670421 61.3340497634152  146.317534167148 63.7173812953222  146.317534167148 63.7173812953222  C 146.317534167148 63.7173812953222  143.151434813628 66.4741211296001  143.151434813628 66.4741211296001  C 143.151434813628 66.4741211296001  143.135989901111 71.6303206387981  143.135989901111 71.6303206387981  C 143.135989901111 71.6303206387981  140.234479579608 73.7616333817325  140.234479579608 73.7616333817325  C 140.234479579608 73.7616333817325  136.812590336838 72.744485103896  136.812590336838 72.744485103896  C 136.812590336838 72.744485103896  133.930654780288 70.0949931669447  133.930654780288 70.0949931669447  C 133.930654780288 70.0949931669447  132.345324752437 73.1117075455529  132.345324752437 73.1117075455529  C 132.345324752437 73.1117075455529  134.31477221533 75.7575807583717  134.31477221533 75.7575807583717  C 134.31477221533 75.7575807583717  139.311448802853 76.4005699757523  139.311448802853 76.4005699757523  C 139.311448802853 76.4005699757523  144.03635377785 80.9439132062561  144.03635377785 80.9439132062561  C 144.03635377785 80.9439132062561  146.926199630639 80.9525960392449  146.926199630639 80.9525960392449  C 146.926199630639 80.9525960392449  149.159111712798 83.3484212030634  149.159111712798 83.3484212030634  C 149.159111712798 83.3484212030634  147.169819766005 87.619874235804  147.169819766005 87.619874235804  C 147.169819766005 87.619874235804  147.16906577895 87.871588687095  147.16906577895 87.871588687095  C 147.16906577895 87.871588687095  143.091517800569 87.3541497265167  143.091517800569 87.3541497265167  C 143.091517800569 87.3541497265167  140.190375277629 89.3626749322359  140.190375277629 89.3626749322359  C 140.190375277629 89.3626749322359  138.360422425472 86.3392072390809  138.360422425472 86.3392072390809  C 138.360422425472 86.3392072390809  133.34921078902 88.2098332699692  133.34921078902 88.2098332699692  C 133.34921078902 88.2098332699692  132.028485555981 90.5958582342103  132.028485555981 90.5958582342103  C 132.028485555981 90.5958582342103  132.017559311524 94.2435251433367  132.017559311524 94.2435251433367  C 132.017559311524 94.2435251433367  127.016361428808 95.1099455798649  127.016361428808 95.1099455798649  C 127.016361428808 95.1099455798649  120.718822482073 89.0524539735696  120.718822482073 89.0524539735696  C 120.718822482073 89.0524539735696  118.751385651325 86.02769613422  118.751385651325 86.02769613422  C 118.751385651325 86.02769613422  113.748306741672 87.5220871182197  113.748306741672 87.5220871182197  C 113.748306741672 87.5220871182197  105.201521953734 85.1064142260641  105.201521953734 85.1064142260641  C 105.201521953734 85.1064142260641  92.2996527702676 86.8287892156803  92.2996527702676 86.8287892156803  C 92.2996527702676 86.8287892156803  91.2450324247509 88.0833270244841  91.2450324247509 88.0833270244841  C 91.2450324247509 88.0833270244841  90.048515393597 91.9791484233762  90.048515393597 91.9791484233762  C 90.048515393597 91.9791484233762  87.5429664965772 93.4801664261703  87.5429664965772 93.4801664261703  C 87.5429664965772 93.4801664261703  87.793994270146 97.3820912427158  87.793994270146 97.3820912427158  C 87.793994270146 97.3820912427158  80.1312868882888 106.793620903964  80.1312868882888 106.793620903964  C 80.1312868882888 106.793620903964  67.0775965879584 104.238109670943  67.0775965879584 104.238109670943  C 67.0775965879584 104.238109670943  66.1734154875617 99.7071232519528  66.1734154875617 99.7071232519528  C 66.1734154875617 99.7071232519528  58.2934670087093 93.6448771368059  58.2934670087093 93.6448771368059  C 58.2934670087093 93.6448771368059  40.9316523079583 90.9518789442578  40.9316523079583 90.9518789442578  C 40.9316523079583 90.9518789442578  33.4367074835425 89.6716531056148  33.4367074835425 89.6716531056148  C 33.4367074835425 89.6716531056148  30.5379854254312 89.4103498247212  30.5379854254312 89.4103498247212  C 30.5379854254312 89.4103498247212  23.9750903239633 84.2343850302468  23.9750903239633 84.2343850302468  C 23.9750903239633 84.2343850302468  10.2932771404446 81.1717989818429  10.2932771404446 81.1717989818429  C 10.2932771404446 81.1717989818429  0.871335813002474 63.6583871460133  0.871335813002474 63.6583871460133  C 0.871335813002474 63.6583871460133  0.623310851987981 58.7539897934901  0.623310851987981 58.7539897934901  C 0.623310851987981 58.7539897934901  4.44143911958577 57.0016906040006  4.44143911958577 57.0016906040006  C 4.44143911958577 57.0016906040006  4.45892005986252 51.1657743709332  4.45892005986252 51.1657743709332  C 4.45892005986252 51.1657743709332  7.24438117760519 44.5084744158803  7.24438117760519 44.5084744158803  C 7.24438117760519 44.5084744158803  4.09473205267454 41.4810415623272  4.09473205267454 41.4810415623272  Z " fill-rule="nonzero" fill="#031e4b" stroke="none" transform="matrix(1 0 0 1 787 644 )" />
    <path d="M 4.09473205267454 41.4810415623272  C 4.09473205267454 41.4810415623272  8.3202112402596 38.2196659993871  8.3202112402596 38.2196659993871  C 8.3202112402596 38.2196659993871  13.3143692833366 39.9958114056576  13.3143692833366 39.9958114056576  C 13.3143692833366 39.9958114056576  21.8809749109812 37.2561749982598  21.8809749109812 37.2561749982598  C 21.8809749109812 37.2561749982598  20.5666808985306 35.7410487074397  20.5666808985306 35.7410487074397  C 20.5666808985306 35.7410487074397  18.3309910615094 35.7343313521003  18.3309910615094 35.7343313521003  C 18.3309910615094 35.7343313521003  17.4168942869943 33.344222825193  17.4168942869943 33.344222825193  C 17.4168942869943 33.344222825193  18.0809580954826 31.2079415722706  18.0809580954826 31.2079415722706  C 18.0809580954826 31.2079415722706  22.1652998387501 29.4573193097181  22.1652998387501 29.4573193097181  C 22.1652998387501 29.4573193097181  25.0730881314414 24.937786336788  25.0730881314414 24.937786336788  C 25.0730881314414 24.937786336788  16.2780296806035 17.9930977656142  16.2780296806035 17.9930977656142  C 16.2780296806035 17.9930977656142  15.9031851479057 10.6965720311963  15.9031851479057 10.6965720311963  C 15.9031851479057 10.6965720311963  19.9912915721795 7.68913161986325  19.9912915721795 7.68913161986325  C 19.9912915721795 7.68913161986325  49.0924727866411 2.36948348050134  49.0924727866411 2.36948348050134  C 49.0924727866411 2.36948348050134  51.0699732866437 0.865124779641178  51.0699732866437 0.865124779641178  C 51.0699732866437 0.865124779641178  55.410745063803 1.50526620321239  55.410745063803 1.50526620321239  C 55.410745063803 1.50526620321239  70.0095597547745 4.81881594482275  70.0095597547745 4.81881594482275  C 70.0095597547745 4.81881594482275  74.3441647760262 7.2253411654558  74.3441647760262 7.2253411654558  C 74.3441647760262 7.2253411654558  81.0762174423426 10.8915139105483  81.0762174423426 10.8915139105483  C 81.0762174423426 10.8915139105483  85.1577866850131 10.6511836180648  85.1577866850131 10.6511836180648  C 85.1577866850131 10.6511836180648  91.4852101407089 7.02424938459706  91.4852101407089 7.02424938459706  C 91.4852101407089 7.02424938459706  99.7700514191521 8.3050944232491  99.7700514191521 8.3050944232491  C 99.7700514191521 8.3050944232491  105.175340826019 5.55595952279396  105.175340826019 5.55595952279396  C 105.175340826019 5.55595952279396  116.209472860658 12.2547818376636  116.209472860658 12.2547818376636  C 116.209472860658 12.2547818376636  122.138310386409 10.1343191277499  122.138310386409 10.1343191277499  C 122.138310386409 10.1343191277499  125.26901700963 17.4391251274452  125.26901700963 17.4391251274452  C 125.26901700963 17.4391251274452  132.889903067732 21.9894155013938  132.889903067732 21.9894155013938  C 132.889903067732 21.9894155013938  138.537050679705 26.788123481259  138.537050679705 26.788123481259  C 138.537050679705 26.788123481259  142.618884387057 25.2900874615118  142.618884387057 25.2900874615118  C 142.618884387057 25.2900874615118  150.483655045206 35.2499503047557  150.483655045206 35.2499503047557  C 150.483655045206 35.2499503047557  152.040709244954 41.6729663764789  152.040709244954 41.6729663764789  C 152.040709244954 41.6729663764789  154.924134385684 45.5792922491798  154.924134385684 45.5792922491798  C 154.924134385684 45.5792922491798  153.981153164015 53.1244522218121  153.981153164015 53.1244522218121  C 153.981153164015 53.1244522218121  147.652553628628 58.3134298640698  147.652553628628 58.3134298640698  C 147.652553628628 58.3134298640698  148.826601670421 61.3340497634152  148.826601670421 61.3340497634152  C 148.826601670421 61.3340497634152  146.317534167148 63.7173812953222  146.317534167148 63.7173812953222  C 146.317534167148 63.7173812953222  143.151434813628 66.4741211296001  143.151434813628 66.4741211296001  C 143.151434813628 66.4741211296001  143.135989901111 71.6303206387981  143.135989901111 71.6303206387981  C 143.135989901111 71.6303206387981  140.234479579608 73.7616333817325  140.234479579608 73.7616333817325  C 140.234479579608 73.7616333817325  136.812590336838 72.744485103896  136.812590336838 72.744485103896  C 136.812590336838 72.744485103896  133.930654780288 70.0949931669447  133.930654780288 70.0949931669447  C 133.930654780288 70.0949931669447  132.345324752437 73.1117075455529  132.345324752437 73.1117075455529  C 132.345324752437 73.1117075455529  134.31477221533 75.7575807583717  134.31477221533 75.7575807583717  C 134.31477221533 75.7575807583717  139.311448802853 76.4005699757523  139.311448802853 76.4005699757523  C 139.311448802853 76.4005699757523  144.03635377785 80.9439132062561  144.03635377785 80.9439132062561  C 144.03635377785 80.9439132062561  146.926199630639 80.9525960392449  146.926199630639 80.9525960392449  C 146.926199630639 80.9525960392449  149.159111712798 83.3484212030634  149.159111712798 83.3484212030634  C 149.159111712798 83.3484212030634  147.169819766005 87.619874235804  147.169819766005 87.619874235804  C 147.169819766005 87.619874235804  147.16906577895 87.871588687095  147.16906577895 87.871588687095  C 147.16906577895 87.871588687095  143.091517800569 87.3541497265167  143.091517800569 87.3541497265167  C 143.091517800569 87.3541497265167  140.190375277629 89.3626749322359  140.190375277629 89.3626749322359  C 140.190375277629 89.3626749322359  138.360422425472 86.3392072390809  138.360422425472 86.3392072390809  C 138.360422425472 86.3392072390809  133.34921078902 88.2098332699692  133.34921078902 88.2098332699692  C 133.34921078902 88.2098332699692  132.028485555981 90.5958582342103  132.028485555981 90.5958582342103  C 132.028485555981 90.5958582342103  132.017559311524 94.2435251433367  132.017559311524 94.2435251433367  C 132.017559311524 94.2435251433367  127.016361428808 95.1099455798649  127.016361428808 95.1099455798649  C 127.016361428808 95.1099455798649  120.718822482073 89.0524539735696  120.718822482073 89.0524539735696  C 120.718822482073 89.0524539735696  118.751385651325 86.02769613422  118.751385651325 86.02769613422  C 118.751385651325 86.02769613422  113.748306741672 87.5220871182197  113.748306741672 87.5220871182197  C 113.748306741672 87.5220871182197  105.201521953734 85.1064142260641  105.201521953734 85.1064142260641  C 105.201521953734 85.1064142260641  92.2996527702676 86.8287892156803  92.2996527702676 86.8287892156803  C 92.2996527702676 86.8287892156803  91.2450324247509 88.0833270244841  91.2450324247509 88.0833270244841  C 91.2450324247509 88.0833270244841  90.048515393597 91.9791484233762  90.048515393597 91.9791484233762  C 90.048515393597 91.9791484233762  87.5429664965772 93.4801664261703  87.5429664965772 93.4801664261703  C 87.5429664965772 93.4801664261703  87.793994270146 97.3820912427158  87.793994270146 97.3820912427158  C 87.793994270146 97.3820912427158  80.1312868882888 106.793620903964  80.1312868882888 106.793620903964  C 80.1312868882888 106.793620903964  67.0775965879584 104.238109670943  67.0775965879584 104.238109670943  C 67.0775965879584 104.238109670943  66.1734154875617 99.7071232519528  66.1734154875617 99.7071232519528  C 66.1734154875617 99.7071232519528  58.2934670087093 93.6448771368059  58.2934670087093 93.6448771368059  C 58.2934670087093 93.6448771368059  40.9316523079583 90.9518789442578  40.9316523079583 90.9518789442578  C 40.9316523079583 90.9518789442578  33.4367074835425 89.6716531056148  33.4367074835425 89.6716531056148  C 33.4367074835425 89.6716531056148  30.5379854254312 89.4103498247212  30.5379854254312 89.4103498247212  C 30.5379854254312 89.4103498247212  23.9750903239633 84.2343850302468  23.9750903239633 84.2343850302468  C 23.9750903239633 84.2343850302468  10.2932771404446 81.1717989818429  10.2932771404446 81.1717989818429  C 10.2932771404446 81.1717989818429  0.871335813002474 63.6583871460133  0.871335813002474 63.6583871460133  C 0.871335813002474 63.6583871460133  0.623310851987981 58.7539897934901  0.623310851987981 58.7539897934901  C 0.623310851987981 58.7539897934901  4.44143911958577 57.0016906040006  4.44143911958577 57.0016906040006  C 4.44143911958577 57.0016906040006  4.45892005986252 51.1657743709332  4.45892005986252 51.1657743709332  C 4.45892005986252 51.1657743709332  7.24438117760519 44.5084744158803  7.24438117760519 44.5084744158803  C 7.24438117760519 44.5084744158803  4.09473205267454 41.4810415623272  4.09473205267454 41.4810415623272  Z " stroke-width="0.97600957434184" stroke="#47b3fe" fill="none" transform="matrix(1 0 0 1 787 644 )" mask="url(#clip1784)" />
  </g>
</svg>