<?xml version="1.0" encoding="utf-8"?>
<svg version="1.1" xmlns:xlink="http://www.w3.org/1999/xlink" width="68px" height="73px" xmlns="http://www.w3.org/2000/svg">
  <defs>
    <mask fill="white" id="clip1777">
      <path d="M 64.3664530145227 16.8368117729211  C 64.3664530145227 16.8368117729211  60.7158989643831 9.90033868907847  60.7158989643831 9.90033868907847  C 60.7158989643831 9.90033868907847  57.8356024400039 9.26187729901801  57.8356024400039 9.26187729901801  C 57.8356024400039 9.26187729901801  56.5287959114646 7.491824587255  56.5287959114646 7.491824587255  C 56.5287959114646 7.491824587255  56.5415485945625 3.20327169569578  56.5415485945625 3.20327169569578  C 56.5415485945625 3.20327169569578  54.9786936808334 1.05160725888072  54.9786936808334 1.05160725888072  C 54.9786936808334 1.05160725888072  51.8312054300447 4.07206426056098  51.8312054300447 4.07206426056098  C 51.8312054300447 4.07206426056098  50.250359190017 6.21157545212259  50.250359190017 6.21157545212259  C 50.250359190017 6.21157545212259  48.1580403880521 6.20524288837783  48.1580403880521 6.20524288837783  C 48.1580403880521 6.20524288837783  47.5139383526566 2.92528270157584  47.5139383526566 2.92528270157584  C 47.5139383526566 2.92528270157584  44.626538405945 3.7960744216341  44.626538405945 3.7960744216341  C 44.626538405945 3.7960744216341  40.8209810199583 6.18127765269514  40.8209810199583 6.18127765269514  C 40.8209810199583 6.18127765269514  38.3347483315433 4.66096014647792  38.3347483315433 4.66096014647792  C 38.3347483315433 4.66096014647792  32.9428314454858 1.36487127162707  32.9428314454858 1.36487127162707  C 32.9428314454858 1.36487127162707  18.4038311703312 0.441337211279915  18.4038311703312 0.441337211279915  C 18.4038311703312 0.441337211279915  16.825734585929 1.94935371242309  16.825734585929 1.94935371242309  C 16.825734585929 1.94935371242309  19.6990253295196 5.2369402409239  19.6990253295196 5.2369402409239  C 19.6990253295196 5.2369402409239  16.2865283382716 7.37090780064068  16.2865283382716 7.37090780064068  C 16.2865283382716 7.37090780064068  10.9200043562746 5.21036985887838  10.9200043562746 5.21036985887838  C 10.9200043562746 5.21036985887838  5.27467627851706 9.73430062673765  5.27467627851706 9.73430062673765  C 5.27467627851706 9.73430062673765  3.29775670467598 14.0177883468239  3.29775670467598 14.0177883468239  C 3.29775670467598 14.0177883468239  3.6621828448101 23.9822146046794  3.6621828448101 23.9822146046794  C 3.6621828448101 23.9822146046794  6.3811947179388 34.5887883324085  6.3811947179388 34.5887883324085  C 6.3811947179388 34.5887883324085  0.0726233749460334 41.6833389182514  0.0726233749460334 41.6833389182514  C 0.0726233749460334 41.6833389182514  0.724729401558307 42.5648432253113  0.724729401558307 42.5648432253113  C 0.724729401558307 42.5648432253113  6.36192707717123 41.0682323750905  6.36192707717123 41.0682323750905  C 6.36192707717123 41.0682323750905  8.31983096030058 43.4726382261846  8.31983096030058 43.4726382261846  C 8.31983096030058 43.4726382261846  6.72809943170569 51.0317843873403  6.72809943170569 51.0317843873403  C 6.72809943170569 51.0317843873403  9.85567403829646 56.4670748617475  9.85567403829646 56.4670748617475  C 9.85567403829646 56.4670748617475  12.9967676397464 57.3561122810954  12.9967676397464 57.3561122810954  C 12.9967676397464 57.3561122810954  16.1537323511088 53.2010894117981  16.1537323511088 53.2010894117981  C 16.1537323511088 53.2010894117981  17.7132055545744 56.4899767544348  17.7132055545744 56.4899767544348  C 17.7132055545744 56.4899767544348  18.6345790622079 56.2394605326939  18.6345790622079 56.2394605326939  C 18.6345790622079 56.2394605326939  23.6260627451481 51.7117917931797  23.6260627451481 51.7117917931797  C 23.6260627451481 51.7117917931797  24.9330035308105 51.9708112407934  24.9330035308105 51.9708112407934  C 24.9330035308105 51.9708112407934  27.1612175671639 50.8403219610871  27.1612175671639 50.8403219610871  C 27.1612175671639 50.8403219610871  31.2195497312148 51.9898379562781  31.2195497312148 51.9898379562781  C 31.2195497312148 51.9898379562781  31.2067996635153 56.2775113250949  31.2067996635153 56.2775113250949  C 31.2067996635153 56.2775113250949  34.7758125627443 56.9198162295394  34.7758125627443 56.9198162295394  C 34.7758125627443 56.9198162295394  33.8454342380669 61.078059911119  33.8454342380669 61.078059911119  C 33.8454342380669 61.078059911119  30.5243105524999 65.6134227155829  30.5243105524999 65.6134227155829  C 30.5243105524999 65.6134227155829  29.2049963165223 69.5154253618919  29.2049963165223 69.5154253618919  C 29.2049963165223 69.5154253618919  30.5126955677504 69.5193832142323  30.5126955677504 69.5193832142323  C 30.5126955677504 69.5193832142323  34.3558667431998 66.5054294037088  34.3558667431998 66.5054294037088  C 34.3558667431998 66.5054294037088  37.2191623055135 72.5679049070973  37.2191623055135 72.5679049070973  C 37.2191623055135 72.5679049070973  39.4502393314274 71.0609851708138  39.4502393314274 71.0609851708138  C 39.4502393314274 71.0609851708138  41.939226906265 71.0685182831018  41.939226906265 71.0685182831018  C 41.939226906265 71.0685182831018  44.4325970171931 69.3090875674978  44.4325970171931 69.3090875674978  C 44.4325970171931 69.3090875674978  44.4434639979709 65.6546705731523  44.4434639979709 65.6546705731523  C 44.4434639979709 65.6546705731523  45.7545449594627 64.5214055196711  45.7545449594627 64.5214055196711  C 45.7545449594627 64.5214055196711  48.8922830046342 64.7798093013653  48.8922830046342 64.7798093013653  C 48.8922830046342 64.7798093013653  54.2571793369632 67.1945266770903  54.2571793369632 67.1945266770903  C 54.2571793369632 67.1945266770903  55.1795589012204 65.4329798297683  55.1795589012204 65.4329798297683  C 55.1795589012204 65.4329798297683  53.8782412223384 63.2829864861636  53.8782412223384 63.2829864861636  C 53.8782412223384 63.2829864861636  54.27243146923 61.7722663321106  54.27243146923 61.7722663321106  C 54.27243146923 61.7722663321106  57.6902935146061 59.0068119976797  57.6902935146061 59.0068119976797  C 57.6902935146061 59.0068119976797  63.7142885773435 60.5378368137622  63.7142885773435 60.5378368137622  C 63.7142885773435 60.5378368137622  67.1264246435983 58.5252433924856  67.1264246435983 58.5252433924856  C 67.1264246435983 58.5252433924856  65.8198657061171 56.3787523084409  65.8198657061171 56.3787523084409  C 65.8198657061171 56.3787523084409  67.1474184473775 51.4653143398716  67.1474184473775 51.4653143398716  C 67.1474184473775 51.4653143398716  66.9072699414833 44.2709062599566  66.9072699414833 44.2709062599566  C 66.9072699414833 44.2709062599566  64.6806940163922 43.3846366986788  64.6806940163922 43.3846366986788  C 64.6806940163922 43.3846366986788  62.7303041731604 38.4533620088954  62.7303041731604 38.4533620088954  C 62.7303041731604 38.4533620088954  62.7439539379448 33.8631328167198  62.7439539379448 33.8631328167198  C 62.7439539379448 33.8631328167198  61.8269525048081 33.2297339595642  61.8269525048081 33.2297339595642  C 61.8269525048081 33.2297339595642  60.2558381626079 33.8556023430001  60.2558381626079 33.8556023430001  C 60.2558381626079 33.8556023430001  59.3417127960245 32.8413754155557  59.3417127960245 32.8413754155557  C 59.3417127960245 32.8413754155557  60.0141910333721 26.2856301364092  60.0141910333721 26.2856301364092  C 60.0141910333721 26.2856301364092  62.7737154293038 24.1479272436058  62.7737154293038 24.1479272436058  C 62.7737154293038 24.1479272436058  64.7496263311225 20.4968190138169  64.7496263311225 20.4968190138169  C 64.7496263311225 20.4968190138169  64.3664530145227 16.8368117729211  64.3664530145227 16.8368117729211  Z " fill-rule="evenodd" />
    </mask>
  </defs>
  <g transform="matrix(1 0 0 1 -1016 -769 )">
    <path d="M 64.3664530145227 16.8368117729211  C 64.3664530145227 16.8368117729211  60.7158989643831 9.90033868907847  60.7158989643831 9.90033868907847  C 60.7158989643831 9.90033868907847  57.8356024400039 9.26187729901801  57.8356024400039 9.26187729901801  C 57.8356024400039 9.26187729901801  56.5287959114646 7.491824587255  56.5287959114646 7.491824587255  C 56.5287959114646 7.491824587255  56.5415485945625 3.20327169569578  56.5415485945625 3.20327169569578  C 56.5415485945625 3.20327169569578  54.9786936808334 1.05160725888072  54.9786936808334 1.05160725888072  C 54.9786936808334 1.05160725888072  51.8312054300447 4.07206426056098  51.8312054300447 4.07206426056098  C 51.8312054300447 4.07206426056098  50.250359190017 6.21157545212259  50.250359190017 6.21157545212259  C 50.250359190017 6.21157545212259  48.1580403880521 6.20524288837783  48.1580403880521 6.20524288837783  C 48.1580403880521 6.20524288837783  47.5139383526566 2.92528270157584  47.5139383526566 2.92528270157584  C 47.5139383526566 2.92528270157584  44.626538405945 3.7960744216341  44.626538405945 3.7960744216341  C 44.626538405945 3.7960744216341  40.8209810199583 6.18127765269514  40.8209810199583 6.18127765269514  C 40.8209810199583 6.18127765269514  38.3347483315433 4.66096014647792  38.3347483315433 4.66096014647792  C 38.3347483315433 4.66096014647792  32.9428314454858 1.36487127162707  32.9428314454858 1.36487127162707  C 32.9428314454858 1.36487127162707  18.4038311703312 0.441337211279915  18.4038311703312 0.441337211279915  C 18.4038311703312 0.441337211279915  16.825734585929 1.94935371242309  16.825734585929 1.94935371242309  C 16.825734585929 1.94935371242309  19.6990253295196 5.2369402409239  19.6990253295196 5.2369402409239  C 19.6990253295196 5.2369402409239  16.2865283382716 7.37090780064068  16.2865283382716 7.37090780064068  C 16.2865283382716 7.37090780064068  10.9200043562746 5.21036985887838  10.9200043562746 5.21036985887838  C 10.9200043562746 5.21036985887838  5.27467627851706 9.73430062673765  5.27467627851706 9.73430062673765  C 5.27467627851706 9.73430062673765  3.29775670467598 14.0177883468239  3.29775670467598 14.0177883468239  C 3.29775670467598 14.0177883468239  3.6621828448101 23.9822146046794  3.6621828448101 23.9822146046794  C 3.6621828448101 23.9822146046794  6.3811947179388 34.5887883324085  6.3811947179388 34.5887883324085  C 6.3811947179388 34.5887883324085  0.0726233749460334 41.6833389182514  0.0726233749460334 41.6833389182514  C 0.0726233749460334 41.6833389182514  0.724729401558307 42.5648432253113  0.724729401558307 42.5648432253113  C 0.724729401558307 42.5648432253113  6.36192707717123 41.0682323750905  6.36192707717123 41.0682323750905  C 6.36192707717123 41.0682323750905  8.31983096030058 43.4726382261846  8.31983096030058 43.4726382261846  C 8.31983096030058 43.4726382261846  6.72809943170569 51.0317843873403  6.72809943170569 51.0317843873403  C 6.72809943170569 51.0317843873403  9.85567403829646 56.4670748617475  9.85567403829646 56.4670748617475  C 9.85567403829646 56.4670748617475  12.9967676397464 57.3561122810954  12.9967676397464 57.3561122810954  C 12.9967676397464 57.3561122810954  16.1537323511088 53.2010894117981  16.1537323511088 53.2010894117981  C 16.1537323511088 53.2010894117981  17.7132055545744 56.4899767544348  17.7132055545744 56.4899767544348  C 17.7132055545744 56.4899767544348  18.6345790622079 56.2394605326939  18.6345790622079 56.2394605326939  C 18.6345790622079 56.2394605326939  23.6260627451481 51.7117917931797  23.6260627451481 51.7117917931797  C 23.6260627451481 51.7117917931797  24.9330035308105 51.9708112407934  24.9330035308105 51.9708112407934  C 24.9330035308105 51.9708112407934  27.1612175671639 50.8403219610871  27.1612175671639 50.8403219610871  C 27.1612175671639 50.8403219610871  31.2195497312148 51.9898379562781  31.2195497312148 51.9898379562781  C 31.2195497312148 51.9898379562781  31.2067996635153 56.2775113250949  31.2067996635153 56.2775113250949  C 31.2067996635153 56.2775113250949  34.7758125627443 56.9198162295394  34.7758125627443 56.9198162295394  C 34.7758125627443 56.9198162295394  33.8454342380669 61.078059911119  33.8454342380669 61.078059911119  C 33.8454342380669 61.078059911119  30.5243105524999 65.6134227155829  30.5243105524999 65.6134227155829  C 30.5243105524999 65.6134227155829  29.2049963165223 69.5154253618919  29.2049963165223 69.5154253618919  C 29.2049963165223 69.5154253618919  30.5126955677504 69.5193832142323  30.5126955677504 69.5193832142323  C 30.5126955677504 69.5193832142323  34.3558667431998 66.5054294037088  34.3558667431998 66.5054294037088  C 34.3558667431998 66.5054294037088  37.2191623055135 72.5679049070973  37.2191623055135 72.5679049070973  C 37.2191623055135 72.5679049070973  39.4502393314274 71.0609851708138  39.4502393314274 71.0609851708138  C 39.4502393314274 71.0609851708138  41.939226906265 71.0685182831018  41.939226906265 71.0685182831018  C 41.939226906265 71.0685182831018  44.4325970171931 69.3090875674978  44.4325970171931 69.3090875674978  C 44.4325970171931 69.3090875674978  44.4434639979709 65.6546705731523  44.4434639979709 65.6546705731523  C 44.4434639979709 65.6546705731523  45.7545449594627 64.5214055196711  45.7545449594627 64.5214055196711  C 45.7545449594627 64.5214055196711  48.8922830046342 64.7798093013653  48.8922830046342 64.7798093013653  C 48.8922830046342 64.7798093013653  54.2571793369632 67.1945266770903  54.2571793369632 67.1945266770903  C 54.2571793369632 67.1945266770903  55.1795589012204 65.4329798297683  55.1795589012204 65.4329798297683  C 55.1795589012204 65.4329798297683  53.8782412223384 63.2829864861636  53.8782412223384 63.2829864861636  C 53.8782412223384 63.2829864861636  54.27243146923 61.7722663321106  54.27243146923 61.7722663321106  C 54.27243146923 61.7722663321106  57.6902935146061 59.0068119976797  57.6902935146061 59.0068119976797  C 57.6902935146061 59.0068119976797  63.7142885773435 60.5378368137622  63.7142885773435 60.5378368137622  C 63.7142885773435 60.5378368137622  67.1264246435983 58.5252433924856  67.1264246435983 58.5252433924856  C 67.1264246435983 58.5252433924856  65.8198657061171 56.3787523084409  65.8198657061171 56.3787523084409  C 65.8198657061171 56.3787523084409  67.1474184473775 51.4653143398716  67.1474184473775 51.4653143398716  C 67.1474184473775 51.4653143398716  66.9072699414833 44.2709062599566  66.9072699414833 44.2709062599566  C 66.9072699414833 44.2709062599566  64.6806940163922 43.3846366986788  64.6806940163922 43.3846366986788  C 64.6806940163922 43.3846366986788  62.7303041731604 38.4533620088954  62.7303041731604 38.4533620088954  C 62.7303041731604 38.4533620088954  62.7439539379448 33.8631328167198  62.7439539379448 33.8631328167198  C 62.7439539379448 33.8631328167198  61.8269525048081 33.2297339595642  61.8269525048081 33.2297339595642  C 61.8269525048081 33.2297339595642  60.2558381626079 33.8556023430001  60.2558381626079 33.8556023430001  C 60.2558381626079 33.8556023430001  59.3417127960245 32.8413754155557  59.3417127960245 32.8413754155557  C 59.3417127960245 32.8413754155557  60.0141910333721 26.2856301364092  60.0141910333721 26.2856301364092  C 60.0141910333721 26.2856301364092  62.7737154293038 24.1479272436058  62.7737154293038 24.1479272436058  C 62.7737154293038 24.1479272436058  64.7496263311225 20.4968190138169  64.7496263311225 20.4968190138169  C 64.7496263311225 20.4968190138169  64.3664530145227 16.8368117729211  64.3664530145227 16.8368117729211  Z " fill-rule="nonzero" fill="#031e4b" stroke="none" transform="matrix(1 0 0 1 1016 769 )" />
    <path d="M 64.3664530145227 16.8368117729211  C 64.3664530145227 16.8368117729211  60.7158989643831 9.90033868907847  60.7158989643831 9.90033868907847  C 60.7158989643831 9.90033868907847  57.8356024400039 9.26187729901801  57.8356024400039 9.26187729901801  C 57.8356024400039 9.26187729901801  56.5287959114646 7.491824587255  56.5287959114646 7.491824587255  C 56.5287959114646 7.491824587255  56.5415485945625 3.20327169569578  56.5415485945625 3.20327169569578  C 56.5415485945625 3.20327169569578  54.9786936808334 1.05160725888072  54.9786936808334 1.05160725888072  C 54.9786936808334 1.05160725888072  51.8312054300447 4.07206426056098  51.8312054300447 4.07206426056098  C 51.8312054300447 4.07206426056098  50.250359190017 6.21157545212259  50.250359190017 6.21157545212259  C 50.250359190017 6.21157545212259  48.1580403880521 6.20524288837783  48.1580403880521 6.20524288837783  C 48.1580403880521 6.20524288837783  47.5139383526566 2.92528270157584  47.5139383526566 2.92528270157584  C 47.5139383526566 2.92528270157584  44.626538405945 3.7960744216341  44.626538405945 3.7960744216341  C 44.626538405945 3.7960744216341  40.8209810199583 6.18127765269514  40.8209810199583 6.18127765269514  C 40.8209810199583 6.18127765269514  38.3347483315433 4.66096014647792  38.3347483315433 4.66096014647792  C 38.3347483315433 4.66096014647792  32.9428314454858 1.36487127162707  32.9428314454858 1.36487127162707  C 32.9428314454858 1.36487127162707  18.4038311703312 0.441337211279915  18.4038311703312 0.441337211279915  C 18.4038311703312 0.441337211279915  16.825734585929 1.94935371242309  16.825734585929 1.94935371242309  C 16.825734585929 1.94935371242309  19.6990253295196 5.2369402409239  19.6990253295196 5.2369402409239  C 19.6990253295196 5.2369402409239  16.2865283382716 7.37090780064068  16.2865283382716 7.37090780064068  C 16.2865283382716 7.37090780064068  10.9200043562746 5.21036985887838  10.9200043562746 5.21036985887838  C 10.9200043562746 5.21036985887838  5.27467627851706 9.73430062673765  5.27467627851706 9.73430062673765  C 5.27467627851706 9.73430062673765  3.29775670467598 14.0177883468239  3.29775670467598 14.0177883468239  C 3.29775670467598 14.0177883468239  3.6621828448101 23.9822146046794  3.6621828448101 23.9822146046794  C 3.6621828448101 23.9822146046794  6.3811947179388 34.5887883324085  6.3811947179388 34.5887883324085  C 6.3811947179388 34.5887883324085  0.0726233749460334 41.6833389182514  0.0726233749460334 41.6833389182514  C 0.0726233749460334 41.6833389182514  0.724729401558307 42.5648432253113  0.724729401558307 42.5648432253113  C 0.724729401558307 42.5648432253113  6.36192707717123 41.0682323750905  6.36192707717123 41.0682323750905  C 6.36192707717123 41.0682323750905  8.31983096030058 43.4726382261846  8.31983096030058 43.4726382261846  C 8.31983096030058 43.4726382261846  6.72809943170569 51.0317843873403  6.72809943170569 51.0317843873403  C 6.72809943170569 51.0317843873403  9.85567403829646 56.4670748617475  9.85567403829646 56.4670748617475  C 9.85567403829646 56.4670748617475  12.9967676397464 57.3561122810954  12.9967676397464 57.3561122810954  C 12.9967676397464 57.3561122810954  16.1537323511088 53.2010894117981  16.1537323511088 53.2010894117981  C 16.1537323511088 53.2010894117981  17.7132055545744 56.4899767544348  17.7132055545744 56.4899767544348  C 17.7132055545744 56.4899767544348  18.6345790622079 56.2394605326939  18.6345790622079 56.2394605326939  C 18.6345790622079 56.2394605326939  23.6260627451481 51.7117917931797  23.6260627451481 51.7117917931797  C 23.6260627451481 51.7117917931797  24.9330035308105 51.9708112407934  24.9330035308105 51.9708112407934  C 24.9330035308105 51.9708112407934  27.1612175671639 50.8403219610871  27.1612175671639 50.8403219610871  C 27.1612175671639 50.8403219610871  31.2195497312148 51.9898379562781  31.2195497312148 51.9898379562781  C 31.2195497312148 51.9898379562781  31.2067996635153 56.2775113250949  31.2067996635153 56.2775113250949  C 31.2067996635153 56.2775113250949  34.7758125627443 56.9198162295394  34.7758125627443 56.9198162295394  C 34.7758125627443 56.9198162295394  33.8454342380669 61.078059911119  33.8454342380669 61.078059911119  C 33.8454342380669 61.078059911119  30.5243105524999 65.6134227155829  30.5243105524999 65.6134227155829  C 30.5243105524999 65.6134227155829  29.2049963165223 69.5154253618919  29.2049963165223 69.5154253618919  C 29.2049963165223 69.5154253618919  30.5126955677504 69.5193832142323  30.5126955677504 69.5193832142323  C 30.5126955677504 69.5193832142323  34.3558667431998 66.5054294037088  34.3558667431998 66.5054294037088  C 34.3558667431998 66.5054294037088  37.2191623055135 72.5679049070973  37.2191623055135 72.5679049070973  C 37.2191623055135 72.5679049070973  39.4502393314274 71.0609851708138  39.4502393314274 71.0609851708138  C 39.4502393314274 71.0609851708138  41.939226906265 71.0685182831018  41.939226906265 71.0685182831018  C 41.939226906265 71.0685182831018  44.4325970171931 69.3090875674978  44.4325970171931 69.3090875674978  C 44.4325970171931 69.3090875674978  44.4434639979709 65.6546705731523  44.4434639979709 65.6546705731523  C 44.4434639979709 65.6546705731523  45.7545449594627 64.5214055196711  45.7545449594627 64.5214055196711  C 45.7545449594627 64.5214055196711  48.8922830046342 64.7798093013653  48.8922830046342 64.7798093013653  C 48.8922830046342 64.7798093013653  54.2571793369632 67.1945266770903  54.2571793369632 67.1945266770903  C 54.2571793369632 67.1945266770903  55.1795589012204 65.4329798297683  55.1795589012204 65.4329798297683  C 55.1795589012204 65.4329798297683  53.8782412223384 63.2829864861636  53.8782412223384 63.2829864861636  C 53.8782412223384 63.2829864861636  54.27243146923 61.7722663321106  54.27243146923 61.7722663321106  C 54.27243146923 61.7722663321106  57.6902935146061 59.0068119976797  57.6902935146061 59.0068119976797  C 57.6902935146061 59.0068119976797  63.7142885773435 60.5378368137622  63.7142885773435 60.5378368137622  C 63.7142885773435 60.5378368137622  67.1264246435983 58.5252433924856  67.1264246435983 58.5252433924856  C 67.1264246435983 58.5252433924856  65.8198657061171 56.3787523084409  65.8198657061171 56.3787523084409  C 65.8198657061171 56.3787523084409  67.1474184473775 51.4653143398716  67.1474184473775 51.4653143398716  C 67.1474184473775 51.4653143398716  66.9072699414833 44.2709062599566  66.9072699414833 44.2709062599566  C 66.9072699414833 44.2709062599566  64.6806940163922 43.3846366986788  64.6806940163922 43.3846366986788  C 64.6806940163922 43.3846366986788  62.7303041731604 38.4533620088954  62.7303041731604 38.4533620088954  C 62.7303041731604 38.4533620088954  62.7439539379448 33.8631328167198  62.7439539379448 33.8631328167198  C 62.7439539379448 33.8631328167198  61.8269525048081 33.2297339595642  61.8269525048081 33.2297339595642  C 61.8269525048081 33.2297339595642  60.2558381626079 33.8556023430001  60.2558381626079 33.8556023430001  C 60.2558381626079 33.8556023430001  59.3417127960245 32.8413754155557  59.3417127960245 32.8413754155557  C 59.3417127960245 32.8413754155557  60.0141910333721 26.2856301364092  60.0141910333721 26.2856301364092  C 60.0141910333721 26.2856301364092  62.7737154293038 24.1479272436058  62.7737154293038 24.1479272436058  C 62.7737154293038 24.1479272436058  64.7496263311225 20.4968190138169  64.7496263311225 20.4968190138169  C 64.7496263311225 20.4968190138169  64.3664530145227 16.8368117729211  64.3664530145227 16.8368117729211  Z " stroke-width="0.97600957434184" stroke="#47b3fe" fill="none" transform="matrix(1 0 0 1 1016 769 )" mask="url(#clip1777)" />
  </g>
</svg>