<?xml version="1.0" encoding="utf-8"?>
<svg version="1.1" xmlns:xlink="http://www.w3.org/1999/xlink" width="168px" height="137px" xmlns="http://www.w3.org/2000/svg">
  <g transform="matrix(1 0 0 1 -841 -603 )">
    <path d="M 16.8780028227367 46.3122187185543  L 2.21106052631865 42.9978040301485  L 0.680409676455952 25.4859495083886  L 1.61846772535796 21.8362518858735  L 7.04214783255986 19.4593542523576  L 14.7259061181875 13.435840634484  L 26.5048647032152 8.93864070426423  L 31.2672238120672 6.81005425459944  L 31.2800930322319 2.5270251025953  L 33.4026796324461 0.142874334413364  L 35.3871554260302 0.39823227362956  L 43.3128323574381 1.68309271769226  L 42.9045426921462 4.95586533242545  L 44.4775614318925 10.1236188359271  L 43.5260017406198 18.5595624554712  L 50.237885420825 28.0257761352193  L 53.6688682457628 30.1789041575011  L 59.100111031864 27  L 70.4687577837947 27  L 73.3753983900594 27.2142277363693  L 74.9514569784075 29.6138481700243  L 73.6179758456207 32.2541674650598  L 67.2605239112282 37.146996515196  L 67.9165489233427 39.5394700775697  L 75.1699276253396 44.72599443715  L 78.0769587677095 44.7347018872304  L 78.9980021084668 45.8694833036441  L 78.3309945877764 48.0103365876732  L 82.817217403193 51.4251113346052  L 93.2516059169735 52.9660217471996  L 98.2787018870053 51.7225934846692  L 104.643966302671 45.6933741377819  L 112.3067798907 46.3477651380654  L 115.459659668304 50.8932033756998  L 113.60004548011 55.0424811764941  L 114.120226378258 57.5636458452605  L 110.013286246889 59.9444875189489  L 108.159722729566 62.0800302683704  L 108.805153130452 67.1202984475229  L 116.057514151653 72.0600405864986  L 119.252484749606 71.3793313951905  L 127.797485095112 81.4166080173877  L 129.621922007518 88.9747449439601  L 128.684746183196 92.6235669913133  L 134.623420270952 95.6650586664676  L 134.616234934371 98.0564239280849  L 140.034212686687 99.3337730438029  L 141.617467166647 99.3385153766758  L 141.630336386811 95.0554862246717  L 145.730221360301 94.4372063327951  L 146.800852343496 89.4055911547159  L 143.897621011878 87.2540439100585  L 141.658469059749 85.1071204399519  L 142.613818006743 75.41006756015  L 144.861925022129 74.2839005035787  L 148.691498319497 75.8067839037878  L 150.281924942251 75.180987414308  L 151.202830188034 76.9472069399006  L 161.360486928777 81.8877473715767  L 166.773283041015 85.1823470124619  L 167.688647775705 88.2070358996799  L 164.769884717638 92.1028491815681  L 166.33951265404 96.6426668765383  L 165.405118959673 98.7800846038642  L 157.871330936317 99.3880789026654  L 156.285437698891 100.261546361058  L 156.809399936489 101.524236398941  L 156.803349265618 103.537971450314  L 150.85458017138 104.148956931664  L 147.685581103998 102.626295718532  L 143.589349930015 102.614026249538  L 142.926126387531 103.495526692892  L 143.5802620493 105.638580770658  L 141.589483143714 107.773712517897  L 140.921723577145 110.164855592437  L 144.744119454204 113.198251929736  L 141.952747690353 118.607615876381  L 143.143289969931 121.384593397036  L 142.875632883822 122.642277639108  L 138.377430989093 122.62880414449  L 135.206375450059 124.132474949095  L 137.70512484341 127.411320384535  L 136.108995865771 131.691363623249  L 131.348786464668 132.811762597911  L 131.736415538582 134.951383753603  L 130.412495503683 136.458830860311  L 122.219286387352 135.804607598098  L 119.053050978624 133.654907228632  L 118.405104082701 128.866679990314  L 116.563277758589 127.095945588184  L 113.647424370423 128.852429280031  L 108.641124447985 124.052903872748  L 104.812829188816 121.519195733533  L 104.432008109166 117.992011011529  L 103.248491961135 115.218567407075  L 101.262387174608 115.212618413949  L 93.3213245279985 118.462828062725  L 93.7052813311051 122.11736374298  L 90.8026481178463 122.108669466046  L 86.0568357774814 117.559338124407  L 81.034530911423 116.915490910878  L 79.0590075423372 114.266138349929  L 80.6566300567023 111.245463759667  L 83.5513179712292 113.898447718102  L 86.9883488282804 114.916936593957  L 89.9018132613538 112.784568572931  L 89.9173317940149 107.619816790496  L 93.0983231344962 104.858568007203  L 95.6184983588895 102.47033883275  L 94.439249961268 99.4474941860937  L 100.794565381698 94.6802438668499  L 101.741721866345 87.1242611888956  L 98.8455404150922 83.2119085820086  L 97.2771957944049 76.7812920332958  L 89.3793832622584 66.8083073934977  L 85.2768489762727 68.308309915805  L 79.6082262072338 63.5050442130215  L 71.9527413282749 58.9478757272051  L 68.8081815529633 51.6334420177091  L 62.8531093467235 53.7566994903606  L 51.7701520698433 47.0490481501538  L 46.3409446453347 49.8018064011846  L 38.0194461776646 48.5183950032775  L 31.6640216885922 52.1509877336882  L 27.5643917949915 52.3916347806909  L 21.2317907988337 48.7210375215632  L 16.8780028227367 46.3122187185543  Z " fill-rule="nonzero" fill="#031e4b" stroke="none" transform="matrix(1 0 0 1 841 603 )" />
  </g>
</svg>