<?xml version="1.0" encoding="utf-8"?>
<svg version="1.1" xmlns:xlink="http://www.w3.org/1999/xlink" width="32px" height="28px" xmlns="http://www.w3.org/2000/svg">
  <defs>
    <mask fill="white" id="clip1790">
      <path d="M 26.8951022630799 0.00036407936681826  C 26.8951022630799 0.00036407936681826  25.2844110440706 1.75088262415557  25.2844110440706 1.75088262415557  C 25.2844110440706 1.75088262415557  20.4752388419763 2.11293592156244  20.4752388419763 2.11293592156244  C 20.4752388419763 2.11293592156244  9.48493426415439 3.83838033321422  9.48493426415439 3.83838033321422  C 9.48493426415439 3.83838033321422  7.20935329253462 5.58606036293111  7.20935329253462 5.58606036293111  C 7.20935329253462 5.58606036293111  0.777625808435914 11.5915278753693  0.777625808435914 11.5915278753693  C 0.777625808435914 11.5915278753693  0.0985608694481925 15.6565807097206  0.0985608694481925 15.6565807097206  C 0.0985608694481925 15.6565807097206  2.34647413860421 23.5707072316313  2.34647413860421 23.5707072316313  C 2.34647413860421 23.5707072316313  14.2235807584425 27.4925874307741  14.2235807584425 27.4925874307741  C 14.2235807584425 27.4925874307741  26.1695312993795 18.7418645917589  26.1695312993795 18.7418645917589  C 26.1695312993795 18.7418645917589  26.1821420330059 14.6039676206245  26.1821420330059 14.6039676206245  C 26.1821420330059 14.6039676206245  31.9561593581716 4.78150321594626  31.9561593581716 4.78150321594626  C 31.9561593581716 4.78150321594626  30.3680095921848 0.885632529907184  30.3680095921848 0.885632529907184  C 30.3680095921848 0.885632529907184  26.8951022630799 0.00036407936681826  26.8951022630799 0.00036407936681826  Z " fill-rule="evenodd" />
    </mask>
  </defs>
  <g transform="matrix(1 0 0 1 -1020 -903 )">
    <path d="M 26.8951022630799 0.00036407936681826  C 26.8951022630799 0.00036407936681826  25.2844110440706 1.75088262415557  25.2844110440706 1.75088262415557  C 25.2844110440706 1.75088262415557  20.4752388419763 2.11293592156244  20.4752388419763 2.11293592156244  C 20.4752388419763 2.11293592156244  9.48493426415439 3.83838033321422  9.48493426415439 3.83838033321422  C 9.48493426415439 3.83838033321422  7.20935329253462 5.58606036293111  7.20935329253462 5.58606036293111  C 7.20935329253462 5.58606036293111  0.777625808435914 11.5915278753693  0.777625808435914 11.5915278753693  C 0.777625808435914 11.5915278753693  0.0985608694481925 15.6565807097206  0.0985608694481925 15.6565807097206  C 0.0985608694481925 15.6565807097206  2.34647413860421 23.5707072316313  2.34647413860421 23.5707072316313  C 2.34647413860421 23.5707072316313  14.2235807584425 27.4925874307741  14.2235807584425 27.4925874307741  C 14.2235807584425 27.4925874307741  26.1695312993795 18.7418645917589  26.1695312993795 18.7418645917589  C 26.1695312993795 18.7418645917589  26.1821420330059 14.6039676206245  26.1821420330059 14.6039676206245  C 26.1821420330059 14.6039676206245  31.9561593581716 4.78150321594626  31.9561593581716 4.78150321594626  C 31.9561593581716 4.78150321594626  30.3680095921848 0.885632529907184  30.3680095921848 0.885632529907184  C 30.3680095921848 0.885632529907184  26.8951022630799 0.00036407936681826  26.8951022630799 0.00036407936681826  Z " fill-rule="nonzero" fill="#031e4b" stroke="none" transform="matrix(1 0 0 1 1020 903 )" />
    <path d="M 26.8951022630799 0.00036407936681826  C 26.8951022630799 0.00036407936681826  25.2844110440706 1.75088262415557  25.2844110440706 1.75088262415557  C 25.2844110440706 1.75088262415557  20.4752388419763 2.11293592156244  20.4752388419763 2.11293592156244  C 20.4752388419763 2.11293592156244  9.48493426415439 3.83838033321422  9.48493426415439 3.83838033321422  C 9.48493426415439 3.83838033321422  7.20935329253462 5.58606036293111  7.20935329253462 5.58606036293111  C 7.20935329253462 5.58606036293111  0.777625808435914 11.5915278753693  0.777625808435914 11.5915278753693  C 0.777625808435914 11.5915278753693  0.0985608694481925 15.6565807097206  0.0985608694481925 15.6565807097206  C 0.0985608694481925 15.6565807097206  2.34647413860421 23.5707072316313  2.34647413860421 23.5707072316313  C 2.34647413860421 23.5707072316313  14.2235807584425 27.4925874307741  14.2235807584425 27.4925874307741  C 14.2235807584425 27.4925874307741  26.1695312993795 18.7418645917589  26.1695312993795 18.7418645917589  C 26.1695312993795 18.7418645917589  26.1821420330059 14.6039676206245  26.1821420330059 14.6039676206245  C 26.1821420330059 14.6039676206245  31.9561593581716 4.78150321594626  31.9561593581716 4.78150321594626  C 31.9561593581716 4.78150321594626  30.3680095921848 0.885632529907184  30.3680095921848 0.885632529907184  C 30.3680095921848 0.885632529907184  26.8951022630799 0.00036407936681826  26.8951022630799 0.00036407936681826  Z " stroke-width="0.97600957434184" stroke="#47b3fe" fill="none" transform="matrix(1 0 0 1 1020 903 )" mask="url(#clip1790)" />
  </g>
</svg>