<?xml version="1.0" encoding="utf-8"?>
<svg version="1.1" xmlns:xlink="http://www.w3.org/1999/xlink" width="61px" height="106px" xmlns="http://www.w3.org/2000/svg">
  <defs>
    <mask fill="white" id="clip1797">
      <path d="M 52.4759393229397 68.4402306252281  C 52.4759393229397 68.4402306252281  52.484787855637 66.9352109810809  52.484787855637 66.9352109810809  C 52.484787855637 66.9352109810809  50.9227290329482 63.285274328159  50.9227290329482 63.285274328159  C 50.9227290329482 63.285274328159  53.6989670597493 53.9988033004549  53.6989670597493 53.9988033004549  C 53.6989670597493 53.9988033004549  49.6943524391659 35.716795120407  49.6943524391659 35.716795120407  C 49.6943524391659 35.716795120407  52.5914225218389 31.2025088532248  52.5914225218389 31.2025088532248  C 52.5914225218389 31.2025088532248  53.7793567723115 27.0606437370536  53.7793567723115 27.0606437370536  C 53.7793567723115 27.0606437370536  50.1358570977241 19.7618321889136  50.1358570977241 19.7618321889136  C 50.1358570977241 19.7618321889136  53.5567953477123 14.6192490484517  53.5567953477123 14.6192490484517  C 53.5567953477123 14.6192490484517  54.2254922268867 9.84594120758652  54.2254922268867 9.84594120758652  C 54.2254922268867 9.84594120758652  56.0663722014706 6.20889544955821  56.0663722014706 6.20889544955821  C 56.0663722014706 6.20889544955821  55.8176843381468 1.93829922010696  55.8176843381468 1.93829922010696  C 55.8176843381468 1.93829922010696  54.2524874845101 0.799975820539998  54.2524874845101 0.799975820539998  C 54.2524874845101 0.799975820539998  51.7566635894907 3.43372625133657  51.7566635894907 3.43372625133657  C 51.7566635894907 3.43372625133657  45.0768832502017 3.78765249422736  45.0768832502017 3.78765249422736  C 45.0768832502017 3.78765249422736  41.6588094011372 8.55442071359198  41.6588094011372 8.55442071359198  C 41.6588094011372 8.55442071359198  41.9119938597651 11.3182320829114  41.9119938597651 11.3182320829114  C 41.9119938597651 11.3182320829114  41.2522953997986 13.0762181280944  41.2522953997986 13.0762181280944  C 41.2522953997986 13.0762181280944  38.5003093589119 13.943964140554  38.5003093589119 13.943964140554  C 38.5003093589119 13.943964140554  27.6852822054175 28.1094185619679  27.6852822054175 28.1094185619679  C 27.6852822054175 28.1094185619679  26.3755390224576 27.222414612543  26.3755390224576 27.222414612543  C 26.3755390224576 27.222414612543  23.501681305893 26.5864988393048  23.501681305893 26.5864988393048  C 23.501681305893 26.5864988393048  17.6087868447594 26.948930532316  17.6087868447594 26.948930532316  C 17.6087868447594 26.948930532316  15.6332164121477 29.5816218335219  15.6332164121477 29.5816218335219  C 15.6332164121477 29.5816218335219  15.3545320752651 35.3626822814842  15.3545320752651 35.3626822814842  C 15.3545320752651 35.3626822814842  16.2677783815034 37.1227839577354  16.2677783815034 37.1227839577354  C 16.2677783815034 37.1227839577354  26.3312841589045 42.051980956909  26.3312841589045 42.051980956909  C 26.3312841589045 42.051980956909  32.1191805053832 45.3362104118244  32.1191805053832 45.3362104118244  C 32.1191805053832 45.3362104118244  33.0260583778067 48.3542943544043  33.0260583778067 48.3542943544043  C 33.0260583778067 48.3542943544043  29.7090864655665 52.2400656149173  29.7090864655665 52.2400656149173  C 29.7090864655665 52.2400656149173  31.6881574453366 57.1948157580359  31.6881574453366 57.1948157580359  C 31.6881574453366 57.1948157580359  30.3371597433261 59.3274165526543  30.3371597433261 59.3274165526543  C 30.3371597433261 59.3274165526543  22.8731975830972 59.9347831329816  22.8731975830972 59.9347831329816  C 22.8731975830972 59.9347831329816  21.3019878403904 60.8113464649859  21.3019878403904 60.8113464649859  C 21.3019878403904 60.8113464649859  21.8211066967738 62.0665332949841  21.8211066967738 62.0665332949841  C 21.8211066967738 62.0665332949841  21.8150938077042 64.0814200265556  21.8150938077042 64.0814200265556  C 21.8150938077042 64.0814200265556  15.9214568854852 64.6926464290303  15.9214568854852 64.6926464290303  C 15.9214568854852 64.6926464290303  12.7818277291738 63.1746272613135  12.7818277291738 63.1746272613135  C 12.7818277291738 63.1746272613135  8.72269189052577 63.1623855103627  8.72269189052577 63.1623855103627  C 8.72269189052577 63.1623855103627  8.06563125885123 64.0364495067823  8.06563125885123 64.0364495067823  C 8.06563125885123 64.0364495067823  8.71370131421668 66.1750791929168  8.71370131421668 66.1750791929168  C 8.71370131421668 66.1750791929168  6.74225101776756 68.3031806578598  6.74225101776756 68.3031806578598  C 6.74225101776756 68.3031806578598  6.08155476678871 70.6875362933617  6.08155476678871 70.6875362933617  C 6.08155476678871 70.6875362933617  9.86938033627985 73.7178129287809  9.86938033627985 73.7178129287809  C 9.86938033627985 73.7178129287809  7.10301739048418 79.1111671197787  7.10301739048418 79.1111671197787  C 7.10301739048418 79.1111671197787  8.27644053533527 81.8760017011427  8.27644053533527 81.8760017011427  C 8.27644053533527 81.8760017011427  8.011256441564 83.1332034178723  8.011256441564 83.1332034178723  C 8.011256441564 83.1332034178723  3.55736136399219 83.1197711316745  3.55736136399219 83.1197711316745  C 3.55736136399219 83.1197711316745  0.410476654869626 84.6170790158661  0.410476654869626 84.6170790158661  C 0.410476654869626 84.6170790158661  2.88867232771645 87.8904508594115  2.88867232771645 87.8904508594115  C 2.88867232771645 87.8904508594115  1.30734524557533 92.1572801267123  1.30734524557533 92.1572801267123  C 1.30734524557533 92.1572801267123  3.9271156987179 92.6680311361854  3.9271156987179 92.6680311361854  C 3.9271156987179 92.6680311361854  4.18030277164553 95.4309664677954  4.18030277164553 95.4309664677954  C 4.18030277164553 95.4309664677954  6.40258117135386 95.6882175692676  6.40258117135386 95.6882175692676  C 6.40258117135386 95.6882175692676  14.5279611292499 94.2068001330864  14.5279611292499 94.2068001330864  C 14.5279611292499 94.2068001330864  16.1007716947422 94.8379160957149  16.1007716947422 94.8379160957149  C 16.1007716947422 94.8379160957149  16.4865377430576 96.9766307575071  16.4865377430576 96.9766307575071  C 16.4865377430576 96.9766307575071  19.8877284453342 97.8673140653113  19.8877284453342 97.8673140653113  C 19.8877284453342 97.8673140653113  27.0791298297665 101.281050802917  27.0791298297665 101.281050802917  C 27.0791298297665 101.281050802917  31.5689035549874 99.7842886902187  31.5689035549874 99.7842886902187  C 31.5689035549874 99.7842886902187  40.462461463133 102.828211365037  40.462461463133 102.828211365037  C 40.462461463133 102.828211365037  42.2914550888893 105.218323444327  42.2914550888893 105.218323444327  C 42.2914550888893 105.218323444327  46.7453501664611 104.355710136807  46.7453501664611 104.355710136807  C 46.7453501664611 104.355710136807  46.1044014631937 99.8307537303241  46.1044014631937 99.8307537303241  C 46.1044014631937 99.8307537303241  45.1922740771824 98.5717535081772  45.1922740771824 98.5717535081772  C 45.1922740771824 98.5717535081772  46.1190232408314 94.9310748217679  46.1190232408314 94.9310748217679  C 46.1190232408314 94.9310748217679  50.8389738453732 92.8112624256311  50.8389738453732 92.8112624256311  C 50.8389738453732 92.8112624256311  52.0250153429388 91.0557397984869  52.0250153429388 91.0557397984869  C 52.0250153429388 91.0557397984869  49.5370918612971 90.1660586778221  49.5370918612971 90.1660586778221  C 49.5370918612971 90.1660586778221  46.7895893442167 89.531400018697  46.7895893442167 89.531400018697  C 46.7895893442167 89.531400018697  43.9168740765756 86.7605645790236  43.9168740765756 86.7605645790236  C 43.9168740765756 86.7605645790236  45.2274015494143 85.6326660281983  45.2274015494143 85.6326660281983  C 45.2274015494143 85.6326660281983  56.7512341664774 85.6674201962048  56.7512341664774 85.6674201962048  C 56.7512341664774 85.6674201962048  58.0557696646431 86.5474000752758  58.0557696646431 86.5474000752758  C 58.0557696646431 86.5474000752758  60.9378702678323 84.4211689508423  60.9378702678323 84.4211689508423  C 60.9378702678323 84.4211689508423  60.948730068352 80.7821083060824  60.948730068352 80.7821083060824  C 60.948730068352 80.7821083060824  52.4759393229397 68.4402306252281  52.4759393229397 68.4402306252281  Z " fill-rule="evenodd" />
    </mask>
  </defs>
  <g transform="matrix(1 0 0 1 -975 -642 )">
    <path d="M 52.4759393229397 68.4402306252281  C 52.4759393229397 68.4402306252281  52.484787855637 66.9352109810809  52.484787855637 66.9352109810809  C 52.484787855637 66.9352109810809  50.9227290329482 63.285274328159  50.9227290329482 63.285274328159  C 50.9227290329482 63.285274328159  53.6989670597493 53.9988033004549  53.6989670597493 53.9988033004549  C 53.6989670597493 53.9988033004549  49.6943524391659 35.716795120407  49.6943524391659 35.716795120407  C 49.6943524391659 35.716795120407  52.5914225218389 31.2025088532248  52.5914225218389 31.2025088532248  C 52.5914225218389 31.2025088532248  53.7793567723115 27.0606437370536  53.7793567723115 27.0606437370536  C 53.7793567723115 27.0606437370536  50.1358570977241 19.7618321889136  50.1358570977241 19.7618321889136  C 50.1358570977241 19.7618321889136  53.5567953477123 14.6192490484517  53.5567953477123 14.6192490484517  C 53.5567953477123 14.6192490484517  54.2254922268867 9.84594120758652  54.2254922268867 9.84594120758652  C 54.2254922268867 9.84594120758652  56.0663722014706 6.20889544955821  56.0663722014706 6.20889544955821  C 56.0663722014706 6.20889544955821  55.8176843381468 1.93829922010696  55.8176843381468 1.93829922010696  C 55.8176843381468 1.93829922010696  54.2524874845101 0.799975820539998  54.2524874845101 0.799975820539998  C 54.2524874845101 0.799975820539998  51.7566635894907 3.43372625133657  51.7566635894907 3.43372625133657  C 51.7566635894907 3.43372625133657  45.0768832502017 3.78765249422736  45.0768832502017 3.78765249422736  C 45.0768832502017 3.78765249422736  41.6588094011372 8.55442071359198  41.6588094011372 8.55442071359198  C 41.6588094011372 8.55442071359198  41.9119938597651 11.3182320829114  41.9119938597651 11.3182320829114  C 41.9119938597651 11.3182320829114  41.2522953997986 13.0762181280944  41.2522953997986 13.0762181280944  C 41.2522953997986 13.0762181280944  38.5003093589119 13.943964140554  38.5003093589119 13.943964140554  C 38.5003093589119 13.943964140554  27.6852822054175 28.1094185619679  27.6852822054175 28.1094185619679  C 27.6852822054175 28.1094185619679  26.3755390224576 27.222414612543  26.3755390224576 27.222414612543  C 26.3755390224576 27.222414612543  23.501681305893 26.5864988393048  23.501681305893 26.5864988393048  C 23.501681305893 26.5864988393048  17.6087868447594 26.948930532316  17.6087868447594 26.948930532316  C 17.6087868447594 26.948930532316  15.6332164121477 29.5816218335219  15.6332164121477 29.5816218335219  C 15.6332164121477 29.5816218335219  15.3545320752651 35.3626822814842  15.3545320752651 35.3626822814842  C 15.3545320752651 35.3626822814842  16.2677783815034 37.1227839577354  16.2677783815034 37.1227839577354  C 16.2677783815034 37.1227839577354  26.3312841589045 42.051980956909  26.3312841589045 42.051980956909  C 26.3312841589045 42.051980956909  32.1191805053832 45.3362104118244  32.1191805053832 45.3362104118244  C 32.1191805053832 45.3362104118244  33.0260583778067 48.3542943544043  33.0260583778067 48.3542943544043  C 33.0260583778067 48.3542943544043  29.7090864655665 52.2400656149173  29.7090864655665 52.2400656149173  C 29.7090864655665 52.2400656149173  31.6881574453366 57.1948157580359  31.6881574453366 57.1948157580359  C 31.6881574453366 57.1948157580359  30.3371597433261 59.3274165526543  30.3371597433261 59.3274165526543  C 30.3371597433261 59.3274165526543  22.8731975830972 59.9347831329816  22.8731975830972 59.9347831329816  C 22.8731975830972 59.9347831329816  21.3019878403904 60.8113464649859  21.3019878403904 60.8113464649859  C 21.3019878403904 60.8113464649859  21.8211066967738 62.0665332949841  21.8211066967738 62.0665332949841  C 21.8211066967738 62.0665332949841  21.8150938077042 64.0814200265556  21.8150938077042 64.0814200265556  C 21.8150938077042 64.0814200265556  15.9214568854852 64.6926464290303  15.9214568854852 64.6926464290303  C 15.9214568854852 64.6926464290303  12.7818277291738 63.1746272613135  12.7818277291738 63.1746272613135  C 12.7818277291738 63.1746272613135  8.72269189052577 63.1623855103627  8.72269189052577 63.1623855103627  C 8.72269189052577 63.1623855103627  8.06563125885123 64.0364495067823  8.06563125885123 64.0364495067823  C 8.06563125885123 64.0364495067823  8.71370131421668 66.1750791929168  8.71370131421668 66.1750791929168  C 8.71370131421668 66.1750791929168  6.74225101776756 68.3031806578598  6.74225101776756 68.3031806578598  C 6.74225101776756 68.3031806578598  6.08155476678871 70.6875362933617  6.08155476678871 70.6875362933617  C 6.08155476678871 70.6875362933617  9.86938033627985 73.7178129287809  9.86938033627985 73.7178129287809  C 9.86938033627985 73.7178129287809  7.10301739048418 79.1111671197787  7.10301739048418 79.1111671197787  C 7.10301739048418 79.1111671197787  8.27644053533527 81.8760017011427  8.27644053533527 81.8760017011427  C 8.27644053533527 81.8760017011427  8.011256441564 83.1332034178723  8.011256441564 83.1332034178723  C 8.011256441564 83.1332034178723  3.55736136399219 83.1197711316745  3.55736136399219 83.1197711316745  C 3.55736136399219 83.1197711316745  0.410476654869626 84.6170790158661  0.410476654869626 84.6170790158661  C 0.410476654869626 84.6170790158661  2.88867232771645 87.8904508594115  2.88867232771645 87.8904508594115  C 2.88867232771645 87.8904508594115  1.30734524557533 92.1572801267123  1.30734524557533 92.1572801267123  C 1.30734524557533 92.1572801267123  3.9271156987179 92.6680311361854  3.9271156987179 92.6680311361854  C 3.9271156987179 92.6680311361854  4.18030277164553 95.4309664677954  4.18030277164553 95.4309664677954  C 4.18030277164553 95.4309664677954  6.40258117135386 95.6882175692676  6.40258117135386 95.6882175692676  C 6.40258117135386 95.6882175692676  14.5279611292499 94.2068001330864  14.5279611292499 94.2068001330864  C 14.5279611292499 94.2068001330864  16.1007716947422 94.8379160957149  16.1007716947422 94.8379160957149  C 16.1007716947422 94.8379160957149  16.4865377430576 96.9766307575071  16.4865377430576 96.9766307575071  C 16.4865377430576 96.9766307575071  19.8877284453342 97.8673140653113  19.8877284453342 97.8673140653113  C 19.8877284453342 97.8673140653113  27.0791298297665 101.281050802917  27.0791298297665 101.281050802917  C 27.0791298297665 101.281050802917  31.5689035549874 99.7842886902187  31.5689035549874 99.7842886902187  C 31.5689035549874 99.7842886902187  40.462461463133 102.828211365037  40.462461463133 102.828211365037  C 40.462461463133 102.828211365037  42.2914550888893 105.218323444327  42.2914550888893 105.218323444327  C 42.2914550888893 105.218323444327  46.7453501664611 104.355710136807  46.7453501664611 104.355710136807  C 46.7453501664611 104.355710136807  46.1044014631937 99.8307537303241  46.1044014631937 99.8307537303241  C 46.1044014631937 99.8307537303241  45.1922740771824 98.5717535081772  45.1922740771824 98.5717535081772  C 45.1922740771824 98.5717535081772  46.1190232408314 94.9310748217679  46.1190232408314 94.9310748217679  C 46.1190232408314 94.9310748217679  50.8389738453732 92.8112624256311  50.8389738453732 92.8112624256311  C 50.8389738453732 92.8112624256311  52.0250153429388 91.0557397984869  52.0250153429388 91.0557397984869  C 52.0250153429388 91.0557397984869  49.5370918612971 90.1660586778221  49.5370918612971 90.1660586778221  C 49.5370918612971 90.1660586778221  46.7895893442167 89.531400018697  46.7895893442167 89.531400018697  C 46.7895893442167 89.531400018697  43.9168740765756 86.7605645790236  43.9168740765756 86.7605645790236  C 43.9168740765756 86.7605645790236  45.2274015494143 85.6326660281983  45.2274015494143 85.6326660281983  C 45.2274015494143 85.6326660281983  56.7512341664774 85.6674201962048  56.7512341664774 85.6674201962048  C 56.7512341664774 85.6674201962048  58.0557696646431 86.5474000752758  58.0557696646431 86.5474000752758  C 58.0557696646431 86.5474000752758  60.9378702678323 84.4211689508423  60.9378702678323 84.4211689508423  C 60.9378702678323 84.4211689508423  60.948730068352 80.7821083060824  60.948730068352 80.7821083060824  C 60.948730068352 80.7821083060824  52.4759393229397 68.4402306252281  52.4759393229397 68.4402306252281  Z " fill-rule="nonzero" fill="#031e4b" stroke="none" transform="matrix(1 0 0 1 975 642 )" />
    <path d="M 52.4759393229397 68.4402306252281  C 52.4759393229397 68.4402306252281  52.484787855637 66.9352109810809  52.484787855637 66.9352109810809  C 52.484787855637 66.9352109810809  50.9227290329482 63.285274328159  50.9227290329482 63.285274328159  C 50.9227290329482 63.285274328159  53.6989670597493 53.9988033004549  53.6989670597493 53.9988033004549  C 53.6989670597493 53.9988033004549  49.6943524391659 35.716795120407  49.6943524391659 35.716795120407  C 49.6943524391659 35.716795120407  52.5914225218389 31.2025088532248  52.5914225218389 31.2025088532248  C 52.5914225218389 31.2025088532248  53.7793567723115 27.0606437370536  53.7793567723115 27.0606437370536  C 53.7793567723115 27.0606437370536  50.1358570977241 19.7618321889136  50.1358570977241 19.7618321889136  C 50.1358570977241 19.7618321889136  53.5567953477123 14.6192490484517  53.5567953477123 14.6192490484517  C 53.5567953477123 14.6192490484517  54.2254922268867 9.84594120758652  54.2254922268867 9.84594120758652  C 54.2254922268867 9.84594120758652  56.0663722014706 6.20889544955821  56.0663722014706 6.20889544955821  C 56.0663722014706 6.20889544955821  55.8176843381468 1.93829922010696  55.8176843381468 1.93829922010696  C 55.8176843381468 1.93829922010696  54.2524874845101 0.799975820539998  54.2524874845101 0.799975820539998  C 54.2524874845101 0.799975820539998  51.7566635894907 3.43372625133657  51.7566635894907 3.43372625133657  C 51.7566635894907 3.43372625133657  45.0768832502017 3.78765249422736  45.0768832502017 3.78765249422736  C 45.0768832502017 3.78765249422736  41.6588094011372 8.55442071359198  41.6588094011372 8.55442071359198  C 41.6588094011372 8.55442071359198  41.9119938597651 11.3182320829114  41.9119938597651 11.3182320829114  C 41.9119938597651 11.3182320829114  41.2522953997986 13.0762181280944  41.2522953997986 13.0762181280944  C 41.2522953997986 13.0762181280944  38.5003093589119 13.943964140554  38.5003093589119 13.943964140554  C 38.5003093589119 13.943964140554  27.6852822054175 28.1094185619679  27.6852822054175 28.1094185619679  C 27.6852822054175 28.1094185619679  26.3755390224576 27.222414612543  26.3755390224576 27.222414612543  C 26.3755390224576 27.222414612543  23.501681305893 26.5864988393048  23.501681305893 26.5864988393048  C 23.501681305893 26.5864988393048  17.6087868447594 26.948930532316  17.6087868447594 26.948930532316  C 17.6087868447594 26.948930532316  15.6332164121477 29.5816218335219  15.6332164121477 29.5816218335219  C 15.6332164121477 29.5816218335219  15.3545320752651 35.3626822814842  15.3545320752651 35.3626822814842  C 15.3545320752651 35.3626822814842  16.2677783815034 37.1227839577354  16.2677783815034 37.1227839577354  C 16.2677783815034 37.1227839577354  26.3312841589045 42.051980956909  26.3312841589045 42.051980956909  C 26.3312841589045 42.051980956909  32.1191805053832 45.3362104118244  32.1191805053832 45.3362104118244  C 32.1191805053832 45.3362104118244  33.0260583778067 48.3542943544043  33.0260583778067 48.3542943544043  C 33.0260583778067 48.3542943544043  29.7090864655665 52.2400656149173  29.7090864655665 52.2400656149173  C 29.7090864655665 52.2400656149173  31.6881574453366 57.1948157580359  31.6881574453366 57.1948157580359  C 31.6881574453366 57.1948157580359  30.3371597433261 59.3274165526543  30.3371597433261 59.3274165526543  C 30.3371597433261 59.3274165526543  22.8731975830972 59.9347831329816  22.8731975830972 59.9347831329816  C 22.8731975830972 59.9347831329816  21.3019878403904 60.8113464649859  21.3019878403904 60.8113464649859  C 21.3019878403904 60.8113464649859  21.8211066967738 62.0665332949841  21.8211066967738 62.0665332949841  C 21.8211066967738 62.0665332949841  21.8150938077042 64.0814200265556  21.8150938077042 64.0814200265556  C 21.8150938077042 64.0814200265556  15.9214568854852 64.6926464290303  15.9214568854852 64.6926464290303  C 15.9214568854852 64.6926464290303  12.7818277291738 63.1746272613135  12.7818277291738 63.1746272613135  C 12.7818277291738 63.1746272613135  8.72269189052577 63.1623855103627  8.72269189052577 63.1623855103627  C 8.72269189052577 63.1623855103627  8.06563125885123 64.0364495067823  8.06563125885123 64.0364495067823  C 8.06563125885123 64.0364495067823  8.71370131421668 66.1750791929168  8.71370131421668 66.1750791929168  C 8.71370131421668 66.1750791929168  6.74225101776756 68.3031806578598  6.74225101776756 68.3031806578598  C 6.74225101776756 68.3031806578598  6.08155476678871 70.6875362933617  6.08155476678871 70.6875362933617  C 6.08155476678871 70.6875362933617  9.86938033627985 73.7178129287809  9.86938033627985 73.7178129287809  C 9.86938033627985 73.7178129287809  7.10301739048418 79.1111671197787  7.10301739048418 79.1111671197787  C 7.10301739048418 79.1111671197787  8.27644053533527 81.8760017011427  8.27644053533527 81.8760017011427  C 8.27644053533527 81.8760017011427  8.011256441564 83.1332034178723  8.011256441564 83.1332034178723  C 8.011256441564 83.1332034178723  3.55736136399219 83.1197711316745  3.55736136399219 83.1197711316745  C 3.55736136399219 83.1197711316745  0.410476654869626 84.6170790158661  0.410476654869626 84.6170790158661  C 0.410476654869626 84.6170790158661  2.88867232771645 87.8904508594115  2.88867232771645 87.8904508594115  C 2.88867232771645 87.8904508594115  1.30734524557533 92.1572801267123  1.30734524557533 92.1572801267123  C 1.30734524557533 92.1572801267123  3.9271156987179 92.6680311361854  3.9271156987179 92.6680311361854  C 3.9271156987179 92.6680311361854  4.18030277164553 95.4309664677954  4.18030277164553 95.4309664677954  C 4.18030277164553 95.4309664677954  6.40258117135386 95.6882175692676  6.40258117135386 95.6882175692676  C 6.40258117135386 95.6882175692676  14.5279611292499 94.2068001330864  14.5279611292499 94.2068001330864  C 14.5279611292499 94.2068001330864  16.1007716947422 94.8379160957149  16.1007716947422 94.8379160957149  C 16.1007716947422 94.8379160957149  16.4865377430576 96.9766307575071  16.4865377430576 96.9766307575071  C 16.4865377430576 96.9766307575071  19.8877284453342 97.8673140653113  19.8877284453342 97.8673140653113  C 19.8877284453342 97.8673140653113  27.0791298297665 101.281050802917  27.0791298297665 101.281050802917  C 27.0791298297665 101.281050802917  31.5689035549874 99.7842886902187  31.5689035549874 99.7842886902187  C 31.5689035549874 99.7842886902187  40.462461463133 102.828211365037  40.462461463133 102.828211365037  C 40.462461463133 102.828211365037  42.2914550888893 105.218323444327  42.2914550888893 105.218323444327  C 42.2914550888893 105.218323444327  46.7453501664611 104.355710136807  46.7453501664611 104.355710136807  C 46.7453501664611 104.355710136807  46.1044014631937 99.8307537303241  46.1044014631937 99.8307537303241  C 46.1044014631937 99.8307537303241  45.1922740771824 98.5717535081772  45.1922740771824 98.5717535081772  C 45.1922740771824 98.5717535081772  46.1190232408314 94.9310748217679  46.1190232408314 94.9310748217679  C 46.1190232408314 94.9310748217679  50.8389738453732 92.8112624256311  50.8389738453732 92.8112624256311  C 50.8389738453732 92.8112624256311  52.0250153429388 91.0557397984869  52.0250153429388 91.0557397984869  C 52.0250153429388 91.0557397984869  49.5370918612971 90.1660586778221  49.5370918612971 90.1660586778221  C 49.5370918612971 90.1660586778221  46.7895893442167 89.531400018697  46.7895893442167 89.531400018697  C 46.7895893442167 89.531400018697  43.9168740765756 86.7605645790236  43.9168740765756 86.7605645790236  C 43.9168740765756 86.7605645790236  45.2274015494143 85.6326660281983  45.2274015494143 85.6326660281983  C 45.2274015494143 85.6326660281983  56.7512341664774 85.6674201962048  56.7512341664774 85.6674201962048  C 56.7512341664774 85.6674201962048  58.0557696646431 86.5474000752758  58.0557696646431 86.5474000752758  C 58.0557696646431 86.5474000752758  60.9378702678323 84.4211689508423  60.9378702678323 84.4211689508423  C 60.9378702678323 84.4211689508423  60.948730068352 80.7821083060824  60.948730068352 80.7821083060824  C 60.948730068352 80.7821083060824  52.4759393229397 68.4402306252281  52.4759393229397 68.4402306252281  Z " stroke-width="0.97600957434184" stroke="#47b3fe" fill="none" transform="matrix(1 0 0 1 975 642 )" mask="url(#clip1797)" />
  </g>
</svg>