<?xml version="1.0" encoding="utf-8"?>
<svg version="1.1" xmlns:xlink="http://www.w3.org/1999/xlink" width="60px" height="68px" xmlns="http://www.w3.org/2000/svg">
  <defs>
    <mask fill="white" id="clip1794">
      <path d="M 13.0814486391341 4.10344765706259  C 13.0814486391341 4.10344765706259  12.1765705991775 1.34672609652614  12.1765705991775 1.34672609652614  C 12.1765705991775 1.34672609652614  14.4346649420002 0.725718029907398  14.4346649420002 0.725718029907398  C 14.4346649420002 0.725718029907398  21.4525219108398 3.49881547226732  21.4525219108398 3.49881547226732  C 21.4525219108398 3.49881547226732  24.6278420062406 6.50811652778009  24.6278420062406 6.50811652778009  C 24.6278420062406 6.50811652778009  30.7539045340066 8.02752705698504  30.7539045340066 8.02752705698504  C 30.7539045340066 8.02752705698504  33.0047776620158 9.78478802859979  33.0047776620158 9.78478802859979  C 33.0047776620158 9.78478802859979  36.1889689809909 9.29119345902575  36.1889689809909 9.29119345902575  C 36.1889689809909 9.29119345902575  36.84908189778 10.4195251937575  36.84908189778 10.4195251937575  C 36.84908189778 10.4195251937575  35.7655926153277 16.7944561711536  35.7655926153277 16.7944561711536  C 35.7655926153277 16.7944561711536  38.9447086132368 18.5535967424922  38.9447086132368 18.5535967424922  C 38.9447086132368 18.5535967424922  40.2610317790341 20.9331734799771  40.2610317790341 20.9331734799771  C 40.2610317790341 20.9331734799771  45.0337041794808 21.8191275174912  45.0337041794808 21.8191275174912  C 45.0337041794808 21.8191275174912  46.8957611253325 18.8256295715297  46.8957611253325 18.8256295715297  C 46.8957611253325 18.8256295715297  49.8125742598945 19.2108960787311  49.8125742598945 19.2108960787311  C 49.8125742598945 19.2108960787311  51.6583093543757 21.5929138548182  51.6583093543757 21.5929138548182  C 51.6583093543757 21.5929138548182  51.3871511498917 23.7167046187628  51.3871511498917 23.7167046187628  C 51.3871511498917 23.7167046187628  45.6825758601115 24.3248815403285  45.6825758601115 24.3248815403285  C 45.6825758601115 24.3248815403285  45.6700499112492 28.4502367782029  45.6700499112492 28.4502367782029  C 45.6700499112492 28.4502367782029  43.4101749707365 30.8200851050582  43.4101749707365 30.8200851050582  C 43.4101749707365 30.8200851050582  44.9900698301471 33.574448447945  44.9900698301471 33.574448447945  C 44.9900698301471 33.574448447945  49.7514595236269 37.0138927617633  49.7514595236269 37.0138927617633  C 49.7514595236269 37.0138927617633  50.0051523412567 40.6422351042208  50.0051523412567 40.6422351042208  C 50.0051523412567 40.6422351042208  59.5478500692716 41.5423279860393  59.5478500692716 41.5423279860393  C 59.5478500692716 41.5423279860393  59.5334261691551 46.2927634660007  59.5334261691551 46.2927634660007  C 59.5334261691551 46.2927634660007  57.6728807019174 48.7884638969946  57.6728807019174 48.7884638969946  C 57.6728807019174 48.7884638969946  58.9892065147874 51.1671688349786  58.9892065147874 51.1671688349786  C 58.9892065147874 51.1671688349786  57.9258164567036 52.6661408966864  57.9258164567036 52.6661408966864  C 57.9258164567036 52.6661408966864  54.2083158354094 53.278464096678  54.2083158354094 53.278464096678  C 54.2083158354094 53.278464096678  52.6139838405181 55.2788952312567  52.6139838405181 55.2788952312567  C 52.6139838405181 55.2788952312567  52.8631236927963 60.4067327151226  52.8631236927963 60.4067327151226  C 52.8631236927963 60.4067327151226  48.0710958954598 66.7671839746097  48.0710958954598 66.7671839746097  C 48.0710958954598 66.7671839746097  47.269501345088 67.4823054127403  47.269501345088 67.4823054127403  C 47.269501345088 67.4823054127403  44.6291652667808 65.2557294876492  44.6291652667808 65.2557294876492  C 44.6291652667808 65.2557294876492  37.8685411343672 65.2356903043234  37.8685411343672 65.2356903043234  C 37.8685411343672 65.2356903043234  35.0946911118426 62.2284510546301  35.0946911118426 62.2284510546301  C 35.0946911118426 62.2284510546301  29.2153481293863 67.2151982508826  29.2153481293863 67.2151982508826  C 29.2153481293863 67.2151982508826  27.229161112672 66.3375036418392  27.229161112672 66.3375036418392  C 27.229161112672 66.3375036418392  29.4962413855606 62.4664244207696  29.4962413855606 62.4664244207696  C 29.4962413855606 62.4664244207696  29.2353220589719 61.2180947155473  29.2353220589719 61.2180947155473  C 29.2353220589719 61.2180947155473  27.2480100362845 60.710914894352  27.2480100362845 60.710914894352  C 27.2480100362845 60.710914894352  20.872811185671 63.9429877481084  20.872811185671 63.9429877481084  C 20.872811185671 63.9429877481084  14.9398429184789 53.1716581962337  14.9398429184789 53.1716581962337  C 14.9398429184789 53.1716581962337  16.803043399814 49.8015428659187  16.803043399814 49.8015428659187  C 16.803043399814 49.8015428659187  16.1438101935782 48.6740855460863  16.1438101935782 48.6740855460863  C 16.1438101935782 48.6740855460863  12.9633027176928 47.6638233613494  12.9633027176928 47.6638233613494  C 12.9633027176928 47.6638233613494  7.67297668628976 44.6465095966247  7.67297668628976 44.6465095966247  C 7.67297668628976 44.6465095966247  9.80316093817896 40.5274313151562  9.80316093817896 40.5274313151562  C 9.80316093817896 40.5274313151562  12.9842040051437 39.0364798088558  12.9842040051437 39.0364798088558  C 12.9842040051437 39.0364798088558  13.6606334791575 35.6628467675549  13.6606334791575 35.6628467675549  C 13.6606334791575 35.6628467675549  12.4854328273893 29.2332713974474  12.4854328273893 29.2332713974474  C 12.4854328273893 29.2332713974474  11.8260743263709 28.7282841519966  11.8260743263709 28.7282841519966  C 11.8260743263709 28.7282841519966  8.63429120237925 31.722199689919  8.63429120237925 31.722199689919  C 8.63429120237925 31.722199689919  3.87174826748173 28.0813644606145  3.87174826748173 28.0813644606145  C 3.87174826748173 28.0813644606145  0.30492785802403 23.8207312223985  0.30492785802403 23.8207312223985  C 0.30492785802403 23.8207312223985  3.89186072721486 21.4574318533935  3.89186072721486 21.4574318533935  C 3.89186072721486 21.4574318533935  4.83213101391812 17.2075426722257  4.83213101391812 17.2075426722257  C 4.83213101391812 17.2075426722257  7.08846593563408 15.712978428794  7.08846593563408 15.712978428794  C 7.08846593563408 15.712978428794  6.70937156980244 10.0852101365821  6.70937156980244 10.0852101365821  C 6.70937156980244 10.0852101365821  8.30140855250784 8.84062916921323  8.30140855250784 8.84062916921323  C 8.30140855250784 8.84062916921323  11.2127863640922 10.7253882024244  11.2127863640922 10.7253882024244  C 11.2127863640922 10.7253882024244  13.058526752719 13.1056623795098  13.058526752719 13.1056623795098  C 13.058526752719 13.1056623795098  16.9110519144872 10.7422784459532  16.9110519144872 10.7422784459532  C 16.9110519144872 10.7422784459532  18.239151907522 9.24321920429531  18.239151907522 9.24321920429531  C 18.239151907522 9.24321920429531  17.5848475509868 6.49247121393842  17.5848475509868 6.49247121393842  C 17.5848475509868 6.49247121393842  13.0814486391341 4.10344765706259  13.0814486391341 4.10344765706259  Z " fill-rule="evenodd" />
    </mask>
  </defs>
  <g transform="matrix(1 0 0 1 -1082 -701 )">
    <path d="M 13.0814486391341 4.10344765706259  C 13.0814486391341 4.10344765706259  12.1765705991775 1.34672609652614  12.1765705991775 1.34672609652614  C 12.1765705991775 1.34672609652614  14.4346649420002 0.725718029907398  14.4346649420002 0.725718029907398  C 14.4346649420002 0.725718029907398  21.4525219108398 3.49881547226732  21.4525219108398 3.49881547226732  C 21.4525219108398 3.49881547226732  24.6278420062406 6.50811652778009  24.6278420062406 6.50811652778009  C 24.6278420062406 6.50811652778009  30.7539045340066 8.02752705698504  30.7539045340066 8.02752705698504  C 30.7539045340066 8.02752705698504  33.0047776620158 9.78478802859979  33.0047776620158 9.78478802859979  C 33.0047776620158 9.78478802859979  36.1889689809909 9.29119345902575  36.1889689809909 9.29119345902575  C 36.1889689809909 9.29119345902575  36.84908189778 10.4195251937575  36.84908189778 10.4195251937575  C 36.84908189778 10.4195251937575  35.7655926153277 16.7944561711536  35.7655926153277 16.7944561711536  C 35.7655926153277 16.7944561711536  38.9447086132368 18.5535967424922  38.9447086132368 18.5535967424922  C 38.9447086132368 18.5535967424922  40.2610317790341 20.9331734799771  40.2610317790341 20.9331734799771  C 40.2610317790341 20.9331734799771  45.0337041794808 21.8191275174912  45.0337041794808 21.8191275174912  C 45.0337041794808 21.8191275174912  46.8957611253325 18.8256295715297  46.8957611253325 18.8256295715297  C 46.8957611253325 18.8256295715297  49.8125742598945 19.2108960787311  49.8125742598945 19.2108960787311  C 49.8125742598945 19.2108960787311  51.6583093543757 21.5929138548182  51.6583093543757 21.5929138548182  C 51.6583093543757 21.5929138548182  51.3871511498917 23.7167046187628  51.3871511498917 23.7167046187628  C 51.3871511498917 23.7167046187628  45.6825758601115 24.3248815403285  45.6825758601115 24.3248815403285  C 45.6825758601115 24.3248815403285  45.6700499112492 28.4502367782029  45.6700499112492 28.4502367782029  C 45.6700499112492 28.4502367782029  43.4101749707365 30.8200851050582  43.4101749707365 30.8200851050582  C 43.4101749707365 30.8200851050582  44.9900698301471 33.574448447945  44.9900698301471 33.574448447945  C 44.9900698301471 33.574448447945  49.7514595236269 37.0138927617633  49.7514595236269 37.0138927617633  C 49.7514595236269 37.0138927617633  50.0051523412567 40.6422351042208  50.0051523412567 40.6422351042208  C 50.0051523412567 40.6422351042208  59.5478500692716 41.5423279860393  59.5478500692716 41.5423279860393  C 59.5478500692716 41.5423279860393  59.5334261691551 46.2927634660007  59.5334261691551 46.2927634660007  C 59.5334261691551 46.2927634660007  57.6728807019174 48.7884638969946  57.6728807019174 48.7884638969946  C 57.6728807019174 48.7884638969946  58.9892065147874 51.1671688349786  58.9892065147874 51.1671688349786  C 58.9892065147874 51.1671688349786  57.9258164567036 52.6661408966864  57.9258164567036 52.6661408966864  C 57.9258164567036 52.6661408966864  54.2083158354094 53.278464096678  54.2083158354094 53.278464096678  C 54.2083158354094 53.278464096678  52.6139838405181 55.2788952312567  52.6139838405181 55.2788952312567  C 52.6139838405181 55.2788952312567  52.8631236927963 60.4067327151226  52.8631236927963 60.4067327151226  C 52.8631236927963 60.4067327151226  48.0710958954598 66.7671839746097  48.0710958954598 66.7671839746097  C 48.0710958954598 66.7671839746097  47.269501345088 67.4823054127403  47.269501345088 67.4823054127403  C 47.269501345088 67.4823054127403  44.6291652667808 65.2557294876492  44.6291652667808 65.2557294876492  C 44.6291652667808 65.2557294876492  37.8685411343672 65.2356903043234  37.8685411343672 65.2356903043234  C 37.8685411343672 65.2356903043234  35.0946911118426 62.2284510546301  35.0946911118426 62.2284510546301  C 35.0946911118426 62.2284510546301  29.2153481293863 67.2151982508826  29.2153481293863 67.2151982508826  C 29.2153481293863 67.2151982508826  27.229161112672 66.3375036418392  27.229161112672 66.3375036418392  C 27.229161112672 66.3375036418392  29.4962413855606 62.4664244207696  29.4962413855606 62.4664244207696  C 29.4962413855606 62.4664244207696  29.2353220589719 61.2180947155473  29.2353220589719 61.2180947155473  C 29.2353220589719 61.2180947155473  27.2480100362845 60.710914894352  27.2480100362845 60.710914894352  C 27.2480100362845 60.710914894352  20.872811185671 63.9429877481084  20.872811185671 63.9429877481084  C 20.872811185671 63.9429877481084  14.9398429184789 53.1716581962337  14.9398429184789 53.1716581962337  C 14.9398429184789 53.1716581962337  16.803043399814 49.8015428659187  16.803043399814 49.8015428659187  C 16.803043399814 49.8015428659187  16.1438101935782 48.6740855460863  16.1438101935782 48.6740855460863  C 16.1438101935782 48.6740855460863  12.9633027176928 47.6638233613494  12.9633027176928 47.6638233613494  C 12.9633027176928 47.6638233613494  7.67297668628976 44.6465095966247  7.67297668628976 44.6465095966247  C 7.67297668628976 44.6465095966247  9.80316093817896 40.5274313151562  9.80316093817896 40.5274313151562  C 9.80316093817896 40.5274313151562  12.9842040051437 39.0364798088558  12.9842040051437 39.0364798088558  C 12.9842040051437 39.0364798088558  13.6606334791575 35.6628467675549  13.6606334791575 35.6628467675549  C 13.6606334791575 35.6628467675549  12.4854328273893 29.2332713974474  12.4854328273893 29.2332713974474  C 12.4854328273893 29.2332713974474  11.8260743263709 28.7282841519966  11.8260743263709 28.7282841519966  C 11.8260743263709 28.7282841519966  8.63429120237925 31.722199689919  8.63429120237925 31.722199689919  C 8.63429120237925 31.722199689919  3.87174826748173 28.0813644606145  3.87174826748173 28.0813644606145  C 3.87174826748173 28.0813644606145  0.30492785802403 23.8207312223985  0.30492785802403 23.8207312223985  C 0.30492785802403 23.8207312223985  3.89186072721486 21.4574318533935  3.89186072721486 21.4574318533935  C 3.89186072721486 21.4574318533935  4.83213101391812 17.2075426722257  4.83213101391812 17.2075426722257  C 4.83213101391812 17.2075426722257  7.08846593563408 15.712978428794  7.08846593563408 15.712978428794  C 7.08846593563408 15.712978428794  6.70937156980244 10.0852101365821  6.70937156980244 10.0852101365821  C 6.70937156980244 10.0852101365821  8.30140855250784 8.84062916921323  8.30140855250784 8.84062916921323  C 8.30140855250784 8.84062916921323  11.2127863640922 10.7253882024244  11.2127863640922 10.7253882024244  C 11.2127863640922 10.7253882024244  13.058526752719 13.1056623795098  13.058526752719 13.1056623795098  C 13.058526752719 13.1056623795098  16.9110519144872 10.7422784459532  16.9110519144872 10.7422784459532  C 16.9110519144872 10.7422784459532  18.239151907522 9.24321920429531  18.239151907522 9.24321920429531  C 18.239151907522 9.24321920429531  17.5848475509868 6.49247121393842  17.5848475509868 6.49247121393842  C 17.5848475509868 6.49247121393842  13.0814486391341 4.10344765706259  13.0814486391341 4.10344765706259  Z " fill-rule="nonzero" fill="#031e4b" stroke="none" transform="matrix(1 0 0 1 1082 701 )" />
    <path d="M 13.0814486391341 4.10344765706259  C 13.0814486391341 4.10344765706259  12.1765705991775 1.34672609652614  12.1765705991775 1.34672609652614  C 12.1765705991775 1.34672609652614  14.4346649420002 0.725718029907398  14.4346649420002 0.725718029907398  C 14.4346649420002 0.725718029907398  21.4525219108398 3.49881547226732  21.4525219108398 3.49881547226732  C 21.4525219108398 3.49881547226732  24.6278420062406 6.50811652778009  24.6278420062406 6.50811652778009  C 24.6278420062406 6.50811652778009  30.7539045340066 8.02752705698504  30.7539045340066 8.02752705698504  C 30.7539045340066 8.02752705698504  33.0047776620158 9.78478802859979  33.0047776620158 9.78478802859979  C 33.0047776620158 9.78478802859979  36.1889689809909 9.29119345902575  36.1889689809909 9.29119345902575  C 36.1889689809909 9.29119345902575  36.84908189778 10.4195251937575  36.84908189778 10.4195251937575  C 36.84908189778 10.4195251937575  35.7655926153277 16.7944561711536  35.7655926153277 16.7944561711536  C 35.7655926153277 16.7944561711536  38.9447086132368 18.5535967424922  38.9447086132368 18.5535967424922  C 38.9447086132368 18.5535967424922  40.2610317790341 20.9331734799771  40.2610317790341 20.9331734799771  C 40.2610317790341 20.9331734799771  45.0337041794808 21.8191275174912  45.0337041794808 21.8191275174912  C 45.0337041794808 21.8191275174912  46.8957611253325 18.8256295715297  46.8957611253325 18.8256295715297  C 46.8957611253325 18.8256295715297  49.8125742598945 19.2108960787311  49.8125742598945 19.2108960787311  C 49.8125742598945 19.2108960787311  51.6583093543757 21.5929138548182  51.6583093543757 21.5929138548182  C 51.6583093543757 21.5929138548182  51.3871511498917 23.7167046187628  51.3871511498917 23.7167046187628  C 51.3871511498917 23.7167046187628  45.6825758601115 24.3248815403285  45.6825758601115 24.3248815403285  C 45.6825758601115 24.3248815403285  45.6700499112492 28.4502367782029  45.6700499112492 28.4502367782029  C 45.6700499112492 28.4502367782029  43.4101749707365 30.8200851050582  43.4101749707365 30.8200851050582  C 43.4101749707365 30.8200851050582  44.9900698301471 33.574448447945  44.9900698301471 33.574448447945  C 44.9900698301471 33.574448447945  49.7514595236269 37.0138927617633  49.7514595236269 37.0138927617633  C 49.7514595236269 37.0138927617633  50.0051523412567 40.6422351042208  50.0051523412567 40.6422351042208  C 50.0051523412567 40.6422351042208  59.5478500692716 41.5423279860393  59.5478500692716 41.5423279860393  C 59.5478500692716 41.5423279860393  59.5334261691551 46.2927634660007  59.5334261691551 46.2927634660007  C 59.5334261691551 46.2927634660007  57.6728807019174 48.7884638969946  57.6728807019174 48.7884638969946  C 57.6728807019174 48.7884638969946  58.9892065147874 51.1671688349786  58.9892065147874 51.1671688349786  C 58.9892065147874 51.1671688349786  57.9258164567036 52.6661408966864  57.9258164567036 52.6661408966864  C 57.9258164567036 52.6661408966864  54.2083158354094 53.278464096678  54.2083158354094 53.278464096678  C 54.2083158354094 53.278464096678  52.6139838405181 55.2788952312567  52.6139838405181 55.2788952312567  C 52.6139838405181 55.2788952312567  52.8631236927963 60.4067327151226  52.8631236927963 60.4067327151226  C 52.8631236927963 60.4067327151226  48.0710958954598 66.7671839746097  48.0710958954598 66.7671839746097  C 48.0710958954598 66.7671839746097  47.269501345088 67.4823054127403  47.269501345088 67.4823054127403  C 47.269501345088 67.4823054127403  44.6291652667808 65.2557294876492  44.6291652667808 65.2557294876492  C 44.6291652667808 65.2557294876492  37.8685411343672 65.2356903043234  37.8685411343672 65.2356903043234  C 37.8685411343672 65.2356903043234  35.0946911118426 62.2284510546301  35.0946911118426 62.2284510546301  C 35.0946911118426 62.2284510546301  29.2153481293863 67.2151982508826  29.2153481293863 67.2151982508826  C 29.2153481293863 67.2151982508826  27.229161112672 66.3375036418392  27.229161112672 66.3375036418392  C 27.229161112672 66.3375036418392  29.4962413855606 62.4664244207696  29.4962413855606 62.4664244207696  C 29.4962413855606 62.4664244207696  29.2353220589719 61.2180947155473  29.2353220589719 61.2180947155473  C 29.2353220589719 61.2180947155473  27.2480100362845 60.710914894352  27.2480100362845 60.710914894352  C 27.2480100362845 60.710914894352  20.872811185671 63.9429877481084  20.872811185671 63.9429877481084  C 20.872811185671 63.9429877481084  14.9398429184789 53.1716581962337  14.9398429184789 53.1716581962337  C 14.9398429184789 53.1716581962337  16.803043399814 49.8015428659187  16.803043399814 49.8015428659187  C 16.803043399814 49.8015428659187  16.1438101935782 48.6740855460863  16.1438101935782 48.6740855460863  C 16.1438101935782 48.6740855460863  12.9633027176928 47.6638233613494  12.9633027176928 47.6638233613494  C 12.9633027176928 47.6638233613494  7.67297668628976 44.6465095966247  7.67297668628976 44.6465095966247  C 7.67297668628976 44.6465095966247  9.80316093817896 40.5274313151562  9.80316093817896 40.5274313151562  C 9.80316093817896 40.5274313151562  12.9842040051437 39.0364798088558  12.9842040051437 39.0364798088558  C 12.9842040051437 39.0364798088558  13.6606334791575 35.6628467675549  13.6606334791575 35.6628467675549  C 13.6606334791575 35.6628467675549  12.4854328273893 29.2332713974474  12.4854328273893 29.2332713974474  C 12.4854328273893 29.2332713974474  11.8260743263709 28.7282841519966  11.8260743263709 28.7282841519966  C 11.8260743263709 28.7282841519966  8.63429120237925 31.722199689919  8.63429120237925 31.722199689919  C 8.63429120237925 31.722199689919  3.87174826748173 28.0813644606145  3.87174826748173 28.0813644606145  C 3.87174826748173 28.0813644606145  0.30492785802403 23.8207312223985  0.30492785802403 23.8207312223985  C 0.30492785802403 23.8207312223985  3.89186072721486 21.4574318533935  3.89186072721486 21.4574318533935  C 3.89186072721486 21.4574318533935  4.83213101391812 17.2075426722257  4.83213101391812 17.2075426722257  C 4.83213101391812 17.2075426722257  7.08846593563408 15.712978428794  7.08846593563408 15.712978428794  C 7.08846593563408 15.712978428794  6.70937156980244 10.0852101365821  6.70937156980244 10.0852101365821  C 6.70937156980244 10.0852101365821  8.30140855250784 8.84062916921323  8.30140855250784 8.84062916921323  C 8.30140855250784 8.84062916921323  11.2127863640922 10.7253882024244  11.2127863640922 10.7253882024244  C 11.2127863640922 10.7253882024244  13.058526752719 13.1056623795098  13.058526752719 13.1056623795098  C 13.058526752719 13.1056623795098  16.9110519144872 10.7422784459532  16.9110519144872 10.7422784459532  C 16.9110519144872 10.7422784459532  18.239151907522 9.24321920429531  18.239151907522 9.24321920429531  C 18.239151907522 9.24321920429531  17.5848475509868 6.49247121393842  17.5848475509868 6.49247121393842  C 17.5848475509868 6.49247121393842  13.0814486391341 4.10344765706259  13.0814486391341 4.10344765706259  Z " stroke-width="0.97600957434184" stroke="#47b3fe" fill="none" transform="matrix(1 0 0 1 1082 701 )" mask="url(#clip1794)" />
  </g>
</svg>