<?xml version="1.0" encoding="utf-8"?>
<svg version="1.1" xmlns:xlink="http://www.w3.org/1999/xlink" width="54px" height="65px" xmlns="http://www.w3.org/2000/svg">
  <defs>
    <mask fill="white" id="clip1792">
      <path d="M 8.97226499746739 51.4188729183159  C 8.97226499746739 51.4188729183159  0.78074898656314 49.6443345095017  0.78074898656314 49.6443345095017  C 0.78074898656314 49.6443345095017  2.72951568883582 38.6817627876427  2.72951568883582 38.6817627876427  C 2.72951568883582 38.6817627876427  4.5728982186431 35.9160165482105  4.5728982186431 35.9160165482105  C 4.5728982186431 35.9160165482105  5.49727599781136 32.8980268072698  5.49727599781136 32.8980268072698  C 5.49727599781136 32.8980268072698  7.73476568473939 27.9401307524283  7.73476568473939 27.9401307524283  C 7.73476568473939 27.9401307524283  6.55984747849357 26.1718885932617  6.55984747849357 26.1718885932617  C 6.55984747849357 26.1718885932617  6.83711369263915 22.2665229243744  6.83711369263915 22.2665229243744  C 6.83711369263915 22.2665229243744  12.2195487235529 16.4854273634268  12.2195487235529 16.4854273634268  C 12.2195487235529 16.4854273634268  11.8383572156563 12.5789479048417  11.8383572156563 12.5789479048417  C 11.8383572156563 12.5789479048417  15.3926212491451 6.7923211658765  15.3926212491451 6.7923211658765  C 15.3926212491451 6.7923211658765  18.7868005616585 7.68098128983127  18.7868005616585 7.68098128983127  C 18.7868005616585 7.68098128983127  25.737464887196 2.91478003662201  25.737464887196 2.91478003662201  C 25.737464887196 2.91478003662201  27.0510384103097 0.526895735968651  27.0510384103097 0.526895735968651  C 27.0510384103097 0.526895735968651  31.5320623323892 1.16938110685487  31.5320623323892 1.16938110685487  C 31.5320623323892 1.16938110685487  33.7456194406286 6.59926399214555  33.7456194406286 6.59926399214555  C 33.7456194406286 6.59926399214555  35.5637864494513 10.2606280276111  35.5637864494513 10.2606280276111  C 35.5637864494513 10.2606280276111  40.0127132978782 10.2740883693523  40.0127132978782 10.2740883693523  C 40.0127132978782 10.2740883693523  42.7690089975927 6.88041947149304  42.7690089975927 6.88041947149304  C 42.7690089975927 6.88041947149304  46.8143786387218 10.798863385498  46.8143786387218 10.798863385498  C 46.8143786387218 10.798863385498  53.9199732707687 8.41005678265026  53.9199732707687 8.41005678265026  C 53.9199732707687 8.41005678265026  49.4115267837278 18.7429833369362  49.4115267837278 18.7429833369362  C 49.4115267837278 18.7429833369362  46.7945256945982 17.4728177413426  46.7945256945982 17.4728177413426  C 46.7945256945982 17.4728177413426  44.9628551302042 18.350937268789  44.9628551302042 18.350937268789  C 44.9628551302042 18.350937268789  44.6985585655693 19.360287222764  44.6985585655693 19.360287222764  C 44.6985585655693 19.360287222764  47.1764462063659 22.0126192789161  47.1764462063659 22.0126192789161  C 47.1764462063659 22.0126192789161  46.4924968650989 31.4594013982805  46.4924968650989 31.4594013982805  C 46.4924968650989 31.4594013982805  47.1380755187568 34.91167425596  47.1380755187568 34.91167425596  C 47.1380755187568 34.91167425596  46.4796021192119 35.794221712323  46.4796021192119 35.794221712323  C 46.4796021192119 35.794221712323  43.6011751903677 35.1539498667034  43.6011751903677 35.1539498667034  C 43.6011751903677 35.1539498667034  41.7668812572056 36.9139659686784  41.7668812572056 36.9139659686784  C 41.7668812572056 36.9139659686784  43.0658511866491 39.4353644917703  43.0658511866491 39.4353644917703  C 43.0658511866491 39.4353644917703  39.5234463129036 42.6992883088258  39.5234463129036 42.6992883088258  C 39.5234463129036 42.6992883088258  40.1737944112406 43.9626253546479  40.1737944112406 43.9626253546479  C 40.1737944112406 43.9626253546479  36.765679540862 45.7090959117266  36.765679540862 45.7090959117266  C 36.765679540862 45.7090959117266  37.2811401487886 48.1051491746739  37.2811401487886 48.1051491746739  C 37.2811401487886 48.1051491746739  36.0980966413351 49.3611824654989  36.0980966413351 49.3611824654989  C 36.0980966413351 49.3611824654989  31.3896200276713 49.3469368493179  31.3896200276713 49.3469368493179  C 31.3896200276713 49.3469368493179  28.8931345139313 51.4826575813198  28.8931345139313 51.4826575813198  C 28.8931345139313 51.4826575813198  28.4985840318761 52.3598548065718  28.4985840318761 52.3598548065718  C 28.4985840318761 52.3598548065718  30.7194268239618 53.8765280624069  30.7194268239618 53.8765280624069  C 30.7194268239618 53.8765280624069  28.2236677011758 57.5248402042459  28.2236677011758 57.5248402042459  C 28.2236677011758 57.5248402042459  24.6419453928586 61.4158162021334  24.6419453928586 61.4158162021334  C 24.6419453928586 61.4158162021334  23.3366051715259 61.035915536313  23.3366051715259 61.035915536313  C 23.3366051715259 61.035915536313  19.922725335053 64.4275948965814  19.922725335053 64.4275948965814  C 19.922725335053 64.4275948965814  16.1532536104814 56.4781712683334  16.1532536104814 56.4781712683334  C 16.1532536104814 56.4781712683334  12.7592423956346 52.3122350266964  12.7592423956346 52.3122350266964  C 12.7592423956346 52.3122350266964  10.5366367554791 52.559365460515  10.5366367554791 52.559365460515  C 10.5366367554791 52.559365460515  8.97226499746739 51.4188729183159  8.97226499746739 51.4188729183159  Z " fill-rule="evenodd" />
    </mask>
  </defs>
  <g transform="matrix(1 0 0 1 -1106 -782 )">
    <path d="M 8.97226499746739 51.4188729183159  C 8.97226499746739 51.4188729183159  0.78074898656314 49.6443345095017  0.78074898656314 49.6443345095017  C 0.78074898656314 49.6443345095017  2.72951568883582 38.6817627876427  2.72951568883582 38.6817627876427  C 2.72951568883582 38.6817627876427  4.5728982186431 35.9160165482105  4.5728982186431 35.9160165482105  C 4.5728982186431 35.9160165482105  5.49727599781136 32.8980268072698  5.49727599781136 32.8980268072698  C 5.49727599781136 32.8980268072698  7.73476568473939 27.9401307524283  7.73476568473939 27.9401307524283  C 7.73476568473939 27.9401307524283  6.55984747849357 26.1718885932617  6.55984747849357 26.1718885932617  C 6.55984747849357 26.1718885932617  6.83711369263915 22.2665229243744  6.83711369263915 22.2665229243744  C 6.83711369263915 22.2665229243744  12.2195487235529 16.4854273634268  12.2195487235529 16.4854273634268  C 12.2195487235529 16.4854273634268  11.8383572156563 12.5789479048417  11.8383572156563 12.5789479048417  C 11.8383572156563 12.5789479048417  15.3926212491451 6.7923211658765  15.3926212491451 6.7923211658765  C 15.3926212491451 6.7923211658765  18.7868005616585 7.68098128983127  18.7868005616585 7.68098128983127  C 18.7868005616585 7.68098128983127  25.737464887196 2.91478003662201  25.737464887196 2.91478003662201  C 25.737464887196 2.91478003662201  27.0510384103097 0.526895735968651  27.0510384103097 0.526895735968651  C 27.0510384103097 0.526895735968651  31.5320623323892 1.16938110685487  31.5320623323892 1.16938110685487  C 31.5320623323892 1.16938110685487  33.7456194406286 6.59926399214555  33.7456194406286 6.59926399214555  C 33.7456194406286 6.59926399214555  35.5637864494513 10.2606280276111  35.5637864494513 10.2606280276111  C 35.5637864494513 10.2606280276111  40.0127132978782 10.2740883693523  40.0127132978782 10.2740883693523  C 40.0127132978782 10.2740883693523  42.7690089975927 6.88041947149304  42.7690089975927 6.88041947149304  C 42.7690089975927 6.88041947149304  46.8143786387218 10.798863385498  46.8143786387218 10.798863385498  C 46.8143786387218 10.798863385498  53.9199732707687 8.41005678265026  53.9199732707687 8.41005678265026  C 53.9199732707687 8.41005678265026  49.4115267837278 18.7429833369362  49.4115267837278 18.7429833369362  C 49.4115267837278 18.7429833369362  46.7945256945982 17.4728177413426  46.7945256945982 17.4728177413426  C 46.7945256945982 17.4728177413426  44.9628551302042 18.350937268789  44.9628551302042 18.350937268789  C 44.9628551302042 18.350937268789  44.6985585655693 19.360287222764  44.6985585655693 19.360287222764  C 44.6985585655693 19.360287222764  47.1764462063659 22.0126192789161  47.1764462063659 22.0126192789161  C 47.1764462063659 22.0126192789161  46.4924968650989 31.4594013982805  46.4924968650989 31.4594013982805  C 46.4924968650989 31.4594013982805  47.1380755187568 34.91167425596  47.1380755187568 34.91167425596  C 47.1380755187568 34.91167425596  46.4796021192119 35.794221712323  46.4796021192119 35.794221712323  C 46.4796021192119 35.794221712323  43.6011751903677 35.1539498667034  43.6011751903677 35.1539498667034  C 43.6011751903677 35.1539498667034  41.7668812572056 36.9139659686784  41.7668812572056 36.9139659686784  C 41.7668812572056 36.9139659686784  43.0658511866491 39.4353644917703  43.0658511866491 39.4353644917703  C 43.0658511866491 39.4353644917703  39.5234463129036 42.6992883088258  39.5234463129036 42.6992883088258  C 39.5234463129036 42.6992883088258  40.1737944112406 43.9626253546479  40.1737944112406 43.9626253546479  C 40.1737944112406 43.9626253546479  36.765679540862 45.7090959117266  36.765679540862 45.7090959117266  C 36.765679540862 45.7090959117266  37.2811401487886 48.1051491746739  37.2811401487886 48.1051491746739  C 37.2811401487886 48.1051491746739  36.0980966413351 49.3611824654989  36.0980966413351 49.3611824654989  C 36.0980966413351 49.3611824654989  31.3896200276713 49.3469368493179  31.3896200276713 49.3469368493179  C 31.3896200276713 49.3469368493179  28.8931345139313 51.4826575813198  28.8931345139313 51.4826575813198  C 28.8931345139313 51.4826575813198  28.4985840318761 52.3598548065718  28.4985840318761 52.3598548065718  C 28.4985840318761 52.3598548065718  30.7194268239618 53.8765280624069  30.7194268239618 53.8765280624069  C 30.7194268239618 53.8765280624069  28.2236677011758 57.5248402042459  28.2236677011758 57.5248402042459  C 28.2236677011758 57.5248402042459  24.6419453928586 61.4158162021334  24.6419453928586 61.4158162021334  C 24.6419453928586 61.4158162021334  23.3366051715259 61.035915536313  23.3366051715259 61.035915536313  C 23.3366051715259 61.035915536313  19.922725335053 64.4275948965814  19.922725335053 64.4275948965814  C 19.922725335053 64.4275948965814  16.1532536104814 56.4781712683334  16.1532536104814 56.4781712683334  C 16.1532536104814 56.4781712683334  12.7592423956346 52.3122350266964  12.7592423956346 52.3122350266964  C 12.7592423956346 52.3122350266964  10.5366367554791 52.559365460515  10.5366367554791 52.559365460515  C 10.5366367554791 52.559365460515  8.97226499746739 51.4188729183159  8.97226499746739 51.4188729183159  Z " fill-rule="nonzero" fill="#031e4b" stroke="none" transform="matrix(1 0 0 1 1106 782 )" />
    <path d="M 8.97226499746739 51.4188729183159  C 8.97226499746739 51.4188729183159  0.78074898656314 49.6443345095017  0.78074898656314 49.6443345095017  C 0.78074898656314 49.6443345095017  2.72951568883582 38.6817627876427  2.72951568883582 38.6817627876427  C 2.72951568883582 38.6817627876427  4.5728982186431 35.9160165482105  4.5728982186431 35.9160165482105  C 4.5728982186431 35.9160165482105  5.49727599781136 32.8980268072698  5.49727599781136 32.8980268072698  C 5.49727599781136 32.8980268072698  7.73476568473939 27.9401307524283  7.73476568473939 27.9401307524283  C 7.73476568473939 27.9401307524283  6.55984747849357 26.1718885932617  6.55984747849357 26.1718885932617  C 6.55984747849357 26.1718885932617  6.83711369263915 22.2665229243744  6.83711369263915 22.2665229243744  C 6.83711369263915 22.2665229243744  12.2195487235529 16.4854273634268  12.2195487235529 16.4854273634268  C 12.2195487235529 16.4854273634268  11.8383572156563 12.5789479048417  11.8383572156563 12.5789479048417  C 11.8383572156563 12.5789479048417  15.3926212491451 6.7923211658765  15.3926212491451 6.7923211658765  C 15.3926212491451 6.7923211658765  18.7868005616585 7.68098128983127  18.7868005616585 7.68098128983127  C 18.7868005616585 7.68098128983127  25.737464887196 2.91478003662201  25.737464887196 2.91478003662201  C 25.737464887196 2.91478003662201  27.0510384103097 0.526895735968651  27.0510384103097 0.526895735968651  C 27.0510384103097 0.526895735968651  31.5320623323892 1.16938110685487  31.5320623323892 1.16938110685487  C 31.5320623323892 1.16938110685487  33.7456194406286 6.59926399214555  33.7456194406286 6.59926399214555  C 33.7456194406286 6.59926399214555  35.5637864494513 10.2606280276111  35.5637864494513 10.2606280276111  C 35.5637864494513 10.2606280276111  40.0127132978782 10.2740883693523  40.0127132978782 10.2740883693523  C 40.0127132978782 10.2740883693523  42.7690089975927 6.88041947149304  42.7690089975927 6.88041947149304  C 42.7690089975927 6.88041947149304  46.8143786387218 10.798863385498  46.8143786387218 10.798863385498  C 46.8143786387218 10.798863385498  53.9199732707687 8.41005678265026  53.9199732707687 8.41005678265026  C 53.9199732707687 8.41005678265026  49.4115267837278 18.7429833369362  49.4115267837278 18.7429833369362  C 49.4115267837278 18.7429833369362  46.7945256945982 17.4728177413426  46.7945256945982 17.4728177413426  C 46.7945256945982 17.4728177413426  44.9628551302042 18.350937268789  44.9628551302042 18.350937268789  C 44.9628551302042 18.350937268789  44.6985585655693 19.360287222764  44.6985585655693 19.360287222764  C 44.6985585655693 19.360287222764  47.1764462063659 22.0126192789161  47.1764462063659 22.0126192789161  C 47.1764462063659 22.0126192789161  46.4924968650989 31.4594013982805  46.4924968650989 31.4594013982805  C 46.4924968650989 31.4594013982805  47.1380755187568 34.91167425596  47.1380755187568 34.91167425596  C 47.1380755187568 34.91167425596  46.4796021192119 35.794221712323  46.4796021192119 35.794221712323  C 46.4796021192119 35.794221712323  43.6011751903677 35.1539498667034  43.6011751903677 35.1539498667034  C 43.6011751903677 35.1539498667034  41.7668812572056 36.9139659686784  41.7668812572056 36.9139659686784  C 41.7668812572056 36.9139659686784  43.0658511866491 39.4353644917703  43.0658511866491 39.4353644917703  C 43.0658511866491 39.4353644917703  39.5234463129036 42.6992883088258  39.5234463129036 42.6992883088258  C 39.5234463129036 42.6992883088258  40.1737944112406 43.9626253546479  40.1737944112406 43.9626253546479  C 40.1737944112406 43.9626253546479  36.765679540862 45.7090959117266  36.765679540862 45.7090959117266  C 36.765679540862 45.7090959117266  37.2811401487886 48.1051491746739  37.2811401487886 48.1051491746739  C 37.2811401487886 48.1051491746739  36.0980966413351 49.3611824654989  36.0980966413351 49.3611824654989  C 36.0980966413351 49.3611824654989  31.3896200276713 49.3469368493179  31.3896200276713 49.3469368493179  C 31.3896200276713 49.3469368493179  28.8931345139313 51.4826575813198  28.8931345139313 51.4826575813198  C 28.8931345139313 51.4826575813198  28.4985840318761 52.3598548065718  28.4985840318761 52.3598548065718  C 28.4985840318761 52.3598548065718  30.7194268239618 53.8765280624069  30.7194268239618 53.8765280624069  C 30.7194268239618 53.8765280624069  28.2236677011758 57.5248402042459  28.2236677011758 57.5248402042459  C 28.2236677011758 57.5248402042459  24.6419453928586 61.4158162021334  24.6419453928586 61.4158162021334  C 24.6419453928586 61.4158162021334  23.3366051715259 61.035915536313  23.3366051715259 61.035915536313  C 23.3366051715259 61.035915536313  19.922725335053 64.4275948965814  19.922725335053 64.4275948965814  C 19.922725335053 64.4275948965814  16.1532536104814 56.4781712683334  16.1532536104814 56.4781712683334  C 16.1532536104814 56.4781712683334  12.7592423956346 52.3122350266964  12.7592423956346 52.3122350266964  C 12.7592423956346 52.3122350266964  10.5366367554791 52.559365460515  10.5366367554791 52.559365460515  C 10.5366367554791 52.559365460515  8.97226499746739 51.4188729183159  8.97226499746739 51.4188729183159  Z " stroke-width="0.97600957434184" stroke="#47b3fe" fill="none" transform="matrix(1 0 0 1 1106 782 )" mask="url(#clip1792)" />
  </g>
</svg>