<?xml version="1.0" encoding="utf-8"?>
<svg version="1.1" xmlns:xlink="http://www.w3.org/1999/xlink" width="76px" height="63px" xmlns="http://www.w3.org/2000/svg">
  <defs>
    <mask fill="white" id="clip1793">
      <path d="M 29.1065547136766 21.1574930386798  C 29.1065547136766 21.1574930386798  21.4906660914221 20.8843542133852  21.4906660914221 20.8843542133852  C 21.4906660914221 20.8843542133852  19.6411438571567 25.8969933291681  19.6411438571567 25.8969933291681  C 19.6411438571567 25.8969933291681  16.4871812713725 26.8902802282579  16.4871812713725 26.8902802282579  C 16.4871812713725 26.8902802282579  9.53221661821862 25.8666166678761  9.53221661821862 25.8666166678761  C 9.53221661821862 25.8666166678761  7.95528424512634 27.3677746386264  7.95528424512634 27.3677746386264  C 7.95528424512634 27.3677746386264  4.14729101419903 26.2266907047738  4.14729101419903 26.2266907047738  C 4.14729101419903 26.2266907047738  0.726848300832103 30.7332271332857  0.726848300832103 30.7332271332857  C 0.726848300832103 30.7332271332857  2.29347868818911 32.671712426128  2.29347868818911 32.671712426128  C 2.29347868818911 32.671712426128  2.28446084720338 35.6826034131598  2.28446084720338 35.6826034131598  C 2.28446084720338 35.6826034131598  3.84898680959327 38.323717436774  3.84898680959327 38.323717436774  C 3.84898680959327 38.323717436774  10.8129824072506 36.3321149868938  10.8129824072506 36.3321149868938  C 10.8129824072506 36.3321149868938  12.910397865809 38.0954427246959  12.910397865809 38.0954427246959  C 12.910397865809 38.0954427246959  9.7223408001413 50.7639192409429  9.7223408001413 50.7639192409429  C 9.7223408001413 50.7639192409429  13.909069375386 54.6624306910036  13.909069375386 54.6624306910036  C 13.909069375386 54.6624306910036  12.5769080950668 61.940281834461  12.5769080950668 61.940281834461  C 12.5769080950668 61.940281834461  16.6461112186964 62.2027631031668  16.6461112186964 62.2027631031668  C 16.6461112186964 62.2027631031668  21.1208262885902 58.3241536337803  21.1208262885902 58.3241536337803  C 21.1208262885902 58.3241536337803  22.9571742460071 59.4601879158207  22.9571742460071 59.4601879158207  C 22.9571742460071 59.4601879158207  31.4765408149151 62.8747115460347  31.4765408149151 62.8747115460347  C 31.4765408149151 62.8747115460347  33.0515836607331 62.0044319250809  33.0515836607331 62.0044319250809  C 33.0515836607331 62.0044319250809  33.3219301996496 59.2419547570605  33.3219301996496 59.2419547570605  C 33.3219301996496 59.2419547570605  34.9032277913223 57.741684916026  34.9032277913223 57.741684916026  C 34.9032277913223 57.741684916026  47.4291609213915 50.2480917520357  47.4291609213915 50.2480917520357  C 47.4291609213915 50.2480917520357  49.5185744983814 52.6414044598909  49.5185744983814 52.6414044598909  C 49.5185744983814 52.6414044598909  56.8623930323381 54.7941276402794  56.8623930323381 54.7941276402794  C 56.8623930323381 54.7941276402794  60.9477580348864 49.6604552568421  60.9477580348864 49.6604552568421  C 60.9477580348864 49.6604552568421  62.7837181281748 50.9259902264968  62.7837181281748 50.9259902264968  C 62.7837181281748 50.9259902264968  65.669986327056 50.9346632725483  65.669986327056 50.9346632725483  C 65.669986327056 50.9346632725483  65.6745096614184 49.4244052534792  65.6745096614184 49.4244052534792  C 65.6745096614184 49.4244052534792  69.4852738495877 48.1819634064428  69.4852738495877 48.1819634064428  C 69.4852738495877 48.1819634064428  69.4886545571933 47.0532074130481  69.4886545571933 47.0532074130481  C 69.4886545571933 47.0532074130481  71.0655895509892 45.5511744376519  71.0655895509892 45.5511744376519  C 71.0655895509892 45.5511744376519  71.9838255530153 45.8068122950209  71.9838255530153 45.8068122950209  C 71.9838255530153 45.8068122950209  75.8026125883814 42.1773603985949  75.8026125883814 42.1773603985949  C 75.8026125883814 42.1773603985949  72.6695702056318 36.7691185572666  72.6695702056318 36.7691185572666  C 72.6695702056318 36.7691185572666  74.2658093019272 28.8218013591221  74.2658093019272 28.8218013591221  C 74.2658093019272 28.8218013591221  72.3039340113269 26.4297469079481  72.3039340113269 26.4297469079481  C 72.3039340113269 26.4297469079481  66.6561754255272 27.9186723137467  66.6561754255272 27.9186723137467  C 66.6561754255272 27.9186723137467  66.002762392859 27.0364462543605  66.002762392859 27.0364462543605  C 66.002762392859 27.0364462543605  72.3219775554094 20.4053399199464  72.3219775554094 20.4053399199464  C 72.3219775554094 20.4053399199464  69.5983187716652 9.85500465046709  69.5983187716652 9.85500465046709  C 69.5983187716652 9.85500465046709  65.3891892958684 12.8523995658383  65.3891892958684 12.8523995658383  C 65.3891892958684 12.8523995658383  61.7241100191784 9.2039591935885  61.7241100191784 9.2039591935885  C 61.7241100191784 9.2039591935885  58.1944547259218 4.67391314024667  58.1944547259218 4.67391314024667  C 58.1944547259218 4.67391314024667  57.9406526886453 1.91248597780157  57.9406526886453 1.91248597780157  C 57.9406526886453 1.91248597780157  55.4507388241855 1.40362177586769  55.4507388241855 1.40362177586769  C 55.4507388241855 1.40362177586769  52.5592292181636 2.26994550081668  52.5592292181636 2.26994550081668  C 52.5592292181636 2.26994550081668  47.8387428203007 0.122480223346315  47.8387428203007 0.122480223346315  C 47.8387428203007 0.122480223346315  45.5939695678171 5.2669335390276  45.5939695678171 5.2669335390276  C 45.5939695678171 5.2669335390276  41.5223912131848 5.50582730749011  41.5223912131848 5.50582730749011  C 41.5223912131848 5.50582730749011  38.6215920865739 9.76542167480534  38.6215920865739 9.76542167480534  C 38.6215920865739 9.76542167480534  36.3634191767349 8.88362349269107  36.3634191767349 8.88362349269107  C 36.3634191767349 8.88362349269107  33.4719095707128 9.74994721764006  33.4719095707128 9.74994721764006  C 33.4719095707128 9.74994721764006  29.1487856045781 7.34904734449913  29.1487856045781 7.34904734449913  C 29.1487856045781 7.34904734449913  25.5930639200424 11.2304183285486  25.5930639200424 11.2304183285486  C 25.5930639200424 11.2304183285486  25.5878041679764 12.9865526531556  25.5878041679764 12.9865526531556  C 25.5878041679764 12.9865526531556  32.5339938320087 16.6483525963413  32.5339938320087 16.6483525963413  C 32.5339938320087 16.6483525963413  34.0981424130844 19.4154672889856  34.0981424130844 19.4154672889856  C 34.0981424130844 19.4154672889856  29.1065547136766 21.1574930386798  29.1065547136766 21.1574930386798  Z " fill-rule="evenodd" />
    </mask>
  </defs>
  <g transform="matrix(1 0 0 1 -950 -783 )">
    <path d="M 29.1065547136766 21.1574930386798  C 29.1065547136766 21.1574930386798  21.4906660914221 20.8843542133852  21.4906660914221 20.8843542133852  C 21.4906660914221 20.8843542133852  19.6411438571567 25.8969933291681  19.6411438571567 25.8969933291681  C 19.6411438571567 25.8969933291681  16.4871812713725 26.8902802282579  16.4871812713725 26.8902802282579  C 16.4871812713725 26.8902802282579  9.53221661821862 25.8666166678761  9.53221661821862 25.8666166678761  C 9.53221661821862 25.8666166678761  7.95528424512634 27.3677746386264  7.95528424512634 27.3677746386264  C 7.95528424512634 27.3677746386264  4.14729101419903 26.2266907047738  4.14729101419903 26.2266907047738  C 4.14729101419903 26.2266907047738  0.726848300832103 30.7332271332857  0.726848300832103 30.7332271332857  C 0.726848300832103 30.7332271332857  2.29347868818911 32.671712426128  2.29347868818911 32.671712426128  C 2.29347868818911 32.671712426128  2.28446084720338 35.6826034131598  2.28446084720338 35.6826034131598  C 2.28446084720338 35.6826034131598  3.84898680959327 38.323717436774  3.84898680959327 38.323717436774  C 3.84898680959327 38.323717436774  10.8129824072506 36.3321149868938  10.8129824072506 36.3321149868938  C 10.8129824072506 36.3321149868938  12.910397865809 38.0954427246959  12.910397865809 38.0954427246959  C 12.910397865809 38.0954427246959  9.7223408001413 50.7639192409429  9.7223408001413 50.7639192409429  C 9.7223408001413 50.7639192409429  13.909069375386 54.6624306910036  13.909069375386 54.6624306910036  C 13.909069375386 54.6624306910036  12.5769080950668 61.940281834461  12.5769080950668 61.940281834461  C 12.5769080950668 61.940281834461  16.6461112186964 62.2027631031668  16.6461112186964 62.2027631031668  C 16.6461112186964 62.2027631031668  21.1208262885902 58.3241536337803  21.1208262885902 58.3241536337803  C 21.1208262885902 58.3241536337803  22.9571742460071 59.4601879158207  22.9571742460071 59.4601879158207  C 22.9571742460071 59.4601879158207  31.4765408149151 62.8747115460347  31.4765408149151 62.8747115460347  C 31.4765408149151 62.8747115460347  33.0515836607331 62.0044319250809  33.0515836607331 62.0044319250809  C 33.0515836607331 62.0044319250809  33.3219301996496 59.2419547570605  33.3219301996496 59.2419547570605  C 33.3219301996496 59.2419547570605  34.9032277913223 57.741684916026  34.9032277913223 57.741684916026  C 34.9032277913223 57.741684916026  47.4291609213915 50.2480917520357  47.4291609213915 50.2480917520357  C 47.4291609213915 50.2480917520357  49.5185744983814 52.6414044598909  49.5185744983814 52.6414044598909  C 49.5185744983814 52.6414044598909  56.8623930323381 54.7941276402794  56.8623930323381 54.7941276402794  C 56.8623930323381 54.7941276402794  60.9477580348864 49.6604552568421  60.9477580348864 49.6604552568421  C 60.9477580348864 49.6604552568421  62.7837181281748 50.9259902264968  62.7837181281748 50.9259902264968  C 62.7837181281748 50.9259902264968  65.669986327056 50.9346632725483  65.669986327056 50.9346632725483  C 65.669986327056 50.9346632725483  65.6745096614184 49.4244052534792  65.6745096614184 49.4244052534792  C 65.6745096614184 49.4244052534792  69.4852738495877 48.1819634064428  69.4852738495877 48.1819634064428  C 69.4852738495877 48.1819634064428  69.4886545571933 47.0532074130481  69.4886545571933 47.0532074130481  C 69.4886545571933 47.0532074130481  71.0655895509892 45.5511744376519  71.0655895509892 45.5511744376519  C 71.0655895509892 45.5511744376519  71.9838255530153 45.8068122950209  71.9838255530153 45.8068122950209  C 71.9838255530153 45.8068122950209  75.8026125883814 42.1773603985949  75.8026125883814 42.1773603985949  C 75.8026125883814 42.1773603985949  72.6695702056318 36.7691185572666  72.6695702056318 36.7691185572666  C 72.6695702056318 36.7691185572666  74.2658093019272 28.8218013591221  74.2658093019272 28.8218013591221  C 74.2658093019272 28.8218013591221  72.3039340113269 26.4297469079481  72.3039340113269 26.4297469079481  C 72.3039340113269 26.4297469079481  66.6561754255272 27.9186723137467  66.6561754255272 27.9186723137467  C 66.6561754255272 27.9186723137467  66.002762392859 27.0364462543605  66.002762392859 27.0364462543605  C 66.002762392859 27.0364462543605  72.3219775554094 20.4053399199464  72.3219775554094 20.4053399199464  C 72.3219775554094 20.4053399199464  69.5983187716652 9.85500465046709  69.5983187716652 9.85500465046709  C 69.5983187716652 9.85500465046709  65.3891892958684 12.8523995658383  65.3891892958684 12.8523995658383  C 65.3891892958684 12.8523995658383  61.7241100191784 9.2039591935885  61.7241100191784 9.2039591935885  C 61.7241100191784 9.2039591935885  58.1944547259218 4.67391314024667  58.1944547259218 4.67391314024667  C 58.1944547259218 4.67391314024667  57.9406526886453 1.91248597780157  57.9406526886453 1.91248597780157  C 57.9406526886453 1.91248597780157  55.4507388241855 1.40362177586769  55.4507388241855 1.40362177586769  C 55.4507388241855 1.40362177586769  52.5592292181636 2.26994550081668  52.5592292181636 2.26994550081668  C 52.5592292181636 2.26994550081668  47.8387428203007 0.122480223346315  47.8387428203007 0.122480223346315  C 47.8387428203007 0.122480223346315  45.5939695678171 5.2669335390276  45.5939695678171 5.2669335390276  C 45.5939695678171 5.2669335390276  41.5223912131848 5.50582730749011  41.5223912131848 5.50582730749011  C 41.5223912131848 5.50582730749011  38.6215920865739 9.76542167480534  38.6215920865739 9.76542167480534  C 38.6215920865739 9.76542167480534  36.3634191767349 8.88362349269107  36.3634191767349 8.88362349269107  C 36.3634191767349 8.88362349269107  33.4719095707128 9.74994721764006  33.4719095707128 9.74994721764006  C 33.4719095707128 9.74994721764006  29.1487856045781 7.34904734449913  29.1487856045781 7.34904734449913  C 29.1487856045781 7.34904734449913  25.5930639200424 11.2304183285486  25.5930639200424 11.2304183285486  C 25.5930639200424 11.2304183285486  25.5878041679764 12.9865526531556  25.5878041679764 12.9865526531556  C 25.5878041679764 12.9865526531556  32.5339938320087 16.6483525963413  32.5339938320087 16.6483525963413  C 32.5339938320087 16.6483525963413  34.0981424130844 19.4154672889856  34.0981424130844 19.4154672889856  C 34.0981424130844 19.4154672889856  29.1065547136766 21.1574930386798  29.1065547136766 21.1574930386798  Z " fill-rule="nonzero" fill="#031e4b" stroke="none" transform="matrix(1 0 0 1 950 783 )" />
    <path d="M 29.1065547136766 21.1574930386798  C 29.1065547136766 21.1574930386798  21.4906660914221 20.8843542133852  21.4906660914221 20.8843542133852  C 21.4906660914221 20.8843542133852  19.6411438571567 25.8969933291681  19.6411438571567 25.8969933291681  C 19.6411438571567 25.8969933291681  16.4871812713725 26.8902802282579  16.4871812713725 26.8902802282579  C 16.4871812713725 26.8902802282579  9.53221661821862 25.8666166678761  9.53221661821862 25.8666166678761  C 9.53221661821862 25.8666166678761  7.95528424512634 27.3677746386264  7.95528424512634 27.3677746386264  C 7.95528424512634 27.3677746386264  4.14729101419903 26.2266907047738  4.14729101419903 26.2266907047738  C 4.14729101419903 26.2266907047738  0.726848300832103 30.7332271332857  0.726848300832103 30.7332271332857  C 0.726848300832103 30.7332271332857  2.29347868818911 32.671712426128  2.29347868818911 32.671712426128  C 2.29347868818911 32.671712426128  2.28446084720338 35.6826034131598  2.28446084720338 35.6826034131598  C 2.28446084720338 35.6826034131598  3.84898680959327 38.323717436774  3.84898680959327 38.323717436774  C 3.84898680959327 38.323717436774  10.8129824072506 36.3321149868938  10.8129824072506 36.3321149868938  C 10.8129824072506 36.3321149868938  12.910397865809 38.0954427246959  12.910397865809 38.0954427246959  C 12.910397865809 38.0954427246959  9.7223408001413 50.7639192409429  9.7223408001413 50.7639192409429  C 9.7223408001413 50.7639192409429  13.909069375386 54.6624306910036  13.909069375386 54.6624306910036  C 13.909069375386 54.6624306910036  12.5769080950668 61.940281834461  12.5769080950668 61.940281834461  C 12.5769080950668 61.940281834461  16.6461112186964 62.2027631031668  16.6461112186964 62.2027631031668  C 16.6461112186964 62.2027631031668  21.1208262885902 58.3241536337803  21.1208262885902 58.3241536337803  C 21.1208262885902 58.3241536337803  22.9571742460071 59.4601879158207  22.9571742460071 59.4601879158207  C 22.9571742460071 59.4601879158207  31.4765408149151 62.8747115460347  31.4765408149151 62.8747115460347  C 31.4765408149151 62.8747115460347  33.0515836607331 62.0044319250809  33.0515836607331 62.0044319250809  C 33.0515836607331 62.0044319250809  33.3219301996496 59.2419547570605  33.3219301996496 59.2419547570605  C 33.3219301996496 59.2419547570605  34.9032277913223 57.741684916026  34.9032277913223 57.741684916026  C 34.9032277913223 57.741684916026  47.4291609213915 50.2480917520357  47.4291609213915 50.2480917520357  C 47.4291609213915 50.2480917520357  49.5185744983814 52.6414044598909  49.5185744983814 52.6414044598909  C 49.5185744983814 52.6414044598909  56.8623930323381 54.7941276402794  56.8623930323381 54.7941276402794  C 56.8623930323381 54.7941276402794  60.9477580348864 49.6604552568421  60.9477580348864 49.6604552568421  C 60.9477580348864 49.6604552568421  62.7837181281748 50.9259902264968  62.7837181281748 50.9259902264968  C 62.7837181281748 50.9259902264968  65.669986327056 50.9346632725483  65.669986327056 50.9346632725483  C 65.669986327056 50.9346632725483  65.6745096614184 49.4244052534792  65.6745096614184 49.4244052534792  C 65.6745096614184 49.4244052534792  69.4852738495877 48.1819634064428  69.4852738495877 48.1819634064428  C 69.4852738495877 48.1819634064428  69.4886545571933 47.0532074130481  69.4886545571933 47.0532074130481  C 69.4886545571933 47.0532074130481  71.0655895509892 45.5511744376519  71.0655895509892 45.5511744376519  C 71.0655895509892 45.5511744376519  71.9838255530153 45.8068122950209  71.9838255530153 45.8068122950209  C 71.9838255530153 45.8068122950209  75.8026125883814 42.1773603985949  75.8026125883814 42.1773603985949  C 75.8026125883814 42.1773603985949  72.6695702056318 36.7691185572666  72.6695702056318 36.7691185572666  C 72.6695702056318 36.7691185572666  74.2658093019272 28.8218013591221  74.2658093019272 28.8218013591221  C 74.2658093019272 28.8218013591221  72.3039340113269 26.4297469079481  72.3039340113269 26.4297469079481  C 72.3039340113269 26.4297469079481  66.6561754255272 27.9186723137467  66.6561754255272 27.9186723137467  C 66.6561754255272 27.9186723137467  66.002762392859 27.0364462543605  66.002762392859 27.0364462543605  C 66.002762392859 27.0364462543605  72.3219775554094 20.4053399199464  72.3219775554094 20.4053399199464  C 72.3219775554094 20.4053399199464  69.5983187716652 9.85500465046709  69.5983187716652 9.85500465046709  C 69.5983187716652 9.85500465046709  65.3891892958684 12.8523995658383  65.3891892958684 12.8523995658383  C 65.3891892958684 12.8523995658383  61.7241100191784 9.2039591935885  61.7241100191784 9.2039591935885  C 61.7241100191784 9.2039591935885  58.1944547259218 4.67391314024667  58.1944547259218 4.67391314024667  C 58.1944547259218 4.67391314024667  57.9406526886453 1.91248597780157  57.9406526886453 1.91248597780157  C 57.9406526886453 1.91248597780157  55.4507388241855 1.40362177586769  55.4507388241855 1.40362177586769  C 55.4507388241855 1.40362177586769  52.5592292181636 2.26994550081668  52.5592292181636 2.26994550081668  C 52.5592292181636 2.26994550081668  47.8387428203007 0.122480223346315  47.8387428203007 0.122480223346315  C 47.8387428203007 0.122480223346315  45.5939695678171 5.2669335390276  45.5939695678171 5.2669335390276  C 45.5939695678171 5.2669335390276  41.5223912131848 5.50582730749011  41.5223912131848 5.50582730749011  C 41.5223912131848 5.50582730749011  38.6215920865739 9.76542167480534  38.6215920865739 9.76542167480534  C 38.6215920865739 9.76542167480534  36.3634191767349 8.88362349269107  36.3634191767349 8.88362349269107  C 36.3634191767349 8.88362349269107  33.4719095707128 9.74994721764006  33.4719095707128 9.74994721764006  C 33.4719095707128 9.74994721764006  29.1487856045781 7.34904734449913  29.1487856045781 7.34904734449913  C 29.1487856045781 7.34904734449913  25.5930639200424 11.2304183285486  25.5930639200424 11.2304183285486  C 25.5930639200424 11.2304183285486  25.5878041679764 12.9865526531556  25.5878041679764 12.9865526531556  C 25.5878041679764 12.9865526531556  32.5339938320087 16.6483525963413  32.5339938320087 16.6483525963413  C 32.5339938320087 16.6483525963413  34.0981424130844 19.4154672889856  34.0981424130844 19.4154672889856  C 34.0981424130844 19.4154672889856  29.1065547136766 21.1574930386798  29.1065547136766 21.1574930386798  Z " stroke-width="0.97600957434184" stroke="#47b3fe" fill="none" transform="matrix(1 0 0 1 950 783 )" mask="url(#clip1793)" />
  </g>
</svg>