<?xml version="1.0" encoding="utf-8"?>
<svg version="1.1" xmlns:xlink="http://www.w3.org/1999/xlink" width="98px" height="68px" xmlns="http://www.w3.org/2000/svg">
  <defs>
    <mask fill="white" id="clip1789">
      <path d="M 0.0617849066013605 27.6070638555241  C 0.0617849066013605 27.6070638555241  0.34530478701663 25.8581939541045  0.34530478701663 25.8581939541045  C 0.34530478701663 25.8581939541045  4.42119280389988 26.1223291514641  4.42119280389988 26.1223291514641  C 4.42119280389988 26.1223291514641  8.90326497751312 22.2587988422721  8.90326497751312 22.2587988422721  C 8.90326497751312 22.2587988422721  10.742641119112 23.3880564280737  10.742641119112 23.3880564280737  C 10.742641119112 23.3880564280737  19.2760198040874 26.7900726457227  19.2760198040874 26.7900726457227  C 19.2760198040874 26.7900726457227  20.8536531809018 25.9229808622084  20.8536531809018 25.9229808622084  C 20.8536531809018 25.9229808622084  21.1244364936892 23.1732380566759  21.1244364936892 23.1732380566759  C 21.1244364936892 23.1732380566759  22.7083375287832 21.6775919100637  22.7083375287832 21.6775919100637  C 22.7083375287832 21.6775919100637  34.8278702552846 14.2101714908131  34.8278702552846 14.2101714908131  C 34.8278702552846 14.2101714908131  36.920717742749 16.5955892849533  36.920717742749 16.5955892849533  C 36.920717742749 16.5955892849533  44.2766123005963 18.7412988319475  44.2766123005963 18.7412988319475  C 44.2766123005963 18.7412988319475  48.3695690331099 13.6273055241546  48.3695690331099 13.6273055241546  C 48.3695690331099 13.6273055241546  50.6303062870245 14.8877218576564  50.6303062870245 14.8877218576564  C 50.6303062870245 14.8877218576564  53.5178216189643 14.8963526727144  53.5178216189643 14.8963526727144  C 53.5178216189643 14.8963526727144  53.5223523930215 13.3916267343012  53.5223523930215 13.3916267343012  C 53.5223523930215 13.3916267343012  57.3411395447677 12.1519975880971  57.3411395447677 12.1519975880971  C 57.3411395447677 12.1519975880971  57.3445205627199 11.0291198310424  57.3445205627199 11.0291198310424  C 57.3445205627199 11.0291198310424  58.9240465745836 9.53346060743775  58.9240465745836 9.53346060743775  C 58.9240465745836 9.53346060743775  59.8437954582062 9.78729026289818  59.8437954582062 9.78729026289818  C 59.8437954582062 9.78729026289818  63.6688581432734 6.17287666106506  63.6688581432734 6.17287666106506  C 63.6688581432734 6.17287666106506  66.821499882964 7.05410728888364  66.821499882964 7.05410728888364  C 66.821499882964 7.05410728888364  69.9839434246996 2.93642388661647  69.9839434246996 2.93642388661647  C 69.9839434246996 2.93642388661647  71.5570302773733 6.1947108795631  71.5570302773733 6.1947108795631  C 71.5570302773733 6.1947108795631  72.4791635486561 5.9472584374513  72.4791635486561 5.9472584374513  C 72.4791635486561 5.9472584374513  77.4881232699024 1.4593453257728  77.4881232699024 1.4593453257728  C 77.4881232699024 1.4593453257728  78.7998689849239 1.71609027876389  78.7998689849239 1.71609027876389  C 78.7998689849239 1.71609027876389  81.0362749846461 0.595528021183554  81.0362749846461 0.595528021183554  C 81.0362749846461 0.595528021183554  85.1121525014735 1.7349577635606  85.1121525014735 1.7349577635606  C 85.1121525014735 1.7349577635606  85.0993555585251 5.98498033005217  85.0993555585251 5.98498033005217  C 85.0993555585251 5.98498033005217  88.2536151818065 6.61949431453763  88.2536151818065 6.61949431453763  C 88.2536151818065 6.61949431453763  87.3180663392905 10.7412185074911  87.3180663392905 10.7412185074911  C 87.3180663392905 10.7412185074911  84.4117375324561 15.2371600207725  84.4117375324561 15.2371600207725  C 84.4117375324561 15.2371600207725  83.0875702514793 19.1057703056558  83.0875702514793 19.1057703056558  C 83.0875702514793 19.1057703056558  84.4000772205429 19.1096934034096  84.4000772205429 19.1096934034096  C 84.4000772205429 19.1096934034096  87.8286280502375 16.1200522984398  87.8286280502375 16.1200522984398  C 87.8286280502375 16.1200522984398  90.7024530594854 22.1284203551252  90.7024530594854 22.1284203551252  C 90.7024530594854 22.1284203551252  92.9434799587434 20.6356101722891  92.9434799587434 20.6356101722891  C 92.9434799587434 20.6356101722891  95.4416182231942 20.6430771350136  95.4416182231942 20.6430771350136  C 95.4416182231942 20.6430771350136  97.2610573839331 26.6500372355052  97.2610573839331 26.6500372355052  C 97.2610573839331 26.6500372355052  95.4160138372417 29.146609466  95.4160138372417 29.146609466  C 95.4160138372417 29.146609466  95.6706086890729 31.7732541820168  95.6706086890729 31.7732541820168  C 95.6706086890729 31.7732541820168  89.9952218042752 39.0568051121488  89.9952218042752 39.0568051121488  C 89.9952218042752 39.0568051121488  90.3645166401327 46.3087306435891  90.3645166401327 46.3087306435891  C 90.3645166401327 46.3087306435891  82.9851614577158 51.6639813862412  82.9851614577158 51.6639813862412  C 82.9851614577158 51.6639813862412  82.4466083481418 56.1626411703662  82.4466083481418 56.1626411703662  C 82.4466083481418 56.1626411703662  78.2321843456691 58.0270454288323  78.2321843456691 58.0270454288323  C 78.2321843456691 58.0270454288323  78.6180325194205 60.6532106551236  78.6180325194205 60.6532106551236  C 78.6180325194205 60.6532106551236  74.537885854925 61.5128223989209  74.537885854925 61.5128223989209  C 74.537885854925 61.5128223989209  71.373169051119 66.3854841688972  71.373169051119 66.3854841688972  C 71.373169051119 66.3854841688972  63.0852387944096 67.4853429319322  63.0852387944096 67.4853429319322  C 63.0852387944096 67.4853429319322  58.7524957886944 64.4733750417465  58.7524957886944 64.4733750417465  C 58.7524957886944 64.4733750417465  54.29087072365 62.7085782352465  54.29087072365 62.7085782352465  C 54.29087072365 62.7085782352465  49.8050447801052 66.9469744835951  49.8050447801052 66.9469744835951  C 49.8050447801052 66.9469744835951  44.7817594827936 67.1839121519276  44.7817594827936 67.1839121519276  C 44.7817594827936 67.1839121519276  40.3018704457722 67.4163713862243  40.3018704457722 67.4163713862243  C 40.3018704457722 67.4163713862243  30.1951222816226 62.0123417179026  30.1951222816226 62.0123417179026  C 30.1951222816226 62.0123417179026  28.3719267259382 57.2529267030827  28.3719267259382 57.2529267030827  C 28.3719267259382 57.2529267030827  30.8821400545046 52.3783086150266  30.8821400545046 52.3783086150266  C 30.8821400545046 52.3783086150266  28.0006491295528 50.3688979455894  28.0006491295528 50.3688979455894  C 28.0006491295528 50.3688979455894  24.184753868162 50.3574921927202  24.184753868162 50.3574921927202  C 24.184753868162 50.3574921927202  23.2681322511446 49.3556611809558  23.2681322511446 49.3556611809558  C 23.2681322511446 49.3556611809558  19.1867273299681 50.3425530364742  19.1867273299681 50.3425530364742  C 19.1867273299681 50.3425530364742  15.1192349826636 47.5807148846673  15.1192349826636 47.5807148846673  C 15.1192349826636 47.5807148846673  16.7131653210104 43.3354183432698  16.7131653210104 43.3354183432698  C 16.7131653210104 43.3354183432698  19.8639380507773 43.0937555216428  19.8639380507773 43.0937555216428  C 19.8639380507773 43.0937555216428  21.0486943415185 42.2254894242009  21.0486943415185 42.2254894242009  C 21.0486943415185 42.2254894242009  22.1103759787663 38.3508637227619  22.1103759787663 38.3508637227619  C 22.1103759787663 38.3508637227619  20.8042687936838 36.221493442012  20.8042687936838 36.221493442012  C 20.8042687936838 36.221493442012  10.0272329454847 34.3140231600051  10.0272329454847 34.3140231600051  C 10.0272329454847 34.3140231600051  8.20004211858645 30.8814869854314  8.20004211858645 30.8814869854314  C 8.20004211858645 30.8814869854314  2.15201000514162 30.8634093509824  2.15201000514162 30.8634093509824  C 2.15201000514162 30.8634093509824  0.0617849066013605 27.6070638555241  0.0617849066013605 27.6070638555241  Z " fill-rule="evenodd" />
    </mask>
  </defs>
  <g transform="matrix(1 0 0 1 -963 -818 )">
    <path d="M 0.0617849066013605 27.6070638555241  C 0.0617849066013605 27.6070638555241  0.34530478701663 25.8581939541045  0.34530478701663 25.8581939541045  C 0.34530478701663 25.8581939541045  4.42119280389988 26.1223291514641  4.42119280389988 26.1223291514641  C 4.42119280389988 26.1223291514641  8.90326497751312 22.2587988422721  8.90326497751312 22.2587988422721  C 8.90326497751312 22.2587988422721  10.742641119112 23.3880564280737  10.742641119112 23.3880564280737  C 10.742641119112 23.3880564280737  19.2760198040874 26.7900726457227  19.2760198040874 26.7900726457227  C 19.2760198040874 26.7900726457227  20.8536531809018 25.9229808622084  20.8536531809018 25.9229808622084  C 20.8536531809018 25.9229808622084  21.1244364936892 23.1732380566759  21.1244364936892 23.1732380566759  C 21.1244364936892 23.1732380566759  22.7083375287832 21.6775919100637  22.7083375287832 21.6775919100637  C 22.7083375287832 21.6775919100637  34.8278702552846 14.2101714908131  34.8278702552846 14.2101714908131  C 34.8278702552846 14.2101714908131  36.920717742749 16.5955892849533  36.920717742749 16.5955892849533  C 36.920717742749 16.5955892849533  44.2766123005963 18.7412988319475  44.2766123005963 18.7412988319475  C 44.2766123005963 18.7412988319475  48.3695690331099 13.6273055241546  48.3695690331099 13.6273055241546  C 48.3695690331099 13.6273055241546  50.6303062870245 14.8877218576564  50.6303062870245 14.8877218576564  C 50.6303062870245 14.8877218576564  53.5178216189643 14.8963526727144  53.5178216189643 14.8963526727144  C 53.5178216189643 14.8963526727144  53.5223523930215 13.3916267343012  53.5223523930215 13.3916267343012  C 53.5223523930215 13.3916267343012  57.3411395447677 12.1519975880971  57.3411395447677 12.1519975880971  C 57.3411395447677 12.1519975880971  57.3445205627199 11.0291198310424  57.3445205627199 11.0291198310424  C 57.3445205627199 11.0291198310424  58.9240465745836 9.53346060743775  58.9240465745836 9.53346060743775  C 58.9240465745836 9.53346060743775  59.8437954582062 9.78729026289818  59.8437954582062 9.78729026289818  C 59.8437954582062 9.78729026289818  63.6688581432734 6.17287666106506  63.6688581432734 6.17287666106506  C 63.6688581432734 6.17287666106506  66.821499882964 7.05410728888364  66.821499882964 7.05410728888364  C 66.821499882964 7.05410728888364  69.9839434246996 2.93642388661647  69.9839434246996 2.93642388661647  C 69.9839434246996 2.93642388661647  71.5570302773733 6.1947108795631  71.5570302773733 6.1947108795631  C 71.5570302773733 6.1947108795631  72.4791635486561 5.9472584374513  72.4791635486561 5.9472584374513  C 72.4791635486561 5.9472584374513  77.4881232699024 1.4593453257728  77.4881232699024 1.4593453257728  C 77.4881232699024 1.4593453257728  78.7998689849239 1.71609027876389  78.7998689849239 1.71609027876389  C 78.7998689849239 1.71609027876389  81.0362749846461 0.595528021183554  81.0362749846461 0.595528021183554  C 81.0362749846461 0.595528021183554  85.1121525014735 1.7349577635606  85.1121525014735 1.7349577635606  C 85.1121525014735 1.7349577635606  85.0993555585251 5.98498033005217  85.0993555585251 5.98498033005217  C 85.0993555585251 5.98498033005217  88.2536151818065 6.61949431453763  88.2536151818065 6.61949431453763  C 88.2536151818065 6.61949431453763  87.3180663392905 10.7412185074911  87.3180663392905 10.7412185074911  C 87.3180663392905 10.7412185074911  84.4117375324561 15.2371600207725  84.4117375324561 15.2371600207725  C 84.4117375324561 15.2371600207725  83.0875702514793 19.1057703056558  83.0875702514793 19.1057703056558  C 83.0875702514793 19.1057703056558  84.4000772205429 19.1096934034096  84.4000772205429 19.1096934034096  C 84.4000772205429 19.1096934034096  87.8286280502375 16.1200522984398  87.8286280502375 16.1200522984398  C 87.8286280502375 16.1200522984398  90.7024530594854 22.1284203551252  90.7024530594854 22.1284203551252  C 90.7024530594854 22.1284203551252  92.9434799587434 20.6356101722891  92.9434799587434 20.6356101722891  C 92.9434799587434 20.6356101722891  95.4416182231942 20.6430771350136  95.4416182231942 20.6430771350136  C 95.4416182231942 20.6430771350136  97.2610573839331 26.6500372355052  97.2610573839331 26.6500372355052  C 97.2610573839331 26.6500372355052  95.4160138372417 29.146609466  95.4160138372417 29.146609466  C 95.4160138372417 29.146609466  95.6706086890729 31.7732541820168  95.6706086890729 31.7732541820168  C 95.6706086890729 31.7732541820168  89.9952218042752 39.0568051121488  89.9952218042752 39.0568051121488  C 89.9952218042752 39.0568051121488  90.3645166401327 46.3087306435891  90.3645166401327 46.3087306435891  C 90.3645166401327 46.3087306435891  82.9851614577158 51.6639813862412  82.9851614577158 51.6639813862412  C 82.9851614577158 51.6639813862412  82.4466083481418 56.1626411703662  82.4466083481418 56.1626411703662  C 82.4466083481418 56.1626411703662  78.2321843456691 58.0270454288323  78.2321843456691 58.0270454288323  C 78.2321843456691 58.0270454288323  78.6180325194205 60.6532106551236  78.6180325194205 60.6532106551236  C 78.6180325194205 60.6532106551236  74.537885854925 61.5128223989209  74.537885854925 61.5128223989209  C 74.537885854925 61.5128223989209  71.373169051119 66.3854841688972  71.373169051119 66.3854841688972  C 71.373169051119 66.3854841688972  63.0852387944096 67.4853429319322  63.0852387944096 67.4853429319322  C 63.0852387944096 67.4853429319322  58.7524957886944 64.4733750417465  58.7524957886944 64.4733750417465  C 58.7524957886944 64.4733750417465  54.29087072365 62.7085782352465  54.29087072365 62.7085782352465  C 54.29087072365 62.7085782352465  49.8050447801052 66.9469744835951  49.8050447801052 66.9469744835951  C 49.8050447801052 66.9469744835951  44.7817594827936 67.1839121519276  44.7817594827936 67.1839121519276  C 44.7817594827936 67.1839121519276  40.3018704457722 67.4163713862243  40.3018704457722 67.4163713862243  C 40.3018704457722 67.4163713862243  30.1951222816226 62.0123417179026  30.1951222816226 62.0123417179026  C 30.1951222816226 62.0123417179026  28.3719267259382 57.2529267030827  28.3719267259382 57.2529267030827  C 28.3719267259382 57.2529267030827  30.8821400545046 52.3783086150266  30.8821400545046 52.3783086150266  C 30.8821400545046 52.3783086150266  28.0006491295528 50.3688979455894  28.0006491295528 50.3688979455894  C 28.0006491295528 50.3688979455894  24.184753868162 50.3574921927202  24.184753868162 50.3574921927202  C 24.184753868162 50.3574921927202  23.2681322511446 49.3556611809558  23.2681322511446 49.3556611809558  C 23.2681322511446 49.3556611809558  19.1867273299681 50.3425530364742  19.1867273299681 50.3425530364742  C 19.1867273299681 50.3425530364742  15.1192349826636 47.5807148846673  15.1192349826636 47.5807148846673  C 15.1192349826636 47.5807148846673  16.7131653210104 43.3354183432698  16.7131653210104 43.3354183432698  C 16.7131653210104 43.3354183432698  19.8639380507773 43.0937555216428  19.8639380507773 43.0937555216428  C 19.8639380507773 43.0937555216428  21.0486943415185 42.2254894242009  21.0486943415185 42.2254894242009  C 21.0486943415185 42.2254894242009  22.1103759787663 38.3508637227619  22.1103759787663 38.3508637227619  C 22.1103759787663 38.3508637227619  20.8042687936838 36.221493442012  20.8042687936838 36.221493442012  C 20.8042687936838 36.221493442012  10.0272329454847 34.3140231600051  10.0272329454847 34.3140231600051  C 10.0272329454847 34.3140231600051  8.20004211858645 30.8814869854314  8.20004211858645 30.8814869854314  C 8.20004211858645 30.8814869854314  2.15201000514162 30.8634093509824  2.15201000514162 30.8634093509824  C 2.15201000514162 30.8634093509824  0.0617849066013605 27.6070638555241  0.0617849066013605 27.6070638555241  Z " fill-rule="nonzero" fill="#031e4b" stroke="none" transform="matrix(1 0 0 1 963 818 )" />
    <path d="M 0.0617849066013605 27.6070638555241  C 0.0617849066013605 27.6070638555241  0.34530478701663 25.8581939541045  0.34530478701663 25.8581939541045  C 0.34530478701663 25.8581939541045  4.42119280389988 26.1223291514641  4.42119280389988 26.1223291514641  C 4.42119280389988 26.1223291514641  8.90326497751312 22.2587988422721  8.90326497751312 22.2587988422721  C 8.90326497751312 22.2587988422721  10.742641119112 23.3880564280737  10.742641119112 23.3880564280737  C 10.742641119112 23.3880564280737  19.2760198040874 26.7900726457227  19.2760198040874 26.7900726457227  C 19.2760198040874 26.7900726457227  20.8536531809018 25.9229808622084  20.8536531809018 25.9229808622084  C 20.8536531809018 25.9229808622084  21.1244364936892 23.1732380566759  21.1244364936892 23.1732380566759  C 21.1244364936892 23.1732380566759  22.7083375287832 21.6775919100637  22.7083375287832 21.6775919100637  C 22.7083375287832 21.6775919100637  34.8278702552846 14.2101714908131  34.8278702552846 14.2101714908131  C 34.8278702552846 14.2101714908131  36.920717742749 16.5955892849533  36.920717742749 16.5955892849533  C 36.920717742749 16.5955892849533  44.2766123005963 18.7412988319475  44.2766123005963 18.7412988319475  C 44.2766123005963 18.7412988319475  48.3695690331099 13.6273055241546  48.3695690331099 13.6273055241546  C 48.3695690331099 13.6273055241546  50.6303062870245 14.8877218576564  50.6303062870245 14.8877218576564  C 50.6303062870245 14.8877218576564  53.5178216189643 14.8963526727144  53.5178216189643 14.8963526727144  C 53.5178216189643 14.8963526727144  53.5223523930215 13.3916267343012  53.5223523930215 13.3916267343012  C 53.5223523930215 13.3916267343012  57.3411395447677 12.1519975880971  57.3411395447677 12.1519975880971  C 57.3411395447677 12.1519975880971  57.3445205627199 11.0291198310424  57.3445205627199 11.0291198310424  C 57.3445205627199 11.0291198310424  58.9240465745836 9.53346060743775  58.9240465745836 9.53346060743775  C 58.9240465745836 9.53346060743775  59.8437954582062 9.78729026289818  59.8437954582062 9.78729026289818  C 59.8437954582062 9.78729026289818  63.6688581432734 6.17287666106506  63.6688581432734 6.17287666106506  C 63.6688581432734 6.17287666106506  66.821499882964 7.05410728888364  66.821499882964 7.05410728888364  C 66.821499882964 7.05410728888364  69.9839434246996 2.93642388661647  69.9839434246996 2.93642388661647  C 69.9839434246996 2.93642388661647  71.5570302773733 6.1947108795631  71.5570302773733 6.1947108795631  C 71.5570302773733 6.1947108795631  72.4791635486561 5.9472584374513  72.4791635486561 5.9472584374513  C 72.4791635486561 5.9472584374513  77.4881232699024 1.4593453257728  77.4881232699024 1.4593453257728  C 77.4881232699024 1.4593453257728  78.7998689849239 1.71609027876389  78.7998689849239 1.71609027876389  C 78.7998689849239 1.71609027876389  81.0362749846461 0.595528021183554  81.0362749846461 0.595528021183554  C 81.0362749846461 0.595528021183554  85.1121525014735 1.7349577635606  85.1121525014735 1.7349577635606  C 85.1121525014735 1.7349577635606  85.0993555585251 5.98498033005217  85.0993555585251 5.98498033005217  C 85.0993555585251 5.98498033005217  88.2536151818065 6.61949431453763  88.2536151818065 6.61949431453763  C 88.2536151818065 6.61949431453763  87.3180663392905 10.7412185074911  87.3180663392905 10.7412185074911  C 87.3180663392905 10.7412185074911  84.4117375324561 15.2371600207725  84.4117375324561 15.2371600207725  C 84.4117375324561 15.2371600207725  83.0875702514793 19.1057703056558  83.0875702514793 19.1057703056558  C 83.0875702514793 19.1057703056558  84.4000772205429 19.1096934034096  84.4000772205429 19.1096934034096  C 84.4000772205429 19.1096934034096  87.8286280502375 16.1200522984398  87.8286280502375 16.1200522984398  C 87.8286280502375 16.1200522984398  90.7024530594854 22.1284203551252  90.7024530594854 22.1284203551252  C 90.7024530594854 22.1284203551252  92.9434799587434 20.6356101722891  92.9434799587434 20.6356101722891  C 92.9434799587434 20.6356101722891  95.4416182231942 20.6430771350136  95.4416182231942 20.6430771350136  C 95.4416182231942 20.6430771350136  97.2610573839331 26.6500372355052  97.2610573839331 26.6500372355052  C 97.2610573839331 26.6500372355052  95.4160138372417 29.146609466  95.4160138372417 29.146609466  C 95.4160138372417 29.146609466  95.6706086890729 31.7732541820168  95.6706086890729 31.7732541820168  C 95.6706086890729 31.7732541820168  89.9952218042752 39.0568051121488  89.9952218042752 39.0568051121488  C 89.9952218042752 39.0568051121488  90.3645166401327 46.3087306435891  90.3645166401327 46.3087306435891  C 90.3645166401327 46.3087306435891  82.9851614577158 51.6639813862412  82.9851614577158 51.6639813862412  C 82.9851614577158 51.6639813862412  82.4466083481418 56.1626411703662  82.4466083481418 56.1626411703662  C 82.4466083481418 56.1626411703662  78.2321843456691 58.0270454288323  78.2321843456691 58.0270454288323  C 78.2321843456691 58.0270454288323  78.6180325194205 60.6532106551236  78.6180325194205 60.6532106551236  C 78.6180325194205 60.6532106551236  74.537885854925 61.5128223989209  74.537885854925 61.5128223989209  C 74.537885854925 61.5128223989209  71.373169051119 66.3854841688972  71.373169051119 66.3854841688972  C 71.373169051119 66.3854841688972  63.0852387944096 67.4853429319322  63.0852387944096 67.4853429319322  C 63.0852387944096 67.4853429319322  58.7524957886944 64.4733750417465  58.7524957886944 64.4733750417465  C 58.7524957886944 64.4733750417465  54.29087072365 62.7085782352465  54.29087072365 62.7085782352465  C 54.29087072365 62.7085782352465  49.8050447801052 66.9469744835951  49.8050447801052 66.9469744835951  C 49.8050447801052 66.9469744835951  44.7817594827936 67.1839121519276  44.7817594827936 67.1839121519276  C 44.7817594827936 67.1839121519276  40.3018704457722 67.4163713862243  40.3018704457722 67.4163713862243  C 40.3018704457722 67.4163713862243  30.1951222816226 62.0123417179026  30.1951222816226 62.0123417179026  C 30.1951222816226 62.0123417179026  28.3719267259382 57.2529267030827  28.3719267259382 57.2529267030827  C 28.3719267259382 57.2529267030827  30.8821400545046 52.3783086150266  30.8821400545046 52.3783086150266  C 30.8821400545046 52.3783086150266  28.0006491295528 50.3688979455894  28.0006491295528 50.3688979455894  C 28.0006491295528 50.3688979455894  24.184753868162 50.3574921927202  24.184753868162 50.3574921927202  C 24.184753868162 50.3574921927202  23.2681322511446 49.3556611809558  23.2681322511446 49.3556611809558  C 23.2681322511446 49.3556611809558  19.1867273299681 50.3425530364742  19.1867273299681 50.3425530364742  C 19.1867273299681 50.3425530364742  15.1192349826636 47.5807148846673  15.1192349826636 47.5807148846673  C 15.1192349826636 47.5807148846673  16.7131653210104 43.3354183432698  16.7131653210104 43.3354183432698  C 16.7131653210104 43.3354183432698  19.8639380507773 43.0937555216428  19.8639380507773 43.0937555216428  C 19.8639380507773 43.0937555216428  21.0486943415185 42.2254894242009  21.0486943415185 42.2254894242009  C 21.0486943415185 42.2254894242009  22.1103759787663 38.3508637227619  22.1103759787663 38.3508637227619  C 22.1103759787663 38.3508637227619  20.8042687936838 36.221493442012  20.8042687936838 36.221493442012  C 20.8042687936838 36.221493442012  10.0272329454847 34.3140231600051  10.0272329454847 34.3140231600051  C 10.0272329454847 34.3140231600051  8.20004211858645 30.8814869854314  8.20004211858645 30.8814869854314  C 8.20004211858645 30.8814869854314  2.15201000514162 30.8634093509824  2.15201000514162 30.8634093509824  C 2.15201000514162 30.8634093509824  0.0617849066013605 27.6070638555241  0.0617849066013605 27.6070638555241  Z " stroke-width="0.97600957434184" stroke="#47b3fe" fill="none" transform="matrix(1 0 0 1 963 818 )" mask="url(#clip1789)" />
  </g>
</svg>