<?xml version="1.0" encoding="utf-8"?>
<svg version="1.1" xmlns:xlink="http://www.w3.org/1999/xlink" width="112px" height="111px" xmlns="http://www.w3.org/2000/svg">
  <defs>
    <mask fill="white" id="clip1791">
      <path d="M 97.0855361831566 25.8822081496247  C 97.0855361831566 25.8822081496247  98.9530148489728 20.8621418172396  98.9530148489728 20.8621418172396  C 98.9530148489728 20.8621418172396  98.0415478843252 17.8501312100898  98.0415478843252 17.8501312100898  C 98.0415478843252 17.8501312100898  95.15091841085 16.8389586678037  95.15091841085 16.8389586678037  C 95.15091841085 16.8389586678037  90.4114863707241 19.5823155098908  90.4114863707241 19.5823155098908  C 90.4114863707241 19.5823155098908  87.2607346410689 18.069545288506  87.2607346410689 18.069545288506  C 87.2607346410689 18.069545288506  87.0098988091972 14.1846120621168  87.0098988091972 14.1846120621168  C 87.0098988091972 14.1846120621168  85.4405447263437 12.2972524344391  85.4405447263437 12.2972524344391  C 85.4405447263437 12.2972524344391  85.4465691333317 10.2913756420336  85.4465691333317 10.2913756420336  C 85.4465691333317 10.2913756420336  80.9774312783961 9.27547290140296  80.9774312783961 9.27547290140296  C 80.9774312783961 9.27547290140296  79.7889107176676 10.5252678681911  79.7889107176676 10.5252678681911  C 79.7889107176676 10.5252678681911  80.4405039274545 13.5356257027858  80.4405039274545 13.5356257027858  C 80.4405039274545 13.5356257027858  76.8817200312568 15.0282899591454  76.8817200312568 15.0282899591454  C 76.8817200312568 15.0282899591454  75.9565653689311 17.1563985029312  75.9565653689311 17.1563985029312  C 75.9565653689311 17.1563985029312  76.867413705294 19.7917010783655  76.867413705294 19.7917010783655  C 76.867413705294 19.7917010783655  68.9528916812833 28.5432279009801  68.9528916812833 28.5432279009801  C 68.9528916812833 28.5432279009801  70.2345258614206 38.8265147859681  70.2345258614206 38.8265147859681  C 70.2345258614206 38.8265147859681  66.4122203159928 41.8234660218181  66.4122203159928 41.8234660218181  C 66.4122203159928 41.8234660218181  64.5803569642848 39.937941836957  64.5803569642848 39.937941836957  C 64.5803569642848 39.937941836957  56.9410195264311 44.175937347462  56.9410195264311 44.175937347462  C 56.9410195264311 44.175937347462  53.6266471779938 42.6609287598615  53.6266471779938 42.6609287598615  C 53.6266471779938 42.6609287598615  42.6429527324923 22.4458283049347  42.6429527324923 22.4458283049347  C 42.6429527324923 22.4458283049347  38.309339972159 19.4244368369513  38.309339972159 19.4244368369513  C 38.309339972159 19.4244368369513  34.7629461417494 18.5397813680121  34.7629461417494 18.5397813680121  C 34.7629461417494 18.5397813680121  33.1962223228618 15.7766533107089  33.1962223228618 15.7766533107089  C 33.1962223228618 15.7766533107089  35.1766483383981 12.7724345953255  35.1766483383981 12.7724345953255  C 35.1766483383981 12.7724345953255  32.0267768634168 10.3838907001932  32.0267768634168 10.3838907001932  C 32.0267768634168 10.3838907001932  28.2044713179891 13.3808419360432  28.2044713179891 13.3808419360432  C 28.2044713179891 13.3808419360432  24.3910636948071 13.9978408971832  24.3910636948071 13.9978408971832  C 24.3910636948071 13.9978408971832  21.9178131875036 3.08168284079386  21.9178131875036 3.08168284079386  C 21.9178131875036 3.08168284079386  21.2668412310153 0.447159017526133  21.2668412310153 0.447159017526133  C 21.2668412310153 0.447159017526133  17.4426509255801 4.94568514759999  17.4426509255801 4.94568514759999  C 17.4426509255801 4.94568514759999  15.8650175487656 5.81498582634799  15.8650175487656 5.81498582634799  C 15.8650175487656 5.81498582634799  16.2363135202487 12.7104333369814  16.2363135202487 12.7104333369814  C 16.2363135202487 12.7104333369814  15.3112804835689 14.2153600993965  15.3112804835689 14.2153600993965  C 15.3112804835689 14.2153600993965  13.3407700206815 14.2094552176495  13.3407700206815 14.2094552176495  C 13.3407700206815 14.2094552176495  11.7702898068484 12.6970503367874  11.7702898068484 12.6970503367874  C 11.7702898068484 12.6970503367874  9.92637501615036 14.8241537571261  9.92637501615036 14.8241537571261  C 9.92637501615036 14.8241537571261  11.7405431489016 22.6014493832097  11.7405431489016 22.6014493832097  C 11.7405431489016 22.6014493832097  13.9779300288319 22.6081539936125  13.9779300288319 22.6081539936125  C 13.9779300288319 22.6081539936125  15.8116807655615 23.8652575188922  15.8116807655615 23.8652575188922  C 15.8116807655615 23.8652575188922  16.4527555444984 28.6297585415373  16.4527555444984 28.6297585415373  C 16.4527555444984 28.6297585415373  15.4843012772634 45.1748333993663  15.4843012772634 45.1748333993663  C 15.4843012772634 45.1748333993663  3.48382080789804 55.8492146916703  3.48382080789804 55.8492146916703  C 3.48382080789804 55.8492146916703  2.8158991364113 59.7322687742235  2.8158991364113 59.7322687742235  C 2.8158991364113 59.7322687742235  0.573732981104286 61.6082067034598  0.573732981104286 61.6082067034598  C 0.573732981104286 61.6082067034598  0.30521243033138 63.6115488367377  0.30521243033138 63.6115488367377  C 0.30521243033138 63.6115488367377  2.13329576196861 68.503718891602  2.13329576196861 68.503718891602  C 2.13329576196861 68.503718891602  0.542114688219499 72.1357822871306  0.542114688219499 72.1357822871306  C 0.542114688219499 72.1357822871306  1.46198782250167 72.6402310207376  1.46198782250167 72.6402310207376  C 1.46198782250167 72.6402310207376  7.51541521459399 71.1532942199862  7.51541521459399 71.1532942199862  C 7.51541521459399 71.1532942199862  16.0622147208304 70.6780875865289  16.0622147208304 70.6780875865289  C 16.0622147208304 70.6780875865289  15.1319237812324 73.933677187806  15.1319237812324 73.933677187806  C 15.1319237812324 73.933677187806  16.7031468740099 76.9467908086866  16.7031468740099 76.9467908086866  C 16.7031468740099 76.9467908086866  17.2145967146728 81.4609313130073  17.2145967146728 81.4609313130073  C 17.2145967146728 81.4609313130073  18.260089890964 82.9665188348364  18.260089890964 82.9665188348364  C 18.260089890964 82.9665188348364  23.2564775454559 83.2358333593132  23.2564775454559 83.2358333593132  C 23.2564775454559 83.2358333593132  25.4858520078425 84.7449685299007  25.4858520078425 84.7449685299007  C 25.4858520078425 84.7449685299007  22.9786758204025 87.7467347440729  22.9786758204025 87.7467347440729  C 22.9786758204025 87.7467347440729  22.5731365420966 91.3788549509268  22.5731365420966 91.3788549509268  C 22.5731365420966 91.3788549509268  20.7228193424035 95.6376940996649  20.7228193424035 95.6376940996649  C 20.7228193424035 95.6376940996649  21.8995579655732 97.1454229714468  21.8995579655732 97.1454229714468  C 21.8995579655732 97.1454229714468  25.0566937291259 97.406603862185  25.0566937291259 97.406603862185  C 25.0566937291259 97.406603862185  30.443708832746 99.3001594203993  30.443708832746 99.3001594203993  C 30.443708832746 99.3001594203993  29.7830593248724 101.053228437392  29.7830593248724 101.053228437392  C 29.7830593248724 101.053228437392  33.3131430686799 106.203092915663  33.3131430686799 106.203092915663  C 33.3131430686799 106.203092915663  38.3094195975818 106.218064884924  38.3094195975818 106.218064884924  C 38.3094195975818 106.218064884924  44.6327421727459 102.852776110622  44.6327421727459 102.852776110622  C 44.6327421727459 102.852776110622  46.6002364946185 103.862930419156  46.6002364946185 103.862930419156  C 46.6002364946185 103.862930419156  46.5941989625608 105.873177313505  46.5941989625608 105.873177313505  C 46.5941989625608 105.873177313505  47.5065461818822 108.883442501939  47.5065461818822 108.883442501939  C 47.5065461818822 108.883442501939  49.0831619282933 110.392369655674  49.0831619282933 110.392369655674  C 49.0831619282933 110.392369655674  52.497186805859 109.900907991024  52.497186805859 109.900907991024  C 52.497186805859 109.900907991024  53.8070530109009 110.784105593955  53.8070530109009 110.784105593955  C 53.8070530109009 110.784105593955  54.9955788216573 109.532562586389  54.9955788216573 109.532562586389  C 54.9955788216573 109.532562586389  55.0098851476201 104.769151467169  55.0098851476201 104.769151467169  C 55.0098851476201 104.769151467169  52.9309817341949 95.9868040635824  52.9309817341949 95.9868040635824  C 52.9309817341949 95.9868040635824  54.5182664122551 93.3607355135564  54.5182664122551 93.3607355135564  C 54.5182664122551 93.3607355135564  61.5200535898863 93.381717247011  61.5200535898863 93.381717247011  C 61.5200535898863 93.381717247011  64.4177277257667 90.00791114402  64.4177277257667 90.00791114402  C 64.4177277257667 90.00791114402  71.9041117264782 92.4129460558491  71.9041117264782 92.4129460558491  C 71.9041117264782 92.4129460558491  75.0699179110685 89.7872376022234  75.0699179110685 89.7872376022234  C 75.0699179110685 89.7872376022234  76.6404059999434 91.2970204219189  76.6404059999434 91.2970204219189  C 76.6404059999434 91.2970204219189  79.8048191771372 89.4264682063186  79.8048191771372 89.4264682063186  C 79.8048191771372 89.4264682063186  82.6840552151161 92.191781314594  82.6840552151161 92.191781314594  C 82.6840552151161 92.191781314594  83.8705615151496 92.1953368295358  83.8705615151496 92.1953368295358  C 83.8705615151496 92.1953368295358  84.9250847393879 90.6942942137287  84.9250847393879 90.6942942137287  C 84.9250847393879 90.6942942137287  87.4268735232222 88.3209381708933  87.4268735232222 88.3209381708933  C 87.4268735232222 88.3209381708933  88.6098798046716 89.1985114526217  88.6098798046716 89.1985114526217  C 88.6098798046716 89.1985114526217  92.1607781589992 88.5833479342982  92.1607781589992 88.5833479342982  C 92.1607781589992 88.5833479342982  95.5908331216804 85.9593053635335  95.5908331216804 85.9593053635335  C 95.5908331216804 85.9593053635335  98.4903867675403 81.9597006621275  98.4903867675403 81.9597006621275  C 98.4903867675403 81.9597006621275  102.568783422744 81.0978938341935  102.568783422744 81.0978938341935  C 102.568783422744 81.0978938341935  104.797153379797 83.2328302252571  104.797153379797 83.2328302252571  C 104.797153379797 83.2328302252571  106.389331083838 78.9775876704189  106.389331083838 78.9775876704189  C 106.389331083838 78.9775876704189  109.545351216467 78.7361989713862  109.545351216467 78.7361989713862  C 109.545351216467 78.7361989713862  110.730107507208 77.8657209871744  110.730107507208 77.8657209871744  C 110.730107507208 77.8657209871744  111.791789144456 73.9812247709797  111.791789144456 73.9812247709797  C 111.791789144456 73.9812247709797  110.485679334359 71.847303991608  110.485679334359 71.847303991608  C 110.485679334359 71.847303991608  99.7095184908062 69.9349770975023  99.7095184908062 69.9349770975023  C 99.7095184908062 69.9349770975023  97.881046657106 66.92021857025  97.881046657106 66.92021857025  C 97.881046657106 66.92021857025  91.8321395390151 66.9020922614056  91.8321395390151 66.9020922614056  C 91.8321395390151 66.9020922614056  89.7419144404748 63.6374513049816  89.7419144404748 63.6374513049816  C 89.7419144404748 63.6374513049816  90.0096816122475 61.8849530233031  90.0096816122475 61.8849530233031  C 90.0096816122475 61.8849530233031  91.345314954106 54.1887664893044  91.345314954106 54.1887664893044  C 91.345314954106 54.1887664893044  87.1517003121255 50.2946403164653  87.1517003121255 50.2946403164653  C 87.1517003121255 50.2946403164653  90.3450008927039 37.6404140550172  90.3450008927039 37.6404140550172  C 90.3450008927039 37.6404140550172  88.2441357376675 35.8790698129832  88.2441357376675 35.8790698129832  C 88.2441357376675 35.8790698129832  81.2686861998825 37.8684319901414  81.2686861998825 37.8684319901414  C 81.2686861998825 37.8684319901414  79.7015870040018 35.2302888484435  79.7015870040018 35.2302888484435  C 79.7015870040018 35.2302888484435  79.7106196769629 32.2227846904185  79.7106196769629 32.2227846904185  C 79.7106196769629 32.2227846904185  78.140131588088 30.713001870723  78.140131588088 30.713001870723  C 78.140131588088 30.713001870723  81.5662000296019 26.2115346620405  81.5662000296019 26.2115346620405  C 81.5662000296019 26.2115346620405  85.3804564072906 27.3513350369126  85.3804564072906 27.3513350369126  C 85.3804564072906 27.3513350369126  86.9599824191544 25.8518656578054  86.9599824191544 25.8518656578054  C 86.9599824191544 25.8518656578054  93.9263861589088 26.8743777406164  93.9263861589088 26.8743777406164  C 93.9263861589088 26.8743777406164  97.0855361831566 25.8822081496247  97.0855361831566 25.8822081496247  Z " fill-rule="evenodd" />
    </mask>
  </defs>
  <g transform="matrix(1 0 0 1 -873 -783 )">
    <path d="M 97.0855361831566 25.8822081496247  C 97.0855361831566 25.8822081496247  98.9530148489728 20.8621418172396  98.9530148489728 20.8621418172396  C 98.9530148489728 20.8621418172396  98.0415478843252 17.8501312100898  98.0415478843252 17.8501312100898  C 98.0415478843252 17.8501312100898  95.15091841085 16.8389586678037  95.15091841085 16.8389586678037  C 95.15091841085 16.8389586678037  90.4114863707241 19.5823155098908  90.4114863707241 19.5823155098908  C 90.4114863707241 19.5823155098908  87.2607346410689 18.069545288506  87.2607346410689 18.069545288506  C 87.2607346410689 18.069545288506  87.0098988091972 14.1846120621168  87.0098988091972 14.1846120621168  C 87.0098988091972 14.1846120621168  85.4405447263437 12.2972524344391  85.4405447263437 12.2972524344391  C 85.4405447263437 12.2972524344391  85.4465691333317 10.2913756420336  85.4465691333317 10.2913756420336  C 85.4465691333317 10.2913756420336  80.9774312783961 9.27547290140296  80.9774312783961 9.27547290140296  C 80.9774312783961 9.27547290140296  79.7889107176676 10.5252678681911  79.7889107176676 10.5252678681911  C 79.7889107176676 10.5252678681911  80.4405039274545 13.5356257027858  80.4405039274545 13.5356257027858  C 80.4405039274545 13.5356257027858  76.8817200312568 15.0282899591454  76.8817200312568 15.0282899591454  C 76.8817200312568 15.0282899591454  75.9565653689311 17.1563985029312  75.9565653689311 17.1563985029312  C 75.9565653689311 17.1563985029312  76.867413705294 19.7917010783655  76.867413705294 19.7917010783655  C 76.867413705294 19.7917010783655  68.9528916812833 28.5432279009801  68.9528916812833 28.5432279009801  C 68.9528916812833 28.5432279009801  70.2345258614206 38.8265147859681  70.2345258614206 38.8265147859681  C 70.2345258614206 38.8265147859681  66.4122203159928 41.8234660218181  66.4122203159928 41.8234660218181  C 66.4122203159928 41.8234660218181  64.5803569642848 39.937941836957  64.5803569642848 39.937941836957  C 64.5803569642848 39.937941836957  56.9410195264311 44.175937347462  56.9410195264311 44.175937347462  C 56.9410195264311 44.175937347462  53.6266471779938 42.6609287598615  53.6266471779938 42.6609287598615  C 53.6266471779938 42.6609287598615  42.6429527324923 22.4458283049347  42.6429527324923 22.4458283049347  C 42.6429527324923 22.4458283049347  38.309339972159 19.4244368369513  38.309339972159 19.4244368369513  C 38.309339972159 19.4244368369513  34.7629461417494 18.5397813680121  34.7629461417494 18.5397813680121  C 34.7629461417494 18.5397813680121  33.1962223228618 15.7766533107089  33.1962223228618 15.7766533107089  C 33.1962223228618 15.7766533107089  35.1766483383981 12.7724345953255  35.1766483383981 12.7724345953255  C 35.1766483383981 12.7724345953255  32.0267768634168 10.3838907001932  32.0267768634168 10.3838907001932  C 32.0267768634168 10.3838907001932  28.2044713179891 13.3808419360432  28.2044713179891 13.3808419360432  C 28.2044713179891 13.3808419360432  24.3910636948071 13.9978408971832  24.3910636948071 13.9978408971832  C 24.3910636948071 13.9978408971832  21.9178131875036 3.08168284079386  21.9178131875036 3.08168284079386  C 21.9178131875036 3.08168284079386  21.2668412310153 0.447159017526133  21.2668412310153 0.447159017526133  C 21.2668412310153 0.447159017526133  17.4426509255801 4.94568514759999  17.4426509255801 4.94568514759999  C 17.4426509255801 4.94568514759999  15.8650175487656 5.81498582634799  15.8650175487656 5.81498582634799  C 15.8650175487656 5.81498582634799  16.2363135202487 12.7104333369814  16.2363135202487 12.7104333369814  C 16.2363135202487 12.7104333369814  15.3112804835689 14.2153600993965  15.3112804835689 14.2153600993965  C 15.3112804835689 14.2153600993965  13.3407700206815 14.2094552176495  13.3407700206815 14.2094552176495  C 13.3407700206815 14.2094552176495  11.7702898068484 12.6970503367874  11.7702898068484 12.6970503367874  C 11.7702898068484 12.6970503367874  9.92637501615036 14.8241537571261  9.92637501615036 14.8241537571261  C 9.92637501615036 14.8241537571261  11.7405431489016 22.6014493832097  11.7405431489016 22.6014493832097  C 11.7405431489016 22.6014493832097  13.9779300288319 22.6081539936125  13.9779300288319 22.6081539936125  C 13.9779300288319 22.6081539936125  15.8116807655615 23.8652575188922  15.8116807655615 23.8652575188922  C 15.8116807655615 23.8652575188922  16.4527555444984 28.6297585415373  16.4527555444984 28.6297585415373  C 16.4527555444984 28.6297585415373  15.4843012772634 45.1748333993663  15.4843012772634 45.1748333993663  C 15.4843012772634 45.1748333993663  3.48382080789804 55.8492146916703  3.48382080789804 55.8492146916703  C 3.48382080789804 55.8492146916703  2.8158991364113 59.7322687742235  2.8158991364113 59.7322687742235  C 2.8158991364113 59.7322687742235  0.573732981104286 61.6082067034598  0.573732981104286 61.6082067034598  C 0.573732981104286 61.6082067034598  0.30521243033138 63.6115488367377  0.30521243033138 63.6115488367377  C 0.30521243033138 63.6115488367377  2.13329576196861 68.503718891602  2.13329576196861 68.503718891602  C 2.13329576196861 68.503718891602  0.542114688219499 72.1357822871306  0.542114688219499 72.1357822871306  C 0.542114688219499 72.1357822871306  1.46198782250167 72.6402310207376  1.46198782250167 72.6402310207376  C 1.46198782250167 72.6402310207376  7.51541521459399 71.1532942199862  7.51541521459399 71.1532942199862  C 7.51541521459399 71.1532942199862  16.0622147208304 70.6780875865289  16.0622147208304 70.6780875865289  C 16.0622147208304 70.6780875865289  15.1319237812324 73.933677187806  15.1319237812324 73.933677187806  C 15.1319237812324 73.933677187806  16.7031468740099 76.9467908086866  16.7031468740099 76.9467908086866  C 16.7031468740099 76.9467908086866  17.2145967146728 81.4609313130073  17.2145967146728 81.4609313130073  C 17.2145967146728 81.4609313130073  18.260089890964 82.9665188348364  18.260089890964 82.9665188348364  C 18.260089890964 82.9665188348364  23.2564775454559 83.2358333593132  23.2564775454559 83.2358333593132  C 23.2564775454559 83.2358333593132  25.4858520078425 84.7449685299007  25.4858520078425 84.7449685299007  C 25.4858520078425 84.7449685299007  22.9786758204025 87.7467347440729  22.9786758204025 87.7467347440729  C 22.9786758204025 87.7467347440729  22.5731365420966 91.3788549509268  22.5731365420966 91.3788549509268  C 22.5731365420966 91.3788549509268  20.7228193424035 95.6376940996649  20.7228193424035 95.6376940996649  C 20.7228193424035 95.6376940996649  21.8995579655732 97.1454229714468  21.8995579655732 97.1454229714468  C 21.8995579655732 97.1454229714468  25.0566937291259 97.406603862185  25.0566937291259 97.406603862185  C 25.0566937291259 97.406603862185  30.443708832746 99.3001594203993  30.443708832746 99.3001594203993  C 30.443708832746 99.3001594203993  29.7830593248724 101.053228437392  29.7830593248724 101.053228437392  C 29.7830593248724 101.053228437392  33.3131430686799 106.203092915663  33.3131430686799 106.203092915663  C 33.3131430686799 106.203092915663  38.3094195975818 106.218064884924  38.3094195975818 106.218064884924  C 38.3094195975818 106.218064884924  44.6327421727459 102.852776110622  44.6327421727459 102.852776110622  C 44.6327421727459 102.852776110622  46.6002364946185 103.862930419156  46.6002364946185 103.862930419156  C 46.6002364946185 103.862930419156  46.5941989625608 105.873177313505  46.5941989625608 105.873177313505  C 46.5941989625608 105.873177313505  47.5065461818822 108.883442501939  47.5065461818822 108.883442501939  C 47.5065461818822 108.883442501939  49.0831619282933 110.392369655674  49.0831619282933 110.392369655674  C 49.0831619282933 110.392369655674  52.497186805859 109.900907991024  52.497186805859 109.900907991024  C 52.497186805859 109.900907991024  53.8070530109009 110.784105593955  53.8070530109009 110.784105593955  C 53.8070530109009 110.784105593955  54.9955788216573 109.532562586389  54.9955788216573 109.532562586389  C 54.9955788216573 109.532562586389  55.0098851476201 104.769151467169  55.0098851476201 104.769151467169  C 55.0098851476201 104.769151467169  52.9309817341949 95.9868040635824  52.9309817341949 95.9868040635824  C 52.9309817341949 95.9868040635824  54.5182664122551 93.3607355135564  54.5182664122551 93.3607355135564  C 54.5182664122551 93.3607355135564  61.5200535898863 93.381717247011  61.5200535898863 93.381717247011  C 61.5200535898863 93.381717247011  64.4177277257667 90.00791114402  64.4177277257667 90.00791114402  C 64.4177277257667 90.00791114402  71.9041117264782 92.4129460558491  71.9041117264782 92.4129460558491  C 71.9041117264782 92.4129460558491  75.0699179110685 89.7872376022234  75.0699179110685 89.7872376022234  C 75.0699179110685 89.7872376022234  76.6404059999434 91.2970204219189  76.6404059999434 91.2970204219189  C 76.6404059999434 91.2970204219189  79.8048191771372 89.4264682063186  79.8048191771372 89.4264682063186  C 79.8048191771372 89.4264682063186  82.6840552151161 92.191781314594  82.6840552151161 92.191781314594  C 82.6840552151161 92.191781314594  83.8705615151496 92.1953368295358  83.8705615151496 92.1953368295358  C 83.8705615151496 92.1953368295358  84.9250847393879 90.6942942137287  84.9250847393879 90.6942942137287  C 84.9250847393879 90.6942942137287  87.4268735232222 88.3209381708933  87.4268735232222 88.3209381708933  C 87.4268735232222 88.3209381708933  88.6098798046716 89.1985114526217  88.6098798046716 89.1985114526217  C 88.6098798046716 89.1985114526217  92.1607781589992 88.5833479342982  92.1607781589992 88.5833479342982  C 92.1607781589992 88.5833479342982  95.5908331216804 85.9593053635335  95.5908331216804 85.9593053635335  C 95.5908331216804 85.9593053635335  98.4903867675403 81.9597006621275  98.4903867675403 81.9597006621275  C 98.4903867675403 81.9597006621275  102.568783422744 81.0978938341935  102.568783422744 81.0978938341935  C 102.568783422744 81.0978938341935  104.797153379797 83.2328302252571  104.797153379797 83.2328302252571  C 104.797153379797 83.2328302252571  106.389331083838 78.9775876704189  106.389331083838 78.9775876704189  C 106.389331083838 78.9775876704189  109.545351216467 78.7361989713862  109.545351216467 78.7361989713862  C 109.545351216467 78.7361989713862  110.730107507208 77.8657209871744  110.730107507208 77.8657209871744  C 110.730107507208 77.8657209871744  111.791789144456 73.9812247709797  111.791789144456 73.9812247709797  C 111.791789144456 73.9812247709797  110.485679334359 71.847303991608  110.485679334359 71.847303991608  C 110.485679334359 71.847303991608  99.7095184908062 69.9349770975023  99.7095184908062 69.9349770975023  C 99.7095184908062 69.9349770975023  97.881046657106 66.92021857025  97.881046657106 66.92021857025  C 97.881046657106 66.92021857025  91.8321395390151 66.9020922614056  91.8321395390151 66.9020922614056  C 91.8321395390151 66.9020922614056  89.7419144404748 63.6374513049816  89.7419144404748 63.6374513049816  C 89.7419144404748 63.6374513049816  90.0096816122475 61.8849530233031  90.0096816122475 61.8849530233031  C 90.0096816122475 61.8849530233031  91.345314954106 54.1887664893044  91.345314954106 54.1887664893044  C 91.345314954106 54.1887664893044  87.1517003121255 50.2946403164653  87.1517003121255 50.2946403164653  C 87.1517003121255 50.2946403164653  90.3450008927039 37.6404140550172  90.3450008927039 37.6404140550172  C 90.3450008927039 37.6404140550172  88.2441357376675 35.8790698129832  88.2441357376675 35.8790698129832  C 88.2441357376675 35.8790698129832  81.2686861998825 37.8684319901414  81.2686861998825 37.8684319901414  C 81.2686861998825 37.8684319901414  79.7015870040018 35.2302888484435  79.7015870040018 35.2302888484435  C 79.7015870040018 35.2302888484435  79.7106196769629 32.2227846904185  79.7106196769629 32.2227846904185  C 79.7106196769629 32.2227846904185  78.140131588088 30.713001870723  78.140131588088 30.713001870723  C 78.140131588088 30.713001870723  81.5662000296019 26.2115346620405  81.5662000296019 26.2115346620405  C 81.5662000296019 26.2115346620405  85.3804564072906 27.3513350369126  85.3804564072906 27.3513350369126  C 85.3804564072906 27.3513350369126  86.9599824191544 25.8518656578054  86.9599824191544 25.8518656578054  C 86.9599824191544 25.8518656578054  93.9263861589088 26.8743777406164  93.9263861589088 26.8743777406164  C 93.9263861589088 26.8743777406164  97.0855361831566 25.8822081496247  97.0855361831566 25.8822081496247  Z " fill-rule="nonzero" fill="#031e4b" stroke="none" transform="matrix(1 0 0 1 873 783 )" />
    <path d="M 97.0855361831566 25.8822081496247  C 97.0855361831566 25.8822081496247  98.9530148489728 20.8621418172396  98.9530148489728 20.8621418172396  C 98.9530148489728 20.8621418172396  98.0415478843252 17.8501312100898  98.0415478843252 17.8501312100898  C 98.0415478843252 17.8501312100898  95.15091841085 16.8389586678037  95.15091841085 16.8389586678037  C 95.15091841085 16.8389586678037  90.4114863707241 19.5823155098908  90.4114863707241 19.5823155098908  C 90.4114863707241 19.5823155098908  87.2607346410689 18.069545288506  87.2607346410689 18.069545288506  C 87.2607346410689 18.069545288506  87.0098988091972 14.1846120621168  87.0098988091972 14.1846120621168  C 87.0098988091972 14.1846120621168  85.4405447263437 12.2972524344391  85.4405447263437 12.2972524344391  C 85.4405447263437 12.2972524344391  85.4465691333317 10.2913756420336  85.4465691333317 10.2913756420336  C 85.4465691333317 10.2913756420336  80.9774312783961 9.27547290140296  80.9774312783961 9.27547290140296  C 80.9774312783961 9.27547290140296  79.7889107176676 10.5252678681911  79.7889107176676 10.5252678681911  C 79.7889107176676 10.5252678681911  80.4405039274545 13.5356257027858  80.4405039274545 13.5356257027858  C 80.4405039274545 13.5356257027858  76.8817200312568 15.0282899591454  76.8817200312568 15.0282899591454  C 76.8817200312568 15.0282899591454  75.9565653689311 17.1563985029312  75.9565653689311 17.1563985029312  C 75.9565653689311 17.1563985029312  76.867413705294 19.7917010783655  76.867413705294 19.7917010783655  C 76.867413705294 19.7917010783655  68.9528916812833 28.5432279009801  68.9528916812833 28.5432279009801  C 68.9528916812833 28.5432279009801  70.2345258614206 38.8265147859681  70.2345258614206 38.8265147859681  C 70.2345258614206 38.8265147859681  66.4122203159928 41.8234660218181  66.4122203159928 41.8234660218181  C 66.4122203159928 41.8234660218181  64.5803569642848 39.937941836957  64.5803569642848 39.937941836957  C 64.5803569642848 39.937941836957  56.9410195264311 44.175937347462  56.9410195264311 44.175937347462  C 56.9410195264311 44.175937347462  53.6266471779938 42.6609287598615  53.6266471779938 42.6609287598615  C 53.6266471779938 42.6609287598615  42.6429527324923 22.4458283049347  42.6429527324923 22.4458283049347  C 42.6429527324923 22.4458283049347  38.309339972159 19.4244368369513  38.309339972159 19.4244368369513  C 38.309339972159 19.4244368369513  34.7629461417494 18.5397813680121  34.7629461417494 18.5397813680121  C 34.7629461417494 18.5397813680121  33.1962223228618 15.7766533107089  33.1962223228618 15.7766533107089  C 33.1962223228618 15.7766533107089  35.1766483383981 12.7724345953255  35.1766483383981 12.7724345953255  C 35.1766483383981 12.7724345953255  32.0267768634168 10.3838907001932  32.0267768634168 10.3838907001932  C 32.0267768634168 10.3838907001932  28.2044713179891 13.3808419360432  28.2044713179891 13.3808419360432  C 28.2044713179891 13.3808419360432  24.3910636948071 13.9978408971832  24.3910636948071 13.9978408971832  C 24.3910636948071 13.9978408971832  21.9178131875036 3.08168284079386  21.9178131875036 3.08168284079386  C 21.9178131875036 3.08168284079386  21.2668412310153 0.447159017526133  21.2668412310153 0.447159017526133  C 21.2668412310153 0.447159017526133  17.4426509255801 4.94568514759999  17.4426509255801 4.94568514759999  C 17.4426509255801 4.94568514759999  15.8650175487656 5.81498582634799  15.8650175487656 5.81498582634799  C 15.8650175487656 5.81498582634799  16.2363135202487 12.7104333369814  16.2363135202487 12.7104333369814  C 16.2363135202487 12.7104333369814  15.3112804835689 14.2153600993965  15.3112804835689 14.2153600993965  C 15.3112804835689 14.2153600993965  13.3407700206815 14.2094552176495  13.3407700206815 14.2094552176495  C 13.3407700206815 14.2094552176495  11.7702898068484 12.6970503367874  11.7702898068484 12.6970503367874  C 11.7702898068484 12.6970503367874  9.92637501615036 14.8241537571261  9.92637501615036 14.8241537571261  C 9.92637501615036 14.8241537571261  11.7405431489016 22.6014493832097  11.7405431489016 22.6014493832097  C 11.7405431489016 22.6014493832097  13.9779300288319 22.6081539936125  13.9779300288319 22.6081539936125  C 13.9779300288319 22.6081539936125  15.8116807655615 23.8652575188922  15.8116807655615 23.8652575188922  C 15.8116807655615 23.8652575188922  16.4527555444984 28.6297585415373  16.4527555444984 28.6297585415373  C 16.4527555444984 28.6297585415373  15.4843012772634 45.1748333993663  15.4843012772634 45.1748333993663  C 15.4843012772634 45.1748333993663  3.48382080789804 55.8492146916703  3.48382080789804 55.8492146916703  C 3.48382080789804 55.8492146916703  2.8158991364113 59.7322687742235  2.8158991364113 59.7322687742235  C 2.8158991364113 59.7322687742235  0.573732981104286 61.6082067034598  0.573732981104286 61.6082067034598  C 0.573732981104286 61.6082067034598  0.30521243033138 63.6115488367377  0.30521243033138 63.6115488367377  C 0.30521243033138 63.6115488367377  2.13329576196861 68.503718891602  2.13329576196861 68.503718891602  C 2.13329576196861 68.503718891602  0.542114688219499 72.1357822871306  0.542114688219499 72.1357822871306  C 0.542114688219499 72.1357822871306  1.46198782250167 72.6402310207376  1.46198782250167 72.6402310207376  C 1.46198782250167 72.6402310207376  7.51541521459399 71.1532942199862  7.51541521459399 71.1532942199862  C 7.51541521459399 71.1532942199862  16.0622147208304 70.6780875865289  16.0622147208304 70.6780875865289  C 16.0622147208304 70.6780875865289  15.1319237812324 73.933677187806  15.1319237812324 73.933677187806  C 15.1319237812324 73.933677187806  16.7031468740099 76.9467908086866  16.7031468740099 76.9467908086866  C 16.7031468740099 76.9467908086866  17.2145967146728 81.4609313130073  17.2145967146728 81.4609313130073  C 17.2145967146728 81.4609313130073  18.260089890964 82.9665188348364  18.260089890964 82.9665188348364  C 18.260089890964 82.9665188348364  23.2564775454559 83.2358333593132  23.2564775454559 83.2358333593132  C 23.2564775454559 83.2358333593132  25.4858520078425 84.7449685299007  25.4858520078425 84.7449685299007  C 25.4858520078425 84.7449685299007  22.9786758204025 87.7467347440729  22.9786758204025 87.7467347440729  C 22.9786758204025 87.7467347440729  22.5731365420966 91.3788549509268  22.5731365420966 91.3788549509268  C 22.5731365420966 91.3788549509268  20.7228193424035 95.6376940996649  20.7228193424035 95.6376940996649  C 20.7228193424035 95.6376940996649  21.8995579655732 97.1454229714468  21.8995579655732 97.1454229714468  C 21.8995579655732 97.1454229714468  25.0566937291259 97.406603862185  25.0566937291259 97.406603862185  C 25.0566937291259 97.406603862185  30.443708832746 99.3001594203993  30.443708832746 99.3001594203993  C 30.443708832746 99.3001594203993  29.7830593248724 101.053228437392  29.7830593248724 101.053228437392  C 29.7830593248724 101.053228437392  33.3131430686799 106.203092915663  33.3131430686799 106.203092915663  C 33.3131430686799 106.203092915663  38.3094195975818 106.218064884924  38.3094195975818 106.218064884924  C 38.3094195975818 106.218064884924  44.6327421727459 102.852776110622  44.6327421727459 102.852776110622  C 44.6327421727459 102.852776110622  46.6002364946185 103.862930419156  46.6002364946185 103.862930419156  C 46.6002364946185 103.862930419156  46.5941989625608 105.873177313505  46.5941989625608 105.873177313505  C 46.5941989625608 105.873177313505  47.5065461818822 108.883442501939  47.5065461818822 108.883442501939  C 47.5065461818822 108.883442501939  49.0831619282933 110.392369655674  49.0831619282933 110.392369655674  C 49.0831619282933 110.392369655674  52.497186805859 109.900907991024  52.497186805859 109.900907991024  C 52.497186805859 109.900907991024  53.8070530109009 110.784105593955  53.8070530109009 110.784105593955  C 53.8070530109009 110.784105593955  54.9955788216573 109.532562586389  54.9955788216573 109.532562586389  C 54.9955788216573 109.532562586389  55.0098851476201 104.769151467169  55.0098851476201 104.769151467169  C 55.0098851476201 104.769151467169  52.9309817341949 95.9868040635824  52.9309817341949 95.9868040635824  C 52.9309817341949 95.9868040635824  54.5182664122551 93.3607355135564  54.5182664122551 93.3607355135564  C 54.5182664122551 93.3607355135564  61.5200535898863 93.381717247011  61.5200535898863 93.381717247011  C 61.5200535898863 93.381717247011  64.4177277257667 90.00791114402  64.4177277257667 90.00791114402  C 64.4177277257667 90.00791114402  71.9041117264782 92.4129460558491  71.9041117264782 92.4129460558491  C 71.9041117264782 92.4129460558491  75.0699179110685 89.7872376022234  75.0699179110685 89.7872376022234  C 75.0699179110685 89.7872376022234  76.6404059999434 91.2970204219189  76.6404059999434 91.2970204219189  C 76.6404059999434 91.2970204219189  79.8048191771372 89.4264682063186  79.8048191771372 89.4264682063186  C 79.8048191771372 89.4264682063186  82.6840552151161 92.191781314594  82.6840552151161 92.191781314594  C 82.6840552151161 92.191781314594  83.8705615151496 92.1953368295358  83.8705615151496 92.1953368295358  C 83.8705615151496 92.1953368295358  84.9250847393879 90.6942942137287  84.9250847393879 90.6942942137287  C 84.9250847393879 90.6942942137287  87.4268735232222 88.3209381708933  87.4268735232222 88.3209381708933  C 87.4268735232222 88.3209381708933  88.6098798046716 89.1985114526217  88.6098798046716 89.1985114526217  C 88.6098798046716 89.1985114526217  92.1607781589992 88.5833479342982  92.1607781589992 88.5833479342982  C 92.1607781589992 88.5833479342982  95.5908331216804 85.9593053635335  95.5908331216804 85.9593053635335  C 95.5908331216804 85.9593053635335  98.4903867675403 81.9597006621275  98.4903867675403 81.9597006621275  C 98.4903867675403 81.9597006621275  102.568783422744 81.0978938341935  102.568783422744 81.0978938341935  C 102.568783422744 81.0978938341935  104.797153379797 83.2328302252571  104.797153379797 83.2328302252571  C 104.797153379797 83.2328302252571  106.389331083838 78.9775876704189  106.389331083838 78.9775876704189  C 106.389331083838 78.9775876704189  109.545351216467 78.7361989713862  109.545351216467 78.7361989713862  C 109.545351216467 78.7361989713862  110.730107507208 77.8657209871744  110.730107507208 77.8657209871744  C 110.730107507208 77.8657209871744  111.791789144456 73.9812247709797  111.791789144456 73.9812247709797  C 111.791789144456 73.9812247709797  110.485679334359 71.847303991608  110.485679334359 71.847303991608  C 110.485679334359 71.847303991608  99.7095184908062 69.9349770975023  99.7095184908062 69.9349770975023  C 99.7095184908062 69.9349770975023  97.881046657106 66.92021857025  97.881046657106 66.92021857025  C 97.881046657106 66.92021857025  91.8321395390151 66.9020922614056  91.8321395390151 66.9020922614056  C 91.8321395390151 66.9020922614056  89.7419144404748 63.6374513049816  89.7419144404748 63.6374513049816  C 89.7419144404748 63.6374513049816  90.0096816122475 61.8849530233031  90.0096816122475 61.8849530233031  C 90.0096816122475 61.8849530233031  91.345314954106 54.1887664893044  91.345314954106 54.1887664893044  C 91.345314954106 54.1887664893044  87.1517003121255 50.2946403164653  87.1517003121255 50.2946403164653  C 87.1517003121255 50.2946403164653  90.3450008927039 37.6404140550172  90.3450008927039 37.6404140550172  C 90.3450008927039 37.6404140550172  88.2441357376675 35.8790698129832  88.2441357376675 35.8790698129832  C 88.2441357376675 35.8790698129832  81.2686861998825 37.8684319901414  81.2686861998825 37.8684319901414  C 81.2686861998825 37.8684319901414  79.7015870040018 35.2302888484435  79.7015870040018 35.2302888484435  C 79.7015870040018 35.2302888484435  79.7106196769629 32.2227846904185  79.7106196769629 32.2227846904185  C 79.7106196769629 32.2227846904185  78.140131588088 30.713001870723  78.140131588088 30.713001870723  C 78.140131588088 30.713001870723  81.5662000296019 26.2115346620405  81.5662000296019 26.2115346620405  C 81.5662000296019 26.2115346620405  85.3804564072906 27.3513350369126  85.3804564072906 27.3513350369126  C 85.3804564072906 27.3513350369126  86.9599824191544 25.8518656578054  86.9599824191544 25.8518656578054  C 86.9599824191544 25.8518656578054  93.9263861589088 26.8743777406164  93.9263861589088 26.8743777406164  C 93.9263861589088 26.8743777406164  97.0855361831566 25.8822081496247  97.0855361831566 25.8822081496247  Z " stroke-width="0.97600957434184" stroke="#47b3fe" fill="none" transform="matrix(1 0 0 1 873 783 )" mask="url(#clip1791)" />
  </g>
</svg>