<?xml version="1.0" encoding="utf-8"?>
<svg version="1.1" xmlns:xlink="http://www.w3.org/1999/xlink" width="75px" height="64px" xmlns="http://www.w3.org/2000/svg">
  <defs>
    <mask fill="white" id="clip1798">
      <path d="M 9.22427741157185 40.5094379722856  C 9.22427741157185 40.5094379722856  9.21590207298345 44.1600953837045  9.21590207298345 44.1600953837045  C 9.21590207298345 44.1600953837045  19.6655602049527 52.9926849673418  19.6655602049527 52.9926849673418  C 19.6655602049527 52.9926849673418  28.2808788911841 54.7788292458142  28.2808788911841 54.7788292458142  C 28.2808788911841 54.7788292458142  36.237870552462 53.6698190832921  36.237870552462 53.6698190832921  C 36.237870552462 53.6698190832921  39.1815250060151 54.8113221306716  39.1815250060151 54.8113221306716  C 39.1815250060151 54.8113221306716  41.9734510068715 53.3099241312495  41.9734510068715 53.3099241312495  C 41.9734510068715 53.3099241312495  43.9557062380029 55.2025448106999  43.9557062380029 55.2025448106999  C 43.9557062380029 55.2025448106999  44.8748378830537 58.2220948711063  44.8748378830537 58.2220948711063  C 44.8748378830537 58.2220948711063  48.7140800331163 60.2447458300239  48.7140800331163 60.2447458300239  C 48.7140800331163 60.2447458300239  53.7523420790678 60.2597639919582  53.7523420790678 60.2597639919582  C 53.7523420790678 60.2597639919582  57.5911818740526 63.2924008067833  57.5911818740526 63.2924008067833  C 57.5911818740526 63.2924008067833  61.0422316687991 61.7920908131383  61.0422316687991 61.7920908131383  C 61.0422316687991 61.7920908131383  63.6909174973234 63.3114597572963  63.6909174973234 63.3114597572963  C 63.6909174973234 63.3114597572963  65.8211096904315 59.1665172008065  65.8211096904315 59.1665172008065  C 65.8211096904315 59.1665172008065  69.0074469031538 57.6671715958439  69.0074469031538 57.6671715958439  C 69.0074469031538 57.6671715958439  69.6830019607601 54.271876417043  69.6830019607601 54.271876417043  C 69.6830019607601 54.271876417043  68.5065042432811 48.2356256264278  68.5065042432811 48.2356256264278  C 68.5065042432811 48.2356256264278  67.8471457422627 47.7277899436538  67.8471457422627 47.7277899436538  C 67.8471457422627 47.7277899436538  64.654477613572 50.7394670855448  64.654477613572 50.7394670855448  C 64.654477613572 50.7394670855448  59.8928196833735 47.0772212290326  59.8928196833735 47.0772212290326  C 59.8928196833735 47.0772212290326  56.3259966268431 42.7934321270853  56.3259966268431 42.7934321270853  C 56.3259966268431 42.7934321270853  59.9129374372524 40.4141721513809  59.9129374372524 40.4141721513809  C 59.9129374372524 40.4141721513809  60.8532024298099 36.1420644265271  60.8532024298099 36.1420644265271  C 60.8532024298099 36.1420644265271  63.1086549938996 34.6390672953264  63.1086549938996 34.6390672953264  C 63.1086549938996 34.6390672953264  62.7317347572591 28.5517196854555  62.7317347572591 28.5517196854555  C 62.7317347572591 28.5517196854555  64.3237743870375 27.2992418022537  64.3237743870375 27.2992418022537  C 64.3237743870375 27.2992418022537  67.2342671939227 29.1955061174891  67.2342671939227 29.1955061174891  C 67.2342671939227 29.1955061174891  69.0787158109845 32.0170443867795  69.0787158109845 32.0170443867795  C 69.0787158109845 32.0170443867795  72.9342974595702 29.2124968926372  72.9342974595702 29.2124968926372  C 72.9342974595702 29.2124968926372  74.262397452605 27.7049820388185  74.262397452605 27.7049820388185  C 74.262397452605 27.7049820388185  73.6089781007686 24.9378440583791  73.6089781007686 24.9378440583791  C 73.6089781007686 24.9378440583791  69.1055765418432 22.5362216625663  69.1055765418432 22.5362216625663  C 69.1055765418432 22.5362216625663  68.1856851868761 19.7682893765395  68.1856851868761 19.7682893765395  C 68.1856851868761 19.7682893765395  60.2285708778882 20.6256791345311  60.2285708778882 20.6256791345311  C 60.2285708778882 20.6256791345311  55.2028400749448 16.4602827708069  55.2028400749448 16.4602827708069  C 55.2028400749448 16.4602827708069  52.9529640110532 15.8240878311367  52.9529640110532 15.8240878311367  C 52.9529640110532 15.8240878311367  52.9613155259856 13.0580457469274  52.9613155259856 13.0580457469274  C 52.9613155259856 13.0580457469274  64.1328577850854 1.39758975080986  64.1328577850854 1.39758975080986  C 64.1328577850854 1.39758975080986  60.0193065314559 2.26205286142749  60.0193065314559 2.26205286142749  C 60.0193065314559 2.26205286142749  57.4957346025471 4.01762426523737  57.4957346025471 4.01762426523737  C 57.4957346025471 4.01762426523737  56.4414610634578 2.50563815480075  56.4414610634578 2.50563815480075  C 56.4414610634578 2.50563815480075  56.4467737387256 0.746067168110358  56.4467737387256 0.746067168110358  C 56.4467737387256 0.746067168110358  54.5957286160499 0.109307622702659  54.5957286160499 0.109307622702659  C 54.5957286160499 0.109307622702659  49.5500080010836 1.98010243283875  49.5500080010836 1.98010243283875  C 49.5500080010836 1.98010243283875  36.3959643330743 0.432049062401347  36.3959643330743 0.432049062401347  C 36.3959643330743 0.432049062401347  35.70331712589 10.365030680609  35.70331712589 10.365030680609  C 35.70331712589 10.365030680609  29.5899093712001 14.8742149519475  29.5899093712001 14.8742149519475  C 29.5899093712001 14.8742149519475  21.3653127595992 16.3576656779921  21.3653127595992 16.3576656779921  C 21.3653127595992 16.3576656779921  9.80483961184996 23.8630398857009  9.80483961184996 23.8630398857009  C 9.80483961184996 23.8630398857009  0.651107184431567 26.2248295220674  0.651107184431567 26.2248295220674  C 0.651107184431567 26.2248295220674  0.646548924934223 27.7345361683458  0.646548924934223 27.7345361683458  C 0.646548924934223 27.7345361683458  9.22427741157185 40.5094379722856  9.22427741157185 40.5094379722856  Z " fill-rule="evenodd" />
    </mask>
  </defs>
  <g transform="matrix(1 0 0 1 -1027 -683 )">
    <path d="M 9.22427741157185 40.5094379722856  C 9.22427741157185 40.5094379722856  9.21590207298345 44.1600953837045  9.21590207298345 44.1600953837045  C 9.21590207298345 44.1600953837045  19.6655602049527 52.9926849673418  19.6655602049527 52.9926849673418  C 19.6655602049527 52.9926849673418  28.2808788911841 54.7788292458142  28.2808788911841 54.7788292458142  C 28.2808788911841 54.7788292458142  36.237870552462 53.6698190832921  36.237870552462 53.6698190832921  C 36.237870552462 53.6698190832921  39.1815250060151 54.8113221306716  39.1815250060151 54.8113221306716  C 39.1815250060151 54.8113221306716  41.9734510068715 53.3099241312495  41.9734510068715 53.3099241312495  C 41.9734510068715 53.3099241312495  43.9557062380029 55.2025448106999  43.9557062380029 55.2025448106999  C 43.9557062380029 55.2025448106999  44.8748378830537 58.2220948711063  44.8748378830537 58.2220948711063  C 44.8748378830537 58.2220948711063  48.7140800331163 60.2447458300239  48.7140800331163 60.2447458300239  C 48.7140800331163 60.2447458300239  53.7523420790678 60.2597639919582  53.7523420790678 60.2597639919582  C 53.7523420790678 60.2597639919582  57.5911818740526 63.2924008067833  57.5911818740526 63.2924008067833  C 57.5911818740526 63.2924008067833  61.0422316687991 61.7920908131383  61.0422316687991 61.7920908131383  C 61.0422316687991 61.7920908131383  63.6909174973234 63.3114597572963  63.6909174973234 63.3114597572963  C 63.6909174973234 63.3114597572963  65.8211096904315 59.1665172008065  65.8211096904315 59.1665172008065  C 65.8211096904315 59.1665172008065  69.0074469031538 57.6671715958439  69.0074469031538 57.6671715958439  C 69.0074469031538 57.6671715958439  69.6830019607601 54.271876417043  69.6830019607601 54.271876417043  C 69.6830019607601 54.271876417043  68.5065042432811 48.2356256264278  68.5065042432811 48.2356256264278  C 68.5065042432811 48.2356256264278  67.8471457422627 47.7277899436538  67.8471457422627 47.7277899436538  C 67.8471457422627 47.7277899436538  64.654477613572 50.7394670855448  64.654477613572 50.7394670855448  C 64.654477613572 50.7394670855448  59.8928196833735 47.0772212290326  59.8928196833735 47.0772212290326  C 59.8928196833735 47.0772212290326  56.3259966268431 42.7934321270853  56.3259966268431 42.7934321270853  C 56.3259966268431 42.7934321270853  59.9129374372524 40.4141721513809  59.9129374372524 40.4141721513809  C 59.9129374372524 40.4141721513809  60.8532024298099 36.1420644265271  60.8532024298099 36.1420644265271  C 60.8532024298099 36.1420644265271  63.1086549938996 34.6390672953264  63.1086549938996 34.6390672953264  C 63.1086549938996 34.6390672953264  62.7317347572591 28.5517196854555  62.7317347572591 28.5517196854555  C 62.7317347572591 28.5517196854555  64.3237743870375 27.2992418022537  64.3237743870375 27.2992418022537  C 64.3237743870375 27.2992418022537  67.2342671939227 29.1955061174891  67.2342671939227 29.1955061174891  C 67.2342671939227 29.1955061174891  69.0787158109845 32.0170443867795  69.0787158109845 32.0170443867795  C 69.0787158109845 32.0170443867795  72.9342974595702 29.2124968926372  72.9342974595702 29.2124968926372  C 72.9342974595702 29.2124968926372  74.262397452605 27.7049820388185  74.262397452605 27.7049820388185  C 74.262397452605 27.7049820388185  73.6089781007686 24.9378440583791  73.6089781007686 24.9378440583791  C 73.6089781007686 24.9378440583791  69.1055765418432 22.5362216625663  69.1055765418432 22.5362216625663  C 69.1055765418432 22.5362216625663  68.1856851868761 19.7682893765395  68.1856851868761 19.7682893765395  C 68.1856851868761 19.7682893765395  60.2285708778882 20.6256791345311  60.2285708778882 20.6256791345311  C 60.2285708778882 20.6256791345311  55.2028400749448 16.4602827708069  55.2028400749448 16.4602827708069  C 55.2028400749448 16.4602827708069  52.9529640110532 15.8240878311367  52.9529640110532 15.8240878311367  C 52.9529640110532 15.8240878311367  52.9613155259856 13.0580457469274  52.9613155259856 13.0580457469274  C 52.9613155259856 13.0580457469274  64.1328577850854 1.39758975080986  64.1328577850854 1.39758975080986  C 64.1328577850854 1.39758975080986  60.0193065314559 2.26205286142749  60.0193065314559 2.26205286142749  C 60.0193065314559 2.26205286142749  57.4957346025471 4.01762426523737  57.4957346025471 4.01762426523737  C 57.4957346025471 4.01762426523737  56.4414610634578 2.50563815480075  56.4414610634578 2.50563815480075  C 56.4414610634578 2.50563815480075  56.4467737387256 0.746067168110358  56.4467737387256 0.746067168110358  C 56.4467737387256 0.746067168110358  54.5957286160499 0.109307622702659  54.5957286160499 0.109307622702659  C 54.5957286160499 0.109307622702659  49.5500080010836 1.98010243283875  49.5500080010836 1.98010243283875  C 49.5500080010836 1.98010243283875  36.3959643330743 0.432049062401347  36.3959643330743 0.432049062401347  C 36.3959643330743 0.432049062401347  35.70331712589 10.365030680609  35.70331712589 10.365030680609  C 35.70331712589 10.365030680609  29.5899093712001 14.8742149519475  29.5899093712001 14.8742149519475  C 29.5899093712001 14.8742149519475  21.3653127595992 16.3576656779921  21.3653127595992 16.3576656779921  C 21.3653127595992 16.3576656779921  9.80483961184996 23.8630398857009  9.80483961184996 23.8630398857009  C 9.80483961184996 23.8630398857009  0.651107184431567 26.2248295220674  0.651107184431567 26.2248295220674  C 0.651107184431567 26.2248295220674  0.646548924934223 27.7345361683458  0.646548924934223 27.7345361683458  C 0.646548924934223 27.7345361683458  9.22427741157185 40.5094379722856  9.22427741157185 40.5094379722856  Z " fill-rule="nonzero" fill="#031e4b" stroke="none" transform="matrix(1 0 0 1 1027 683 )" />
    <path d="M 9.22427741157185 40.5094379722856  C 9.22427741157185 40.5094379722856  9.21590207298345 44.1600953837045  9.21590207298345 44.1600953837045  C 9.21590207298345 44.1600953837045  19.6655602049527 52.9926849673418  19.6655602049527 52.9926849673418  C 19.6655602049527 52.9926849673418  28.2808788911841 54.7788292458142  28.2808788911841 54.7788292458142  C 28.2808788911841 54.7788292458142  36.237870552462 53.6698190832921  36.237870552462 53.6698190832921  C 36.237870552462 53.6698190832921  39.1815250060151 54.8113221306716  39.1815250060151 54.8113221306716  C 39.1815250060151 54.8113221306716  41.9734510068715 53.3099241312495  41.9734510068715 53.3099241312495  C 41.9734510068715 53.3099241312495  43.9557062380029 55.2025448106999  43.9557062380029 55.2025448106999  C 43.9557062380029 55.2025448106999  44.8748378830537 58.2220948711063  44.8748378830537 58.2220948711063  C 44.8748378830537 58.2220948711063  48.7140800331163 60.2447458300239  48.7140800331163 60.2447458300239  C 48.7140800331163 60.2447458300239  53.7523420790678 60.2597639919582  53.7523420790678 60.2597639919582  C 53.7523420790678 60.2597639919582  57.5911818740526 63.2924008067833  57.5911818740526 63.2924008067833  C 57.5911818740526 63.2924008067833  61.0422316687991 61.7920908131383  61.0422316687991 61.7920908131383  C 61.0422316687991 61.7920908131383  63.6909174973234 63.3114597572963  63.6909174973234 63.3114597572963  C 63.6909174973234 63.3114597572963  65.8211096904315 59.1665172008065  65.8211096904315 59.1665172008065  C 65.8211096904315 59.1665172008065  69.0074469031538 57.6671715958439  69.0074469031538 57.6671715958439  C 69.0074469031538 57.6671715958439  69.6830019607601 54.271876417043  69.6830019607601 54.271876417043  C 69.6830019607601 54.271876417043  68.5065042432811 48.2356256264278  68.5065042432811 48.2356256264278  C 68.5065042432811 48.2356256264278  67.8471457422627 47.7277899436538  67.8471457422627 47.7277899436538  C 67.8471457422627 47.7277899436538  64.654477613572 50.7394670855448  64.654477613572 50.7394670855448  C 64.654477613572 50.7394670855448  59.8928196833735 47.0772212290326  59.8928196833735 47.0772212290326  C 59.8928196833735 47.0772212290326  56.3259966268431 42.7934321270853  56.3259966268431 42.7934321270853  C 56.3259966268431 42.7934321270853  59.9129374372524 40.4141721513809  59.9129374372524 40.4141721513809  C 59.9129374372524 40.4141721513809  60.8532024298099 36.1420644265271  60.8532024298099 36.1420644265271  C 60.8532024298099 36.1420644265271  63.1086549938996 34.6390672953264  63.1086549938996 34.6390672953264  C 63.1086549938996 34.6390672953264  62.7317347572591 28.5517196854555  62.7317347572591 28.5517196854555  C 62.7317347572591 28.5517196854555  64.3237743870375 27.2992418022537  64.3237743870375 27.2992418022537  C 64.3237743870375 27.2992418022537  67.2342671939227 29.1955061174891  67.2342671939227 29.1955061174891  C 67.2342671939227 29.1955061174891  69.0787158109845 32.0170443867795  69.0787158109845 32.0170443867795  C 69.0787158109845 32.0170443867795  72.9342974595702 29.2124968926372  72.9342974595702 29.2124968926372  C 72.9342974595702 29.2124968926372  74.262397452605 27.7049820388185  74.262397452605 27.7049820388185  C 74.262397452605 27.7049820388185  73.6089781007686 24.9378440583791  73.6089781007686 24.9378440583791  C 73.6089781007686 24.9378440583791  69.1055765418432 22.5362216625663  69.1055765418432 22.5362216625663  C 69.1055765418432 22.5362216625663  68.1856851868761 19.7682893765395  68.1856851868761 19.7682893765395  C 68.1856851868761 19.7682893765395  60.2285708778882 20.6256791345311  60.2285708778882 20.6256791345311  C 60.2285708778882 20.6256791345311  55.2028400749448 16.4602827708069  55.2028400749448 16.4602827708069  C 55.2028400749448 16.4602827708069  52.9529640110532 15.8240878311367  52.9529640110532 15.8240878311367  C 52.9529640110532 15.8240878311367  52.9613155259856 13.0580457469274  52.9613155259856 13.0580457469274  C 52.9613155259856 13.0580457469274  64.1328577850854 1.39758975080986  64.1328577850854 1.39758975080986  C 64.1328577850854 1.39758975080986  60.0193065314559 2.26205286142749  60.0193065314559 2.26205286142749  C 60.0193065314559 2.26205286142749  57.4957346025471 4.01762426523737  57.4957346025471 4.01762426523737  C 57.4957346025471 4.01762426523737  56.4414610634578 2.50563815480075  56.4414610634578 2.50563815480075  C 56.4414610634578 2.50563815480075  56.4467737387256 0.746067168110358  56.4467737387256 0.746067168110358  C 56.4467737387256 0.746067168110358  54.5957286160499 0.109307622702659  54.5957286160499 0.109307622702659  C 54.5957286160499 0.109307622702659  49.5500080010836 1.98010243283875  49.5500080010836 1.98010243283875  C 49.5500080010836 1.98010243283875  36.3959643330743 0.432049062401347  36.3959643330743 0.432049062401347  C 36.3959643330743 0.432049062401347  35.70331712589 10.365030680609  35.70331712589 10.365030680609  C 35.70331712589 10.365030680609  29.5899093712001 14.8742149519475  29.5899093712001 14.8742149519475  C 29.5899093712001 14.8742149519475  21.3653127595992 16.3576656779921  21.3653127595992 16.3576656779921  C 21.3653127595992 16.3576656779921  9.80483961184996 23.8630398857009  9.80483961184996 23.8630398857009  C 9.80483961184996 23.8630398857009  0.651107184431567 26.2248295220674  0.651107184431567 26.2248295220674  C 0.651107184431567 26.2248295220674  0.646548924934223 27.7345361683458  0.646548924934223 27.7345361683458  C 0.646548924934223 27.7345361683458  9.22427741157185 40.5094379722856  9.22427741157185 40.5094379722856  Z " stroke-width="0.97600957434184" stroke="#47b3fe" fill="none" transform="matrix(1 0 0 1 1027 683 )" mask="url(#clip1798)" />
  </g>
</svg>