<?xml version="1.0" encoding="utf-8"?>
<svg version="1.1" xmlns:xlink="http://www.w3.org/1999/xlink" width="67px" height="91px" xmlns="http://www.w3.org/2000/svg">
  <defs>
    <mask fill="white" id="clip1799">
      <path d="M 24.1355920079177 88.9115444008995  C 24.1355920079177 88.9115444008995  25.9991346133604 89.5418522476668  25.9991346133604 89.5418522476668  C 25.9991346133604 89.5418522476668  26.3977461772504 88.0397676469964  26.3977461772504 88.0397676469964  C 26.3977461772504 88.0397676469964  24.4234272994045 84.3920867787793  24.4234272994045 84.3920867787793  C 24.4234272994045 84.3920867787793  32.1471348628727 71.2391464401582  32.1471348628727 71.2391464401582  C 32.1471348628727 71.2391464401582  39.6191335503599 65.2369339450033  39.6191335503599 65.2369339450033  C 39.6191335503599 65.2369339450033  44.6567686409701 63.9971661121653  44.6567686409701 63.9971661121653  C 44.6567686409701 63.9971661121653  49.419606180373 58.2966412188915  49.419606180373 58.2966412188915  C 49.419606180373 58.2966412188915  47.5903748097453 57.1064275241728  47.5903748097453 57.1064275241728  C 47.5903748097453 57.1064275241728  45.8660986148229 52.9843593870853  45.8660986148229 52.9843593870853  C 45.8660986148229 52.9843593870853  42.1690533660731 54.326995391126  42.1690533660731 54.326995391126  C 42.1690533660731 54.326995391126  36.0774541923513 52.8029604239049  36.0774541923513 52.8029604239049  C 36.0774541923513 52.8029604239049  35.8175201411179 51.2997899424688  35.8175201411179 51.2997899424688  C 35.8175201411179 51.2997899424688  35.583549609323 41.2066988508346  35.583549609323 41.2066988508346  C 35.583549609323 41.2066988508346  31.9679115559816 42.4498258265088  31.9679115559816 42.4498258265088  C 31.9679115559816 42.4498258265088  29.9772798546767 44.1991736150811  29.9772798546767 44.1991736150811  C 29.9772798546767 44.1991736150811  25.8742750424947 43.0581903067628  25.8742750424947 43.0581903067628  C 25.8742750424947 43.0581903067628  20.4401776888803 43.9222722698086  20.4401776888803 43.9222722698086  C 20.4401776888803 43.9222722698086  19.5217297595341 41.5325033307699  19.5217297595341 41.5325033307699  C 19.5217297595341 41.5325033307699  20.1939249339753 37.017690233311  20.1939249339753 37.017690233311  C 20.1939249339753 37.017690233311  24.3166410745034 32.5122764357599  24.3166410745034 32.5122764357599  C 24.3166410745034 32.5122764357599  25.257855019468 27.3700053816658  25.257855019468 27.3700053816658  C 25.257855019468 27.3700053816658  29.3786775183623 23.491094910681  29.3786775183623 23.491094910681  C 29.3786775183623 23.491094910681  37.2155301694431 27.1553571169404  37.2155301694431 27.1553571169404  C 37.2155301694431 27.1553571169404  39.0668557889644 27.1608696462105  39.0668557889644 27.1608696462105  C 39.0668557889644 27.1608696462105  40.3740609404028 32.1838338168167  40.3740609404028 32.1838338168167  C 40.3740609404028 32.1838338168167  42.4868334086639 33.1920141699868  42.4868334086639 33.1920141699868  C 42.4868334086639 33.1920141699868  43.5348635523731 36.4606815257426  43.5348635523731 36.4606815257426  C 43.5348635523731 36.4606815257426  43.1334635394667 38.5936418511957  43.1334635394667 38.5936418511957  C 43.1334635394667 38.5936418511957  47.6274974147511 41.6161914001314  47.6274974147511 41.6161914001314  C 47.6274974147511 41.6161914001314  48.2814702555945 44.0051728349885  48.2814702555945 44.0051728349885  C 48.2814702555945 44.0051728349885  51.9901515266547 45.5212373848888  51.9901515266547 45.5212373848888  C 51.9901515266547 45.5212373848888  61.2761804382662 40.7800693355451  61.2761804382662 40.7800693355451  C 61.2761804382662 40.7800693355451  61.2845272720592 38.0185546726354  61.2845272720592 38.0185546726354  C 61.2845272720592 38.0185546726354  66.7396063160284 30.5044400246816  66.7396063160284 30.5044400246816  C 66.7396063160284 30.5044400246816  62.9149765214174 25.348853149884  62.9149765214174 25.348853149884  C 62.9149765214174 25.348853149884  59.9976937551046 25.0890380203347  59.9976937551046 25.0890380203347  C 59.9976937551046 25.0890380203347  54.7087429748117 21.6826160581384  54.7087429748117 21.6826160581384  C 54.7087429748117 21.6826160581384  56.5763734835391 16.2937249445572  56.5763734835391 16.2937249445572  C 56.5763734835391 16.2937249445572  48.3627892926404 15.6427591131015  48.3627892926404 15.6427591131015  C 48.3627892926404 15.6427591131015  44.8049090722936 10.6104682679731  44.8049090722936 10.6104682679731  C 44.8049090722936 10.6104682679731  45.2090790209602 7.85275725025974  45.2090790209602 7.85275725025974  C 45.2090790209602 7.85275725025974  38.2127934383307 0.552695863871804  38.2127934383307 0.552695863871804  C 38.2127934383307 0.552695863871804  33.2685903438196 2.67300449714776  33.2685903438196 2.67300449714776  C 33.2685903438196 2.67300449714776  29.4182941234531 6.30071688433748  29.4182941234531 6.30071688433748  C 29.4182941234531 6.30071688433748  30.7323227321749 9.0661690681543  30.7323227321749 9.0661690681543  C 30.7323227321749 9.0661690681543  29.8004703237598 10.8195445031124  29.8004703237598 10.8195445031124  C 29.8004703237598 10.8195445031124  24.3682719012811 11.0553731302998  24.3682719012811 11.0553731302998  C 24.3682719012811 11.0553731302998  21.8449133187062 13.1776400239736  21.8449133187062 13.1776400239736  C 21.8449133187062 13.1776400239736  19.5968750664306 12.2959337173472  19.5968750664306 12.2959337173472  C 19.5968750664306 12.2959337173472  17.3379783486043 14.4233631384326  17.3379783486043 14.4233631384326  C 17.3379783486043 14.4233631384326  12.291370499825 18.0483883863543  12.291370499825 18.0483883863543  C 12.291370499825 18.0483883863543  10.0434812351825 16.5340484706113  10.0434812351825 16.5340484706113  C 10.0434812351825 16.5340484706113  10.0582733268823 11.6401474852964  10.0582733268823 11.6401474852964  C 10.0582733268823 11.6401474852964  8.20959245824611 10.759630309984  8.20959245824611 10.759630309984  C 8.20959245824611 10.759630309984  5.29128176542281 12.0065836809753  5.29128176542281 12.0065836809753  C 5.29128176542281 12.0065836809753  1.82784383601324 18.895744635591  1.82784383601324 18.895744635591  C 1.82784383601324 18.895744635591  0.480960368630122 25.5418292995361  0.480960368630122 25.5418292995361  C 0.480960368630122 25.5418292995361  4.56853658573255 32.0789688850118  4.56853658573255 32.0789688850118  C 4.56853658573255 32.0789688850118  8.1360181333755 35.1013845582366  8.1360181333755 35.1013845582366  C 8.1360181333755 35.1013845582366  8.1193244657893 40.624413884056  8.1193244657893 40.624413884056  C 8.1193244657893 40.624413884056  10.221470324994 45.1483629050243  10.221470324994 45.1483629050243  C 10.221470324994 45.1483629050243  9.27758341846834 50.5916303073291  9.27758341846834 50.5916303073291  C 9.27758341846834 50.5916303073291  3.83590620881751 53.9634755859323  3.83590620881751 53.9634755859323  C 3.83590620881751 53.9634755859323  1.29811257591246 61.7365303587895  1.29811257591246 61.7365303587895  C 1.29811257591246 61.7365303587895  5.78644965779063 66.6438399153005  5.78644965779063 66.6438399153005  C 5.78644965779063 66.6438399153005  8.94194160998359 72.6776969534794  8.94194160998359 72.6776969534794  C 8.94194160998359 72.6776969534794  6.95015150779113 75.6853092981025  6.95015150779113 75.6853092981025  C 6.95015150779113 75.6853092981025  6.40869165909885 79.8225062655201  6.40869165909885 79.8225062655201  C 6.40869165909885 79.8225062655201  4.41325797177046 82.5772291423672  4.41325797177046 82.5772291423672  C 4.41325797177046 82.5772291423672  3.47672611745611 85.5871086240281  3.47672611745611 85.5871086240281  C 3.47672611745611 85.5871086240281  6.3811263022078 89.2340588633657  6.3811263022078 89.2340588633657  C 6.3811263022078 89.2340588633657  19.0943001084172 90.7778103102761  19.0943001084172 90.7778103102761  C 19.0943001084172 90.7778103102761  24.1355920079177 88.9115444008995  24.1355920079177 88.9115444008995  Z " fill-rule="evenodd" />
    </mask>
  </defs>
  <g transform="matrix(1 0 0 1 -1056 -594 )">
    <path d="M 24.1355920079177 88.9115444008995  C 24.1355920079177 88.9115444008995  25.9991346133604 89.5418522476668  25.9991346133604 89.5418522476668  C 25.9991346133604 89.5418522476668  26.3977461772504 88.0397676469964  26.3977461772504 88.0397676469964  C 26.3977461772504 88.0397676469964  24.4234272994045 84.3920867787793  24.4234272994045 84.3920867787793  C 24.4234272994045 84.3920867787793  32.1471348628727 71.2391464401582  32.1471348628727 71.2391464401582  C 32.1471348628727 71.2391464401582  39.6191335503599 65.2369339450033  39.6191335503599 65.2369339450033  C 39.6191335503599 65.2369339450033  44.6567686409701 63.9971661121653  44.6567686409701 63.9971661121653  C 44.6567686409701 63.9971661121653  49.419606180373 58.2966412188915  49.419606180373 58.2966412188915  C 49.419606180373 58.2966412188915  47.5903748097453 57.1064275241728  47.5903748097453 57.1064275241728  C 47.5903748097453 57.1064275241728  45.8660986148229 52.9843593870853  45.8660986148229 52.9843593870853  C 45.8660986148229 52.9843593870853  42.1690533660731 54.326995391126  42.1690533660731 54.326995391126  C 42.1690533660731 54.326995391126  36.0774541923513 52.8029604239049  36.0774541923513 52.8029604239049  C 36.0774541923513 52.8029604239049  35.8175201411179 51.2997899424688  35.8175201411179 51.2997899424688  C 35.8175201411179 51.2997899424688  35.583549609323 41.2066988508346  35.583549609323 41.2066988508346  C 35.583549609323 41.2066988508346  31.9679115559816 42.4498258265088  31.9679115559816 42.4498258265088  C 31.9679115559816 42.4498258265088  29.9772798546767 44.1991736150811  29.9772798546767 44.1991736150811  C 29.9772798546767 44.1991736150811  25.8742750424947 43.0581903067628  25.8742750424947 43.0581903067628  C 25.8742750424947 43.0581903067628  20.4401776888803 43.9222722698086  20.4401776888803 43.9222722698086  C 20.4401776888803 43.9222722698086  19.5217297595341 41.5325033307699  19.5217297595341 41.5325033307699  C 19.5217297595341 41.5325033307699  20.1939249339753 37.017690233311  20.1939249339753 37.017690233311  C 20.1939249339753 37.017690233311  24.3166410745034 32.5122764357599  24.3166410745034 32.5122764357599  C 24.3166410745034 32.5122764357599  25.257855019468 27.3700053816658  25.257855019468 27.3700053816658  C 25.257855019468 27.3700053816658  29.3786775183623 23.491094910681  29.3786775183623 23.491094910681  C 29.3786775183623 23.491094910681  37.2155301694431 27.1553571169404  37.2155301694431 27.1553571169404  C 37.2155301694431 27.1553571169404  39.0668557889644 27.1608696462105  39.0668557889644 27.1608696462105  C 39.0668557889644 27.1608696462105  40.3740609404028 32.1838338168167  40.3740609404028 32.1838338168167  C 40.3740609404028 32.1838338168167  42.4868334086639 33.1920141699868  42.4868334086639 33.1920141699868  C 42.4868334086639 33.1920141699868  43.5348635523731 36.4606815257426  43.5348635523731 36.4606815257426  C 43.5348635523731 36.4606815257426  43.1334635394667 38.5936418511957  43.1334635394667 38.5936418511957  C 43.1334635394667 38.5936418511957  47.6274974147511 41.6161914001314  47.6274974147511 41.6161914001314  C 47.6274974147511 41.6161914001314  48.2814702555945 44.0051728349885  48.2814702555945 44.0051728349885  C 48.2814702555945 44.0051728349885  51.9901515266547 45.5212373848888  51.9901515266547 45.5212373848888  C 51.9901515266547 45.5212373848888  61.2761804382662 40.7800693355451  61.2761804382662 40.7800693355451  C 61.2761804382662 40.7800693355451  61.2845272720592 38.0185546726354  61.2845272720592 38.0185546726354  C 61.2845272720592 38.0185546726354  66.7396063160284 30.5044400246816  66.7396063160284 30.5044400246816  C 66.7396063160284 30.5044400246816  62.9149765214174 25.348853149884  62.9149765214174 25.348853149884  C 62.9149765214174 25.348853149884  59.9976937551046 25.0890380203347  59.9976937551046 25.0890380203347  C 59.9976937551046 25.0890380203347  54.7087429748117 21.6826160581384  54.7087429748117 21.6826160581384  C 54.7087429748117 21.6826160581384  56.5763734835391 16.2937249445572  56.5763734835391 16.2937249445572  C 56.5763734835391 16.2937249445572  48.3627892926404 15.6427591131015  48.3627892926404 15.6427591131015  C 48.3627892926404 15.6427591131015  44.8049090722936 10.6104682679731  44.8049090722936 10.6104682679731  C 44.8049090722936 10.6104682679731  45.2090790209602 7.85275725025974  45.2090790209602 7.85275725025974  C 45.2090790209602 7.85275725025974  38.2127934383307 0.552695863871804  38.2127934383307 0.552695863871804  C 38.2127934383307 0.552695863871804  33.2685903438196 2.67300449714776  33.2685903438196 2.67300449714776  C 33.2685903438196 2.67300449714776  29.4182941234531 6.30071688433748  29.4182941234531 6.30071688433748  C 29.4182941234531 6.30071688433748  30.7323227321749 9.0661690681543  30.7323227321749 9.0661690681543  C 30.7323227321749 9.0661690681543  29.8004703237598 10.8195445031124  29.8004703237598 10.8195445031124  C 29.8004703237598 10.8195445031124  24.3682719012811 11.0553731302998  24.3682719012811 11.0553731302998  C 24.3682719012811 11.0553731302998  21.8449133187062 13.1776400239736  21.8449133187062 13.1776400239736  C 21.8449133187062 13.1776400239736  19.5968750664306 12.2959337173472  19.5968750664306 12.2959337173472  C 19.5968750664306 12.2959337173472  17.3379783486043 14.4233631384326  17.3379783486043 14.4233631384326  C 17.3379783486043 14.4233631384326  12.291370499825 18.0483883863543  12.291370499825 18.0483883863543  C 12.291370499825 18.0483883863543  10.0434812351825 16.5340484706113  10.0434812351825 16.5340484706113  C 10.0434812351825 16.5340484706113  10.0582733268823 11.6401474852964  10.0582733268823 11.6401474852964  C 10.0582733268823 11.6401474852964  8.20959245824611 10.759630309984  8.20959245824611 10.759630309984  C 8.20959245824611 10.759630309984  5.29128176542281 12.0065836809753  5.29128176542281 12.0065836809753  C 5.29128176542281 12.0065836809753  1.82784383601324 18.895744635591  1.82784383601324 18.895744635591  C 1.82784383601324 18.895744635591  0.480960368630122 25.5418292995361  0.480960368630122 25.5418292995361  C 0.480960368630122 25.5418292995361  4.56853658573255 32.0789688850118  4.56853658573255 32.0789688850118  C 4.56853658573255 32.0789688850118  8.1360181333755 35.1013845582366  8.1360181333755 35.1013845582366  C 8.1360181333755 35.1013845582366  8.1193244657893 40.624413884056  8.1193244657893 40.624413884056  C 8.1193244657893 40.624413884056  10.221470324994 45.1483629050243  10.221470324994 45.1483629050243  C 10.221470324994 45.1483629050243  9.27758341846834 50.5916303073291  9.27758341846834 50.5916303073291  C 9.27758341846834 50.5916303073291  3.83590620881751 53.9634755859323  3.83590620881751 53.9634755859323  C 3.83590620881751 53.9634755859323  1.29811257591246 61.7365303587895  1.29811257591246 61.7365303587895  C 1.29811257591246 61.7365303587895  5.78644965779063 66.6438399153005  5.78644965779063 66.6438399153005  C 5.78644965779063 66.6438399153005  8.94194160998359 72.6776969534794  8.94194160998359 72.6776969534794  C 8.94194160998359 72.6776969534794  6.95015150779113 75.6853092981025  6.95015150779113 75.6853092981025  C 6.95015150779113 75.6853092981025  6.40869165909885 79.8225062655201  6.40869165909885 79.8225062655201  C 6.40869165909885 79.8225062655201  4.41325797177046 82.5772291423672  4.41325797177046 82.5772291423672  C 4.41325797177046 82.5772291423672  3.47672611745611 85.5871086240281  3.47672611745611 85.5871086240281  C 3.47672611745611 85.5871086240281  6.3811263022078 89.2340588633657  6.3811263022078 89.2340588633657  C 6.3811263022078 89.2340588633657  19.0943001084172 90.7778103102761  19.0943001084172 90.7778103102761  C 19.0943001084172 90.7778103102761  24.1355920079177 88.9115444008995  24.1355920079177 88.9115444008995  Z " fill-rule="nonzero" fill="#031e4b" stroke="none" transform="matrix(1 0 0 1 1056 594 )" />
    <path d="M 24.1355920079177 88.9115444008995  C 24.1355920079177 88.9115444008995  25.9991346133604 89.5418522476668  25.9991346133604 89.5418522476668  C 25.9991346133604 89.5418522476668  26.3977461772504 88.0397676469964  26.3977461772504 88.0397676469964  C 26.3977461772504 88.0397676469964  24.4234272994045 84.3920867787793  24.4234272994045 84.3920867787793  C 24.4234272994045 84.3920867787793  32.1471348628727 71.2391464401582  32.1471348628727 71.2391464401582  C 32.1471348628727 71.2391464401582  39.6191335503599 65.2369339450033  39.6191335503599 65.2369339450033  C 39.6191335503599 65.2369339450033  44.6567686409701 63.9971661121653  44.6567686409701 63.9971661121653  C 44.6567686409701 63.9971661121653  49.419606180373 58.2966412188915  49.419606180373 58.2966412188915  C 49.419606180373 58.2966412188915  47.5903748097453 57.1064275241728  47.5903748097453 57.1064275241728  C 47.5903748097453 57.1064275241728  45.8660986148229 52.9843593870853  45.8660986148229 52.9843593870853  C 45.8660986148229 52.9843593870853  42.1690533660731 54.326995391126  42.1690533660731 54.326995391126  C 42.1690533660731 54.326995391126  36.0774541923513 52.8029604239049  36.0774541923513 52.8029604239049  C 36.0774541923513 52.8029604239049  35.8175201411179 51.2997899424688  35.8175201411179 51.2997899424688  C 35.8175201411179 51.2997899424688  35.583549609323 41.2066988508346  35.583549609323 41.2066988508346  C 35.583549609323 41.2066988508346  31.9679115559816 42.4498258265088  31.9679115559816 42.4498258265088  C 31.9679115559816 42.4498258265088  29.9772798546767 44.1991736150811  29.9772798546767 44.1991736150811  C 29.9772798546767 44.1991736150811  25.8742750424947 43.0581903067628  25.8742750424947 43.0581903067628  C 25.8742750424947 43.0581903067628  20.4401776888803 43.9222722698086  20.4401776888803 43.9222722698086  C 20.4401776888803 43.9222722698086  19.5217297595341 41.5325033307699  19.5217297595341 41.5325033307699  C 19.5217297595341 41.5325033307699  20.1939249339753 37.017690233311  20.1939249339753 37.017690233311  C 20.1939249339753 37.017690233311  24.3166410745034 32.5122764357599  24.3166410745034 32.5122764357599  C 24.3166410745034 32.5122764357599  25.257855019468 27.3700053816658  25.257855019468 27.3700053816658  C 25.257855019468 27.3700053816658  29.3786775183623 23.491094910681  29.3786775183623 23.491094910681  C 29.3786775183623 23.491094910681  37.2155301694431 27.1553571169404  37.2155301694431 27.1553571169404  C 37.2155301694431 27.1553571169404  39.0668557889644 27.1608696462105  39.0668557889644 27.1608696462105  C 39.0668557889644 27.1608696462105  40.3740609404028 32.1838338168167  40.3740609404028 32.1838338168167  C 40.3740609404028 32.1838338168167  42.4868334086639 33.1920141699868  42.4868334086639 33.1920141699868  C 42.4868334086639 33.1920141699868  43.5348635523731 36.4606815257426  43.5348635523731 36.4606815257426  C 43.5348635523731 36.4606815257426  43.1334635394667 38.5936418511957  43.1334635394667 38.5936418511957  C 43.1334635394667 38.5936418511957  47.6274974147511 41.6161914001314  47.6274974147511 41.6161914001314  C 47.6274974147511 41.6161914001314  48.2814702555945 44.0051728349885  48.2814702555945 44.0051728349885  C 48.2814702555945 44.0051728349885  51.9901515266547 45.5212373848888  51.9901515266547 45.5212373848888  C 51.9901515266547 45.5212373848888  61.2761804382662 40.7800693355451  61.2761804382662 40.7800693355451  C 61.2761804382662 40.7800693355451  61.2845272720592 38.0185546726354  61.2845272720592 38.0185546726354  C 61.2845272720592 38.0185546726354  66.7396063160284 30.5044400246816  66.7396063160284 30.5044400246816  C 66.7396063160284 30.5044400246816  62.9149765214174 25.348853149884  62.9149765214174 25.348853149884  C 62.9149765214174 25.348853149884  59.9976937551046 25.0890380203347  59.9976937551046 25.0890380203347  C 59.9976937551046 25.0890380203347  54.7087429748117 21.6826160581384  54.7087429748117 21.6826160581384  C 54.7087429748117 21.6826160581384  56.5763734835391 16.2937249445572  56.5763734835391 16.2937249445572  C 56.5763734835391 16.2937249445572  48.3627892926404 15.6427591131015  48.3627892926404 15.6427591131015  C 48.3627892926404 15.6427591131015  44.8049090722936 10.6104682679731  44.8049090722936 10.6104682679731  C 44.8049090722936 10.6104682679731  45.2090790209602 7.85275725025974  45.2090790209602 7.85275725025974  C 45.2090790209602 7.85275725025974  38.2127934383307 0.552695863871804  38.2127934383307 0.552695863871804  C 38.2127934383307 0.552695863871804  33.2685903438196 2.67300449714776  33.2685903438196 2.67300449714776  C 33.2685903438196 2.67300449714776  29.4182941234531 6.30071688433748  29.4182941234531 6.30071688433748  C 29.4182941234531 6.30071688433748  30.7323227321749 9.0661690681543  30.7323227321749 9.0661690681543  C 30.7323227321749 9.0661690681543  29.8004703237598 10.8195445031124  29.8004703237598 10.8195445031124  C 29.8004703237598 10.8195445031124  24.3682719012811 11.0553731302998  24.3682719012811 11.0553731302998  C 24.3682719012811 11.0553731302998  21.8449133187062 13.1776400239736  21.8449133187062 13.1776400239736  C 21.8449133187062 13.1776400239736  19.5968750664306 12.2959337173472  19.5968750664306 12.2959337173472  C 19.5968750664306 12.2959337173472  17.3379783486043 14.4233631384326  17.3379783486043 14.4233631384326  C 17.3379783486043 14.4233631384326  12.291370499825 18.0483883863543  12.291370499825 18.0483883863543  C 12.291370499825 18.0483883863543  10.0434812351825 16.5340484706113  10.0434812351825 16.5340484706113  C 10.0434812351825 16.5340484706113  10.0582733268823 11.6401474852964  10.0582733268823 11.6401474852964  C 10.0582733268823 11.6401474852964  8.20959245824611 10.759630309984  8.20959245824611 10.759630309984  C 8.20959245824611 10.759630309984  5.29128176542281 12.0065836809753  5.29128176542281 12.0065836809753  C 5.29128176542281 12.0065836809753  1.82784383601324 18.895744635591  1.82784383601324 18.895744635591  C 1.82784383601324 18.895744635591  0.480960368630122 25.5418292995361  0.480960368630122 25.5418292995361  C 0.480960368630122 25.5418292995361  4.56853658573255 32.0789688850118  4.56853658573255 32.0789688850118  C 4.56853658573255 32.0789688850118  8.1360181333755 35.1013845582366  8.1360181333755 35.1013845582366  C 8.1360181333755 35.1013845582366  8.1193244657893 40.624413884056  8.1193244657893 40.624413884056  C 8.1193244657893 40.624413884056  10.221470324994 45.1483629050243  10.221470324994 45.1483629050243  C 10.221470324994 45.1483629050243  9.27758341846834 50.5916303073291  9.27758341846834 50.5916303073291  C 9.27758341846834 50.5916303073291  3.83590620881751 53.9634755859323  3.83590620881751 53.9634755859323  C 3.83590620881751 53.9634755859323  1.29811257591246 61.7365303587895  1.29811257591246 61.7365303587895  C 1.29811257591246 61.7365303587895  5.78644965779063 66.6438399153005  5.78644965779063 66.6438399153005  C 5.78644965779063 66.6438399153005  8.94194160998359 72.6776969534794  8.94194160998359 72.6776969534794  C 8.94194160998359 72.6776969534794  6.95015150779113 75.6853092981025  6.95015150779113 75.6853092981025  C 6.95015150779113 75.6853092981025  6.40869165909885 79.8225062655201  6.40869165909885 79.8225062655201  C 6.40869165909885 79.8225062655201  4.41325797177046 82.5772291423672  4.41325797177046 82.5772291423672  C 4.41325797177046 82.5772291423672  3.47672611745611 85.5871086240281  3.47672611745611 85.5871086240281  C 3.47672611745611 85.5871086240281  6.3811263022078 89.2340588633657  6.3811263022078 89.2340588633657  C 6.3811263022078 89.2340588633657  19.0943001084172 90.7778103102761  19.0943001084172 90.7778103102761  C 19.0943001084172 90.7778103102761  24.1355920079177 88.9115444008995  24.1355920079177 88.9115444008995  Z " stroke-width="0.97600957434184" stroke="#47b3fe" fill="none" transform="matrix(1 0 0 1 1056 594 )" mask="url(#clip1799)" />
  </g>
</svg>