<?xml version="1.0" encoding="utf-8"?>
<svg version="1.1" xmlns:xlink="http://www.w3.org/1999/xlink" width="80px" height="52px" xmlns="http://www.w3.org/2000/svg">
  <g transform="matrix(1 0 0 1 -1078 -652 )">
    <path d="M 15.8640621081195 50.9366558538499  L 18.1112555785817 50.3061851163873  L 18.7814332029809 47.2754116000556  L 21.5567156313016 46.147674561224  L 26.6994304102791 50.3328965124549  L 28.2818563949586 50.3376558597597  L 33.039434183906 49.8478220724317  L 35.8195052090814 47.7074069785822  L 39.6425382556247 50.7516943971775  L 41.2332851636068 47.9757610136404  L 41.6316749712587 46.4592425884489  L 44.8097322854596 44.6998943315225  L 45.744659447477 41.0379758368599  L 48.9166745317932 40.4164561977726  L 57.8157371680686 26.1562371577614  L 56.2405033094897 23.7480074215484  L 57.8274655819919 22.236826516223  L 59.6717382317329 22.8743146468785  L 62.5835427036304 21.3671183728799  L 64.1810729443337 18.0870625837732  L 71.4637085362722 11.6591110293282  L 77.1507875243606 9.90819034257368  L 79.7953536542166 7.51353355978529  L 79.1541520078479 2.33003939273965  L 75.3205378062205 1.9404022052255  L 66.732851768327 2.92550336805459  L 60.7947701287999 0.126044707062078  L 57.2253850224665 0.748131942383566  L 48.3435857745583 11.5895743211237  L 45.8273825240774 13.0997231531722  L 40.1562948296896 10.6818187215214  L 39.7672562804819 7.89816814446567  L 38.5939287317426 3.0920620151486  L 35.4255839965854 1.31186341022419  L 30.2722590513806 2.43509228952564  L 27.0820170570973 0.334009675707648  L 22.3342177816098 6.0759480282826  L 17.3106289098844 7.32472143859889  L 10.2884799757862 13.3709424915801  L 2.58630809028728 26.6194247697071  L 4.5551246980267 30.2927207485099  L 4.15761401592226 31.8092418177832  L 4.15232343838011 33.5772512054436  L 5.20273516963357 35.0972457168889  L 7.71618148239918 33.3332544522585  L 11.8146647827189 32.4642126175381  L 0.691074290834877 44.1873320167322  L 0.682753367532086 46.968024747574  L 2.92614637825454 47.607594651995  L 7.93347054823425 51.7941721358472  L 15.8640621081195 50.9366558538499  Z " fill-rule="nonzero" fill="#031e4b" stroke="none" transform="matrix(1 0 0 1 1078 652 )" />
  </g>
</svg>