<?xml version="1.0" encoding="utf-8"?>
<svg version="1.1" xmlns:xlink="http://www.w3.org/1999/xlink" width="72px" height="67px" xmlns="http://www.w3.org/2000/svg">
  <defs>
    <mask fill="white" id="clip1801">
      <path d="M 55.6921797927098 47.5191307132466  C 55.6921797927098 47.5191307132466  59.5178744475959 46.6437728284864  59.5178744475959 46.6437728284864  C 59.5178744475959 46.6437728284864  67.0666263343423 36.0450949865314  67.0666263343423 36.0450949865314  C 67.0666263343423 36.0450949865314  71.8371767378694 30.4472522897886  71.8371767378694 30.4472522897886  C 71.8371767378694 30.4472522897886  71.1911173074652 25.3867339329375  71.1911173074652 25.3867339329375  C 71.1911173074652 25.3867339329375  66.1940563353735 19.8079581269086  66.1940563353735 19.8079581269086  C 66.1940563353735 19.8079581269086  65.5473576820632 15.2552345847342  65.5473576820632 15.2552345847342  C 65.5473576820632 15.2552345847342  56.481473447064 3.4674961397094  56.481473447064 3.4674961397094  C 56.481473447064 3.4674961397094  56.0785531613226 4.60618040950476  56.0785531613226 4.60618040950476  C 56.0785531613226 4.60618040950476  54.228974852748 6.496912817213  54.228974852748 6.496912817213  C 54.228974852748 6.496912817213  50.4143866958586 2.18590099267419  50.4143866958586 2.18590099267419  C 50.4143866958586 2.18590099267419  45.0101082444771 0.653285486471646  45.0101082444771 0.653285486471646  C 45.0101082444771 0.653285486471646  44.7421614558973 2.1688159019568  44.7421614558973 2.1688159019568  C 44.7421614558973 2.1688159019568  44.7349807348428 4.57201287282101  44.7349807348428 4.57201287282101  C 44.7349807348428 4.57201287282101  42.4851347399772 6.71367483658275  42.4851347399772 6.71367483658275  C 42.4851347399772 6.71367483658275  37.9889444273761 11.0005356776231  37.9889444273761 11.0005356776231  C 37.9889444273761 11.0005356776231  32.5458911359642 10.9841408668868  32.5458911359642 10.9841408668868  C 32.5458911359642 10.9841408668868  30.6929094922455 14.0138793224147  30.6929094922455 14.0138793224147  C 30.6929094922455 14.0138793224147  28.71114287203 14.0079101196671  28.71114287203 14.0079101196671  C 28.71114287203 14.0079101196671  25.2716486092286 17.2832419055463  25.2716486092286 17.2832419055463  C 25.2716486092286 17.2832419055463  23.2898819890131 17.2772727027988  23.2898819890131 17.2772727027988  C 23.2898819890131 17.2772727027988  19.1899510487367 21.1853611379214  19.1899510487367 21.1853611379214  C 19.1899510487367 21.1853611379214  16.6812171426598 21.8107874192951  16.6812171426598 21.8107874192951  C 16.6812171426598 21.8107874192951  11.2450987173384 29.7587116732944  11.2450987173384 29.7587116732944  C 11.2450987173384 29.7587116732944  7.8354231494518 24.817699911518  7.8354231494518 24.817699911518  C 7.8354231494518 24.817699911518  4.01428822609341 22.4038534104234  4.01428822609341 22.4038534104234  C 4.01428822609341 22.4038534104234  2.16508923660604 24.1676377756501  2.16508923660604 24.1676377756501  C 2.16508923660604 24.1676377756501  4.23939566525655 35.2255175426876  4.23939566525655 35.2255175426876  C 4.23939566525655 35.2255175426876  2.38014032968977 38.8855750687266  2.38014032968977 38.8855750687266  C 2.38014032968977 38.8855750687266  0.519977964916507 44.3185104951186  0.519977964916507 44.3185104951186  C 0.519977964916507 44.3185104951186  5.78512357997852 47.7478919673817  5.78512357997852 47.7478919673817  C 5.78512357997852 47.7478919673817  8.6907244713625 48.0096605941458  8.6907244713625 48.0096605941458  C 8.6907244713625 48.0096605941458  12.500039039275 53.204011280032  12.500039039275 53.204011280032  C 12.500039039275 53.204011280032  15.2748310409766 51.6951500446952  15.2748310409766 51.6951500446952  C 15.2748310409766 51.6951500446952  19.7771729959975 46.5249529870583  19.7771729959975 46.5249529870583  C 19.7771729959975 46.5249529870583  24.2855603489716 39.3315215023732  24.2855603489716 39.3315215023732  C 24.2855603489716 39.3315215023732  31.8079899496122 37.8360788514434  31.8079899496122 37.8360788514434  C 31.8079899496122 37.8360788514434  36.9748998235564 42.4050623220589  36.9748998235564 42.4050623220589  C 36.9748998235564 42.4050623220589  33.0925645752404 49.6003795141251  33.0925645752404 49.6003795141251  C 33.0925645752404 49.6003795141251  28.5874479713407 56.2869057020145  28.5874479713407 56.2869057020145  C 28.5874479713407 56.2869057020145  32.6673513906421 59.0814975931871  32.6673513906421 59.0814975931871  C 32.6673513906421 59.0814975931871  32.394104671482 62.3707742688993  32.394104671482 62.3707742688993  C 32.394104671482 62.3707742688993  29.217907026228 65.3930007503301  29.217907026228 65.3930007503301  C 29.217907026228 65.3930007503301  29.8735477757989 66.6591778812892  29.8735477757989 66.6591778812892  C 29.8735477757989 66.6591778812892  35.2924212315052 63.8949600724476  35.2924212315052 63.8949600724476  C 35.2924212315052 63.8949600724476  43.6637792421695 53.9299795294676  43.6637792421695 53.9299795294676  C 43.6637792421695 53.9299795294676  55.6921797927098 47.5191307132466  55.6921797927098 47.5191307132466  Z " fill-rule="evenodd" />
    </mask>
  </defs>
  <g transform="matrix(1 0 0 1 -1110 -572 )">
    <path d="M 55.6921797927098 47.5191307132466  C 55.6921797927098 47.5191307132466  59.5178744475959 46.6437728284864  59.5178744475959 46.6437728284864  C 59.5178744475959 46.6437728284864  67.0666263343423 36.0450949865314  67.0666263343423 36.0450949865314  C 67.0666263343423 36.0450949865314  71.8371767378694 30.4472522897886  71.8371767378694 30.4472522897886  C 71.8371767378694 30.4472522897886  71.1911173074652 25.3867339329375  71.1911173074652 25.3867339329375  C 71.1911173074652 25.3867339329375  66.1940563353735 19.8079581269086  66.1940563353735 19.8079581269086  C 66.1940563353735 19.8079581269086  65.5473576820632 15.2552345847342  65.5473576820632 15.2552345847342  C 65.5473576820632 15.2552345847342  56.481473447064 3.4674961397094  56.481473447064 3.4674961397094  C 56.481473447064 3.4674961397094  56.0785531613226 4.60618040950476  56.0785531613226 4.60618040950476  C 56.0785531613226 4.60618040950476  54.228974852748 6.496912817213  54.228974852748 6.496912817213  C 54.228974852748 6.496912817213  50.4143866958586 2.18590099267419  50.4143866958586 2.18590099267419  C 50.4143866958586 2.18590099267419  45.0101082444771 0.653285486471646  45.0101082444771 0.653285486471646  C 45.0101082444771 0.653285486471646  44.7421614558973 2.1688159019568  44.7421614558973 2.1688159019568  C 44.7421614558973 2.1688159019568  44.7349807348428 4.57201287282101  44.7349807348428 4.57201287282101  C 44.7349807348428 4.57201287282101  42.4851347399772 6.71367483658275  42.4851347399772 6.71367483658275  C 42.4851347399772 6.71367483658275  37.9889444273761 11.0005356776231  37.9889444273761 11.0005356776231  C 37.9889444273761 11.0005356776231  32.5458911359642 10.9841408668868  32.5458911359642 10.9841408668868  C 32.5458911359642 10.9841408668868  30.6929094922455 14.0138793224147  30.6929094922455 14.0138793224147  C 30.6929094922455 14.0138793224147  28.71114287203 14.0079101196671  28.71114287203 14.0079101196671  C 28.71114287203 14.0079101196671  25.2716486092286 17.2832419055463  25.2716486092286 17.2832419055463  C 25.2716486092286 17.2832419055463  23.2898819890131 17.2772727027988  23.2898819890131 17.2772727027988  C 23.2898819890131 17.2772727027988  19.1899510487367 21.1853611379214  19.1899510487367 21.1853611379214  C 19.1899510487367 21.1853611379214  16.6812171426598 21.8107874192951  16.6812171426598 21.8107874192951  C 16.6812171426598 21.8107874192951  11.2450987173384 29.7587116732944  11.2450987173384 29.7587116732944  C 11.2450987173384 29.7587116732944  7.8354231494518 24.817699911518  7.8354231494518 24.817699911518  C 7.8354231494518 24.817699911518  4.01428822609341 22.4038534104234  4.01428822609341 22.4038534104234  C 4.01428822609341 22.4038534104234  2.16508923660604 24.1676377756501  2.16508923660604 24.1676377756501  C 2.16508923660604 24.1676377756501  4.23939566525655 35.2255175426876  4.23939566525655 35.2255175426876  C 4.23939566525655 35.2255175426876  2.38014032968977 38.8855750687266  2.38014032968977 38.8855750687266  C 2.38014032968977 38.8855750687266  0.519977964916507 44.3185104951186  0.519977964916507 44.3185104951186  C 0.519977964916507 44.3185104951186  5.78512357997852 47.7478919673817  5.78512357997852 47.7478919673817  C 5.78512357997852 47.7478919673817  8.6907244713625 48.0096605941458  8.6907244713625 48.0096605941458  C 8.6907244713625 48.0096605941458  12.500039039275 53.204011280032  12.500039039275 53.204011280032  C 12.500039039275 53.204011280032  15.2748310409766 51.6951500446952  15.2748310409766 51.6951500446952  C 15.2748310409766 51.6951500446952  19.7771729959975 46.5249529870583  19.7771729959975 46.5249529870583  C 19.7771729959975 46.5249529870583  24.2855603489716 39.3315215023732  24.2855603489716 39.3315215023732  C 24.2855603489716 39.3315215023732  31.8079899496122 37.8360788514434  31.8079899496122 37.8360788514434  C 31.8079899496122 37.8360788514434  36.9748998235564 42.4050623220589  36.9748998235564 42.4050623220589  C 36.9748998235564 42.4050623220589  33.0925645752404 49.6003795141251  33.0925645752404 49.6003795141251  C 33.0925645752404 49.6003795141251  28.5874479713407 56.2869057020145  28.5874479713407 56.2869057020145  C 28.5874479713407 56.2869057020145  32.6673513906421 59.0814975931871  32.6673513906421 59.0814975931871  C 32.6673513906421 59.0814975931871  32.394104671482 62.3707742688993  32.394104671482 62.3707742688993  C 32.394104671482 62.3707742688993  29.217907026228 65.3930007503301  29.217907026228 65.3930007503301  C 29.217907026228 65.3930007503301  29.8735477757989 66.6591778812892  29.8735477757989 66.6591778812892  C 29.8735477757989 66.6591778812892  35.2924212315052 63.8949600724476  35.2924212315052 63.8949600724476  C 35.2924212315052 63.8949600724476  43.6637792421695 53.9299795294676  43.6637792421695 53.9299795294676  C 43.6637792421695 53.9299795294676  55.6921797927098 47.5191307132466  55.6921797927098 47.5191307132466  Z " fill-rule="nonzero" fill="#031e4b" stroke="none" transform="matrix(1 0 0 1 1110 572 )" />
    <path d="M 55.6921797927098 47.5191307132466  C 55.6921797927098 47.5191307132466  59.5178744475959 46.6437728284864  59.5178744475959 46.6437728284864  C 59.5178744475959 46.6437728284864  67.0666263343423 36.0450949865314  67.0666263343423 36.0450949865314  C 67.0666263343423 36.0450949865314  71.8371767378694 30.4472522897886  71.8371767378694 30.4472522897886  C 71.8371767378694 30.4472522897886  71.1911173074652 25.3867339329375  71.1911173074652 25.3867339329375  C 71.1911173074652 25.3867339329375  66.1940563353735 19.8079581269086  66.1940563353735 19.8079581269086  C 66.1940563353735 19.8079581269086  65.5473576820632 15.2552345847342  65.5473576820632 15.2552345847342  C 65.5473576820632 15.2552345847342  56.481473447064 3.4674961397094  56.481473447064 3.4674961397094  C 56.481473447064 3.4674961397094  56.0785531613226 4.60618040950476  56.0785531613226 4.60618040950476  C 56.0785531613226 4.60618040950476  54.228974852748 6.496912817213  54.228974852748 6.496912817213  C 54.228974852748 6.496912817213  50.4143866958586 2.18590099267419  50.4143866958586 2.18590099267419  C 50.4143866958586 2.18590099267419  45.0101082444771 0.653285486471646  45.0101082444771 0.653285486471646  C 45.0101082444771 0.653285486471646  44.7421614558973 2.1688159019568  44.7421614558973 2.1688159019568  C 44.7421614558973 2.1688159019568  44.7349807348428 4.57201287282101  44.7349807348428 4.57201287282101  C 44.7349807348428 4.57201287282101  42.4851347399772 6.71367483658275  42.4851347399772 6.71367483658275  C 42.4851347399772 6.71367483658275  37.9889444273761 11.0005356776231  37.9889444273761 11.0005356776231  C 37.9889444273761 11.0005356776231  32.5458911359642 10.9841408668868  32.5458911359642 10.9841408668868  C 32.5458911359642 10.9841408668868  30.6929094922455 14.0138793224147  30.6929094922455 14.0138793224147  C 30.6929094922455 14.0138793224147  28.71114287203 14.0079101196671  28.71114287203 14.0079101196671  C 28.71114287203 14.0079101196671  25.2716486092286 17.2832419055463  25.2716486092286 17.2832419055463  C 25.2716486092286 17.2832419055463  23.2898819890131 17.2772727027988  23.2898819890131 17.2772727027988  C 23.2898819890131 17.2772727027988  19.1899510487367 21.1853611379214  19.1899510487367 21.1853611379214  C 19.1899510487367 21.1853611379214  16.6812171426598 21.8107874192951  16.6812171426598 21.8107874192951  C 16.6812171426598 21.8107874192951  11.2450987173384 29.7587116732944  11.2450987173384 29.7587116732944  C 11.2450987173384 29.7587116732944  7.8354231494518 24.817699911518  7.8354231494518 24.817699911518  C 7.8354231494518 24.817699911518  4.01428822609341 22.4038534104234  4.01428822609341 22.4038534104234  C 4.01428822609341 22.4038534104234  2.16508923660604 24.1676377756501  2.16508923660604 24.1676377756501  C 2.16508923660604 24.1676377756501  4.23939566525655 35.2255175426876  4.23939566525655 35.2255175426876  C 4.23939566525655 35.2255175426876  2.38014032968977 38.8855750687266  2.38014032968977 38.8855750687266  C 2.38014032968977 38.8855750687266  0.519977964916507 44.3185104951186  0.519977964916507 44.3185104951186  C 0.519977964916507 44.3185104951186  5.78512357997852 47.7478919673817  5.78512357997852 47.7478919673817  C 5.78512357997852 47.7478919673817  8.6907244713625 48.0096605941458  8.6907244713625 48.0096605941458  C 8.6907244713625 48.0096605941458  12.500039039275 53.204011280032  12.500039039275 53.204011280032  C 12.500039039275 53.204011280032  15.2748310409766 51.6951500446952  15.2748310409766 51.6951500446952  C 15.2748310409766 51.6951500446952  19.7771729959975 46.5249529870583  19.7771729959975 46.5249529870583  C 19.7771729959975 46.5249529870583  24.2855603489716 39.3315215023732  24.2855603489716 39.3315215023732  C 24.2855603489716 39.3315215023732  31.8079899496122 37.8360788514434  31.8079899496122 37.8360788514434  C 31.8079899496122 37.8360788514434  36.9748998235564 42.4050623220589  36.9748998235564 42.4050623220589  C 36.9748998235564 42.4050623220589  33.0925645752404 49.6003795141251  33.0925645752404 49.6003795141251  C 33.0925645752404 49.6003795141251  28.5874479713407 56.2869057020145  28.5874479713407 56.2869057020145  C 28.5874479713407 56.2869057020145  32.6673513906421 59.0814975931871  32.6673513906421 59.0814975931871  C 32.6673513906421 59.0814975931871  32.394104671482 62.3707742688993  32.394104671482 62.3707742688993  C 32.394104671482 62.3707742688993  29.217907026228 65.3930007503301  29.217907026228 65.3930007503301  C 29.217907026228 65.3930007503301  29.8735477757989 66.6591778812892  29.8735477757989 66.6591778812892  C 29.8735477757989 66.6591778812892  35.2924212315052 63.8949600724476  35.2924212315052 63.8949600724476  C 35.2924212315052 63.8949600724476  43.6637792421695 53.9299795294676  43.6637792421695 53.9299795294676  C 43.6637792421695 53.9299795294676  55.6921797927098 47.5191307132466  55.6921797927098 47.5191307132466  Z " stroke-width="0.97600957434184" stroke="#47b3fe" fill="none" transform="matrix(1 0 0 1 1110 572 )" mask="url(#clip1801)" />
  </g>
</svg>