<?xml version="1.0" encoding="utf-8"?>
<svg version="1.1" xmlns:xlink="http://www.w3.org/1999/xlink" width="272px" height="233px" xmlns="http://www.w3.org/2000/svg">
  <defs>
    <mask fill="white" id="clip1800">
      <path d="M 73.4396369095194 232.390374045269  C 73.4396369095194 232.390374045269  76.6311605911467 231.705302231028  76.6311605911467 231.705302231028  C 76.6311605911467 231.705302231028  80.4390202421287 230.894187258809  80.4390202421287 230.894187258809  C 80.4390202421287 230.894187258809  83.6085328649474 229.650191901644  83.6085328649474 229.650191901644  C 83.6085328649474 229.650191901644  88.896069843591 225.518393226048  88.896069843591 225.518393226048  C 88.896069843591 225.518393226048  89.9689839275766 218.864368421259  89.9689839275766 218.864368421259  C 89.9689839275766 218.864368421259  93.1567838216897 209.199021612112  93.1567838216897 209.199021612112  C 93.1567838216897 209.199021612112  99.7608279712817 204.947656512176  99.7608279712817 204.947656512176  C 99.7608279712817 204.947656512176  100.683493722005 205.954261274273  100.683493722005 205.954261274273  C 100.683493722005 205.954261274273  102.641573331791 212.493854441386  102.641573331791 212.493854441386  C 102.641573331791 212.493854441386  99.4682491790563 216.758122203816  99.4682491790563 216.758122203816  C 99.4682491790563 216.758122203816  98.7976006632521 220.650597950776  98.7976006632521 220.650597950776  C 98.7976006632521 220.650597950776  108.937584620004 224.319672812289  108.937584620004 224.319672812289  C 108.937584620004 224.319672812289  109.851441911053 227.089543342874  109.851441911053 227.089543342874  C 109.851441911053 227.089543342874  115.784848073929 226.727150211896  115.784848073929 226.727150211896  C 115.784848073929 226.727150211896  118.678457347904 227.364750213924  118.678457347904 227.364750213924  C 118.678457347904 227.364750213924  119.997209846903 228.249907898839  119.997209846903 228.249907898839  C 119.997209846903 228.249907898839  130.465420578711 214.085575238865  130.465420578711 214.085575238865  C 130.465420578711 214.085575238865  133.236325614061 213.217921552907  133.236325614061 213.217921552907  C 133.236325614061 213.217921552907  133.900551386085 211.462750387549  133.900551386085 211.462750387549  C 133.900551386085 211.462750387549  133.645634264801 208.696605248925  133.645634264801 208.696605248925  C 133.645634264801 208.696605248925  137.515383896015 203.933378476253  137.515383896015 203.933378476253  C 137.515383896015 203.933378476253  144.241090781926 203.57773800143  144.241090781926 203.57773800143  C 144.241090781926 203.57773800143  146.755822224805 200.946024941266  146.755822224805 200.946024941266  C 146.755822224805 200.946024941266  148.331781921765 202.083351280919  148.331781921765 202.083351280919  C 148.331781921765 202.083351280919  152.162906470471 199.078045263392  152.162906470471 199.078045263392  C 152.162906470471 199.078045263392  154.268724103417 199.084352063796  154.268724103417 199.084352063796  C 154.268724103417 199.084352063796  161.286098138003 189.55748770048  161.286098138003 189.55748770048  C 161.286098138003 189.55748770048  164.847689436204 189.817800887186  164.847689436204 189.817800887186  C 164.847689436204 189.817800887186  169.207015344358 186.816704658928  169.207015344358 186.816704658928  C 169.207015344358 186.816704658928  170.519379319114 188.075874878622  170.519379319114 188.075874878622  C 170.519379319114 188.075874878622  178.705540927394 184.080646462013  178.705540927394 184.080646462013  C 178.705540927394 184.080646462013  174.640766260649 177.534743866662  174.640766260649 177.534743866662  C 174.640766260649 177.534743866662  175.976907548752 170.881507411923  175.976907548752 170.881507411923  C 175.976907548752 170.881507411923  179.430151020043 163.983213219903  179.430151020043 163.983213219903  C 179.430151020043 163.983213219903  182.329422311177 162.736656601018  182.329422311177 162.736656601018  C 182.329422311177 162.736656601018  184.169380467964 163.618119552029  184.169380467964 163.618119552029  C 184.169380467964 163.618119552029  184.154658170437 168.517277144202  184.154658170437 168.517277144202  C 184.154658170437 168.517277144202  186.393695968811 170.033248889099  186.393695968811 170.033248889099  C 186.393695968811 170.033248889099  191.414737338885 166.404324695662  191.414737338885 166.404324695662  C 191.414737338885 166.404324695662  193.662978437739 164.273734228657  193.662978437739 164.273734228657  C 193.662978437739 164.273734228657  195.89953224873 165.156384960411  195.89953224873 165.156384960411  C 195.89953224873 165.156384960411  198.411872711171 163.028337360292  198.411872711171 163.028337360292  C 198.411872711171 163.028337360292  203.817552200991 162.795756576477  203.817552200991 162.795756576477  C 203.817552200991 162.795756576477  204.746762657432 161.040503072336  204.746762657432 161.040503072336  C 204.746762657432 161.040503072336  203.438939351947 158.270328589009  203.438939351947 158.270328589009  C 203.438939351947 158.270328589009  207.274578247204 154.638730137013  207.274578247204 154.638730137013  C 207.274578247204 154.638730137013  211.763755012573 152.516603045773  211.763755012573 152.516603045773  C 211.763755012573 152.516603045773  218.727027082473 159.825381473747  218.727027082473 159.825381473747  C 218.727027082473 159.825381473747  218.327396418605 162.586062470576  218.327396418605 162.586062470576  C 218.327396418605 162.586062470576  221.869369393283 167.622885252362  221.869369393283 167.622885252362  C 221.869369393283 167.622885252362  230.040689374371 168.274539783903  230.040689374371 168.274539783903  C 230.040689374371 168.274539783903  231.898614542686 164.637018195193  231.898614542686 164.637018195193  C 231.898614542686 164.637018195193  229.830644594573 154.079978279211  229.830644594573 154.079978279211  C 229.830644594573 154.079978279211  231.678517993387 152.327476116747  231.678517993387 152.327476116747  C 231.678517993387 152.327476116747  235.495158903898 154.725876979439  235.495158903898 154.725876979439  C 235.495158903898 154.725876979439  238.902387627636 159.63615906677  238.902387627636 159.63615906677  C 238.902387627636 159.63615906677  244.334609193871 151.739074413543  244.334609193871 151.739074413543  C 244.334609193871 151.739074413543  246.841544724388 151.11764872672  246.841544724388 151.11764872672  C 246.841544724388 151.11764872672  250.938536646069 147.234558725084  250.938536646069 147.234558725084  C 250.938536646069 147.234558725084  252.918882645052 147.240489745298  252.918882645052 147.240489745298  C 252.918882645052 147.240489745298  256.35591395284 143.985232964508  256.35591395284 143.985232964508  C 256.35591395284 143.985232964508  258.332750255768 143.991153473388  258.332750255768 143.991153473388  C 258.332750255768 143.991153473388  260.184403597233 140.980795007981  260.184403597233 140.980795007981  C 260.184403597233 140.980795007981  265.198881835684 140.995813076444  265.198881835684 140.995813076444  C 265.198881835684 140.995813076444  269.691846440521 136.737249464602  269.691846440521 136.737249464602  C 269.691846440521 136.737249464602  271.938324794531 134.609281575432  271.938324794531 134.609281575432  C 271.938324794531 134.609281575432  271.945505632659 132.21970497764  271.945505632659 132.21970497764  C 271.945505632659 132.21970497764  268.390204587212 130.450144671971  268.390204587212 130.450144671971  C 268.390204587212 130.450144671971  268.403795007761 125.927643215079  268.403795007761 125.927643215079  C 268.403795007761 125.927643215079  261.835493602792 117.992865794044  261.835493602792 117.992865794044  C 261.835493602792 117.992865794044  255.490138620319 123.755147563163  255.490138620319 123.755147563163  C 255.490138620319 123.755147563163  253.658339629437 122.494421666036  253.658339629437 122.494421666036  C 253.658339629437 122.494421666036  253.272437141687 119.226839470177  253.272437141687 119.226839470177  C 253.272437141687 119.226839470177  250.780501174685 115.14882553881  250.780501174685 115.14882553881  C 250.780501174685 115.14882553881  250.133139492205 111.000128141907  250.133139492205 111.000128141907  C 250.133139492205 111.000128141907  250.145971818406 106.729898701205  250.145971818406 106.729898701205  C 250.145971818406 106.729898701205  245.807396110753 103.701876814942  245.807396110753 103.701876814942  C 245.807396110753 103.701876814942  245.149346526362 101.941869559997  245.149346526362 101.941869559997  C 245.149346526362 101.941869559997  246.344930629435 99.4323428741741  246.344930629435 99.4323428741741  C 246.344930629435 99.4323428741741  254.64596634444 101.591899949871  254.64596634444 101.591899949871  C 254.64596634444 101.591899949871  254.92014380025 97.9487591771896  254.92014380025 97.9487591771896  C 254.92014380025 97.9487591771896  257.831603388359 94.6901764351308  257.831603388359 94.6901764351308  C 257.831603388359 94.6901764351308  255.856540359364 92.9262248020985  255.856540359364 92.9262248020985  C 255.856540359364 92.9262248020985  256.265080386667 89.5366366764659  256.265080386667 89.5366366764659  C 256.265080386667 89.5366366764659  260.354772140554 87.7908486285994  260.354772140554 87.7908486285994  C 260.354772140554 87.7908486285994  261.282476937388 86.5366353788345  261.282476937388 86.5366353788345  C 261.282476937388 86.5366353788345  260.625172285985 85.4046882143602  260.625172285985 85.4046882143602  C 260.625172285985 85.4046882143602  256.273263243019 86.5216330773717  256.273263243019 86.5216330773717  C 256.273263243019 86.5216330773717  248.377008670842 81.3473842388224  248.377008670842 81.3473842388224  C 248.377008670842 81.3473842388224  247.985825845378 79.8369467112814  247.985825845378 79.8369467112814  C 247.985825845378 79.8369467112814  251.823988212098 75.0736253366027  251.823988212098 75.0736253366027  C 251.823988212098 75.0736253366027  259.767564016183 63.9167596492395  259.767564016183 63.9167596492395  C 259.767564016183 63.9167596492395  260.42991034597 62.7870128573509  260.42991034597 62.7870128573509  C 260.42991034597 62.7870128573509  261.75306575867 62.7909756302719  261.75306575867 62.7909756302719  C 261.75306575867 62.7909756302719  264.246413500911 65.8152230716815  264.246413500911 65.8152230716815  C 264.246413500911 65.8152230716815  264.90472280281 66.3208672903527  264.90472280281 66.3208672903527  C 264.90472280281 66.3208672903527  265.210232192725 52.251359126353  265.210232192725 52.251359126353  C 265.210232192725 52.251359126353  267.717297581996 51.0027519213922  267.717297581996 51.0027519213922  C 267.717297581996 51.0027519213922  267.733533435946 45.599926241341  267.733533435946 45.599926241341  C 267.733533435946 45.599926241341  267.101890804672 36.8043485241208  267.101890804672 36.8043485241208  C 267.101890804672 36.8043485241208  270.305510653753 24.502432418498  270.305510653753 24.502432418498  C 270.305510653753 24.502432418498  260.828278396682 17.816810543681  260.828278396682 17.816810543681  C 260.828278396682 17.816810543681  253.558995927754 23.5763252041221  253.558995927754 23.5763252041221  C 253.558995927754 23.5763252041221  249.736311320636 24.0650452990961  249.736311320636 24.0650452990961  C 249.736311320636 24.0650452990961  247.888053610104 25.945435358656  247.888053610104 25.945435358656  C 247.888053610104 25.945435358656  241.560949047117 25.050533667116  241.560949047117 25.050533667116  C 241.560949047117 25.050533667116  238.412414755042 21.6494163599658  238.412414755042 21.6494163599658  C 238.412414755042 21.6494163599658  236.586062812437 16.2401962850598  236.586062812437 16.2401962850598  C 236.586062812437 16.2401962850598  236.855702231248 14.1071838315104  236.855702231248 14.1071838315104  C 236.855702231248 14.1071838315104  231.854674025502 11.0763019864527  231.854674025502 11.0763019864527  C 231.854674025502 11.0763019864527  228.938559703 15.5918624591206  228.938559703 15.5918624591206  C 228.938559703 15.5918624591206  223.543440888609 12.3101539062999  223.543440888609 12.3101539062999  C 223.543440888609 12.3101539062999  222.6239215804 11.4244399966273  222.6239215804 11.4244399966273  C 222.6239215804 11.4244399966273  225.811695151792 3.51975740080115  225.811695151792 3.51975740080115  C 225.811695151792 3.51975740080115  223.318214918526 0.247615037872094  223.318214918526 0.247615037872094  C 223.318214918526 0.247615037872094  221.074641715425 0.24089566760756  221.074641715425 0.24089566760756  C 221.074641715425 0.24089566760756  215.394787402068 4.11574127960301  215.394787402068 4.11574127960301  C 215.394787402068 4.11574127960301  210.627040796277 10.7587002775156  210.627040796277 10.7587002775156  C 210.627040796277 10.7587002775156  212.466230329627 11.8959390227183  212.466230329627 11.8959390227183  C 212.466230329627 11.8959390227183  216.023044931497 12.2858788563532  216.023044931497 12.2858788563532  C 216.023044931497 12.2858788563532  218.774944085286 19.2027570868997  218.774944085286 19.2027570868997  C 218.774944085286 19.2027570868997  217.173245154884 21.9589620073304  217.173245154884 21.9589620073304  C 217.173245154884 21.9589620073304  214.392394518338 25.8442418702177  214.392394518338 25.8442418702177  C 214.392394518338 25.8442418702177  209.195442794872 43.921473799129  209.195442794872 43.921473799129  C 209.195442794872 43.921473799129  211.164096241447 46.9423979071032  211.164096241447 46.9423979071032  C 211.164096241447 46.9423979071032  209.576807245622 49.5751366982772  209.576807245622 49.5751366982772  C 209.576807245622 49.5751366982772  197.816717757508 57.7072959493125  197.816717757508 57.7072959493125  C 197.816717757508 57.7072959493125  191.493011457726 56.5575022915818  191.493011457726 56.5575022915818  C 191.493011457726 56.5575022915818  187.937954336155 55.2907393849559  187.937954336155 55.2907393849559  C 187.937954336155 55.2907393849559  187.406216957932 57.047183297673  187.406216957932 57.047183297673  C 187.406216957932 57.047183297673  182.197728863533 76.6275149670433  182.197728863533 76.6275149670433  C 182.197728863533 76.6275149670433  179.688638379639 79.1339837306143  179.688638379639 79.1339837306143  C 179.688638379639 79.1339837306143  180.99420056344 82.6565945400056  180.99420056344 82.6565945400056  C 180.99420056344 82.6565945400056  184.151516992468 85.1791579078316  184.151516992468 85.1791579078316  C 184.151516992468 85.1791579078316  189.433148030075 82.4287184541042  189.433148030075 82.4287184541042  C 189.433148030075 82.4287184541042  198.001933192566 83.0841912277238  198.001933192566 83.0841912277238  C 198.001933192566 83.0841912277238  200.520441945824 79.1954978091173  200.520441945824 79.1954978091173  C 200.520441945824 79.1954978091173  205.005343023974 78.2042124403921  205.005343023974 78.2042124403921  C 205.005343023974 78.2042124403921  213.567835301438 81.2457606616342  213.567835301438 81.2457606616342  C 213.567835301438 81.2457606616342  223.95278024919 91.5780630008602  223.95278024919 91.5780630008602  C 223.95278024919 91.5780630008602  223.946368034498 93.7118638044601  223.946368034498 93.7118638044601  C 223.946368034498 93.7118638044601  221.700014274698 95.2144020644943  221.700014274698 95.2144020644943  C 221.700014274698 95.2144020644943  209.700225707393 95.8082731651606  209.700225707393 95.8082731651606  C 209.700225707393 95.8082731651606  205.602374787602 98.8092765433008  205.602374787602 98.8092765433008  C 205.602374787602 98.8092765433008  202.439510406535 98.4248963294116  202.439510406535 98.4248963294116  C 202.439510406535 98.4248963294116  200.189254742146 101.809844577024  200.189254742146 101.809844577024  C 200.189254742146 101.809844577024  194.513315494738 102.921948094781  194.513315494738 102.921948094781  C 194.513315494738 102.921948094781  190.672390997223 108.312443104096  190.672390997223 108.312443104096  C 190.672390997223 108.312443104096  190.002243490531 112.330181542484  190.002243490531 112.330181542484  C 190.002243490531 112.330181542484  181.810895428905 117.759328478835  181.810895428905 117.759328478835  C 181.810895428905 117.759328478835  176.665540624566 118.374604159319  176.665540624566 118.374604159319  C 176.665540624566 118.374604159319  170.97461409758 125.641980194525  170.97461409758 125.641980194525  C 170.97461409758 125.641980194525  165.558861780082 128.642540344748  165.558861780082 128.642540344748  C 165.558861780082 128.642540344748  155.147629208879 126.474035495977  155.147629208879 126.474035495977  C 155.147629208879 126.474035495977  151.724943783715 124.955394748187  151.724943783715 124.955394748187  C 151.724943783715 124.955394748187  147.624436901435 128.84022612749  147.624436901435 128.84022612749  C 147.624436901435 128.84022612749  145.626845133463 135.741128006289  145.626845133463 135.741128006289  C 145.626845133463 135.741128006289  151.274726115759 143.674024774481  151.274726115759 143.674024774481  C 151.274726115759 143.674024774481  147.56982603082 147.305138829169  147.56982603082 147.305138829169  C 147.56982603082 147.305138829169  142.418183605999 150.304738068275  142.418183605999 150.304738068275  C 142.418183605999 150.304738068275  134.451192864684 159.325961716697  134.451192864684 159.325961716697  C 134.451192864684 159.325961716697  124.546658622623 163.441304898904  124.546658622623 163.441304898904  C 124.546658622623 163.441304898904  108.458071519078 164.899758624109  108.458071519078 164.899758624109  C 108.458071519078 164.899758624109  105.950263829091 164.643477409941  105.950263829091 164.643477409941  C 105.950263829091 164.643477409941  87.2077849566658 172.120535287825  87.2077849566658 172.120535287825  C 87.2077849566658 172.120535287825  78.6172396786349 177.246283079372  78.6172396786349 177.246283079372  C 78.6172396786349 177.246283079372  76.1194784936055 175.982686712117  76.1194784936055 175.982686712117  C 76.1194784936055 175.982686712117  75.2036013724766 173.592973466983  75.2036013724766 173.592973466983  C 75.2036013724766 173.592973466983  63.7322975725763 172.928807820139  63.7322975725763 172.928807820139  C 63.7322975725763 172.928807820139  50.5580620466897 168.998371266354  50.5580620466897 168.998371266354  C 50.5580620466897 168.998371266354  47.0126881765344 165.093268779416  47.0126881765344 165.093268779416  C 47.0126881765344 165.093268779416  27.7666732111109 162.898304275114  27.7666732111109 162.898304275114  C 27.7666732111109 162.898304275114  24.2024285826924 164.396895529228  24.2024285826924 164.396895529228  C 24.2024285826924 164.396895529228  0.869367296783139 162.191442465474  0.869367296783139 162.191442465474  C 0.869367296783139 162.191442465474  0.462081108395182 165.455773155346  0.462081108395182 165.455773155346  C 0.462081108395182 165.455773155346  2.03122585304038 170.612824575514  2.03122585304038 170.612824575514  C 2.03122585304038 170.612824575514  1.08201539363006 179.023504395645  1.08201539363006 179.023504395645  C 1.08201539363006 179.023504395645  7.77915510850266 188.466181733003  7.77915510850266 188.466181733003  C 7.77915510850266 188.466181733003  11.1999505623409 190.613750632264  11.1999505623409 190.613750632264  C 11.1999505623409 190.613750632264  16.6178446718557 186.608479511955  16.6178446718557 186.608479511955  C 16.6178446718557 186.608479511955  27.9567952012534 186.642439004301  27.9567952012534 186.642439004301  C 27.9567952012534 186.642439004301  30.8580468383874 187.656721419946  30.8580468383874 187.656721419946  C 30.8580468383874 187.656721419946  32.4302371217842 190.048400284539  32.4302371217842 190.048400284539  C 32.4302371217842 190.048400284539  31.1017829454646 192.683666175598  31.1017829454646 192.683666175598  C 31.1017829454646 192.683666175598  24.7599376590466 197.570006071893  24.7599376590466 197.570006071893  C 24.7599376590466 197.570006071893  25.4143476886288 199.957184333642  25.4143476886288 199.957184333642  C 25.4143476886288 199.957184333642  32.6525395150542 205.127710408064  32.6525395150542 205.127710408064  C 32.6525395150542 205.127710408064  35.5480387603542 205.13638225862  35.5480387603542 205.13638225862  C 35.5480387603542 205.13638225862  36.4659304470185 206.271737723147  36.4659304470185 206.271737723147  C 36.4659304470185 206.271737723147  35.8005701657451 208.404440968287  35.8005701657451 208.404440968287  C 35.8005701657451 208.404440968287  40.2757669343034 211.810407504193  40.2757669343034 211.810407504193  C 40.2757669343034 211.810407504193  50.6836301972943 213.348216545491  50.6836301972943 213.348216545491  C 50.6836301972943 213.348216545491  55.6983707855258 212.107995633179  55.6983707855258 212.107995633179  C 55.6983707855258 212.107995633179  62.0453586540882 206.094320420206  62.0453586540882 206.094320420206  C 62.0453586540882 206.094320420206  69.6902163301238 206.747026085148  69.6902163301238 206.747026085148  C 69.6902163301238 206.747026085148  72.8414890625454 211.280758026482  72.8414890625454 211.280758026482  C 72.8414890625454 211.280758026482  70.9864453546913 215.419333008735  70.9864453546913 215.419333008735  C 70.9864453546913 215.419333008735  71.5053477744416 217.93399448122  71.5053477744416 217.93399448122  C 71.5053477744416 217.93399448122  67.410256353174 220.308700169224  67.410256353174 220.308700169224  C 67.410256353174 220.308700169224  65.5612484451103 222.438734411472  65.5612484451103 222.438734411472  C 65.5612484451103 222.438734411472  66.2051004315352 227.463373681198  66.2051004315352 227.463373681198  C 66.2051004315352 227.463373681198  73.4396369095194 232.390374045269  73.4396369095194 232.390374045269  Z " fill-rule="evenodd" />
    </mask>
  </defs>
  <g transform="matrix(1 0 0 1 -883 -442 )">
    <path d="M 73.4396369095194 232.390374045269  C 73.4396369095194 232.390374045269  76.6311605911467 231.705302231028  76.6311605911467 231.705302231028  C 76.6311605911467 231.705302231028  80.4390202421287 230.894187258809  80.4390202421287 230.894187258809  C 80.4390202421287 230.894187258809  83.6085328649474 229.650191901644  83.6085328649474 229.650191901644  C 83.6085328649474 229.650191901644  88.896069843591 225.518393226048  88.896069843591 225.518393226048  C 88.896069843591 225.518393226048  89.9689839275766 218.864368421259  89.9689839275766 218.864368421259  C 89.9689839275766 218.864368421259  93.1567838216897 209.199021612112  93.1567838216897 209.199021612112  C 93.1567838216897 209.199021612112  99.7608279712817 204.947656512176  99.7608279712817 204.947656512176  C 99.7608279712817 204.947656512176  100.683493722005 205.954261274273  100.683493722005 205.954261274273  C 100.683493722005 205.954261274273  102.641573331791 212.493854441386  102.641573331791 212.493854441386  C 102.641573331791 212.493854441386  99.4682491790563 216.758122203816  99.4682491790563 216.758122203816  C 99.4682491790563 216.758122203816  98.7976006632521 220.650597950776  98.7976006632521 220.650597950776  C 98.7976006632521 220.650597950776  108.937584620004 224.319672812289  108.937584620004 224.319672812289  C 108.937584620004 224.319672812289  109.851441911053 227.089543342874  109.851441911053 227.089543342874  C 109.851441911053 227.089543342874  115.784848073929 226.727150211896  115.784848073929 226.727150211896  C 115.784848073929 226.727150211896  118.678457347904 227.364750213924  118.678457347904 227.364750213924  C 118.678457347904 227.364750213924  119.997209846903 228.249907898839  119.997209846903 228.249907898839  C 119.997209846903 228.249907898839  130.465420578711 214.085575238865  130.465420578711 214.085575238865  C 130.465420578711 214.085575238865  133.236325614061 213.217921552907  133.236325614061 213.217921552907  C 133.236325614061 213.217921552907  133.900551386085 211.462750387549  133.900551386085 211.462750387549  C 133.900551386085 211.462750387549  133.645634264801 208.696605248925  133.645634264801 208.696605248925  C 133.645634264801 208.696605248925  137.515383896015 203.933378476253  137.515383896015 203.933378476253  C 137.515383896015 203.933378476253  144.241090781926 203.57773800143  144.241090781926 203.57773800143  C 144.241090781926 203.57773800143  146.755822224805 200.946024941266  146.755822224805 200.946024941266  C 146.755822224805 200.946024941266  148.331781921765 202.083351280919  148.331781921765 202.083351280919  C 148.331781921765 202.083351280919  152.162906470471 199.078045263392  152.162906470471 199.078045263392  C 152.162906470471 199.078045263392  154.268724103417 199.084352063796  154.268724103417 199.084352063796  C 154.268724103417 199.084352063796  161.286098138003 189.55748770048  161.286098138003 189.55748770048  C 161.286098138003 189.55748770048  164.847689436204 189.817800887186  164.847689436204 189.817800887186  C 164.847689436204 189.817800887186  169.207015344358 186.816704658928  169.207015344358 186.816704658928  C 169.207015344358 186.816704658928  170.519379319114 188.075874878622  170.519379319114 188.075874878622  C 170.519379319114 188.075874878622  178.705540927394 184.080646462013  178.705540927394 184.080646462013  C 178.705540927394 184.080646462013  174.640766260649 177.534743866662  174.640766260649 177.534743866662  C 174.640766260649 177.534743866662  175.976907548752 170.881507411923  175.976907548752 170.881507411923  C 175.976907548752 170.881507411923  179.430151020043 163.983213219903  179.430151020043 163.983213219903  C 179.430151020043 163.983213219903  182.329422311177 162.736656601018  182.329422311177 162.736656601018  C 182.329422311177 162.736656601018  184.169380467964 163.618119552029  184.169380467964 163.618119552029  C 184.169380467964 163.618119552029  184.154658170437 168.517277144202  184.154658170437 168.517277144202  C 184.154658170437 168.517277144202  186.393695968811 170.033248889099  186.393695968811 170.033248889099  C 186.393695968811 170.033248889099  191.414737338885 166.404324695662  191.414737338885 166.404324695662  C 191.414737338885 166.404324695662  193.662978437739 164.273734228657  193.662978437739 164.273734228657  C 193.662978437739 164.273734228657  195.89953224873 165.156384960411  195.89953224873 165.156384960411  C 195.89953224873 165.156384960411  198.411872711171 163.028337360292  198.411872711171 163.028337360292  C 198.411872711171 163.028337360292  203.817552200991 162.795756576477  203.817552200991 162.795756576477  C 203.817552200991 162.795756576477  204.746762657432 161.040503072336  204.746762657432 161.040503072336  C 204.746762657432 161.040503072336  203.438939351947 158.270328589009  203.438939351947 158.270328589009  C 203.438939351947 158.270328589009  207.274578247204 154.638730137013  207.274578247204 154.638730137013  C 207.274578247204 154.638730137013  211.763755012573 152.516603045773  211.763755012573 152.516603045773  C 211.763755012573 152.516603045773  218.727027082473 159.825381473747  218.727027082473 159.825381473747  C 218.727027082473 159.825381473747  218.327396418605 162.586062470576  218.327396418605 162.586062470576  C 218.327396418605 162.586062470576  221.869369393283 167.622885252362  221.869369393283 167.622885252362  C 221.869369393283 167.622885252362  230.040689374371 168.274539783903  230.040689374371 168.274539783903  C 230.040689374371 168.274539783903  231.898614542686 164.637018195193  231.898614542686 164.637018195193  C 231.898614542686 164.637018195193  229.830644594573 154.079978279211  229.830644594573 154.079978279211  C 229.830644594573 154.079978279211  231.678517993387 152.327476116747  231.678517993387 152.327476116747  C 231.678517993387 152.327476116747  235.495158903898 154.725876979439  235.495158903898 154.725876979439  C 235.495158903898 154.725876979439  238.902387627636 159.63615906677  238.902387627636 159.63615906677  C 238.902387627636 159.63615906677  244.334609193871 151.739074413543  244.334609193871 151.739074413543  C 244.334609193871 151.739074413543  246.841544724388 151.11764872672  246.841544724388 151.11764872672  C 246.841544724388 151.11764872672  250.938536646069 147.234558725084  250.938536646069 147.234558725084  C 250.938536646069 147.234558725084  252.918882645052 147.240489745298  252.918882645052 147.240489745298  C 252.918882645052 147.240489745298  256.35591395284 143.985232964508  256.35591395284 143.985232964508  C 256.35591395284 143.985232964508  258.332750255768 143.991153473388  258.332750255768 143.991153473388  C 258.332750255768 143.991153473388  260.184403597233 140.980795007981  260.184403597233 140.980795007981  C 260.184403597233 140.980795007981  265.198881835684 140.995813076444  265.198881835684 140.995813076444  C 265.198881835684 140.995813076444  269.691846440521 136.737249464602  269.691846440521 136.737249464602  C 269.691846440521 136.737249464602  271.938324794531 134.609281575432  271.938324794531 134.609281575432  C 271.938324794531 134.609281575432  271.945505632659 132.21970497764  271.945505632659 132.21970497764  C 271.945505632659 132.21970497764  268.390204587212 130.450144671971  268.390204587212 130.450144671971  C 268.390204587212 130.450144671971  268.403795007761 125.927643215079  268.403795007761 125.927643215079  C 268.403795007761 125.927643215079  261.835493602792 117.992865794044  261.835493602792 117.992865794044  C 261.835493602792 117.992865794044  255.490138620319 123.755147563163  255.490138620319 123.755147563163  C 255.490138620319 123.755147563163  253.658339629437 122.494421666036  253.658339629437 122.494421666036  C 253.658339629437 122.494421666036  253.272437141687 119.226839470177  253.272437141687 119.226839470177  C 253.272437141687 119.226839470177  250.780501174685 115.14882553881  250.780501174685 115.14882553881  C 250.780501174685 115.14882553881  250.133139492205 111.000128141907  250.133139492205 111.000128141907  C 250.133139492205 111.000128141907  250.145971818406 106.729898701205  250.145971818406 106.729898701205  C 250.145971818406 106.729898701205  245.807396110753 103.701876814942  245.807396110753 103.701876814942  C 245.807396110753 103.701876814942  245.149346526362 101.941869559997  245.149346526362 101.941869559997  C 245.149346526362 101.941869559997  246.344930629435 99.4323428741741  246.344930629435 99.4323428741741  C 246.344930629435 99.4323428741741  254.64596634444 101.591899949871  254.64596634444 101.591899949871  C 254.64596634444 101.591899949871  254.92014380025 97.9487591771896  254.92014380025 97.9487591771896  C 254.92014380025 97.9487591771896  257.831603388359 94.6901764351308  257.831603388359 94.6901764351308  C 257.831603388359 94.6901764351308  255.856540359364 92.9262248020985  255.856540359364 92.9262248020985  C 255.856540359364 92.9262248020985  256.265080386667 89.5366366764659  256.265080386667 89.5366366764659  C 256.265080386667 89.5366366764659  260.354772140554 87.7908486285994  260.354772140554 87.7908486285994  C 260.354772140554 87.7908486285994  261.282476937388 86.5366353788345  261.282476937388 86.5366353788345  C 261.282476937388 86.5366353788345  260.625172285985 85.4046882143602  260.625172285985 85.4046882143602  C 260.625172285985 85.4046882143602  256.273263243019 86.5216330773717  256.273263243019 86.5216330773717  C 256.273263243019 86.5216330773717  248.377008670842 81.3473842388224  248.377008670842 81.3473842388224  C 248.377008670842 81.3473842388224  247.985825845378 79.8369467112814  247.985825845378 79.8369467112814  C 247.985825845378 79.8369467112814  251.823988212098 75.0736253366027  251.823988212098 75.0736253366027  C 251.823988212098 75.0736253366027  259.767564016183 63.9167596492395  259.767564016183 63.9167596492395  C 259.767564016183 63.9167596492395  260.42991034597 62.7870128573509  260.42991034597 62.7870128573509  C 260.42991034597 62.7870128573509  261.75306575867 62.7909756302719  261.75306575867 62.7909756302719  C 261.75306575867 62.7909756302719  264.246413500911 65.8152230716815  264.246413500911 65.8152230716815  C 264.246413500911 65.8152230716815  264.90472280281 66.3208672903527  264.90472280281 66.3208672903527  C 264.90472280281 66.3208672903527  265.210232192725 52.251359126353  265.210232192725 52.251359126353  C 265.210232192725 52.251359126353  267.717297581996 51.0027519213922  267.717297581996 51.0027519213922  C 267.717297581996 51.0027519213922  267.733533435946 45.599926241341  267.733533435946 45.599926241341  C 267.733533435946 45.599926241341  267.101890804672 36.8043485241208  267.101890804672 36.8043485241208  C 267.101890804672 36.8043485241208  270.305510653753 24.502432418498  270.305510653753 24.502432418498  C 270.305510653753 24.502432418498  260.828278396682 17.816810543681  260.828278396682 17.816810543681  C 260.828278396682 17.816810543681  253.558995927754 23.5763252041221  253.558995927754 23.5763252041221  C 253.558995927754 23.5763252041221  249.736311320636 24.0650452990961  249.736311320636 24.0650452990961  C 249.736311320636 24.0650452990961  247.888053610104 25.945435358656  247.888053610104 25.945435358656  C 247.888053610104 25.945435358656  241.560949047117 25.050533667116  241.560949047117 25.050533667116  C 241.560949047117 25.050533667116  238.412414755042 21.6494163599658  238.412414755042 21.6494163599658  C 238.412414755042 21.6494163599658  236.586062812437 16.2401962850598  236.586062812437 16.2401962850598  C 236.586062812437 16.2401962850598  236.855702231248 14.1071838315104  236.855702231248 14.1071838315104  C 236.855702231248 14.1071838315104  231.854674025502 11.0763019864527  231.854674025502 11.0763019864527  C 231.854674025502 11.0763019864527  228.938559703 15.5918624591206  228.938559703 15.5918624591206  C 228.938559703 15.5918624591206  223.543440888609 12.3101539062999  223.543440888609 12.3101539062999  C 223.543440888609 12.3101539062999  222.6239215804 11.4244399966273  222.6239215804 11.4244399966273  C 222.6239215804 11.4244399966273  225.811695151792 3.51975740080115  225.811695151792 3.51975740080115  C 225.811695151792 3.51975740080115  223.318214918526 0.247615037872094  223.318214918526 0.247615037872094  C 223.318214918526 0.247615037872094  221.074641715425 0.24089566760756  221.074641715425 0.24089566760756  C 221.074641715425 0.24089566760756  215.394787402068 4.11574127960301  215.394787402068 4.11574127960301  C 215.394787402068 4.11574127960301  210.627040796277 10.7587002775156  210.627040796277 10.7587002775156  C 210.627040796277 10.7587002775156  212.466230329627 11.8959390227183  212.466230329627 11.8959390227183  C 212.466230329627 11.8959390227183  216.023044931497 12.2858788563532  216.023044931497 12.2858788563532  C 216.023044931497 12.2858788563532  218.774944085286 19.2027570868997  218.774944085286 19.2027570868997  C 218.774944085286 19.2027570868997  217.173245154884 21.9589620073304  217.173245154884 21.9589620073304  C 217.173245154884 21.9589620073304  214.392394518338 25.8442418702177  214.392394518338 25.8442418702177  C 214.392394518338 25.8442418702177  209.195442794872 43.921473799129  209.195442794872 43.921473799129  C 209.195442794872 43.921473799129  211.164096241447 46.9423979071032  211.164096241447 46.9423979071032  C 211.164096241447 46.9423979071032  209.576807245622 49.5751366982772  209.576807245622 49.5751366982772  C 209.576807245622 49.5751366982772  197.816717757508 57.7072959493125  197.816717757508 57.7072959493125  C 197.816717757508 57.7072959493125  191.493011457726 56.5575022915818  191.493011457726 56.5575022915818  C 191.493011457726 56.5575022915818  187.937954336155 55.2907393849559  187.937954336155 55.2907393849559  C 187.937954336155 55.2907393849559  187.406216957932 57.047183297673  187.406216957932 57.047183297673  C 187.406216957932 57.047183297673  182.197728863533 76.6275149670433  182.197728863533 76.6275149670433  C 182.197728863533 76.6275149670433  179.688638379639 79.1339837306143  179.688638379639 79.1339837306143  C 179.688638379639 79.1339837306143  180.99420056344 82.6565945400056  180.99420056344 82.6565945400056  C 180.99420056344 82.6565945400056  184.151516992468 85.1791579078316  184.151516992468 85.1791579078316  C 184.151516992468 85.1791579078316  189.433148030075 82.4287184541042  189.433148030075 82.4287184541042  C 189.433148030075 82.4287184541042  198.001933192566 83.0841912277238  198.001933192566 83.0841912277238  C 198.001933192566 83.0841912277238  200.520441945824 79.1954978091173  200.520441945824 79.1954978091173  C 200.520441945824 79.1954978091173  205.005343023974 78.2042124403921  205.005343023974 78.2042124403921  C 205.005343023974 78.2042124403921  213.567835301438 81.2457606616342  213.567835301438 81.2457606616342  C 213.567835301438 81.2457606616342  223.95278024919 91.5780630008602  223.95278024919 91.5780630008602  C 223.95278024919 91.5780630008602  223.946368034498 93.7118638044601  223.946368034498 93.7118638044601  C 223.946368034498 93.7118638044601  221.700014274698 95.2144020644943  221.700014274698 95.2144020644943  C 221.700014274698 95.2144020644943  209.700225707393 95.8082731651606  209.700225707393 95.8082731651606  C 209.700225707393 95.8082731651606  205.602374787602 98.8092765433008  205.602374787602 98.8092765433008  C 205.602374787602 98.8092765433008  202.439510406535 98.4248963294116  202.439510406535 98.4248963294116  C 202.439510406535 98.4248963294116  200.189254742146 101.809844577024  200.189254742146 101.809844577024  C 200.189254742146 101.809844577024  194.513315494738 102.921948094781  194.513315494738 102.921948094781  C 194.513315494738 102.921948094781  190.672390997223 108.312443104096  190.672390997223 108.312443104096  C 190.672390997223 108.312443104096  190.002243490531 112.330181542484  190.002243490531 112.330181542484  C 190.002243490531 112.330181542484  181.810895428905 117.759328478835  181.810895428905 117.759328478835  C 181.810895428905 117.759328478835  176.665540624566 118.374604159319  176.665540624566 118.374604159319  C 176.665540624566 118.374604159319  170.97461409758 125.641980194525  170.97461409758 125.641980194525  C 170.97461409758 125.641980194525  165.558861780082 128.642540344748  165.558861780082 128.642540344748  C 165.558861780082 128.642540344748  155.147629208879 126.474035495977  155.147629208879 126.474035495977  C 155.147629208879 126.474035495977  151.724943783715 124.955394748187  151.724943783715 124.955394748187  C 151.724943783715 124.955394748187  147.624436901435 128.84022612749  147.624436901435 128.84022612749  C 147.624436901435 128.84022612749  145.626845133463 135.741128006289  145.626845133463 135.741128006289  C 145.626845133463 135.741128006289  151.274726115759 143.674024774481  151.274726115759 143.674024774481  C 151.274726115759 143.674024774481  147.56982603082 147.305138829169  147.56982603082 147.305138829169  C 147.56982603082 147.305138829169  142.418183605999 150.304738068275  142.418183605999 150.304738068275  C 142.418183605999 150.304738068275  134.451192864684 159.325961716697  134.451192864684 159.325961716697  C 134.451192864684 159.325961716697  124.546658622623 163.441304898904  124.546658622623 163.441304898904  C 124.546658622623 163.441304898904  108.458071519078 164.899758624109  108.458071519078 164.899758624109  C 108.458071519078 164.899758624109  105.950263829091 164.643477409941  105.950263829091 164.643477409941  C 105.950263829091 164.643477409941  87.2077849566658 172.120535287825  87.2077849566658 172.120535287825  C 87.2077849566658 172.120535287825  78.6172396786349 177.246283079372  78.6172396786349 177.246283079372  C 78.6172396786349 177.246283079372  76.1194784936055 175.982686712117  76.1194784936055 175.982686712117  C 76.1194784936055 175.982686712117  75.2036013724766 173.592973466983  75.2036013724766 173.592973466983  C 75.2036013724766 173.592973466983  63.7322975725763 172.928807820139  63.7322975725763 172.928807820139  C 63.7322975725763 172.928807820139  50.5580620466897 168.998371266354  50.5580620466897 168.998371266354  C 50.5580620466897 168.998371266354  47.0126881765344 165.093268779416  47.0126881765344 165.093268779416  C 47.0126881765344 165.093268779416  27.7666732111109 162.898304275114  27.7666732111109 162.898304275114  C 27.7666732111109 162.898304275114  24.2024285826924 164.396895529228  24.2024285826924 164.396895529228  C 24.2024285826924 164.396895529228  0.869367296783139 162.191442465474  0.869367296783139 162.191442465474  C 0.869367296783139 162.191442465474  0.462081108395182 165.455773155346  0.462081108395182 165.455773155346  C 0.462081108395182 165.455773155346  2.03122585304038 170.612824575514  2.03122585304038 170.612824575514  C 2.03122585304038 170.612824575514  1.08201539363006 179.023504395645  1.08201539363006 179.023504395645  C 1.08201539363006 179.023504395645  7.77915510850266 188.466181733003  7.77915510850266 188.466181733003  C 7.77915510850266 188.466181733003  11.1999505623409 190.613750632264  11.1999505623409 190.613750632264  C 11.1999505623409 190.613750632264  16.6178446718557 186.608479511955  16.6178446718557 186.608479511955  C 16.6178446718557 186.608479511955  27.9567952012534 186.642439004301  27.9567952012534 186.642439004301  C 27.9567952012534 186.642439004301  30.8580468383874 187.656721419946  30.8580468383874 187.656721419946  C 30.8580468383874 187.656721419946  32.4302371217842 190.048400284539  32.4302371217842 190.048400284539  C 32.4302371217842 190.048400284539  31.1017829454646 192.683666175598  31.1017829454646 192.683666175598  C 31.1017829454646 192.683666175598  24.7599376590466 197.570006071893  24.7599376590466 197.570006071893  C 24.7599376590466 197.570006071893  25.4143476886288 199.957184333642  25.4143476886288 199.957184333642  C 25.4143476886288 199.957184333642  32.6525395150542 205.127710408064  32.6525395150542 205.127710408064  C 32.6525395150542 205.127710408064  35.5480387603542 205.13638225862  35.5480387603542 205.13638225862  C 35.5480387603542 205.13638225862  36.4659304470185 206.271737723147  36.4659304470185 206.271737723147  C 36.4659304470185 206.271737723147  35.8005701657451 208.404440968287  35.8005701657451 208.404440968287  C 35.8005701657451 208.404440968287  40.2757669343034 211.810407504193  40.2757669343034 211.810407504193  C 40.2757669343034 211.810407504193  50.6836301972943 213.348216545491  50.6836301972943 213.348216545491  C 50.6836301972943 213.348216545491  55.6983707855258 212.107995633179  55.6983707855258 212.107995633179  C 55.6983707855258 212.107995633179  62.0453586540882 206.094320420206  62.0453586540882 206.094320420206  C 62.0453586540882 206.094320420206  69.6902163301238 206.747026085148  69.6902163301238 206.747026085148  C 69.6902163301238 206.747026085148  72.8414890625454 211.280758026482  72.8414890625454 211.280758026482  C 72.8414890625454 211.280758026482  70.9864453546913 215.419333008735  70.9864453546913 215.419333008735  C 70.9864453546913 215.419333008735  71.5053477744416 217.93399448122  71.5053477744416 217.93399448122  C 71.5053477744416 217.93399448122  67.410256353174 220.308700169224  67.410256353174 220.308700169224  C 67.410256353174 220.308700169224  65.5612484451103 222.438734411472  65.5612484451103 222.438734411472  C 65.5612484451103 222.438734411472  66.2051004315352 227.463373681198  66.2051004315352 227.463373681198  C 66.2051004315352 227.463373681198  73.4396369095194 232.390374045269  73.4396369095194 232.390374045269  Z " fill-rule="nonzero" fill="#031e4b" stroke="none" transform="matrix(1 0 0 1 883 442 )" />
    <path d="M 73.4396369095194 232.390374045269  C 73.4396369095194 232.390374045269  76.6311605911467 231.705302231028  76.6311605911467 231.705302231028  C 76.6311605911467 231.705302231028  80.4390202421287 230.894187258809  80.4390202421287 230.894187258809  C 80.4390202421287 230.894187258809  83.6085328649474 229.650191901644  83.6085328649474 229.650191901644  C 83.6085328649474 229.650191901644  88.896069843591 225.518393226048  88.896069843591 225.518393226048  C 88.896069843591 225.518393226048  89.9689839275766 218.864368421259  89.9689839275766 218.864368421259  C 89.9689839275766 218.864368421259  93.1567838216897 209.199021612112  93.1567838216897 209.199021612112  C 93.1567838216897 209.199021612112  99.7608279712817 204.947656512176  99.7608279712817 204.947656512176  C 99.7608279712817 204.947656512176  100.683493722005 205.954261274273  100.683493722005 205.954261274273  C 100.683493722005 205.954261274273  102.641573331791 212.493854441386  102.641573331791 212.493854441386  C 102.641573331791 212.493854441386  99.4682491790563 216.758122203816  99.4682491790563 216.758122203816  C 99.4682491790563 216.758122203816  98.7976006632521 220.650597950776  98.7976006632521 220.650597950776  C 98.7976006632521 220.650597950776  108.937584620004 224.319672812289  108.937584620004 224.319672812289  C 108.937584620004 224.319672812289  109.851441911053 227.089543342874  109.851441911053 227.089543342874  C 109.851441911053 227.089543342874  115.784848073929 226.727150211896  115.784848073929 226.727150211896  C 115.784848073929 226.727150211896  118.678457347904 227.364750213924  118.678457347904 227.364750213924  C 118.678457347904 227.364750213924  119.997209846903 228.249907898839  119.997209846903 228.249907898839  C 119.997209846903 228.249907898839  130.465420578711 214.085575238865  130.465420578711 214.085575238865  C 130.465420578711 214.085575238865  133.236325614061 213.217921552907  133.236325614061 213.217921552907  C 133.236325614061 213.217921552907  133.900551386085 211.462750387549  133.900551386085 211.462750387549  C 133.900551386085 211.462750387549  133.645634264801 208.696605248925  133.645634264801 208.696605248925  C 133.645634264801 208.696605248925  137.515383896015 203.933378476253  137.515383896015 203.933378476253  C 137.515383896015 203.933378476253  144.241090781926 203.57773800143  144.241090781926 203.57773800143  C 144.241090781926 203.57773800143  146.755822224805 200.946024941266  146.755822224805 200.946024941266  C 146.755822224805 200.946024941266  148.331781921765 202.083351280919  148.331781921765 202.083351280919  C 148.331781921765 202.083351280919  152.162906470471 199.078045263392  152.162906470471 199.078045263392  C 152.162906470471 199.078045263392  154.268724103417 199.084352063796  154.268724103417 199.084352063796  C 154.268724103417 199.084352063796  161.286098138003 189.55748770048  161.286098138003 189.55748770048  C 161.286098138003 189.55748770048  164.847689436204 189.817800887186  164.847689436204 189.817800887186  C 164.847689436204 189.817800887186  169.207015344358 186.816704658928  169.207015344358 186.816704658928  C 169.207015344358 186.816704658928  170.519379319114 188.075874878622  170.519379319114 188.075874878622  C 170.519379319114 188.075874878622  178.705540927394 184.080646462013  178.705540927394 184.080646462013  C 178.705540927394 184.080646462013  174.640766260649 177.534743866662  174.640766260649 177.534743866662  C 174.640766260649 177.534743866662  175.976907548752 170.881507411923  175.976907548752 170.881507411923  C 175.976907548752 170.881507411923  179.430151020043 163.983213219903  179.430151020043 163.983213219903  C 179.430151020043 163.983213219903  182.329422311177 162.736656601018  182.329422311177 162.736656601018  C 182.329422311177 162.736656601018  184.169380467964 163.618119552029  184.169380467964 163.618119552029  C 184.169380467964 163.618119552029  184.154658170437 168.517277144202  184.154658170437 168.517277144202  C 184.154658170437 168.517277144202  186.393695968811 170.033248889099  186.393695968811 170.033248889099  C 186.393695968811 170.033248889099  191.414737338885 166.404324695662  191.414737338885 166.404324695662  C 191.414737338885 166.404324695662  193.662978437739 164.273734228657  193.662978437739 164.273734228657  C 193.662978437739 164.273734228657  195.89953224873 165.156384960411  195.89953224873 165.156384960411  C 195.89953224873 165.156384960411  198.411872711171 163.028337360292  198.411872711171 163.028337360292  C 198.411872711171 163.028337360292  203.817552200991 162.795756576477  203.817552200991 162.795756576477  C 203.817552200991 162.795756576477  204.746762657432 161.040503072336  204.746762657432 161.040503072336  C 204.746762657432 161.040503072336  203.438939351947 158.270328589009  203.438939351947 158.270328589009  C 203.438939351947 158.270328589009  207.274578247204 154.638730137013  207.274578247204 154.638730137013  C 207.274578247204 154.638730137013  211.763755012573 152.516603045773  211.763755012573 152.516603045773  C 211.763755012573 152.516603045773  218.727027082473 159.825381473747  218.727027082473 159.825381473747  C 218.727027082473 159.825381473747  218.327396418605 162.586062470576  218.327396418605 162.586062470576  C 218.327396418605 162.586062470576  221.869369393283 167.622885252362  221.869369393283 167.622885252362  C 221.869369393283 167.622885252362  230.040689374371 168.274539783903  230.040689374371 168.274539783903  C 230.040689374371 168.274539783903  231.898614542686 164.637018195193  231.898614542686 164.637018195193  C 231.898614542686 164.637018195193  229.830644594573 154.079978279211  229.830644594573 154.079978279211  C 229.830644594573 154.079978279211  231.678517993387 152.327476116747  231.678517993387 152.327476116747  C 231.678517993387 152.327476116747  235.495158903898 154.725876979439  235.495158903898 154.725876979439  C 235.495158903898 154.725876979439  238.902387627636 159.63615906677  238.902387627636 159.63615906677  C 238.902387627636 159.63615906677  244.334609193871 151.739074413543  244.334609193871 151.739074413543  C 244.334609193871 151.739074413543  246.841544724388 151.11764872672  246.841544724388 151.11764872672  C 246.841544724388 151.11764872672  250.938536646069 147.234558725084  250.938536646069 147.234558725084  C 250.938536646069 147.234558725084  252.918882645052 147.240489745298  252.918882645052 147.240489745298  C 252.918882645052 147.240489745298  256.35591395284 143.985232964508  256.35591395284 143.985232964508  C 256.35591395284 143.985232964508  258.332750255768 143.991153473388  258.332750255768 143.991153473388  C 258.332750255768 143.991153473388  260.184403597233 140.980795007981  260.184403597233 140.980795007981  C 260.184403597233 140.980795007981  265.198881835684 140.995813076444  265.198881835684 140.995813076444  C 265.198881835684 140.995813076444  269.691846440521 136.737249464602  269.691846440521 136.737249464602  C 269.691846440521 136.737249464602  271.938324794531 134.609281575432  271.938324794531 134.609281575432  C 271.938324794531 134.609281575432  271.945505632659 132.21970497764  271.945505632659 132.21970497764  C 271.945505632659 132.21970497764  268.390204587212 130.450144671971  268.390204587212 130.450144671971  C 268.390204587212 130.450144671971  268.403795007761 125.927643215079  268.403795007761 125.927643215079  C 268.403795007761 125.927643215079  261.835493602792 117.992865794044  261.835493602792 117.992865794044  C 261.835493602792 117.992865794044  255.490138620319 123.755147563163  255.490138620319 123.755147563163  C 255.490138620319 123.755147563163  253.658339629437 122.494421666036  253.658339629437 122.494421666036  C 253.658339629437 122.494421666036  253.272437141687 119.226839470177  253.272437141687 119.226839470177  C 253.272437141687 119.226839470177  250.780501174685 115.14882553881  250.780501174685 115.14882553881  C 250.780501174685 115.14882553881  250.133139492205 111.000128141907  250.133139492205 111.000128141907  C 250.133139492205 111.000128141907  250.145971818406 106.729898701205  250.145971818406 106.729898701205  C 250.145971818406 106.729898701205  245.807396110753 103.701876814942  245.807396110753 103.701876814942  C 245.807396110753 103.701876814942  245.149346526362 101.941869559997  245.149346526362 101.941869559997  C 245.149346526362 101.941869559997  246.344930629435 99.4323428741741  246.344930629435 99.4323428741741  C 246.344930629435 99.4323428741741  254.64596634444 101.591899949871  254.64596634444 101.591899949871  C 254.64596634444 101.591899949871  254.92014380025 97.9487591771896  254.92014380025 97.9487591771896  C 254.92014380025 97.9487591771896  257.831603388359 94.6901764351308  257.831603388359 94.6901764351308  C 257.831603388359 94.6901764351308  255.856540359364 92.9262248020985  255.856540359364 92.9262248020985  C 255.856540359364 92.9262248020985  256.265080386667 89.5366366764659  256.265080386667 89.5366366764659  C 256.265080386667 89.5366366764659  260.354772140554 87.7908486285994  260.354772140554 87.7908486285994  C 260.354772140554 87.7908486285994  261.282476937388 86.5366353788345  261.282476937388 86.5366353788345  C 261.282476937388 86.5366353788345  260.625172285985 85.4046882143602  260.625172285985 85.4046882143602  C 260.625172285985 85.4046882143602  256.273263243019 86.5216330773717  256.273263243019 86.5216330773717  C 256.273263243019 86.5216330773717  248.377008670842 81.3473842388224  248.377008670842 81.3473842388224  C 248.377008670842 81.3473842388224  247.985825845378 79.8369467112814  247.985825845378 79.8369467112814  C 247.985825845378 79.8369467112814  251.823988212098 75.0736253366027  251.823988212098 75.0736253366027  C 251.823988212098 75.0736253366027  259.767564016183 63.9167596492395  259.767564016183 63.9167596492395  C 259.767564016183 63.9167596492395  260.42991034597 62.7870128573509  260.42991034597 62.7870128573509  C 260.42991034597 62.7870128573509  261.75306575867 62.7909756302719  261.75306575867 62.7909756302719  C 261.75306575867 62.7909756302719  264.246413500911 65.8152230716815  264.246413500911 65.8152230716815  C 264.246413500911 65.8152230716815  264.90472280281 66.3208672903527  264.90472280281 66.3208672903527  C 264.90472280281 66.3208672903527  265.210232192725 52.251359126353  265.210232192725 52.251359126353  C 265.210232192725 52.251359126353  267.717297581996 51.0027519213922  267.717297581996 51.0027519213922  C 267.717297581996 51.0027519213922  267.733533435946 45.599926241341  267.733533435946 45.599926241341  C 267.733533435946 45.599926241341  267.101890804672 36.8043485241208  267.101890804672 36.8043485241208  C 267.101890804672 36.8043485241208  270.305510653753 24.502432418498  270.305510653753 24.502432418498  C 270.305510653753 24.502432418498  260.828278396682 17.816810543681  260.828278396682 17.816810543681  C 260.828278396682 17.816810543681  253.558995927754 23.5763252041221  253.558995927754 23.5763252041221  C 253.558995927754 23.5763252041221  249.736311320636 24.0650452990961  249.736311320636 24.0650452990961  C 249.736311320636 24.0650452990961  247.888053610104 25.945435358656  247.888053610104 25.945435358656  C 247.888053610104 25.945435358656  241.560949047117 25.050533667116  241.560949047117 25.050533667116  C 241.560949047117 25.050533667116  238.412414755042 21.6494163599658  238.412414755042 21.6494163599658  C 238.412414755042 21.6494163599658  236.586062812437 16.2401962850598  236.586062812437 16.2401962850598  C 236.586062812437 16.2401962850598  236.855702231248 14.1071838315104  236.855702231248 14.1071838315104  C 236.855702231248 14.1071838315104  231.854674025502 11.0763019864527  231.854674025502 11.0763019864527  C 231.854674025502 11.0763019864527  228.938559703 15.5918624591206  228.938559703 15.5918624591206  C 228.938559703 15.5918624591206  223.543440888609 12.3101539062999  223.543440888609 12.3101539062999  C 223.543440888609 12.3101539062999  222.6239215804 11.4244399966273  222.6239215804 11.4244399966273  C 222.6239215804 11.4244399966273  225.811695151792 3.51975740080115  225.811695151792 3.51975740080115  C 225.811695151792 3.51975740080115  223.318214918526 0.247615037872094  223.318214918526 0.247615037872094  C 223.318214918526 0.247615037872094  221.074641715425 0.24089566760756  221.074641715425 0.24089566760756  C 221.074641715425 0.24089566760756  215.394787402068 4.11574127960301  215.394787402068 4.11574127960301  C 215.394787402068 4.11574127960301  210.627040796277 10.7587002775156  210.627040796277 10.7587002775156  C 210.627040796277 10.7587002775156  212.466230329627 11.8959390227183  212.466230329627 11.8959390227183  C 212.466230329627 11.8959390227183  216.023044931497 12.2858788563532  216.023044931497 12.2858788563532  C 216.023044931497 12.2858788563532  218.774944085286 19.2027570868997  218.774944085286 19.2027570868997  C 218.774944085286 19.2027570868997  217.173245154884 21.9589620073304  217.173245154884 21.9589620073304  C 217.173245154884 21.9589620073304  214.392394518338 25.8442418702177  214.392394518338 25.8442418702177  C 214.392394518338 25.8442418702177  209.195442794872 43.921473799129  209.195442794872 43.921473799129  C 209.195442794872 43.921473799129  211.164096241447 46.9423979071032  211.164096241447 46.9423979071032  C 211.164096241447 46.9423979071032  209.576807245622 49.5751366982772  209.576807245622 49.5751366982772  C 209.576807245622 49.5751366982772  197.816717757508 57.7072959493125  197.816717757508 57.7072959493125  C 197.816717757508 57.7072959493125  191.493011457726 56.5575022915818  191.493011457726 56.5575022915818  C 191.493011457726 56.5575022915818  187.937954336155 55.2907393849559  187.937954336155 55.2907393849559  C 187.937954336155 55.2907393849559  187.406216957932 57.047183297673  187.406216957932 57.047183297673  C 187.406216957932 57.047183297673  182.197728863533 76.6275149670433  182.197728863533 76.6275149670433  C 182.197728863533 76.6275149670433  179.688638379639 79.1339837306143  179.688638379639 79.1339837306143  C 179.688638379639 79.1339837306143  180.99420056344 82.6565945400056  180.99420056344 82.6565945400056  C 180.99420056344 82.6565945400056  184.151516992468 85.1791579078316  184.151516992468 85.1791579078316  C 184.151516992468 85.1791579078316  189.433148030075 82.4287184541042  189.433148030075 82.4287184541042  C 189.433148030075 82.4287184541042  198.001933192566 83.0841912277238  198.001933192566 83.0841912277238  C 198.001933192566 83.0841912277238  200.520441945824 79.1954978091173  200.520441945824 79.1954978091173  C 200.520441945824 79.1954978091173  205.005343023974 78.2042124403921  205.005343023974 78.2042124403921  C 205.005343023974 78.2042124403921  213.567835301438 81.2457606616342  213.567835301438 81.2457606616342  C 213.567835301438 81.2457606616342  223.95278024919 91.5780630008602  223.95278024919 91.5780630008602  C 223.95278024919 91.5780630008602  223.946368034498 93.7118638044601  223.946368034498 93.7118638044601  C 223.946368034498 93.7118638044601  221.700014274698 95.2144020644943  221.700014274698 95.2144020644943  C 221.700014274698 95.2144020644943  209.700225707393 95.8082731651606  209.700225707393 95.8082731651606  C 209.700225707393 95.8082731651606  205.602374787602 98.8092765433008  205.602374787602 98.8092765433008  C 205.602374787602 98.8092765433008  202.439510406535 98.4248963294116  202.439510406535 98.4248963294116  C 202.439510406535 98.4248963294116  200.189254742146 101.809844577024  200.189254742146 101.809844577024  C 200.189254742146 101.809844577024  194.513315494738 102.921948094781  194.513315494738 102.921948094781  C 194.513315494738 102.921948094781  190.672390997223 108.312443104096  190.672390997223 108.312443104096  C 190.672390997223 108.312443104096  190.002243490531 112.330181542484  190.002243490531 112.330181542484  C 190.002243490531 112.330181542484  181.810895428905 117.759328478835  181.810895428905 117.759328478835  C 181.810895428905 117.759328478835  176.665540624566 118.374604159319  176.665540624566 118.374604159319  C 176.665540624566 118.374604159319  170.97461409758 125.641980194525  170.97461409758 125.641980194525  C 170.97461409758 125.641980194525  165.558861780082 128.642540344748  165.558861780082 128.642540344748  C 165.558861780082 128.642540344748  155.147629208879 126.474035495977  155.147629208879 126.474035495977  C 155.147629208879 126.474035495977  151.724943783715 124.955394748187  151.724943783715 124.955394748187  C 151.724943783715 124.955394748187  147.624436901435 128.84022612749  147.624436901435 128.84022612749  C 147.624436901435 128.84022612749  145.626845133463 135.741128006289  145.626845133463 135.741128006289  C 145.626845133463 135.741128006289  151.274726115759 143.674024774481  151.274726115759 143.674024774481  C 151.274726115759 143.674024774481  147.56982603082 147.305138829169  147.56982603082 147.305138829169  C 147.56982603082 147.305138829169  142.418183605999 150.304738068275  142.418183605999 150.304738068275  C 142.418183605999 150.304738068275  134.451192864684 159.325961716697  134.451192864684 159.325961716697  C 134.451192864684 159.325961716697  124.546658622623 163.441304898904  124.546658622623 163.441304898904  C 124.546658622623 163.441304898904  108.458071519078 164.899758624109  108.458071519078 164.899758624109  C 108.458071519078 164.899758624109  105.950263829091 164.643477409941  105.950263829091 164.643477409941  C 105.950263829091 164.643477409941  87.2077849566658 172.120535287825  87.2077849566658 172.120535287825  C 87.2077849566658 172.120535287825  78.6172396786349 177.246283079372  78.6172396786349 177.246283079372  C 78.6172396786349 177.246283079372  76.1194784936055 175.982686712117  76.1194784936055 175.982686712117  C 76.1194784936055 175.982686712117  75.2036013724766 173.592973466983  75.2036013724766 173.592973466983  C 75.2036013724766 173.592973466983  63.7322975725763 172.928807820139  63.7322975725763 172.928807820139  C 63.7322975725763 172.928807820139  50.5580620466897 168.998371266354  50.5580620466897 168.998371266354  C 50.5580620466897 168.998371266354  47.0126881765344 165.093268779416  47.0126881765344 165.093268779416  C 47.0126881765344 165.093268779416  27.7666732111109 162.898304275114  27.7666732111109 162.898304275114  C 27.7666732111109 162.898304275114  24.2024285826924 164.396895529228  24.2024285826924 164.396895529228  C 24.2024285826924 164.396895529228  0.869367296783139 162.191442465474  0.869367296783139 162.191442465474  C 0.869367296783139 162.191442465474  0.462081108395182 165.455773155346  0.462081108395182 165.455773155346  C 0.462081108395182 165.455773155346  2.03122585304038 170.612824575514  2.03122585304038 170.612824575514  C 2.03122585304038 170.612824575514  1.08201539363006 179.023504395645  1.08201539363006 179.023504395645  C 1.08201539363006 179.023504395645  7.77915510850266 188.466181733003  7.77915510850266 188.466181733003  C 7.77915510850266 188.466181733003  11.1999505623409 190.613750632264  11.1999505623409 190.613750632264  C 11.1999505623409 190.613750632264  16.6178446718557 186.608479511955  16.6178446718557 186.608479511955  C 16.6178446718557 186.608479511955  27.9567952012534 186.642439004301  27.9567952012534 186.642439004301  C 27.9567952012534 186.642439004301  30.8580468383874 187.656721419946  30.8580468383874 187.656721419946  C 30.8580468383874 187.656721419946  32.4302371217842 190.048400284539  32.4302371217842 190.048400284539  C 32.4302371217842 190.048400284539  31.1017829454646 192.683666175598  31.1017829454646 192.683666175598  C 31.1017829454646 192.683666175598  24.7599376590466 197.570006071893  24.7599376590466 197.570006071893  C 24.7599376590466 197.570006071893  25.4143476886288 199.957184333642  25.4143476886288 199.957184333642  C 25.4143476886288 199.957184333642  32.6525395150542 205.127710408064  32.6525395150542 205.127710408064  C 32.6525395150542 205.127710408064  35.5480387603542 205.13638225862  35.5480387603542 205.13638225862  C 35.5480387603542 205.13638225862  36.4659304470185 206.271737723147  36.4659304470185 206.271737723147  C 36.4659304470185 206.271737723147  35.8005701657451 208.404440968287  35.8005701657451 208.404440968287  C 35.8005701657451 208.404440968287  40.2757669343034 211.810407504193  40.2757669343034 211.810407504193  C 40.2757669343034 211.810407504193  50.6836301972943 213.348216545491  50.6836301972943 213.348216545491  C 50.6836301972943 213.348216545491  55.6983707855258 212.107995633179  55.6983707855258 212.107995633179  C 55.6983707855258 212.107995633179  62.0453586540882 206.094320420206  62.0453586540882 206.094320420206  C 62.0453586540882 206.094320420206  69.6902163301238 206.747026085148  69.6902163301238 206.747026085148  C 69.6902163301238 206.747026085148  72.8414890625454 211.280758026482  72.8414890625454 211.280758026482  C 72.8414890625454 211.280758026482  70.9864453546913 215.419333008735  70.9864453546913 215.419333008735  C 70.9864453546913 215.419333008735  71.5053477744416 217.93399448122  71.5053477744416 217.93399448122  C 71.5053477744416 217.93399448122  67.410256353174 220.308700169224  67.410256353174 220.308700169224  C 67.410256353174 220.308700169224  65.5612484451103 222.438734411472  65.5612484451103 222.438734411472  C 65.5612484451103 222.438734411472  66.2051004315352 227.463373681198  66.2051004315352 227.463373681198  C 66.2051004315352 227.463373681198  73.4396369095194 232.390374045269  73.4396369095194 232.390374045269  Z " stroke-width="0.97600957434184" stroke="#47b3fe" fill="none" transform="matrix(1 0 0 1 883 442 )" mask="url(#clip1800)" />
  </g>
</svg>