<?xml version="1.0" encoding="utf-8"?>
<svg version="1.1" xmlns:xlink="http://www.w3.org/1999/xlink" width="34px" height="56px" xmlns="http://www.w3.org/2000/svg">
  <g transform="matrix(1 0 0 1 -959 -647 )">
    <path d="M 29.6829323795364 31.7809918138947  L 31.2653827306458 31.1574976283059  L 31.5441842110076 25.3832544686078  L 33.5170900199471 22.7562822700828  L 32.6064701591563 19.9911258378363  L 22.5280198247478 16.318977214702  L 23.1943666962061 12.4315529485114  L 26.3525772090552 8.17275133540545  L 24.4070415454441 1.64279991309695  L 23.4902981649595 0.63465018508964  L 16.9285824009139 4.883203743781  L 13.7612197369053 14.5373050044957  L 12.6951833073042 21.184190297692  L 7.44154864266807 25.3089306989684  L 4.29234817765996 26.5533413064584  L 0.504536270512517 27.364447863219  L 8.97738125906994 37.3651025890404  L 10.7856442450818 44.9035301160892  L 9.85590059044102 48.5364076557045  L 15.742006613332 51.5659239916318  L 15.7348796524129 53.9503116520974  L 21.1031550796072 55.2221186550549  L 22.672394181081 55.2268436801435  L 22.6851442487805 50.961196030687  L 26.7478694105159 50.3434200004602  L 27.8090255065117 45.3292933767791  L 24.931494330149 43.1855984943284  L 22.7130409610072 41.0447631270609  L 23.657304436334 31.3874680993882  L 25.8872594562902 30.2636663822994  L 29.6829323795364 31.7809918138947  Z " fill-rule="nonzero" fill="#031e4b" stroke="none" transform="matrix(1 0 0 1 959 647 )" />
  </g>
</svg>