<?xml version="1.0" encoding="utf-8"?>
<svg version="1.1" xmlns:xlink="http://www.w3.org/1999/xlink" width="43px" height="84px" xmlns="http://www.w3.org/2000/svg">
  <g transform="matrix(1 0 0 1 -1024 -626 )">
    <path d="M 1.9302965966624 79.6241472189234  L 3.4971950797426 83.2671363122282  L 12.6019967299446 80.9073371573212  L 24.0960455153943 73.4166113835561  L 32.2785203499184 71.9343158879606  L 38.3586578583243 67.433938617152  L 39.04752502623 57.5238573722515  L 36.1555306296914 53.8725294846699  L 37.0895227930232 50.8679052809131  L 39.075839360245 48.1131824040659  L 39.6148305486759 43.9742354273562  L 41.6019105893392 40.9657612031569  L 38.4538077104835 34.9345081788045  L 33.9859778038194 30.0271986222937  L 36.5130590995011 22.2523964651583  L 41.9298680654003 18.882301195847  L 42.8672879612184 13.8634084218589  L 40.7747441564889 9.34033440553674  L 40.7913641835123 3.81643007507125  L 37.2401745317197 0.796639415784512  L 29.0527845078318 4.78758110662534  L 27.7402262323735 3.5288869232935  L 23.3802461636694 6.52676309122  L 19.8207557126998 6.26586208090487  L 12.8014510951168 15.7825018617356  L 10.690052129047 15.7761860782005  L 6.85835794703326 18.7765175091638  L 7.10879303187926 23.0420776581558  L 5.25497947433564 26.6748344471299  L 4.58158449062375 31.4425133872393  L 1.1366115456708 36.5790321607902  L 4.80570957862778 43.8692366198405  L 3.60942918588012 48.0062174611105  L 0.692004980846377 52.515180277506  L 4.7260398086637 70.3486272183748  L 1.9302965966624 79.6241472189234  Z " fill-rule="nonzero" fill="#031e4b" stroke="none" transform="matrix(1 0 0 1 1024 626 )" />
  </g>
</svg>