<?xml version="1.0" encoding="utf-8"?>
<svg version="1.1" xmlns:xlink="http://www.w3.org/1999/xlink" width="104px" height="68px" xmlns="http://www.w3.org/2000/svg">
  <defs>
    <mask fill="white" id="clip1802">
      <path d="M 103.834830743814 20.7377495614568  C 103.834830743814 20.7377495614568  102.976264761328 19.3220020954956  102.976264761328 19.3220020954956  C 102.976264761328 19.3220020954956  100.671787033637 19.2227520813249  100.671787033637 19.2227520813249  C 100.671787033637 19.2227520813249  97.4918379455623 19.213315723528  97.4918379455623 19.213315723528  C 97.4918379455623 19.213315723528  92.7282354317585 17.6961840782182  92.7282354317585 17.6961840782182  C 92.7282354317585 17.6961840782182  91.1457189612197 14.9418076583389  91.1457189612197 14.9418076583389  C 91.1457189612197 14.9418076583389  89.5528235881141 17.0625471240305  89.5528235881141 17.0625471240305  C 89.5528235881141 17.0625471240305  87.3072604105323 15.5555030707447  87.3072604105323 15.5555030707447  C 87.3072604105323 15.5555030707447  82.256617253975 20.9186950350497  82.256617253975 20.9186950350497  C 82.256617253975 20.9186950350497  81.3248833575631 22.4136951782317  81.3248833575631 22.4136951782317  C 81.3248833575631 22.4136951782317  79.073632759952 22.781891851207  79.073632759952 22.781891851207  C 79.073632759952 22.781891851207  75.9048002732759 19.3977222411391  75.9048002732759 19.3977222411391  C 75.9048002732759 19.3977222411391  72.991796806001 18.2618311329359  72.991796806001 18.2618311329359  C 72.991796806001 18.2618311329359  69.8370951740169 12.2526915336923  69.8370951740169 12.2526915336923  C 69.8370951740169 12.2526915336923  67.5789056243079 13.7463709006306  67.5789056243079 13.7463709006306  C 67.5789056243079 13.7463709006306  68.2218546653153 19.1255865397607  68.2218546653153 19.1255865397607  C 68.2218546653153 19.1255865397607  66.6327614818897 19.992678323275  66.6327614818897 19.992678323275  C 66.6327614818897 19.992678323275  62.5402815824164 15.7278578320565  62.5402815824164 15.7278578320565  C 62.5402815824164 15.7278578320565  60.9528418314987 13.7249647356875  60.9528418314987 13.7249647356875  C 60.9528418314987 13.7249647356875  57.7799436283194 13.7155493010787  57.7799436283194 13.7155493010787  C 57.7799436283194 13.7155493010787  55.9427430258145 9.20721254249452  55.9427430258145 9.20721254249452  C 55.9427430258145 9.20721254249452  51.2770966931489 7.06790113203681  51.2770966931489 7.06790113203681  C 51.2770966931489 7.06790113203681  45.3144154057757 9.17567345195346  45.3144154057757 9.17567345195346  C 45.3144154057757 9.17567345195346  43.0627946367078 8.79411470802904  43.0627946367078 8.79411470802904  C 43.0627946367078 8.79411470802904  39.6282971462006 5.53295339212832  39.6282971462006 5.53295339212832  C 39.6282971462006 5.53295339212832  34.8512935442916 8.14378976779676  34.8512935442916 8.14378976779676  C 34.8512935442916 8.14378976779676  32.2072117083089 8.13594357228942  32.2072117083089 8.13594357228942  C 32.2072117083089 8.13594357228942  29.0243417911656 9.38015751206842  29.0243417911656 9.38015751206842  C 29.0243417911656 9.38015751206842  24.2642805843007 6.11419083731914  24.2642805843007 6.11419083731914  C 24.2642805843007 6.11419083731914  21.1080665375064 0.603720552543905  21.1080665375064 0.603720552543905  C 21.1080665375064 0.603720552543905  13.5536612052808 1.83060311824659  13.5536612052808 1.83060311824659  C 13.5536612052808 1.83060311824659  10.6291392361677 5.07376613345298  10.6291392361677 5.07376613345298  C 10.6291392361677 5.07376613345298  10.3537369602955 8.69792383830668  10.3537369602955 8.69792383830668  C 10.3537369602955 8.69792383830668  2.01369823622599 6.54770883149229  2.01369823622599 6.54770883149229  C 2.01369823622599 6.54770883149229  0.815396822716139 9.04449639646373  0.815396822716139 9.04449639646373  C 0.815396822716139 9.04449639646373  1.47639877313895 10.7961752358749  1.47639877313895 10.7961752358749  C 1.47639877313895 10.7961752358749  5.83443174364561 13.8124838157752  5.83443174364561 13.8124838157752  C 5.83443174364561 13.8124838157752  5.82154713285877 18.0607627832651  5.82154713285877 18.0607627832651  C 5.82154713285877 18.0607627832651  6.47181322966685 22.1898283998149  6.47181322966685 22.1898283998149  C 6.47181322966685 22.1898283998149  8.97621174769711 25.8257222695487  8.97621174769711 25.8257222695487  C 8.97621174769711 25.8257222695487  9.36385089070382 29.0760985538249  9.36385089070382 29.0760985538249  C 9.36385089070382 29.0760985538249  11.1976750007043 30.3386865398832  11.1976750007043 30.3386865398832  C 11.1976750007043 30.3386865398832  17.5714986745243 24.603672088479  17.5714986745243 24.603672088479  C 17.5714986745243 24.603672088479  24.1692690289672 32.5009018668263  24.1692690289672 32.5009018668263  C 24.1692690289672 32.5009018668263  24.1543246784302 37.4283126454541  24.1543246784302 37.4283126454541  C 24.1543246784302 37.4283126454541  27.7255793696579 39.1886275307203  27.7255793696579 39.1886275307203  C 27.7255793696579 39.1886275307203  27.9945406621778 37.6881734098611  27.9945406621778 37.6881734098611  C 27.9945406621778 37.6881734098611  33.4209316443648 39.2055282358432  33.4209316443648 39.2055282358432  C 33.4209316443648 39.2055282358432  37.2490139365671 43.4660769095076  37.2490139365671 43.4660769095076  C 37.2490139365671 43.4660769095076  39.1055559977024 41.5972003196024  39.1055559977024 41.5972003196024  C 39.1055559977024 41.5972003196024  39.5064684315257 40.4711431097683  39.5064684315257 40.4711431097683  C 39.5064684315257 40.4711431097683  48.6091432049902 52.1280649023641  48.6091432049902 52.1280649023641  C 48.6091432049902 52.1280649023641  49.2573962741606 56.6302580898659  49.2573962741606 56.6302580898659  C 49.2573962741606 56.6302580898659  54.7060239845882 62.1492746251478  54.7060239845882 62.1492746251478  C 54.7060239845882 62.1492746251478  55.3518806342545 67.1510063112203  55.3518806342545 67.1510063112203  C 55.3518806342545 67.1510063112203  59.8635946919533 64.5393827006026  59.8635946919533 64.5393827006026  C 59.8635946919533 64.5393827006026  64.0018427666469 53.4230419834769  64.0018427666469 53.4230419834769  C 64.0018427666469 53.4230419834769  65.8545905703475 52.8051976772466  65.8545905703475 52.8051976772466  C 65.8545905703475 52.8051976772466  70.3520195352471 55.1942186187238  70.3520195352471 55.1942186187238  C 70.3520195352471 55.1942186187238  77.6382277146035 54.3440327711294  77.6382277146035 54.3440327711294  C 77.6382277146035 54.3440327711294  80.1591958121392 52.2260473200607  80.1591958121392 52.2260473200607  C 80.1591958121392 52.2260473200607  76.7370558787729 47.2152053292047  76.7370558787729 47.2152053292047  C 76.7370558787729 47.2152053292047  77.6671627834953 45.9660500298551  77.6671627834953 45.9660500298551  C 77.6671627834953 45.9660500298551  84.4283488530898 43.8632626594841  84.4283488530898 43.8632626594841  C 84.4283488530898 43.8632626594841  87.2245887851273 38.745333176945  87.2245887851273 38.745333176945  C 87.2245887851273 38.745333176945  90.8039405362974 37.254702492861  90.8039405362974 37.254702492861  C 90.8039405362974 37.254702492861  91.0848107734066 31.8276634203141  91.0848107734066 31.8276634203141  C 91.0848107734066 31.8276634203141  92.0248814598476 28.4556867980648  92.0248814598476 28.4556867980648  C 92.0248814598476 28.4556867980648  94.0107173600411 27.8373656175075  94.0107173600411 27.8373656175075  C 94.0107173600411 27.8373656175075  95.8611727447901 29.7189861725157  95.8611727447901 29.7189861725157  C 95.8611727447901 29.7189861725157  97.7127730169739 31.2231175436693  97.7127730169739 31.2231175436693  C 97.7127730169739 31.2231175436693  102.499135787222 25.2357990859311  102.499135787222 25.2357990859311  C 102.499135787222 25.2357990859311  103.834830743814 20.7377495614568  103.834830743814 20.7377495614568  Z " fill-rule="evenodd" />
    </mask>
  </defs>
  <g transform="matrix(1 0 0 1 -1127 -535 )">
    <path d="M 103.834830743814 20.7377495614568  C 103.834830743814 20.7377495614568  102.976264761328 19.3220020954956  102.976264761328 19.3220020954956  C 102.976264761328 19.3220020954956  100.671787033637 19.2227520813249  100.671787033637 19.2227520813249  C 100.671787033637 19.2227520813249  97.4918379455623 19.213315723528  97.4918379455623 19.213315723528  C 97.4918379455623 19.213315723528  92.7282354317585 17.6961840782182  92.7282354317585 17.6961840782182  C 92.7282354317585 17.6961840782182  91.1457189612197 14.9418076583389  91.1457189612197 14.9418076583389  C 91.1457189612197 14.9418076583389  89.5528235881141 17.0625471240305  89.5528235881141 17.0625471240305  C 89.5528235881141 17.0625471240305  87.3072604105323 15.5555030707447  87.3072604105323 15.5555030707447  C 87.3072604105323 15.5555030707447  82.256617253975 20.9186950350497  82.256617253975 20.9186950350497  C 82.256617253975 20.9186950350497  81.3248833575631 22.4136951782317  81.3248833575631 22.4136951782317  C 81.3248833575631 22.4136951782317  79.073632759952 22.781891851207  79.073632759952 22.781891851207  C 79.073632759952 22.781891851207  75.9048002732759 19.3977222411391  75.9048002732759 19.3977222411391  C 75.9048002732759 19.3977222411391  72.991796806001 18.2618311329359  72.991796806001 18.2618311329359  C 72.991796806001 18.2618311329359  69.8370951740169 12.2526915336923  69.8370951740169 12.2526915336923  C 69.8370951740169 12.2526915336923  67.5789056243079 13.7463709006306  67.5789056243079 13.7463709006306  C 67.5789056243079 13.7463709006306  68.2218546653153 19.1255865397607  68.2218546653153 19.1255865397607  C 68.2218546653153 19.1255865397607  66.6327614818897 19.992678323275  66.6327614818897 19.992678323275  C 66.6327614818897 19.992678323275  62.5402815824164 15.7278578320565  62.5402815824164 15.7278578320565  C 62.5402815824164 15.7278578320565  60.9528418314987 13.7249647356875  60.9528418314987 13.7249647356875  C 60.9528418314987 13.7249647356875  57.7799436283194 13.7155493010787  57.7799436283194 13.7155493010787  C 57.7799436283194 13.7155493010787  55.9427430258145 9.20721254249452  55.9427430258145 9.20721254249452  C 55.9427430258145 9.20721254249452  51.2770966931489 7.06790113203681  51.2770966931489 7.06790113203681  C 51.2770966931489 7.06790113203681  45.3144154057757 9.17567345195346  45.3144154057757 9.17567345195346  C 45.3144154057757 9.17567345195346  43.0627946367078 8.79411470802904  43.0627946367078 8.79411470802904  C 43.0627946367078 8.79411470802904  39.6282971462006 5.53295339212832  39.6282971462006 5.53295339212832  C 39.6282971462006 5.53295339212832  34.8512935442916 8.14378976779676  34.8512935442916 8.14378976779676  C 34.8512935442916 8.14378976779676  32.2072117083089 8.13594357228942  32.2072117083089 8.13594357228942  C 32.2072117083089 8.13594357228942  29.0243417911656 9.38015751206842  29.0243417911656 9.38015751206842  C 29.0243417911656 9.38015751206842  24.2642805843007 6.11419083731914  24.2642805843007 6.11419083731914  C 24.2642805843007 6.11419083731914  21.1080665375064 0.603720552543905  21.1080665375064 0.603720552543905  C 21.1080665375064 0.603720552543905  13.5536612052808 1.83060311824659  13.5536612052808 1.83060311824659  C 13.5536612052808 1.83060311824659  10.6291392361677 5.07376613345298  10.6291392361677 5.07376613345298  C 10.6291392361677 5.07376613345298  10.3537369602955 8.69792383830668  10.3537369602955 8.69792383830668  C 10.3537369602955 8.69792383830668  2.01369823622599 6.54770883149229  2.01369823622599 6.54770883149229  C 2.01369823622599 6.54770883149229  0.815396822716139 9.04449639646373  0.815396822716139 9.04449639646373  C 0.815396822716139 9.04449639646373  1.47639877313895 10.7961752358749  1.47639877313895 10.7961752358749  C 1.47639877313895 10.7961752358749  5.83443174364561 13.8124838157752  5.83443174364561 13.8124838157752  C 5.83443174364561 13.8124838157752  5.82154713285877 18.0607627832651  5.82154713285877 18.0607627832651  C 5.82154713285877 18.0607627832651  6.47181322966685 22.1898283998149  6.47181322966685 22.1898283998149  C 6.47181322966685 22.1898283998149  8.97621174769711 25.8257222695487  8.97621174769711 25.8257222695487  C 8.97621174769711 25.8257222695487  9.36385089070382 29.0760985538249  9.36385089070382 29.0760985538249  C 9.36385089070382 29.0760985538249  11.1976750007043 30.3386865398832  11.1976750007043 30.3386865398832  C 11.1976750007043 30.3386865398832  17.5714986745243 24.603672088479  17.5714986745243 24.603672088479  C 17.5714986745243 24.603672088479  24.1692690289672 32.5009018668263  24.1692690289672 32.5009018668263  C 24.1692690289672 32.5009018668263  24.1543246784302 37.4283126454541  24.1543246784302 37.4283126454541  C 24.1543246784302 37.4283126454541  27.7255793696579 39.1886275307203  27.7255793696579 39.1886275307203  C 27.7255793696579 39.1886275307203  27.9945406621778 37.6881734098611  27.9945406621778 37.6881734098611  C 27.9945406621778 37.6881734098611  33.4209316443648 39.2055282358432  33.4209316443648 39.2055282358432  C 33.4209316443648 39.2055282358432  37.2490139365671 43.4660769095076  37.2490139365671 43.4660769095076  C 37.2490139365671 43.4660769095076  39.1055559977024 41.5972003196024  39.1055559977024 41.5972003196024  C 39.1055559977024 41.5972003196024  39.5064684315257 40.4711431097683  39.5064684315257 40.4711431097683  C 39.5064684315257 40.4711431097683  48.6091432049902 52.1280649023641  48.6091432049902 52.1280649023641  C 48.6091432049902 52.1280649023641  49.2573962741606 56.6302580898659  49.2573962741606 56.6302580898659  C 49.2573962741606 56.6302580898659  54.7060239845882 62.1492746251478  54.7060239845882 62.1492746251478  C 54.7060239845882 62.1492746251478  55.3518806342545 67.1510063112203  55.3518806342545 67.1510063112203  C 55.3518806342545 67.1510063112203  59.8635946919533 64.5393827006026  59.8635946919533 64.5393827006026  C 59.8635946919533 64.5393827006026  64.0018427666469 53.4230419834769  64.0018427666469 53.4230419834769  C 64.0018427666469 53.4230419834769  65.8545905703475 52.8051976772466  65.8545905703475 52.8051976772466  C 65.8545905703475 52.8051976772466  70.3520195352471 55.1942186187238  70.3520195352471 55.1942186187238  C 70.3520195352471 55.1942186187238  77.6382277146035 54.3440327711294  77.6382277146035 54.3440327711294  C 77.6382277146035 54.3440327711294  80.1591958121392 52.2260473200607  80.1591958121392 52.2260473200607  C 80.1591958121392 52.2260473200607  76.7370558787729 47.2152053292047  76.7370558787729 47.2152053292047  C 76.7370558787729 47.2152053292047  77.6671627834953 45.9660500298551  77.6671627834953 45.9660500298551  C 77.6671627834953 45.9660500298551  84.4283488530898 43.8632626594841  84.4283488530898 43.8632626594841  C 84.4283488530898 43.8632626594841  87.2245887851273 38.745333176945  87.2245887851273 38.745333176945  C 87.2245887851273 38.745333176945  90.8039405362974 37.254702492861  90.8039405362974 37.254702492861  C 90.8039405362974 37.254702492861  91.0848107734066 31.8276634203141  91.0848107734066 31.8276634203141  C 91.0848107734066 31.8276634203141  92.0248814598476 28.4556867980648  92.0248814598476 28.4556867980648  C 92.0248814598476 28.4556867980648  94.0107173600411 27.8373656175075  94.0107173600411 27.8373656175075  C 94.0107173600411 27.8373656175075  95.8611727447901 29.7189861725157  95.8611727447901 29.7189861725157  C 95.8611727447901 29.7189861725157  97.7127730169739 31.2231175436693  97.7127730169739 31.2231175436693  C 97.7127730169739 31.2231175436693  102.499135787222 25.2357990859311  102.499135787222 25.2357990859311  C 102.499135787222 25.2357990859311  103.834830743814 20.7377495614568  103.834830743814 20.7377495614568  Z " fill-rule="nonzero" fill="#031e4b" stroke="none" transform="matrix(1 0 0 1 1127 535 )" />
    <path d="M 103.834830743814 20.7377495614568  C 103.834830743814 20.7377495614568  102.976264761328 19.3220020954956  102.976264761328 19.3220020954956  C 102.976264761328 19.3220020954956  100.671787033637 19.2227520813249  100.671787033637 19.2227520813249  C 100.671787033637 19.2227520813249  97.4918379455623 19.213315723528  97.4918379455623 19.213315723528  C 97.4918379455623 19.213315723528  92.7282354317585 17.6961840782182  92.7282354317585 17.6961840782182  C 92.7282354317585 17.6961840782182  91.1457189612197 14.9418076583389  91.1457189612197 14.9418076583389  C 91.1457189612197 14.9418076583389  89.5528235881141 17.0625471240305  89.5528235881141 17.0625471240305  C 89.5528235881141 17.0625471240305  87.3072604105323 15.5555030707447  87.3072604105323 15.5555030707447  C 87.3072604105323 15.5555030707447  82.256617253975 20.9186950350497  82.256617253975 20.9186950350497  C 82.256617253975 20.9186950350497  81.3248833575631 22.4136951782317  81.3248833575631 22.4136951782317  C 81.3248833575631 22.4136951782317  79.073632759952 22.781891851207  79.073632759952 22.781891851207  C 79.073632759952 22.781891851207  75.9048002732759 19.3977222411391  75.9048002732759 19.3977222411391  C 75.9048002732759 19.3977222411391  72.991796806001 18.2618311329359  72.991796806001 18.2618311329359  C 72.991796806001 18.2618311329359  69.8370951740169 12.2526915336923  69.8370951740169 12.2526915336923  C 69.8370951740169 12.2526915336923  67.5789056243079 13.7463709006306  67.5789056243079 13.7463709006306  C 67.5789056243079 13.7463709006306  68.2218546653153 19.1255865397607  68.2218546653153 19.1255865397607  C 68.2218546653153 19.1255865397607  66.6327614818897 19.992678323275  66.6327614818897 19.992678323275  C 66.6327614818897 19.992678323275  62.5402815824164 15.7278578320565  62.5402815824164 15.7278578320565  C 62.5402815824164 15.7278578320565  60.9528418314987 13.7249647356875  60.9528418314987 13.7249647356875  C 60.9528418314987 13.7249647356875  57.7799436283194 13.7155493010787  57.7799436283194 13.7155493010787  C 57.7799436283194 13.7155493010787  55.9427430258145 9.20721254249452  55.9427430258145 9.20721254249452  C 55.9427430258145 9.20721254249452  51.2770966931489 7.06790113203681  51.2770966931489 7.06790113203681  C 51.2770966931489 7.06790113203681  45.3144154057757 9.17567345195346  45.3144154057757 9.17567345195346  C 45.3144154057757 9.17567345195346  43.0627946367078 8.79411470802904  43.0627946367078 8.79411470802904  C 43.0627946367078 8.79411470802904  39.6282971462006 5.53295339212832  39.6282971462006 5.53295339212832  C 39.6282971462006 5.53295339212832  34.8512935442916 8.14378976779676  34.8512935442916 8.14378976779676  C 34.8512935442916 8.14378976779676  32.2072117083089 8.13594357228942  32.2072117083089 8.13594357228942  C 32.2072117083089 8.13594357228942  29.0243417911656 9.38015751206842  29.0243417911656 9.38015751206842  C 29.0243417911656 9.38015751206842  24.2642805843007 6.11419083731914  24.2642805843007 6.11419083731914  C 24.2642805843007 6.11419083731914  21.1080665375064 0.603720552543905  21.1080665375064 0.603720552543905  C 21.1080665375064 0.603720552543905  13.5536612052808 1.83060311824659  13.5536612052808 1.83060311824659  C 13.5536612052808 1.83060311824659  10.6291392361677 5.07376613345298  10.6291392361677 5.07376613345298  C 10.6291392361677 5.07376613345298  10.3537369602955 8.69792383830668  10.3537369602955 8.69792383830668  C 10.3537369602955 8.69792383830668  2.01369823622599 6.54770883149229  2.01369823622599 6.54770883149229  C 2.01369823622599 6.54770883149229  0.815396822716139 9.04449639646373  0.815396822716139 9.04449639646373  C 0.815396822716139 9.04449639646373  1.47639877313895 10.7961752358749  1.47639877313895 10.7961752358749  C 1.47639877313895 10.7961752358749  5.83443174364561 13.8124838157752  5.83443174364561 13.8124838157752  C 5.83443174364561 13.8124838157752  5.82154713285877 18.0607627832651  5.82154713285877 18.0607627832651  C 5.82154713285877 18.0607627832651  6.47181322966685 22.1898283998149  6.47181322966685 22.1898283998149  C 6.47181322966685 22.1898283998149  8.97621174769711 25.8257222695487  8.97621174769711 25.8257222695487  C 8.97621174769711 25.8257222695487  9.36385089070382 29.0760985538249  9.36385089070382 29.0760985538249  C 9.36385089070382 29.0760985538249  11.1976750007043 30.3386865398832  11.1976750007043 30.3386865398832  C 11.1976750007043 30.3386865398832  17.5714986745243 24.603672088479  17.5714986745243 24.603672088479  C 17.5714986745243 24.603672088479  24.1692690289672 32.5009018668263  24.1692690289672 32.5009018668263  C 24.1692690289672 32.5009018668263  24.1543246784302 37.4283126454541  24.1543246784302 37.4283126454541  C 24.1543246784302 37.4283126454541  27.7255793696579 39.1886275307203  27.7255793696579 39.1886275307203  C 27.7255793696579 39.1886275307203  27.9945406621778 37.6881734098611  27.9945406621778 37.6881734098611  C 27.9945406621778 37.6881734098611  33.4209316443648 39.2055282358432  33.4209316443648 39.2055282358432  C 33.4209316443648 39.2055282358432  37.2490139365671 43.4660769095076  37.2490139365671 43.4660769095076  C 37.2490139365671 43.4660769095076  39.1055559977024 41.5972003196024  39.1055559977024 41.5972003196024  C 39.1055559977024 41.5972003196024  39.5064684315257 40.4711431097683  39.5064684315257 40.4711431097683  C 39.5064684315257 40.4711431097683  48.6091432049902 52.1280649023641  48.6091432049902 52.1280649023641  C 48.6091432049902 52.1280649023641  49.2573962741606 56.6302580898659  49.2573962741606 56.6302580898659  C 49.2573962741606 56.6302580898659  54.7060239845882 62.1492746251478  54.7060239845882 62.1492746251478  C 54.7060239845882 62.1492746251478  55.3518806342545 67.1510063112203  55.3518806342545 67.1510063112203  C 55.3518806342545 67.1510063112203  59.8635946919533 64.5393827006026  59.8635946919533 64.5393827006026  C 59.8635946919533 64.5393827006026  64.0018427666469 53.4230419834769  64.0018427666469 53.4230419834769  C 64.0018427666469 53.4230419834769  65.8545905703475 52.8051976772466  65.8545905703475 52.8051976772466  C 65.8545905703475 52.8051976772466  70.3520195352471 55.1942186187238  70.3520195352471 55.1942186187238  C 70.3520195352471 55.1942186187238  77.6382277146035 54.3440327711294  77.6382277146035 54.3440327711294  C 77.6382277146035 54.3440327711294  80.1591958121392 52.2260473200607  80.1591958121392 52.2260473200607  C 80.1591958121392 52.2260473200607  76.7370558787729 47.2152053292047  76.7370558787729 47.2152053292047  C 76.7370558787729 47.2152053292047  77.6671627834953 45.9660500298551  77.6671627834953 45.9660500298551  C 77.6671627834953 45.9660500298551  84.4283488530898 43.8632626594841  84.4283488530898 43.8632626594841  C 84.4283488530898 43.8632626594841  87.2245887851273 38.745333176945  87.2245887851273 38.745333176945  C 87.2245887851273 38.745333176945  90.8039405362974 37.254702492861  90.8039405362974 37.254702492861  C 90.8039405362974 37.254702492861  91.0848107734066 31.8276634203141  91.0848107734066 31.8276634203141  C 91.0848107734066 31.8276634203141  92.0248814598476 28.4556867980648  92.0248814598476 28.4556867980648  C 92.0248814598476 28.4556867980648  94.0107173600411 27.8373656175075  94.0107173600411 27.8373656175075  C 94.0107173600411 27.8373656175075  95.8611727447901 29.7189861725157  95.8611727447901 29.7189861725157  C 95.8611727447901 29.7189861725157  97.7127730169739 31.2231175436693  97.7127730169739 31.2231175436693  C 97.7127730169739 31.2231175436693  102.499135787222 25.2357990859311  102.499135787222 25.2357990859311  C 102.499135787222 25.2357990859311  103.834830743814 20.7377495614568  103.834830743814 20.7377495614568  Z " stroke-width="0.97600957434184" stroke="#47b3fe" fill="none" transform="matrix(1 0 0 1 1127 535 )" mask="url(#clip1802)" />
  </g>
</svg>