<?xml version="1.0" encoding="utf-8"?>
<svg version="1.1" xmlns:xlink="http://www.w3.org/1999/xlink" width="7px" height="9px" xmlns="http://www.w3.org/2000/svg">
  <defs>
    <mask fill="white" id="clip1804">
      <path d="M 0.341801190979822 3.01533265928845  C 0.341801190979822 3.01533265928845  6.39918360407228 0.728191015173593  6.39918360407228 0.728191015173593  C 6.39918360407228 0.728191015173593  5.49240491431829 5.01935440011187  5.49240491431829 5.01935440011187  C 5.49240491431829 5.01935440011187  6.14951240338451 6.82860790676762  6.14951240338451 6.82860790676762  C 6.14951240338451 6.82860790676762  1.63971745757044 8.62191782876732  1.63971745757044 8.62191782876732  C 1.63971745757044 8.62191782876732  1.25325328054828 5.5219809689255  1.25325328054828 5.5219809689255  C 1.25325328054828 5.5219809689255  0.341801190979822 3.01533265928845  0.341801190979822 3.01533265928845  Z " fill-rule="evenodd" />
    </mask>
  </defs>
  <g transform="matrix(1 0 0 1 -1090 -627 )">
    <path d="M 0.341801190979822 3.01533265928845  C 0.341801190979822 3.01533265928845  6.39918360407228 0.728191015173593  6.39918360407228 0.728191015173593  C 6.39918360407228 0.728191015173593  5.49240491431829 5.01935440011187  5.49240491431829 5.01935440011187  C 5.49240491431829 5.01935440011187  6.14951240338451 6.82860790676762  6.14951240338451 6.82860790676762  C 6.14951240338451 6.82860790676762  1.63971745757044 8.62191782876732  1.63971745757044 8.62191782876732  C 1.63971745757044 8.62191782876732  1.25325328054828 5.5219809689255  1.25325328054828 5.5219809689255  C 1.25325328054828 5.5219809689255  0.341801190979822 3.01533265928845  0.341801190979822 3.01533265928845  Z " fill-rule="nonzero" fill="#031e4b" stroke="none" transform="matrix(1 0 0 1 1090 627 )" />
    <path d="M 0.341801190979822 3.01533265928845  C 0.341801190979822 3.01533265928845  6.39918360407228 0.728191015173593  6.39918360407228 0.728191015173593  C 6.39918360407228 0.728191015173593  5.49240491431829 5.01935440011187  5.49240491431829 5.01935440011187  C 5.49240491431829 5.01935440011187  6.14951240338451 6.82860790676762  6.14951240338451 6.82860790676762  C 6.14951240338451 6.82860790676762  1.63971745757044 8.62191782876732  1.63971745757044 8.62191782876732  C 1.63971745757044 8.62191782876732  1.25325328054828 5.5219809689255  1.25325328054828 5.5219809689255  C 1.25325328054828 5.5219809689255  0.341801190979822 3.01533265928845  0.341801190979822 3.01533265928845  Z " stroke-width="0.97600957434184" stroke="#47b3fe" fill="none" transform="matrix(1 0 0 1 1090 627 )" mask="url(#clip1804)" />
  </g>
</svg>