<?xml version="1.0" encoding="utf-8"?>
<svg version="1.1" xmlns:xlink="http://www.w3.org/1999/xlink" width="141px" height="123px" xmlns="http://www.w3.org/2000/svg">
  <defs>
    <mask fill="white" id="clip1803">
      <path d="M 24.5864276434843 2.18086510908148  C 24.5864276434843 2.18086510908148  15.3802514257291 0.384568842653778  15.3802514257291 0.384568842653778  C 15.3802514257291 0.384568842653778  3.12964396831785 4.50867355484064  3.12964396831785 4.50867355484064  C 3.12964396831785 4.50867355484064  0.889001946879944 6.39088577745923  0.889001946879944 6.39088577745923  C 0.889001946879944 6.39088577745923  3.37868106703627 9.67549697501556  3.37868106703627 9.67549697501556  C 3.37868106703627 9.67549697501556  0.196881818489828 17.6021703921184  0.196881818489828 17.6021703921184  C 0.196881818489828 17.6021703921184  1.11556300079087 18.4879121523148  1.11556300079087 18.4879121523148  C 1.11556300079087 18.4879121523148  6.50057689192158 21.7803584914736  6.50057689192158 21.7803584914736  C 6.50057689192158 21.7803584914736  9.40421406722794 17.254725175848  9.40421406722794 17.254725175848  C 9.40421406722794 17.254725175848  14.3985157595571 20.2912062773279  14.3985157595571 20.2912062773279  C 14.3985157595571 20.2912062773279  14.1293786100134 22.4315054988914  14.1293786100134 22.4315054988914  C 14.1293786100134 22.4315054988914  15.9523159849791 27.8552192973717  15.9523159849791 27.8552192973717  C 15.9523159849791 27.8552192973717  19.0949468019492 31.2691902817942  19.0949468019492 31.2691902817942  C 19.0949468019492 31.2691902817942  25.41107971782 32.1667831549169  25.41107971782 32.1667831549169  C 25.41107971782 32.1667831549169  27.2558739603928 30.2816224309282  27.2558739603928 30.2816224309282  C 27.2558739603928 30.2816224309282  31.071408518005 29.7887983498775  31.071408518005 29.7887983498775  C 31.071408518005 29.7887983498775  38.3262035607797 24.0119777907797  38.3262035607797 24.0119777907797  C 38.3262035607797 24.0119777907797  47.7856898129851 30.7176852248773  47.7856898129851 30.7176852248773  C 47.7856898129851 30.7176852248773  44.5880608220016 43.0591956050209  44.5880608220016 43.0591956050209  C 44.5880608220016 43.0591956050209  45.218523337292 51.8803192285598  45.218523337292 51.8803192285598  C 45.218523337292 51.8803192285598  45.2023205121288 57.2984979976505  45.2023205121288 57.2984979976505  C 45.2023205121288 57.2984979976505  42.6999495730297 58.5508563830554  42.6999495730297 58.5508563830554  C 42.6999495730297 58.5508563830554  42.3937274750222 73.0922571654615  42.3937274750222 73.0922571654615  C 42.3937274750222 73.0922571654615  41.7366455947874 72.5868509961747  41.7366455947874 72.5868509961747  C 41.7366455947874 72.5868509961747  39.2479666165875 69.5535178328381  39.2479666165875 69.5535178328381  C 39.2479666165875 69.5535178328381  37.9281645777332 69.549545790319  37.9281645777332 69.549545790319  C 37.9281645777332 69.549545790319  37.2679316372892 70.6835678831038  37.2679316372892 70.6835678831038  C 37.2679316372892 70.6835678831038  29.3497263204288 81.8783765602801  29.3497263204288 81.8783765602801  C 29.3497263204288 81.8783765602801  25.5205024292604 86.6560136139788  25.5205024292604 86.6560136139788  C 25.5205024292604 86.6560136139788  25.9109632789014 88.1674746322926  25.9109632789014 88.1674746322926  C 25.9109632789014 88.1674746322926  33.7932974798296 93.3607853645367  33.7932974798296 93.3607853645367  C 33.7932974798296 93.3607853645367  38.1361844710834 92.2396036613595  38.1361844710834 92.2396036613595  C 38.1361844710834 92.2396036613595  38.7940072620845 93.3758353730196  38.7940072620845 93.3758353730196  C 38.7940072620845 93.3758353730196  37.8662906467146 94.6329327978733  37.8662906467146 94.6329327978733  C 37.8662906467146 94.6329327978733  33.7842541647312 96.3848442786295  33.7842541647312 96.3848442786295  C 33.7842541647312 96.3848442786295  33.3764791237777 99.7846157162276  33.3764791237777 99.7846157162276  C 33.3764791237777 99.7846157162276  35.3469680896565 101.553864139038  35.3469680896565 101.553864139038  C 35.3469680896565 101.553864139038  42.8535545625446 100.315687728936  42.8535545625446 100.315687728936  C 42.8535545625446 100.315687728936  45.9897825442752 105.870748653406  45.9897825442752 105.870748653406  C 45.9897825442752 105.870748653406  50.7188390580363 109.160342255989  50.7188390580363 109.160342255989  C 50.7188390580363 109.160342255989  53.8815462797434 107.910849785802  53.8815462797434 107.910849785802  C 53.8815462797434 107.910849785802  56.5150198901183 107.918775420742  56.5150198901183 107.918775420742  C 56.5150198901183 107.918775420742  61.2626604777115 105.286768788342  61.2626604777115 105.286768788342  C 61.2626604777115 105.286768788342  64.6684092010844 108.573258381587  64.6684092010844 108.573258381587  C 64.6684092010844 108.573258381587  66.9066515824518 108.957785659039  66.9066515824518 108.957785659039  C 66.9066515824518 108.957785659039  73.2598422975743 106.834918265748  73.2598422975743 106.834918265748  C 73.2598422975743 106.834918265748  77.4694467985248 108.989575177833  77.4694467985248 108.989575177833  C 77.4694467985248 108.989575177833  79.2950167713198 113.532955730549  79.2950167713198 113.532955730549  C 79.2950167713198 113.532955730549  82.4530832292553 113.542460166729  82.4530832292553 113.542460166729  C 82.4530832292553 113.542460166729  84.0287193035392 115.561795274577  84.0287193035392 115.561795274577  C 84.0287193035392 115.561795274577  88.0935423090305 119.858882833828  88.0935423090305 119.858882833828  C 88.0935423090305 119.858882833828  89.672575537998 118.985051051156  89.672575537998 118.985051051156  C 89.672575537998 118.985051051156  89.0336967668393 113.564022181218  89.0336967668393 113.564022181218  C 89.0336967668393 113.564022181218  91.2775984453367 112.056096553104  91.2775984453367 112.056096553104  C 91.2775984453367 112.056096553104  94.412318332103 118.115460155288  94.412318332103 118.115460155288  C 94.412318332103 118.115460155288  97.3068806641934 119.260180669164  97.3068806641934 119.260180669164  C 97.3068806641934 119.260180669164  100.449527245222 122.668880197025  100.449527245222 122.668880197025  C 100.449527245222 122.668880197025  102.688277579597 122.297826762544  102.688277579597 122.297826762544  C 102.688277579597 122.297826762544  103.614113017277 120.79120581993  103.614113017277 120.79120581993  C 103.614113017277 120.79120581993  108.633655595181 115.387206390413  108.633655595181 115.387206390413  C 108.633655595181 115.387206390413  110.86500295236 116.90596486176  110.86500295236 116.90596486176  C 110.86500295236 116.90596486176  112.447809046081 114.770497808712  112.447809046081 114.770497808712  C 112.447809046081 114.770497808712  114.015930918976 117.545392542666  114.015930918976 117.545392542666  C 114.015930918976 117.545392542666  118.748503693643 119.07343580617  118.748503693643 119.07343580617  C 118.748503693643 119.07343580617  121.909197494722 119.082948149535  121.909197494722 119.082948149535  C 121.909197494722 119.082948149535  124.197334873938 119.182964373452  124.197334873938 119.182964373452  C 124.197334873938 119.182964373452  122.836054093103 116.94199263163  122.836054093103 116.94199263163  C 122.836054093103 116.94199263163  122.195820488664 109.63112549858  122.195820488664 109.63112549858  C 122.195820488664 109.63112549858  116.564394214615 101.172742222525  116.564394214615 101.172742222525  C 116.564394214615 101.172742222525  119.734139212821 98.1555599235166  119.734139212821 98.1555599235166  C 119.734139212821 98.1555599235166  122.644046980429 92.9973649991567  122.644046980429 92.9973649991567  C 122.644046980429 92.9973649991567  133.302302330699 93.0294418123333  133.302302330699 93.0294418123333  C 133.302302330699 93.0294418123333  135.280707481468 91.2729564644338  135.280707481468 91.2729564644338  C 135.280707481468 91.2729564644338  134.634669200244 87.3674634487313  134.634669200244 87.3674634487313  C 134.634669200244 87.3674634487313  136.882219382586 83.4680431509877  136.882219382586 83.4680431509877  C 136.882219382586 83.4680431509877  136.230915905704 81.323216626814  136.230915905704 81.323216626814  C 136.230915905704 81.323216626814  137.162283652262 77.6737459562364  137.162283652262 77.6737459562364  C 137.162283652262 77.6737459562364  136.956980431722 58.4681604082475  136.956980431722 58.4681604082475  C 136.956980431722 58.4681604082475  140.134885081949 52.4295522876986  140.134885081949 52.4295522876986  C 140.134885081949 52.4295522876986  136.592646758076 48.5127071902911  136.592646758076 48.5127071902911  C 136.592646758076 48.5127071902911  137.25576364551 46.121440071869  137.25576364551 46.121440071869  C 137.25576364551 46.121440071869  135.685768476955 43.9729700926351  135.685768476955 43.9729700926351  C 135.685768476955 43.9729700926351  131.59835557512 45.4727117844368  131.59835557512 45.4727117844368  C 131.59835557512 45.4727117844368  126.869455826166 50.6236751489704  126.869455826166 50.6236751489704  C 126.869455826166 50.6236751489704  122.127704866118 52.7505137062043  122.127704866118 52.7505137062043  C 122.127704866118 52.7505137062043  117.368264004689 59.0356370999694  117.368264004689 59.0356370999694  C 117.368264004689 59.0356370999694  105.637352903001 63.3343869251897  105.637352903001 63.3343869251897  C 105.637352903001 63.3343869251897  100.2555075877 58.9823778171768  100.2555075877 58.9823778171768  C 100.2555075877 58.9823778171768  100.919500256182 56.5911133344829  100.919500256182 56.5911133344829  C 100.919500256182 56.5911133344829  98.1680922183648 52.6766482997128  98.1680922183648 52.6766482997128  C 98.1680922183648 52.6766482997128  96.8664748971846 48.6417875899594  96.8664748971846 48.6417875899594  C 96.8664748971846 48.6417875899594  92.3963666962582 48.3761808582296  92.3963666962582 48.3761808582296  C 92.3963666962582 48.3761808582296  84.5111354116243 44.4445080320907  84.5111354116243 44.4445080320907  C 84.5111354116243 44.4445080320907  81.3435544683869 45.5665911543399  81.3435544683869 45.5665911543399  C 81.3435544683869 45.5665911543399  77.6705287544153 43.7983689084064  77.6705287544153 43.7983689084064  C 77.6705287544153 43.7983689084064  72.2652081281321 44.6606851942198  72.2652081281321 44.6606851942198  C 72.2652081281321 44.6606851942198  67.1131283495961 43.13401514515  67.1131283495961 43.13401514515  C 67.1131283495961 43.13401514515  64.2268500304356 39.2191442082246  64.2268500304356 39.2191442082246  C 64.2268500304356 39.2191442082246  61.4771804179975 36.187661326141  61.4771804179975 36.187661326141  C 61.4771804179975 36.187661326141  60.4300317895934 33.1604237237416  60.4300317895934 33.1604237237416  C 60.4300317895934 33.1604237237416  56.7574264505247 29.4944613013116  56.7574264505247 29.4944613013116  C 56.7574264505247 29.4944613013116  54.5287300825771 26.210635550783  54.5287300825771 26.210635550783  C 54.5287300825771 26.210635550783  49.414869388962 19.5180066004143  49.414869388962 19.5180066004143  C 49.414869388962 19.5180066004143  47.8501394160648 15.6088701296518  47.8501394160648 15.6088701296518  C 47.8501394160648 15.6088701296518  42.2106936149621 8.66074861554262  42.2106936149621 8.66074861554262  C 42.2106936149621 8.66074861554262  40.6452201039556 5.00024917926243  40.6452201039556 5.00024917926243  C 40.6452201039556 5.00024917926243  33.4048097648888 1.57394562221441  33.4048097648888 1.57394562221441  C 33.4048097648888 1.57394562221441  28.6623126393888 3.0717157892621  28.6623126393888 3.0717157892621  C 28.6623126393888 3.0717157892621  24.5864276434843 2.18086510908148  24.5864276434843 2.18086510908148  Z " fill-rule="evenodd" />
    </mask>
  </defs>
  <g transform="matrix(1 0 0 1 -1105 -436 )">
    <path d="M 24.5864276434843 2.18086510908148  C 24.5864276434843 2.18086510908148  15.3802514257291 0.384568842653778  15.3802514257291 0.384568842653778  C 15.3802514257291 0.384568842653778  3.12964396831785 4.50867355484064  3.12964396831785 4.50867355484064  C 3.12964396831785 4.50867355484064  0.889001946879944 6.39088577745923  0.889001946879944 6.39088577745923  C 0.889001946879944 6.39088577745923  3.37868106703627 9.67549697501556  3.37868106703627 9.67549697501556  C 3.37868106703627 9.67549697501556  0.196881818489828 17.6021703921184  0.196881818489828 17.6021703921184  C 0.196881818489828 17.6021703921184  1.11556300079087 18.4879121523148  1.11556300079087 18.4879121523148  C 1.11556300079087 18.4879121523148  6.50057689192158 21.7803584914736  6.50057689192158 21.7803584914736  C 6.50057689192158 21.7803584914736  9.40421406722794 17.254725175848  9.40421406722794 17.254725175848  C 9.40421406722794 17.254725175848  14.3985157595571 20.2912062773279  14.3985157595571 20.2912062773279  C 14.3985157595571 20.2912062773279  14.1293786100134 22.4315054988914  14.1293786100134 22.4315054988914  C 14.1293786100134 22.4315054988914  15.9523159849791 27.8552192973717  15.9523159849791 27.8552192973717  C 15.9523159849791 27.8552192973717  19.0949468019492 31.2691902817942  19.0949468019492 31.2691902817942  C 19.0949468019492 31.2691902817942  25.41107971782 32.1667831549169  25.41107971782 32.1667831549169  C 25.41107971782 32.1667831549169  27.2558739603928 30.2816224309282  27.2558739603928 30.2816224309282  C 27.2558739603928 30.2816224309282  31.071408518005 29.7887983498775  31.071408518005 29.7887983498775  C 31.071408518005 29.7887983498775  38.3262035607797 24.0119777907797  38.3262035607797 24.0119777907797  C 38.3262035607797 24.0119777907797  47.7856898129851 30.7176852248773  47.7856898129851 30.7176852248773  C 47.7856898129851 30.7176852248773  44.5880608220016 43.0591956050209  44.5880608220016 43.0591956050209  C 44.5880608220016 43.0591956050209  45.218523337292 51.8803192285598  45.218523337292 51.8803192285598  C 45.218523337292 51.8803192285598  45.2023205121288 57.2984979976505  45.2023205121288 57.2984979976505  C 45.2023205121288 57.2984979976505  42.6999495730297 58.5508563830554  42.6999495730297 58.5508563830554  C 42.6999495730297 58.5508563830554  42.3937274750222 73.0922571654615  42.3937274750222 73.0922571654615  C 42.3937274750222 73.0922571654615  41.7366455947874 72.5868509961747  41.7366455947874 72.5868509961747  C 41.7366455947874 72.5868509961747  39.2479666165875 69.5535178328381  39.2479666165875 69.5535178328381  C 39.2479666165875 69.5535178328381  37.9281645777332 69.549545790319  37.9281645777332 69.549545790319  C 37.9281645777332 69.549545790319  37.2679316372892 70.6835678831038  37.2679316372892 70.6835678831038  C 37.2679316372892 70.6835678831038  29.3497263204288 81.8783765602801  29.3497263204288 81.8783765602801  C 29.3497263204288 81.8783765602801  25.5205024292604 86.6560136139788  25.5205024292604 86.6560136139788  C 25.5205024292604 86.6560136139788  25.9109632789014 88.1674746322926  25.9109632789014 88.1674746322926  C 25.9109632789014 88.1674746322926  33.7932974798296 93.3607853645367  33.7932974798296 93.3607853645367  C 33.7932974798296 93.3607853645367  38.1361844710834 92.2396036613595  38.1361844710834 92.2396036613595  C 38.1361844710834 92.2396036613595  38.7940072620845 93.3758353730196  38.7940072620845 93.3758353730196  C 38.7940072620845 93.3758353730196  37.8662906467146 94.6329327978733  37.8662906467146 94.6329327978733  C 37.8662906467146 94.6329327978733  33.7842541647312 96.3848442786295  33.7842541647312 96.3848442786295  C 33.7842541647312 96.3848442786295  33.3764791237777 99.7846157162276  33.3764791237777 99.7846157162276  C 33.3764791237777 99.7846157162276  35.3469680896565 101.553864139038  35.3469680896565 101.553864139038  C 35.3469680896565 101.553864139038  42.8535545625446 100.315687728936  42.8535545625446 100.315687728936  C 42.8535545625446 100.315687728936  45.9897825442752 105.870748653406  45.9897825442752 105.870748653406  C 45.9897825442752 105.870748653406  50.7188390580363 109.160342255989  50.7188390580363 109.160342255989  C 50.7188390580363 109.160342255989  53.8815462797434 107.910849785802  53.8815462797434 107.910849785802  C 53.8815462797434 107.910849785802  56.5150198901183 107.918775420742  56.5150198901183 107.918775420742  C 56.5150198901183 107.918775420742  61.2626604777115 105.286768788342  61.2626604777115 105.286768788342  C 61.2626604777115 105.286768788342  64.6684092010844 108.573258381587  64.6684092010844 108.573258381587  C 64.6684092010844 108.573258381587  66.9066515824518 108.957785659039  66.9066515824518 108.957785659039  C 66.9066515824518 108.957785659039  73.2598422975743 106.834918265748  73.2598422975743 106.834918265748  C 73.2598422975743 106.834918265748  77.4694467985248 108.989575177833  77.4694467985248 108.989575177833  C 77.4694467985248 108.989575177833  79.2950167713198 113.532955730549  79.2950167713198 113.532955730549  C 79.2950167713198 113.532955730549  82.4530832292553 113.542460166729  82.4530832292553 113.542460166729  C 82.4530832292553 113.542460166729  84.0287193035392 115.561795274577  84.0287193035392 115.561795274577  C 84.0287193035392 115.561795274577  88.0935423090305 119.858882833828  88.0935423090305 119.858882833828  C 88.0935423090305 119.858882833828  89.672575537998 118.985051051156  89.672575537998 118.985051051156  C 89.672575537998 118.985051051156  89.0336967668393 113.564022181218  89.0336967668393 113.564022181218  C 89.0336967668393 113.564022181218  91.2775984453367 112.056096553104  91.2775984453367 112.056096553104  C 91.2775984453367 112.056096553104  94.412318332103 118.115460155288  94.412318332103 118.115460155288  C 94.412318332103 118.115460155288  97.3068806641934 119.260180669164  97.3068806641934 119.260180669164  C 97.3068806641934 119.260180669164  100.449527245222 122.668880197025  100.449527245222 122.668880197025  C 100.449527245222 122.668880197025  102.688277579597 122.297826762544  102.688277579597 122.297826762544  C 102.688277579597 122.297826762544  103.614113017277 120.79120581993  103.614113017277 120.79120581993  C 103.614113017277 120.79120581993  108.633655595181 115.387206390413  108.633655595181 115.387206390413  C 108.633655595181 115.387206390413  110.86500295236 116.90596486176  110.86500295236 116.90596486176  C 110.86500295236 116.90596486176  112.447809046081 114.770497808712  112.447809046081 114.770497808712  C 112.447809046081 114.770497808712  114.015930918976 117.545392542666  114.015930918976 117.545392542666  C 114.015930918976 117.545392542666  118.748503693643 119.07343580617  118.748503693643 119.07343580617  C 118.748503693643 119.07343580617  121.909197494722 119.082948149535  121.909197494722 119.082948149535  C 121.909197494722 119.082948149535  124.197334873938 119.182964373452  124.197334873938 119.182964373452  C 124.197334873938 119.182964373452  122.836054093103 116.94199263163  122.836054093103 116.94199263163  C 122.836054093103 116.94199263163  122.195820488664 109.63112549858  122.195820488664 109.63112549858  C 122.195820488664 109.63112549858  116.564394214615 101.172742222525  116.564394214615 101.172742222525  C 116.564394214615 101.172742222525  119.734139212821 98.1555599235166  119.734139212821 98.1555599235166  C 119.734139212821 98.1555599235166  122.644046980429 92.9973649991567  122.644046980429 92.9973649991567  C 122.644046980429 92.9973649991567  133.302302330699 93.0294418123333  133.302302330699 93.0294418123333  C 133.302302330699 93.0294418123333  135.280707481468 91.2729564644338  135.280707481468 91.2729564644338  C 135.280707481468 91.2729564644338  134.634669200244 87.3674634487313  134.634669200244 87.3674634487313  C 134.634669200244 87.3674634487313  136.882219382586 83.4680431509877  136.882219382586 83.4680431509877  C 136.882219382586 83.4680431509877  136.230915905704 81.323216626814  136.230915905704 81.323216626814  C 136.230915905704 81.323216626814  137.162283652262 77.6737459562364  137.162283652262 77.6737459562364  C 137.162283652262 77.6737459562364  136.956980431722 58.4681604082475  136.956980431722 58.4681604082475  C 136.956980431722 58.4681604082475  140.134885081949 52.4295522876986  140.134885081949 52.4295522876986  C 140.134885081949 52.4295522876986  136.592646758076 48.5127071902911  136.592646758076 48.5127071902911  C 136.592646758076 48.5127071902911  137.25576364551 46.121440071869  137.25576364551 46.121440071869  C 137.25576364551 46.121440071869  135.685768476955 43.9729700926351  135.685768476955 43.9729700926351  C 135.685768476955 43.9729700926351  131.59835557512 45.4727117844368  131.59835557512 45.4727117844368  C 131.59835557512 45.4727117844368  126.869455826166 50.6236751489704  126.869455826166 50.6236751489704  C 126.869455826166 50.6236751489704  122.127704866118 52.7505137062043  122.127704866118 52.7505137062043  C 122.127704866118 52.7505137062043  117.368264004689 59.0356370999694  117.368264004689 59.0356370999694  C 117.368264004689 59.0356370999694  105.637352903001 63.3343869251897  105.637352903001 63.3343869251897  C 105.637352903001 63.3343869251897  100.2555075877 58.9823778171768  100.2555075877 58.9823778171768  C 100.2555075877 58.9823778171768  100.919500256182 56.5911133344829  100.919500256182 56.5911133344829  C 100.919500256182 56.5911133344829  98.1680922183648 52.6766482997128  98.1680922183648 52.6766482997128  C 98.1680922183648 52.6766482997128  96.8664748971846 48.6417875899594  96.8664748971846 48.6417875899594  C 96.8664748971846 48.6417875899594  92.3963666962582 48.3761808582296  92.3963666962582 48.3761808582296  C 92.3963666962582 48.3761808582296  84.5111354116243 44.4445080320907  84.5111354116243 44.4445080320907  C 84.5111354116243 44.4445080320907  81.3435544683869 45.5665911543399  81.3435544683869 45.5665911543399  C 81.3435544683869 45.5665911543399  77.6705287544153 43.7983689084064  77.6705287544153 43.7983689084064  C 77.6705287544153 43.7983689084064  72.2652081281321 44.6606851942198  72.2652081281321 44.6606851942198  C 72.2652081281321 44.6606851942198  67.1131283495961 43.13401514515  67.1131283495961 43.13401514515  C 67.1131283495961 43.13401514515  64.2268500304356 39.2191442082246  64.2268500304356 39.2191442082246  C 64.2268500304356 39.2191442082246  61.4771804179975 36.187661326141  61.4771804179975 36.187661326141  C 61.4771804179975 36.187661326141  60.4300317895934 33.1604237237416  60.4300317895934 33.1604237237416  C 60.4300317895934 33.1604237237416  56.7574264505247 29.4944613013116  56.7574264505247 29.4944613013116  C 56.7574264505247 29.4944613013116  54.5287300825771 26.210635550783  54.5287300825771 26.210635550783  C 54.5287300825771 26.210635550783  49.414869388962 19.5180066004143  49.414869388962 19.5180066004143  C 49.414869388962 19.5180066004143  47.8501394160648 15.6088701296518  47.8501394160648 15.6088701296518  C 47.8501394160648 15.6088701296518  42.2106936149621 8.66074861554262  42.2106936149621 8.66074861554262  C 42.2106936149621 8.66074861554262  40.6452201039556 5.00024917926243  40.6452201039556 5.00024917926243  C 40.6452201039556 5.00024917926243  33.4048097648888 1.57394562221441  33.4048097648888 1.57394562221441  C 33.4048097648888 1.57394562221441  28.6623126393888 3.0717157892621  28.6623126393888 3.0717157892621  C 28.6623126393888 3.0717157892621  24.5864276434843 2.18086510908148  24.5864276434843 2.18086510908148  Z " fill-rule="nonzero" fill="#031e4b" stroke="none" transform="matrix(1 0 0 1 1105 436 )" />
    <path d="M 24.5864276434843 2.18086510908148  C 24.5864276434843 2.18086510908148  15.3802514257291 0.384568842653778  15.3802514257291 0.384568842653778  C 15.3802514257291 0.384568842653778  3.12964396831785 4.50867355484064  3.12964396831785 4.50867355484064  C 3.12964396831785 4.50867355484064  0.889001946879944 6.39088577745923  0.889001946879944 6.39088577745923  C 0.889001946879944 6.39088577745923  3.37868106703627 9.67549697501556  3.37868106703627 9.67549697501556  C 3.37868106703627 9.67549697501556  0.196881818489828 17.6021703921184  0.196881818489828 17.6021703921184  C 0.196881818489828 17.6021703921184  1.11556300079087 18.4879121523148  1.11556300079087 18.4879121523148  C 1.11556300079087 18.4879121523148  6.50057689192158 21.7803584914736  6.50057689192158 21.7803584914736  C 6.50057689192158 21.7803584914736  9.40421406722794 17.254725175848  9.40421406722794 17.254725175848  C 9.40421406722794 17.254725175848  14.3985157595571 20.2912062773279  14.3985157595571 20.2912062773279  C 14.3985157595571 20.2912062773279  14.1293786100134 22.4315054988914  14.1293786100134 22.4315054988914  C 14.1293786100134 22.4315054988914  15.9523159849791 27.8552192973717  15.9523159849791 27.8552192973717  C 15.9523159849791 27.8552192973717  19.0949468019492 31.2691902817942  19.0949468019492 31.2691902817942  C 19.0949468019492 31.2691902817942  25.41107971782 32.1667831549169  25.41107971782 32.1667831549169  C 25.41107971782 32.1667831549169  27.2558739603928 30.2816224309282  27.2558739603928 30.2816224309282  C 27.2558739603928 30.2816224309282  31.071408518005 29.7887983498775  31.071408518005 29.7887983498775  C 31.071408518005 29.7887983498775  38.3262035607797 24.0119777907797  38.3262035607797 24.0119777907797  C 38.3262035607797 24.0119777907797  47.7856898129851 30.7176852248773  47.7856898129851 30.7176852248773  C 47.7856898129851 30.7176852248773  44.5880608220016 43.0591956050209  44.5880608220016 43.0591956050209  C 44.5880608220016 43.0591956050209  45.218523337292 51.8803192285598  45.218523337292 51.8803192285598  C 45.218523337292 51.8803192285598  45.2023205121288 57.2984979976505  45.2023205121288 57.2984979976505  C 45.2023205121288 57.2984979976505  42.6999495730297 58.5508563830554  42.6999495730297 58.5508563830554  C 42.6999495730297 58.5508563830554  42.3937274750222 73.0922571654615  42.3937274750222 73.0922571654615  C 42.3937274750222 73.0922571654615  41.7366455947874 72.5868509961747  41.7366455947874 72.5868509961747  C 41.7366455947874 72.5868509961747  39.2479666165875 69.5535178328381  39.2479666165875 69.5535178328381  C 39.2479666165875 69.5535178328381  37.9281645777332 69.549545790319  37.9281645777332 69.549545790319  C 37.9281645777332 69.549545790319  37.2679316372892 70.6835678831038  37.2679316372892 70.6835678831038  C 37.2679316372892 70.6835678831038  29.3497263204288 81.8783765602801  29.3497263204288 81.8783765602801  C 29.3497263204288 81.8783765602801  25.5205024292604 86.6560136139788  25.5205024292604 86.6560136139788  C 25.5205024292604 86.6560136139788  25.9109632789014 88.1674746322926  25.9109632789014 88.1674746322926  C 25.9109632789014 88.1674746322926  33.7932974798296 93.3607853645367  33.7932974798296 93.3607853645367  C 33.7932974798296 93.3607853645367  38.1361844710834 92.2396036613595  38.1361844710834 92.2396036613595  C 38.1361844710834 92.2396036613595  38.7940072620845 93.3758353730196  38.7940072620845 93.3758353730196  C 38.7940072620845 93.3758353730196  37.8662906467146 94.6329327978733  37.8662906467146 94.6329327978733  C 37.8662906467146 94.6329327978733  33.7842541647312 96.3848442786295  33.7842541647312 96.3848442786295  C 33.7842541647312 96.3848442786295  33.3764791237777 99.7846157162276  33.3764791237777 99.7846157162276  C 33.3764791237777 99.7846157162276  35.3469680896565 101.553864139038  35.3469680896565 101.553864139038  C 35.3469680896565 101.553864139038  42.8535545625446 100.315687728936  42.8535545625446 100.315687728936  C 42.8535545625446 100.315687728936  45.9897825442752 105.870748653406  45.9897825442752 105.870748653406  C 45.9897825442752 105.870748653406  50.7188390580363 109.160342255989  50.7188390580363 109.160342255989  C 50.7188390580363 109.160342255989  53.8815462797434 107.910849785802  53.8815462797434 107.910849785802  C 53.8815462797434 107.910849785802  56.5150198901183 107.918775420742  56.5150198901183 107.918775420742  C 56.5150198901183 107.918775420742  61.2626604777115 105.286768788342  61.2626604777115 105.286768788342  C 61.2626604777115 105.286768788342  64.6684092010844 108.573258381587  64.6684092010844 108.573258381587  C 64.6684092010844 108.573258381587  66.9066515824518 108.957785659039  66.9066515824518 108.957785659039  C 66.9066515824518 108.957785659039  73.2598422975743 106.834918265748  73.2598422975743 106.834918265748  C 73.2598422975743 106.834918265748  77.4694467985248 108.989575177833  77.4694467985248 108.989575177833  C 77.4694467985248 108.989575177833  79.2950167713198 113.532955730549  79.2950167713198 113.532955730549  C 79.2950167713198 113.532955730549  82.4530832292553 113.542460166729  82.4530832292553 113.542460166729  C 82.4530832292553 113.542460166729  84.0287193035392 115.561795274577  84.0287193035392 115.561795274577  C 84.0287193035392 115.561795274577  88.0935423090305 119.858882833828  88.0935423090305 119.858882833828  C 88.0935423090305 119.858882833828  89.672575537998 118.985051051156  89.672575537998 118.985051051156  C 89.672575537998 118.985051051156  89.0336967668393 113.564022181218  89.0336967668393 113.564022181218  C 89.0336967668393 113.564022181218  91.2775984453367 112.056096553104  91.2775984453367 112.056096553104  C 91.2775984453367 112.056096553104  94.412318332103 118.115460155288  94.412318332103 118.115460155288  C 94.412318332103 118.115460155288  97.3068806641934 119.260180669164  97.3068806641934 119.260180669164  C 97.3068806641934 119.260180669164  100.449527245222 122.668880197025  100.449527245222 122.668880197025  C 100.449527245222 122.668880197025  102.688277579597 122.297826762544  102.688277579597 122.297826762544  C 102.688277579597 122.297826762544  103.614113017277 120.79120581993  103.614113017277 120.79120581993  C 103.614113017277 120.79120581993  108.633655595181 115.387206390413  108.633655595181 115.387206390413  C 108.633655595181 115.387206390413  110.86500295236 116.90596486176  110.86500295236 116.90596486176  C 110.86500295236 116.90596486176  112.447809046081 114.770497808712  112.447809046081 114.770497808712  C 112.447809046081 114.770497808712  114.015930918976 117.545392542666  114.015930918976 117.545392542666  C 114.015930918976 117.545392542666  118.748503693643 119.07343580617  118.748503693643 119.07343580617  C 118.748503693643 119.07343580617  121.909197494722 119.082948149535  121.909197494722 119.082948149535  C 121.909197494722 119.082948149535  124.197334873938 119.182964373452  124.197334873938 119.182964373452  C 124.197334873938 119.182964373452  122.836054093103 116.94199263163  122.836054093103 116.94199263163  C 122.836054093103 116.94199263163  122.195820488664 109.63112549858  122.195820488664 109.63112549858  C 122.195820488664 109.63112549858  116.564394214615 101.172742222525  116.564394214615 101.172742222525  C 116.564394214615 101.172742222525  119.734139212821 98.1555599235166  119.734139212821 98.1555599235166  C 119.734139212821 98.1555599235166  122.644046980429 92.9973649991567  122.644046980429 92.9973649991567  C 122.644046980429 92.9973649991567  133.302302330699 93.0294418123333  133.302302330699 93.0294418123333  C 133.302302330699 93.0294418123333  135.280707481468 91.2729564644338  135.280707481468 91.2729564644338  C 135.280707481468 91.2729564644338  134.634669200244 87.3674634487313  134.634669200244 87.3674634487313  C 134.634669200244 87.3674634487313  136.882219382586 83.4680431509877  136.882219382586 83.4680431509877  C 136.882219382586 83.4680431509877  136.230915905704 81.323216626814  136.230915905704 81.323216626814  C 136.230915905704 81.323216626814  137.162283652262 77.6737459562364  137.162283652262 77.6737459562364  C 137.162283652262 77.6737459562364  136.956980431722 58.4681604082475  136.956980431722 58.4681604082475  C 136.956980431722 58.4681604082475  140.134885081949 52.4295522876986  140.134885081949 52.4295522876986  C 140.134885081949 52.4295522876986  136.592646758076 48.5127071902911  136.592646758076 48.5127071902911  C 136.592646758076 48.5127071902911  137.25576364551 46.121440071869  137.25576364551 46.121440071869  C 137.25576364551 46.121440071869  135.685768476955 43.9729700926351  135.685768476955 43.9729700926351  C 135.685768476955 43.9729700926351  131.59835557512 45.4727117844368  131.59835557512 45.4727117844368  C 131.59835557512 45.4727117844368  126.869455826166 50.6236751489704  126.869455826166 50.6236751489704  C 126.869455826166 50.6236751489704  122.127704866118 52.7505137062043  122.127704866118 52.7505137062043  C 122.127704866118 52.7505137062043  117.368264004689 59.0356370999694  117.368264004689 59.0356370999694  C 117.368264004689 59.0356370999694  105.637352903001 63.3343869251897  105.637352903001 63.3343869251897  C 105.637352903001 63.3343869251897  100.2555075877 58.9823778171768  100.2555075877 58.9823778171768  C 100.2555075877 58.9823778171768  100.919500256182 56.5911133344829  100.919500256182 56.5911133344829  C 100.919500256182 56.5911133344829  98.1680922183648 52.6766482997128  98.1680922183648 52.6766482997128  C 98.1680922183648 52.6766482997128  96.8664748971846 48.6417875899594  96.8664748971846 48.6417875899594  C 96.8664748971846 48.6417875899594  92.3963666962582 48.3761808582296  92.3963666962582 48.3761808582296  C 92.3963666962582 48.3761808582296  84.5111354116243 44.4445080320907  84.5111354116243 44.4445080320907  C 84.5111354116243 44.4445080320907  81.3435544683869 45.5665911543399  81.3435544683869 45.5665911543399  C 81.3435544683869 45.5665911543399  77.6705287544153 43.7983689084064  77.6705287544153 43.7983689084064  C 77.6705287544153 43.7983689084064  72.2652081281321 44.6606851942198  72.2652081281321 44.6606851942198  C 72.2652081281321 44.6606851942198  67.1131283495961 43.13401514515  67.1131283495961 43.13401514515  C 67.1131283495961 43.13401514515  64.2268500304356 39.2191442082246  64.2268500304356 39.2191442082246  C 64.2268500304356 39.2191442082246  61.4771804179975 36.187661326141  61.4771804179975 36.187661326141  C 61.4771804179975 36.187661326141  60.4300317895934 33.1604237237416  60.4300317895934 33.1604237237416  C 60.4300317895934 33.1604237237416  56.7574264505247 29.4944613013116  56.7574264505247 29.4944613013116  C 56.7574264505247 29.4944613013116  54.5287300825771 26.210635550783  54.5287300825771 26.210635550783  C 54.5287300825771 26.210635550783  49.414869388962 19.5180066004143  49.414869388962 19.5180066004143  C 49.414869388962 19.5180066004143  47.8501394160648 15.6088701296518  47.8501394160648 15.6088701296518  C 47.8501394160648 15.6088701296518  42.2106936149621 8.66074861554262  42.2106936149621 8.66074861554262  C 42.2106936149621 8.66074861554262  40.6452201039556 5.00024917926243  40.6452201039556 5.00024917926243  C 40.6452201039556 5.00024917926243  33.4048097648888 1.57394562221441  33.4048097648888 1.57394562221441  C 33.4048097648888 1.57394562221441  28.6623126393888 3.0717157892621  28.6623126393888 3.0717157892621  C 28.6623126393888 3.0717157892621  24.5864276434843 2.18086510908148  24.5864276434843 2.18086510908148  Z " stroke-width="0.97600957434184" stroke="#47b3fe" fill="none" transform="matrix(1 0 0 1 1105 436 )" mask="url(#clip1803)" />
  </g>
</svg>