<?xml version="1.0" encoding="utf-8"?>
<svg version="1.1" xmlns:xlink="http://www.w3.org/1999/xlink" width="364px" height="63px" xmlns="http://www.w3.org/2000/svg">
  <defs>
    <linearGradient gradientUnits="userSpaceOnUse" x1="182" y1="0" x2="182" y2="63" id="LinearGradient1817">
      <stop id="Stop1818" stop-color="#1ac6ff" stop-opacity="0.619607843137255" offset="0" />
      <stop id="Stop1819" stop-color="#1ac6ff" stop-opacity="0.619607843137255" offset="0.01" />
      <stop id="Stop1820" stop-color="#1ac6ff" stop-opacity="0.356862745098039" offset="0.57" />
      <stop id="Stop1821" stop-color="#000000" stop-opacity="0.0392156862745098" offset="1" />
    </linearGradient>
  </defs>
  <g transform="matrix(1 0 0 1 -215 -328 )">
    <path d="M 0.683594788503086 62  C 0.683594788503086 62.5219660722053  0.683594788503086 53.9284439048776  0.683594788503086 47.7901228957431  C 8.6144045695107 41.6511656593068  12.219250172411 41.9584634461447  17.9874515009324 42.2651250056806  C 23.7549055563189 42.5724227925185  36.3726124396048 32.4436841456052  41.7798808439553 29.374523641038  C 49.3497577007919 25.077444443723  69.8975270919505 -1.93167697830978  75.665728420472 0.83082196672143  C 81.4331824758584 3.59268468445077  107.388967544502 26.3053631364708  111.714184449475 29.374523641038  C 116.040148627582 32.4436841456052  142.356119347262 41.9584634461447  148.123573402649 41.3445040997708  C 153.89177473117 40.7305447533971  177.323271150022 27.2259840423806  183.451658129579 26.6120246960067  C 189.580045109137 25.9980653496328  207.964458774674 18.0185025286789  219.139928507546 17.4045431823051  C 230.675583891454 16.4839222763953  248.341120801189 10.3029740380308  254.828198885513 10.038303480423  C 265.295253686472 9.61139496082006  287.632742235787 22.3149454986918  291.237587838687 23.8495257509754  C 294.842433441587 25.384742230561  321.518589812303 34.8988853037986  325.48362106624 35.8195062097083  C 329.449399593311 36.74076334292  357.927978765477 48.7107438016529  363 47.7901228957431  L 363 62  L 0.683594788503086 62  Z " fill-rule="nonzero" fill="url(#LinearGradient1817)" stroke="none" transform="matrix(1 0 0 1 215 328 )" />
  </g>
</svg>