<?xml version="1.0" encoding="utf-8"?>
<svg version="1.1" xmlns:xlink="http://www.w3.org/1999/xlink" width="362px" height="133px" xmlns="http://www.w3.org/2000/svg">
  <defs>
    <linearGradient gradientUnits="userSpaceOnUse" x1="181" y1="0" x2="181" y2="133" id="LinearGradient1805">
      <stop id="Stop1806" stop-color="#07e28d" stop-opacity="0.447058823529412" offset="0" />
      <stop id="Stop1807" stop-color="#07e28d" stop-opacity="0.309803921568627" offset="0.41" />
      <stop id="Stop1808" stop-color="#ffffff" stop-opacity="0" offset="0.82" />
      <stop id="Stop1809" stop-color="#ffffff" stop-opacity="0" offset="1" />
    </linearGradient>
  </defs>
  <g transform="matrix(1 0 0 1 -218 -259 )">
    <path d="M 1 131.634533333333  L 1 82.1389  C 0.244816494845367 82.1389  13.7470432989691 69.7654666666667  20.7683505154639 65.6405666666667  C 27.7896577319588 61.5163  33.7301896907217 63.3491666666666  40.2118556701031 64.7241333333334  C 46.692775257732 66.0991  74.0151917525773 18.9132333333333  87.739843298969 18.8948666666666  C 104.087315463918 18.8733333333333  130.587208247423 72.5147666666667  146.430119587629 74.8061666666667  C 162.273030927835 77.0982  190.430659793814 26.5316  205.480903092783 28.9775333333334  C 229.750577319588 32.9219333333334  258.409781443299 -0.421166666666664  271.372367010309 0.563033333333351  C 289.43206185567 1.93483333333336  308.40086185567 57.0981666666667  312.419435051546 61.0577666666666  C 322.351670103093 70.8453  353.097039175258 81.8589666666667  359.749628865979 90.9511  C 360.573645360825 92.0765333333334  361.028197938144 92.8352666666667  361.028197938144 93.138  C 361.387958762887 99.7835666666666  361.387958762887 132.550966666667  361.387958762887 132.550966666667  L 1 131.634533333333  Z " fill-rule="nonzero" fill="url(#LinearGradient1805)" stroke="none" transform="matrix(1 0 0 1 218 259 )" />
  </g>
</svg>