<?xml version="1.0" encoding="utf-8"?>
<svg version="1.1" xmlns:xlink="http://www.w3.org/1999/xlink" width="361px" height="86px" xmlns="http://www.w3.org/2000/svg">
  <defs>
    <linearGradient gradientUnits="userSpaceOnUse" x1="180.5" y1="0" x2="180.5" y2="86" id="LinearGradient1810">
      <stop id="Stop1811" stop-color="#e5b036" offset="0" />
      <stop id="Stop1812" stop-color="#ffffff" stop-opacity="0" offset="1" />
    </linearGradient>
  </defs>
  <g transform="matrix(1 0 0 1 -217 -305 )">
    <path d="M 1 85  L 1 59.1879592016518  C 0.603384280700169 59.1879592016518  11.7554470323065 54.1928689941832  11.7554470323065 51.9222022809502  C 11.7554470323065 49.6509079649773  34.5979736927683 46.4721000869991  39.4547697276204 43.7470489900235  C 44.3108200544983 41.0226254957879  64.4561209728966 4.23694609757763  73.2696435179474 4.69070287858023  C 82.0831660629983 5.14508726232282  102.947329468361 28.3061387783953  109.242596185115 32.8480998076012  C 115.537862901869 37.3894332340672  140.000067281922 50.5596767324625  145.575725803739 51.013433513465  C 151.151384325555 51.4678178972077  174.354833645447 47.3802412517443  180.829815983942 45.5639589222538  C 187.304798322437 43.7470489900235  206.730491045897 31.0311898753708  216.443337407627 25.5817152841597  C 226.156183769358 20.1316130902085  250.977819392893 -1.66691287737609  257.452801731388 0.149369452114286  C 263.927784069883 1.96627938434466  283.7136537448 26.9442408326474  288.389988449937 29.2149075458804  C 293.066323155074 31.4855742591134  315.909595523509 37.8431900150698  322.564293483746 41.0226254957879  C 329.219737151956 44.2014333737661  355.300127835653 59.6423435853944  360 60.096727969137  L 360 85  L 1 85  Z " fill-rule="nonzero" fill="url(#LinearGradient1810)" stroke="none" transform="matrix(1 0 0 1 217 305 )" />
  </g>
</svg>