<?xml version="1.0" encoding="utf-8"?>
<svg version="1.1" xmlns:xlink="http://www.w3.org/1999/xlink" width="364px" height="96px" xmlns="http://www.w3.org/2000/svg">
  <g transform="matrix(1 0 0 1 -217 -258 )">
    <path d="M 0.357116186243417 82.015345863702  C 0.357116186243417 82.015345863702  13.8404882653707 69.6637918355192  20.8519908164128 65.5461856838298  C 27.8634933674548 61.429211745583  33.7957298725833 63.2588374484832  40.2683447501477 64.6313728323797  C 46.740214278233 66.0039082162762  74.0244773146362 18.901477888399  87.7299635385716 18.8831436985634  C 104.054607832493 18.8616484415148  130.517495742794 68.7483467706265  146.338283788762 71.0363272194156  C 162.159071834729 73.3236754547622  190.277380938382 26.5063733895001  205.306607837416 28.9479817048423  C 229.542391503801 32.8854070253891  258.161575457491 -0.398734087460468  271.10605986314 0.583725602348409  C 289.140535862398 1.95309991903179  308.082847527347 57.0188907699674  312.095809123479 60.9714892131367  C 323.241765235766 71.9511400708657  360.636693957817 90.2499259536381  360.636693957817 92.994996721431  " stroke-width="2.06856159624102" stroke="#07e28d" fill="none" transform="matrix(1 0 0 1 218 259 )" />
  </g>
</svg>