<?xml version="1.0" encoding="utf-8"?>
<svg version="1.1" xmlns:xlink="http://www.w3.org/1999/xlink" width="364px" height="63px" xmlns="http://www.w3.org/2000/svg">
  <defs>
    <linearGradient gradientUnits="userSpaceOnUse" x1="180.5" y1="0" x2="180.5" y2="60" id="LinearGradient1813">
      <stop id="Stop1814" stop-color="#e5b036" offset="0" />
      <stop id="Stop1815" stop-color="#e5b036" stop-opacity="0.498039215686275" offset="0.36" />
      <stop id="Stop1816" stop-color="#ffffff" stop-opacity="0" offset="1" />
    </linearGradient>
  </defs>
  <g transform="matrix(1 0 0 1 -216 -304 )">
    <path d="M 360.336639492246 59.834678283225  L 0.603384280700169 58.9298721702493  C 0.603384280700169 58.9298721702493  11.7554470323065 53.956562879383  11.7554470323065 51.6957973291438  C 11.7554470323065 49.4344069128044  34.5979736927683 46.2694601156895  39.4547697276204 43.5562915089623  C 44.3108200544983 40.8437477683353  64.4561209728966 4.2184710419196  73.2696435179474 4.67024923230736  C 82.0831660629983 5.12265228879522  102.947329468361 28.1827108476755  109.242596185115 32.7048668142541  C 115.537862901869 37.2263979147326  140.000067281922 50.3392130257802  145.575725803739 50.790991216168  C 151.151384325555 51.2433942726559  174.354833645447 47.1736413625651  180.829815983942 45.3652788688138  C 187.304798322437 43.5562915089623  206.730491045897 30.8958794544026  216.443337407627 25.4701671070485  C 226.156183769358 20.0438298935943  250.977819392893 -1.65964436192246  257.452801731388 0.1487181318289  C 263.927784069883 1.95770549168037  283.7136537448 26.826751410412  288.389988449937 29.0875169606513  C 293.066323155074 31.3482825108906  315.909595523509 37.6781761051203  322.564293483746 40.8437477683353  C 329.219737151956 44.0086945654503  355.300127835653 59.3822752267371  360.336639492246 59.834678283225  Z " fill-rule="nonzero" fill="url(#LinearGradient1813)" stroke="none" transform="matrix(1 0 0 1 217 305 )" />
    <path d="M 0.603384280700169 58.9298721702493  C 0.603384280700169 58.9298721702493  11.7554470323065 53.956562879383  11.7554470323065 51.6957973291438  C 11.7554470323065 49.4344069128044  34.5979736927683 46.2694601156895  39.4547697276204 43.5562915089623  C 44.3108200544983 40.8437477683353  64.4561209728966 4.2184710419196  73.2696435179474 4.67024923230736  C 82.0831660629983 5.12265228879522  102.947329468361 28.1827108476755  109.242596185115 32.7048668142541  C 115.537862901869 37.2263979147326  140.000067281922 50.3392130257802  145.575725803739 50.790991216168  C 151.151384325555 51.2433942726559  174.354833645447 47.1736413625651  180.829815983942 45.3652788688138  C 187.304798322437 43.5562915089623  206.730491045897 30.8958794544026  216.443337407627 25.4701671070485  C 226.156183769358 20.0438298935943  250.977819392893 -1.65964436192246  257.452801731388 0.1487181318289  C 263.927784069883 1.95770549168037  283.7136537448 26.826751410412  288.389988449937 29.0875169606513  C 293.066323155074 31.3482825108906  315.909595523509 37.6781761051203  322.564293483746 40.8437477683353  C 329.219737151956 44.0086945654503  355.300127835653 59.3822752267371  360.336639492246 59.834678283225  " stroke-width="2.06955652360209" stroke="#e5b036" fill="none" transform="matrix(1 0 0 1 217 305 )" />
  </g>
</svg>