<?xml version="1.0" encoding="utf-8"?>
<svg version="1.1" xmlns:xlink="http://www.w3.org/1999/xlink" width="367px" height="51px" xmlns="http://www.w3.org/2000/svg">
  <g transform="matrix(1 0 0 1 -214 -327 )">
    <path d="M 0.683594788503086 47.4307986634443  C 8.6144045695107 41.3379990002143  12.219250172411 41.6429862773767  17.9874515009324 41.947342110901  C 23.7549055563189 42.2523293880635  36.3726124396048 32.1997466708261  41.7798808439553 29.1536625610302  C 49.3497577007919 24.8888922298605  69.8975270919505 -1.91715309125487  75.665728420472 0.824575185016727  C 81.4331824758584 3.5656720176504  107.388967544502 26.1075784512341  111.714184449475 29.1536625610302  C 116.040148627582 32.1997466708261  142.356119347262 41.6429862773767  148.123573402649 41.0336431666898  C 153.89177473117 40.4243000560031  177.323271150022 27.0212773954453  183.451658129579 26.4119342847586  C 189.580045109137 25.8025911740717  207.964458774674 17.8830250660573  219.139928507546 17.2736819553705  C 230.675583891454 16.3599830111593  248.341120801189 10.22550806782  254.828198885513 9.96282751440481  C 265.295253686472 9.53912883329514  287.632742235787 22.1471639535889  291.237587838687 23.6702060084869  C 294.842433441587 25.1938795070229  321.518589812303 34.6364876699354  325.48362106624 35.5501866141466  C 329.449399593311 36.4645170019958  357.927978765477 48.3444976076555  363.335247169828 47.4307986634443  " stroke-width="2.06955652360209" stroke="#1ac6ff" fill="none" transform="matrix(1 0 0 1 215 328 )" />
  </g>
</svg>