<?xml version="1.0" encoding="utf-8"?>
<svg version="1.1" xmlns:xlink="http://www.w3.org/1999/xlink" width="492px" height="61px" xmlns="http://www.w3.org/2000/svg">
  <g transform="matrix(1 0 0 1 -1389 -327 )">
    <path d="M 249.45124907086 56.6320619403025  C 249.45124907086 58.8055703777104  247.683006722932 60.5737821971196  245.509528814043 60.5737821971196  C 243.336569889977 60.5737821971196  241.568754941314 58.8055703777104  241.568754941314 56.6320619403025  C 241.568754941314 54.4586145599327  243.336569889977 52.6903416834854  245.509528814043 52.6903416834854  C 247.683006722932 52.6903416834854  249.45124907086 54.4586145599327  249.45124907086 56.6320619403025  Z M 491.968460605169 50.7502543022102  C 491.968460605169 52.9232132262764  490.20024878576 54.6910587034579  488.026740348352 54.6910587034579  C 485.853292967982 54.6910587034579  484.085020091535 52.9232132262764  484.085020091535 50.7502543022102  C 484.085020091535 48.5767458648024  485.853292967982 46.8085340453931  488.026740348352 46.8085340453931  C 490.20024878576 46.8085340453931  491.968460605169 48.5767458648024  491.968460605169 50.7502543022102  Z M 411.449003335123 42.9174911300853  C 411.449003335123 45.0904500541515  409.681188386461 46.8582955313329  407.508229462395 46.8582955313329  C 405.334751553506 46.8582955313329  403.566509205577 45.0904500541515  403.566509205577 42.9174911300853  C 403.566509205577 40.7440437497154  405.334751553506 38.9757708732682  407.508229462395 38.9757708732682  C 409.681188386461 38.9757708732682  411.449003335123 40.7440437497154  411.449003335123 42.9174911300853  Z M 330.940353160797 14.4969663842452  C 330.940353160797 16.6704748216531  329.17208028435 18.4386866410623  326.998602375461 18.4386866410623  C 324.825643451395 18.4386866410623  323.057828502732 16.6704748216531  323.057828502732 14.4969663842452  C 323.057828502732 12.3235190038754  324.825643451395 10.5552461274281  326.998602375461 10.5552461274281  C 329.17208028435 10.5552461274281  330.940353160797 12.3235190038754  330.940353160797 14.4969663842452  Z M 167.962114452404 14.4969663842452  C 167.962114452404 16.6704748216531  166.193917897255 18.4386866410623  164.020455252625 18.4386866410623  C 161.847496328559 18.4386866410623  160.079605058599 16.6704748216531  160.079605058599 14.4969663842452  C 160.079605058599 12.3235190038754  161.847496328559 10.5552461274281  164.020455252625 10.5552461274281  C 166.193917897255 10.5552461274281  167.962114452404 12.3235190038754  167.962114452404 14.4969663842452  Z M 7.91451434855071 12.5360585530246  C 7.91451434855071 14.7095059333946  6.14663071072049 16.4777788098418  3.97366415452457 16.4777788098418  C 1.80019387776545 16.4777788098418  0.0319362655777127 14.7095059333946  0.0319362655777127 12.5360585530246  C 0.0319362655777127 10.3630996289585  1.80019387776545 8.595254151777  3.97366415452457 8.595254151777  C 6.14663071072049 8.595254151777  7.91451434855071 10.3630996289585  7.91451434855071 12.5360585530246  Z M 87.443573037928 4.69334308371174  C 87.443573037928 6.86679046408165  85.6753154257403 8.63506334052886  83.5018527811109 8.63506334052886  C 81.3283901364816 8.63506334052886  79.5601325242938 6.86679046408165  79.5601325242938 4.69334308371174  C 79.5601325242938 2.52038415964557  81.3283901364816 0.752538682464092  83.5018527811109 0.752538682464092  C 85.6753154257403 0.752538682464092  87.443573037928 2.52038415964557  87.443573037928 4.69334308371174  Z " fill-rule="nonzero" fill="#00ccff" stroke="none" transform="matrix(1 0 0 1 1389 327 )" />
  </g>
</svg>