<?xml version="1.0" encoding="utf-8"?>
<svg version="1.1" xmlns:xlink="http://www.w3.org/1999/xlink" width="494px" height="63px" xmlns="http://www.w3.org/2000/svg">
  <g transform="matrix(1 0 0 1 -1388 -326 )">
    <path d="M 243.569113451301 57.6320619403025  C 243.569113451301 59.256240207157  244.88532001867 60.5734236871334  246.509528814043 60.5734236871334  C 248.133676552379 60.5734236871334  249.450890560874 59.256240207157  249.450890560874 57.6320619403025  C 249.450890560874 56.0078836734481  248.133676552379 54.6907001934717  246.509528814043 54.6907001934717  C 244.88532001867 54.6907001934717  243.569113451301 56.0078836734481  243.569113451301 57.6320619403025  Z M 486.085378601521 51.7502543022102  C 486.085378601521 53.3744325690648  487.402562081497 54.6907001934717  489.026740348352 54.6907001934717  C 490.650918615206 54.6907001934717  491.968102095183 53.3744325690648  491.968102095183 51.7502543022102  C 491.968102095183 50.1260760353557  490.650918615206 48.8088925553793  489.026740348352 48.8088925553793  C 487.402562081497 48.8088925553793  486.085378601521 50.1260760353557  486.085378601521 51.7502543022102  Z M 405.566867715564 43.9174911300853  C 405.566867715564 45.5416693969398  406.884020667021 46.8579370213467  408.508229462395 46.8579370213467  C 410.13237720073 46.8579370213467  411.448644825137 45.5416693969398  411.448644825137 43.9174911300853  C 411.448644825137 42.2933128632309  410.13237720073 40.9761293832545  408.508229462395 40.9761293832545  C 406.884020667021 40.9761293832545  405.566867715564 42.2933128632309  405.566867715564 43.9174911300853  Z M 325.058187012718 15.4969663842452  C 325.058187012718 17.1211446510997  326.374485165644 18.4383281310761  327.998602375461 18.4383281310761  C 329.623757554923 18.4383281310761  330.939994650811 17.1211446510997  330.939994650811 15.4969663842452  C 330.939994650811 13.8727881173908  329.623757554923 12.5556046374144  327.998602375461 12.5556046374144  C 326.374485165644 12.5556046374144  325.058187012718 13.8727881173908  325.058187012718 15.4969663842452  Z M 162.079963568585 15.4969663842452  C 162.079963568585 17.1211446510997  163.396246457252 18.4383281310761  165.020455252625 18.4383281310761  C 166.644602990961 18.4383281310761  167.961755942418 17.1211446510997  167.961755942418 15.4969663842452  C 167.961755942418 13.8727881173908  166.644602990961 12.5556046374144  165.020455252625 12.5556046374144  C 163.396246457252 12.5556046374144  162.079963568585 13.8727881173908  162.079963568585 15.4969663842452  Z M 2.03229477556395 13.5360585530246  C 2.03229477556395 15.1602368198792  3.34857766423038 16.4774202998556  4.97366415452457 16.4774202998556  C 6.59787294989803 16.4774202998556  7.91415583856447 15.1602368198792  7.91415583856447 13.5360585530246  C 7.91415583856447 11.9118802861701  6.59787294989803 10.5956126617632  4.97366415452457 10.5956126617632  C 3.34857766423038 10.5956126617632  2.03229477556395 11.9118802861701  2.03229477556395 13.5360585530246  Z M 81.56049103428 5.69334308371174  C 81.56049103428 7.31752135056627  82.8777050427754 8.63470483054266  84.5018527811109 8.63470483054266  C 86.1260615764844 8.63470483054266  87.4432145279418 7.31752135056627  87.4432145279418 5.69334308371174  C 87.4432145279418 4.06916481685732  86.1260615764844 2.75289719245029  84.5018527811109 2.75289719245029  C 82.8777050427754 2.75289719245029  81.56049103428 4.06916481685732  81.56049103428 5.69334308371174  Z M 251.451607580846 57.6320619403025  C 251.451607580846 60.3571596586684  249.234626532409 62.5741407071059  246.509528814043 62.5741407071059  C 243.785011137538 62.5741407071059  241.568396431328 60.3571596586684  241.568396431328 57.6320619403025  C 241.568396431328 54.9069642219367  243.785011137538 52.6899831734992  246.509528814043 52.6899831734992  C 249.234626532409 52.6899831734992  251.451607580846 54.9069642219367  251.451607580846 57.6320619403025  Z M 493.968819115155 51.7502543022102  C 493.968819115155 54.4748635642724  491.751838066718 56.6914172134441  489.026740348352 56.6914172134441  C 486.301642629986 56.6914172134441  484.084661581549 54.4748635642724  484.084661581549 51.7502543022102  C 484.084661581549 49.0251565838444  486.301642629986 46.8081755354069  489.026740348352 46.8081755354069  C 491.751838066718 46.8081755354069  493.968819115155 49.0251565838444  493.968819115155 51.7502543022102  Z M 413.449361845109 43.9174911300853  C 413.449361845109 46.6420393351095  411.2327471389 48.8586540413193  408.508229462395 48.8586540413193  C 405.783131744029 48.8586540413193  403.566150695591 46.6420393351095  403.566150695591 43.9174911300853  C 403.566150695591 41.1923934117195  405.783131744029 38.975412363282  408.508229462395 38.975412363282  C 411.2327471389 38.975412363282  413.449361845109 41.1923934117195  413.449361845109 43.9174911300853  Z M 332.940711670783 15.4969663842452  C 332.940711670783 18.2220641026111  330.723730622346 20.4390451510486  327.998602375461 20.4390451510486  C 325.274084698956 20.4390451510486  323.057469992746 18.2220641026111  323.057469992746 15.4969663842452  C 323.057469992746 12.7718686658794  325.274084698956 10.5548876174419  327.998602375461 10.5548876174419  C 330.723730622346 10.5548876174419  332.940711670783 12.7718686658794  332.940711670783 15.4969663842452  Z M 169.962472962391 15.4969663842452  C 169.962472962391 18.2220641026111  167.745491913953 20.4390451510486  165.020455252625 20.4390451510486  C 162.295861254823 20.4390451510486  160.079246548613 18.2220641026111  160.079246548613 15.4969663842452  C 160.079246548613 12.7718686658794  162.295861254823 10.5548876174419  165.020455252625 10.5548876174419  C 167.745491913953 10.5548876174419  169.962472962391 12.7718686658794  169.962472962391 15.4969663842452  Z M 9.91487285853694 13.5360585530246  C 9.91487285853694 16.2611562713905  7.69826578445695 18.478137319828  4.97366415452457 18.478137319828  C 2.24855880402899 18.478137319828  0.0315777555914707 16.2611562713905  0.0315777555914707 13.5360585530246  C 0.0315777555914707 10.8115103480005  2.24855880402899 8.59489564179069  4.97366415452457 8.59489564179069  C 7.69826578445695 8.59489564179069  9.91487285853694 10.8115103480005  9.91487285853694 13.5360585530246  Z M 89.4439315479143 5.69334308371174  C 89.4439315479143 8.41844080207761  87.2269504994767 10.6354218505151  84.5018527811109 10.6354218505151  C 81.7767550627451 10.6354218505151  79.5597740143076 8.41844080207761  79.5597740143076 5.69334308371174  C 79.5597740143076 2.96879487868762  81.7767550627451 0.752180172477892  84.5018527811109 0.752180172477892  C 87.2269504994767 0.752180172477892  89.4439315479143 2.96879487868762  89.4439315479143 5.69334308371174  Z " fill-rule="nonzero" fill="#00ccff" stroke="none" transform="matrix(1 0 0 1 1388 326 )" />
  </g>
</svg>