<?xml version="1.0" encoding="utf-8"?>
<svg version="1.1" xmlns:xlink="http://www.w3.org/1999/xlink" width="494px" height="45px" xmlns="http://www.w3.org/2000/svg">
  <g transform="matrix(1 0 0 1 -1388 -285 )">
    <path d="M 412.449003335123 40.9201340203255  C 412.449003335123 43.0930929443916  410.681188386461 44.8609384215731  408.508229462395 44.8609384215731  C 406.334751553506 44.8609384215731  404.566509205577 43.0930929443916  404.566509205577 40.9201340203255  C 404.566509205577 38.7466866399556  406.334751553506 36.9784137635083  408.508229462395 36.9784137635083  C 410.681188386461 36.9784137635083  412.449003335123 38.7466866399556  412.449003335123 40.9201340203255  Z M 493.948914520779 38.9592872461428  C 493.948914520779 41.132246170209  492.180641644332 42.9000305903525  490.007194263962 42.9000305903525  C 487.833685826554 42.9000305903525  486.065474007145 41.132246170209  486.065474007145 38.9592872461428  C 486.065474007145 36.7857788087349  487.833685826554 35.0175059322877  490.007194263962 35.0175059322877  C 492.180641644332 35.0175059322877  493.948914520779 36.7857788087349  493.948914520779 38.9592872461428  Z M 251.431672457951 28.1751489729611  C 251.431672457951 30.348596353331  249.663430110023 32.1168692297782  247.489952201134 32.1168692297782  C 245.316993277068 32.1168692297782  243.549178328406 30.348596353331  243.549178328406 28.1751489729611  C 243.549178328406 26.0017015925912  245.316993277068 24.233428716144  247.489952201134 24.233428716144  C 249.663430110023 24.233428716144  251.431672457951 26.0017015925912  251.431672457951 28.1751489729611  Z M 89.4339334579478 15.4409710213162  C 89.4339334579478 17.6139299453823  87.6656758457601 19.3817754225639  85.4922132011307 19.3817754225639  C 83.3187352922419 19.3817754225639  81.5505387370921 17.6139299453823  81.5505387370921 15.4409710213162  C 81.5505387370921 13.2674625839084  83.3187352922419 11.499250764499  85.4922132011307 11.499250764499  C 87.6656758457601 11.499250764499  89.4339334579478 13.2674625839084  89.4339334579478 15.4409710213162  Z M 7.93403753655117 12.4996092744853  C 7.93403753655117 14.6730566548553  6.16615389872096 16.4413295313025  3.99318734252505 16.4413295313025  C 1.81971706576593 16.4413295313025  0.0515281427458945 14.6730566548553  0.0515281427458945 12.4996092744853  C 0.0515281427458945 10.3261008370774  1.81971706576593 8.55788901766823  3.99318734252505 8.55788901766823  C 6.16615389872096 8.55788901766823  7.93403753655117 10.3261008370774  7.93403753655117 12.4996092744853  Z M 331.940353160797 9.55824752765443  C 331.940353160797 11.7316949080243  330.17208028435 13.4999677844715  327.998602375461 13.4999677844715  C 325.825643451395 13.4999677844715  324.057828502732 11.7316949080243  324.057828502732 9.55824752765443  C 324.057828502732 7.38522754655037  325.825643451395 5.61744312640678  327.998602375461 5.61744312640678  C 330.17208028435 5.61744312640678  331.940353160797 7.38522754655037  331.940353160797 9.55824752765443  Z M 169.942598896534 4.65689380517244  C 169.942598896534 6.82985272923861  168.174341284346 8.59769820642009  166.000878639717 8.59769820642009  C 163.827400730828 8.59769820642009  162.05914311864 6.82985272923861  162.05914311864 4.65689380517244  C 162.05914311864 2.48344642480254  163.827400730828 0.715173548355324  166.000878639717 0.715173548355324  C 168.174341284346 0.715173548355324  169.942598896534 2.48344642480254  169.942598896534 4.65689380517244  Z " fill-rule="nonzero" fill="#00ffcc" stroke="none" transform="matrix(1 0 0 1 1388 285 )" />
  </g>
</svg>