<?xml version="1.0" encoding="utf-8"?>
<svg version="1.1" xmlns:xlink="http://www.w3.org/1999/xlink" width="496px" height="47px" xmlns="http://www.w3.org/2000/svg">
  <g transform="matrix(1 0 0 1 -1387 -284 )">
    <path d="M 406.566867715564 41.9201340203255  C 406.566867715564 43.5443122871799  407.884020667021 44.8605799115868  409.508229462395 44.8605799115868  C 411.13237720073 44.8605799115868  412.448644825137 43.5443122871799  412.448644825137 41.9201340203255  C 412.448644825137 40.2950398979015  411.13237720073 38.9787722734945  409.508229462395 38.9787722734945  C 407.884020667021 38.9787722734945  406.566867715564 40.2950398979015  406.566867715564 41.9201340203255  Z M 488.065832517131 39.9592872461428  C 488.065832517131 41.5834044559593  489.383015997108 42.8996720803663  491.007194263962 42.8996720803663  C 492.631372530817 42.8996720803663  493.948556010793 41.5834044559593  493.948556010793 39.9592872461428  C 493.948556010793 38.3350479222504  492.631372530817 37.017864442274  491.007194263962 37.017864442274  C 489.383015997108 37.017864442274  488.065832517131 38.3350479222504  488.065832517131 39.9592872461428  Z M 245.549536838392 29.1751489729611  C 245.549536838392 30.7993272398156  246.865804462799 32.1165107197919  248.489952201134 32.1165107197919  C 250.114160996508 32.1165107197919  251.431313947965 30.7993272398156  251.431313947965 29.1751489729611  C 251.431313947965 27.5509707061066  250.114160996508 26.2337872261302  248.489952201134 26.2337872261302  C 246.865804462799 26.2337872261302  245.549536838392 27.5509707061066  245.549536838392 29.1751489729611  Z M 83.5508972470783 16.4409710213162  C 83.5508972470783 18.0651492881707  84.8680654627953 19.3814169125776  86.4922132011307 19.3814169125776  C 88.1164067322447 19.3814169125776  89.4335749479616 18.0651492881707  89.4335749479616 16.4409710213162  C 89.4335749479616 14.8158768988923  88.1164067322447 13.4996092744854  86.4922132011307 13.4996092744854  C 84.8680654627953 13.4996092744854  83.5508972470783 14.8158768988923  83.5508972470783 16.4409710213162  Z M 2.05188665273214 13.4996092744854  C 2.05188665273214 15.1237875413398  3.36903960418954 16.4409710213162  4.99318734252505 16.4409710213162  C 6.61739613789851 16.4409710213162  7.93367902656495 15.1237875413398  7.93367902656495 13.4996092744854  C 7.93367902656495 11.8754310076308  6.61739613789851 10.5582475276544  4.99318734252505 10.5582475276544  C 3.36903960418954 10.5582475276544  2.05188665273214 11.8754310076308  2.05188665273214 13.4996092744854  Z M 326.058187012718 10.5582475276544  C 326.058187012718 12.182425794509  327.374485165644 13.4996092744854  328.998602375461 13.4996092744854  C 330.623757554923 13.4996092744854  331.939994650811 12.182425794509  331.939994650811 10.5582475276544  C 331.939994650811 8.93406926080002  330.623757554923 7.61780163639298  328.998602375461 7.61780163639298  C 327.374485165644 7.61780163639298  326.058187012718 8.93406926080002  326.058187012718 10.5582475276544  Z M 164.059501628626 5.65689380517244  C 164.059501628626 7.28107207202697  165.376730901381 8.59733969643389  167.000878639717 8.59733969643389  C 168.625072170831 8.59733969643389  169.942240386547 7.28107207202697  169.942240386547 5.65689380517244  C 169.942240386547 4.03271553831792  168.625072170831 2.71553205834152  167.000878639717 2.71553205834152  C 165.376730901381 2.71553205834152  164.059501628626 4.03271553831792  164.059501628626 5.65689380517244  Z M 414.449361845109 41.9201340203255  C 414.449361845109 44.6446822253496  412.2327471389 46.8612969315593  409.508229462395 46.8612969315593  C 406.783131744029 46.8612969315593  404.566150695591 44.6446822253496  404.566150695591 41.9201340203255  C 404.566150695591 39.1950363019596  406.783131744029 36.978055253522  409.508229462395 36.978055253522  C 412.2327471389 36.978055253522  414.449361845109 39.1950363019596  414.449361845109 41.9201340203255  Z M 495.949273030766 39.9592872461428  C 495.949273030766 42.683774394129  493.732291982328 44.9003891003388  491.007194263962 44.9003891003388  C 488.282096545596 44.9003891003388  486.065115497159 42.683774394129  486.065115497159 39.9592872461428  C 486.065115497159 37.2341284707391  488.282096545596 35.0171474223015  491.007194263962 35.0171474223015  C 493.732291982328 35.0171474223015  495.949273030766 37.2341284707391  495.949273030766 39.9592872461428  Z M 253.432030967938 29.1751489729611  C 253.432030967938 31.900246691327  251.2150499195 34.1172277397644  248.489952201134 34.1172277397644  C 245.76540399611 34.1172277397644  243.548819818419 31.900246691327  243.548819818419 29.1751489729611  C 243.548819818419 26.4500512545952  245.76540399611 24.2330702061578  248.489952201134 24.2330702061578  C 251.2150499195 24.2330702061578  253.432030967938 26.4500512545952  253.432030967938 29.1751489729611  Z M 91.4342919679341 16.4409710213162  C 91.4342919679341 19.1655802833783  89.2173109194965 21.3821339325501  86.4922132011307 21.3821339325501  C 83.7671612755434 21.3821339325501  81.5501802271059 19.1655802833783  81.5501802271059 16.4409710213162  C 81.5501802271059 13.7158733029504  83.7671612755434 11.4988922545128  86.4922132011307 11.4988922545128  C 89.2173109194965 11.4988922545128  91.4342919679341 13.7158733029504  91.4342919679341 16.4409710213162  Z M 9.93439604653742 13.4996092744854  C 9.93439604653742 16.2247069928511  7.71778897245743 18.4416880412887  4.99318734252505 18.4416880412887  C 2.26815068119717 18.4416880412887  0.0511696327596525 16.2247069928511  0.0511696327596525 13.4996092744854  C 0.0511696327596525 10.7745115561195  2.26815068119717 8.55753050768203  4.99318734252505 8.55753050768203  C 7.71778897245743 8.55753050768203  9.93439604653742 10.7745115561195  9.93439604653742 13.4996092744854  Z M 333.940711670783 10.5582475276544  C 333.940711670783 13.2833452460203  331.723730622346 15.5003262944577  328.998602375461 15.5003262944577  C 326.274084698956 15.5003262944577  324.057469992746 13.2833452460203  324.057469992746 10.5582475276544  C 324.057469992746 7.83369932263031  326.274084698956 5.61708461642058  328.998602375461 5.61708461642058  C 331.723730622346 5.61708461642058  333.940711670783 7.83369932263031  333.940711670783 10.5582475276544  Z M 171.94295740652 5.65689380517244  C 171.94295740652 8.38144201019657  169.725976358082 10.5980567164063  167.000878639717 10.5980567164063  C 164.275765657091 10.5980567164063  162.058784608654 8.38144201019657  162.058784608654 5.65689380517244  C 162.058784608654 2.93179608680657  164.275765657091 0.714815038369125  167.000878639717 0.714815038369125  C 169.725976358082 0.714815038369125  171.94295740652 2.93179608680657  171.94295740652 5.65689380517244  Z " fill-rule="nonzero" fill="#00ffcc" stroke="none" transform="matrix(1 0 0 1 1387 284 )" />
  </g>
</svg>