<?xml version="1.0" encoding="utf-8"?>
<svg version="1.1" xmlns:xlink="http://www.w3.org/1999/xlink" width="493px" height="42px" xmlns="http://www.w3.org/2000/svg">
  <g transform="matrix(1 0 0 1 -1388 -323 )">
    <path d="M 412.449033863642 37.6151587461529  C 412.449033863642 39.7881176702191  410.681188386461 41.5560242044386  408.508229462395 41.5560242044386  C 406.334751553506 41.5560242044386  404.566509205577 39.7881176702191  404.566509205577 37.6151587461529  C 404.566509205577 35.4416503087451  406.334751553506 33.6734384893358  408.508229462395 33.6734384893358  C 410.681188386461 33.6734384893358  412.449033863642 35.4416503087451  412.449033863642 37.6151587461529  Z M 250.451279599379 24.8801259959765  C 250.451279599379 27.0536344333844  248.683006722932 28.8218462527936  246.509559342562 28.8218462527936  C 244.336569889977 28.8218462527936  242.568693884276 27.0536344333844  242.568693884276 24.8801259959765  C 242.568693884276 22.7071670719104  244.336569889977 20.9393215947289  246.509559342562 20.9393215947289  C 248.683006722932 20.9393215947289  250.451279599379 22.7071670719104  250.451279599379 24.8801259959765  Z M 7.93404516868093 19.9787722734945  C 7.93404516868093 22.1522196538644  6.16616153085072 23.9204925303117  3.99319497465478 23.9204925303117  C 1.81973233002542 23.9204925303117  0.0515357748756458 22.1522196538644  0.0515357748756458 19.9787722734945  C 0.0515357748756458 17.8053248931246  1.81973233002542 16.0370520166774  3.99319497465478 16.0370520166774  C 6.16616153085072 16.0370520166774  7.93404516868093 17.8053248931246  7.93404516868093 19.9787722734945  Z M 331.940353160797 18.9983183578843  C 331.940353160797 21.1718267952921  330.17208028435 22.9400386147014  327.99863290398 22.9400386147014  C 325.825673979914 22.9400386147014  324.057828502732 21.1718267952921  324.057828502732 18.9983183578843  C 324.057828502732 16.8248709775144  325.825673979914 15.0565981010672  327.99863290398 15.0565981010672  C 330.17208028435 15.0565981010672  331.940353160797 16.8248709775144  331.940353160797 18.9983183578843  Z M 492.968460605169 15.0765026954431  C 492.968460605169 17.249950075813  491.20024878576 19.0182229522602  489.02680140539 19.0182229522602  C 486.853292967982 19.0182229522602  485.085020091535 17.249950075813  485.085020091535 15.0765026954431  C 485.085020091535 12.9035437713769  486.853292967982 11.1356982941954  489.02680140539 11.1356982941954  C 491.20024878576 11.1356982941954  492.968460605169 12.9035437713769  492.968460605169 15.0765026954431  Z M 88.4435883021875 14.0969646354023  C 88.4435883021875 16.2699235594685  86.6753306899998 18.0377690366499  84.5018680453704 18.0377690366499  C 82.3283901364816 18.0377690366499  80.5601325242938 16.2699235594685  80.5601325242938 14.0969646354023  C 80.5601325242938 11.9235172550324  82.3283901364816 10.1552443785852  84.5018680453704 10.1552443785852  C 86.6753306899998 10.1552443785852  88.4435883021875 11.9235172550324  88.4435883021875 14.0969646354023  Z M 169.942614160793 4.3032325750188  C 169.942614160793 6.47619149908496  168.174356548605 8.24403697626644  166.000878639717 8.24403697626644  C 163.827415995087 8.24403697626644  162.0591583829 6.47619149908496  162.0591583829 4.3032325750188  C 162.0591583829 2.12972413761099  163.827415995087 0.361573375239686  166.000878639717 0.361573375239686  C 168.174356548605 0.361573375239686  169.942614160793 2.12972413761099  169.942614160793 4.3032325750188  Z " fill-rule="nonzero" fill="#ed87e9" stroke="none" transform="matrix(1 0 0 1 1388 323 )" />
  </g>
</svg>