<?xml version="1.0" encoding="utf-8"?>
<svg version="1.1" xmlns:xlink="http://www.w3.org/1999/xlink" width="495px" height="42px" xmlns="http://www.w3.org/2000/svg">
  <g transform="matrix(1 0 0 1 -1388 -253 )">
    <path d="M 487.065832517131 36.3032325750188  C 487.065832517131 37.9274108418733  488.383015997108 39.2436784662802  490.007255321 39.2436784662802  C 491.631372530817 39.2436784662802  492.948556010793 37.9274108418733  492.948556010793 36.3032325750188  C 492.948556010793 34.6790543081643  491.631372530817 33.3618708281879  490.007255321 33.3618708281879  C 488.383015997108 33.3618708281879  487.065832517131 34.6790543081643  487.065832517131 36.3032325750188  Z M 406.547321631174 24.5387014432647  C 406.547321631174 26.1628797101192  407.863528198543 27.4800631900956  409.488683378005 27.4800631900956  C 411.11283111634 27.4800631900956  412.429129269266 26.1628797101192  412.429129269266 24.5387014432647  C 412.429129269266 22.9145231764103  411.11283111634 21.5973396964339  409.488683378005 21.5973396964339  C 407.863528198543 21.5973396964339  406.547321631174 22.9145231764103  406.547321631174 24.5387014432647  Z M 244.549506309873 10.8241306330475  C 244.549506309873 12.448308899902  245.865804462799 13.764576524309  247.490013258172 13.764576524309  C 249.114160996508 13.764576524309  250.431375005003 12.448308899902  250.431375005003 10.8241306330475  C 250.431375005003 9.19989130915508  249.114160996508 7.8827688862167  247.490013258172 7.8827688862167  C 245.865804462799 7.8827688862167  244.549506309873 9.19989130915508  244.549506309873 10.8241306330475  Z M 163.059501628626 8.86322280182696  C 163.059501628626 10.4874010686815  164.376715637122 11.8045234916199  166.000863375457 11.8045234916199  C 167.625072170831 11.8045234916199  168.942225122288 10.4874010686815  168.942225122288 8.86322280182696  C 168.942225122288 7.23904453497244  167.625072170831 5.92186105499604  166.000863375457 5.92186105499604  C 164.376715637122 5.92186105499604  163.059501628626 7.23904453497244  163.059501628626 8.86322280182696  Z M 325.058187012718 7.8827688862167  C 325.058187012718 9.50694715307111  326.374454637125 10.8241306330475  327.998602375461 10.8241306330475  C 329.623757554923 10.8241306330475  330.939964122292 9.50694715307111  330.939964122292 7.8827688862167  C 330.939964122292 6.25859061936217  329.623757554923 4.94140713938577  327.998602375461 4.94140713938577  C 326.374454637125 4.94140713938577  325.058187012718 6.25859061936217  325.058187012718 7.8827688862167  Z M 2.03234820047217 6.90231497060631  C 2.03234820047217 8.52649323746084  3.34857003210064 9.84367671743723  4.97364889026508 9.84367671743723  C 6.59785768563854 9.84367671743723  7.91414057430498 8.52649323746084  7.91414057430498 6.90231497060631  C 7.91414057430498 5.2781367037519  6.59785768563854 3.96186907934498  4.97364889026508 3.96186907934498  C 3.34857003210064 3.96186907934498  2.03234820047217 5.2781367037519  2.03234820047217 6.90231497060631  Z M 82.5508972470783 4.94140713938577  C 82.5508972470783 6.56656231884767  83.8680501985357 7.8827688862167  85.4922589939092 7.8827688862167  C 87.1164067322447 7.8827688862167  88.4335596837021 6.56656231884767  88.4335596837021 4.94140713938577  C 88.4335596837021 3.31722887253125  87.1164067322447 2.00096124812433  85.4922589939092 2.00096124812433  C 83.8680501985357 2.00096124812433  82.5508972470783 3.31722887253125  82.5508972470783 4.94140713938577  Z M 494.949273030766 36.3032325750188  C 494.949273030766 39.0277807800429  492.732291982328 41.2443954862526  490.007255321 41.2443954862526  C 487.282157602634 41.2443954862526  485.065115497159 39.0277807800429  485.065115497159 36.3032325750188  C 485.065115497159 33.5781348566529  487.282157602634 31.3611538082155  490.007255321 31.3611538082155  C 492.732291982328 31.3611538082155  494.949273030766 33.5781348566529  494.949273030766 36.3032325750188  Z M 414.429846289239 24.5387014432647  C 414.429846289239 27.2637991616306  412.213231583029 29.4807802100681  409.488683378005 29.4807802100681  C 406.763585659639 29.4807802100681  404.546604611201 27.2637991616306  404.546604611201 24.5387014432647  C 404.546604611201 21.8136037248989  406.763585659639 19.5966226764614  409.488683378005 19.5966226764614  C 412.213231583029 19.5966226764614  414.429846289239 21.8136037248989  414.429846289239 24.5387014432647  Z M 252.432092024976 10.8241306330475  C 252.432092024976 13.5486788380717  250.215110976538 15.7652935442815  247.490013258172 15.7652935442815  C 244.76540399611 15.7652935442815  242.5487892899 13.5486788380717  242.5487892899 10.8241306330475  C 242.5487892899 8.09903291468174  244.76540399611 5.88205186624418  247.490013258172 5.88205186624418  C 250.215110976538 5.88205186624418  252.432092024976 8.09903291468174  252.432092024976 10.8241306330475  Z M 170.94294214226 8.86322280182696  C 170.94294214226 11.5882594631548  168.725961093823 13.8052405115924  166.000863375457 13.8052405115924  C 163.275765657091 13.8052405115924  161.058784608654 11.5882594631548  161.058784608654 8.86322280182696  C 161.058784608654 6.13812508346109  163.275765657091 3.92114403502364  166.000863375457 3.92114403502364  C 168.725961093823 3.92114403502364  170.94294214226 6.13812508346109  170.94294214226 8.86322280182696  Z M 332.940681142264 7.8827688862167  C 332.940681142264 10.6078666045825  330.723700093827 12.82484765302  327.998602375461 12.82484765302  C 325.274054170437 12.82484765302  323.057469992746 10.6078666045825  323.057469992746 7.8827688862167  C 323.057469992746 5.15767116785082  325.274054170437 2.94069011941326  327.998602375461 2.94069011941326  C 330.723700093827 2.94069011941326  332.940681142264 5.15767116785082  332.940681142264 7.8827688862167  Z M 9.91485759427745 6.90231497060631  C 9.91485759427745 9.62741268897219  7.69825052019746 11.8443937374097  4.97364889026508 11.8443937374097  C 2.2486122289372 11.8443937374097  0.0316311804996872 9.62741268897219  0.0316311804996872 6.90231497060631  C 0.0316311804996872 4.17776676558219  2.2486122289372 1.96115205937247  4.97364889026508 1.96115205937247  C 7.69825052019746 1.96115205937247  9.91485759427745 4.17776676558219  9.91485759427745 6.90231497060631  Z M 90.4342767036745 4.94140713938577  C 90.4342767036745 7.66650485775165  88.217295655237 9.88348590618909  85.4922589939092 9.88348590618909  C 82.7671612755434 9.88348590618909  80.5501802271059 7.66650485775165  80.5501802271059 4.94140713938577  C 80.5501802271059 2.21685893436165  82.7671612755434 0.000244228151927928  85.4922589939092 0.000244228151927928  C 88.217295655237 0.000244228151927928  90.4342767036745 2.21685893436165  90.4342767036745 4.94140713938577  Z " fill-rule="nonzero" fill="#ff6800" stroke="none" transform="matrix(1 0 0 1 1388 253 )" />
  </g>
</svg>