<?xml version="1.0" encoding="utf-8"?>
<svg version="1.1" xmlns:xlink="http://www.w3.org/1999/xlink" width="493px" height="40px" xmlns="http://www.w3.org/2000/svg">
  <g transform="matrix(1 0 0 1 -1389 -254 )">
    <path d="M 492.948914520779 35.3032325750188  C 492.948914520779 37.476191499085  491.18070270137 39.2440369762664  489.007255321 39.2440369762664  C 486.833746883592 39.2440369762664  485.065474007145 37.476191499085  485.065474007145 35.3032325750188  C 485.065474007145 33.1297851946489  486.833746883592 31.3615123182017  489.007255321 31.3615123182017  C 491.18070270137 31.3615123182017  492.948914520779 33.1297851946489  492.948914520779 35.3032325750188  Z M 412.429487779253 23.5387014432647  C 412.429487779253 25.7122098806726  410.661642302071 27.4804217000818  408.488683378005 27.4804217000818  C 406.315205469116 27.4804217000818  404.546963121188 25.7122098806726  404.546963121188 23.5387014432647  C 404.546963121188 21.3652540628949  406.315205469116 19.5969811864476  408.488683378005 19.5969811864476  C 410.661642302071 19.5969811864476  412.429487779253 21.3652540628949  412.429487779253 23.5387014432647  Z M 250.431733514989 9.8241306330475  C 250.431733514989 11.9970895571137  248.663460638542 13.7649350342951  246.490013258172 13.7649350342951  C 244.317023805587 13.7649350342951  242.549147799887 11.9970895571137  242.549147799887 9.8241306330475  C 242.549147799887 7.65068325267771  244.317023805587 5.88241037623038  246.490013258172 5.88241037623038  C 248.663460638542 5.88241037623038  250.431733514989 7.65068325267771  250.431733514989 9.8241306330475  Z M 168.942583632274 7.86322280182696  C 168.942583632274 10.0366701821969  167.174326020087 11.8048820016061  165.000863375457 11.8048820016061  C 162.827400730828 11.8048820016061  161.05914311864 10.0366701821969  161.05914311864 7.86322280182696  C 161.05914311864 5.68977542145706  162.827400730828 3.92150254500984  165.000863375457 3.92150254500984  C 167.174326020087 3.92150254500984  168.942583632274 5.68977542145706  168.942583632274 7.86322280182696  Z M 330.940322632278 6.8827688862167  C 330.940322632278 9.05621626658649  329.17208028435 10.8244891430338  326.998602375461 10.8244891430338  C 324.825643451395 10.8244891430338  323.057828502732 9.05621626658649  323.057828502732 6.8827688862167  C 323.057828502732 4.70926044880878  324.825643451395 2.94104862939957  326.998602375461 2.94104862939957  C 329.17208028435 2.94104862939957  330.940322632278 4.70926044880878  330.940322632278 6.8827688862167  Z M 7.91449908429122 5.90231497060631  C 7.91449908429122 8.07582340801423  6.146615446461 9.84403522742343  3.97364889026508 9.84403522742343  C 1.80018624563571 9.84403522742343  0.0319896904859291 8.07582340801423  0.0319896904859291 5.90231497060631  C 0.0319896904859291 3.72935604654015  1.80018624563571 1.96151056935867  3.97364889026508 1.96151056935867  C 6.146615446461 1.96151056935867  7.91449908429122 3.72935604654015  7.91449908429122 5.90231497060631  Z M 88.4339181936883 3.94140713938577  C 88.4339181936883 6.11485451975568  86.6657216385386 7.88312739620289  84.4922589939092 7.88312739620289  C 82.3187963492799 7.88312739620289  80.5505387370921 6.11485451975568  80.5505387370921 3.94140713938577  C 80.5505387370921 1.76844821531961  82.3187963492799 0.000602738138127279  84.4922589939092 0.000602738138127279  C 86.6657216385386 0.000602738138127279  88.4339181936883 1.76844821531961  88.4339181936883 3.94140713938577  Z " fill-rule="nonzero" fill="#ff6800" stroke="none" transform="matrix(1 0 0 1 1389 254 )" />
  </g>
</svg>