<?xml version="1.0" encoding="utf-8"?>
<svg version="1.1" xmlns:xlink="http://www.w3.org/1999/xlink" width="495px" height="44px" xmlns="http://www.w3.org/2000/svg">
  <g transform="matrix(1 0 0 1 -1387 -322 )">
    <path d="M 406.566867715564 38.6151587461529  C 406.566867715564 40.2393370130075  407.884020667021 41.5556656944523  409.508229462395 41.5556656944523  C 411.13237720073 41.5556656944523  412.448675353656 40.2393370130075  412.448675353656 38.6151587461529  C 412.448675353656 36.9909804792984  411.13237720073 35.673796999322  409.508229462395 35.673796999322  C 407.884020667021 35.673796999322  406.566867715564 36.9909804792984  406.566867715564 38.6151587461529  Z M 244.569052394263 25.8801259959765  C 244.569052394263 27.5043042628311  245.885350547189 28.8214877428074  247.509559342562 28.8214877428074  C 249.133707080898 28.8214877428074  250.450921089393 27.5043042628311  250.450921089393 25.8801259959765  C 250.450921089393 24.2559477291221  249.133707080898 22.9396801047151  247.509559342562 22.9396801047151  C 245.885350547189 22.9396801047151  244.569052394263 24.2559477291221  244.569052394263 25.8801259959765  Z M 2.05189428486187 20.9787722734945  C 2.05189428486187 22.6029505403491  3.36905486844903 23.9201340203255  4.99319497465478 23.9201340203255  C 6.61740377002826 23.9201340203255  7.93368665869468 22.6029505403491  7.93368665869468 20.9787722734945  C 7.93368665869468 19.35459400664  6.61740377002826 18.0374105266636  4.99319497465478 18.0374105266636  C 3.36905486844903 18.0374105266636  2.05189428486187 19.35459400664  2.05189428486187 20.9787722734945  Z M 326.058187012718 19.9983183578843  C 326.058187012718 21.6224966247388  327.374485165644 22.9396801047151  328.99863290398 22.9396801047151  C 330.623696497885 22.9396801047151  331.939994650811 21.6224966247388  331.939994650811 19.9983183578843  C 331.939994650811 18.3741400910297  330.623696497885 17.0569566110534  328.99863290398 17.0569566110534  C 327.374485165644 17.0569566110534  326.058187012718 18.3741400910297  326.058187012718 19.9983183578843  Z M 487.085378601521 16.0765026954431  C 487.085378601521 17.701596817867  488.402562081497 19.017864442274  490.02680140539 19.017864442274  C 491.650918615206 19.017864442274  492.968102095183 17.701596817867  492.968102095183 16.0765026954431  C 492.968102095183 14.4523244285886  491.650918615206 13.1360568041816  490.02680140539 13.1360568041816  C 488.402562081497 13.1360568041816  487.085378601521 14.4523244285886  487.085378601521 16.0765026954431  Z M 82.56049103428 15.0969646354023  C 82.56049103428 16.7211429022567  83.8777203070349 18.0374105266636  85.5018680453704 18.0374105266636  C 87.1260768407439 18.0374105266636  88.4432297922013 16.7211429022567  88.4432297922013 15.0969646354023  C 88.4432297922013 13.4718705129783  87.1260768407439 12.1556028885714  85.5018680453704 12.1556028885714  C 83.8777203070349 12.1556028885714  82.56049103428 13.4718705129783  82.56049103428 15.0969646354023  Z M 164.059516892886 5.3032325750188  C 164.059516892886 6.92741084187332  165.376669844343 8.24367846628024  167.000878639717 8.24367846628024  C 168.62508743509 8.24367846628024  169.942255650807 6.92741084187332  169.942255650807 5.3032325750188  C 169.942255650807 3.67905430816427  168.62508743509 2.36193188522589  167.000878639717 2.36193188522589  C 165.376669844343 2.36193188522589  164.059516892886 3.67905430816427  164.059516892886 5.3032325750188  Z M 414.449392373628 38.6151587461529  C 414.449392373628 41.3397680082151  412.232777667419 43.5563827144248  409.508229462395 43.5563827144248  C 406.783131744029 43.5563827144248  404.566150695591 41.3397680082151  404.566150695591 38.6151587461529  C 404.566150695591 35.8900610277871  406.783131744029 33.6730799793496  409.508229462395 33.6730799793496  C 412.232777667419 33.6730799793496  414.449392373628 35.8900610277871  414.449392373628 38.6151587461529  Z M 252.451638109365 25.8801259959765  C 252.451638109365 28.6052237143424  250.234657060928 30.82220476278  247.509559342562 30.82220476278  C 244.7849500805 30.82220476278  242.56833537429 28.6052237143424  242.56833537429 25.8801259959765  C 242.56833537429 23.1555167339144  244.7849500805 20.9389630847427  247.509559342562 20.9389630847427  C 250.234657060928 20.9389630847427  252.451638109365 23.1555167339144  252.451638109365 25.8801259959765  Z M 9.93440367866717 20.9787722734945  C 9.93440367866717 23.7038699918604  7.71779660458716 25.9208510402979  4.99319497465478 25.9208510402979  C 2.26815831332692 25.9208510402979  0.0511772648894038 23.7038699918604  0.0511772648894038 20.9787722734945  C 0.0511772648894038 18.2536745551287  2.26815831332692 16.0366935066912  4.99319497465478 16.0366935066912  C 7.71779660458716 16.0366935066912  9.93440367866717 18.2536745551287  9.93440367866717 20.9787722734945  Z M 333.940711670783 19.9983183578843  C 333.940711670783 22.72341607625  331.723730622346 24.9403971246876  328.99863290398 24.9403971246876  C 326.274084698956 24.9403971246876  324.057469992746 22.72341607625  324.057469992746 19.9983183578843  C 324.057469992746 17.2732206395184  326.274084698956 15.056239591081  328.99863290398 15.056239591081  C 331.723730622346 15.056239591081  333.940711670783 17.2732206395184  333.940711670783 19.9983183578843  Z M 494.968819115155 16.0765026954431  C 494.968819115155 18.801600413809  492.751838066718 21.0185814622464  490.02680140539 21.0185814622464  C 487.301703687024 21.0185814622464  485.084661581549 18.801600413809  485.084661581549 16.0765026954431  C 485.084661581549 13.351954490419  487.301703687024 11.1353397842092  490.02680140539 11.1353397842092  C 492.751838066718 11.1353397842092  494.968819115155 13.351954490419  494.968819115155 16.0765026954431  Z M 90.4439468121738 15.0969646354023  C 90.4439468121738 17.8215128404264  88.2269657637363 20.0381275466361  85.5018680453704 20.0381275466361  C 82.7767550627451 20.0381275466361  80.5597740143076 17.8215128404264  80.5597740143076 15.0969646354023  C 80.5597740143076 12.3718669170364  82.7767550627451 10.1548858685989  85.5018680453704 10.1548858685989  C 88.2269657637363 10.1548858685989  90.4439468121738 12.3718669170364  90.4439468121738 15.0969646354023  Z M 171.942972670779 5.3032325750188  C 171.942972670779 8.02778078004292  169.725991622342 10.2443954862526  167.000878639717 10.2443954862526  C 164.275780921351 10.2443954862526  162.058799872913 8.02778078004292  162.058799872913 5.3032325750188  C 162.058799872913 2.57819591369093  164.275780921351 0.361214865253373  167.000878639717 0.361214865253373  C 169.725991622342 0.361214865253373  171.942972670779 2.57819591369093  171.942972670779 5.3032325750188  Z " fill-rule="nonzero" fill="#ed87e9" stroke="none" transform="matrix(1 0 0 1 1387 322 )" />
  </g>
</svg>