<?xml version="1.0" encoding="utf-8"?>
<svg version="1.1" xmlns:xlink="http://www.w3.org/1999/xlink" width="153px" height="111px" xmlns="http://www.w3.org/2000/svg">
  <defs>
    <mask fill="white" id="clip1781">
      <path d="M 57.6449910837183 14.593901624786  C 57.6449910837183 14.593901624786  57.6554100873163 14.346582697415  57.6554100873163 14.346582697415  C 57.6554100873163 14.346582697415  59.6528946072219 10.0881552122797  59.6528946072219 10.0881552122797  C 59.6528946072219 10.0881552122797  57.4099053354753 7.70323587969995  57.4099053354753 7.70323587969995  C 57.4099053354753 7.70323587969995  57.0260693836152 4.06525973624082  57.0260693836152 4.06525973624082  C 57.0260693836152 4.06525973624082  64.963807806761 0.830552230094099  64.963807806761 0.830552230094099  C 64.963807806761 0.830552230094099  66.945783847769 0.836462355963477  66.945783847769 0.836462355963477  C 66.945783847769 0.836462355963477  68.1245390376806 3.59666244496395  68.1245390376806 3.59666244496395  C 68.1245390376806 3.59666244496395  68.5096315306953 7.10965629487907  68.5096315306953 7.10965629487907  C 68.5096315306953 7.10965629487907  72.3367560413656 9.62865559923046  72.3367560413656 9.62865559923046  C 72.3367560413656 9.62865559923046  77.7697410270046 14.4065623465996  77.7697410270046 14.4065623465996  C 77.7697410270046 14.4065623465996  80.6838199999903 12.6575811229657  80.6838199999903 12.6575811229657  C 80.6838199999903 12.6575811229657  82.5303525114842 14.4207581857553  82.5303525114842 14.4207581857553  C 82.5303525114842 14.4207581857553  83.1780999163682 19.1861437170337  83.1780999163682 19.1861437170337  C 83.1780999163682 19.1861437170337  86.3486390269513 21.3247308912615  86.3486390269513 21.3247308912615  C 86.3486390269513 21.3247308912615  94.5393203276392 21.9775812947317  94.5393203276392 21.9775812947317  C 94.5393203276392 21.9775812947317  95.8628380275807 20.475577256497  95.8628380275807 20.475577256497  C 95.8628380275807 20.475577256497  95.4753309355381 18.3452889058614  95.4753309355381 18.3452889058614  C 95.4753309355381 18.3452889058614  100.234954069942 17.2302372923199  100.234954069942 17.2302372923199  C 100.234954069942 17.2302372923199  102.876660820842 17.7398069113851  102.876660820842 17.7398069113851  C 102.876660820842 17.7398069113851  103.132135246309 20.4972538361608  103.132135246309 20.4972538361608  C 103.132135246309 20.4972538361608  105.376269386203 20.7547918099183  105.376269386203 20.7547918099183  C 105.376269386203 20.7547918099183  113.572505319833 19.2759038629276  113.572505319833 19.2759038629276  C 113.572505319833 19.2759038629276  115.159538781042 19.9064405258706  115.159538781042 19.9064405258706  C 115.159538781042 19.9064405258706  115.548793951332 22.0402302021839  115.548793951332 22.0402302021839  C 115.548793951332 22.0402302021839  118.980744622355 22.9297364842813  118.980744622355 22.9297364842813  C 118.980744622355 22.9297364842813  126.239835631718 26.332997948397  126.239835631718 26.332997948397  C 126.239835631718 26.332997948397  130.3393455542 24.8410197980426  130.3393455542 24.8410197980426  C 130.3393455542 24.8410197980426  139.313340014073 27.8788070145003  139.313340014073 27.8788070145003  C 139.313340014073 27.8788070145003  141.158876261656 30.2634151958217  141.158876261656 30.2634151958217  C 141.158876261656 30.2634151958217  145.653055296968 29.4027882954127  145.653055296968 29.4027882954127  C 145.653055296968 29.4027882954127  148.427411114267 29.6636554128313  148.427411114267 29.6636554128313  C 148.427411114267 29.6636554128313  151.318182084183 33.3064849915097  151.318182084183 33.3064849915097  C 151.318182084183 33.3064849915097  152.487089825256 40.2034314471101  152.487089825256 40.2034314471101  C 152.487089825256 40.2034314471101  151.556615384683 42.5841318832729  151.556615384683 42.5841318832729  C 151.556615384683 42.5841318832729  149.711950538279 41.9502048952417  149.711950538279 41.9502048952417  C 149.711950538279 41.9502048952417  144.282379932838 45.9466779815945  144.282379932838 45.9466779815945  C 144.282379932838 45.9466779815945  135.029207352673 47.4224142110629  135.029207352673 47.4224142110629  C 135.029207352673 47.4224142110629  132.513333218187 49.7966390301648  132.513333218187 49.7966390301648  C 132.513333218187 49.7966390301648  134.48636222893 52.1842494715219  134.48636222893 52.1842494715219  C 134.48636222893 52.1842494715219  134.733360936979 57.7499239056654  134.733360936979 57.7499239056654  C 134.733360936979 57.7499239056654  137.24542324088 58.3867150585108  137.24542324088 58.3867150585108  C 137.24542324088 58.3867150585108  143.561703020028 65.927436963884  143.561703020028 65.927436963884  C 143.561703020028 65.927436963884  143.931029394846 75.8295303445205  143.931029394846 75.8295303445205  C 143.931029394846 75.8295303445205  139.694208277761 78.8235536120679  139.694208277761 78.8235536120679  C 139.694208277761 78.8235536120679  136.005011361519 75.1809652630169  136.005011361519 75.1809652630169  C 136.005011361519 75.1809652630169  132.452132013914 70.6568888949158  132.452132013914 70.6568888949158  C 132.452132013914 70.6568888949158  132.192261013379 67.8994288598343  132.192261013379 67.8994288598343  C 132.192261013379 67.8994288598343  129.685979326378 67.3867669566333  129.685979326378 67.3867669566333  C 129.685979326378 67.3867669566333  126.775446630843 68.2521161892033  126.775446630843 68.2521161892033  C 126.775446630843 68.2521161892033  122.022135219607 66.1105573456534  122.022135219607 66.1105573456534  C 122.022135219607 66.1105573456534  119.754711542259 71.2387120314861  119.754711542259 71.2387120314861  C 119.754711542259 71.2387120314861  115.65634384998 71.4782110984382  115.65634384998 71.4782110984382  C 115.65634384998 71.4782110984382  112.736465794478 75.7312659802432  112.736465794478 75.7312659802432  C 112.736465794478 75.7312659802432  110.89254221063 74.8517392629457  110.89254221063 74.8517392629457  C 110.89254221063 74.8517392629457  107.982009515095 75.7170884955156  107.982009515095 75.7170884955156  C 107.982009515095 75.7170884955156  103.631312707153 73.3223880007641  103.631312707153 73.3223880007641  C 103.631312707153 73.3223880007641  100.052198116798 77.1993929882061  100.052198116798 77.1993929882061  C 100.052198116798 77.1993929882061  100.046906399045 78.9526778882346  100.046906399045 78.9526778882346  C 100.046906399045 78.9526778882346  107.037918002219 82.6094821789104  107.037918002219 82.6094821789104  C 107.037918002219 82.6094821789104  108.612362310377 85.3717362158246  108.612362310377 85.3717362158246  C 108.612362310377 85.3717362158246  103.587940494099 87.1100543907145  103.587940494099 87.1100543907145  C 103.587940494099 87.1100543907145  95.9237086094079 86.8363540319265  95.9237086094079 86.8363540319265  C 95.9237086094079 86.8363540319265  95.0094997379602 83.8278447504542  95.0094997379602 83.8278447504542  C 95.0094997379602 83.8278447504542  92.1046386242635 82.8140501470017  92.1046386242635 82.8140501470017  C 92.1046386242635 82.8140501470017  87.3374551393711 85.5600159399495  87.3374551393711 85.5600159399495  C 87.3374551393711 85.5600159399495  84.1764583553175 84.0472614509317  84.1764583553175 84.0472614509317  C 84.1764583553175 84.0472614509317  83.9244027066239 80.1570841022095  83.9244027066239 80.1570841022095  C 83.9244027066239 80.1570841022095  82.3473099016454 78.2723465356983  82.3473099016454 78.2723465356983  C 82.3473099016454 78.2723465356983  82.3533771752403 76.2620996413485  82.3533771752403 76.2620996413485  C 82.3533771752403 76.2620996413485  77.8648565320425 75.2479528076792  77.8648565320425 75.2479528076792  C 77.8648565320425 75.2479528076792  76.6687251981441 76.4968685099561  76.6687251981441 76.4968685099561  C 76.6687251981441 76.4968685099561  77.3235255887535 79.5081003649395  77.3235255887535 79.5081003649395  C 77.3235255887535 79.5081003649395  73.3207429557299 80.9994929216334  73.3207429557299 80.9994929216334  C 73.3207429557299 80.9994929216334  72.3875188971097 83.1258429363969  72.3875188971097 83.1258429363969  C 72.3875188971097 83.1258429363969  73.3063608793649 85.7646520816312  73.3063608793649 85.7646520816312  C 73.3063608793649 85.7646520816312  65.3519770230088 94.514428241407  65.3519770230088 94.514428241407  C 65.3519770230088 94.514428241407  66.6399273099587 104.796841106006  66.6399273099587 104.796841106006  C 66.6399273099587 104.796841106006  62.7970366810918 107.792913077345  62.7970366810918 107.792913077345  C 62.7970366810918 107.792913077345  60.9561414581509 105.91001095365  60.9561414581509 105.91001095365  C 60.9561414581509 105.91001095365  53.2809304461974 110.148011708278  53.2809304461974 110.148011708278  C 53.2809304461974 110.148011708278  50.3837334421609 108.634295796832  50.3837334421609 108.634295796832  C 50.3837334421609 108.634295796832  39.3459294895247 88.4200693622943  39.3459294895247 88.4200693622943  C 39.3459294895247 88.4200693622943  34.9918455601501 85.3995545367609  34.9918455601501 85.3995545367609  C 34.9918455601501 85.3995545367609  31.426223179366 84.5148938236994  31.426223179366 84.5148938236994  C 31.426223179366 84.5148938236994  29.8517867850439 81.7500177256185  29.8517867850439 81.7500177256185  C 29.8517867850439 81.7500177256185  31.8437219478977 78.7475522951352  31.8437219478977 78.7475522951352  C 31.8437219478977 78.7475522951352  28.6783365026104 76.3581343796139  28.6783365026104 76.3581343796139  C 28.6783365026104 76.3581343796139  24.8380785428947 79.3559622579139  24.8380785428947 79.3559622579139  C 24.8380785428947 79.3559622579139  21.0067755272789 79.9694677595598  21.0067755272789 79.9694677595598  C 21.0067755272789 79.9694677595598  18.5072592899943 69.0576378521362  18.5072592899943 69.0576378521362  C 18.5072592899943 69.0576378521362  17.8530779371547 66.4239880492572  17.8530779371547 66.4239880492572  C 17.8530779371547 66.4239880492572  17.2501149252363 48.5684148865734  17.2501149252363 48.5684148865734  C 17.2501149252363 48.5684148865734  13.8384755517163 39.7838719437699  13.8384755517163 39.7838719437699  C 13.8384755517163 39.7838719437699  16.3586134847038 38.0363380979001  16.3586134847038 38.0363380979001  C 16.3586134847038 38.0363380979001  9.12752953784366 25.3536021653881  9.12752953784366 25.3536021653881  C 9.12752953784366 25.3536021653881  0.295513676667042 18.684650920382  0.295513676667042 18.684650920382  C 0.295513676667042 18.684650920382  1.49696046982365 14.8005558795456  1.49696046982365 14.8005558795456  C 1.49696046982365 14.8005558795456  2.55591866157602 13.5512311357267  2.55591866157602 13.5512311357267  C 2.55591866157602 13.5512311357267  15.5108878628162 11.83481328972  15.5108878628162 11.83481328972  C 15.5108878628162 11.83481328972  24.0928458790107 14.2430051631937  24.0928458790107 14.2430051631937  C 24.0928458790107 14.2430051631937  29.1173978339098 12.7529114007979  29.1173978339098 12.7529114007979  C 29.1173978339098 12.7529114007979  31.0902914301406 15.7680737254699  31.0902914301406 15.7680737254699  C 31.0902914301406 15.7680737254699  37.4163870027872 21.804622274003  37.4163870027872 21.804622274003  C 37.4163870027872 21.804622274003  42.4381550463527 20.945568610294  42.4381550463527 20.945568610294  C 42.4381550463527 20.945568610294  42.4491288977243 17.3096437926874  42.4491288977243 17.3096437926874  C 42.4491288977243 17.3096437926874  43.7752950944872 14.9301232840495  43.7752950944872 14.9301232840495  C 43.7752950944872 14.9301232840495  48.8044880740288 13.0677073242491  48.8044880740288 13.0677073242491  C 48.8044880740288 13.0677073242491  50.6419724340312 16.0807178107237  50.6419724340312 16.0807178107237  C 50.6419724340312 16.0807178107237  53.5497792530238 14.0791237182236  53.5497792530238 14.0791237182236  C 53.5497792530238 14.0791237182236  57.6449910837183 14.593901624786  57.6449910837183 14.593901624786  Z " fill-rule="evenodd" />
    </mask>
  </defs>
  <g transform="matrix(1 0 0 1 -876 -717 )">
    <path d="M 57.6449910837183 14.593901624786  C 57.6449910837183 14.593901624786  57.6554100873163 14.346582697415  57.6554100873163 14.346582697415  C 57.6554100873163 14.346582697415  59.6528946072219 10.0881552122797  59.6528946072219 10.0881552122797  C 59.6528946072219 10.0881552122797  57.4099053354753 7.70323587969995  57.4099053354753 7.70323587969995  C 57.4099053354753 7.70323587969995  57.0260693836152 4.06525973624082  57.0260693836152 4.06525973624082  C 57.0260693836152 4.06525973624082  64.963807806761 0.830552230094099  64.963807806761 0.830552230094099  C 64.963807806761 0.830552230094099  66.945783847769 0.836462355963477  66.945783847769 0.836462355963477  C 66.945783847769 0.836462355963477  68.1245390376806 3.59666244496395  68.1245390376806 3.59666244496395  C 68.1245390376806 3.59666244496395  68.5096315306953 7.10965629487907  68.5096315306953 7.10965629487907  C 68.5096315306953 7.10965629487907  72.3367560413656 9.62865559923046  72.3367560413656 9.62865559923046  C 72.3367560413656 9.62865559923046  77.7697410270046 14.4065623465996  77.7697410270046 14.4065623465996  C 77.7697410270046 14.4065623465996  80.6838199999903 12.6575811229657  80.6838199999903 12.6575811229657  C 80.6838199999903 12.6575811229657  82.5303525114842 14.4207581857553  82.5303525114842 14.4207581857553  C 82.5303525114842 14.4207581857553  83.1780999163682 19.1861437170337  83.1780999163682 19.1861437170337  C 83.1780999163682 19.1861437170337  86.3486390269513 21.3247308912615  86.3486390269513 21.3247308912615  C 86.3486390269513 21.3247308912615  94.5393203276392 21.9775812947317  94.5393203276392 21.9775812947317  C 94.5393203276392 21.9775812947317  95.8628380275807 20.475577256497  95.8628380275807 20.475577256497  C 95.8628380275807 20.475577256497  95.4753309355381 18.3452889058614  95.4753309355381 18.3452889058614  C 95.4753309355381 18.3452889058614  100.234954069942 17.2302372923199  100.234954069942 17.2302372923199  C 100.234954069942 17.2302372923199  102.876660820842 17.7398069113851  102.876660820842 17.7398069113851  C 102.876660820842 17.7398069113851  103.132135246309 20.4972538361608  103.132135246309 20.4972538361608  C 103.132135246309 20.4972538361608  105.376269386203 20.7547918099183  105.376269386203 20.7547918099183  C 105.376269386203 20.7547918099183  113.572505319833 19.2759038629276  113.572505319833 19.2759038629276  C 113.572505319833 19.2759038629276  115.159538781042 19.9064405258706  115.159538781042 19.9064405258706  C 115.159538781042 19.9064405258706  115.548793951332 22.0402302021839  115.548793951332 22.0402302021839  C 115.548793951332 22.0402302021839  118.980744622355 22.9297364842813  118.980744622355 22.9297364842813  C 118.980744622355 22.9297364842813  126.239835631718 26.332997948397  126.239835631718 26.332997948397  C 126.239835631718 26.332997948397  130.3393455542 24.8410197980426  130.3393455542 24.8410197980426  C 130.3393455542 24.8410197980426  139.313340014073 27.8788070145003  139.313340014073 27.8788070145003  C 139.313340014073 27.8788070145003  141.158876261656 30.2634151958217  141.158876261656 30.2634151958217  C 141.158876261656 30.2634151958217  145.653055296968 29.4027882954127  145.653055296968 29.4027882954127  C 145.653055296968 29.4027882954127  148.427411114267 29.6636554128313  148.427411114267 29.6636554128313  C 148.427411114267 29.6636554128313  151.318182084183 33.3064849915097  151.318182084183 33.3064849915097  C 151.318182084183 33.3064849915097  152.487089825256 40.2034314471101  152.487089825256 40.2034314471101  C 152.487089825256 40.2034314471101  151.556615384683 42.5841318832729  151.556615384683 42.5841318832729  C 151.556615384683 42.5841318832729  149.711950538279 41.9502048952417  149.711950538279 41.9502048952417  C 149.711950538279 41.9502048952417  144.282379932838 45.9466779815945  144.282379932838 45.9466779815945  C 144.282379932838 45.9466779815945  135.029207352673 47.4224142110629  135.029207352673 47.4224142110629  C 135.029207352673 47.4224142110629  132.513333218187 49.7966390301648  132.513333218187 49.7966390301648  C 132.513333218187 49.7966390301648  134.48636222893 52.1842494715219  134.48636222893 52.1842494715219  C 134.48636222893 52.1842494715219  134.733360936979 57.7499239056654  134.733360936979 57.7499239056654  C 134.733360936979 57.7499239056654  137.24542324088 58.3867150585108  137.24542324088 58.3867150585108  C 137.24542324088 58.3867150585108  143.561703020028 65.927436963884  143.561703020028 65.927436963884  C 143.561703020028 65.927436963884  143.931029394846 75.8295303445205  143.931029394846 75.8295303445205  C 143.931029394846 75.8295303445205  139.694208277761 78.8235536120679  139.694208277761 78.8235536120679  C 139.694208277761 78.8235536120679  136.005011361519 75.1809652630169  136.005011361519 75.1809652630169  C 136.005011361519 75.1809652630169  132.452132013914 70.6568888949158  132.452132013914 70.6568888949158  C 132.452132013914 70.6568888949158  132.192261013379 67.8994288598343  132.192261013379 67.8994288598343  C 132.192261013379 67.8994288598343  129.685979326378 67.3867669566333  129.685979326378 67.3867669566333  C 129.685979326378 67.3867669566333  126.775446630843 68.2521161892033  126.775446630843 68.2521161892033  C 126.775446630843 68.2521161892033  122.022135219607 66.1105573456534  122.022135219607 66.1105573456534  C 122.022135219607 66.1105573456534  119.754711542259 71.2387120314861  119.754711542259 71.2387120314861  C 119.754711542259 71.2387120314861  115.65634384998 71.4782110984382  115.65634384998 71.4782110984382  C 115.65634384998 71.4782110984382  112.736465794478 75.7312659802432  112.736465794478 75.7312659802432  C 112.736465794478 75.7312659802432  110.89254221063 74.8517392629457  110.89254221063 74.8517392629457  C 110.89254221063 74.8517392629457  107.982009515095 75.7170884955156  107.982009515095 75.7170884955156  C 107.982009515095 75.7170884955156  103.631312707153 73.3223880007641  103.631312707153 73.3223880007641  C 103.631312707153 73.3223880007641  100.052198116798 77.1993929882061  100.052198116798 77.1993929882061  C 100.052198116798 77.1993929882061  100.046906399045 78.9526778882346  100.046906399045 78.9526778882346  C 100.046906399045 78.9526778882346  107.037918002219 82.6094821789104  107.037918002219 82.6094821789104  C 107.037918002219 82.6094821789104  108.612362310377 85.3717362158246  108.612362310377 85.3717362158246  C 108.612362310377 85.3717362158246  103.587940494099 87.1100543907145  103.587940494099 87.1100543907145  C 103.587940494099 87.1100543907145  95.9237086094079 86.8363540319265  95.9237086094079 86.8363540319265  C 95.9237086094079 86.8363540319265  95.0094997379602 83.8278447504542  95.0094997379602 83.8278447504542  C 95.0094997379602 83.8278447504542  92.1046386242635 82.8140501470017  92.1046386242635 82.8140501470017  C 92.1046386242635 82.8140501470017  87.3374551393711 85.5600159399495  87.3374551393711 85.5600159399495  C 87.3374551393711 85.5600159399495  84.1764583553175 84.0472614509317  84.1764583553175 84.0472614509317  C 84.1764583553175 84.0472614509317  83.9244027066239 80.1570841022095  83.9244027066239 80.1570841022095  C 83.9244027066239 80.1570841022095  82.3473099016454 78.2723465356983  82.3473099016454 78.2723465356983  C 82.3473099016454 78.2723465356983  82.3533771752403 76.2620996413485  82.3533771752403 76.2620996413485  C 82.3533771752403 76.2620996413485  77.8648565320425 75.2479528076792  77.8648565320425 75.2479528076792  C 77.8648565320425 75.2479528076792  76.6687251981441 76.4968685099561  76.6687251981441 76.4968685099561  C 76.6687251981441 76.4968685099561  77.3235255887535 79.5081003649395  77.3235255887535 79.5081003649395  C 77.3235255887535 79.5081003649395  73.3207429557299 80.9994929216334  73.3207429557299 80.9994929216334  C 73.3207429557299 80.9994929216334  72.3875188971097 83.1258429363969  72.3875188971097 83.1258429363969  C 72.3875188971097 83.1258429363969  73.3063608793649 85.7646520816312  73.3063608793649 85.7646520816312  C 73.3063608793649 85.7646520816312  65.3519770230088 94.514428241407  65.3519770230088 94.514428241407  C 65.3519770230088 94.514428241407  66.6399273099587 104.796841106006  66.6399273099587 104.796841106006  C 66.6399273099587 104.796841106006  62.7970366810918 107.792913077345  62.7970366810918 107.792913077345  C 62.7970366810918 107.792913077345  60.9561414581509 105.91001095365  60.9561414581509 105.91001095365  C 60.9561414581509 105.91001095365  53.2809304461974 110.148011708278  53.2809304461974 110.148011708278  C 53.2809304461974 110.148011708278  50.3837334421609 108.634295796832  50.3837334421609 108.634295796832  C 50.3837334421609 108.634295796832  39.3459294895247 88.4200693622943  39.3459294895247 88.4200693622943  C 39.3459294895247 88.4200693622943  34.9918455601501 85.3995545367609  34.9918455601501 85.3995545367609  C 34.9918455601501 85.3995545367609  31.426223179366 84.5148938236994  31.426223179366 84.5148938236994  C 31.426223179366 84.5148938236994  29.8517867850439 81.7500177256185  29.8517867850439 81.7500177256185  C 29.8517867850439 81.7500177256185  31.8437219478977 78.7475522951352  31.8437219478977 78.7475522951352  C 31.8437219478977 78.7475522951352  28.6783365026104 76.3581343796139  28.6783365026104 76.3581343796139  C 28.6783365026104 76.3581343796139  24.8380785428947 79.3559622579139  24.8380785428947 79.3559622579139  C 24.8380785428947 79.3559622579139  21.0067755272789 79.9694677595598  21.0067755272789 79.9694677595598  C 21.0067755272789 79.9694677595598  18.5072592899943 69.0576378521362  18.5072592899943 69.0576378521362  C 18.5072592899943 69.0576378521362  17.8530779371547 66.4239880492572  17.8530779371547 66.4239880492572  C 17.8530779371547 66.4239880492572  17.2501149252363 48.5684148865734  17.2501149252363 48.5684148865734  C 17.2501149252363 48.5684148865734  13.8384755517163 39.7838719437699  13.8384755517163 39.7838719437699  C 13.8384755517163 39.7838719437699  16.3586134847038 38.0363380979001  16.3586134847038 38.0363380979001  C 16.3586134847038 38.0363380979001  9.12752953784366 25.3536021653881  9.12752953784366 25.3536021653881  C 9.12752953784366 25.3536021653881  0.295513676667042 18.684650920382  0.295513676667042 18.684650920382  C 0.295513676667042 18.684650920382  1.49696046982365 14.8005558795456  1.49696046982365 14.8005558795456  C 1.49696046982365 14.8005558795456  2.55591866157602 13.5512311357267  2.55591866157602 13.5512311357267  C 2.55591866157602 13.5512311357267  15.5108878628162 11.83481328972  15.5108878628162 11.83481328972  C 15.5108878628162 11.83481328972  24.0928458790107 14.2430051631937  24.0928458790107 14.2430051631937  C 24.0928458790107 14.2430051631937  29.1173978339098 12.7529114007979  29.1173978339098 12.7529114007979  C 29.1173978339098 12.7529114007979  31.0902914301406 15.7680737254699  31.0902914301406 15.7680737254699  C 31.0902914301406 15.7680737254699  37.4163870027872 21.804622274003  37.4163870027872 21.804622274003  C 37.4163870027872 21.804622274003  42.4381550463527 20.945568610294  42.4381550463527 20.945568610294  C 42.4381550463527 20.945568610294  42.4491288977243 17.3096437926874  42.4491288977243 17.3096437926874  C 42.4491288977243 17.3096437926874  43.7752950944872 14.9301232840495  43.7752950944872 14.9301232840495  C 43.7752950944872 14.9301232840495  48.8044880740288 13.0677073242491  48.8044880740288 13.0677073242491  C 48.8044880740288 13.0677073242491  50.6419724340312 16.0807178107237  50.6419724340312 16.0807178107237  C 50.6419724340312 16.0807178107237  53.5497792530238 14.0791237182236  53.5497792530238 14.0791237182236  C 53.5497792530238 14.0791237182236  57.6449910837183 14.593901624786  57.6449910837183 14.593901624786  Z " fill-rule="nonzero" fill="#031e4b" stroke="none" transform="matrix(1 0 0 1 876 717 )" />
    <path d="M 57.6449910837183 14.593901624786  C 57.6449910837183 14.593901624786  57.6554100873163 14.346582697415  57.6554100873163 14.346582697415  C 57.6554100873163 14.346582697415  59.6528946072219 10.0881552122797  59.6528946072219 10.0881552122797  C 59.6528946072219 10.0881552122797  57.4099053354753 7.70323587969995  57.4099053354753 7.70323587969995  C 57.4099053354753 7.70323587969995  57.0260693836152 4.06525973624082  57.0260693836152 4.06525973624082  C 57.0260693836152 4.06525973624082  64.963807806761 0.830552230094099  64.963807806761 0.830552230094099  C 64.963807806761 0.830552230094099  66.945783847769 0.836462355963477  66.945783847769 0.836462355963477  C 66.945783847769 0.836462355963477  68.1245390376806 3.59666244496395  68.1245390376806 3.59666244496395  C 68.1245390376806 3.59666244496395  68.5096315306953 7.10965629487907  68.5096315306953 7.10965629487907  C 68.5096315306953 7.10965629487907  72.3367560413656 9.62865559923046  72.3367560413656 9.62865559923046  C 72.3367560413656 9.62865559923046  77.7697410270046 14.4065623465996  77.7697410270046 14.4065623465996  C 77.7697410270046 14.4065623465996  80.6838199999903 12.6575811229657  80.6838199999903 12.6575811229657  C 80.6838199999903 12.6575811229657  82.5303525114842 14.4207581857553  82.5303525114842 14.4207581857553  C 82.5303525114842 14.4207581857553  83.1780999163682 19.1861437170337  83.1780999163682 19.1861437170337  C 83.1780999163682 19.1861437170337  86.3486390269513 21.3247308912615  86.3486390269513 21.3247308912615  C 86.3486390269513 21.3247308912615  94.5393203276392 21.9775812947317  94.5393203276392 21.9775812947317  C 94.5393203276392 21.9775812947317  95.8628380275807 20.475577256497  95.8628380275807 20.475577256497  C 95.8628380275807 20.475577256497  95.4753309355381 18.3452889058614  95.4753309355381 18.3452889058614  C 95.4753309355381 18.3452889058614  100.234954069942 17.2302372923199  100.234954069942 17.2302372923199  C 100.234954069942 17.2302372923199  102.876660820842 17.7398069113851  102.876660820842 17.7398069113851  C 102.876660820842 17.7398069113851  103.132135246309 20.4972538361608  103.132135246309 20.4972538361608  C 103.132135246309 20.4972538361608  105.376269386203 20.7547918099183  105.376269386203 20.7547918099183  C 105.376269386203 20.7547918099183  113.572505319833 19.2759038629276  113.572505319833 19.2759038629276  C 113.572505319833 19.2759038629276  115.159538781042 19.9064405258706  115.159538781042 19.9064405258706  C 115.159538781042 19.9064405258706  115.548793951332 22.0402302021839  115.548793951332 22.0402302021839  C 115.548793951332 22.0402302021839  118.980744622355 22.9297364842813  118.980744622355 22.9297364842813  C 118.980744622355 22.9297364842813  126.239835631718 26.332997948397  126.239835631718 26.332997948397  C 126.239835631718 26.332997948397  130.3393455542 24.8410197980426  130.3393455542 24.8410197980426  C 130.3393455542 24.8410197980426  139.313340014073 27.8788070145003  139.313340014073 27.8788070145003  C 139.313340014073 27.8788070145003  141.158876261656 30.2634151958217  141.158876261656 30.2634151958217  C 141.158876261656 30.2634151958217  145.653055296968 29.4027882954127  145.653055296968 29.4027882954127  C 145.653055296968 29.4027882954127  148.427411114267 29.6636554128313  148.427411114267 29.6636554128313  C 148.427411114267 29.6636554128313  151.318182084183 33.3064849915097  151.318182084183 33.3064849915097  C 151.318182084183 33.3064849915097  152.487089825256 40.2034314471101  152.487089825256 40.2034314471101  C 152.487089825256 40.2034314471101  151.556615384683 42.5841318832729  151.556615384683 42.5841318832729  C 151.556615384683 42.5841318832729  149.711950538279 41.9502048952417  149.711950538279 41.9502048952417  C 149.711950538279 41.9502048952417  144.282379932838 45.9466779815945  144.282379932838 45.9466779815945  C 144.282379932838 45.9466779815945  135.029207352673 47.4224142110629  135.029207352673 47.4224142110629  C 135.029207352673 47.4224142110629  132.513333218187 49.7966390301648  132.513333218187 49.7966390301648  C 132.513333218187 49.7966390301648  134.48636222893 52.1842494715219  134.48636222893 52.1842494715219  C 134.48636222893 52.1842494715219  134.733360936979 57.7499239056654  134.733360936979 57.7499239056654  C 134.733360936979 57.7499239056654  137.24542324088 58.3867150585108  137.24542324088 58.3867150585108  C 137.24542324088 58.3867150585108  143.561703020028 65.927436963884  143.561703020028 65.927436963884  C 143.561703020028 65.927436963884  143.931029394846 75.8295303445205  143.931029394846 75.8295303445205  C 143.931029394846 75.8295303445205  139.694208277761 78.8235536120679  139.694208277761 78.8235536120679  C 139.694208277761 78.8235536120679  136.005011361519 75.1809652630169  136.005011361519 75.1809652630169  C 136.005011361519 75.1809652630169  132.452132013914 70.6568888949158  132.452132013914 70.6568888949158  C 132.452132013914 70.6568888949158  132.192261013379 67.8994288598343  132.192261013379 67.8994288598343  C 132.192261013379 67.8994288598343  129.685979326378 67.3867669566333  129.685979326378 67.3867669566333  C 129.685979326378 67.3867669566333  126.775446630843 68.2521161892033  126.775446630843 68.2521161892033  C 126.775446630843 68.2521161892033  122.022135219607 66.1105573456534  122.022135219607 66.1105573456534  C 122.022135219607 66.1105573456534  119.754711542259 71.2387120314861  119.754711542259 71.2387120314861  C 119.754711542259 71.2387120314861  115.65634384998 71.4782110984382  115.65634384998 71.4782110984382  C 115.65634384998 71.4782110984382  112.736465794478 75.7312659802432  112.736465794478 75.7312659802432  C 112.736465794478 75.7312659802432  110.89254221063 74.8517392629457  110.89254221063 74.8517392629457  C 110.89254221063 74.8517392629457  107.982009515095 75.7170884955156  107.982009515095 75.7170884955156  C 107.982009515095 75.7170884955156  103.631312707153 73.3223880007641  103.631312707153 73.3223880007641  C 103.631312707153 73.3223880007641  100.052198116798 77.1993929882061  100.052198116798 77.1993929882061  C 100.052198116798 77.1993929882061  100.046906399045 78.9526778882346  100.046906399045 78.9526778882346  C 100.046906399045 78.9526778882346  107.037918002219 82.6094821789104  107.037918002219 82.6094821789104  C 107.037918002219 82.6094821789104  108.612362310377 85.3717362158246  108.612362310377 85.3717362158246  C 108.612362310377 85.3717362158246  103.587940494099 87.1100543907145  103.587940494099 87.1100543907145  C 103.587940494099 87.1100543907145  95.9237086094079 86.8363540319265  95.9237086094079 86.8363540319265  C 95.9237086094079 86.8363540319265  95.0094997379602 83.8278447504542  95.0094997379602 83.8278447504542  C 95.0094997379602 83.8278447504542  92.1046386242635 82.8140501470017  92.1046386242635 82.8140501470017  C 92.1046386242635 82.8140501470017  87.3374551393711 85.5600159399495  87.3374551393711 85.5600159399495  C 87.3374551393711 85.5600159399495  84.1764583553175 84.0472614509317  84.1764583553175 84.0472614509317  C 84.1764583553175 84.0472614509317  83.9244027066239 80.1570841022095  83.9244027066239 80.1570841022095  C 83.9244027066239 80.1570841022095  82.3473099016454 78.2723465356983  82.3473099016454 78.2723465356983  C 82.3473099016454 78.2723465356983  82.3533771752403 76.2620996413485  82.3533771752403 76.2620996413485  C 82.3533771752403 76.2620996413485  77.8648565320425 75.2479528076792  77.8648565320425 75.2479528076792  C 77.8648565320425 75.2479528076792  76.6687251981441 76.4968685099561  76.6687251981441 76.4968685099561  C 76.6687251981441 76.4968685099561  77.3235255887535 79.5081003649395  77.3235255887535 79.5081003649395  C 77.3235255887535 79.5081003649395  73.3207429557299 80.9994929216334  73.3207429557299 80.9994929216334  C 73.3207429557299 80.9994929216334  72.3875188971097 83.1258429363969  72.3875188971097 83.1258429363969  C 72.3875188971097 83.1258429363969  73.3063608793649 85.7646520816312  73.3063608793649 85.7646520816312  C 73.3063608793649 85.7646520816312  65.3519770230088 94.514428241407  65.3519770230088 94.514428241407  C 65.3519770230088 94.514428241407  66.6399273099587 104.796841106006  66.6399273099587 104.796841106006  C 66.6399273099587 104.796841106006  62.7970366810918 107.792913077345  62.7970366810918 107.792913077345  C 62.7970366810918 107.792913077345  60.9561414581509 105.91001095365  60.9561414581509 105.91001095365  C 60.9561414581509 105.91001095365  53.2809304461974 110.148011708278  53.2809304461974 110.148011708278  C 53.2809304461974 110.148011708278  50.3837334421609 108.634295796832  50.3837334421609 108.634295796832  C 50.3837334421609 108.634295796832  39.3459294895247 88.4200693622943  39.3459294895247 88.4200693622943  C 39.3459294895247 88.4200693622943  34.9918455601501 85.3995545367609  34.9918455601501 85.3995545367609  C 34.9918455601501 85.3995545367609  31.426223179366 84.5148938236994  31.426223179366 84.5148938236994  C 31.426223179366 84.5148938236994  29.8517867850439 81.7500177256185  29.8517867850439 81.7500177256185  C 29.8517867850439 81.7500177256185  31.8437219478977 78.7475522951352  31.8437219478977 78.7475522951352  C 31.8437219478977 78.7475522951352  28.6783365026104 76.3581343796139  28.6783365026104 76.3581343796139  C 28.6783365026104 76.3581343796139  24.8380785428947 79.3559622579139  24.8380785428947 79.3559622579139  C 24.8380785428947 79.3559622579139  21.0067755272789 79.9694677595598  21.0067755272789 79.9694677595598  C 21.0067755272789 79.9694677595598  18.5072592899943 69.0576378521362  18.5072592899943 69.0576378521362  C 18.5072592899943 69.0576378521362  17.8530779371547 66.4239880492572  17.8530779371547 66.4239880492572  C 17.8530779371547 66.4239880492572  17.2501149252363 48.5684148865734  17.2501149252363 48.5684148865734  C 17.2501149252363 48.5684148865734  13.8384755517163 39.7838719437699  13.8384755517163 39.7838719437699  C 13.8384755517163 39.7838719437699  16.3586134847038 38.0363380979001  16.3586134847038 38.0363380979001  C 16.3586134847038 38.0363380979001  9.12752953784366 25.3536021653881  9.12752953784366 25.3536021653881  C 9.12752953784366 25.3536021653881  0.295513676667042 18.684650920382  0.295513676667042 18.684650920382  C 0.295513676667042 18.684650920382  1.49696046982365 14.8005558795456  1.49696046982365 14.8005558795456  C 1.49696046982365 14.8005558795456  2.55591866157602 13.5512311357267  2.55591866157602 13.5512311357267  C 2.55591866157602 13.5512311357267  15.5108878628162 11.83481328972  15.5108878628162 11.83481328972  C 15.5108878628162 11.83481328972  24.0928458790107 14.2430051631937  24.0928458790107 14.2430051631937  C 24.0928458790107 14.2430051631937  29.1173978339098 12.7529114007979  29.1173978339098 12.7529114007979  C 29.1173978339098 12.7529114007979  31.0902914301406 15.7680737254699  31.0902914301406 15.7680737254699  C 31.0902914301406 15.7680737254699  37.4163870027872 21.804622274003  37.4163870027872 21.804622274003  C 37.4163870027872 21.804622274003  42.4381550463527 20.945568610294  42.4381550463527 20.945568610294  C 42.4381550463527 20.945568610294  42.4491288977243 17.3096437926874  42.4491288977243 17.3096437926874  C 42.4491288977243 17.3096437926874  43.7752950944872 14.9301232840495  43.7752950944872 14.9301232840495  C 43.7752950944872 14.9301232840495  48.8044880740288 13.0677073242491  48.8044880740288 13.0677073242491  C 48.8044880740288 13.0677073242491  50.6419724340312 16.0807178107237  50.6419724340312 16.0807178107237  C 50.6419724340312 16.0807178107237  53.5497792530238 14.0791237182236  53.5497792530238 14.0791237182236  C 53.5497792530238 14.0791237182236  57.6449910837183 14.593901624786  57.6449910837183 14.593901624786  Z " stroke-width="0.97600957434184" stroke="#47b3fe" fill="none" transform="matrix(1 0 0 1 876 717 )" mask="url(#clip1781)" />
  </g>
</svg>