<?xml version="1.0" encoding="utf-8"?>
<svg version="1.1" xmlns:xlink="http://www.w3.org/1999/xlink" width="96px" height="75px" xmlns="http://www.w3.org/2000/svg">
  <defs>
    <mask fill="white" id="clip1788">
      <path d="M 27.9109384375556 18.5030012764834  C 27.9109384375556 18.5030012764834  26.0778307225889 12.4887489935634  26.0778307225889 12.4887489935634  C 26.0778307225889 12.4887489935634  28.5976503406944 10.7433022257044  28.5976503406944 10.7433022257044  C 28.5976503406944 10.7433022257044  28.6086287476105 7.11973647390437  28.6086287476105 7.11973647390437  C 28.6086287476105 7.11973647390437  29.9331530648867 5.99603864690209  29.9331530648867 5.99603864690209  C 29.9331530648867 5.99603864690209  33.1030643549898 6.25226093760705  33.1030643549898 6.25226093760705  C 33.1030643549898 6.25226093760705  38.5229704176556 8.64659283692026  38.5229704176556 8.64659283692026  C 38.5229704176556 8.64659283692026  39.4556884710585 6.89991989975999  39.4556884710585 6.89991989975999  C 39.4556884710585 6.89991989975999  38.1410275456037 4.76807718489226  38.1410275456037 4.76807718489226  C 38.1410275456037 4.76807718489226  38.5392596784593 3.27011080085595  38.5392596784593 3.27011080085595  C 38.5392596784593 3.27011080085595  41.9921672601884 0.528002927037619  41.9921672601884 0.528002927037619  C 41.9921672601884 0.528002927037619  48.5059718284126 2.04650197823651  48.5059718284126 2.04650197823651  C 48.5059718284126 2.04650197823651  51.954856196119 0.0509044635389273  51.954856196119 0.0509044635389273  C 51.954856196119 0.0509044635389273  54.4595174218105 2.4365764331493  54.4595174218105 2.4365764331493  C 54.4595174218105 2.4365764331493  60.5526107653443 0.953782804094772  60.5526107653443 0.953782804094772  C 60.5526107653443 0.953782804094772  61.7351688242302 3.08261678205656  61.7351688242302 3.08261678205656  C 61.7351688242302 3.08261678205656  59.8784176809706 5.45358867361347  59.8784176809706 5.45358867361347  C 59.8784176809706 5.45358867361347  56.6870630476517 9.94940556846348  56.6870630476517 9.94940556846348  C 56.6870630476517 9.94940556846348  56.6836572314025 11.0735394442927  56.6836572314025 11.0735394442927  C 56.6836572314025 11.0735394442927  58.5294167566663 12.3304937928051  58.5294167566663 12.3304937928051  C 58.5294167566663 12.3304937928051  71.2502329246761 7.61530683780961  71.2502329246761 7.61530683780961  C 71.2502329246761 7.61530683780961  75.7427212189632 10.0068837806342  75.7427212189632 10.0068837806342  C 75.7427212189632 10.0068837806342  77.0676260153239 8.7576038914757  77.0676260153239 8.7576038914757  C 77.0676260153239 8.7576038914757  75.7544711529117 6.1286655139063  75.7544711529117 6.1286655139063  C 75.7544711529117 6.1286655139063  76.0715370566311 4.38539637388897  76.0715370566311 4.38539637388897  C 76.0715370566311 4.38539637388897  84.3584067457825 6.15422407984795  84.3584067457825 6.15422407984795  C 84.3584067457825 6.15422407984795  85.9403198792663 7.28655567362352  85.9403198792663 7.28655567362352  C 85.9403198792663 7.28655567362352  88.1878477029504 7.04119361500216  88.1878477029504 7.04119361500216  C 88.1878477029504 7.04119361500216  91.6181520086989 11.1781868022679  91.6181520086989 11.1781868022679  C 91.6181520086989 11.1781868022679  95.4290129039089 19.0698525421273  95.4290129039089 19.0698525421273  C 95.4290129039089 19.0698525421273  92.9118434283155 20.8126908659034  92.9118434283155 20.8126908659034  C 92.9118434283155 20.8126908659034  90.6524511746618 24.6833602553396  90.6524511746618 24.6833602553396  C 90.6524511746618 24.6833602553396  88.6644937567503 25.301882434877  88.6644937567503 25.301882434877  C 88.6644937567503 25.301882434877  86.8039483915099 28.9251865573809  86.8039483915099 28.9251865573809  C 86.8039483915099 28.9251865573809  80.440327373014 31.9071980306049  80.440327373014 31.9071980306049  C 80.440327373014 31.9071980306049  77.9410465795604 30.6526628809843  77.9410465795604 30.6526628809843  C 77.9410465795604 30.6526628809843  76.3481365436496 33.1500017225859  76.3481365436496 33.1500017225859  C 76.3481365436496 33.1500017225859  76.3454943277852 34.0220993764486  76.3454943277852 34.0220993764486  C 76.3454943277852 34.0220993764486  70.915740726593 34.0059699303405  70.915740726593 34.0059699303405  C 70.915740726593 34.0059699303405  67.7333528931786 36.1235817556924  67.7333528931786 36.1235817556924  C 67.7333528931786 36.1235817556924  65.4868546529428 34.8663090915363  65.4868546529428 34.8663090915363  C 65.4868546529428 34.8663090915363  62.7063390451065 36.6101093390248  62.7063390451065 36.6101093390248  C 62.7063390451065 36.6101093390248  55.678985474844 39.7671865673831  55.678985474844 39.7671865673831  C 55.678985474844 39.7671865673831  50.0000691561684 35.0705988390514  50.0000691561684 35.0705988390514  C 50.0000691561684 35.0705988390514  49.5913359767294 38.8717646617677  49.5913359767294 38.8717646617677  C 49.5913359767294 38.8717646617677  51.5645022702324 44.0073506512961  51.5645022702324 44.0073506512961  C 51.5645022702324 44.0073506512961  45.9639893036374 45.9913239763654  45.9639893036374 45.9913239763654  C 45.9639893036374 45.9913239763654  43.1751533580443 49.6092542331262  43.1751533580443 49.6092542331262  C 43.1751533580443 49.6092542331262  37.744250392951 50.8445927691899  37.744250392951 50.8445927691899  C 37.744250392951 50.8445927691899  34.8299955061873 51.9626960897427  34.8299955061873 51.9626960897427  C 34.8299955061873 51.9626960897427  29.137781795805 51.945786988332  29.137781795805 51.945786988332  C 29.137781795805 51.945786988332  25.2876346736468 55.567541393305  25.2876346736468 55.567541393305  C 25.2876346736468 55.567541393305  15.0854993287046 58.9131556692563  15.0854993287046 58.9131556692563  C 15.0854993287046 58.9131556692563  10.045750880905 62.1493940737533  10.045750880905 62.1493940737533  C 10.045750880905 62.1493940737533  7.52491753264644 64.5201374757248  7.52491753264644 64.5201374757248  C 7.52491753264644 64.5201374757248  12.2668600689005 71.7866530938772  12.2668600689005 71.7866530938772  C 12.2668600689005 71.7866530938772  9.08207486495871 74.4048463562538  9.08207486495871 74.4048463562538  C 9.08207486495871 74.4048463562538  5.24369353004431 74.1431499085754  5.24369353004431 74.1431499085754  C 5.24369353004431 74.1431499085754  0.766611115723435 66.3759604110473  0.766611115723435 66.3759604110473  C 0.766611115723435 66.3759604110473  1.84016984355821 60.8761637667269  1.84016984355821 60.8761637667269  C 1.84016984355821 60.8761637667269  1.84812291330991 58.2511498285997  1.84812291330991 58.2511498285997  C 1.84812291330991 58.2511498285997  5.03974352969271 53.3768399356803  5.03974352969271 53.3768399356803  C 5.03974352969271 53.3768399356803  9.14662772147858 52.5169342070185  9.14662772147858 52.5169342070185  C 9.14662772147858 52.5169342070185  8.75825369601284 49.8889987417509  8.75825369601284 49.8889987417509  C 8.75825369601284 49.8889987417509  13.0002898714749 48.0257010574372  13.0002898714749 48.0257010574372  C 13.0002898714749 48.0257010574372  13.5423800892797 43.5228864510127  13.5423800892797 43.5228864510127  C 13.5423800892797 43.5228864510127  20.9692120375471 38.1658016109656  20.9692120375471 38.1658016109656  C 20.9692120375471 38.1658016109656  20.5987865844477 30.4858122857496  20.5987865844477 30.4858122857496  C 20.5987865844477 30.4858122857496  26.3100753318931 23.6253540562121  26.3100753318931 23.6253540562121  C 26.3100753318931 23.6253540562121  26.0538094574279 20.9986831325426  26.0538094574279 20.9986831325426  C 26.0538094574279 20.9986831325426  27.9109384375556 18.5030012764834  27.9109384375556 18.5030012764834  Z " fill-rule="evenodd" />
    </mask>
  </defs>
  <g transform="matrix(1 0 0 1 -1032 -827 )">
    <path d="M 27.9109384375556 18.5030012764834  C 27.9109384375556 18.5030012764834  26.0778307225889 12.4887489935634  26.0778307225889 12.4887489935634  C 26.0778307225889 12.4887489935634  28.5976503406944 10.7433022257044  28.5976503406944 10.7433022257044  C 28.5976503406944 10.7433022257044  28.6086287476105 7.11973647390437  28.6086287476105 7.11973647390437  C 28.6086287476105 7.11973647390437  29.9331530648867 5.99603864690209  29.9331530648867 5.99603864690209  C 29.9331530648867 5.99603864690209  33.1030643549898 6.25226093760705  33.1030643549898 6.25226093760705  C 33.1030643549898 6.25226093760705  38.5229704176556 8.64659283692026  38.5229704176556 8.64659283692026  C 38.5229704176556 8.64659283692026  39.4556884710585 6.89991989975999  39.4556884710585 6.89991989975999  C 39.4556884710585 6.89991989975999  38.1410275456037 4.76807718489226  38.1410275456037 4.76807718489226  C 38.1410275456037 4.76807718489226  38.5392596784593 3.27011080085595  38.5392596784593 3.27011080085595  C 38.5392596784593 3.27011080085595  41.9921672601884 0.528002927037619  41.9921672601884 0.528002927037619  C 41.9921672601884 0.528002927037619  48.5059718284126 2.04650197823651  48.5059718284126 2.04650197823651  C 48.5059718284126 2.04650197823651  51.954856196119 0.0509044635389273  51.954856196119 0.0509044635389273  C 51.954856196119 0.0509044635389273  54.4595174218105 2.4365764331493  54.4595174218105 2.4365764331493  C 54.4595174218105 2.4365764331493  60.5526107653443 0.953782804094772  60.5526107653443 0.953782804094772  C 60.5526107653443 0.953782804094772  61.7351688242302 3.08261678205656  61.7351688242302 3.08261678205656  C 61.7351688242302 3.08261678205656  59.8784176809706 5.45358867361347  59.8784176809706 5.45358867361347  C 59.8784176809706 5.45358867361347  56.6870630476517 9.94940556846348  56.6870630476517 9.94940556846348  C 56.6870630476517 9.94940556846348  56.6836572314025 11.0735394442927  56.6836572314025 11.0735394442927  C 56.6836572314025 11.0735394442927  58.5294167566663 12.3304937928051  58.5294167566663 12.3304937928051  C 58.5294167566663 12.3304937928051  71.2502329246761 7.61530683780961  71.2502329246761 7.61530683780961  C 71.2502329246761 7.61530683780961  75.7427212189632 10.0068837806342  75.7427212189632 10.0068837806342  C 75.7427212189632 10.0068837806342  77.0676260153239 8.7576038914757  77.0676260153239 8.7576038914757  C 77.0676260153239 8.7576038914757  75.7544711529117 6.1286655139063  75.7544711529117 6.1286655139063  C 75.7544711529117 6.1286655139063  76.0715370566311 4.38539637388897  76.0715370566311 4.38539637388897  C 76.0715370566311 4.38539637388897  84.3584067457825 6.15422407984795  84.3584067457825 6.15422407984795  C 84.3584067457825 6.15422407984795  85.9403198792663 7.28655567362352  85.9403198792663 7.28655567362352  C 85.9403198792663 7.28655567362352  88.1878477029504 7.04119361500216  88.1878477029504 7.04119361500216  C 88.1878477029504 7.04119361500216  91.6181520086989 11.1781868022679  91.6181520086989 11.1781868022679  C 91.6181520086989 11.1781868022679  95.4290129039089 19.0698525421273  95.4290129039089 19.0698525421273  C 95.4290129039089 19.0698525421273  92.9118434283155 20.8126908659034  92.9118434283155 20.8126908659034  C 92.9118434283155 20.8126908659034  90.6524511746618 24.6833602553396  90.6524511746618 24.6833602553396  C 90.6524511746618 24.6833602553396  88.6644937567503 25.301882434877  88.6644937567503 25.301882434877  C 88.6644937567503 25.301882434877  86.8039483915099 28.9251865573809  86.8039483915099 28.9251865573809  C 86.8039483915099 28.9251865573809  80.440327373014 31.9071980306049  80.440327373014 31.9071980306049  C 80.440327373014 31.9071980306049  77.9410465795604 30.6526628809843  77.9410465795604 30.6526628809843  C 77.9410465795604 30.6526628809843  76.3481365436496 33.1500017225859  76.3481365436496 33.1500017225859  C 76.3481365436496 33.1500017225859  76.3454943277852 34.0220993764486  76.3454943277852 34.0220993764486  C 76.3454943277852 34.0220993764486  70.915740726593 34.0059699303405  70.915740726593 34.0059699303405  C 70.915740726593 34.0059699303405  67.7333528931786 36.1235817556924  67.7333528931786 36.1235817556924  C 67.7333528931786 36.1235817556924  65.4868546529428 34.8663090915363  65.4868546529428 34.8663090915363  C 65.4868546529428 34.8663090915363  62.7063390451065 36.6101093390248  62.7063390451065 36.6101093390248  C 62.7063390451065 36.6101093390248  55.678985474844 39.7671865673831  55.678985474844 39.7671865673831  C 55.678985474844 39.7671865673831  50.0000691561684 35.0705988390514  50.0000691561684 35.0705988390514  C 50.0000691561684 35.0705988390514  49.5913359767294 38.8717646617677  49.5913359767294 38.8717646617677  C 49.5913359767294 38.8717646617677  51.5645022702324 44.0073506512961  51.5645022702324 44.0073506512961  C 51.5645022702324 44.0073506512961  45.9639893036374 45.9913239763654  45.9639893036374 45.9913239763654  C 45.9639893036374 45.9913239763654  43.1751533580443 49.6092542331262  43.1751533580443 49.6092542331262  C 43.1751533580443 49.6092542331262  37.744250392951 50.8445927691899  37.744250392951 50.8445927691899  C 37.744250392951 50.8445927691899  34.8299955061873 51.9626960897427  34.8299955061873 51.9626960897427  C 34.8299955061873 51.9626960897427  29.137781795805 51.945786988332  29.137781795805 51.945786988332  C 29.137781795805 51.945786988332  25.2876346736468 55.567541393305  25.2876346736468 55.567541393305  C 25.2876346736468 55.567541393305  15.0854993287046 58.9131556692563  15.0854993287046 58.9131556692563  C 15.0854993287046 58.9131556692563  10.045750880905 62.1493940737533  10.045750880905 62.1493940737533  C 10.045750880905 62.1493940737533  7.52491753264644 64.5201374757248  7.52491753264644 64.5201374757248  C 7.52491753264644 64.5201374757248  12.2668600689005 71.7866530938772  12.2668600689005 71.7866530938772  C 12.2668600689005 71.7866530938772  9.08207486495871 74.4048463562538  9.08207486495871 74.4048463562538  C 9.08207486495871 74.4048463562538  5.24369353004431 74.1431499085754  5.24369353004431 74.1431499085754  C 5.24369353004431 74.1431499085754  0.766611115723435 66.3759604110473  0.766611115723435 66.3759604110473  C 0.766611115723435 66.3759604110473  1.84016984355821 60.8761637667269  1.84016984355821 60.8761637667269  C 1.84016984355821 60.8761637667269  1.84812291330991 58.2511498285997  1.84812291330991 58.2511498285997  C 1.84812291330991 58.2511498285997  5.03974352969271 53.3768399356803  5.03974352969271 53.3768399356803  C 5.03974352969271 53.3768399356803  9.14662772147858 52.5169342070185  9.14662772147858 52.5169342070185  C 9.14662772147858 52.5169342070185  8.75825369601284 49.8889987417509  8.75825369601284 49.8889987417509  C 8.75825369601284 49.8889987417509  13.0002898714749 48.0257010574372  13.0002898714749 48.0257010574372  C 13.0002898714749 48.0257010574372  13.5423800892797 43.5228864510127  13.5423800892797 43.5228864510127  C 13.5423800892797 43.5228864510127  20.9692120375471 38.1658016109656  20.9692120375471 38.1658016109656  C 20.9692120375471 38.1658016109656  20.5987865844477 30.4858122857496  20.5987865844477 30.4858122857496  C 20.5987865844477 30.4858122857496  26.3100753318931 23.6253540562121  26.3100753318931 23.6253540562121  C 26.3100753318931 23.6253540562121  26.0538094574279 20.9986831325426  26.0538094574279 20.9986831325426  C 26.0538094574279 20.9986831325426  27.9109384375556 18.5030012764834  27.9109384375556 18.5030012764834  Z " fill-rule="nonzero" fill="#00bfdf" stroke="none" transform="matrix(1 0 0 1 1032 827 )" />
    <path d="M 27.9109384375556 18.5030012764834  C 27.9109384375556 18.5030012764834  26.0778307225889 12.4887489935634  26.0778307225889 12.4887489935634  C 26.0778307225889 12.4887489935634  28.5976503406944 10.7433022257044  28.5976503406944 10.7433022257044  C 28.5976503406944 10.7433022257044  28.6086287476105 7.11973647390437  28.6086287476105 7.11973647390437  C 28.6086287476105 7.11973647390437  29.9331530648867 5.99603864690209  29.9331530648867 5.99603864690209  C 29.9331530648867 5.99603864690209  33.1030643549898 6.25226093760705  33.1030643549898 6.25226093760705  C 33.1030643549898 6.25226093760705  38.5229704176556 8.64659283692026  38.5229704176556 8.64659283692026  C 38.5229704176556 8.64659283692026  39.4556884710585 6.89991989975999  39.4556884710585 6.89991989975999  C 39.4556884710585 6.89991989975999  38.1410275456037 4.76807718489226  38.1410275456037 4.76807718489226  C 38.1410275456037 4.76807718489226  38.5392596784593 3.27011080085595  38.5392596784593 3.27011080085595  C 38.5392596784593 3.27011080085595  41.9921672601884 0.528002927037619  41.9921672601884 0.528002927037619  C 41.9921672601884 0.528002927037619  48.5059718284126 2.04650197823651  48.5059718284126 2.04650197823651  C 48.5059718284126 2.04650197823651  51.954856196119 0.0509044635389273  51.954856196119 0.0509044635389273  C 51.954856196119 0.0509044635389273  54.4595174218105 2.4365764331493  54.4595174218105 2.4365764331493  C 54.4595174218105 2.4365764331493  60.5526107653443 0.953782804094772  60.5526107653443 0.953782804094772  C 60.5526107653443 0.953782804094772  61.7351688242302 3.08261678205656  61.7351688242302 3.08261678205656  C 61.7351688242302 3.08261678205656  59.8784176809706 5.45358867361347  59.8784176809706 5.45358867361347  C 59.8784176809706 5.45358867361347  56.6870630476517 9.94940556846348  56.6870630476517 9.94940556846348  C 56.6870630476517 9.94940556846348  56.6836572314025 11.0735394442927  56.6836572314025 11.0735394442927  C 56.6836572314025 11.0735394442927  58.5294167566663 12.3304937928051  58.5294167566663 12.3304937928051  C 58.5294167566663 12.3304937928051  71.2502329246761 7.61530683780961  71.2502329246761 7.61530683780961  C 71.2502329246761 7.61530683780961  75.7427212189632 10.0068837806342  75.7427212189632 10.0068837806342  C 75.7427212189632 10.0068837806342  77.0676260153239 8.7576038914757  77.0676260153239 8.7576038914757  C 77.0676260153239 8.7576038914757  75.7544711529117 6.1286655139063  75.7544711529117 6.1286655139063  C 75.7544711529117 6.1286655139063  76.0715370566311 4.38539637388897  76.0715370566311 4.38539637388897  C 76.0715370566311 4.38539637388897  84.3584067457825 6.15422407984795  84.3584067457825 6.15422407984795  C 84.3584067457825 6.15422407984795  85.9403198792663 7.28655567362352  85.9403198792663 7.28655567362352  C 85.9403198792663 7.28655567362352  88.1878477029504 7.04119361500216  88.1878477029504 7.04119361500216  C 88.1878477029504 7.04119361500216  91.6181520086989 11.1781868022679  91.6181520086989 11.1781868022679  C 91.6181520086989 11.1781868022679  95.4290129039089 19.0698525421273  95.4290129039089 19.0698525421273  C 95.4290129039089 19.0698525421273  92.9118434283155 20.8126908659034  92.9118434283155 20.8126908659034  C 92.9118434283155 20.8126908659034  90.6524511746618 24.6833602553396  90.6524511746618 24.6833602553396  C 90.6524511746618 24.6833602553396  88.6644937567503 25.301882434877  88.6644937567503 25.301882434877  C 88.6644937567503 25.301882434877  86.8039483915099 28.9251865573809  86.8039483915099 28.9251865573809  C 86.8039483915099 28.9251865573809  80.440327373014 31.9071980306049  80.440327373014 31.9071980306049  C 80.440327373014 31.9071980306049  77.9410465795604 30.6526628809843  77.9410465795604 30.6526628809843  C 77.9410465795604 30.6526628809843  76.3481365436496 33.1500017225859  76.3481365436496 33.1500017225859  C 76.3481365436496 33.1500017225859  76.3454943277852 34.0220993764486  76.3454943277852 34.0220993764486  C 76.3454943277852 34.0220993764486  70.915740726593 34.0059699303405  70.915740726593 34.0059699303405  C 70.915740726593 34.0059699303405  67.7333528931786 36.1235817556924  67.7333528931786 36.1235817556924  C 67.7333528931786 36.1235817556924  65.4868546529428 34.8663090915363  65.4868546529428 34.8663090915363  C 65.4868546529428 34.8663090915363  62.7063390451065 36.6101093390248  62.7063390451065 36.6101093390248  C 62.7063390451065 36.6101093390248  55.678985474844 39.7671865673831  55.678985474844 39.7671865673831  C 55.678985474844 39.7671865673831  50.0000691561684 35.0705988390514  50.0000691561684 35.0705988390514  C 50.0000691561684 35.0705988390514  49.5913359767294 38.8717646617677  49.5913359767294 38.8717646617677  C 49.5913359767294 38.8717646617677  51.5645022702324 44.0073506512961  51.5645022702324 44.0073506512961  C 51.5645022702324 44.0073506512961  45.9639893036374 45.9913239763654  45.9639893036374 45.9913239763654  C 45.9639893036374 45.9913239763654  43.1751533580443 49.6092542331262  43.1751533580443 49.6092542331262  C 43.1751533580443 49.6092542331262  37.744250392951 50.8445927691899  37.744250392951 50.8445927691899  C 37.744250392951 50.8445927691899  34.8299955061873 51.9626960897427  34.8299955061873 51.9626960897427  C 34.8299955061873 51.9626960897427  29.137781795805 51.945786988332  29.137781795805 51.945786988332  C 29.137781795805 51.945786988332  25.2876346736468 55.567541393305  25.2876346736468 55.567541393305  C 25.2876346736468 55.567541393305  15.0854993287046 58.9131556692563  15.0854993287046 58.9131556692563  C 15.0854993287046 58.9131556692563  10.045750880905 62.1493940737533  10.045750880905 62.1493940737533  C 10.045750880905 62.1493940737533  7.52491753264644 64.5201374757248  7.52491753264644 64.5201374757248  C 7.52491753264644 64.5201374757248  12.2668600689005 71.7866530938772  12.2668600689005 71.7866530938772  C 12.2668600689005 71.7866530938772  9.08207486495871 74.4048463562538  9.08207486495871 74.4048463562538  C 9.08207486495871 74.4048463562538  5.24369353004431 74.1431499085754  5.24369353004431 74.1431499085754  C 5.24369353004431 74.1431499085754  0.766611115723435 66.3759604110473  0.766611115723435 66.3759604110473  C 0.766611115723435 66.3759604110473  1.84016984355821 60.8761637667269  1.84016984355821 60.8761637667269  C 1.84016984355821 60.8761637667269  1.84812291330991 58.2511498285997  1.84812291330991 58.2511498285997  C 1.84812291330991 58.2511498285997  5.03974352969271 53.3768399356803  5.03974352969271 53.3768399356803  C 5.03974352969271 53.3768399356803  9.14662772147858 52.5169342070185  9.14662772147858 52.5169342070185  C 9.14662772147858 52.5169342070185  8.75825369601284 49.8889987417509  8.75825369601284 49.8889987417509  C 8.75825369601284 49.8889987417509  13.0002898714749 48.0257010574372  13.0002898714749 48.0257010574372  C 13.0002898714749 48.0257010574372  13.5423800892797 43.5228864510127  13.5423800892797 43.5228864510127  C 13.5423800892797 43.5228864510127  20.9692120375471 38.1658016109656  20.9692120375471 38.1658016109656  C 20.9692120375471 38.1658016109656  20.5987865844477 30.4858122857496  20.5987865844477 30.4858122857496  C 20.5987865844477 30.4858122857496  26.3100753318931 23.6253540562121  26.3100753318931 23.6253540562121  C 26.3100753318931 23.6253540562121  26.0538094574279 20.9986831325426  26.0538094574279 20.9986831325426  C 26.0538094574279 20.9986831325426  27.9109384375556 18.5030012764834  27.9109384375556 18.5030012764834  Z " stroke-width="0.97600957434184" stroke="#47b3fe" fill="none" transform="matrix(1 0 0 1 1032 827 )" mask="url(#clip1788)" />
  </g>
</svg>