<?xml version="1.0" encoding="utf-8"?>
<svg version="1.1" xmlns:xlink="http://www.w3.org/1999/xlink" width="70px" height="54px" xmlns="http://www.w3.org/2000/svg">
  <defs>
    <mask fill="white" id="clip1796">
      <path d="M 60.352916106192 40.6470047585752  C 60.352916106192 40.6470047585752  64.6780614465654 42.4027517908031  64.6780614465654 42.4027517908031  C 64.6780614465654 42.4027517908031  63.0895027617403 46.8940078962453  63.0895027617403 46.8940078962453  C 63.0895027617403 46.8940078962453  60.9823725734386 49.2498139533371  60.9823725734386 49.2498139533371  C 60.9823725734386 49.2498139533371  57.4107654841532 53.2500123546189  57.4107654841532 53.2500123546189  C 57.4107654841532 53.2500123546189  52.025127637846 52.357723810352  52.025127637846 52.357723810352  C 52.025127637846 52.357723810352  47.6943831427425 49.8468202200561  47.6943831427425 49.8468202200561  C 47.6943831427425 49.8468202200561  45.0594772770919 51.0888085243616  45.0594772770919 51.0888085243616  C 45.0594772770919 51.0888085243616  35.5954270254977 50.1895670076924  35.5954270254977 50.1895670076924  C 35.5954270254977 50.1895670076924  35.3438456896677 46.5655380876417  35.3438456896677 46.5655380876417  C 35.3438456896677 46.5655380876417  30.1938509695631 43.553116415063  30.1938509695631 43.553116415063  C 30.1938509695631 43.553116415063  28.6271219006476 40.8013663201295  28.6271219006476 40.8013663201295  C 28.6271219006476 40.8013663201295  30.8672895453431 38.433763813305  30.8672895453431 38.433763813305  C 30.8672895453431 38.433763813305  30.8797137363122 34.3114516023409  30.8797137363122 34.3114516023409  C 30.8797137363122 34.3114516023409  36.9637505409323 33.7059977746386  36.9637505409323 33.7059977746386  C 36.9637505409323 33.7059977746386  37.2326517187262 31.5833510200769  37.2326517187262 31.5833510200769  C 37.2326517187262 31.5833510200769  35.4022925000047 29.2053351676376  35.4022925000047 29.2053351676376  C 35.4022925000047 29.2053351676376  32.0827812492812 28.8200300572537  32.0827812492812 28.8200300572537  C 32.0827812492812 28.8200300572537  30.236241444645 31.8106878723365  30.236241444645 31.8106878723365  C 30.236241444645 31.8106878723365  25.5033413142019 30.9255743984254  25.5033413142019 30.9255743984254  C 25.5033413142019 30.9255743984254  24.1979875081197 28.5482553238794  24.1979875081197 28.5482553238794  C 24.1979875081197 28.5482553238794  21.0483951596204 26.3657544773147  21.0483951596204 26.3657544773147  C 21.0483951596204 26.3657544773147  22.1176027118288 19.997727116393  22.1176027118288 19.997727116393  C 22.1176027118288 19.997727116393  21.4629907360129 18.8704659051288  21.4629907360129 18.8704659051288  C 21.4629907360129 18.8704659051288  18.3027093307576 19.3635843299083  18.3027093307576 19.3635843299083  C 18.3027093307576 19.3635843299083  16.0740934973994 17.6080010404852  16.0740934973994 17.6080010404852  C 16.0740934973994 17.6080010404852  10.4260863829811 16.0904362084253  10.4260863829811 16.0904362084253  C 10.4260863829811 16.0904362084253  7.27547727908313 13.0839850514194  7.27547727908313 13.0839850514194  C 7.27547727908313 13.0839850514194  0.32047747488059 10.3135316958864  0.32047747488059 10.3135316958864  C 0.32047747488059 10.3135316958864  0.985763632373391 7.31847547035238  0.985763632373391 7.31847547035238  C 0.985763632373391 7.31847547035238  3.74803692431124 6.20403061746219  3.74803692431124 6.20403061746219  C 3.74803692431124 6.20403061746219  8.8666478527764 10.3390520571992  8.8666478527764 10.3390520571992  C 8.8666478527764 10.3390520571992  10.4416562156528 10.3437553079787  10.4416562156528 10.3437553079787  C 10.4416562156528 10.3437553079787  15.1769354837284 9.85882402344487  15.1769354837284 9.85882402344487  C 15.1769354837284 9.85882402344487  17.9439749259732 7.74363714720289  17.9439749259732 7.74363714720289  C 17.9439749259732 7.74363714720289  21.7490848800969 10.7529137385659  21.7490848800969 10.7529137385659  C 21.7490848800969 10.7529137385659  23.3323751619478 8.00969917282487  23.3323751619478 8.00969917282487  C 23.3323751619478 8.00969917282487  23.7306501516823 6.51018959792384  23.7306501516823 6.51018959792384  C 23.7306501516823 6.51018959792384  26.8938103222233 4.77157807603567  26.8938103222233 4.77157807603567  C 26.8938103222233 4.77157807603567  27.8243550131685 1.15282115171965  27.8243550131685 1.15282115171965  C 27.8243550131685 1.15282115171965  30.9815091518187 0.536014199219153  30.9815091518187 0.536014199219153  C 30.9815091518187 0.536014199219153  39.2856129944057 5.68391727515325  39.2856129944057 5.68391727515325  C 39.2856129944057 5.68391727515325  44.9317458488722 7.82335637694246  44.9317458488722 7.82335637694246  C 44.9317458488722 7.82335637694246  55.6637242078279 24.9692939979643  55.6637242078279 24.9692939979643  C 55.6637242078279 24.9692939979643  55.2634200823193 27.1420652122221  55.2634200823193 27.1420652122221  C 55.2634200823193 27.1420652122221  62.48380004562 30.409769756414  62.48380004562 30.409769756414  C 62.48380004562 30.409769756414  64.4470199697967 33.4152881020152  64.4470199697967 33.4152881020152  C 64.4470199697967 33.4152881020152  67.8628954821886 34.9244454378207  67.8628954821886 34.9244454378207  C 67.8628954821886 34.9244454378207  69.4288659220761 37.9279065466922  69.4288659220761 37.9279065466922  C 69.4288659220761 37.9279065466922  67.1911036651525 38.9167545714062  67.1911036651525 38.9167545714062  C 67.1911036651525 38.9167545714062  63.5137155141977 37.6594005726096  63.5137155141977 37.6594005726096  C 63.5137155141977 37.6594005726096  58.3853132837435 37.6440862654882  58.3853132837435 37.6440862654882  C 58.3853132837435 37.6440862654882  53.6560636726836 36.1283940240164  53.6560636726836 36.1283940240164  C 53.6560636726836 36.1283940240164  51.8140283919652 37.6244632580695  51.8140283919652 37.6244632580695  C 51.8140283919652 37.6244632580695  56.1520450506819 38.8837900092763  56.1520450506819 38.8837900092763  C 56.1520450506819 38.8837900092763  60.352916106192 40.6470047585752  60.352916106192 40.6470047585752  Z " fill-rule="evenodd" />
    </mask>
  </defs>
  <g transform="matrix(1 0 0 1 -1096 -691 )">
    <path d="M 60.352916106192 40.6470047585752  C 60.352916106192 40.6470047585752  64.6780614465654 42.4027517908031  64.6780614465654 42.4027517908031  C 64.6780614465654 42.4027517908031  63.0895027617403 46.8940078962453  63.0895027617403 46.8940078962453  C 63.0895027617403 46.8940078962453  60.9823725734386 49.2498139533371  60.9823725734386 49.2498139533371  C 60.9823725734386 49.2498139533371  57.4107654841532 53.2500123546189  57.4107654841532 53.2500123546189  C 57.4107654841532 53.2500123546189  52.025127637846 52.357723810352  52.025127637846 52.357723810352  C 52.025127637846 52.357723810352  47.6943831427425 49.8468202200561  47.6943831427425 49.8468202200561  C 47.6943831427425 49.8468202200561  45.0594772770919 51.0888085243616  45.0594772770919 51.0888085243616  C 45.0594772770919 51.0888085243616  35.5954270254977 50.1895670076924  35.5954270254977 50.1895670076924  C 35.5954270254977 50.1895670076924  35.3438456896677 46.5655380876417  35.3438456896677 46.5655380876417  C 35.3438456896677 46.5655380876417  30.1938509695631 43.553116415063  30.1938509695631 43.553116415063  C 30.1938509695631 43.553116415063  28.6271219006476 40.8013663201295  28.6271219006476 40.8013663201295  C 28.6271219006476 40.8013663201295  30.8672895453431 38.433763813305  30.8672895453431 38.433763813305  C 30.8672895453431 38.433763813305  30.8797137363122 34.3114516023409  30.8797137363122 34.3114516023409  C 30.8797137363122 34.3114516023409  36.9637505409323 33.7059977746386  36.9637505409323 33.7059977746386  C 36.9637505409323 33.7059977746386  37.2326517187262 31.5833510200769  37.2326517187262 31.5833510200769  C 37.2326517187262 31.5833510200769  35.4022925000047 29.2053351676376  35.4022925000047 29.2053351676376  C 35.4022925000047 29.2053351676376  32.0827812492812 28.8200300572537  32.0827812492812 28.8200300572537  C 32.0827812492812 28.8200300572537  30.236241444645 31.8106878723365  30.236241444645 31.8106878723365  C 30.236241444645 31.8106878723365  25.5033413142019 30.9255743984254  25.5033413142019 30.9255743984254  C 25.5033413142019 30.9255743984254  24.1979875081197 28.5482553238794  24.1979875081197 28.5482553238794  C 24.1979875081197 28.5482553238794  21.0483951596204 26.3657544773147  21.0483951596204 26.3657544773147  C 21.0483951596204 26.3657544773147  22.1176027118288 19.997727116393  22.1176027118288 19.997727116393  C 22.1176027118288 19.997727116393  21.4629907360129 18.8704659051288  21.4629907360129 18.8704659051288  C 21.4629907360129 18.8704659051288  18.3027093307576 19.3635843299083  18.3027093307576 19.3635843299083  C 18.3027093307576 19.3635843299083  16.0740934973994 17.6080010404852  16.0740934973994 17.6080010404852  C 16.0740934973994 17.6080010404852  10.4260863829811 16.0904362084253  10.4260863829811 16.0904362084253  C 10.4260863829811 16.0904362084253  7.27547727908313 13.0839850514194  7.27547727908313 13.0839850514194  C 7.27547727908313 13.0839850514194  0.32047747488059 10.3135316958864  0.32047747488059 10.3135316958864  C 0.32047747488059 10.3135316958864  0.985763632373391 7.31847547035238  0.985763632373391 7.31847547035238  C 0.985763632373391 7.31847547035238  3.74803692431124 6.20403061746219  3.74803692431124 6.20403061746219  C 3.74803692431124 6.20403061746219  8.8666478527764 10.3390520571992  8.8666478527764 10.3390520571992  C 8.8666478527764 10.3390520571992  10.4416562156528 10.3437553079787  10.4416562156528 10.3437553079787  C 10.4416562156528 10.3437553079787  15.1769354837284 9.85882402344487  15.1769354837284 9.85882402344487  C 15.1769354837284 9.85882402344487  17.9439749259732 7.74363714720289  17.9439749259732 7.74363714720289  C 17.9439749259732 7.74363714720289  21.7490848800969 10.7529137385659  21.7490848800969 10.7529137385659  C 21.7490848800969 10.7529137385659  23.3323751619478 8.00969917282487  23.3323751619478 8.00969917282487  C 23.3323751619478 8.00969917282487  23.7306501516823 6.51018959792384  23.7306501516823 6.51018959792384  C 23.7306501516823 6.51018959792384  26.8938103222233 4.77157807603567  26.8938103222233 4.77157807603567  C 26.8938103222233 4.77157807603567  27.8243550131685 1.15282115171965  27.8243550131685 1.15282115171965  C 27.8243550131685 1.15282115171965  30.9815091518187 0.536014199219153  30.9815091518187 0.536014199219153  C 30.9815091518187 0.536014199219153  39.2856129944057 5.68391727515325  39.2856129944057 5.68391727515325  C 39.2856129944057 5.68391727515325  44.9317458488722 7.82335637694246  44.9317458488722 7.82335637694246  C 44.9317458488722 7.82335637694246  55.6637242078279 24.9692939979643  55.6637242078279 24.9692939979643  C 55.6637242078279 24.9692939979643  55.2634200823193 27.1420652122221  55.2634200823193 27.1420652122221  C 55.2634200823193 27.1420652122221  62.48380004562 30.409769756414  62.48380004562 30.409769756414  C 62.48380004562 30.409769756414  64.4470199697967 33.4152881020152  64.4470199697967 33.4152881020152  C 64.4470199697967 33.4152881020152  67.8628954821886 34.9244454378207  67.8628954821886 34.9244454378207  C 67.8628954821886 34.9244454378207  69.4288659220761 37.9279065466922  69.4288659220761 37.9279065466922  C 69.4288659220761 37.9279065466922  67.1911036651525 38.9167545714062  67.1911036651525 38.9167545714062  C 67.1911036651525 38.9167545714062  63.5137155141977 37.6594005726096  63.5137155141977 37.6594005726096  C 63.5137155141977 37.6594005726096  58.3853132837435 37.6440862654882  58.3853132837435 37.6440862654882  C 58.3853132837435 37.6440862654882  53.6560636726836 36.1283940240164  53.6560636726836 36.1283940240164  C 53.6560636726836 36.1283940240164  51.8140283919652 37.6244632580695  51.8140283919652 37.6244632580695  C 51.8140283919652 37.6244632580695  56.1520450506819 38.8837900092763  56.1520450506819 38.8837900092763  C 56.1520450506819 38.8837900092763  60.352916106192 40.6470047585752  60.352916106192 40.6470047585752  Z " fill-rule="nonzero" fill="#00bfdf" stroke="none" transform="matrix(1 0 0 1 1096 691 )" />
    <path d="M 60.352916106192 40.6470047585752  C 60.352916106192 40.6470047585752  64.6780614465654 42.4027517908031  64.6780614465654 42.4027517908031  C 64.6780614465654 42.4027517908031  63.0895027617403 46.8940078962453  63.0895027617403 46.8940078962453  C 63.0895027617403 46.8940078962453  60.9823725734386 49.2498139533371  60.9823725734386 49.2498139533371  C 60.9823725734386 49.2498139533371  57.4107654841532 53.2500123546189  57.4107654841532 53.2500123546189  C 57.4107654841532 53.2500123546189  52.025127637846 52.357723810352  52.025127637846 52.357723810352  C 52.025127637846 52.357723810352  47.6943831427425 49.8468202200561  47.6943831427425 49.8468202200561  C 47.6943831427425 49.8468202200561  45.0594772770919 51.0888085243616  45.0594772770919 51.0888085243616  C 45.0594772770919 51.0888085243616  35.5954270254977 50.1895670076924  35.5954270254977 50.1895670076924  C 35.5954270254977 50.1895670076924  35.3438456896677 46.5655380876417  35.3438456896677 46.5655380876417  C 35.3438456896677 46.5655380876417  30.1938509695631 43.553116415063  30.1938509695631 43.553116415063  C 30.1938509695631 43.553116415063  28.6271219006476 40.8013663201295  28.6271219006476 40.8013663201295  C 28.6271219006476 40.8013663201295  30.8672895453431 38.433763813305  30.8672895453431 38.433763813305  C 30.8672895453431 38.433763813305  30.8797137363122 34.3114516023409  30.8797137363122 34.3114516023409  C 30.8797137363122 34.3114516023409  36.9637505409323 33.7059977746386  36.9637505409323 33.7059977746386  C 36.9637505409323 33.7059977746386  37.2326517187262 31.5833510200769  37.2326517187262 31.5833510200769  C 37.2326517187262 31.5833510200769  35.4022925000047 29.2053351676376  35.4022925000047 29.2053351676376  C 35.4022925000047 29.2053351676376  32.0827812492812 28.8200300572537  32.0827812492812 28.8200300572537  C 32.0827812492812 28.8200300572537  30.236241444645 31.8106878723365  30.236241444645 31.8106878723365  C 30.236241444645 31.8106878723365  25.5033413142019 30.9255743984254  25.5033413142019 30.9255743984254  C 25.5033413142019 30.9255743984254  24.1979875081197 28.5482553238794  24.1979875081197 28.5482553238794  C 24.1979875081197 28.5482553238794  21.0483951596204 26.3657544773147  21.0483951596204 26.3657544773147  C 21.0483951596204 26.3657544773147  22.1176027118288 19.997727116393  22.1176027118288 19.997727116393  C 22.1176027118288 19.997727116393  21.4629907360129 18.8704659051288  21.4629907360129 18.8704659051288  C 21.4629907360129 18.8704659051288  18.3027093307576 19.3635843299083  18.3027093307576 19.3635843299083  C 18.3027093307576 19.3635843299083  16.0740934973994 17.6080010404852  16.0740934973994 17.6080010404852  C 16.0740934973994 17.6080010404852  10.4260863829811 16.0904362084253  10.4260863829811 16.0904362084253  C 10.4260863829811 16.0904362084253  7.27547727908313 13.0839850514194  7.27547727908313 13.0839850514194  C 7.27547727908313 13.0839850514194  0.32047747488059 10.3135316958864  0.32047747488059 10.3135316958864  C 0.32047747488059 10.3135316958864  0.985763632373391 7.31847547035238  0.985763632373391 7.31847547035238  C 0.985763632373391 7.31847547035238  3.74803692431124 6.20403061746219  3.74803692431124 6.20403061746219  C 3.74803692431124 6.20403061746219  8.8666478527764 10.3390520571992  8.8666478527764 10.3390520571992  C 8.8666478527764 10.3390520571992  10.4416562156528 10.3437553079787  10.4416562156528 10.3437553079787  C 10.4416562156528 10.3437553079787  15.1769354837284 9.85882402344487  15.1769354837284 9.85882402344487  C 15.1769354837284 9.85882402344487  17.9439749259732 7.74363714720289  17.9439749259732 7.74363714720289  C 17.9439749259732 7.74363714720289  21.7490848800969 10.7529137385659  21.7490848800969 10.7529137385659  C 21.7490848800969 10.7529137385659  23.3323751619478 8.00969917282487  23.3323751619478 8.00969917282487  C 23.3323751619478 8.00969917282487  23.7306501516823 6.51018959792384  23.7306501516823 6.51018959792384  C 23.7306501516823 6.51018959792384  26.8938103222233 4.77157807603567  26.8938103222233 4.77157807603567  C 26.8938103222233 4.77157807603567  27.8243550131685 1.15282115171965  27.8243550131685 1.15282115171965  C 27.8243550131685 1.15282115171965  30.9815091518187 0.536014199219153  30.9815091518187 0.536014199219153  C 30.9815091518187 0.536014199219153  39.2856129944057 5.68391727515325  39.2856129944057 5.68391727515325  C 39.2856129944057 5.68391727515325  44.9317458488722 7.82335637694246  44.9317458488722 7.82335637694246  C 44.9317458488722 7.82335637694246  55.6637242078279 24.9692939979643  55.6637242078279 24.9692939979643  C 55.6637242078279 24.9692939979643  55.2634200823193 27.1420652122221  55.2634200823193 27.1420652122221  C 55.2634200823193 27.1420652122221  62.48380004562 30.409769756414  62.48380004562 30.409769756414  C 62.48380004562 30.409769756414  64.4470199697967 33.4152881020152  64.4470199697967 33.4152881020152  C 64.4470199697967 33.4152881020152  67.8628954821886 34.9244454378207  67.8628954821886 34.9244454378207  C 67.8628954821886 34.9244454378207  69.4288659220761 37.9279065466922  69.4288659220761 37.9279065466922  C 69.4288659220761 37.9279065466922  67.1911036651525 38.9167545714062  67.1911036651525 38.9167545714062  C 67.1911036651525 38.9167545714062  63.5137155141977 37.6594005726096  63.5137155141977 37.6594005726096  C 63.5137155141977 37.6594005726096  58.3853132837435 37.6440862654882  58.3853132837435 37.6440862654882  C 58.3853132837435 37.6440862654882  53.6560636726836 36.1283940240164  53.6560636726836 36.1283940240164  C 53.6560636726836 36.1283940240164  51.8140283919652 37.6244632580695  51.8140283919652 37.6244632580695  C 51.8140283919652 37.6244632580695  56.1520450506819 38.8837900092763  56.1520450506819 38.8837900092763  C 56.1520450506819 38.8837900092763  60.352916106192 40.6470047585752  60.352916106192 40.6470047585752  Z " stroke-width="0.97600957434184" stroke="#47b3fe" fill="none" transform="matrix(1 0 0 1 1096 691 )" mask="url(#clip1796)" />
  </g>
</svg>