<?xml version="1.0" encoding="utf-8"?>
<svg version="1.1" xmlns:xlink="http://www.w3.org/1999/xlink" width="96px" height="58px" xmlns="http://www.w3.org/2000/svg">
  <defs>
    <mask fill="white" id="clip1780">
      <path d="M 4.91982536239152 49.9092874335994  C 4.91982536239152 49.9092874335994  11.2480900096684 57.4920657870482  11.2480900096684 57.4920657870482  C 11.2480900096684 57.4920657870482  13.2452749261167 53.2138918892624  13.2452749261167 53.2138918892624  C 13.2452749261167 53.2138918892624  18.9493689197636 48.6937196156205  18.9493689197636 48.6937196156205  C 18.9493689197636 48.6937196156205  24.3700359405984 50.8533399917221  24.3700359405984 50.8533399917221  C 24.3700359405984 50.8533399917221  27.8166453604454 48.7202626656479  27.8166453604454 48.7202626656479  C 27.8166453604454 48.7202626656479  24.9138929200776 45.435405557262  24.9138929200776 45.435405557262  C 24.9138929200776 45.435405557262  26.5037696921765 43.9277490671578  26.5037696921765 43.9277490671578  C 26.5037696921765 43.9277490671578  41.1944898978354 44.8505243001827  41.1944898978354 44.8505243001827  C 41.1944898978354 44.8505243001827  46.2118931260704 48.1425901438147  46.2118931260704 48.1425901438147  C 46.2118931260704 48.1425901438147  49.1543025843459 49.6620558481378  49.1543025843459 49.6620558481378  C 49.1543025843459 49.6620558481378  52.998875511769 47.280590445613  52.998875511769 47.280590445613  C 52.998875511769 47.280590445613  55.9141203487434 46.4105164015084  55.9141203487434 46.4105164015084  C 55.9141203487434 46.4105164015084  56.5665908957576 49.6868799799473  56.5665908957576 49.6868799799473  C 56.5665908957576 49.6868799799473  58.6803635872193 49.693207286271  58.6803635872193 49.693207286271  C 58.6803635872193 49.693207286271  60.2774139753897 47.5572299447983  60.2774139753897 47.5572299447983  C 60.2774139753897 47.5572299447983  63.4571701618031 44.5410381720451  63.4571701618031 44.5410381720451  C 63.4571701618031 44.5410381720451  65.0360553159064 46.6891586689037  65.0360553159064 46.6891586689037  C 65.0360553159064 46.6891586689037  65.0231718713519 50.9741511180456  65.0231718713519 50.9741511180456  C 65.0231718713519 50.9741511180456  66.34513940441 52.7427395693868  66.34513940441 52.7427395693868  C 66.34513940441 52.7427395693868  69.2549694603397 53.3806708960268  69.2549694603397 53.3806708960268  C 69.2549694603397 53.3806708960268  72.4408855326715 50.3662551630068  72.4408855326715 50.3662551630068  C 72.4408855326715 50.3662551630068  77.2216704036084 48.8707866467084  77.2216704036084 48.8707866467084  C 77.2216704036084 48.8707866467084  86.1133248085932 41.0822302309356  86.1133248085932 41.0822302309356  C 86.1133248085932 41.0822302309356  90.2150469913188 41.3467239383573  90.2150469913188 41.3467239383573  C 90.2150469913188 41.3467239383573  95.2477257502042 39.8511306335175  95.2477257502042 39.8511306335175  C 95.2477257502042 39.8511306335175  89.3269330646606 28.5645492805246  89.3269330646606 28.5645492805246  C 89.3269330646606 28.5645492805246  91.186717471732 25.1665221469935  91.186717471732 25.1665221469935  C 91.186717471732 25.1665221469935  90.5286885832779 24.0317786369583  90.5286885832779 24.0317786369583  C 90.5286885832779 24.0317786369583  87.3531361623045 23.0134101084795  87.3531361623045 23.0134101084795  C 87.3531361623045 23.0134101084795  82.071636412521 19.9718906557885  82.071636412521 19.9718906557885  C 82.071636412521 19.9718906557885  79.4269298193724 18.4489220843811  79.4269298193724 18.4489220843811  C 79.4269298193724 18.4489220843811  75.982220152732 19.9501475706414  75.982220152732 19.9501475706414  C 75.982220152732 19.9501475706414  72.1504082471949 16.9156039731721  72.1504082471949 16.9156039731721  C 72.1504082471949 16.9156039731721  67.1213907187589 16.9005502568773  67.1213907187589 16.9005502568773  C 67.1213907187589 16.9005502568773  63.2892089030011 14.8678380697758  63.2892089030011 14.8678380697758  C 63.2892089030011 14.8678380697758  62.3744059538972 11.8411473624881  62.3744059538972 11.8411473624881  C 62.3744059538972 11.8411473624881  60.3949018652743 9.94580099567179  60.3949018652743 9.94580099567179  C 60.3949018652743 9.94580099567179  57.6107514491473 11.4472461800683  57.6107514491473 11.4472461800683  C 57.6107514491473 11.4472461800683  55.0978870239353 10.3069504587341  55.0978870239353 10.3069504587341  C 55.0978870239353 10.3069504587341  46.7239413494979 11.4146579161242  46.7239413494979 11.4146579161242  C 46.7239413494979 11.4146579161242  38.1279535419469 9.62429562189698  38.1279535419469 9.62429562189698  C 38.1279535419469 9.62429562189698  27.6948215943276 0.772545227512978  27.6948215943276 0.772545227512978  C 27.6948215943276 0.772545227512978  24.7757746087245 2.90720174379055  24.7757746087245 2.90720174379055  C 24.7757746087245 2.90720174379055  23.4573221035046 2.02006066967067  23.4573221035046 2.02006066967067  C 23.4573221035046 2.02006066967067  11.8121960507933 1.98520248458294  11.8121960507933 1.98520248458294  C 11.8121960507933 1.98520248458294  10.4876743757329 3.11664788619703  10.4876743757329 3.11664788619703  C 10.4876743757329 3.11664788619703  13.3857782776568 5.89705961914217  13.3857782776568 5.89705961914217  C 13.3857782776568 5.89705961914217  16.1626194439646 6.53371406021427  16.1626194439646 6.53371406021427  C 16.1626194439646 6.53371406021427  18.6771123548874 7.42531412770711  18.6771123548874 7.42531412770711  C 18.6771123548874 7.42531412770711  17.4784059533774 9.18635726625746  17.4784059533774 9.18635726625746  C 17.4784059533774 9.18635726625746  12.7080543121499 11.3128357391117  12.7080543121499 11.3128357391117  C 12.7080543121499 11.3128357391117  11.7714064030183 14.9658418931804  11.7714064030183 14.9658418931804  C 11.7714064030183 14.9658418931804  12.6932737566049 16.2288012355228  12.6932737566049 16.2288012355228  C 12.6932737566049 16.2288012355228  13.3410667008006 20.7679870646673  13.3410667008006 20.7679870646673  C 13.3410667008006 20.7679870646673  16.1190334510666 21.0302758815938  16.1190334510666 21.0302758815938  C 16.1190334510666 21.0302758815938  19.0197689999911 24.6930111479273  19.0197689999911 24.6930111479273  C 19.0197689999911 24.6930111479273  20.1883990583176 32.0564630943873  20.1883990583176 32.0564630943873  C 20.1883990583176 32.0564630943873  19.2564234675726 34.4484045828402  19.2564234675726 34.4484045828402  C 19.2564234675726 34.4484045828402  17.4087668313184 33.812773935083  17.4087668313184 33.812773935083  C 17.4087668313184 33.812773935083  11.9721672488215 37.8310730590633  11.9721672488215 37.8310730590633  C 11.9721672488215 37.8310730590633  2.70225233996121 39.3148615436469  2.70225233996121 39.3148615436469  C 2.70225233996121 39.3148615436469  0.18230237253988 41.7029284357693  0.18230237253988 41.7029284357693  C 0.18230237253988 41.7029284357693  2.15852835201372 44.1026964506276  2.15852835201372 44.1026964506276  C 2.15852835201372 44.1026964506276  2.40721106694832 49.2716663207278  2.40721106694832 49.2716663207278  C 2.40721106694832 49.2716663207278  4.91982536239152 49.9092874335994  4.91982536239152 49.9092874335994  Z " fill-rule="evenodd" />
    </mask>
  </defs>
  <g transform="matrix(1 0 0 1 -1008 -726 )">
    <path d="M 4.91982536239152 49.9092874335994  C 4.91982536239152 49.9092874335994  11.2480900096684 57.4920657870482  11.2480900096684 57.4920657870482  C 11.2480900096684 57.4920657870482  13.2452749261167 53.2138918892624  13.2452749261167 53.2138918892624  C 13.2452749261167 53.2138918892624  18.9493689197636 48.6937196156205  18.9493689197636 48.6937196156205  C 18.9493689197636 48.6937196156205  24.3700359405984 50.8533399917221  24.3700359405984 50.8533399917221  C 24.3700359405984 50.8533399917221  27.8166453604454 48.7202626656479  27.8166453604454 48.7202626656479  C 27.8166453604454 48.7202626656479  24.9138929200776 45.435405557262  24.9138929200776 45.435405557262  C 24.9138929200776 45.435405557262  26.5037696921765 43.9277490671578  26.5037696921765 43.9277490671578  C 26.5037696921765 43.9277490671578  41.1944898978354 44.8505243001827  41.1944898978354 44.8505243001827  C 41.1944898978354 44.8505243001827  46.2118931260704 48.1425901438147  46.2118931260704 48.1425901438147  C 46.2118931260704 48.1425901438147  49.1543025843459 49.6620558481378  49.1543025843459 49.6620558481378  C 49.1543025843459 49.6620558481378  52.998875511769 47.280590445613  52.998875511769 47.280590445613  C 52.998875511769 47.280590445613  55.9141203487434 46.4105164015084  55.9141203487434 46.4105164015084  C 55.9141203487434 46.4105164015084  56.5665908957576 49.6868799799473  56.5665908957576 49.6868799799473  C 56.5665908957576 49.6868799799473  58.6803635872193 49.693207286271  58.6803635872193 49.693207286271  C 58.6803635872193 49.693207286271  60.2774139753897 47.5572299447983  60.2774139753897 47.5572299447983  C 60.2774139753897 47.5572299447983  63.4571701618031 44.5410381720451  63.4571701618031 44.5410381720451  C 63.4571701618031 44.5410381720451  65.0360553159064 46.6891586689037  65.0360553159064 46.6891586689037  C 65.0360553159064 46.6891586689037  65.0231718713519 50.9741511180456  65.0231718713519 50.9741511180456  C 65.0231718713519 50.9741511180456  66.34513940441 52.7427395693868  66.34513940441 52.7427395693868  C 66.34513940441 52.7427395693868  69.2549694603397 53.3806708960268  69.2549694603397 53.3806708960268  C 69.2549694603397 53.3806708960268  72.4408855326715 50.3662551630068  72.4408855326715 50.3662551630068  C 72.4408855326715 50.3662551630068  77.2216704036084 48.8707866467084  77.2216704036084 48.8707866467084  C 77.2216704036084 48.8707866467084  86.1133248085932 41.0822302309356  86.1133248085932 41.0822302309356  C 86.1133248085932 41.0822302309356  90.2150469913188 41.3467239383573  90.2150469913188 41.3467239383573  C 90.2150469913188 41.3467239383573  95.2477257502042 39.8511306335175  95.2477257502042 39.8511306335175  C 95.2477257502042 39.8511306335175  89.3269330646606 28.5645492805246  89.3269330646606 28.5645492805246  C 89.3269330646606 28.5645492805246  91.186717471732 25.1665221469935  91.186717471732 25.1665221469935  C 91.186717471732 25.1665221469935  90.5286885832779 24.0317786369583  90.5286885832779 24.0317786369583  C 90.5286885832779 24.0317786369583  87.3531361623045 23.0134101084795  87.3531361623045 23.0134101084795  C 87.3531361623045 23.0134101084795  82.071636412521 19.9718906557885  82.071636412521 19.9718906557885  C 82.071636412521 19.9718906557885  79.4269298193724 18.4489220843811  79.4269298193724 18.4489220843811  C 79.4269298193724 18.4489220843811  75.982220152732 19.9501475706414  75.982220152732 19.9501475706414  C 75.982220152732 19.9501475706414  72.1504082471949 16.9156039731721  72.1504082471949 16.9156039731721  C 72.1504082471949 16.9156039731721  67.1213907187589 16.9005502568773  67.1213907187589 16.9005502568773  C 67.1213907187589 16.9005502568773  63.2892089030011 14.8678380697758  63.2892089030011 14.8678380697758  C 63.2892089030011 14.8678380697758  62.3744059538972 11.8411473624881  62.3744059538972 11.8411473624881  C 62.3744059538972 11.8411473624881  60.3949018652743 9.94580099567179  60.3949018652743 9.94580099567179  C 60.3949018652743 9.94580099567179  57.6107514491473 11.4472461800683  57.6107514491473 11.4472461800683  C 57.6107514491473 11.4472461800683  55.0978870239353 10.3069504587341  55.0978870239353 10.3069504587341  C 55.0978870239353 10.3069504587341  46.7239413494979 11.4146579161242  46.7239413494979 11.4146579161242  C 46.7239413494979 11.4146579161242  38.1279535419469 9.62429562189698  38.1279535419469 9.62429562189698  C 38.1279535419469 9.62429562189698  27.6948215943276 0.772545227512978  27.6948215943276 0.772545227512978  C 27.6948215943276 0.772545227512978  24.7757746087245 2.90720174379055  24.7757746087245 2.90720174379055  C 24.7757746087245 2.90720174379055  23.4573221035046 2.02006066967067  23.4573221035046 2.02006066967067  C 23.4573221035046 2.02006066967067  11.8121960507933 1.98520248458294  11.8121960507933 1.98520248458294  C 11.8121960507933 1.98520248458294  10.4876743757329 3.11664788619703  10.4876743757329 3.11664788619703  C 10.4876743757329 3.11664788619703  13.3857782776568 5.89705961914217  13.3857782776568 5.89705961914217  C 13.3857782776568 5.89705961914217  16.1626194439646 6.53371406021427  16.1626194439646 6.53371406021427  C 16.1626194439646 6.53371406021427  18.6771123548874 7.42531412770711  18.6771123548874 7.42531412770711  C 18.6771123548874 7.42531412770711  17.4784059533774 9.18635726625746  17.4784059533774 9.18635726625746  C 17.4784059533774 9.18635726625746  12.7080543121499 11.3128357391117  12.7080543121499 11.3128357391117  C 12.7080543121499 11.3128357391117  11.7714064030183 14.9658418931804  11.7714064030183 14.9658418931804  C 11.7714064030183 14.9658418931804  12.6932737566049 16.2288012355228  12.6932737566049 16.2288012355228  C 12.6932737566049 16.2288012355228  13.3410667008006 20.7679870646673  13.3410667008006 20.7679870646673  C 13.3410667008006 20.7679870646673  16.1190334510666 21.0302758815938  16.1190334510666 21.0302758815938  C 16.1190334510666 21.0302758815938  19.0197689999911 24.6930111479273  19.0197689999911 24.6930111479273  C 19.0197689999911 24.6930111479273  20.1883990583176 32.0564630943873  20.1883990583176 32.0564630943873  C 20.1883990583176 32.0564630943873  19.2564234675726 34.4484045828402  19.2564234675726 34.4484045828402  C 19.2564234675726 34.4484045828402  17.4087668313184 33.812773935083  17.4087668313184 33.812773935083  C 17.4087668313184 33.812773935083  11.9721672488215 37.8310730590633  11.9721672488215 37.8310730590633  C 11.9721672488215 37.8310730590633  2.70225233996121 39.3148615436469  2.70225233996121 39.3148615436469  C 2.70225233996121 39.3148615436469  0.18230237253988 41.7029284357693  0.18230237253988 41.7029284357693  C 0.18230237253988 41.7029284357693  2.15852835201372 44.1026964506276  2.15852835201372 44.1026964506276  C 2.15852835201372 44.1026964506276  2.40721106694832 49.2716663207278  2.40721106694832 49.2716663207278  C 2.40721106694832 49.2716663207278  4.91982536239152 49.9092874335994  4.91982536239152 49.9092874335994  Z " fill-rule="nonzero" fill="#00bfdf" stroke="none" transform="matrix(1 0 0 1 1008 726 )" />
    <path d="M 4.91982536239152 49.9092874335994  C 4.91982536239152 49.9092874335994  11.2480900096684 57.4920657870482  11.2480900096684 57.4920657870482  C 11.2480900096684 57.4920657870482  13.2452749261167 53.2138918892624  13.2452749261167 53.2138918892624  C 13.2452749261167 53.2138918892624  18.9493689197636 48.6937196156205  18.9493689197636 48.6937196156205  C 18.9493689197636 48.6937196156205  24.3700359405984 50.8533399917221  24.3700359405984 50.8533399917221  C 24.3700359405984 50.8533399917221  27.8166453604454 48.7202626656479  27.8166453604454 48.7202626656479  C 27.8166453604454 48.7202626656479  24.9138929200776 45.435405557262  24.9138929200776 45.435405557262  C 24.9138929200776 45.435405557262  26.5037696921765 43.9277490671578  26.5037696921765 43.9277490671578  C 26.5037696921765 43.9277490671578  41.1944898978354 44.8505243001827  41.1944898978354 44.8505243001827  C 41.1944898978354 44.8505243001827  46.2118931260704 48.1425901438147  46.2118931260704 48.1425901438147  C 46.2118931260704 48.1425901438147  49.1543025843459 49.6620558481378  49.1543025843459 49.6620558481378  C 49.1543025843459 49.6620558481378  52.998875511769 47.280590445613  52.998875511769 47.280590445613  C 52.998875511769 47.280590445613  55.9141203487434 46.4105164015084  55.9141203487434 46.4105164015084  C 55.9141203487434 46.4105164015084  56.5665908957576 49.6868799799473  56.5665908957576 49.6868799799473  C 56.5665908957576 49.6868799799473  58.6803635872193 49.693207286271  58.6803635872193 49.693207286271  C 58.6803635872193 49.693207286271  60.2774139753897 47.5572299447983  60.2774139753897 47.5572299447983  C 60.2774139753897 47.5572299447983  63.4571701618031 44.5410381720451  63.4571701618031 44.5410381720451  C 63.4571701618031 44.5410381720451  65.0360553159064 46.6891586689037  65.0360553159064 46.6891586689037  C 65.0360553159064 46.6891586689037  65.0231718713519 50.9741511180456  65.0231718713519 50.9741511180456  C 65.0231718713519 50.9741511180456  66.34513940441 52.7427395693868  66.34513940441 52.7427395693868  C 66.34513940441 52.7427395693868  69.2549694603397 53.3806708960268  69.2549694603397 53.3806708960268  C 69.2549694603397 53.3806708960268  72.4408855326715 50.3662551630068  72.4408855326715 50.3662551630068  C 72.4408855326715 50.3662551630068  77.2216704036084 48.8707866467084  77.2216704036084 48.8707866467084  C 77.2216704036084 48.8707866467084  86.1133248085932 41.0822302309356  86.1133248085932 41.0822302309356  C 86.1133248085932 41.0822302309356  90.2150469913188 41.3467239383573  90.2150469913188 41.3467239383573  C 90.2150469913188 41.3467239383573  95.2477257502042 39.8511306335175  95.2477257502042 39.8511306335175  C 95.2477257502042 39.8511306335175  89.3269330646606 28.5645492805246  89.3269330646606 28.5645492805246  C 89.3269330646606 28.5645492805246  91.186717471732 25.1665221469935  91.186717471732 25.1665221469935  C 91.186717471732 25.1665221469935  90.5286885832779 24.0317786369583  90.5286885832779 24.0317786369583  C 90.5286885832779 24.0317786369583  87.3531361623045 23.0134101084795  87.3531361623045 23.0134101084795  C 87.3531361623045 23.0134101084795  82.071636412521 19.9718906557885  82.071636412521 19.9718906557885  C 82.071636412521 19.9718906557885  79.4269298193724 18.4489220843811  79.4269298193724 18.4489220843811  C 79.4269298193724 18.4489220843811  75.982220152732 19.9501475706414  75.982220152732 19.9501475706414  C 75.982220152732 19.9501475706414  72.1504082471949 16.9156039731721  72.1504082471949 16.9156039731721  C 72.1504082471949 16.9156039731721  67.1213907187589 16.9005502568773  67.1213907187589 16.9005502568773  C 67.1213907187589 16.9005502568773  63.2892089030011 14.8678380697758  63.2892089030011 14.8678380697758  C 63.2892089030011 14.8678380697758  62.3744059538972 11.8411473624881  62.3744059538972 11.8411473624881  C 62.3744059538972 11.8411473624881  60.3949018652743 9.94580099567179  60.3949018652743 9.94580099567179  C 60.3949018652743 9.94580099567179  57.6107514491473 11.4472461800683  57.6107514491473 11.4472461800683  C 57.6107514491473 11.4472461800683  55.0978870239353 10.3069504587341  55.0978870239353 10.3069504587341  C 55.0978870239353 10.3069504587341  46.7239413494979 11.4146579161242  46.7239413494979 11.4146579161242  C 46.7239413494979 11.4146579161242  38.1279535419469 9.62429562189698  38.1279535419469 9.62429562189698  C 38.1279535419469 9.62429562189698  27.6948215943276 0.772545227512978  27.6948215943276 0.772545227512978  C 27.6948215943276 0.772545227512978  24.7757746087245 2.90720174379055  24.7757746087245 2.90720174379055  C 24.7757746087245 2.90720174379055  23.4573221035046 2.02006066967067  23.4573221035046 2.02006066967067  C 23.4573221035046 2.02006066967067  11.8121960507933 1.98520248458294  11.8121960507933 1.98520248458294  C 11.8121960507933 1.98520248458294  10.4876743757329 3.11664788619703  10.4876743757329 3.11664788619703  C 10.4876743757329 3.11664788619703  13.3857782776568 5.89705961914217  13.3857782776568 5.89705961914217  C 13.3857782776568 5.89705961914217  16.1626194439646 6.53371406021427  16.1626194439646 6.53371406021427  C 16.1626194439646 6.53371406021427  18.6771123548874 7.42531412770711  18.6771123548874 7.42531412770711  C 18.6771123548874 7.42531412770711  17.4784059533774 9.18635726625746  17.4784059533774 9.18635726625746  C 17.4784059533774 9.18635726625746  12.7080543121499 11.3128357391117  12.7080543121499 11.3128357391117  C 12.7080543121499 11.3128357391117  11.7714064030183 14.9658418931804  11.7714064030183 14.9658418931804  C 11.7714064030183 14.9658418931804  12.6932737566049 16.2288012355228  12.6932737566049 16.2288012355228  C 12.6932737566049 16.2288012355228  13.3410667008006 20.7679870646673  13.3410667008006 20.7679870646673  C 13.3410667008006 20.7679870646673  16.1190334510666 21.0302758815938  16.1190334510666 21.0302758815938  C 16.1190334510666 21.0302758815938  19.0197689999911 24.6930111479273  19.0197689999911 24.6930111479273  C 19.0197689999911 24.6930111479273  20.1883990583176 32.0564630943873  20.1883990583176 32.0564630943873  C 20.1883990583176 32.0564630943873  19.2564234675726 34.4484045828402  19.2564234675726 34.4484045828402  C 19.2564234675726 34.4484045828402  17.4087668313184 33.812773935083  17.4087668313184 33.812773935083  C 17.4087668313184 33.812773935083  11.9721672488215 37.8310730590633  11.9721672488215 37.8310730590633  C 11.9721672488215 37.8310730590633  2.70225233996121 39.3148615436469  2.70225233996121 39.3148615436469  C 2.70225233996121 39.3148615436469  0.18230237253988 41.7029284357693  0.18230237253988 41.7029284357693  C 0.18230237253988 41.7029284357693  2.15852835201372 44.1026964506276  2.15852835201372 44.1026964506276  C 2.15852835201372 44.1026964506276  2.40721106694832 49.2716663207278  2.40721106694832 49.2716663207278  C 2.40721106694832 49.2716663207278  4.91982536239152 49.9092874335994  4.91982536239152 49.9092874335994  Z " stroke-width="0.97600957434184" stroke="#47b3fe" fill="none" transform="matrix(1 0 0 1 1008 726 )" mask="url(#clip1780)" />
  </g>
</svg>