<?xml version="1.0" encoding="utf-8"?>
<svg version="1.1" xmlns:xlink="http://www.w3.org/1999/xlink" width="290px" height="80px" xmlns="http://www.w3.org/2000/svg">
  <g transform="matrix(1 0 0 1 -1460 -162 )">
    <path d="M 1461 166  A 3 3 0 0 1 1464 163 L 1746 163  A 3 3 0 0 1 1749 166 L 1749 238  A 3 3 0 0 1 1746 241 L 1464 241  A 3 3 0 0 1 1461 238 L 1461 166  Z " fill-rule="nonzero" fill="#ff3399" stroke="none" fill-opacity="0.0980392156862745" />
    <path d="M 1460.5 166  A 3.5 3.5 0 0 1 1464 162.5 L 1746 162.5  A 3.5 3.5 0 0 1 1749.5 166 L 1749.5 238  A 3.5 3.5 0 0 1 1746 241.5 L 1464 241.5  A 3.5 3.5 0 0 1 1460.5 238 L 1460.5 166  Z " stroke-width="1" stroke-dasharray="9,4" stroke="#ff3399" fill="none" stroke-dashoffset="0.5" />
  </g>
</svg>