<?xml version="1.0" encoding="utf-8"?>
<svg version="1.1" xmlns:xlink="http://www.w3.org/1999/xlink" width="14px" height="14px" xmlns="http://www.w3.org/2000/svg">
  <g transform="matrix(1 0 0 1 -480 -246 )">
    <path d="M 487 246  C 490.92 246  494 249.08  494 253  C 494 256.92  490.92 260  487 260  C 483.08 260  480 256.92  480 253  C 480 249.08  483.08 246  487 246  Z " fill-rule="nonzero" fill="#ffffff" stroke="none" fill-opacity="0" />
    <path d="M 487 246.5  C 490.64 246.5  493.5 249.36  493.5 253  C 493.5 256.64  490.64 259.5  487 259.5  C 483.36 259.5  480.5 256.64  480.5 253  C 480.5 249.36  483.36 246.5  487 246.5  Z " stroke-width="1" stroke="#d9d9d9" fill="none" />
  </g>
</svg>