<?xml version="1.0" encoding="utf-8"?>
<svg version="1.1" xmlns:xlink="http://www.w3.org/1999/xlink" width="200px" height="30px" viewBox="60 15  200 30" xmlns="http://www.w3.org/2000/svg">
  <path d="M 61 30  A 14 14 0 0 1 75 16 L 245 16  A 14 14 0 0 1 259 30 A 14 14 0 0 1 245 44 L 75 44  A 14 14 0 0 1 61 30 Z " fill-rule="nonzero" fill="#ffffff" stroke="none" fill-opacity="0" />
  <path d="M 60.5 30  A 14.5 14.5 0 0 1 75 15.5 L 245 15.5  A 14.5 14.5 0 0 1 259.5 30 A 14.5 14.5 0 0 1 245 44.5 L 75 44.5  A 14.5 14.5 0 0 1 60.5 30 Z " stroke-width="1" stroke="#ffffff" fill="none" stroke-opacity="0.349019607843137" />
</svg>