<?xml version="1.0" encoding="utf-8"?>
<svg version="1.1" xmlns:xlink="http://www.w3.org/1999/xlink" width="380px" height="40px" xmlns="http://www.w3.org/2000/svg">
  <g>
    <path d="M 1 5  A 4 4 0 0 1 5 1 L 375 1  A 4 4 0 0 1 379 5 L 379 35  A 4 4 0 0 1 375 39 L 5 39  A 4 4 0 0 1 1 35 L 1 5  Z " fill-rule="nonzero" fill="#ffffff" stroke="none" fill-opacity="0" />
    <path d="M 0.5 5  A 4.5 4.5 0 0 1 5 0.5 L 375 0.5  A 4.5 4.5 0 0 1 379.5 5 L 379.5 35  A 4.5 4.5 0 0 1 375 39.5 L 5 39.5  A 4.5 4.5 0 0 1 0.5 35 L 0.5 5  Z " stroke-width="1" stroke="#03b4f5" fill="none" stroke-opacity="0.2" />
  </g>
</svg>