<?xml version="1.0" encoding="utf-8"?>
<svg version="1.1" xmlns:xlink="http://www.w3.org/1999/xlink" width="80px" height="35px" xmlns="http://www.w3.org/2000/svg">
  <g transform="matrix(1 0 0 1 -1390 -87 )">
    <path d="M 1390.5 92  A 4.5 4.5 0 0 1 1395 87.5 L 1465 87.5  A 4.5 4.5 0 0 1 1469.5 92 L 1469.5 117  A 4.5 4.5 0 0 1 1465 121.5 L 1395 121.5  A 4.5 4.5 0 0 1 1390.5 117 L 1390.5 92  Z " fill-rule="nonzero" fill="#f9f9f9" stroke="none" fill-opacity="0" />
    <path d="M 1390.5 92  A 4.5 4.5 0 0 1 1395 87.5 L 1465 87.5  A 4.5 4.5 0 0 1 1469.5 92 L 1469.5 117  A 4.5 4.5 0 0 1 1465 121.5 L 1395 121.5  A 4.5 4.5 0 0 1 1390.5 117 L 1390.5 92  Z " stroke-width="1" stroke="#e4e4e4" fill="none" />
  </g>
</svg>