<?xml version="1.0" encoding="utf-8"?>
<svg version="1.1" xmlns:xlink="http://www.w3.org/1999/xlink" width="110px" height="35px" xmlns="http://www.w3.org/2000/svg">
  <g transform="matrix(1 0 0 1 -1155 -164 )">
    <path d="M 1155.5 169  A 4.5 4.5 0 0 1 1160 164.5 L 1260 164.5  A 4.5 4.5 0 0 1 1264.5 169 L 1264.5 194  A 4.5 4.5 0 0 1 1260 198.5 L 1160 198.5  A 4.5 4.5 0 0 1 1155.5 194 L 1155.5 169  Z " fill-rule="nonzero" fill="#ffffff" stroke="none" />
    <path d="M 1155.5 169  A 4.5 4.5 0 0 1 1160 164.5 L 1260 164.5  A 4.5 4.5 0 0 1 1264.5 169 L 1264.5 194  A 4.5 4.5 0 0 1 1260 198.5 L 1160 198.5  A 4.5 4.5 0 0 1 1155.5 194 L 1155.5 169  Z " stroke-width="1" stroke="#e4e4e4" fill="none" />
  </g>
</svg>