<?xml version="1.0" encoding="utf-8"?>
<svg version="1.1" xmlns:xlink="http://www.w3.org/1999/xlink" width="59px" height="25px" xmlns="http://www.w3.org/2000/svg">
  <g transform="matrix(1 0 0 1 -1109 -15 )">
    <path d="M 1110 20  A 4 4 0 0 1 1114 16 L 1163 16  A 4 4 0 0 1 1167 20 L 1167 35  A 4 4 0 0 1 1163 39 L 1114 39  A 4 4 0 0 1 1110 35 L 1110 20  Z " fill-rule="nonzero" fill="#fef3f3" stroke="none" fill-opacity="0.996078431372549" />
    <path d="M 1109.5 20  A 4.5 4.5 0 0 1 1114 15.5 L 1163 15.5  A 4.5 4.5 0 0 1 1167.5 20 L 1167.5 35  A 4.5 4.5 0 0 1 1163 39.5 L 1114 39.5  A 4.5 4.5 0 0 1 1109.5 35 L 1109.5 20  Z " stroke-width="1" stroke="#f89898" fill="none" stroke-opacity="0.996078431372549" />
  </g>
</svg>