<?xml version="1.0" encoding="utf-8"?>
<svg version="1.1" xmlns:xlink="http://www.w3.org/1999/xlink" width="39px" height="39px" xmlns="http://www.w3.org/2000/svg">
  <defs>
    <filter x="98px" y="793px" width="39px" height="39px" filterUnits="userSpaceOnUse" id="filter1955">
      <feOffset dx="0" dy="0" in="SourceAlpha" result="shadowOffsetInner" />
      <feGaussianBlur stdDeviation="0" in="shadowOffsetInner" result="shadowGaussian" />
      <feComposite in2="shadowGaussian" operator="atop" in="SourceAlpha" result="shadowComposite" />
      <feColorMatrix type="matrix" values="0 0 0 0 0.270588235294118  0 0 0 0 0.188235294117647  0 0 0 0 0.0274509803921569  0 0 0 1 0  " in="shadowComposite" />
    </filter>
    <g id="widget1956">
      <path d="M 117.5 794.001086366105  C 127.859391634981 794.001086366105  135.998913633895 802.140608365019  135.998913633895 812.5  C 135.998913633895 822.859391634981  127.859391634981 830.998913633895  117.5 830.998913633895  C 107.140608365019 830.998913633895  99.0010863661054 822.859391634981  99.0010863661054 812.5  C 99.0010863661054 802.140608365019  107.140608365019 794.001086366105  117.5 794.001086366105  Z " fill-rule="nonzero" fill="#bf8000" stroke="none" fill-opacity="0.2" />
      <path d="M 117.5 794.000543183053  C 127.85969581749 794.000543183053  135.999456816947 802.14030418251  135.999456816947 812.5  C 135.999456816947 822.859695817491  127.85969581749 830.999456816947  117.5 830.999456816947  C 107.140304182509 830.999456816947  99.0005431830527 822.859695817491  99.0005431830527 812.5  C 99.0005431830527 802.14030418251  107.140304182509 794.000543183053  117.5 794.000543183053  Z " stroke-width="2.00108636610538" stroke="#ffb726" fill="none" />
    </g>
  </defs>
  <g transform="matrix(1 0 0 1 -98 -793 )">
    <use xlink:href="#widget1956" filter="url(#filter1955)" />
    <use xlink:href="#widget1956" />
  </g>
</svg>