<?xml version="1.0" encoding="utf-8"?>
<svg version="1.1" xmlns:xlink="http://www.w3.org/1999/xlink" width="797px" height="115px" xmlns="http://www.w3.org/2000/svg">
  <g transform="matrix(1 0 0 1 -1050.5 -836.5 )">
    <path d="M 0.638996805281522 60.4865441287091  C 35.0193010557616 60.4865441287091  52.9274595350403 0.50001327445375  76.9326719705484 0.50001327445375  C 100.937884406057 0.50001327445375  119.675050221683 110.500986734396  147.662297896441 110.500986734396  C 175.6495455712 110.500986734396  194.867715643501 21.5001991168064  218.391923822335 21.5001991168064  C 241.916132001168 21.5001991168064  260.772298869902 101.500907087673  289.120549739378 101.500907087673  C 317.468800608855 101.500907087673  332.707935468456 30.5002787635289  359.850175665272 30.5002787635289  C 386.992415862087 30.5002787635289  400.98953973044 89.5008008920432  428.61378419278 89.5008008920432  C 456.238028655121 89.5008008920432  469.306144302162 41.500376109523  499.343410118674 41.500376109523  C 529.380675935185 41.500376109523  541.843786228197 79.5007123956849  570.073036044567 79.5007123956849  C 598.302285860937 79.5007123956849  620.588483083921 51.5004646058815  650.625748900433 51.5004646058815  C 680.663014716944 51.5004646058815  688.664085522881 70.5006327489624  721.355374826326 70.5006327489624  C 754.046664129771 70.5006327489624  766.755776599793 56.186506075275  792.085000752219 61.5005531022398  " stroke-width="3.00002654890751" stroke="#1e98ff" fill="none" transform="matrix(1 0 0 1 1052 838 )" />
  </g>
</svg>