<?xml version="1.0" encoding="utf-8"?>
<svg version="1.1" xmlns:xlink="http://www.w3.org/1999/xlink" width="39px" height="39px" xmlns="http://www.w3.org/2000/svg">
  <defs>
    <filter x="535px" y="793px" width="39px" height="39px" filterUnits="userSpaceOnUse" id="filter1957">
      <feOffset dx="0" dy="0" in="SourceAlpha" result="shadowOffsetInner" />
      <feGaussianBlur stdDeviation="0" in="shadowOffsetInner" result="shadowGaussian" />
      <feComposite in2="shadowGaussian" operator="atop" in="SourceAlpha" result="shadowComposite" />
      <feColorMatrix type="matrix" values="0 0 0 0 0.0274509803921569  0 0 0 0 0.113725490196078  0 0 0 0 0.270588235294118  0 0 0 1 0  " in="shadowComposite" />
    </filter>
    <g id="widget1958">
      <path d="M 554.5 794.001086366105  C 564.859391634981 794.001086366105  572.998913633895 802.140608365019  572.998913633895 812.5  C 572.998913633895 822.859391634981  564.859391634981 830.998913633895  554.5 830.998913633895  C 544.140608365019 830.998913633895  536.001086366105 822.859391634981  536.001086366105 812.5  C 536.001086366105 802.140608365019  544.140608365019 794.001086366105  554.5 794.001086366105  Z " fill-rule="nonzero" fill="#0040bf" stroke="none" fill-opacity="0.2" />
      <path d="M 554.5 794.000543183053  C 564.859695817491 794.000543183053  572.999456816947 802.14030418251  572.999456816947 812.5  C 572.999456816947 822.859695817491  564.859695817491 830.999456816947  554.5 830.999456816947  C 544.14030418251 830.999456816947  536.000543183053 822.859695817491  536.000543183053 812.5  C 536.000543183053 802.14030418251  544.14030418251 794.000543183053  554.5 794.000543183053  Z " stroke-width="2.00108636610538" stroke="#3d79f2" fill="none" />
    </g>
  </defs>
  <g transform="matrix(1 0 0 1 -535 -793 )">
    <use xlink:href="#widget1958" filter="url(#filter1957)" />
    <use xlink:href="#widget1958" />
  </g>
</svg>