<?xml version="1.0" encoding="utf-8"?>
<svg version="1.1" xmlns:xlink="http://www.w3.org/1999/xlink" width="791px" height="155px" xmlns="http://www.w3.org/2000/svg">
  <defs>
    <linearGradient gradientUnits="userSpaceOnUse" x1="395.5" y1="0" x2="395.5" y2="155" id="LinearGradient1948">
      <stop id="Stop1949" stop-color="#0b91ee" offset="0" />
      <stop id="Stop1950" stop-color="#0b91ee" stop-opacity="0" offset="1" />
    </linearGradient>
  </defs>
  <g transform="matrix(1 0 0 1 -1051 -838 )">
    <path d="M 791 155  C 791 154.949917871222  790.999000555949 92.3117608409987  790.999000555949 61.0161692610938  C 765.680084403113 55.7051235722229  752.982147730719 70.0111657232387  720.309322248054 70.0111657232387  C 687.63649676539 70.0111657232387  679.640944354594 51.0217287475994  649.61964394016 51.0217287475994  C 619.598343525725 51.0217287475994  597.324733397352 79.0061621853836  569.11242671586 79.0061621853836  C 540.900120034368 79.0061621853836  528.443049378348 41.027288234105  498.422748407965 41.027288234105  C 468.402447437582 41.027288234105  455.346709794805 89.000602698878  427.733070100071 89.000602698878  C 400.119430405337 89.000602698878  386.134209794804 30.0334036692611  359.008298797129 30.0334036692611  C 331.882387799454 30.0334036692611  316.650860456889 100.993931315071  288.318620489235 100.993931315071  C 259.986380521581 100.993931315071  241.139864045285 21.0384072071162  217.629941625392 21.0384072071162  C 194.120019205499 21.0384072071162  174.911703982614 109.988927777216  146.940263317497 109.988927777216  C 118.96882265238 109.988927777216  100.243238906297 0.0500821287779445  76.2505850096027 0.0500821287779445  C 52.257931112908 0.0500821287779445  34.3598870413425 60.0027329930253  0 60.0027329930253  L 0 155  L 791 155  Z " fill-rule="nonzero" fill="url(#LinearGradient1948)" stroke="none" transform="matrix(1 0 0 1 1051 838 )" />
  </g>
</svg>