<?xml version="1.0" encoding="utf-8"?>
<svg version="1.1" xmlns:xlink="http://www.w3.org/1999/xlink" width="39px" height="39px" xmlns="http://www.w3.org/2000/svg">
  <defs>
    <filter x="98px" y="891px" width="39px" height="39px" filterUnits="userSpaceOnUse" id="filter1953">
      <feOffset dx="0" dy="0" in="SourceAlpha" result="shadowOffsetInner" />
      <feGaussianBlur stdDeviation="0" in="shadowOffsetInner" result="shadowGaussian" />
      <feComposite in2="shadowGaussian" operator="atop" in="SourceAlpha" result="shadowComposite" />
      <feColorMatrix type="matrix" values="0 0 0 0 0.0274509803921569  0 0 0 0 0.113725490196078  0 0 0 0 0.270588235294118  0 0 0 1 0  " in="shadowComposite" />
    </filter>
    <g id="widget1954">
      <path d="M 117.5 892.001086366105  C 127.859391634981 892.001086366105  135.998913633895 900.140608365019  135.998913633895 910.5  C 135.998913633895 920.859391634981  127.859391634981 928.998913633895  117.5 928.998913633895  C 107.140608365019 928.998913633895  99.0010863661054 920.859391634981  99.0010863661054 910.5  C 99.0010863661054 900.140608365019  107.140608365019 892.001086366105  117.5 892.001086366105  Z " fill-rule="nonzero" fill="#ffffff" stroke="none" fill-opacity="0" />
      <path d="M 117.5 892.000543183053  C 127.85969581749 892.000543183053  135.999456816947 900.14030418251  135.999456816947 910.5  C 135.999456816947 920.859695817491  127.85969581749 928.999456816947  117.5 928.999456816947  C 107.140304182509 928.999456816947  99.0005431830527 920.859695817491  99.0005431830527 910.5  C 99.0005431830527 900.14030418251  107.140304182509 892.000543183053  117.5 892.000543183053  Z " stroke-width="2.00108636610538" stroke="#00bfff" fill="none" />
    </g>
  </defs>
  <g transform="matrix(1 0 0 1 -98 -891 )">
    <use xlink:href="#widget1954" filter="url(#filter1953)" />
    <use xlink:href="#widget1954" />
  </g>
</svg>