<?xml version="1.0" encoding="utf-8"?>
<svg version="1.1" xmlns:xlink="http://www.w3.org/1999/xlink" width="910px" height="320px" xmlns="http://www.w3.org/2000/svg">
  <g transform="matrix(1 0 0 1 -40 -734 )">
    <path d="M 41 744  A 9 9 0 0 1 50 735 L 940 735  A 9 9 0 0 1 949 744 L 949 1044  A 9 9 0 0 1 940 1053 L 50 1053  A 9 9 0 0 1 41 1044 L 41 744  Z " fill-rule="nonzero" fill="#0090ff" stroke="none" fill-opacity="0.0980392156862745" />
    <path d="M 40.5 744  A 9.5 9.5 0 0 1 50 734.5 L 940 734.5  A 9.5 9.5 0 0 1 949.5 744 L 949.5 1044  A 9.5 9.5 0 0 1 940 1053.5 L 50 1053.5  A 9.5 9.5 0 0 1 40.5 1044 L 40.5 744  Z " stroke-width="1" stroke="#00a0e9" fill="none" stroke-opacity="0.298039215686275" />
  </g>
</svg>