<?xml version="1.0" encoding="utf-8"?>
<svg version="1.1" xmlns:xlink="http://www.w3.org/1999/xlink" width="224px" height="9px" xmlns="http://www.w3.org/2000/svg">
  <g transform="matrix(1 0 0 1 -187 -118 )">
    <path d="M 68.586 8.604  L 67.88 7.895  L 75.414 0.396  L 76.12 1.105  L 68.586 8.604  Z M 75.586 8.604  L 74.88 7.895  L 82.414 0.396  L 83.12 1.105  L 75.586 8.604  Z M 56.586 8.604  L 55.88 7.895  L 63.414 0.396  L 64.12 1.105  L 56.586 8.604  Z M 62.586 8.604  L 61.88 7.895  L 69.414 0.396  L 70.12 1.105  L 62.586 8.604  Z M 81.586 8.604  L 80.88 7.895  L 88.414 0.396  L 89.12 1.105  L 81.586 8.604  Z M 99.586 8.604  L 98.88 7.895  L 106.414 0.396  L 107.12 1.105  L 99.586 8.604  Z M 105.586 8.604  L 104.88 7.895  L 112.414 0.396  L 113.12 1.105  L 105.586 8.604  Z M 87.586 8.604  L 86.88 7.895  L 94.414 0.396  L 95.12 1.105  L 87.586 8.604  Z M 93.586 8.604  L 92.88 7.895  L 100.414 0.396  L 101.12 1.105  L 93.586 8.604  Z M 13.586 8.604  L 12.88 7.895  L 20.414 0.396  L 21.12 1.105  L 13.586 8.604  Z M 19.586 8.604  L 18.88 7.895  L 26.414 0.396  L 27.12 1.105  L 19.586 8.604  Z M 1.58600000000001 8.604  L 0.879999999999995 7.895  L 8.41399999999999 0.396  L 9.12 1.105  L 1.58600000000001 8.604  Z M 7.58600000000001 8.604  L 6.88 7.895  L 14.414 0.396  L 15.12 1.105  L 7.58600000000001 8.604  Z M 25.586 8.604  L 24.88 7.895  L 32.414 0.396  L 33.12 1.105  L 25.586 8.604  Z M 44.586 8.604  L 43.88 7.895  L 51.414 0.396  L 52.12 1.105  L 44.586 8.604  Z M 50.586 8.604  L 49.88 7.895  L 57.414 0.396  L 58.12 1.105  L 50.586 8.604  Z M 31.586 8.604  L 30.88 7.895  L 38.414 0.396  L 39.12 1.105  L 31.586 8.604  Z M 38.586 8.604  L 37.88 7.895  L 45.414 0.396  L 46.12 1.105  L 38.586 8.604  Z M 178.586 8.604  L 177.88 7.895  L 185.414 0.396  L 186.12 1.105  L 178.586 8.604  Z M 185.586 8.604  L 184.88 7.895  L 192.414 0.396  L 193.12 1.105  L 185.586 8.604  Z M 166.586 8.604  L 165.88 7.895  L 173.414 0.396  L 174.12 1.105  L 166.586 8.604  Z M 172.586 8.604  L 171.88 7.895  L 179.414 0.396  L 180.12 1.105  L 172.586 8.604  Z M 191.586 8.604  L 190.88 7.895  L 198.414 0.396  L 199.12 1.105  L 191.586 8.604  Z M 209.586 8.604  L 208.88 7.895  L 216.414 0.396  L 217.12 1.105  L 209.586 8.604  Z M 223.12 1.105  L 215.586 8.604  L 214.88 7.895  L 222.414 0.396  L 223.12 1.105  Z M 197.586 8.604  L 196.88 7.895  L 204.414 0.396  L 205.12 1.105  L 197.586 8.604  Z M 203.586 8.604  L 202.88 7.895  L 210.414 0.396  L 211.12 1.105  L 203.586 8.604  Z M 123.586 8.604  L 122.88 7.895  L 130.414 0.396  L 131.12 1.105  L 123.586 8.604  Z M 129.586 8.604  L 128.88 7.895  L 136.414 0.396  L 137.12 1.105  L 129.586 8.604  Z M 111.586 8.604  L 110.88 7.895  L 118.414 0.396  L 119.12 1.105  L 111.586 8.604  Z M 117.586 8.604  L 116.88 7.895  L 124.414 0.396  L 125.12 1.105  L 117.586 8.604  Z M 135.586 8.604  L 134.88 7.895  L 142.414 0.396  L 143.12 1.105  L 135.586 8.604  Z M 154.586 8.604  L 153.88 7.895  L 161.414 0.396  L 162.12 1.105  L 154.586 8.604  Z M 160.586 8.604  L 159.88 7.895  L 167.414 0.396  L 168.12 1.105  L 160.586 8.604  Z M 141.586 8.604  L 140.88 7.895  L 148.414 0.396  L 149.12 1.105  L 141.586 8.604  Z M 148.586 8.604  L 147.88 7.895  L 155.414 0.396  L 156.12 1.105  L 148.586 8.604  Z " fill-rule="nonzero" fill="#07a6ff" stroke="none" transform="matrix(1 0 0 1 187 118 )" />
  </g>
</svg>