<?xml version="1.0" encoding="utf-8"?>
<svg version="1.1" xmlns:xlink="http://www.w3.org/1999/xlink" width="520px" height="560px" xmlns="http://www.w3.org/2000/svg">
  <defs>
    <filter x="-30px" y="77px" width="520px" height="560px" filterUnits="userSpaceOnUse" id="filter2058">
      <feOffset dx="0" dy="0" in="SourceAlpha" result="shadowOffsetInner" />
      <feGaussianBlur stdDeviation="15" in="shadowOffsetInner" result="shadowGaussian" />
      <feComposite in2="shadowGaussian" operator="atop" in="SourceAlpha" result="shadowComposite" />
      <feColorMatrix type="matrix" values="0 0 0 0 0.0745098039215686  0 0 0 0 1  0 0 0 0 0.988235294117647  0 0 0 0.6 0  " in="shadowComposite" />
    </filter>
    <g id="widget2059">
      <path d="M 1 117  A 9 9 0 0 1 10 108 L 450 108  A 9 9 0 0 1 459 117 L 459 597  A 9 9 0 0 1 450 606 L 10 606  A 9 9 0 0 1 1 597 L 1 117  Z " fill-rule="nonzero" fill="#011430" stroke="none" fill-opacity="0.8" />
      <path d="M 0.5 117  A 9.5 9.5 0 0 1 10 107.5 L 450 107.5  A 9.5 9.5 0 0 1 459.5 117 L 459.5 597  A 9.5 9.5 0 0 1 450 606.5 L 10 606.5  A 9.5 9.5 0 0 1 0.5 597 L 0.5 117  Z " stroke-width="1" stroke="#13fffc" fill="none" stroke-opacity="0.498039215686275" />
    </g>
  </defs>
  <g transform="matrix(1 0 0 1 30 -77 )">
    <use xlink:href="#widget2059" filter="url(#filter2058)" />
    <use xlink:href="#widget2059" />
  </g>
</svg>