<?xml version="1.0" encoding="utf-8"?>
<svg version="1.1" xmlns:xlink="http://www.w3.org/1999/xlink" width="270px" height="50px" xmlns="http://www.w3.org/2000/svg">
  <g transform="matrix(1 0 0 1 -40 -350 )">
    <path d="M 40.5 353  A 2.5 2.5 0 0 1 43 350.5 L 307 350.5  A 2.5 2.5 0 0 1 309.5 353 L 309.5 397  A 2.5 2.5 0 0 1 307 399.5 L 43 399.5  A 2.5 2.5 0 0 1 40.5 397 L 40.5 353  Z " fill-rule="nonzero" fill="#ffffff" stroke="none" fill-opacity="0" />
    <path d="M 40.5 353  A 2.5 2.5 0 0 1 43 350.5 L 307 350.5  A 2.5 2.5 0 0 1 309.5 353 L 309.5 397  A 2.5 2.5 0 0 1 307 399.5 L 43 399.5  A 2.5 2.5 0 0 1 40.5 397 L 40.5 353  Z " stroke-width="1" stroke="#13fffc" fill="none" />
  </g>
</svg>