<?xml version="1.0" encoding="utf-8"?>
<svg version="1.1" xmlns:xlink="http://www.w3.org/1999/xlink" width="276px" height="56px" xmlns="http://www.w3.org/2000/svg">
  <defs>
    <filter x="37px" y="347px" width="276px" height="56px" filterUnits="userSpaceOnUse" id="filter2060">
      <feOffset dx="0" dy="0" in="SourceAlpha" result="shadowOffsetInner" />
      <feGaussianBlur stdDeviation="1.5" in="shadowOffsetInner" result="shadowGaussian" />
      <feComposite in2="shadowGaussian" operator="atop" in="SourceAlpha" result="shadowComposite" />
      <feColorMatrix type="matrix" values="0 0 0 0 0.0745098039215686  0 0 0 0 1  0 0 0 0 0.988235294117647  0 0 0 1 0  " in="shadowComposite" />
    </filter>
    <g id="widget2061">
      <path d="M 40.5 353  A 2.5 2.5 0 0 1 43 350.5 L 307 350.5  A 2.5 2.5 0 0 1 309.5 353 L 309.5 397  A 2.5 2.5 0 0 1 307 399.5 L 43 399.5  A 2.5 2.5 0 0 1 40.5 397 L 40.5 353  Z " fill-rule="nonzero" fill="#ffffff" stroke="none" fill-opacity="0" />
      <path d="M 40.5 353  A 2.5 2.5 0 0 1 43 350.5 L 307 350.5  A 2.5 2.5 0 0 1 309.5 353 L 309.5 397  A 2.5 2.5 0 0 1 307 399.5 L 43 399.5  A 2.5 2.5 0 0 1 40.5 397 L 40.5 353  Z " stroke-width="1" stroke="#13fffc" fill="none" />
    </g>
  </defs>
  <g transform="matrix(1 0 0 1 -37 -347 )">
    <use xlink:href="#widget2061" filter="url(#filter2060)" />
    <use xlink:href="#widget2061" />
  </g>
</svg>