<?xml version="1.0" encoding="utf-8"?>
<svg version="1.1" xmlns:xlink="http://www.w3.org/1999/xlink" width="64px" height="64px" xmlns="http://www.w3.org/2000/svg">
  <g transform="matrix(1 0 0 1 -67 -662 )">
    <path d="M 99 662  C 116.92 662  131 676.08  131 694  C 131 711.92  116.92 726  99 726  C 81.08 726  67 711.92  67 694  C 67 676.08  81.08 662  99 662  Z " fill-rule="nonzero" fill="#ffffff" stroke="none" fill-opacity="0" />
    <path d="M 99 662.498078004875  C 116.64107631727 662.498078004875  130.501921995125 676.35892368273  130.501921995125 694  C 130.501921995125 711.64107631727  116.64107631727 725.501921995125  99 725.501921995125  C 81.3589236827302 725.501921995125  67.4980780048753 711.64107631727  67.4980780048753 694  C 67.4980780048753 676.35892368273  81.3589236827302 662.498078004875  99 662.498078004875  Z " stroke-width="0.996156009750609" stroke="#91ffd9" fill="none" />
  </g>
</svg>