<?xml version="1.0" encoding="utf-8"?>
<svg version="1.1" xmlns:xlink="http://www.w3.org/1999/xlink" width="80px" height="80px" xmlns="http://www.w3.org/2000/svg">
  <g transform="matrix(1 0 0 1 -60 -654 )">
    <path d="M 100 657.980780048753  C 120.170763172698 657.980780048753  136.019219951247 673.829236827302  136.019219951247 694  C 136.019219951247 714.170763172698  120.170763172698 730.019219951247  100 730.019219951247  C 79.8292368273017 730.019219951247  63.980780048753 714.170763172698  63.980780048753 694  C 63.980780048753 673.829236827302  79.8292368273017 657.980780048753  100 657.980780048753  Z " fill-rule="nonzero" fill="#ffffff" stroke="none" fill-opacity="0" />
    <path d="M 100 656.490390024377  C 121.005381586349 656.490390024377  137.509609975623 672.994618413651  137.509609975623 694  C 137.509609975623 715.005381586349  121.005381586349 731.509609975624  100 731.509609975624  C 78.9946184136509 731.509609975624  62.4903900243765 715.005381586349  62.4903900243765 694  C 62.4903900243765 672.994618413651  78.9946184136509 656.490390024377  100 656.490390024377  Z " stroke-width="4.98078004875305" stroke="#007d7c" fill="none" />
  </g>
</svg>