<svg t="1635246050392" class="icon" viewBox="0 0 1024 1024" version="1.1" xmlns="http://www.w3.org/2000/svg" p-id="13398" width="32" height="32"><path d="M669.487407 299.33037c7.68-1.327407 14.885926-0.18963 17.256297 8.343704 8.059259 28.634074-17.351111 68.551111-40.96 66.180741-68.171852 173.131852-199.395556 173.131852-267.567408 0-23.324444 2.37037-49.019259-37.546667-40.96-66.180741 2.37037-8.438519 9.481481-9.765926 17.066667-8.343704-6.826667-30.151111-10.42963-67.413333-3.887407-97.659259 27.97037-129.517037 258.844444-151.893333 271.549629-69.025185 62.388148 20.764444 65.611852 88.272593 47.502222 166.684444zM479.288889 682.951111c-34.702222-53.475556-55.277037-106.856296-66.37037-146.583704-10.05037 3.887407-22.091852 7.395556-35.081482 10.998519-32.805926 71.300741-25.78963 172.657778 1.517037 242.725926 21.712593-1.611852 40.201481 15.454815 40.201482 37.262222 0 20.66963-16.782222 37.451852-37.451852 37.451852-32.995556 0-49.588148-39.632593-26.832593-63.241482-28.254815-71.395556-36.219259-169.718519-9.671111-245.57037-49.872593 13.463704-103.822222 30.625185-121.552593 66.844445-27.780741 55.845926-49.303704 216.746667-53.76 315.828148h683.235556c-4.456296-98.986667-26.168889-260.171852-53.854815-315.828148-16.782222-34.038519-65.137778-51.105185-112.355555-64.094815 3.982222 26.168889 1.611852 54.234074-4.740741 82.109629 33.564444 13.653333 54.328889 47.407407 47.502222 89.97926-9.102222 57.931852 3.413333 162.417778-70.826667 145.825185-17.066667-3.887407-11.282963-29.866667 5.783704-25.979259 16.782222 3.697778 24.177778-7.68 28.254815-25.410371 5.688889-25.220741 5.783704-68.171852 10.524444-98.417778 11.093333-70.826667-83.626667-92.34963-103.917037-23.419259-8.438519 29.108148-26.832593 67.982222-32.711111 93.582222-3.982222 17.635556-2.085926 31.194074 14.696297 35.081482 17.066667 3.887407 11.282963 29.866667-5.783704 25.979259-74.24-16.592593-18.394074-105.434074-1.611852-161.943704 12.325926-41.718519 45.89037-63.241481 82.10963-61.06074 6.542222-28.634074 8.628148-57.742222 1.896296-83.911111-17.825185-4.740741-34.417778-9.386667-47.786667-14.506667-9.765926 35.934815-32.711111 92.634074-66.939259 146.583704l-12.136296-68.266667 9.102222-21.997037-28.918519-24.651852-29.392592 24.272593 9.197037 21.997037-12.325926 68.361481z" p-id="13399" fill="#30FFAF"></path></svg>