<?xml version="1.0" encoding="utf-8"?>
<svg version="1.1" xmlns:xlink="http://www.w3.org/1999/xlink" width="80px" height="30px" xmlns="http://www.w3.org/2000/svg">
  <g transform="matrix(1 0 0 1 -370 -515 )">
    <path d="M 370.5 520  A 4.5 4.5 0 0 1 375 515.5 L 445 515.5  A 4.5 4.5 0 0 1 449.5 520 L 449.5 540  A 4.5 4.5 0 0 1 445 544.5 L 375 544.5  A 4.5 4.5 0 0 1 370.5 540 L 370.5 520  Z " fill-rule="nonzero" fill="#ffffff" stroke="none" />
    <path d="M 370.5 520  A 4.5 4.5 0 0 1 375 515.5 L 445 515.5  A 4.5 4.5 0 0 1 449.5 520 L 449.5 540  A 4.5 4.5 0 0 1 445 544.5 L 375 544.5  A 4.5 4.5 0 0 1 370.5 540 L 370.5 520  Z " stroke-width="1" stroke="#e4e4e4" fill="none" />
  </g>
</svg>