<?xml version="1.0" encoding="utf-8"?>
<svg version="1.1" xmlns:xlink="http://www.w3.org/1999/xlink" width="12px" height="12px" viewBox="1 3.5  12 12" xmlns="http://www.w3.org/2000/svg">
  <path d="M 7 3.5  C 10.36 3.5  13 6.14  13 9.5  C 13 12.86  10.36 15.5  7 15.5  C 3.64 15.5  1 12.86  1 9.5  C 1 6.14  3.64 3.5  7 3.5  Z " fill-rule="nonzero" fill="#f0f0f0" stroke="none" />
  <path d="M 7 4  C 10.08 4  12.5 6.42  12.5 9.5  C 12.5 12.58  10.08 15  7 15  C 3.92 15  1.5 12.58  1.5 9.5  C 1.5 6.42  3.92 4  7 4  Z " stroke-width="1" stroke="#555555" fill="none" />
  <path d="M 7 12.5  C 5.32 12.5  4 11.18  4 9.5  C 4 7.82  5.32 6.5  7 6.5  C 8.68 6.5  10 7.82  10 9.5  C 10 11.18  8.68 12.5  7 12.5  " fill-rule="nonzero" fill="#555555" stroke="none" />
</svg>