<?xml version="1.0" encoding="utf-8"?>
<svg version="1.1" xmlns:xlink="http://www.w3.org/1999/xlink" width="12px" height="12px" viewBox="300 274.5  12 12" xmlns="http://www.w3.org/2000/svg">
  <path d="M 306 274.5  C 309.36 274.5  312 277.14  312 280.5  C 312 283.86  309.36 286.5  306 286.5  C 302.64 286.5  300 283.86  300 280.5  C 300 277.14  302.64 274.5  306 274.5  Z " fill-rule="nonzero" fill="#ffffff" stroke="none" />
  <path d="M 306 275  C 309.08 275  311.5 277.42  311.5 280.5  C 311.5 283.58  309.08 286  306 286  C 302.92 286  300.5 283.58  300.5 280.5  C 300.5 277.42  302.92 275  306 275  Z " stroke-width="1" stroke="#555555" fill="none" />
  <path d="M 306 283.5  C 304.32 283.5  303 282.18  303 280.5  C 303 278.82  304.32 277.5  306 277.5  C 307.68 277.5  309 278.82  309 280.5  C 309 282.18  307.68 283.5  306 283.5  " fill-rule="nonzero" fill="#555555" stroke="none" />
</svg>