<?xml version="1.0" encoding="utf-8"?>
<svg version="1.1" xmlns:xlink="http://www.w3.org/1999/xlink" width="12px" height="12px" viewBox="190 274.5  12 12" xmlns="http://www.w3.org/2000/svg">
  <path d="M 196 274.5  C 199.36 274.5  202 277.14  202 280.5  C 202 283.86  199.36 286.5  196 286.5  C 192.64 286.5  190 283.86  190 280.5  C 190 277.14  192.64 274.5  196 274.5  Z " fill-rule="nonzero" fill="#ffffff" stroke="none" />
  <path d="M 196 275  C 199.08 275  201.5 277.42  201.5 280.5  C 201.5 283.58  199.08 286  196 286  C 192.92 286  190.5 283.58  190.5 280.5  C 190.5 277.42  192.92 275  196 275  Z " stroke-width="1" stroke="#555555" fill="none" />
  <path d="M 196 283.5  C 194.32 283.5  193 282.18  193 280.5  C 193 278.82  194.32 277.5  196 277.5  C 197.68 277.5  199 278.82  199 280.5  C 199 282.18  197.68 283.5  196 283.5  " fill-rule="nonzero" fill="#555555" stroke="none" />
</svg>