<?xml version="1.0" encoding="utf-8"?>
<svg version="1.1" xmlns:xlink="http://www.w3.org/1999/xlink" width="95px" height="86px" xmlns="http://www.w3.org/2000/svg">
  <defs>
    <path d="M 0 0  L 118 0  L 118 105  L 0 105  Z " fill-rule="evenodd" fill="black" id="path2184" />
    <clipPath id="clip2185">
      <use xlink:href="#path2184" />
    </clipPath>
    <defs>
      <linearGradient id="PSgrad_0" x1="0%" x2="0%" y1="100%" y2="0%">
        <stop offset="0%" stop-color="rgb(0,206,255)" stop-opacity="1" />
        <stop offset="100%" stop-color="rgb(0,255,238)" stop-opacity="1" />
      </linearGradient>
    </defs>
    <path fill-rule="evenodd" fill="url(#PSgrad_0)" d="M14.152,39.900 C11.290,38.350 11.283,35.843 14.139,34.300 L53.259,13.159 C56.115,11.612 60.765,11.612 63.635,13.159 L102.847,34.359 C105.713,35.903 105.720,38.417 102.854,39.960 L63.748,61.100 C60.891,62.647 56.241,62.647 53.372,61.093 L14.152,39.903 L14.152,39.900 ZM90.678,53.890 C91.237,53.629 91.707,53.207 92.026,52.676 L104.893,52.676 C104.647,53.464 103.970,54.204 102.854,54.803 L63.748,75.947 C60.891,77.490 56.241,77.490 53.372,75.941 L14.152,54.740 C13.070,54.150 12.399,53.430 12.133,52.673 L25.087,52.673 C25.415,53.181 25.881,53.584 26.428,53.837 L54.833,68.660 C56.912,69.747 60.280,69.747 62.346,68.667 L90.678,53.877 L90.678,53.890 ZM90.678,68.787 C91.237,68.526 91.706,68.103 92.026,67.574 L104.893,67.574 C104.647,68.360 103.970,69.100 102.854,69.700 L63.741,90.844 C60.885,92.388 56.234,92.388 53.365,90.838 L14.152,69.634 C13.070,69.044 12.392,68.324 12.127,67.567 L25.080,67.567 C25.408,68.075 25.874,68.478 26.422,68.730 L54.826,83.554 C56.905,84.641 60.273,84.641 62.339,83.561 L90.671,68.770 L90.678,68.784 L90.678,68.787 Z" />
    <filter x="-50.00%" y="-50.00%" width="200.00%" height="200.00%" filterUnits="objectBoundingBox" id="filter2186">
      <feColorMatrix type="matrix" values="1 0 0 0 0  0 1 0 0 0  0 0 1 0 0  0 0 0 1 0  " in="SourceGraphic" />
    </filter>
    <filter x="1166px" y="242px" width="95px" height="86px" filterUnits="userSpaceOnUse" id="filter2187">
      <feOffset dx="0" dy="0" in="SourceAlpha" result="shadowOffsetInner" />
      <feGaussianBlur stdDeviation="5" in="shadowOffsetInner" result="shadowGaussian" />
      <feComposite in2="shadowGaussian" operator="atop" in="SourceAlpha" result="shadowComposite" />
      <feColorMatrix type="matrix" values="0 0 0 0 0.0235294117647059  0 0 0 0 0.933333333333333  0 0 0 0 0.941176470588235  0 0 0 0.498039215686275 0  " in="shadowComposite" />
    </filter>
    <g id="widget2188">
      <g transform="matrix(0.628571428571429 0 0 0.628571428571429 1176.41428571429 252 )" clip-path="url(#clip2185)" filter="url(#filter2186)">
        <path fill-rule="evenodd" fill="url(#PSgrad_0)" d="M14.152,39.900 C11.290,38.350 11.283,35.843 14.139,34.300 L53.259,13.159 C56.115,11.612 60.765,11.612 63.635,13.159 L102.847,34.359 C105.713,35.903 105.720,38.417 102.854,39.960 L63.748,61.100 C60.891,62.647 56.241,62.647 53.372,61.093 L14.152,39.903 L14.152,39.900 ZM90.678,53.890 C91.237,53.629 91.707,53.207 92.026,52.676 L104.893,52.676 C104.647,53.464 103.970,54.204 102.854,54.803 L63.748,75.947 C60.891,77.490 56.241,77.490 53.372,75.941 L14.152,54.740 C13.070,54.150 12.399,53.430 12.133,52.673 L25.087,52.673 C25.415,53.181 25.881,53.584 26.428,53.837 L54.833,68.660 C56.912,69.747 60.280,69.747 62.346,68.667 L90.678,53.877 L90.678,53.890 ZM90.678,68.787 C91.237,68.526 91.706,68.103 92.026,67.574 L104.893,67.574 C104.647,68.360 103.970,69.100 102.854,69.700 L63.741,90.844 C60.885,92.388 56.234,92.388 53.365,90.838 L14.152,69.634 C13.070,69.044 12.392,68.324 12.127,67.567 L25.080,67.567 C25.408,68.075 25.874,68.478 26.422,68.730 L54.826,83.554 C56.905,84.641 60.273,84.641 62.339,83.561 L90.671,68.770 L90.678,68.784 L90.678,68.787 Z" />
      </g>
    </g>
  </defs>
  <g transform="matrix(1 0 0 1 -1166 -242 )">
    <use xlink:href="#widget2188" filter="url(#filter2187)" />
    <use xlink:href="#widget2188" />
  </g>
</svg>