<?xml version="1.0" encoding="utf-8"?>
<svg version="1.1" xmlns:xlink="http://www.w3.org/1999/xlink" width="808px" height="496px" xmlns="http://www.w3.org/2000/svg">
  <g transform="matrix(1 0 0 1 -583 -213 )">
    <path d="M 262.00411582273 380.504536100403  L 255.504304223066 379.50456508507  L 244.504623054404 382.004492623402  L 239.50476797774 377.004637546738  L 230.005043332077 377.004637546738  L 229.005072316744 374.004724500739  L 224.00521724008 370.504825947074  L 225.505173763079 362.505057824411  L 233.004956378076 356.505231732414  L 228.005101301411 348.50546360975  L 221.005304194081 357  L 210.505608533086 357  L 204.005796933422 360.005130286079  L 196.506014318426 359.005159270746  L 192.506130257094 355.505260717081  L 188.506246195762 356.505231732414  L 187.006289672763 349.005449117417  L 173.506680965769 354.005304194081  L 162.007014289441 364.504999855077  L 154.507231674444 366.004956378076  L 140.507637459784 362.505057824411  L 131.507898321788 364.504999855077  L 119.508246137793 361.005101301412  L 114.008405553462 362  L 99.0088403234688 362  L 85.5092316164749 364.504999855077  L 81.5093475551433 362.505057824411  L 83.5092895858091 354.005304194081  L 75.0095359554795 352.505347671082  L 70.5096663864815 347.505492594418  L 91.0090722008057 330.505985333758  L 94.5089707544709 330.505985333758  L 96.0089272774702 334.005883887424  L 107.008608446132 330.505985333758  L 121.508188168459 323.506188226428  L 126.008057737457 315.506420103765  L 134.00782586012 304.006753427437  L 134.00782586012 300.006869366105  L 138.507695429118 292.007101243442  L 136.007767890786 288.507202689777  L 138.507695429118 285.007304136112  L 134.00782586012 283.507347613113  L 131.507898321788 286.507260659111  L 124.508101214458 286.507260659111  L 124.508101214458 282.007391090113  L 128.007999768123 277.507521521115  L 126.008057737457 275.50757949045  L 119.508246137793 277.507521521115  L 115.508362076462 283.507347613113  L 109.508535984464 286.507260659111  L 109.508535984464 283.507347613113  L 94.5089707544709 282.007391090113  L 94.5089707544709 277.507521521115  L 107.008608446132 273.507637459784  L 109.508535984464 270.007738906119  L 103.0087243848 267.00782586012  L 103.0087243848 264.007912814121  L 89.00913017014 267.00782586012  L 79.5094055244775 267.00782586012  L 79.5094055244775 264.007912814121  L 75.0095359554795 258.50807222979  L 81.5093475551433 251.008289614794  L 79.5094055244775 248.008376568795  L 79.5094055244775 244.50847801513  L 65.5098113098171 236.0087243848  L 75.0095359554795 226.508999739138  L 81.5093475551433 217.009275093476  L 94.5089707544709 215.509318570476  L 109.508535984464 210.009477986145  L 109.508535984464 205.509608417147  L 114.008405553462 202.509695371149  L 140.507637459784 199.50978232515  L 147.507434567114 193.509956233153  L 147.507434567114 188.510101156488  L 157.007159212776 188.510101156488  L 159.507086751109 183.510246079824  L 157.007159212776 177.01043448016  L 162.007014289441 170.510622880496  L 153.007275151445 170.510622880496  L 147.507434567114 169.010666357497  L 153.007275151445 164.510796788499  L 149.50737659778 160.010927219501  L 157.007159212776 156.511028665836  L 162.007014289441 158.510970696502  L 175.506622996435 157  L 192.506130257094 157  L 201.005883887424 160.010927219501  L 210.505608533086 162.510854757833  L 215.50546360975 167.510709834498  L 224.505202747746 164.510796788499  L 230.005043332077 170.510622880496  L 219.005362163416 172.510564911162  L 228.005101301411 171.510593895829  L 242.004695516072 169.010666357497  L 246.004579577404 163.510825773166  L 246.004579577404 160.510912727167  L 251.504420161734 157.011014173502  L 254.504333207733 158.510970696502  L 259.504188284398 157.011014173502  L 257.504246253732 152.511144604504  L 261.504130315063 145.511347497174  L 260.004173792064 137.011593866844  L 281.503550621721 134.511666328512  L 281.203559317121 134.528665835773  C 279.610938813368 134.654662183705  272.544476971682 135.482304860729  260.004173792064 137.011593866844  L 245.504594069737 135.511637343845  L 241.004724500739 130.511782267181  L 240.004753485406 127.011883713516  L 236.004869424075 127.011883713516  L 238.00481145474 124.011970667517  L 225.005188255413 125.511927190516  L 219.505347671082 125.511927190516  L 218.505376655749 124.011970667517  L 213.505521579085 124.011970667517  L 210.505608533086 127.011883713516  L 205.505753456422 128.011854728848  L 203.005825918089 132.01173879018  L 191.506159241761 134.511666328512  L 191.506159241761 137.011593866844  L 189.006231703429 139.01153589751  L 189.006231703429 143.011419958842  L 181.506449088432 145.511347497174  L 170.50676791977 143.011419958842  L 159.007101243442 145.511347497174  L 157.007159212776 143.011419958842  L 142.50757949045 145.511347497174  L 140.007651952117 143.011419958842  L 136.007767890786 145.511347497174  L 127.508014260456 145.511347497174  L 127.508014260456 141.511463435842  L 123.008144691458 141.511463435842  L 121.008202660792 139.01153589751  L 123.008144691458 134.511666328512  L 117.008318599461 133.011709805513  L 119.508246137793 127.011883713516  L 127.508014260456 125.511927190516  L 133.007854844787 123.011999652184  L 126.008057737457 123.011999652184  L 127.508014260456 116.012202544854  L 124.508101214458 114.012260514188  L 133.007854844787 106.012492391525  L 132.907857743254 106.006492565433  C 132.323208022956 105.931828062955  131.873221066056 105.181849801455  131.557896872554 103.756557780934  L 131.507898321788 103.512564853193  L 126.508043245123 102.51259383786  L 121.508188168459 108.012434422191  L 114.508391061129 109.012405437524  L 103.0087243848 110.512361960523  L 101.508767861801 107.012463406858  L 98.5088548158024 106.012492391525  L 100.508796846468 102.51259383786  L 94.5089707544709 102.51259383786  L 97.5088838004695 100.012666299528  L 103.0087243848 98.0127242688618  L 108.508564969131 95.0128112228631  L 108.508564969131 93.0128691921973  L 115.508362076462 93.0128691921973  L 117.008318599461 88.5129996231993  L 125.008086722124 84.0131300542013  L 131.507898321788 85.0131010695342  L 134.00782586012 84.0131300542013  L 143.007564998116 75.0133909162053  L 151.007333120779 72.0134778702067  L 153.507260659111 68  L 134.507811367786 68  L 124.008115706791 69  L 111.008492507464 69  L 98.008869308136 68.0135938088751  L 101.508767861801 64.51369525521  L 111.008492507464 59.5138401785456  L 104.008695400133 58.5138691632127  L 103.0087243848 55.0139706095476  L 104.008695400133 51.5140720558825  L 101.508767861801 51.5140720558825  L 98.008869308136 53.0140285788818  L 91.0090722008057 53.0140285788818  L 90.0091011854728 49.0141445175502  L 85.5092316164749 49.0141445175502  L 83.7562824265963 49.7341236485899  C 82.0792468181362 50.5214058314502  80.3193344532099 51.1184410915167  78.5094345091446 51.5140720558825  C 77.8427871655894 51.5140720558825  75.6761832990348 50.6807628764384  72.0096229094808 49.0141445175502  L 68.0097388481493 47.5141879945509  L 60.5099562331526 49  L 49.5102750644908 49  L 47.0103475261586 46.0142314715516  L 40.5105359264948 44.5142749485522  L 44.5104199878264 39.0144343642213  L 40.5105359264948 37.0144923335556  L 44.5104199878264 33.014608272224  L 39.510564911162 32.0146372568911  L 32.5107678038317 33.014608272224  L 28.5108837425002 32.0146372568911  L 27.0109272195008 29.0147242108924  L 17.011217066172 29.0147242108924  L 7.51149242050951 25.5148256572273  L 0.0117098055128366 19.0150140575635  L 12.0113619895075 11.0152459349004  L 33.5107388191646 9  L 60.5099562331526 9  L 72.0096229094808 11.0152459349004  L 74.5095504478131 14.0151589808991  L 77.5094634938117 17.0150720268978  L 74.5095504478131 19.0150140575635  L 77.5094634938117 22.5149126112287  L 74.5095504478131 24.5148546418944  L 80.009391032144 30.0146952262253  L 92.5090287238051 24.5148546418944  L 101.508767861801 22.5149126112287  L 109.008550476798 30.0146952262253  L 116.008347584128 27.0147821802267  L 119.508246137793 30.0146952262253  L 127.00802875279 27.0147821802267  L 134.507811367786 24.5148546418944  L 140.507637459784 27.0147821802267  L 145.007507028782 27.0147821802267  L 148.00742007478 22.5149126112287  L 163.50697081244 20  L 182.506420103765 20  L 182.506420103765 24.5148546418944  L 188.006260688096 24.5148546418944  L 182.506420103765 30  L 196.506014318426 30  L 211.005594040752 32.0146372568911  L 207.505695487087 31.0146662415582  L 213.505521579085 27.0147821802267  L 214.505492594418 21.5149415958958  L 221.505289701748 20.0149850728964  L 223.005246224747 18.0150430422307  L 236.504854931741 16.5150865192313  L 247.504536100403 19.0150140575635  L 254.504333207733 16.5150865192313  L 253.004376684734 14.5151444885656  L 264.504043361062 10.0152749195676  L 271.503840468392 5.01541984290311  L 288.003362221385 3.01547781223733  L 301.502970928379 1.515521289238  L 316.502536158372 0.515550273905106  L 318.502478189038 3.01547781223733  L 309.502739051042 5.01541984290311  L 305.50285498971 10.0152749195676  L 307.00281151271 13.5151734732327  L 327.002231819368 14.5151444885656  L 335.001999942031 16.0151010115649  L 332.002086896032 20.0149850728964  L 339.001884003362 21.5149415958958  L 352.00150720269 24.5148546418944  L 363.001188371352 26.0148111648938  L 365.501115909684 29.0147242108924  L 373.00089852468 28.0147531955596  L 392.500333323672 31.0146662415582  L 406.499927538332 34.5145647952233  L 421.499492768326 36.5145068258891  L 429.499260890989 47.5141879945509  L 448.498710182314 63.5137242398771  L 456.998463812643 69.013564824208  L 476.497898611635 82.0131880235356  L 483.997681226631 88.5129996231993  L 486.99759427263 93.5128546998638  L 492.497434856961 96.5127677458624  L 499.497231964291 96.5127677458624  L 504.497087040955 99.5126807918611  L 500.99718848729 101.01263731486  L 506.997014579288 104.512535868526  L 512.996840671285 115.512217037187  L 519.496652270949 117.012173560187  L 526.496449378279 126.511898205849  L 526.496449378279 130.011796759514  L 533.996231993276 132.01173879018  L 537.496130546941 141.511463435842  L 529.996347931944 143.511405466508  L 533.996231993276 151.511173589171  L 526.496449378279 155.011072142836  L 519.496652270949 157.461001130402  L 525.996463870613 155.511057650503  L 533.996231993276 151.511173589171  L 543.495956638938 151.511173589171  L 545.495898669604 156.511028665836  L 552.9956812846 156.511028665836  L 570.995159560592 162.010869250167  L 591.494565374917 167.510709834498  L 624.993594388568 172.010579403496  L 640.993130633895 189.010086664155  L 650.992840787224 197.009854786818  L 651.992811802557 202.509695371149  L 655.492710356222 207.509550447813  L 666.492391524883 208.509521463146  L 716.990927799194 218.009246108808  L 725.99066693719 224.009072200806  L 750.989942320512 235.008753369468  L 755.989797397177 241.008579461465  L 795.488652502826 266.007854844787  L 807.988290194487 285.007304136112  L 801.98846410249 287.007246166778  L 730.990522013855 274.507608475117  L 700.491406046202 266.007854844787  L 678.492043708878 261.507985275789  L 661.492536448219 250.508304107127  L 646.992956725892 246.508420045796  L 629.493463957567 250.508304107127  L 617.993797281238 261.507985275789  L 687.491782846874 297.006956320107  L 687.491782846874 306.506680965769  L 677.492072693545 311.506536042434  L 662.992492971218 313.506478073099  L 649.992869771891 320.006289672763  L 652.492797310223 326.00611576476  L 646.992956725892 334.50586939509  L 646.992956725892 338.005767948755  L 652.492797310223 341.005680994754  L 656.492681371554 347.005507086751  L 660.992550940553 345.505550563752  L 667.992348047883 351.505376655749  L 662.992492971218 355.505260717081  L 656.492681371554 353.005333178748  L 652.492797310223 353.005333178748  L 646.992956725892 351.505376655749  L 646.992956725892 355.505260717081  L 658.992608909887 381.504507115736  L 652.492797310223 383.004463638735  L 649.992869771891 386  L 621.99368134257 386  L 608.994058143242 390.004260746065  L 608.994058143242 393.50415929973  L 617.993797281238 396.004086838063  L 621.99368134257 400.003970899394  L 623.993623373236 407.003768006725  L 627.493521926901 420.503376713718  L 619.493753804238 425.003246282716  L 606.994116112577 420  L 592.994521897916 420  L 592.994521897916 427.503173821049  L 589.494623344251 433.00301440538  L 583.494797252254 431.50305788238  L 574.995043621924 429.503115851714  L 574.995043621924 433.00301440538  L 585.494739282919 444.002695574041  L 587.494681313585 456.502333265702  L 585.494739282919 459.502246311701  L 579.994898698588 458.002289788702  L 574.995043621924 467  L 555.495608822933 467  L 536.996145039274 495.001217356019  L 527.496420393612 491.001333294687  L 522.996550824614 480.501637633692  L 516.49673922495 477.501724587693  L 514.496797194284 467.002028926698  L 511.496884148286 461.502188342367  L 507.99698559462 451.002492681372  L 507.99698559462 444.002695574041  L 504.497087040955 444.002695574041  L 500.99718848729 451.002492681372  L 489.997507318628 456.502333265702  L 485 448.502565143039  L 485 437.002898466711  L 474.497956580969 440.00281151271  L 457.49844932031 444.002695574041  L 421.499492768326 437.002898466711  L 395.50024636967 420.503376713718  L 384.000579693342 414.503550621721  L 369.500999971015 393.50415929973  L 363.501173879018 378.004608562071  L 354.001449233356 380.504536100403  L 349.501579664358 379.004579577404  L 341.501811541694 379.004579577404  L 338.501898495696 382.004492623402  L 334.502014434364 384.004434654068  L 330.002144865366 382.004492623402  L 330.002144865366 378.004608562071  L 326.502246311701 376.504652039071  L 318.002492681372 379.004579577404  L 310.502710066375 379.004579577404  L 307.00281151271 383.004463638735  L 302.002956436045 379.004579577404  L 282.003536129388 391.004231761398  L 273.503782499058 391.004231761398  L 262.00411582273 380.504536100403  Z " fill-rule="nonzero" fill="#0647bf" stroke="none" transform="matrix(1 0 0 1 583 213 )" />
  </g>
</svg>