<?xml version="1.0" encoding="utf-8"?>
<svg version="1.1" xmlns:xlink="http://www.w3.org/1999/xlink" width="160px" height="110px" xmlns="http://www.w3.org/2000/svg">
  <defs>
    <mask fill="white" id="clip1060">
      <path d="M 5.50537665574907 84.0109851888352  C 5.50537665574907 84.0109851888352  14.5051157937451 83.0110141735022  14.5051157937451 83.0110141735022  C 14.5051157937451 83.0110141735022  28.5047100084055 80.51108663517  28.5047100084055 80.51108663517  C 28.5047100084055 80.51108663517  32.5045940697371 75.0112460508391  32.5045940697371 75.0112460508391  C 32.5045940697371 75.0112460508391  32.5045940697371 72.0113330048405  32.5045940697371 72.0113330048405  C 32.5045940697371 72.0113330048405  38.004434654068 68.5114344511753  38.004434654068 68.5114344511753  C 38.004434654068 68.5114344511753  41.0043477000667 70.0113909741747  41.0043477000667 70.0113909741747  C 41.0043477000667 70.0113909741747  46.0042027767311 68.5114344511753  46.0042027767311 68.5114344511753  C 46.0042027767311 68.5114344511753  44.0042607460653 64.0115648821774  44.0042607460653 64.0115648821774  C 44.0042607460653 64.0115648821774  48.0041448073969 57.0117677748471  48.0041448073969 57.0117677748471  C 48.0041448073969 57.0117677748471  46.5041882843975 47.5120431291847  46.5041882843975 47.5120431291847  C 46.5041882843975 47.5120431291847  68.0035651140547 45.0121155908525  68.0035651140547 45.0121155908525  C 68.0035651140547 45.0121155908525  71.0034781600533 32.0124923915249  71.0034781600533 32.0124923915249  C 71.0034781600533 32.0124923915249  80.0032172980493 27.5126228225269  80.0032172980493 27.5126228225269  C 80.0032172980493 27.5126228225269  76.5033187443842 24.5127097765282  76.5033187443842 24.5127097765282  C 76.5033187443842 24.5127097765282  74.5033767137184 21.0128112228631  74.5033767137184 21.0128112228631  C 74.5033767137184 21.0128112228631  71.0034781600533 21.0128112228631  71.0034781600533 21.0128112228631  C 71.0034781600533 21.0128112228631  68.0035651140547 18.0128981768645  68.0035651140547 18.0128981768645  C 68.0035651140547 18.0128981768645  61.5037535143909 18.0128981768645  61.5037535143909 18.0128981768645  C 61.5037535143909 18.0128981768645  61.5037535143909 15.5129706385322  61.5037535143909 15.5129706385322  C 61.5037535143909 15.5129706385322  51.504043361062 13.0130431002  51.504043361062 13.0130431002  C 51.504043361062 13.0130431002  55.0039419147271 9.01315903886845  55.0039419147271 9.01315903886845  C 55.0039419147271 9.01315903886845  68.0035651140547 7.51320251586912  68.0035651140547 7.51320251586912  C 68.0035651140547 7.51320251586912  68.0035651140547 4.01330396220401  68.0035651140547 4.01330396220401  C 68.0035651140547 4.01330396220401  82.0031593287151 2.01336193153823  82.0031593287151 2.01336193153823  C 82.0031593287151 2.01336193153823  98.0026955740414 2.01336193153823  98.0026955740414 2.01336193153823  C 98.0026955740414 2.01336193153823  100.502623112374 0.0134199008724636  100.502623112374 0.0134199008724636  C 100.502623112374 0.0134199008724636  117.502130373033 2.01336193153823  117.502130373033 2.01336193153823  C 117.502130373033 2.01336193153823  124.501927480363 7.01321700820267  124.501927480363 7.01321700820267  C 124.501927480363 7.01321700820267  131.501724587693 7.51320251586912  131.501724587693 7.51320251586912  C 131.501724587693 7.51320251586912  131.501724587693 15.0129851308658  131.501724587693 15.0129851308658  C 131.501724587693 15.0129851308658  122.501985449697 19.0128691921973  122.501985449697 19.0128691921973  C 122.501985449697 19.0128691921973  125.501898495696 24.5127097765282  125.501898495696 24.5127097765282  C 125.501898495696 24.5127097765282  128.501811541694 25.5126807918611  128.501811541694 25.5126807918611  C 128.501811541694 25.5126807918611  130.001768064694 32.0124923915249  130.001768064694 32.0124923915249  C 130.001768064694 32.0124923915249  128.501811541694 35.0124054375236  128.501811541694 35.0124054375236  C 128.501811541694 35.0124054375236  130.001768064694 36.5123619605229  130.001768064694 36.5123619605229  C 130.001768064694 36.5123619605229  131.501724587693 39.5122750065216  131.501724587693 39.5122750065216  C 131.501724587693 39.5122750065216  139.501492710356 38.5123039911887  139.501492710356 38.5123039911887  C 139.501492710356 38.5123039911887  143.001391264021 43.0121735601867  143.001391264021 43.0121735601867  C 143.001391264021 43.0121735601867  143.001391264021 47.5120431291847  143.001391264021 47.5120431291847  C 143.001391264021 47.5120431291847  147.001275325353 49.011999652184  147.001275325353 49.011999652184  C 147.001275325353 49.011999652184  152.001130402017 52.0119126981827  152.001130402017 52.0119126981827  C 152.001130402017 52.0119126981827  151.001159386684 56.0117967595143  151.001159386684 56.0117967595143  C 151.001159386684 56.0117967595143  159.000927509348 65.0115358975102  159.000927509348 65.0115358975102  C 159.000927509348 65.0115358975102  156.001014463349 67.5114634358425  156.001014463349 67.5114634358425  C 156.001014463349 67.5114634358425  149.001217356019 64.0115648821774  149.001217356019 64.0115648821774  C 149.001217356019 64.0115648821774  143.001391264021 65.0115358975102  143.001391264021 65.0115358975102  C 143.001391264021 65.0115358975102  143.001391264021 70.0113909741747  143.001391264021 70.0113909741747  C 143.001391264021 70.0113909741747  145.001333294687 76.011217066172  145.001333294687 76.011217066172  C 145.001333294687 76.011217066172  142.001420248688 83.0110141735022  142.001420248688 83.0110141735022  C 142.001420248688 83.0110141735022  151.001159386684 83.0110141735022  151.001159386684 83.0110141735022  C 151.001159386684 83.0110141735022  152.001130402017 88.5108547578331  152.001130402017 88.5108547578331  C 152.001130402017 88.5108547578331  145.001333294687 100.510506941828  145.001333294687 100.510506941828  C 145.001333294687 100.510506941828  137.001565172024 99.0105504188285  137.001565172024 99.0105504188285  C 137.001565172024 99.0105504188285  127.501840526362 99.0105504188285  127.501840526362 99.0105504188285  C 127.501840526362 99.0105504188285  120.502043419031 103.01043448016  120.502043419031 103.01043448016  C 120.502043419031 103.01043448016  115.0022028347 103.01043448016  115.0022028347 103.01043448016  C 115.0022028347 103.01043448016  105.502478189038 107.510304049158  105.502478189038 107.510304049158  C 105.502478189038 107.510304049158  96.502739051042 107.510304049158  96.502739051042 107.510304049158  C 96.502739051042 107.510304049158  95.5027680357091 103.01043448016  95.5027680357091 103.01043448016  C 95.5027680357091 103.01043448016  90.5029129590446 103.01043448016  90.5029129590446 103.01043448016  C 90.5029129590446 103.01043448016  87.502999913046 106.010347526159  87.502999913046 106.010347526159  C 87.502999913046 106.010347526159  71.0034781600533 106.010347526159  71.0034781600533 106.010347526159  C 71.0034781600533 106.010347526159  61.5037535143909 109.010260572157  61.5037535143909 109.010260572157  C 61.5037535143909 109.010260572157  51.504043361062 107.510304049158  51.504043361062 107.510304049158  C 51.504043361062 107.510304049158  35.5045071157357 109.010260572157  35.5045071157357 109.010260572157  C 35.5045071157357 109.010260572157  28.5047100084055 109.010260572157  28.5047100084055 109.010260572157  C 28.5047100084055 109.010260572157  16.5050578244109 107.510304049158  16.5050578244109 107.510304049158  C 16.5050578244109 107.510304049158  7.50531868641485 107.510304049158  7.50531868641485 107.510304049158  C 7.50531868641485 107.510304049158  0.00553607141819157 106.010347526159  0.00553607141819157 106.010347526159  C 0.00553607141819157 106.010347526159  3.00544911741687 97.5105938958291  3.00544911741687 97.5105938958291  C 3.00544911741687 97.5105938958291  1.50549259441752 95.0106663574969  1.50549259441752 95.0106663574969  C 1.50549259441752 95.0106663574969  3.00544911741687 90.5107967884989  3.00544911741687 90.5107967884989  C 3.00544911741687 90.5107967884989  5.50537665574907 84.0109851888352  5.50537665574907 84.0109851888352  Z " fill-rule="evenodd" />
    </mask>
  </defs>
  <g transform="matrix(1 0 0 1 -796 -287 )">
    <path d="M 5.50537665574907 84.0109851888352  C 5.50537665574907 84.0109851888352  14.5051157937451 83.0110141735022  14.5051157937451 83.0110141735022  C 14.5051157937451 83.0110141735022  28.5047100084055 80.51108663517  28.5047100084055 80.51108663517  C 28.5047100084055 80.51108663517  32.5045940697371 75.0112460508391  32.5045940697371 75.0112460508391  C 32.5045940697371 75.0112460508391  32.5045940697371 72.0113330048405  32.5045940697371 72.0113330048405  C 32.5045940697371 72.0113330048405  38.004434654068 68.5114344511753  38.004434654068 68.5114344511753  C 38.004434654068 68.5114344511753  41.0043477000667 70.0113909741747  41.0043477000667 70.0113909741747  C 41.0043477000667 70.0113909741747  46.0042027767311 68.5114344511753  46.0042027767311 68.5114344511753  C 46.0042027767311 68.5114344511753  44.0042607460653 64.0115648821774  44.0042607460653 64.0115648821774  C 44.0042607460653 64.0115648821774  48.0041448073969 57.0117677748471  48.0041448073969 57.0117677748471  C 48.0041448073969 57.0117677748471  46.5041882843975 47.5120431291847  46.5041882843975 47.5120431291847  C 46.5041882843975 47.5120431291847  68.0035651140547 45.0121155908525  68.0035651140547 45.0121155908525  C 68.0035651140547 45.0121155908525  71.0034781600533 32.0124923915249  71.0034781600533 32.0124923915249  C 71.0034781600533 32.0124923915249  80.0032172980493 27.5126228225269  80.0032172980493 27.5126228225269  C 80.0032172980493 27.5126228225269  76.5033187443842 24.5127097765282  76.5033187443842 24.5127097765282  C 76.5033187443842 24.5127097765282  74.5033767137184 21.0128112228631  74.5033767137184 21.0128112228631  C 74.5033767137184 21.0128112228631  71.0034781600533 21.0128112228631  71.0034781600533 21.0128112228631  C 71.0034781600533 21.0128112228631  68.0035651140547 18.0128981768645  68.0035651140547 18.0128981768645  C 68.0035651140547 18.0128981768645  61.5037535143909 18.0128981768645  61.5037535143909 18.0128981768645  C 61.5037535143909 18.0128981768645  61.5037535143909 15.5129706385322  61.5037535143909 15.5129706385322  C 61.5037535143909 15.5129706385322  51.504043361062 13.0130431002  51.504043361062 13.0130431002  C 51.504043361062 13.0130431002  55.0039419147271 9.01315903886845  55.0039419147271 9.01315903886845  C 55.0039419147271 9.01315903886845  68.0035651140547 7.51320251586912  68.0035651140547 7.51320251586912  C 68.0035651140547 7.51320251586912  68.0035651140547 4.01330396220401  68.0035651140547 4.01330396220401  C 68.0035651140547 4.01330396220401  82.0031593287151 2.01336193153823  82.0031593287151 2.01336193153823  C 82.0031593287151 2.01336193153823  98.0026955740414 2.01336193153823  98.0026955740414 2.01336193153823  C 98.0026955740414 2.01336193153823  100.502623112374 0.0134199008724636  100.502623112374 0.0134199008724636  C 100.502623112374 0.0134199008724636  117.502130373033 2.01336193153823  117.502130373033 2.01336193153823  C 117.502130373033 2.01336193153823  124.501927480363 7.01321700820267  124.501927480363 7.01321700820267  C 124.501927480363 7.01321700820267  131.501724587693 7.51320251586912  131.501724587693 7.51320251586912  C 131.501724587693 7.51320251586912  131.501724587693 15.0129851308658  131.501724587693 15.0129851308658  C 131.501724587693 15.0129851308658  122.501985449697 19.0128691921973  122.501985449697 19.0128691921973  C 122.501985449697 19.0128691921973  125.501898495696 24.5127097765282  125.501898495696 24.5127097765282  C 125.501898495696 24.5127097765282  128.501811541694 25.5126807918611  128.501811541694 25.5126807918611  C 128.501811541694 25.5126807918611  130.001768064694 32.0124923915249  130.001768064694 32.0124923915249  C 130.001768064694 32.0124923915249  128.501811541694 35.0124054375236  128.501811541694 35.0124054375236  C 128.501811541694 35.0124054375236  130.001768064694 36.5123619605229  130.001768064694 36.5123619605229  C 130.001768064694 36.5123619605229  131.501724587693 39.5122750065216  131.501724587693 39.5122750065216  C 131.501724587693 39.5122750065216  139.501492710356 38.5123039911887  139.501492710356 38.5123039911887  C 139.501492710356 38.5123039911887  143.001391264021 43.0121735601867  143.001391264021 43.0121735601867  C 143.001391264021 43.0121735601867  143.001391264021 47.5120431291847  143.001391264021 47.5120431291847  C 143.001391264021 47.5120431291847  147.001275325353 49.011999652184  147.001275325353 49.011999652184  C 147.001275325353 49.011999652184  152.001130402017 52.0119126981827  152.001130402017 52.0119126981827  C 152.001130402017 52.0119126981827  151.001159386684 56.0117967595143  151.001159386684 56.0117967595143  C 151.001159386684 56.0117967595143  159.000927509348 65.0115358975102  159.000927509348 65.0115358975102  C 159.000927509348 65.0115358975102  156.001014463349 67.5114634358425  156.001014463349 67.5114634358425  C 156.001014463349 67.5114634358425  149.001217356019 64.0115648821774  149.001217356019 64.0115648821774  C 149.001217356019 64.0115648821774  143.001391264021 65.0115358975102  143.001391264021 65.0115358975102  C 143.001391264021 65.0115358975102  143.001391264021 70.0113909741747  143.001391264021 70.0113909741747  C 143.001391264021 70.0113909741747  145.001333294687 76.011217066172  145.001333294687 76.011217066172  C 145.001333294687 76.011217066172  142.001420248688 83.0110141735022  142.001420248688 83.0110141735022  C 142.001420248688 83.0110141735022  151.001159386684 83.0110141735022  151.001159386684 83.0110141735022  C 151.001159386684 83.0110141735022  152.001130402017 88.5108547578331  152.001130402017 88.5108547578331  C 152.001130402017 88.5108547578331  145.001333294687 100.510506941828  145.001333294687 100.510506941828  C 145.001333294687 100.510506941828  137.001565172024 99.0105504188285  137.001565172024 99.0105504188285  C 137.001565172024 99.0105504188285  127.501840526362 99.0105504188285  127.501840526362 99.0105504188285  C 127.501840526362 99.0105504188285  120.502043419031 103.01043448016  120.502043419031 103.01043448016  C 120.502043419031 103.01043448016  115.0022028347 103.01043448016  115.0022028347 103.01043448016  C 115.0022028347 103.01043448016  105.502478189038 107.510304049158  105.502478189038 107.510304049158  C 105.502478189038 107.510304049158  96.502739051042 107.510304049158  96.502739051042 107.510304049158  C 96.502739051042 107.510304049158  95.5027680357091 103.01043448016  95.5027680357091 103.01043448016  C 95.5027680357091 103.01043448016  90.5029129590446 103.01043448016  90.5029129590446 103.01043448016  C 90.5029129590446 103.01043448016  87.502999913046 106.010347526159  87.502999913046 106.010347526159  C 87.502999913046 106.010347526159  71.0034781600533 106.010347526159  71.0034781600533 106.010347526159  C 71.0034781600533 106.010347526159  61.5037535143909 109.010260572157  61.5037535143909 109.010260572157  C 61.5037535143909 109.010260572157  51.504043361062 107.510304049158  51.504043361062 107.510304049158  C 51.504043361062 107.510304049158  35.5045071157357 109.010260572157  35.5045071157357 109.010260572157  C 35.5045071157357 109.010260572157  28.5047100084055 109.010260572157  28.5047100084055 109.010260572157  C 28.5047100084055 109.010260572157  16.5050578244109 107.510304049158  16.5050578244109 107.510304049158  C 16.5050578244109 107.510304049158  7.50531868641485 107.510304049158  7.50531868641485 107.510304049158  C 7.50531868641485 107.510304049158  0.00553607141819157 106.010347526159  0.00553607141819157 106.010347526159  C 0.00553607141819157 106.010347526159  3.00544911741687 97.5105938958291  3.00544911741687 97.5105938958291  C 3.00544911741687 97.5105938958291  1.50549259441752 95.0106663574969  1.50549259441752 95.0106663574969  C 1.50549259441752 95.0106663574969  3.00544911741687 90.5107967884989  3.00544911741687 90.5107967884989  C 3.00544911741687 90.5107967884989  5.50537665574907 84.0109851888352  5.50537665574907 84.0109851888352  Z " fill-rule="nonzero" fill="#033571" stroke="none" transform="matrix(1 0 0 1 796 287 )" />
    <path d="M 5.50537665574907 84.0109851888352  C 5.50537665574907 84.0109851888352  14.5051157937451 83.0110141735022  14.5051157937451 83.0110141735022  C 14.5051157937451 83.0110141735022  28.5047100084055 80.51108663517  28.5047100084055 80.51108663517  C 28.5047100084055 80.51108663517  32.5045940697371 75.0112460508391  32.5045940697371 75.0112460508391  C 32.5045940697371 75.0112460508391  32.5045940697371 72.0113330048405  32.5045940697371 72.0113330048405  C 32.5045940697371 72.0113330048405  38.004434654068 68.5114344511753  38.004434654068 68.5114344511753  C 38.004434654068 68.5114344511753  41.0043477000667 70.0113909741747  41.0043477000667 70.0113909741747  C 41.0043477000667 70.0113909741747  46.0042027767311 68.5114344511753  46.0042027767311 68.5114344511753  C 46.0042027767311 68.5114344511753  44.0042607460653 64.0115648821774  44.0042607460653 64.0115648821774  C 44.0042607460653 64.0115648821774  48.0041448073969 57.0117677748471  48.0041448073969 57.0117677748471  C 48.0041448073969 57.0117677748471  46.5041882843975 47.5120431291847  46.5041882843975 47.5120431291847  C 46.5041882843975 47.5120431291847  68.0035651140547 45.0121155908525  68.0035651140547 45.0121155908525  C 68.0035651140547 45.0121155908525  71.0034781600533 32.0124923915249  71.0034781600533 32.0124923915249  C 71.0034781600533 32.0124923915249  80.0032172980493 27.5126228225269  80.0032172980493 27.5126228225269  C 80.0032172980493 27.5126228225269  76.5033187443842 24.5127097765282  76.5033187443842 24.5127097765282  C 76.5033187443842 24.5127097765282  74.5033767137184 21.0128112228631  74.5033767137184 21.0128112228631  C 74.5033767137184 21.0128112228631  71.0034781600533 21.0128112228631  71.0034781600533 21.0128112228631  C 71.0034781600533 21.0128112228631  68.0035651140547 18.0128981768645  68.0035651140547 18.0128981768645  C 68.0035651140547 18.0128981768645  61.5037535143909 18.0128981768645  61.5037535143909 18.0128981768645  C 61.5037535143909 18.0128981768645  61.5037535143909 15.5129706385322  61.5037535143909 15.5129706385322  C 61.5037535143909 15.5129706385322  51.504043361062 13.0130431002  51.504043361062 13.0130431002  C 51.504043361062 13.0130431002  55.0039419147271 9.01315903886845  55.0039419147271 9.01315903886845  C 55.0039419147271 9.01315903886845  68.0035651140547 7.51320251586912  68.0035651140547 7.51320251586912  C 68.0035651140547 7.51320251586912  68.0035651140547 4.01330396220401  68.0035651140547 4.01330396220401  C 68.0035651140547 4.01330396220401  82.0031593287151 2.01336193153823  82.0031593287151 2.01336193153823  C 82.0031593287151 2.01336193153823  98.0026955740414 2.01336193153823  98.0026955740414 2.01336193153823  C 98.0026955740414 2.01336193153823  100.502623112374 0.0134199008724636  100.502623112374 0.0134199008724636  C 100.502623112374 0.0134199008724636  117.502130373033 2.01336193153823  117.502130373033 2.01336193153823  C 117.502130373033 2.01336193153823  124.501927480363 7.01321700820267  124.501927480363 7.01321700820267  C 124.501927480363 7.01321700820267  131.501724587693 7.51320251586912  131.501724587693 7.51320251586912  C 131.501724587693 7.51320251586912  131.501724587693 15.0129851308658  131.501724587693 15.0129851308658  C 131.501724587693 15.0129851308658  122.501985449697 19.0128691921973  122.501985449697 19.0128691921973  C 122.501985449697 19.0128691921973  125.501898495696 24.5127097765282  125.501898495696 24.5127097765282  C 125.501898495696 24.5127097765282  128.501811541694 25.5126807918611  128.501811541694 25.5126807918611  C 128.501811541694 25.5126807918611  130.001768064694 32.0124923915249  130.001768064694 32.0124923915249  C 130.001768064694 32.0124923915249  128.501811541694 35.0124054375236  128.501811541694 35.0124054375236  C 128.501811541694 35.0124054375236  130.001768064694 36.5123619605229  130.001768064694 36.5123619605229  C 130.001768064694 36.5123619605229  131.501724587693 39.5122750065216  131.501724587693 39.5122750065216  C 131.501724587693 39.5122750065216  139.501492710356 38.5123039911887  139.501492710356 38.5123039911887  C 139.501492710356 38.5123039911887  143.001391264021 43.0121735601867  143.001391264021 43.0121735601867  C 143.001391264021 43.0121735601867  143.001391264021 47.5120431291847  143.001391264021 47.5120431291847  C 143.001391264021 47.5120431291847  147.001275325353 49.011999652184  147.001275325353 49.011999652184  C 147.001275325353 49.011999652184  152.001130402017 52.0119126981827  152.001130402017 52.0119126981827  C 152.001130402017 52.0119126981827  151.001159386684 56.0117967595143  151.001159386684 56.0117967595143  C 151.001159386684 56.0117967595143  159.000927509348 65.0115358975102  159.000927509348 65.0115358975102  C 159.000927509348 65.0115358975102  156.001014463349 67.5114634358425  156.001014463349 67.5114634358425  C 156.001014463349 67.5114634358425  149.001217356019 64.0115648821774  149.001217356019 64.0115648821774  C 149.001217356019 64.0115648821774  143.001391264021 65.0115358975102  143.001391264021 65.0115358975102  C 143.001391264021 65.0115358975102  143.001391264021 70.0113909741747  143.001391264021 70.0113909741747  C 143.001391264021 70.0113909741747  145.001333294687 76.011217066172  145.001333294687 76.011217066172  C 145.001333294687 76.011217066172  142.001420248688 83.0110141735022  142.001420248688 83.0110141735022  C 142.001420248688 83.0110141735022  151.001159386684 83.0110141735022  151.001159386684 83.0110141735022  C 151.001159386684 83.0110141735022  152.001130402017 88.5108547578331  152.001130402017 88.5108547578331  C 152.001130402017 88.5108547578331  145.001333294687 100.510506941828  145.001333294687 100.510506941828  C 145.001333294687 100.510506941828  137.001565172024 99.0105504188285  137.001565172024 99.0105504188285  C 137.001565172024 99.0105504188285  127.501840526362 99.0105504188285  127.501840526362 99.0105504188285  C 127.501840526362 99.0105504188285  120.502043419031 103.01043448016  120.502043419031 103.01043448016  C 120.502043419031 103.01043448016  115.0022028347 103.01043448016  115.0022028347 103.01043448016  C 115.0022028347 103.01043448016  105.502478189038 107.510304049158  105.502478189038 107.510304049158  C 105.502478189038 107.510304049158  96.502739051042 107.510304049158  96.502739051042 107.510304049158  C 96.502739051042 107.510304049158  95.5027680357091 103.01043448016  95.5027680357091 103.01043448016  C 95.5027680357091 103.01043448016  90.5029129590446 103.01043448016  90.5029129590446 103.01043448016  C 90.5029129590446 103.01043448016  87.502999913046 106.010347526159  87.502999913046 106.010347526159  C 87.502999913046 106.010347526159  71.0034781600533 106.010347526159  71.0034781600533 106.010347526159  C 71.0034781600533 106.010347526159  61.5037535143909 109.010260572157  61.5037535143909 109.010260572157  C 61.5037535143909 109.010260572157  51.504043361062 107.510304049158  51.504043361062 107.510304049158  C 51.504043361062 107.510304049158  35.5045071157357 109.010260572157  35.5045071157357 109.010260572157  C 35.5045071157357 109.010260572157  28.5047100084055 109.010260572157  28.5047100084055 109.010260572157  C 28.5047100084055 109.010260572157  16.5050578244109 107.510304049158  16.5050578244109 107.510304049158  C 16.5050578244109 107.510304049158  7.50531868641485 107.510304049158  7.50531868641485 107.510304049158  C 7.50531868641485 107.510304049158  0.00553607141819157 106.010347526159  0.00553607141819157 106.010347526159  C 0.00553607141819157 106.010347526159  3.00544911741687 97.5105938958291  3.00544911741687 97.5105938958291  C 3.00544911741687 97.5105938958291  1.50549259441752 95.0106663574969  1.50549259441752 95.0106663574969  C 1.50549259441752 95.0106663574969  3.00544911741687 90.5107967884989  3.00544911741687 90.5107967884989  C 3.00544911741687 90.5107967884989  5.50537665574907 84.0109851888352  5.50537665574907 84.0109851888352  Z " stroke-width="1.99994203066578" stroke="#b5eaff" fill="none" stroke-opacity="0.501960784313725" transform="matrix(1 0 0 1 796 287 )" mask="url(#clip1060)" />
  </g>
</svg>