<?xml version="1.0" encoding="utf-8"?>
<svg version="1.1" xmlns:xlink="http://www.w3.org/1999/xlink" width="160px" height="55px" xmlns="http://www.w3.org/2000/svg">
  <defs>
    <mask fill="white" id="clip1057">
      <path d="M 3.50560853308596 32.5150575345642  C 3.50560853308596 32.5150575345642  0.00570997942085683 31.5150865192313  0.00570997942085683 31.5150865192313  C 0.00570997942085683 31.5150865192313  6.00553607141819 27.5152024578998  6.00553607141819 27.5152024578998  C 6.00553607141819 27.5152024578998  7.00550708675109 21.015390858236  7.00550708675109 21.015390858236  C 7.00550708675109 21.015390858236  14.0053041940813 19.5154343352367  14.0053041940813 19.5154343352367  C 14.0053041940813 19.5154343352367  15.5052607170806 17.5154923045709  15.5052607170806 17.5154923045709  C 15.5052607170806 17.5154923045709  29.0048694240746 16.0155357815716  29.0048694240746 16.0155357815716  C 29.0048694240746 16.0155357815716  40.0045505927365 18.5154633199038  40.0045505927365 18.5154633199038  C 40.0045505927365 18.5154633199038  47.0043477000667 16.0155357815716  47.0043477000667 16.0155357815716  C 47.0043477000667 16.0155357815716  45.5043911770673 14.0155937509058  45.5043911770673 14.0155937509058  C 45.5043911770673 14.0155937509058  57.0040578533955 9.51572418190777  57.0040578533955 9.51572418190777  C 57.0040578533955 9.51572418190777  64.0038549607258 4.51586910524333  64.0038549607258 4.51586910524333  C 64.0038549607258 4.51586910524333  81.5033477290513 2.51592707457755  81.5033477290513 2.51592707457755  C 81.5033477290513 2.51592707457755  95.0029564360453 1.01597055157822  95.0029564360453 1.01597055157822  C 95.0029564360453 1.01597055157822  110.002521666039 0.0159995362453262  110.002521666039 0.0159995362453262  C 110.002521666039 0.0159995362453262  112.002463696704 2.51592707457755  112.002463696704 2.51592707457755  C 112.002463696704 2.51592707457755  103.002724558708 4.51586910524333  103.002724558708 4.51586910524333  C 103.002724558708 4.51586910524333  99.0028404973769 9.51572418190777  99.0028404973769 9.51572418190777  C 99.0028404973769 9.51572418190777  100.502797020376 13.0156227355729  100.502797020376 13.0156227355729  C 100.502797020376 13.0156227355729  120.502217327034 14.0155937509058  120.502217327034 14.0155937509058  C 120.502217327034 14.0155937509058  128.501985449697 15.5155502739051  128.501985449697 15.5155502739051  C 128.501985449697 15.5155502739051  125.502072403698 19.5154343352367  125.502072403698 19.5154343352367  C 125.502072403698 19.5154343352367  132.501869511029 21.015390858236  132.501869511029 21.015390858236  C 132.501869511029 21.015390858236  145.501492710356 24.0153039042347  145.501492710356 24.0153039042347  C 145.501492710356 24.0153039042347  156.501173879018 25.515260427234  156.501173879018 25.515260427234  C 156.501173879018 25.515260427234  159.00110141735 29.5151444885656  159.00110141735 29.5151444885656  C 159.00110141735 29.5151444885656  156.501173879018 34.0150140575635  156.501173879018 34.0150140575635  C 156.501173879018 34.0150140575635  144.001536187357 39.5148546418944  144.001536187357 39.5148546418944  C 144.001536187357 39.5148546418944  129.50195646503 42.5147676878931  129.50195646503 42.5147676878931  C 129.50195646503 42.5147676878931  123.502130373033 44.0147242108924  123.502130373033 44.0147242108924  C 123.502130373033 44.0147242108924  128.501985449697 48.014608272224  128.501985449697 48.014608272224  C 128.501985449697 48.014608272224  126.502043419031 50.0145503028898  126.502043419031 50.0145503028898  C 126.502043419031 50.0145503028898  128.501985449697 52.0144923335556  128.501985449697 52.0144923335556  C 128.501985449697 52.0144923335556  120.502217327034 52.0144923335556  120.502217327034 52.0144923335556  C 120.502217327034 52.0144923335556  112.002463696704 54.0144343642213  112.002463696704 54.0144343642213  C 112.002463696704 54.0144343642213  106.502623112374 52.0144923335556  106.502623112374 52.0144923335556  C 106.502623112374 52.0144923335556  94.0029854207124 52.0144923335556  94.0029854207124 52.0144923335556  C 94.0029854207124 52.0144923335556  88.0031593287151 51.0145213182227  88.0031593287151 51.0145213182227  C 88.0031593287151 51.0145213182227  81.5033477290513 46.0146662415582  81.5033477290513 46.0146662415582  C 81.5033477290513 46.0146662415582  73.5035796063882 39.5148546418944  73.5035796063882 39.5148546418944  C 73.5035796063882 39.5148546418944  73.5035796063882 31.5150865192313  73.5035796063882 31.5150865192313  C 73.5035796063882 31.5150865192313  64.0038549607258 34.0150140575635  64.0038549607258 34.0150140575635  C 64.0038549607258 34.0150140575635  45.5043911770673 33.5150285498971  45.5043911770673 33.5150285498971  C 45.5043911770673 33.5150285498971  40.0045505927365 36.5149415958958  40.0045505927365 36.5149415958958  C 40.0045505927365 36.5149415958958  29.0048694240746 35.0149850728964  29.0048694240746 35.0149850728964  C 29.0048694240746 35.0149850728964  31.0048114547404 32.5150575345642  31.0048114547404 32.5150575345642  C 31.0048114547404 32.5150575345642  22.5050578244109 30.5151155038984  22.5050578244109 30.5151155038984  C 22.5050578244109 30.5151155038984  3.50560853308596 32.5150575345642  3.50560853308596 32.5150575345642  Z " fill-rule="evenodd" />
    </mask>
  </defs>
  <g transform="matrix(1 0 0 1 -790 -198 )">
    <path d="M 3.50560853308596 32.5150575345642  C 3.50560853308596 32.5150575345642  0.00570997942085683 31.5150865192313  0.00570997942085683 31.5150865192313  C 0.00570997942085683 31.5150865192313  6.00553607141819 27.5152024578998  6.00553607141819 27.5152024578998  C 6.00553607141819 27.5152024578998  7.00550708675109 21.015390858236  7.00550708675109 21.015390858236  C 7.00550708675109 21.015390858236  14.0053041940813 19.5154343352367  14.0053041940813 19.5154343352367  C 14.0053041940813 19.5154343352367  15.5052607170806 17.5154923045709  15.5052607170806 17.5154923045709  C 15.5052607170806 17.5154923045709  29.0048694240746 16.0155357815716  29.0048694240746 16.0155357815716  C 29.0048694240746 16.0155357815716  40.0045505927365 18.5154633199038  40.0045505927365 18.5154633199038  C 40.0045505927365 18.5154633199038  47.0043477000667 16.0155357815716  47.0043477000667 16.0155357815716  C 47.0043477000667 16.0155357815716  45.5043911770673 14.0155937509058  45.5043911770673 14.0155937509058  C 45.5043911770673 14.0155937509058  57.0040578533955 9.51572418190777  57.0040578533955 9.51572418190777  C 57.0040578533955 9.51572418190777  64.0038549607258 4.51586910524333  64.0038549607258 4.51586910524333  C 64.0038549607258 4.51586910524333  81.5033477290513 2.51592707457755  81.5033477290513 2.51592707457755  C 81.5033477290513 2.51592707457755  95.0029564360453 1.01597055157822  95.0029564360453 1.01597055157822  C 95.0029564360453 1.01597055157822  110.002521666039 0.0159995362453262  110.002521666039 0.0159995362453262  C 110.002521666039 0.0159995362453262  112.002463696704 2.51592707457755  112.002463696704 2.51592707457755  C 112.002463696704 2.51592707457755  103.002724558708 4.51586910524333  103.002724558708 4.51586910524333  C 103.002724558708 4.51586910524333  99.0028404973769 9.51572418190777  99.0028404973769 9.51572418190777  C 99.0028404973769 9.51572418190777  100.502797020376 13.0156227355729  100.502797020376 13.0156227355729  C 100.502797020376 13.0156227355729  120.502217327034 14.0155937509058  120.502217327034 14.0155937509058  C 120.502217327034 14.0155937509058  128.501985449697 15.5155502739051  128.501985449697 15.5155502739051  C 128.501985449697 15.5155502739051  125.502072403698 19.5154343352367  125.502072403698 19.5154343352367  C 125.502072403698 19.5154343352367  132.501869511029 21.015390858236  132.501869511029 21.015390858236  C 132.501869511029 21.015390858236  145.501492710356 24.0153039042347  145.501492710356 24.0153039042347  C 145.501492710356 24.0153039042347  156.501173879018 25.515260427234  156.501173879018 25.515260427234  C 156.501173879018 25.515260427234  159.00110141735 29.5151444885656  159.00110141735 29.5151444885656  C 159.00110141735 29.5151444885656  156.501173879018 34.0150140575635  156.501173879018 34.0150140575635  C 156.501173879018 34.0150140575635  144.001536187357 39.5148546418944  144.001536187357 39.5148546418944  C 144.001536187357 39.5148546418944  129.50195646503 42.5147676878931  129.50195646503 42.5147676878931  C 129.50195646503 42.5147676878931  123.502130373033 44.0147242108924  123.502130373033 44.0147242108924  C 123.502130373033 44.0147242108924  128.501985449697 48.014608272224  128.501985449697 48.014608272224  C 128.501985449697 48.014608272224  126.502043419031 50.0145503028898  126.502043419031 50.0145503028898  C 126.502043419031 50.0145503028898  128.501985449697 52.0144923335556  128.501985449697 52.0144923335556  C 128.501985449697 52.0144923335556  120.502217327034 52.0144923335556  120.502217327034 52.0144923335556  C 120.502217327034 52.0144923335556  112.002463696704 54.0144343642213  112.002463696704 54.0144343642213  C 112.002463696704 54.0144343642213  106.502623112374 52.0144923335556  106.502623112374 52.0144923335556  C 106.502623112374 52.0144923335556  94.0029854207124 52.0144923335556  94.0029854207124 52.0144923335556  C 94.0029854207124 52.0144923335556  88.0031593287151 51.0145213182227  88.0031593287151 51.0145213182227  C 88.0031593287151 51.0145213182227  81.5033477290513 46.0146662415582  81.5033477290513 46.0146662415582  C 81.5033477290513 46.0146662415582  73.5035796063882 39.5148546418944  73.5035796063882 39.5148546418944  C 73.5035796063882 39.5148546418944  73.5035796063882 31.5150865192313  73.5035796063882 31.5150865192313  C 73.5035796063882 31.5150865192313  64.0038549607258 34.0150140575635  64.0038549607258 34.0150140575635  C 64.0038549607258 34.0150140575635  45.5043911770673 33.5150285498971  45.5043911770673 33.5150285498971  C 45.5043911770673 33.5150285498971  40.0045505927365 36.5149415958958  40.0045505927365 36.5149415958958  C 40.0045505927365 36.5149415958958  29.0048694240746 35.0149850728964  29.0048694240746 35.0149850728964  C 29.0048694240746 35.0149850728964  31.0048114547404 32.5150575345642  31.0048114547404 32.5150575345642  C 31.0048114547404 32.5150575345642  22.5050578244109 30.5151155038984  22.5050578244109 30.5151155038984  C 22.5050578244109 30.5151155038984  3.50560853308596 32.5150575345642  3.50560853308596 32.5150575345642  Z " fill-rule="nonzero" fill="#033571" stroke="none" transform="matrix(1 0 0 1 790 198 )" />
    <path d="M 3.50560853308596 32.5150575345642  C 3.50560853308596 32.5150575345642  0.00570997942085683 31.5150865192313  0.00570997942085683 31.5150865192313  C 0.00570997942085683 31.5150865192313  6.00553607141819 27.5152024578998  6.00553607141819 27.5152024578998  C 6.00553607141819 27.5152024578998  7.00550708675109 21.015390858236  7.00550708675109 21.015390858236  C 7.00550708675109 21.015390858236  14.0053041940813 19.5154343352367  14.0053041940813 19.5154343352367  C 14.0053041940813 19.5154343352367  15.5052607170806 17.5154923045709  15.5052607170806 17.5154923045709  C 15.5052607170806 17.5154923045709  29.0048694240746 16.0155357815716  29.0048694240746 16.0155357815716  C 29.0048694240746 16.0155357815716  40.0045505927365 18.5154633199038  40.0045505927365 18.5154633199038  C 40.0045505927365 18.5154633199038  47.0043477000667 16.0155357815716  47.0043477000667 16.0155357815716  C 47.0043477000667 16.0155357815716  45.5043911770673 14.0155937509058  45.5043911770673 14.0155937509058  C 45.5043911770673 14.0155937509058  57.0040578533955 9.51572418190777  57.0040578533955 9.51572418190777  C 57.0040578533955 9.51572418190777  64.0038549607258 4.51586910524333  64.0038549607258 4.51586910524333  C 64.0038549607258 4.51586910524333  81.5033477290513 2.51592707457755  81.5033477290513 2.51592707457755  C 81.5033477290513 2.51592707457755  95.0029564360453 1.01597055157822  95.0029564360453 1.01597055157822  C 95.0029564360453 1.01597055157822  110.002521666039 0.0159995362453262  110.002521666039 0.0159995362453262  C 110.002521666039 0.0159995362453262  112.002463696704 2.51592707457755  112.002463696704 2.51592707457755  C 112.002463696704 2.51592707457755  103.002724558708 4.51586910524333  103.002724558708 4.51586910524333  C 103.002724558708 4.51586910524333  99.0028404973769 9.51572418190777  99.0028404973769 9.51572418190777  C 99.0028404973769 9.51572418190777  100.502797020376 13.0156227355729  100.502797020376 13.0156227355729  C 100.502797020376 13.0156227355729  120.502217327034 14.0155937509058  120.502217327034 14.0155937509058  C 120.502217327034 14.0155937509058  128.501985449697 15.5155502739051  128.501985449697 15.5155502739051  C 128.501985449697 15.5155502739051  125.502072403698 19.5154343352367  125.502072403698 19.5154343352367  C 125.502072403698 19.5154343352367  132.501869511029 21.015390858236  132.501869511029 21.015390858236  C 132.501869511029 21.015390858236  145.501492710356 24.0153039042347  145.501492710356 24.0153039042347  C 145.501492710356 24.0153039042347  156.501173879018 25.515260427234  156.501173879018 25.515260427234  C 156.501173879018 25.515260427234  159.00110141735 29.5151444885656  159.00110141735 29.5151444885656  C 159.00110141735 29.5151444885656  156.501173879018 34.0150140575635  156.501173879018 34.0150140575635  C 156.501173879018 34.0150140575635  144.001536187357 39.5148546418944  144.001536187357 39.5148546418944  C 144.001536187357 39.5148546418944  129.50195646503 42.5147676878931  129.50195646503 42.5147676878931  C 129.50195646503 42.5147676878931  123.502130373033 44.0147242108924  123.502130373033 44.0147242108924  C 123.502130373033 44.0147242108924  128.501985449697 48.014608272224  128.501985449697 48.014608272224  C 128.501985449697 48.014608272224  126.502043419031 50.0145503028898  126.502043419031 50.0145503028898  C 126.502043419031 50.0145503028898  128.501985449697 52.0144923335556  128.501985449697 52.0144923335556  C 128.501985449697 52.0144923335556  120.502217327034 52.0144923335556  120.502217327034 52.0144923335556  C 120.502217327034 52.0144923335556  112.002463696704 54.0144343642213  112.002463696704 54.0144343642213  C 112.002463696704 54.0144343642213  106.502623112374 52.0144923335556  106.502623112374 52.0144923335556  C 106.502623112374 52.0144923335556  94.0029854207124 52.0144923335556  94.0029854207124 52.0144923335556  C 94.0029854207124 52.0144923335556  88.0031593287151 51.0145213182227  88.0031593287151 51.0145213182227  C 88.0031593287151 51.0145213182227  81.5033477290513 46.0146662415582  81.5033477290513 46.0146662415582  C 81.5033477290513 46.0146662415582  73.5035796063882 39.5148546418944  73.5035796063882 39.5148546418944  C 73.5035796063882 39.5148546418944  73.5035796063882 31.5150865192313  73.5035796063882 31.5150865192313  C 73.5035796063882 31.5150865192313  64.0038549607258 34.0150140575635  64.0038549607258 34.0150140575635  C 64.0038549607258 34.0150140575635  45.5043911770673 33.5150285498971  45.5043911770673 33.5150285498971  C 45.5043911770673 33.5150285498971  40.0045505927365 36.5149415958958  40.0045505927365 36.5149415958958  C 40.0045505927365 36.5149415958958  29.0048694240746 35.0149850728964  29.0048694240746 35.0149850728964  C 29.0048694240746 35.0149850728964  31.0048114547404 32.5150575345642  31.0048114547404 32.5150575345642  C 31.0048114547404 32.5150575345642  22.5050578244109 30.5151155038984  22.5050578244109 30.5151155038984  C 22.5050578244109 30.5151155038984  3.50560853308596 32.5150575345642  3.50560853308596 32.5150575345642  Z " stroke-width="1.99994203066578" stroke="#b5eaff" fill="none" stroke-opacity="0.501960784313725" transform="matrix(1 0 0 1 790 198 )" mask="url(#clip1057)" />
  </g>
</svg>