<?xml version="1.0" encoding="utf-8"?>
<svg version="1.1" xmlns:xlink="http://www.w3.org/1999/xlink" width="391px" height="142px" xmlns="http://www.w3.org/2000/svg">
  <defs>
    <mask fill="white" id="clip1062">
      <path d="M 2.99950726065907 12.0114199588418  C 2.99950726065907 12.0114199588418  0.499579722326871 8.51152140517667  0.499579722326871 8.51152140517667  C 0.499579722326871 8.51152140517667  4.99944929132488 2.51169531317933  4.99944929132488 2.51169531317933  C 4.99944929132488 2.51169531317933  29.9987246746471 0.011767774847101  29.9987246746471 0.011767774847101  C 29.9987246746471 0.011767774847101  35.9985507666444 5.01162285151156  35.9985507666444 5.01162285151156  C 35.9985507666444 5.01162285151156  39.4984493203095 7.01156488217734  39.4984493203095 7.01156488217734  C 39.4984493203095 7.01156488217734  47.9982029506391 8.51152140517667  47.9982029506391 8.51152140517667  C 47.9982029506391 8.51152140517667  63.4977536882989 5.01162285151156  63.4977536882989 5.01162285151156  C 63.4977536882989 5.01162285151156  68.4976087649633 8.51152140517667  68.4976087649633 8.51152140517667  C 68.4976087649633 8.51152140517667  71.497521810962 8.51152140517667  71.497521810962 8.51152140517667  C 71.497521810962 8.51152140517667  73.9974493492942 12.0114199588418  73.9974493492942 12.0114199588418  C 73.9974493492942 12.0114199588418  80.9972464566245 10.011477928176  80.9972464566245 10.011477928176  C 80.9972464566245 10.011477928176  86.4970870409553 12.0114199588418  86.4970870409553 12.0114199588418  C 86.4970870409553 12.0114199588418  89.497000086954 10.011477928176  89.497000086954 10.011477928176  C 89.497000086954 10.011477928176  94.4968551636184 10.011477928176  94.4968551636184 10.011477928176  C 94.4968551636184 10.011477928176  97.4967682096171 12.0114199588418  97.4967682096171 12.0114199588418  C 97.4967682096171 12.0114199588418  107.496478362946 9.01150691284312  107.496478362946 9.01150691284312  C 107.496478362946 9.01150691284312  115.496246485609 5.01162285151156  115.496246485609 5.01162285151156  C 115.496246485609 5.01162285151156  124.995971131272 5.01162285151156  124.995971131272 5.01162285151156  C 124.995971131272 5.01162285151156  126.995913161937 10.011477928176  126.995913161937 10.011477928176  C 126.995913161937 10.011477928176  134.495695776934 10.011477928176  134.495695776934 10.011477928176  C 134.495695776934 10.011477928176  152.495174052926 15.5113185125069  152.495174052926 15.5113185125069  C 152.495174052926 15.5113185125069  172.99457986725 21.0111590968378  172.99457986725 21.0111590968378  C 172.99457986725 21.0111590968378  207.493579896235 25.5110286658358  207.493579896235 25.5110286658358  C 207.493579896235 25.5110286658358  223.493116141561 42.5105359264949  223.493116141561 42.5105359264949  C 223.493116141561 42.5105359264949  233.49282629489 50.510304049158  233.49282629489 50.510304049158  C 233.49282629489 50.510304049158  234.492797310223 56.0101446334889  234.492797310223 56.0101446334889  C 234.492797310223 56.0101446334889  237.992695863888 61.0099997101534  237.992695863888 61.0099997101534  C 237.992695863888 61.0099997101534  248.99237703255 62.0099707254862  248.99237703255 62.0099707254862  C 248.99237703255 62.0099707254862  299.490913306861 72.5096663864816  299.490913306861 72.5096663864816  C 299.490913306861 72.5096663864816  308.490652444857 78.5094924784789  308.490652444857 78.5094924784789  C 308.490652444857 78.5094924784789  333.489927828179 89.5091736471407  333.489927828179 89.5091736471407  C 333.489927828179 89.5091736471407  338.489782904843 95.508999739138  338.489782904843 95.508999739138  C 338.489782904843 95.508999739138  377.988638010492 120.50827512246  377.988638010492 120.50827512246  C 377.988638010492 120.50827512246  390.488275702154 139.507724413785  390.488275702154 139.507724413785  C 390.488275702154 139.507724413785  384.488449610156 141.507666444451  384.488449610156 141.507666444451  C 384.488449610156 141.507666444451  313.490507521521 129.00802875279  313.490507521521 129.00802875279  C 313.490507521521 129.00802875279  282.991391553868 120.50827512246  282.991391553868 120.50827512246  C 282.991391553868 120.50827512246  260.992029216544 116.008405553462  260.992029216544 116.008405553462  C 260.992029216544 116.008405553462  243.992521955885 105.0087243848  243.992521955885 105.0087243848  C 243.992521955885 105.0087243848  229.492942233558 101.008840323469  229.492942233558 101.008840323469  C 229.492942233558 101.008840323469  211.993449465233 105.0087243848  211.993449465233 105.0087243848  C 211.993449465233 105.0087243848  200.493782788905 116.008405553462  200.493782788905 116.008405553462  C 200.493782788905 116.008405553462  185.494217558911 113.50847801513  185.494217558911 113.50847801513  C 185.494217558911 113.50847801513  166.994753775253 113.50847801513  166.994753775253 113.50847801513  C 166.994753775253 113.50847801513  150.49523202226 109.008608446132  150.49523202226 109.008608446132  C 150.49523202226 109.008608446132  132.495753746268 95.508999739138  132.495753746268 95.508999739138  C 132.495753746268 95.508999739138  126.995913161937 85.5092895858091  126.995913161937 85.5092895858091  C 126.995913161937 85.5092895858091  120.99608706994 82.009391032144  120.99608706994 82.009391032144  C 120.99608706994 82.009391032144  76.4973768876264 82.009391032144  76.4973768876264 82.009391032144  C 76.4973768876264 82.009391032144  72.9974783339613 77.509521463146  72.9974783339613 77.509521463146  C 72.9974783339613 77.509521463146  65.4976957189647 71.5096953711487  65.4976957189647 71.5096953711487  C 65.4976957189647 71.5096953711487  50.9981159966378 65.0098837714849  50.9981159966378 65.0098837714849  C 50.9981159966378 65.0098837714849  32.9986377206458 63.5099272484856  32.9986377206458 63.5099272484856  C 32.9986377206458 63.5099272484856  30.99869568998 58.5100721718211  30.99869568998 58.5100721718211  C 30.99869568998 58.5100721718211  34.4985942436451 53.0102315874902  34.4985942436451 53.0102315874902  C 34.4985942436451 53.0102315874902  28.9987536593142 49.0103475261587  28.9987536593142 49.0103475261587  C 28.9987536593142 49.0103475261587  27.4987971363149 45.0104634648271  27.4987971363149 45.0104634648271  C 27.4987971363149 45.0104634648271  30.99869568998 41.0105794034956  30.99869568998 41.0105794034956  C 30.99869568998 41.0105794034956  27.4987971363149 33.5107967884989  27.4987971363149 33.5107967884989  C 27.4987971363149 33.5107967884989  17.9990724906525 34.5107678038318  17.9990724906525 34.5107678038318  C 17.9990724906525 34.5107678038318  11.4992608909886 24.0110721428364  11.4992608909886 24.0110721428364  C 11.4992608909886 24.0110721428364  11.4992608909886 21.0111590968378  11.4992608909886 21.0111590968378  C 11.4992608909886 21.0111590968378  7.99936233732353 12.0114199588418  7.99936233732353 12.0114199588418  C 7.99936233732353 12.0114199588418  2.99950726065907 12.0114199588418  2.99950726065907 12.0114199588418  Z " fill-rule="evenodd" />
    </mask>
  </defs>
  <g transform="matrix(1 0 0 1 -1001 -344 )">
    <path d="M 2.99950726065907 12.0114199588418  C 2.99950726065907 12.0114199588418  0.499579722326871 8.51152140517667  0.499579722326871 8.51152140517667  C 0.499579722326871 8.51152140517667  4.99944929132488 2.51169531317933  4.99944929132488 2.51169531317933  C 4.99944929132488 2.51169531317933  29.9987246746471 0.011767774847101  29.9987246746471 0.011767774847101  C 29.9987246746471 0.011767774847101  35.9985507666444 5.01162285151156  35.9985507666444 5.01162285151156  C 35.9985507666444 5.01162285151156  39.4984493203095 7.01156488217734  39.4984493203095 7.01156488217734  C 39.4984493203095 7.01156488217734  47.9982029506391 8.51152140517667  47.9982029506391 8.51152140517667  C 47.9982029506391 8.51152140517667  63.4977536882989 5.01162285151156  63.4977536882989 5.01162285151156  C 63.4977536882989 5.01162285151156  68.4976087649633 8.51152140517667  68.4976087649633 8.51152140517667  C 68.4976087649633 8.51152140517667  71.497521810962 8.51152140517667  71.497521810962 8.51152140517667  C 71.497521810962 8.51152140517667  73.9974493492942 12.0114199588418  73.9974493492942 12.0114199588418  C 73.9974493492942 12.0114199588418  80.9972464566245 10.011477928176  80.9972464566245 10.011477928176  C 80.9972464566245 10.011477928176  86.4970870409553 12.0114199588418  86.4970870409553 12.0114199588418  C 86.4970870409553 12.0114199588418  89.497000086954 10.011477928176  89.497000086954 10.011477928176  C 89.497000086954 10.011477928176  94.4968551636184 10.011477928176  94.4968551636184 10.011477928176  C 94.4968551636184 10.011477928176  97.4967682096171 12.0114199588418  97.4967682096171 12.0114199588418  C 97.4967682096171 12.0114199588418  107.496478362946 9.01150691284312  107.496478362946 9.01150691284312  C 107.496478362946 9.01150691284312  115.496246485609 5.01162285151156  115.496246485609 5.01162285151156  C 115.496246485609 5.01162285151156  124.995971131272 5.01162285151156  124.995971131272 5.01162285151156  C 124.995971131272 5.01162285151156  126.995913161937 10.011477928176  126.995913161937 10.011477928176  C 126.995913161937 10.011477928176  134.495695776934 10.011477928176  134.495695776934 10.011477928176  C 134.495695776934 10.011477928176  152.495174052926 15.5113185125069  152.495174052926 15.5113185125069  C 152.495174052926 15.5113185125069  172.99457986725 21.0111590968378  172.99457986725 21.0111590968378  C 172.99457986725 21.0111590968378  207.493579896235 25.5110286658358  207.493579896235 25.5110286658358  C 207.493579896235 25.5110286658358  223.493116141561 42.5105359264949  223.493116141561 42.5105359264949  C 223.493116141561 42.5105359264949  233.49282629489 50.510304049158  233.49282629489 50.510304049158  C 233.49282629489 50.510304049158  234.492797310223 56.0101446334889  234.492797310223 56.0101446334889  C 234.492797310223 56.0101446334889  237.992695863888 61.0099997101534  237.992695863888 61.0099997101534  C 237.992695863888 61.0099997101534  248.99237703255 62.0099707254862  248.99237703255 62.0099707254862  C 248.99237703255 62.0099707254862  299.490913306861 72.5096663864816  299.490913306861 72.5096663864816  C 299.490913306861 72.5096663864816  308.490652444857 78.5094924784789  308.490652444857 78.5094924784789  C 308.490652444857 78.5094924784789  333.489927828179 89.5091736471407  333.489927828179 89.5091736471407  C 333.489927828179 89.5091736471407  338.489782904843 95.508999739138  338.489782904843 95.508999739138  C 338.489782904843 95.508999739138  377.988638010492 120.50827512246  377.988638010492 120.50827512246  C 377.988638010492 120.50827512246  390.488275702154 139.507724413785  390.488275702154 139.507724413785  C 390.488275702154 139.507724413785  384.488449610156 141.507666444451  384.488449610156 141.507666444451  C 384.488449610156 141.507666444451  313.490507521521 129.00802875279  313.490507521521 129.00802875279  C 313.490507521521 129.00802875279  282.991391553868 120.50827512246  282.991391553868 120.50827512246  C 282.991391553868 120.50827512246  260.992029216544 116.008405553462  260.992029216544 116.008405553462  C 260.992029216544 116.008405553462  243.992521955885 105.0087243848  243.992521955885 105.0087243848  C 243.992521955885 105.0087243848  229.492942233558 101.008840323469  229.492942233558 101.008840323469  C 229.492942233558 101.008840323469  211.993449465233 105.0087243848  211.993449465233 105.0087243848  C 211.993449465233 105.0087243848  200.493782788905 116.008405553462  200.493782788905 116.008405553462  C 200.493782788905 116.008405553462  185.494217558911 113.50847801513  185.494217558911 113.50847801513  C 185.494217558911 113.50847801513  166.994753775253 113.50847801513  166.994753775253 113.50847801513  C 166.994753775253 113.50847801513  150.49523202226 109.008608446132  150.49523202226 109.008608446132  C 150.49523202226 109.008608446132  132.495753746268 95.508999739138  132.495753746268 95.508999739138  C 132.495753746268 95.508999739138  126.995913161937 85.5092895858091  126.995913161937 85.5092895858091  C 126.995913161937 85.5092895858091  120.99608706994 82.009391032144  120.99608706994 82.009391032144  C 120.99608706994 82.009391032144  76.4973768876264 82.009391032144  76.4973768876264 82.009391032144  C 76.4973768876264 82.009391032144  72.9974783339613 77.509521463146  72.9974783339613 77.509521463146  C 72.9974783339613 77.509521463146  65.4976957189647 71.5096953711487  65.4976957189647 71.5096953711487  C 65.4976957189647 71.5096953711487  50.9981159966378 65.0098837714849  50.9981159966378 65.0098837714849  C 50.9981159966378 65.0098837714849  32.9986377206458 63.5099272484856  32.9986377206458 63.5099272484856  C 32.9986377206458 63.5099272484856  30.99869568998 58.5100721718211  30.99869568998 58.5100721718211  C 30.99869568998 58.5100721718211  34.4985942436451 53.0102315874902  34.4985942436451 53.0102315874902  C 34.4985942436451 53.0102315874902  28.9987536593142 49.0103475261587  28.9987536593142 49.0103475261587  C 28.9987536593142 49.0103475261587  27.4987971363149 45.0104634648271  27.4987971363149 45.0104634648271  C 27.4987971363149 45.0104634648271  30.99869568998 41.0105794034956  30.99869568998 41.0105794034956  C 30.99869568998 41.0105794034956  27.4987971363149 33.5107967884989  27.4987971363149 33.5107967884989  C 27.4987971363149 33.5107967884989  17.9990724906525 34.5107678038318  17.9990724906525 34.5107678038318  C 17.9990724906525 34.5107678038318  11.4992608909886 24.0110721428364  11.4992608909886 24.0110721428364  C 11.4992608909886 24.0110721428364  11.4992608909886 21.0111590968378  11.4992608909886 21.0111590968378  C 11.4992608909886 21.0111590968378  7.99936233732353 12.0114199588418  7.99936233732353 12.0114199588418  C 7.99936233732353 12.0114199588418  2.99950726065907 12.0114199588418  2.99950726065907 12.0114199588418  Z " fill-rule="nonzero" fill="#033571" stroke="none" transform="matrix(1 0 0 1 1001 344 )" />
    <path d="M 2.99950726065907 12.0114199588418  C 2.99950726065907 12.0114199588418  0.499579722326871 8.51152140517667  0.499579722326871 8.51152140517667  C 0.499579722326871 8.51152140517667  4.99944929132488 2.51169531317933  4.99944929132488 2.51169531317933  C 4.99944929132488 2.51169531317933  29.9987246746471 0.011767774847101  29.9987246746471 0.011767774847101  C 29.9987246746471 0.011767774847101  35.9985507666444 5.01162285151156  35.9985507666444 5.01162285151156  C 35.9985507666444 5.01162285151156  39.4984493203095 7.01156488217734  39.4984493203095 7.01156488217734  C 39.4984493203095 7.01156488217734  47.9982029506391 8.51152140517667  47.9982029506391 8.51152140517667  C 47.9982029506391 8.51152140517667  63.4977536882989 5.01162285151156  63.4977536882989 5.01162285151156  C 63.4977536882989 5.01162285151156  68.4976087649633 8.51152140517667  68.4976087649633 8.51152140517667  C 68.4976087649633 8.51152140517667  71.497521810962 8.51152140517667  71.497521810962 8.51152140517667  C 71.497521810962 8.51152140517667  73.9974493492942 12.0114199588418  73.9974493492942 12.0114199588418  C 73.9974493492942 12.0114199588418  80.9972464566245 10.011477928176  80.9972464566245 10.011477928176  C 80.9972464566245 10.011477928176  86.4970870409553 12.0114199588418  86.4970870409553 12.0114199588418  C 86.4970870409553 12.0114199588418  89.497000086954 10.011477928176  89.497000086954 10.011477928176  C 89.497000086954 10.011477928176  94.4968551636184 10.011477928176  94.4968551636184 10.011477928176  C 94.4968551636184 10.011477928176  97.4967682096171 12.0114199588418  97.4967682096171 12.0114199588418  C 97.4967682096171 12.0114199588418  107.496478362946 9.01150691284312  107.496478362946 9.01150691284312  C 107.496478362946 9.01150691284312  115.496246485609 5.01162285151156  115.496246485609 5.01162285151156  C 115.496246485609 5.01162285151156  124.995971131272 5.01162285151156  124.995971131272 5.01162285151156  C 124.995971131272 5.01162285151156  126.995913161937 10.011477928176  126.995913161937 10.011477928176  C 126.995913161937 10.011477928176  134.495695776934 10.011477928176  134.495695776934 10.011477928176  C 134.495695776934 10.011477928176  152.495174052926 15.5113185125069  152.495174052926 15.5113185125069  C 152.495174052926 15.5113185125069  172.99457986725 21.0111590968378  172.99457986725 21.0111590968378  C 172.99457986725 21.0111590968378  207.493579896235 25.5110286658358  207.493579896235 25.5110286658358  C 207.493579896235 25.5110286658358  223.493116141561 42.5105359264949  223.493116141561 42.5105359264949  C 223.493116141561 42.5105359264949  233.49282629489 50.510304049158  233.49282629489 50.510304049158  C 233.49282629489 50.510304049158  234.492797310223 56.0101446334889  234.492797310223 56.0101446334889  C 234.492797310223 56.0101446334889  237.992695863888 61.0099997101534  237.992695863888 61.0099997101534  C 237.992695863888 61.0099997101534  248.99237703255 62.0099707254862  248.99237703255 62.0099707254862  C 248.99237703255 62.0099707254862  299.490913306861 72.5096663864816  299.490913306861 72.5096663864816  C 299.490913306861 72.5096663864816  308.490652444857 78.5094924784789  308.490652444857 78.5094924784789  C 308.490652444857 78.5094924784789  333.489927828179 89.5091736471407  333.489927828179 89.5091736471407  C 333.489927828179 89.5091736471407  338.489782904843 95.508999739138  338.489782904843 95.508999739138  C 338.489782904843 95.508999739138  377.988638010492 120.50827512246  377.988638010492 120.50827512246  C 377.988638010492 120.50827512246  390.488275702154 139.507724413785  390.488275702154 139.507724413785  C 390.488275702154 139.507724413785  384.488449610156 141.507666444451  384.488449610156 141.507666444451  C 384.488449610156 141.507666444451  313.490507521521 129.00802875279  313.490507521521 129.00802875279  C 313.490507521521 129.00802875279  282.991391553868 120.50827512246  282.991391553868 120.50827512246  C 282.991391553868 120.50827512246  260.992029216544 116.008405553462  260.992029216544 116.008405553462  C 260.992029216544 116.008405553462  243.992521955885 105.0087243848  243.992521955885 105.0087243848  C 243.992521955885 105.0087243848  229.492942233558 101.008840323469  229.492942233558 101.008840323469  C 229.492942233558 101.008840323469  211.993449465233 105.0087243848  211.993449465233 105.0087243848  C 211.993449465233 105.0087243848  200.493782788905 116.008405553462  200.493782788905 116.008405553462  C 200.493782788905 116.008405553462  185.494217558911 113.50847801513  185.494217558911 113.50847801513  C 185.494217558911 113.50847801513  166.994753775253 113.50847801513  166.994753775253 113.50847801513  C 166.994753775253 113.50847801513  150.49523202226 109.008608446132  150.49523202226 109.008608446132  C 150.49523202226 109.008608446132  132.495753746268 95.508999739138  132.495753746268 95.508999739138  C 132.495753746268 95.508999739138  126.995913161937 85.5092895858091  126.995913161937 85.5092895858091  C 126.995913161937 85.5092895858091  120.99608706994 82.009391032144  120.99608706994 82.009391032144  C 120.99608706994 82.009391032144  76.4973768876264 82.009391032144  76.4973768876264 82.009391032144  C 76.4973768876264 82.009391032144  72.9974783339613 77.509521463146  72.9974783339613 77.509521463146  C 72.9974783339613 77.509521463146  65.4976957189647 71.5096953711487  65.4976957189647 71.5096953711487  C 65.4976957189647 71.5096953711487  50.9981159966378 65.0098837714849  50.9981159966378 65.0098837714849  C 50.9981159966378 65.0098837714849  32.9986377206458 63.5099272484856  32.9986377206458 63.5099272484856  C 32.9986377206458 63.5099272484856  30.99869568998 58.5100721718211  30.99869568998 58.5100721718211  C 30.99869568998 58.5100721718211  34.4985942436451 53.0102315874902  34.4985942436451 53.0102315874902  C 34.4985942436451 53.0102315874902  28.9987536593142 49.0103475261587  28.9987536593142 49.0103475261587  C 28.9987536593142 49.0103475261587  27.4987971363149 45.0104634648271  27.4987971363149 45.0104634648271  C 27.4987971363149 45.0104634648271  30.99869568998 41.0105794034956  30.99869568998 41.0105794034956  C 30.99869568998 41.0105794034956  27.4987971363149 33.5107967884989  27.4987971363149 33.5107967884989  C 27.4987971363149 33.5107967884989  17.9990724906525 34.5107678038318  17.9990724906525 34.5107678038318  C 17.9990724906525 34.5107678038318  11.4992608909886 24.0110721428364  11.4992608909886 24.0110721428364  C 11.4992608909886 24.0110721428364  11.4992608909886 21.0111590968378  11.4992608909886 21.0111590968378  C 11.4992608909886 21.0111590968378  7.99936233732353 12.0114199588418  7.99936233732353 12.0114199588418  C 7.99936233732353 12.0114199588418  2.99950726065907 12.0114199588418  2.99950726065907 12.0114199588418  Z " stroke-width="1.99994203066578" stroke="#b5eaff" fill="none" stroke-opacity="0.501960784313725" transform="matrix(1 0 0 1 1001 344 )" mask="url(#clip1062)" />
  </g>
</svg>