<?xml version="1.0" encoding="utf-8"?>
<svg version="1.1" xmlns:xlink="http://www.w3.org/1999/xlink" width="808px" height="496px" xmlns="http://www.w3.org/2000/svg">
  <g transform="matrix(1 0 0 1 -583 -207 )">
    <path d="M 262.00411582273 380.504710008406  L 255.504304223066 379.504738993073  L 244.504623054404 382.004666531405  L 239.50476797774 377.00481145474  L 230.005043332077 377.00481145474  L 229.005072316744 374.004898408742  L 224.00521724008 370.504999855077  L 225.505173763079 362.505231732414  L 233.004956378076 356.505405640416  L 228.005101301411 348.505637517753  L 221.005304194081 357  L 210.505608533086 357  L 204.005796933422 360.005304194081  L 196.506014318426 359.005333178749  L 192.506130257094 355.505434625083  L 188.506246195762 356.505405640416  L 187.006289672763 349.00562302542  L 173.506680965769 354.005478102084  L 162.007014289441 364.505173763079  L 154.507231674444 366.005130286079  L 140.507637459784 362.505231732414  L 131.507898321788 364.505173763079  L 119.508246137793 361.005275209414  L 114.008405553462 362  L 99.0088403234688 362  L 85.5092316164749 364.505173763079  L 81.5093475551433 362.505231732414  L 83.5092895858091 354.005478102084  L 75.0095359554795 352.505521579085  L 70.5096663864815 347.50566650242  L 91.0090722008057 330.506159241761  L 94.5089707544709 330.506159241761  L 96.0089272774702 334.006057795426  L 107.008608446132 330.506159241761  L 121.508188168459 323.506362134431  L 126.008057737457 315.506594011768  L 134.00782586012 304.00692733544  L 134.00782586012 300.007043274108  L 138.507695429118 292.007275151445  L 136.007767890786 288.50737659778  L 138.507695429118 285.007478044115  L 134.00782586012 283.507521521115  L 131.507898321788 286.507434567114  L 124.508101214458 286.507434567114  L 124.508101214458 282.007564998116  L 128.007999768123 277.507695429118  L 126.008057737457 275.507753398452  L 119.508246137793 277.507695429118  L 115.508362076462 283.507521521115  L 109.508535984464 286.507434567114  L 109.508535984464 283.507521521115  L 94.5089707544709 282.007564998116  L 94.5089707544709 277.507695429118  L 107.008608446132 273.507811367786  L 109.508535984464 270.007912814121  L 103.0087243848 267.007999768123  L 103.0087243848 264.008086722124  L 89.00913017014 267.007999768123  L 79.5094055244775 267.007999768123  L 79.5094055244775 264.008086722124  L 75.0095359554795 258.508246137793  L 81.5093475551433 251.008463522796  L 79.5094055244775 248.008550476798  L 79.5094055244775 244.508651923133  L 65.5098113098171 236.008898292803  L 75.0095359554795 226.509173647141  L 81.5093475551433 217.009449001478  L 94.5089707544709 215.509492478479  L 109.508535984464 210.009651894148  L 109.508535984464 205.50978232515  L 114.008405553462 202.509869279151  L 140.507637459784 199.509956233153  L 147.507434567114 193.510130141155  L 147.507434567114 188.510275064491  L 157.007159212776 188.510275064491  L 159.507086751109 183.510419987826  L 157.007159212776 177.010608388163  L 162.007014289441 170.510796788499  L 153.007275151445 170.510796788499  L 147.507434567114 169.0108402655  L 153.007275151445 164.510970696502  L 149.50737659778 160.011101127504  L 157.007159212776 156.511202573838  L 162.007014289441 158.511144604504  L 175.506622996435 157  L 192.506130257094 157  L 201.005883887424 160.011101127504  L 210.505608533086 162.511028665836  L 215.50546360975 167.5108837425  L 224.505202747746 164.510970696502  L 230.005043332077 170.510796788499  L 219.005362163416 172.510738819165  L 228.005101301411 171.510767803832  L 242.004695516072 169.0108402655  L 246.004579577404 163.510999681169  L 246.004579577404 160.51108663517  L 251.504420161734 157.011188081505  L 254.504333207733 158.511144604504  L 259.504188284398 157.011188081505  L 257.504246253732 152.511318512507  L 261.504130315063 145.511521405177  L 260.004173792064 137.011767774847  L 281.503550621721 134.511840236515  L 281.203559317121 134.528839743776  C 279.610938813368 134.654836091708  272.544476971682 135.482478768731  260.004173792064 137.011767774847  L 245.504594069737 135.511811251848  L 241.004724500739 130.511956175183  L 240.004753485406 127.012057621518  L 236.004869424075 127.012057621518  L 238.00481145474 124.01214457552  L 225.005188255413 125.512101098519  L 219.505347671082 125.512101098519  L 218.505376655749 124.01214457552  L 213.505521579085 124.01214457552  L 210.505608533086 127.012057621518  L 205.505753456422 128.012028636851  L 203.005825918089 132.011912698183  L 191.506159241761 134.511840236515  L 191.506159241761 137.011767774847  L 189.006231703429 139.011709805513  L 189.006231703429 143.011593866844  L 181.506449088432 145.511521405177  L 170.50676791977 143.011593866844  L 159.007101243442 145.511521405177  L 157.007159212776 143.011593866844  L 142.50757949045 145.511521405177  L 140.007651952117 143.011593866844  L 136.007767890786 145.511521405177  L 127.508014260456 145.511521405177  L 127.508014260456 141.511637343845  L 123.008144691458 141.511637343845  L 121.008202660792 139.011709805513  L 123.008144691458 134.511840236515  L 117.008318599461 133.011883713516  L 119.508246137793 127.012057621518  L 127.508014260456 125.512101098519  L 133.007854844787 123.012173560187  L 126.008057737457 123.012173560187  L 127.508014260456 116.012376452856  L 124.508101214458 114.012434422191  L 133.007854844787 106.012666299528  L 132.907857743254 106.006666473436  C 132.323208022956 105.932001970957  131.873221066056 105.182023709458  131.557896872554 103.756731688937  L 131.507898321788 103.512738761195  L 126.508043245123 102.512767745862  L 121.508188168459 108.012608330193  L 114.508391061129 109.012579345526  L 103.0087243848 110.512535868526  L 101.508767861801 107.01263731486  L 98.5088548158024 106.012666299528  L 100.508796846468 102.512767745862  L 94.5089707544709 102.512767745862  L 97.5088838004695 100.01284020753  L 103.0087243848 98.0128981768645  L 108.508564969131 95.0129851308658  L 108.508564969131 93.0130431002  L 115.508362076462 93.0130431002  L 117.008318599461 88.513173531202  L 125.008086722124 84.013303962204  L 131.507898321788 85.0132749775369  L 134.00782586012 84.013303962204  L 143.007564998116 75.013564824208  L 151.007333120779 72.0136517782093  L 153.507260659111 68  L 134.507811367786 68  L 124.008115706791 69  L 111.008492507464 69  L 98.008869308136 68.0137677168778  L 101.508767861801 64.5138691632127  L 111.008492507464 59.5140140865482  L 104.008695400133 58.5140430712153  L 103.0087243848 55.0141445175502  L 104.008695400133 51.5142459638851  L 101.508767861801 51.5142459638851  L 98.008869308136 53.0142024868844  L 91.0090722008057 53.0142024868844  L 90.0091011854728 49.0143184255529  L 85.5092316164749 49.0143184255529  L 83.7562824265963 49.7342975565926  C 82.0792468181362 50.5215797394529  80.3193344532099 51.1186149995194  78.5094345091446 51.5142459638851  C 77.8427871655894 51.5142459638851  75.6761832990348 50.680936784441  72.0096229094808 49.0143184255529  L 68.0097388481493 47.5143619025536  L 60.5099562331526 49  L 49.5102750644908 49  L 47.0103475261586 46.0144053795542  L 40.5105359264948 44.5144488565549  L 44.5104199878264 39.014608272224  L 40.5105359264948 37.0146662415582  L 44.5104199878264 33.0147821802267  L 39.510564911162 32.0148111648938  L 32.5107678038317 33.0147821802267  L 28.5108837425002 32.0148111648938  L 27.0109272195008 29.0148981188951  L 17.011217066172 29.0148981188951  L 7.51149242050951 25.51499956523  L 0.0117098055128366 19.0151879655662  L 12.0113619895075 11.0154198429031  L 33.5107388191646 9  L 60.5099562331526 9  L 72.0096229094808 11.0154198429031  L 74.5095504478131 14.0153328889018  L 77.5094634938117 17.0152459349004  L 74.5095504478131 19.0151879655662  L 77.5094634938117 22.5150865192313  L 74.5095504478131 24.5150285498971  L 80.009391032144 30.014869134228  L 92.5090287238051 24.5150285498971  L 101.508767861801 22.5150865192313  L 109.008550476798 30.014869134228  L 116.008347584128 27.0149560882293  L 119.508246137793 30.014869134228  L 127.00802875279 27.0149560882293  L 134.507811367786 24.5150285498971  L 140.507637459784 27.0149560882293  L 145.007507028782 27.0149560882293  L 148.00742007478 22.5150865192313  L 163.50697081244 20  L 182.506420103765 20  L 182.506420103765 24.5150285498971  L 188.006260688096 24.5150285498971  L 182.506420103765 30  L 196.506014318426 30  L 211.005594040752 32.0148111648938  L 207.505695487087 31.0148401495609  L 213.505521579085 27.0149560882293  L 214.505492594418 21.5151155038984  L 221.505289701748 20.0151589808991  L 223.005246224747 18.0152169502333  L 236.504854931741 16.515260427234  L 247.504536100403 19.0151879655662  L 254.504333207733 16.515260427234  L 253.004376684734 14.5153183965682  L 264.504043361062 10.0154488275702  L 271.503840468392 5.01559375090577  L 288.003362221385 3.01565172023999  L 301.502970928379 1.51569519724066  L 316.502536158372 0.515724181907771  L 318.502478189038 3.01565172023999  L 309.502739051042 5.01559375090577  L 305.50285498971 10.0154488275702  L 307.00281151271 13.5153473812353  L 327.002231819368 14.5153183965682  L 335.001999942031 16.0152749195676  L 332.002086896032 20.0151589808991  L 339.001884003362 21.5151155038984  L 352.00150720269 24.5150285498971  L 363.001188371352 26.0149850728964  L 365.501115909684 29.0148981188951  L 373.00089852468 28.0149271035622  L 392.500333323672 31.0148401495609  L 406.499927538332 34.514738703226  L 421.499492768326 36.5146807338918  L 429.499260890989 47.5143619025536  L 448.498710182314 63.5138981478798  L 456.998463812643 69.0137387322107  L 476.497898611635 82.0133619315382  L 483.997681226631 88.513173531202  L 486.99759427263 93.5130286078664  L 492.497434856961 96.5129416538651  L 499.497231964291 96.5129416538651  L 504.497087040955 99.5128546998638  L 500.99718848729 101.012811222863  L 506.997014579288 104.512709776528  L 512.996840671285 115.51239094519  L 519.496652270949 117.012347468189  L 526.496449378279 126.512072113852  L 526.496449378279 130.011970667517  L 533.996231993276 132.011912698183  L 537.496130546941 141.511637343845  L 529.996347931944 143.511579374511  L 533.996231993276 151.511347497174  L 526.496449378279 155.011246050839  L 519.496652270949 157.461175038405  L 525.996463870613 155.511231558506  L 533.996231993276 151.511347497174  L 543.495956638938 151.511347497174  L 545.495898669604 156.511202573838  L 552.9956812846 156.511202573838  L 570.995159560592 162.011043158169  L 591.494565374917 167.5108837425  L 624.993594388568 172.010753311498  L 640.993130633895 189.010260572157  L 650.992840787224 197.01002869482  L 651.992811802557 202.509869279151  L 655.492710356222 207.509724355816  L 666.492391524883 208.509695371149  L 716.990927799194 218.009420016811  L 725.99066693719 224.009246108808  L 750.989942320512 235.00892727747  L 755.989797397177 241.008753369468  L 795.488652502826 266.00802875279  L 807.988290194487 285.007478044115  L 801.98846410249 287.007420074781  L 730.990522013855 274.507782383119  L 700.491406046202 266.00802875279  L 678.492043708878 261.508159183792  L 661.492536448219 250.50847801513  L 646.992956725892 246.508593953798  L 629.493463957567 250.50847801513  L 617.993797281238 261.508159183792  L 687.491782846874 297.007130228109  L 687.491782846874 306.506854873772  L 677.492072693545 311.506709950436  L 662.992492971218 313.506651981102  L 649.992869771891 320.006463580766  L 652.492797310223 326.006289672763  L 646.992956725892 334.506043303093  L 646.992956725892 338.005941856758  L 652.492797310223 341.005854902756  L 656.492681371554 347.005680994754  L 660.992550940553 345.505724471754  L 667.992348047883 351.505550563752  L 662.992492971218 355.505434625083  L 656.492681371554 353.005507086751  L 652.492797310223 353.005507086751  L 646.992956725892 351.505550563752  L 646.992956725892 355.505434625083  L 658.992608909887 381.504681023739  L 652.492797310223 383.004637546738  L 649.992869771891 386  L 621.99368134257 386  L 608.994058143242 390.004434654068  L 608.994058143242 393.504333207733  L 617.993797281238 396.004260746065  L 621.99368134257 400.004144807397  L 623.993623373236 407.003941914727  L 627.493521926901 420.503550621721  L 619.493753804238 425.003420190719  L 606.994116112577 420  L 592.994521897916 420  L 592.994521897916 427.503347729051  L 589.494623344251 433.003188313382  L 583.494797252254 431.503231790383  L 574.995043621924 429.503289759717  L 574.995043621924 433.003188313382  L 585.494739282919 444.002869482044  L 587.494681313585 456.502507173705  L 585.494739282919 459.502420219704  L 579.994898698588 458.002463696705  L 574.995043621924 467  L 555.495608822933 467  L 536.996145039274 495.001391264021  L 527.496420393612 491.00150720269  L 522.996550824614 480.501811541695  L 516.49673922495 477.501898495696  L 514.496797194284 467.0022028347  L 511.496884148286 461.50236225037  L 507.99698559462 451.002666589374  L 507.99698559462 444.002869482044  L 504.497087040955 444.002869482044  L 500.99718848729 451.002666589374  L 489.997507318628 456.502507173705  L 485 448.502739051042  L 485 437.003072374714  L 474.497956580969 440.002985420712  L 457.49844932031 444.002869482044  L 421.499492768326 437.003072374714  L 395.50024636967 420.503550621721  L 384.000579693342 414.503724529724  L 369.500999971015 393.504333207733  L 363.501173879018 378.004782470073  L 354.001449233356 380.504710008406  L 349.501579664358 379.004753485406  L 341.501811541694 379.004753485406  L 338.501898495696 382.004666531405  L 334.502014434364 384.004608562071  L 330.002144865366 382.004666531405  L 330.002144865366 378.004782470073  L 326.502246311701 376.504825947074  L 318.002492681372 379.004753485406  L 310.502710066375 379.004753485406  L 307.00281151271 383.004637546738  L 302.002956436045 379.004753485406  L 282.003536129388 391.004405669401  L 273.503782499058 391.004405669401  L 262.00411582273 380.504710008406  Z " fill-rule="nonzero" fill="#00379b" stroke="none" transform="matrix(1 0 0 1 583 207 )" />
  </g>
</svg>