<?xml version="1.0" encoding="utf-8"?>
<svg version="1.1" xmlns:xlink="http://www.w3.org/1999/xlink" width="808px" height="496px" xmlns="http://www.w3.org/2000/svg">
  <g transform="matrix(1 0 0 1 -583 -203 )">
    <path d="M 262.00411582273 380.504825947074  L 255.504304223066 379.504854931741  L 244.504623054404 382.004782470073  L 239.50476797774 377.004927393409  L 230.005043332077 377.004927393409  L 229.005072316744 374.00501434741  L 224.00521724008 370.505115793745  L 225.505173763079 362.505347671082  L 233.004956378076 356.505521579085  L 228.005101301411 348.505753456422  L 221.005304194081 357  L 210.505608533086 357  L 204.005796933422 360.00542013275  L 196.506014318426 359.005449117417  L 192.506130257094 355.505550563752  L 188.506246195762 356.505521579085  L 187.006289672763 349.005738964088  L 173.506680965769 354.005594040753  L 162.007014289441 364.505289701748  L 154.507231674444 366.005246224747  L 140.507637459784 362.505347671082  L 131.507898321788 364.505289701748  L 119.508246137793 361.005391148083  L 114.008405553462 362  L 99.0088403234688 362  L 85.5092316164749 364.505289701748  L 81.5093475551433 362.505347671082  L 83.5092895858091 354.005594040753  L 75.0095359554795 352.505637517753  L 70.5096663864815 347.505782441089  L 91.0090722008057 330.50627518043  L 94.5089707544709 330.50627518043  L 96.0089272774702 334.006173734095  L 107.008608446132 330.50627518043  L 121.508188168459 323.506478073099  L 126.008057737457 315.506709950436  L 134.00782586012 304.007043274108  L 134.00782586012 300.007159212777  L 138.507695429118 292.007391090113  L 136.007767890786 288.507492536448  L 138.507695429118 285.007593982783  L 134.00782586012 283.507637459784  L 131.507898321788 286.507550505782  L 124.508101214458 286.507550505782  L 124.508101214458 282.007680936784  L 128.007999768123 277.507811367786  L 126.008057737457 275.507869337121  L 119.508246137793 277.507811367786  L 115.508362076462 283.507637459784  L 109.508535984464 286.507550505782  L 109.508535984464 283.507637459784  L 94.5089707544709 282.007680936784  L 94.5089707544709 277.507811367786  L 107.008608446132 273.507927306455  L 109.508535984464 270.00802875279  L 103.0087243848 267.008115706791  L 103.0087243848 264.008202660793  L 89.00913017014 267.008115706791  L 79.5094055244775 267.008115706791  L 79.5094055244775 264.008202660793  L 75.0095359554795 258.508362076462  L 81.5093475551433 251.008579461465  L 79.5094055244775 248.008666415466  L 79.5094055244775 244.508767861801  L 65.5098113098171 236.009014231472  L 75.0095359554795 226.509289585809  L 81.5093475551433 217.009564940147  L 94.5089707544709 215.509608417147  L 109.508535984464 210.009767832816  L 109.508535984464 205.509898263818  L 114.008405553462 202.50998521782  L 140.507637459784 199.510072171821  L 147.507434567114 193.510246079824  L 147.507434567114 188.510391003159  L 157.007159212776 188.510391003159  L 159.507086751109 183.510535926495  L 157.007159212776 177.010724326831  L 162.007014289441 170.510912727167  L 153.007275151445 170.510912727167  L 147.507434567114 169.010956204168  L 153.007275151445 164.51108663517  L 149.50737659778 160.011217066172  L 157.007159212776 156.511318512507  L 162.007014289441 158.511260543173  L 175.506622996435 157  L 192.506130257094 157  L 201.005883887424 160.011217066172  L 210.505608533086 162.511144604504  L 215.50546360975 167.510999681169  L 224.505202747746 164.51108663517  L 230.005043332077 170.510912727167  L 219.005362163416 172.510854757833  L 228.005101301411 171.5108837425  L 242.004695516072 169.010956204168  L 246.004579577404 163.511115619837  L 246.004579577404 160.511202573838  L 251.504420161734 157.011304020173  L 254.504333207733 158.511260543173  L 259.504188284398 157.011304020173  L 257.504246253732 152.511434451175  L 261.504130315063 145.511637343845  L 260.004173792064 137.011883713516  L 281.503550621721 134.511956175183  L 281.203559317121 134.528955682444  C 279.610938813368 134.654952030376  272.544476971682 135.4825947074  260.004173792064 137.011883713516  L 245.504594069737 135.511927190516  L 241.004724500739 130.512072113852  L 240.004753485406 127.012173560187  L 236.004869424075 127.012173560187  L 238.00481145474 124.012260514188  L 225.005188255413 125.512217037187  L 219.505347671082 125.512217037187  L 218.505376655749 124.012260514188  L 213.505521579085 124.012260514188  L 210.505608533086 127.012173560187  L 205.505753456422 128.01214457552  L 203.005825918089 132.012028636851  L 191.506159241761 134.511956175183  L 191.506159241761 137.011883713516  L 189.006231703429 139.011825744181  L 189.006231703429 143.011709805513  L 181.506449088432 145.511637343845  L 170.50676791977 143.011709805513  L 159.007101243442 145.511637343845  L 157.007159212776 143.011709805513  L 142.50757949045 145.511637343845  L 140.007651952117 143.011709805513  L 136.007767890786 145.511637343845  L 127.508014260456 145.511637343845  L 127.508014260456 141.511753282514  L 123.008144691458 141.511753282514  L 121.008202660792 139.011825744181  L 123.008144691458 134.511956175183  L 117.008318599461 133.011999652184  L 119.508246137793 127.012173560187  L 127.508014260456 125.512217037187  L 133.007854844787 123.012289498855  L 126.008057737457 123.012289498855  L 127.508014260456 116.012492391525  L 124.508101214458 114.012550360859  L 133.007854844787 106.012782238196  L 132.907857743254 106.006782412104  C 132.323208022956 105.932117909626  131.873221066056 105.182139648126  131.557896872554 103.756847627605  L 131.507898321788 103.512854699864  L 126.508043245123 102.512883684531  L 121.508188168459 108.012724268862  L 114.508391061129 109.012695284195  L 103.0087243848 110.512651807194  L 101.508767861801 107.012753253529  L 98.5088548158024 106.012782238196  L 100.508796846468 102.512883684531  L 94.5089707544709 102.512883684531  L 97.5088838004695 100.012956146199  L 103.0087243848 98.0130141155329  L 108.508564969131 95.0131010695342  L 108.508564969131 93.0131590388685  L 115.508362076462 93.0131590388685  L 117.008318599461 88.5132894698704  L 125.008086722124 84.0134199008724  L 131.507898321788 85.0133909162053  L 134.00782586012 84.0134199008724  L 143.007564998116 75.0136807628764  L 151.007333120779 72.0137677168778  L 153.507260659111 68  L 134.507811367786 68  L 124.008115706791 69  L 111.008492507464 69  L 98.008869308136 68.0138836555462  L 101.508767861801 64.5139851018811  L 111.008492507464 59.5141300252167  L 104.008695400133 58.5141590098838  L 103.0087243848 55.0142604562187  L 104.008695400133 51.5143619025536  L 101.508767861801 51.5143619025536  L 98.008869308136 53.0143184255529  L 91.0090722008057 53.0143184255529  L 90.0091011854728 49.0144343642213  L 85.5092316164749 49.0144343642213  L 83.7562824265963 49.734413495261  C 82.0792468181362 50.5216956781213  80.3193344532099 51.1187309381878  78.5094345091446 51.5143619025536  C 77.8427871655894 51.5143619025536  75.6761832990348 50.6810527231095  72.0096229094808 49.0144343642213  L 68.0097388481493 47.514477841222  L 60.5099562331526 49  L 49.5102750644908 49  L 47.0103475261586 46.0145213182227  L 40.5105359264948 44.5145647952233  L 44.5104199878264 39.0147242108924  L 40.5105359264948 37.0147821802267  L 44.5104199878264 33.0148981188951  L 39.510564911162 32.0149271035622  L 32.5107678038317 33.0148981188951  L 28.5108837425002 32.0149271035622  L 27.0109272195008 29.0150140575636  L 17.011217066172 29.0150140575636  L 7.51149242050951 25.5151155038984  L 0.0117098055128366 19.0153039042347  L 12.0113619895075 11.0155357815716  L 33.5107388191646 9  L 60.5099562331526 9  L 72.0096229094808 11.0155357815716  L 74.5095504478131 14.0154488275702  L 77.5094634938117 17.0153618735689  L 74.5095504478131 19.0153039042347  L 77.5094634938117 22.5152024578998  L 74.5095504478131 24.5151444885656  L 80.009391032144 30.0149850728964  L 92.5090287238051 24.5151444885656  L 101.508767861801 22.5152024578998  L 109.008550476798 30.0149850728964  L 116.008347584128 27.0150720268978  L 119.508246137793 30.0149850728964  L 127.00802875279 27.0150720268978  L 134.507811367786 24.5151444885656  L 140.507637459784 27.0150720268978  L 145.007507028782 27.0150720268978  L 148.00742007478 22.5152024578998  L 163.50697081244 20  L 182.506420103765 20  L 182.506420103765 24.5151444885656  L 188.006260688096 24.5151444885656  L 182.506420103765 30  L 196.506014318426 30  L 211.005594040752 32.0149271035622  L 207.505695487087 31.0149560882293  L 213.505521579085 27.0150720268978  L 214.505492594418 21.5152314425669  L 221.505289701748 20.0152749195675  L 223.005246224747 18.0153328889018  L 236.504854931741 16.5153763659024  L 247.504536100403 19.0153039042347  L 254.504333207733 16.5153763659024  L 253.004376684734 14.5154343352367  L 264.504043361062 10.0155647662387  L 271.503840468392 5.01570968957422  L 288.003362221385 3.01576765890844  L 301.502970928379 1.5158111359091  L 316.502536158372 0.515840120576216  L 318.502478189038 3.01576765890844  L 309.502739051042 5.01570968957422  L 305.50285498971 10.0155647662387  L 307.00281151271 13.5154633199038  L 327.002231819368 14.5154343352367  L 335.001999942031 16.015390858236  L 332.002086896032 20.0152749195675  L 339.001884003362 21.5152314425669  L 352.00150720269 24.5151444885656  L 363.001188371352 26.0151010115649  L 365.501115909684 29.0150140575636  L 373.00089852468 28.0150430422307  L 392.500333323672 31.0149560882293  L 406.499927538332 34.5148546418944  L 421.499492768326 36.5147966725602  L 429.499260890989 47.514477841222  L 448.498710182314 63.5140140865482  L 456.998463812643 69.0138546708791  L 476.497898611635 82.0134778702067  L 483.997681226631 88.5132894698704  L 486.99759427263 93.5131445465349  L 492.497434856961 96.5130575925336  L 499.497231964291 96.5130575925336  L 504.497087040955 99.5129706385322  L 500.99718848729 101.012927161532  L 506.997014579288 104.512825715197  L 512.996840671285 115.512506883858  L 519.496652270949 117.012463406858  L 526.496449378279 126.51218805252  L 526.496449378279 130.012086606185  L 533.996231993276 132.012028636851  L 537.496130546941 141.511753282514  L 529.996347931944 143.511695313179  L 533.996231993276 151.511463435842  L 526.496449378279 155.011361989508  L 519.496652270949 157.461290977073  L 525.996463870613 155.511347497174  L 533.996231993276 151.511463435842  L 543.495956638938 151.511463435842  L 545.495898669604 156.511318512507  L 552.9956812846 156.511318512507  L 570.995159560592 162.011159096838  L 591.494565374917 167.510999681169  L 624.993594388568 172.010869250167  L 640.993130633895 189.010376510826  L 650.992840787224 197.010144633489  L 651.992811802557 202.50998521782  L 655.492710356222 207.509840294484  L 666.492391524883 208.509811309817  L 716.990927799194 218.00953595548  L 725.99066693719 224.009362047477  L 750.989942320512 235.009043216139  L 755.989797397177 241.008869308136  L 795.488652502826 266.008144691458  L 807.988290194487 285.007593982783  L 801.98846410249 287.007536013449  L 730.990522013855 274.507898321788  L 700.491406046202 266.008144691458  L 678.492043708878 261.50827512246  L 661.492536448219 250.508593953798  L 646.992956725892 246.508709892467  L 629.493463957567 250.508593953798  L 617.993797281238 261.50827512246  L 687.491782846874 297.007246166778  L 687.491782846874 306.50697081244  L 677.492072693545 311.506825889105  L 662.992492971218 313.50676791977  L 649.992869771891 320.006579519434  L 652.492797310223 326.006405611432  L 646.992956725892 334.506159241761  L 646.992956725892 338.006057795426  L 652.492797310223 341.005970841425  L 656.492681371554 347.005796933422  L 660.992550940553 345.505840410423  L 667.992348047883 351.50566650242  L 662.992492971218 355.505550563752  L 656.492681371554 353.00562302542  L 652.492797310223 353.00562302542  L 646.992956725892 351.50566650242  L 646.992956725892 355.505550563752  L 658.992608909887 381.504796962407  L 652.492797310223 383.004753485406  L 649.992869771891 386  L 621.99368134257 386  L 608.994058143242 390.004550592737  L 608.994058143242 393.504449146402  L 617.993797281238 396.004376684734  L 621.99368134257 400.004260746065  L 623.993623373236 407.004057853396  L 627.493521926901 420.50366656039  L 619.493753804238 425.003536129388  L 606.994116112577 420  L 592.994521897916 420  L 592.994521897916 427.50346366772  L 589.494623344251 433.003304252051  L 583.494797252254 431.503347729051  L 574.995043621924 429.503405698386  L 574.995043621924 433.003304252051  L 585.494739282919 444.002985420712  L 587.494681313585 456.502623112374  L 585.494739282919 459.502536158372  L 579.994898698588 458.002579635373  L 574.995043621924 467  L 555.495608822933 467  L 536.996145039274 495.00150720269  L 527.496420393612 491.001623141358  L 522.996550824614 480.501927480363  L 516.49673922495 477.502014434364  L 514.496797194284 467.002318773369  L 511.496884148286 461.502478189038  L 507.99698559462 451.002782528043  L 507.99698559462 444.002985420712  L 504.497087040955 444.002985420712  L 500.99718848729 451.002782528043  L 489.997507318628 456.502623112374  L 485 448.502854989711  L 485 437.003188313382  L 474.497956580969 440.003101359381  L 457.49844932031 444.002985420712  L 421.499492768326 437.003188313382  L 395.50024636967 420.50366656039  L 384.000579693342 414.503840468392  L 369.500999971015 393.504449146402  L 363.501173879018 378.004898408742  L 354.001449233356 380.504825947074  L 349.501579664358 379.004869424075  L 341.501811541694 379.004869424075  L 338.501898495696 382.004782470073  L 334.502014434364 384.004724500739  L 330.002144865366 382.004782470073  L 330.002144865366 378.004898408742  L 326.502246311701 376.504941885742  L 318.002492681372 379.004869424075  L 310.502710066375 379.004869424075  L 307.00281151271 383.004753485406  L 302.002956436045 379.004869424075  L 282.003536129388 391.004521608069  L 273.503782499058 391.004521608069  L 262.00411582273 380.504825947074  Z " fill-rule="nonzero" fill="#02ffff" stroke="none" transform="matrix(1 0 0 1 583 203 )" />
  </g>
</svg>