<?xml version="1.0" encoding="utf-8"?>
<svg version="1.1" xmlns:xlink="http://www.w3.org/1999/xlink" width="158px" height="133px" xmlns="http://www.w3.org/2000/svg">
  <defs>
    <mask fill="white" id="clip1061">
      <path d="M 30.0011593866845 92.0103185414916  C 30.0011593866845 92.0103185414916  23.0013622793542 85.5105069418278  23.0013622793542 85.5105069418278  C 23.0013622793542 85.5105069418278  30.0011593866845 73.5108547578331  30.0011593866845 73.5108547578331  C 30.0011593866845 73.5108547578331  29.0011883713516 68.0110141735022  29.0011883713516 68.0110141735022  C 29.0011883713516 68.0110141735022  20.0014492333556 68.0110141735022  20.0014492333556 68.0110141735022  C 20.0014492333556 68.0110141735022  23.0013622793542 60.0112460508391  23.0013622793542 60.0112460508391  C 23.0013622793542 60.0112460508391  21.0014202486885 54.0114199588418  21.0014202486885 54.0114199588418  C 21.0014202486885 54.0114199588418  21.0014202486885 49.0115648821774  21.0014202486885 49.0115648821774  C 21.0014202486885 49.0115648821774  27.0012463406858 48.0115938668445  27.0012463406858 48.0115938668445  C 27.0012463406858 48.0115938668445  34.001043448016 51.5114924205096  34.001043448016 51.5114924205096  C 34.001043448016 51.5114924205096  37.0009564940147 49.0115648821774  37.0009564940147 49.0115648821774  C 37.0009564940147 49.0115648821774  29.0011883713516 40.0118257441814  29.0011883713516 40.0118257441814  C 29.0011883713516 40.0118257441814  30.0011593866845 37.0119126981827  30.0011593866845 37.0119126981827  C 30.0011593866845 37.0119126981827  25.00130431002 34.011999652184  25.00130431002 34.011999652184  C 25.00130431002 34.011999652184  21.0014202486885 32.5120431291847  21.0014202486885 32.5120431291847  C 21.0014202486885 32.5120431291847  21.0014202486885 28.0121735601867  21.0014202486885 28.0121735601867  C 21.0014202486885 28.0121735601867  17.5015216950234 23.5123039911887  17.5015216950234 23.5123039911887  C 17.5015216950234 23.5123039911887  9.50175357236026 24.5122750065216  9.50175357236026 24.5122750065216  C 9.50175357236026 24.5122750065216  8.0017970493609 21.5123619605229  8.0017970493609 21.5123619605229  C 8.0017970493609 21.5123619605229  6.5018405263616 20.0124054375236  6.5018405263616 20.0124054375236  C 6.5018405263616 20.0124054375236  8.0017970493609 17.0124923915249  8.0017970493609 17.0124923915249  C 8.0017970493609 17.0124923915249  6.5018405263616 10.5126807918611  6.5018405263616 10.5126807918611  C 6.5018405263616 10.5126807918611  3.50192748036289 9.51270977652824  3.50192748036289 9.51270977652824  C 3.50192748036289 9.51270977652824  0.502014434364241 4.01286919219734  0.502014434364241 4.01286919219734  C 0.502014434364241 4.01286919219734  9.50175357236026 0.0129851308658004  9.50175357236026 0.0129851308658004  C 9.50175357236026 0.0129851308658004  14.0016231413583 6.01281122286312  14.0016231413583 6.01281122286312  C 14.0016231413583 6.01281122286312  21.0014202486885 4.01286919219734  21.0014202486885 4.01286919219734  C 21.0014202486885 4.01286919219734  50.0005796933423 4.01286919219734  50.0005796933423 4.01286919219734  C 50.0005796933423 4.01286919219734  58.0003478160054 2.01292716153156  58.0003478160054 2.01292716153156  C 58.0003478160054 2.01292716153156  67.0000869540013 2.01292716153156  67.0000869540013 2.01292716153156  C 67.0000869540013 2.01292716153156  80.9996811686618 6.01281122286312  80.9996811686618 6.01281122286312  C 80.9996811686618 6.01281122286312  92.9993333526565 6.01281122286312  92.9993333526565 6.01281122286312  C 92.9993333526565 6.01281122286312  96.4992319063216 10.5126807918611  96.4992319063216 10.5126807918611  C 96.4992319063216 10.5126807918611  98.9991594446538 15.5125358685256  98.9991594446538 15.5125358685256  C 98.9991594446538 15.5125358685256  96.4992319063216 19.0124344221907  96.4992319063216 19.0124344221907  C 96.4992319063216 19.0124344221907  87.999478275992 22.0123474681893  87.999478275992 22.0123474681893  C 87.999478275992 22.0123474681893  80.9996811686618 22.0123474681893  80.9996811686618 22.0123474681893  C 80.9996811686618 22.0123474681893  80.9996811686618 25.5122460218545  80.9996811686618 25.5122460218545  C 80.9996811686618 25.5122460218545  84.9995652299934 28.0121735601867  84.9995652299934 28.0121735601867  C 84.9995652299934 28.0121735601867  77.9997681226631 31.5120721138518  77.9997681226631 31.5120721138518  C 77.9997681226631 31.5120721138518  76.4998115996638 34.011999652184  76.4998115996638 34.011999652184  C 76.4998115996638 34.011999652184  85.4995507376598 34.011999652184  85.4995507376598 34.011999652184  C 85.4995507376598 34.011999652184  87.999478275992 35.5119561751833  87.999478275992 35.5119561751833  C 87.999478275992 35.5119561751833  83.499608706994 39.0118547288484  83.499608706994 39.0118547288484  C 83.499608706994 39.0118547288484  70.4999855076665 44.5116953131794  70.4999855076665 44.5116953131794  C 70.4999855076665 44.5116953131794  70.4999855076665 50.5115214051767  70.4999855076665 50.5115214051767  C 70.4999855076665 50.5115214051767  85.4995507376598 50.5115214051767  85.4995507376598 50.5115214051767  C 85.4995507376598 50.5115214051767  87.999478275992 54.0114199588418  87.999478275992 54.0114199588418  C 87.999478275992 54.0114199588418  92.9993333526565 54.0114199588418  92.9993333526565 54.0114199588418  C 92.9993333526565 54.0114199588418  96.4992319063216 62.0111880815049  96.4992319063216 62.0111880815049  C 96.4992319063216 62.0111880815049  96.4992319063216 65.0111011275036  96.4992319063216 65.0111011275036  C 96.4992319063216 65.0111011275036  102.999043505985 77.5107388191647  102.999043505985 77.5107388191647  C 102.999043505985 77.5107388191647  112.498768151648 76.5107678038318  112.498768151648 76.5107678038318  C 112.498768151648 76.5107678038318  115.998666705313 84.0105504188285  115.998666705313 84.0105504188285  C 115.998666705313 84.0105504188285  112.498768151648 88.01043448016  112.498768151648 88.01043448016  C 112.498768151648 88.01043448016  113.998724674647 92.0103185414916  113.998724674647 92.0103185414916  C 113.998724674647 92.0103185414916  119.498565258978 96.0102026028232  119.498565258978 96.0102026028232  C 119.498565258978 96.0102026028232  115.998666705313 101.510043187154  115.998666705313 101.510043187154  C 115.998666705313 101.510043187154  116.498652212979 105.509927248486  117.998608735979 106.509898263818  C 119.498565258978 107.509869279151  135.998087011971 108.009854786818  135.998087011971 108.009854786818  C 135.998087011971 108.009854786818  149.997681226631 113.009709863482  149.997681226631 113.009709863482  C 149.997681226631 113.009709863482  157.997449349294 119.509521463146  157.997449349294 119.509521463146  C 157.997449349294 119.509521463146  156.497492826295 122.509434509145  156.497492826295 122.509434509145  C 156.497492826295 122.509434509145  140.997942088635 119.509521463146  140.997942088635 119.509521463146  C 140.997942088635 119.509521463146  130.49824642764 121.009477986145  130.49824642764 121.009477986145  C 130.49824642764 121.009477986145  123.998434827976 125.509347555143  123.998434827976 125.509347555143  C 123.998434827976 125.509347555143  105.998956551984 131.509173647141  105.998956551984 131.509173647141  C 105.998956551984 131.509173647141  96.4992319063216 132.509144662474  96.4992319063216 132.509144662474  C 96.4992319063216 132.509144662474  96.4992319063216 129.509231616475  96.4992319063216 129.509231616475  C 96.4992319063216 129.509231616475  83.499608706994 129.509231616475  83.499608706994 129.509231616475  C 83.499608706994 129.509231616475  77.9997681226631 131.509173647141  77.9997681226631 131.509173647141  C 77.9997681226631 131.509173647141  70.4999855076665 129.509231616475  70.4999855076665 129.509231616475  C 70.4999855076665 129.509231616475  57.0003768006725 129.509231616475  57.0003768006725 129.509231616475  C 57.0003768006725 129.509231616475  45.5007101243443 122.509434509145  45.5007101243443 122.509434509145  C 45.5007101243443 122.509434509145  35.0010144633489 110.009796817484  35.0010144633489 110.009796817484  C 35.0010144633489 110.009796817484  31.0011304020173 99.0101156488218  31.0011304020173 99.0101156488218  C 31.0011304020173 99.0101156488218  30.0011593866845 92.0103185414916  30.0011593866845 92.0103185414916  Z " fill-rule="evenodd" />
    </mask>
  </defs>
  <g transform="matrix(1 0 0 1 -917 -302 )">
    <path d="M 30.0011593866845 92.0103185414916  C 30.0011593866845 92.0103185414916  23.0013622793542 85.5105069418278  23.0013622793542 85.5105069418278  C 23.0013622793542 85.5105069418278  30.0011593866845 73.5108547578331  30.0011593866845 73.5108547578331  C 30.0011593866845 73.5108547578331  29.0011883713516 68.0110141735022  29.0011883713516 68.0110141735022  C 29.0011883713516 68.0110141735022  20.0014492333556 68.0110141735022  20.0014492333556 68.0110141735022  C 20.0014492333556 68.0110141735022  23.0013622793542 60.0112460508391  23.0013622793542 60.0112460508391  C 23.0013622793542 60.0112460508391  21.0014202486885 54.0114199588418  21.0014202486885 54.0114199588418  C 21.0014202486885 54.0114199588418  21.0014202486885 49.0115648821774  21.0014202486885 49.0115648821774  C 21.0014202486885 49.0115648821774  27.0012463406858 48.0115938668445  27.0012463406858 48.0115938668445  C 27.0012463406858 48.0115938668445  34.001043448016 51.5114924205096  34.001043448016 51.5114924205096  C 34.001043448016 51.5114924205096  37.0009564940147 49.0115648821774  37.0009564940147 49.0115648821774  C 37.0009564940147 49.0115648821774  29.0011883713516 40.0118257441814  29.0011883713516 40.0118257441814  C 29.0011883713516 40.0118257441814  30.0011593866845 37.0119126981827  30.0011593866845 37.0119126981827  C 30.0011593866845 37.0119126981827  25.00130431002 34.011999652184  25.00130431002 34.011999652184  C 25.00130431002 34.011999652184  21.0014202486885 32.5120431291847  21.0014202486885 32.5120431291847  C 21.0014202486885 32.5120431291847  21.0014202486885 28.0121735601867  21.0014202486885 28.0121735601867  C 21.0014202486885 28.0121735601867  17.5015216950234 23.5123039911887  17.5015216950234 23.5123039911887  C 17.5015216950234 23.5123039911887  9.50175357236026 24.5122750065216  9.50175357236026 24.5122750065216  C 9.50175357236026 24.5122750065216  8.0017970493609 21.5123619605229  8.0017970493609 21.5123619605229  C 8.0017970493609 21.5123619605229  6.5018405263616 20.0124054375236  6.5018405263616 20.0124054375236  C 6.5018405263616 20.0124054375236  8.0017970493609 17.0124923915249  8.0017970493609 17.0124923915249  C 8.0017970493609 17.0124923915249  6.5018405263616 10.5126807918611  6.5018405263616 10.5126807918611  C 6.5018405263616 10.5126807918611  3.50192748036289 9.51270977652824  3.50192748036289 9.51270977652824  C 3.50192748036289 9.51270977652824  0.502014434364241 4.01286919219734  0.502014434364241 4.01286919219734  C 0.502014434364241 4.01286919219734  9.50175357236026 0.0129851308658004  9.50175357236026 0.0129851308658004  C 9.50175357236026 0.0129851308658004  14.0016231413583 6.01281122286312  14.0016231413583 6.01281122286312  C 14.0016231413583 6.01281122286312  21.0014202486885 4.01286919219734  21.0014202486885 4.01286919219734  C 21.0014202486885 4.01286919219734  50.0005796933423 4.01286919219734  50.0005796933423 4.01286919219734  C 50.0005796933423 4.01286919219734  58.0003478160054 2.01292716153156  58.0003478160054 2.01292716153156  C 58.0003478160054 2.01292716153156  67.0000869540013 2.01292716153156  67.0000869540013 2.01292716153156  C 67.0000869540013 2.01292716153156  80.9996811686618 6.01281122286312  80.9996811686618 6.01281122286312  C 80.9996811686618 6.01281122286312  92.9993333526565 6.01281122286312  92.9993333526565 6.01281122286312  C 92.9993333526565 6.01281122286312  96.4992319063216 10.5126807918611  96.4992319063216 10.5126807918611  C 96.4992319063216 10.5126807918611  98.9991594446538 15.5125358685256  98.9991594446538 15.5125358685256  C 98.9991594446538 15.5125358685256  96.4992319063216 19.0124344221907  96.4992319063216 19.0124344221907  C 96.4992319063216 19.0124344221907  87.999478275992 22.0123474681893  87.999478275992 22.0123474681893  C 87.999478275992 22.0123474681893  80.9996811686618 22.0123474681893  80.9996811686618 22.0123474681893  C 80.9996811686618 22.0123474681893  80.9996811686618 25.5122460218545  80.9996811686618 25.5122460218545  C 80.9996811686618 25.5122460218545  84.9995652299934 28.0121735601867  84.9995652299934 28.0121735601867  C 84.9995652299934 28.0121735601867  77.9997681226631 31.5120721138518  77.9997681226631 31.5120721138518  C 77.9997681226631 31.5120721138518  76.4998115996638 34.011999652184  76.4998115996638 34.011999652184  C 76.4998115996638 34.011999652184  85.4995507376598 34.011999652184  85.4995507376598 34.011999652184  C 85.4995507376598 34.011999652184  87.999478275992 35.5119561751833  87.999478275992 35.5119561751833  C 87.999478275992 35.5119561751833  83.499608706994 39.0118547288484  83.499608706994 39.0118547288484  C 83.499608706994 39.0118547288484  70.4999855076665 44.5116953131794  70.4999855076665 44.5116953131794  C 70.4999855076665 44.5116953131794  70.4999855076665 50.5115214051767  70.4999855076665 50.5115214051767  C 70.4999855076665 50.5115214051767  85.4995507376598 50.5115214051767  85.4995507376598 50.5115214051767  C 85.4995507376598 50.5115214051767  87.999478275992 54.0114199588418  87.999478275992 54.0114199588418  C 87.999478275992 54.0114199588418  92.9993333526565 54.0114199588418  92.9993333526565 54.0114199588418  C 92.9993333526565 54.0114199588418  96.4992319063216 62.0111880815049  96.4992319063216 62.0111880815049  C 96.4992319063216 62.0111880815049  96.4992319063216 65.0111011275036  96.4992319063216 65.0111011275036  C 96.4992319063216 65.0111011275036  102.999043505985 77.5107388191647  102.999043505985 77.5107388191647  C 102.999043505985 77.5107388191647  112.498768151648 76.5107678038318  112.498768151648 76.5107678038318  C 112.498768151648 76.5107678038318  115.998666705313 84.0105504188285  115.998666705313 84.0105504188285  C 115.998666705313 84.0105504188285  112.498768151648 88.01043448016  112.498768151648 88.01043448016  C 112.498768151648 88.01043448016  113.998724674647 92.0103185414916  113.998724674647 92.0103185414916  C 113.998724674647 92.0103185414916  119.498565258978 96.0102026028232  119.498565258978 96.0102026028232  C 119.498565258978 96.0102026028232  115.998666705313 101.510043187154  115.998666705313 101.510043187154  C 115.998666705313 101.510043187154  116.498652212979 105.509927248486  117.998608735979 106.509898263818  C 119.498565258978 107.509869279151  135.998087011971 108.009854786818  135.998087011971 108.009854786818  C 135.998087011971 108.009854786818  149.997681226631 113.009709863482  149.997681226631 113.009709863482  C 149.997681226631 113.009709863482  157.997449349294 119.509521463146  157.997449349294 119.509521463146  C 157.997449349294 119.509521463146  156.497492826295 122.509434509145  156.497492826295 122.509434509145  C 156.497492826295 122.509434509145  140.997942088635 119.509521463146  140.997942088635 119.509521463146  C 140.997942088635 119.509521463146  130.49824642764 121.009477986145  130.49824642764 121.009477986145  C 130.49824642764 121.009477986145  123.998434827976 125.509347555143  123.998434827976 125.509347555143  C 123.998434827976 125.509347555143  105.998956551984 131.509173647141  105.998956551984 131.509173647141  C 105.998956551984 131.509173647141  96.4992319063216 132.509144662474  96.4992319063216 132.509144662474  C 96.4992319063216 132.509144662474  96.4992319063216 129.509231616475  96.4992319063216 129.509231616475  C 96.4992319063216 129.509231616475  83.499608706994 129.509231616475  83.499608706994 129.509231616475  C 83.499608706994 129.509231616475  77.9997681226631 131.509173647141  77.9997681226631 131.509173647141  C 77.9997681226631 131.509173647141  70.4999855076665 129.509231616475  70.4999855076665 129.509231616475  C 70.4999855076665 129.509231616475  57.0003768006725 129.509231616475  57.0003768006725 129.509231616475  C 57.0003768006725 129.509231616475  45.5007101243443 122.509434509145  45.5007101243443 122.509434509145  C 45.5007101243443 122.509434509145  35.0010144633489 110.009796817484  35.0010144633489 110.009796817484  C 35.0010144633489 110.009796817484  31.0011304020173 99.0101156488218  31.0011304020173 99.0101156488218  C 31.0011304020173 99.0101156488218  30.0011593866845 92.0103185414916  30.0011593866845 92.0103185414916  Z " fill-rule="nonzero" fill="#b9962e" stroke="none" transform="matrix(1 0 0 1 917 302 )" />
    <path d="M 30.0011593866845 92.0103185414916  C 30.0011593866845 92.0103185414916  23.0013622793542 85.5105069418278  23.0013622793542 85.5105069418278  C 23.0013622793542 85.5105069418278  30.0011593866845 73.5108547578331  30.0011593866845 73.5108547578331  C 30.0011593866845 73.5108547578331  29.0011883713516 68.0110141735022  29.0011883713516 68.0110141735022  C 29.0011883713516 68.0110141735022  20.0014492333556 68.0110141735022  20.0014492333556 68.0110141735022  C 20.0014492333556 68.0110141735022  23.0013622793542 60.0112460508391  23.0013622793542 60.0112460508391  C 23.0013622793542 60.0112460508391  21.0014202486885 54.0114199588418  21.0014202486885 54.0114199588418  C 21.0014202486885 54.0114199588418  21.0014202486885 49.0115648821774  21.0014202486885 49.0115648821774  C 21.0014202486885 49.0115648821774  27.0012463406858 48.0115938668445  27.0012463406858 48.0115938668445  C 27.0012463406858 48.0115938668445  34.001043448016 51.5114924205096  34.001043448016 51.5114924205096  C 34.001043448016 51.5114924205096  37.0009564940147 49.0115648821774  37.0009564940147 49.0115648821774  C 37.0009564940147 49.0115648821774  29.0011883713516 40.0118257441814  29.0011883713516 40.0118257441814  C 29.0011883713516 40.0118257441814  30.0011593866845 37.0119126981827  30.0011593866845 37.0119126981827  C 30.0011593866845 37.0119126981827  25.00130431002 34.011999652184  25.00130431002 34.011999652184  C 25.00130431002 34.011999652184  21.0014202486885 32.5120431291847  21.0014202486885 32.5120431291847  C 21.0014202486885 32.5120431291847  21.0014202486885 28.0121735601867  21.0014202486885 28.0121735601867  C 21.0014202486885 28.0121735601867  17.5015216950234 23.5123039911887  17.5015216950234 23.5123039911887  C 17.5015216950234 23.5123039911887  9.50175357236026 24.5122750065216  9.50175357236026 24.5122750065216  C 9.50175357236026 24.5122750065216  8.0017970493609 21.5123619605229  8.0017970493609 21.5123619605229  C 8.0017970493609 21.5123619605229  6.5018405263616 20.0124054375236  6.5018405263616 20.0124054375236  C 6.5018405263616 20.0124054375236  8.0017970493609 17.0124923915249  8.0017970493609 17.0124923915249  C 8.0017970493609 17.0124923915249  6.5018405263616 10.5126807918611  6.5018405263616 10.5126807918611  C 6.5018405263616 10.5126807918611  3.50192748036289 9.51270977652824  3.50192748036289 9.51270977652824  C 3.50192748036289 9.51270977652824  0.502014434364241 4.01286919219734  0.502014434364241 4.01286919219734  C 0.502014434364241 4.01286919219734  9.50175357236026 0.0129851308658004  9.50175357236026 0.0129851308658004  C 9.50175357236026 0.0129851308658004  14.0016231413583 6.01281122286312  14.0016231413583 6.01281122286312  C 14.0016231413583 6.01281122286312  21.0014202486885 4.01286919219734  21.0014202486885 4.01286919219734  C 21.0014202486885 4.01286919219734  50.0005796933423 4.01286919219734  50.0005796933423 4.01286919219734  C 50.0005796933423 4.01286919219734  58.0003478160054 2.01292716153156  58.0003478160054 2.01292716153156  C 58.0003478160054 2.01292716153156  67.0000869540013 2.01292716153156  67.0000869540013 2.01292716153156  C 67.0000869540013 2.01292716153156  80.9996811686618 6.01281122286312  80.9996811686618 6.01281122286312  C 80.9996811686618 6.01281122286312  92.9993333526565 6.01281122286312  92.9993333526565 6.01281122286312  C 92.9993333526565 6.01281122286312  96.4992319063216 10.5126807918611  96.4992319063216 10.5126807918611  C 96.4992319063216 10.5126807918611  98.9991594446538 15.5125358685256  98.9991594446538 15.5125358685256  C 98.9991594446538 15.5125358685256  96.4992319063216 19.0124344221907  96.4992319063216 19.0124344221907  C 96.4992319063216 19.0124344221907  87.999478275992 22.0123474681893  87.999478275992 22.0123474681893  C 87.999478275992 22.0123474681893  80.9996811686618 22.0123474681893  80.9996811686618 22.0123474681893  C 80.9996811686618 22.0123474681893  80.9996811686618 25.5122460218545  80.9996811686618 25.5122460218545  C 80.9996811686618 25.5122460218545  84.9995652299934 28.0121735601867  84.9995652299934 28.0121735601867  C 84.9995652299934 28.0121735601867  77.9997681226631 31.5120721138518  77.9997681226631 31.5120721138518  C 77.9997681226631 31.5120721138518  76.4998115996638 34.011999652184  76.4998115996638 34.011999652184  C 76.4998115996638 34.011999652184  85.4995507376598 34.011999652184  85.4995507376598 34.011999652184  C 85.4995507376598 34.011999652184  87.999478275992 35.5119561751833  87.999478275992 35.5119561751833  C 87.999478275992 35.5119561751833  83.499608706994 39.0118547288484  83.499608706994 39.0118547288484  C 83.499608706994 39.0118547288484  70.4999855076665 44.5116953131794  70.4999855076665 44.5116953131794  C 70.4999855076665 44.5116953131794  70.4999855076665 50.5115214051767  70.4999855076665 50.5115214051767  C 70.4999855076665 50.5115214051767  85.4995507376598 50.5115214051767  85.4995507376598 50.5115214051767  C 85.4995507376598 50.5115214051767  87.999478275992 54.0114199588418  87.999478275992 54.0114199588418  C 87.999478275992 54.0114199588418  92.9993333526565 54.0114199588418  92.9993333526565 54.0114199588418  C 92.9993333526565 54.0114199588418  96.4992319063216 62.0111880815049  96.4992319063216 62.0111880815049  C 96.4992319063216 62.0111880815049  96.4992319063216 65.0111011275036  96.4992319063216 65.0111011275036  C 96.4992319063216 65.0111011275036  102.999043505985 77.5107388191647  102.999043505985 77.5107388191647  C 102.999043505985 77.5107388191647  112.498768151648 76.5107678038318  112.498768151648 76.5107678038318  C 112.498768151648 76.5107678038318  115.998666705313 84.0105504188285  115.998666705313 84.0105504188285  C 115.998666705313 84.0105504188285  112.498768151648 88.01043448016  112.498768151648 88.01043448016  C 112.498768151648 88.01043448016  113.998724674647 92.0103185414916  113.998724674647 92.0103185414916  C 113.998724674647 92.0103185414916  119.498565258978 96.0102026028232  119.498565258978 96.0102026028232  C 119.498565258978 96.0102026028232  115.998666705313 101.510043187154  115.998666705313 101.510043187154  C 115.998666705313 101.510043187154  116.498652212979 105.509927248486  117.998608735979 106.509898263818  C 119.498565258978 107.509869279151  135.998087011971 108.009854786818  135.998087011971 108.009854786818  C 135.998087011971 108.009854786818  149.997681226631 113.009709863482  149.997681226631 113.009709863482  C 149.997681226631 113.009709863482  157.997449349294 119.509521463146  157.997449349294 119.509521463146  C 157.997449349294 119.509521463146  156.497492826295 122.509434509145  156.497492826295 122.509434509145  C 156.497492826295 122.509434509145  140.997942088635 119.509521463146  140.997942088635 119.509521463146  C 140.997942088635 119.509521463146  130.49824642764 121.009477986145  130.49824642764 121.009477986145  C 130.49824642764 121.009477986145  123.998434827976 125.509347555143  123.998434827976 125.509347555143  C 123.998434827976 125.509347555143  105.998956551984 131.509173647141  105.998956551984 131.509173647141  C 105.998956551984 131.509173647141  96.4992319063216 132.509144662474  96.4992319063216 132.509144662474  C 96.4992319063216 132.509144662474  96.4992319063216 129.509231616475  96.4992319063216 129.509231616475  C 96.4992319063216 129.509231616475  83.499608706994 129.509231616475  83.499608706994 129.509231616475  C 83.499608706994 129.509231616475  77.9997681226631 131.509173647141  77.9997681226631 131.509173647141  C 77.9997681226631 131.509173647141  70.4999855076665 129.509231616475  70.4999855076665 129.509231616475  C 70.4999855076665 129.509231616475  57.0003768006725 129.509231616475  57.0003768006725 129.509231616475  C 57.0003768006725 129.509231616475  45.5007101243443 122.509434509145  45.5007101243443 122.509434509145  C 45.5007101243443 122.509434509145  35.0010144633489 110.009796817484  35.0010144633489 110.009796817484  C 35.0010144633489 110.009796817484  31.0011304020173 99.0101156488218  31.0011304020173 99.0101156488218  C 31.0011304020173 99.0101156488218  30.0011593866845 92.0103185414916  30.0011593866845 92.0103185414916  Z " stroke-width="6" stroke="#ffec16" fill="none" transform="matrix(1 0 0 1 917 302 )" mask="url(#clip1061)" />
  </g>
</svg>