<?xml version="1.0" encoding="utf-8"?>
<svg version="1.1" xmlns:xlink="http://www.w3.org/1999/xlink" width="241px" height="62px" xmlns="http://www.w3.org/2000/svg">
  <defs>
    <mask fill="white" id="clip1055">
      <path d="M 8.01150691284306 17.0152749195676  C 8.01150691284306 17.0152749195676  0.511724297846392 10.5154633199038  0.511724297846392 10.5154633199038  C 0.511724297846392 10.5154633199038  12.5113764818411 2.51569519724066  12.5113764818411 2.51569519724066  C 12.5113764818411 2.51569519724066  34.0107533114982 0.515753166574882  34.0107533114982 0.515753166574882  C 34.0107533114982 0.515753166574882  61.0099707254862 0.515753166574882  61.0099707254862 0.515753166574882  C 61.0099707254862 0.515753166574882  72.5096374018144 2.51569519724066  72.5096374018144 2.51569519724066  C 72.5096374018144 2.51569519724066  75.0095649401466 5.51560824323933  75.0095649401466 5.51560824323933  C 75.0095649401466 5.51560824323933  78.0094779861453 8.515521289238  78.0094779861453 8.515521289238  C 78.0094779861453 8.515521289238  75.0095649401466 10.5154633199038  75.0095649401466 10.5154633199038  C 75.0095649401466 10.5154633199038  78.0094779861453 14.0153618735689  78.0094779861453 14.0153618735689  C 78.0094779861453 14.0153618735689  75.0095649401466 16.0153039042347  75.0095649401466 16.0153039042347  C 75.0095649401466 16.0153039042347  80.5094055244775 21.5151444885656  80.5094055244775 21.5151444885656  C 80.5094055244775 21.5151444885656  93.0090432161386 16.0153039042347  93.0090432161386 16.0153039042347  C 93.0090432161386 16.0153039042347  102.008782354135 14.0153618735689  102.008782354135 14.0153618735689  C 102.008782354135 14.0153618735689  109.508564969131 21.5151444885656  109.508564969131 21.5151444885656  C 109.508564969131 21.5151444885656  116.508362076462 18.5152314425669  116.508362076462 18.5152314425669  C 116.508362076462 18.5152314425669  121.00823164546 21.5151444885656  121.00823164546 21.5151444885656  C 121.00823164546 21.5151444885656  128.508014260456 18.5152314425669  128.508014260456 18.5152314425669  C 128.508014260456 18.5152314425669  136.007796875453 16.0153039042347  136.007796875453 16.0153039042347  C 136.007796875453 16.0153039042347  142.00762296745 18.5152314425669  142.00762296745 18.5152314425669  C 142.00762296745 18.5152314425669  146.507492536448 18.5152314425669  146.507492536448 18.5152314425669  C 146.507492536448 18.5152314425669  149.507405582447 14.0153618735689  149.507405582447 14.0153618735689  C 149.507405582447 14.0153618735689  165.006956320107 11.0154488275702  165.006956320107 11.0154488275702  C 165.006956320107 11.0154488275702  184.006405611432 11.0154488275702  184.006405611432 11.0154488275702  C 184.006405611432 11.0154488275702  184.006405611432 16.0153039042347  184.006405611432 16.0153039042347  C 184.006405611432 16.0153039042347  189.506246195762 16.0153039042347  189.506246195762 16.0153039042347  C 189.506246195762 16.0153039042347  184.006405611432 21.5151444885656  184.006405611432 21.5151444885656  C 184.006405611432 21.5151444885656  198.005999826092 21.5151444885656  198.005999826092 21.5151444885656  C 198.005999826092 21.5151444885656  212.505579548419 23.5150865192313  212.505579548419 23.5150865192313  C 212.505579548419 23.5150865192313  231.505028839744 21.5151444885656  231.505028839744 21.5151444885656  C 231.505028839744 21.5151444885656  240.004782470073 23.5150865192313  240.004782470073 23.5150865192313  C 240.004782470073 23.5150865192313  234.004956378076 28.5149415958958  234.004956378076 28.5149415958958  C 234.004956378076 28.5149415958958  224.005246224747 28.5149415958958  224.005246224747 28.5149415958958  C 224.005246224747 28.5149415958958  220.005362163416 34.0147821802267  220.005362163416 34.0147821802267  C 220.005362163416 34.0147821802267  212.505579548419 37.0146952262253  212.505579548419 37.0146952262253  C 212.505579548419 37.0146952262253  206.005767948755 40.014608272224  206.005767948755 40.014608272224  C 206.005767948755 40.014608272224  184.006405611432 40.014608272224  184.006405611432 40.014608272224  C 184.006405611432 40.014608272224  179.006550534767 37.0146952262253  179.006550534767 37.0146952262253  C 179.006550534767 37.0146952262253  168.506854873772 40.014608272224  168.506854873772 40.014608272224  C 168.506854873772 40.014608272224  163.007014289441 37.0146952262253  163.007014289441 37.0146952262253  C 163.007014289441 37.0146952262253  152.507318628446 37.0146952262253  152.507318628446 37.0146952262253  C 152.507318628446 37.0146952262253  155.007246166778 40.014608272224  155.007246166778 40.014608272224  C 155.007246166778 40.014608272224  149.507405582447 45.5144488565549  149.507405582447 45.5144488565549  C 149.507405582447 45.5144488565549  157.50717370511 47.5143908872207  157.50717370511 47.5143908872207  C 157.50717370511 47.5143908872207  163.007014289441 49.5143329178864  163.007014289441 49.5143329178864  C 163.007014289441 49.5143329178864  163.007014289441 53.514216979218  163.007014289441 53.514216979218  C 163.007014289441 53.514216979218  159.507115735776 56.0141445175502  159.507115735776 56.0141445175502  C 159.507115735776 56.0141445175502  155.007246166778 60.5140140865482  155.007246166778 60.5140140865482  C 155.007246166778 60.5140140865482  136.007796875453 60.5140140865482  136.007796875453 60.5140140865482  C 136.007796875453 60.5140140865482  125.508101214458 61.5139851018811  125.508101214458 61.5139851018811  C 125.508101214458 61.5139851018811  111.508506999797 61.5139851018811  111.508506999797 61.5139851018811  C 111.508506999797 61.5139851018811  98.5088838004695 60.5140140865482  98.5088838004695 60.5140140865482  C 98.5088838004695 60.5140140865482  102.008782354135 57.0141155328831  102.008782354135 57.0141155328831  C 102.008782354135 57.0141155328831  111.508506999797 52.0142604562187  111.508506999797 52.0142604562187  C 111.508506999797 52.0142604562187  104.508709892467 51.0142894408858  104.508709892467 51.0142894408858  C 104.508709892467 51.0142894408858  103.508738877134 47.5143908872207  103.508738877134 47.5143908872207  C 103.508738877134 47.5143908872207  104.508709892467 44.0144923335556  104.508709892467 44.0144923335556  C 104.508709892467 44.0144923335556  102.008782354135 44.0144923335556  102.008782354135 44.0144923335556  C 102.008782354135 44.0144923335556  98.5088838004695 45.5144488565549  98.5088838004695 45.5144488565549  C 98.5088838004695 45.5144488565549  91.5090866931393 45.5144488565549  91.5090866931393 45.5144488565549  C 91.5090866931393 45.5144488565549  90.5091156778064 41.5145647952233  90.5091156778064 41.5145647952233  C 90.5091156778064 41.5145647952233  86.0092461088084 41.5145647952233  86.0092461088084 41.5145647952233  C 86.0092461088084 41.5145647952233  80.0094200168111 44.0144923335556  79.0094490014782 44.0144923335556  C 78.0094779861453 44.0144923335556  72.5096374018144 41.5145647952233  72.5096374018144 41.5145647952233  C 72.5096374018144 41.5145647952233  68.5097533404828 40.014608272224  68.5097533404828 40.014608272224  C 68.5097533404828 40.014608272224  61.0099707254862 41.5145647952233  61.0099707254862 41.5145647952233  C 61.0099707254862 41.5145647952233  50.0102895568244 41.5145647952233  50.0102895568244 41.5145647952233  C 50.0102895568244 41.5145647952233  47.5103620184922 38.5146517492247  47.5103620184922 38.5146517492247  C 47.5103620184922 38.5146517492247  41.0105504188284 37.0146952262253  41.0105504188284 37.0146952262253  C 41.0105504188284 37.0146952262253  45.0104344801599 31.5148546418944  45.0104344801599 31.5148546418944  C 45.0104344801599 31.5148546418944  41.0105504188284 28.5149415958958  41.0105504188284 28.5149415958958  C 41.0105504188284 28.5149415958958  45.0104344801599 24.5150575345642  45.0104344801599 24.5150575345642  C 45.0104344801599 24.5150575345642  40.0105794034955 23.5150865192313  40.0105794034955 23.5150865192313  C 40.0105794034955 23.5150865192313  33.0107822961653 24.5150575345642  33.0107822961653 24.5150575345642  C 33.0107822961653 24.5150575345642  29.0108982348337 23.5150865192313  29.0108982348337 23.5150865192313  C 29.0108982348337 23.5150865192313  27.5109417118344 20.5151734732327  27.5109417118344 20.5151734732327  C 27.5109417118344 20.5151734732327  17.5112315585055 20.5151734732327  17.5112315585055 20.5151734732327  C 17.5112315585055 20.5151734732327  8.01150691284306 17.0152749195676  8.01150691284306 17.0152749195676  Z " fill-rule="evenodd" />
    </mask>
  </defs>
  <g transform="matrix(1 0 0 1 -582 -206 )">
    <path d="M 8.01150691284306 17.0152749195676  C 8.01150691284306 17.0152749195676  0.511724297846392 10.5154633199038  0.511724297846392 10.5154633199038  C 0.511724297846392 10.5154633199038  12.5113764818411 2.51569519724066  12.5113764818411 2.51569519724066  C 12.5113764818411 2.51569519724066  34.0107533114982 0.515753166574882  34.0107533114982 0.515753166574882  C 34.0107533114982 0.515753166574882  61.0099707254862 0.515753166574882  61.0099707254862 0.515753166574882  C 61.0099707254862 0.515753166574882  72.5096374018144 2.51569519724066  72.5096374018144 2.51569519724066  C 72.5096374018144 2.51569519724066  75.0095649401466 5.51560824323933  75.0095649401466 5.51560824323933  C 75.0095649401466 5.51560824323933  78.0094779861453 8.515521289238  78.0094779861453 8.515521289238  C 78.0094779861453 8.515521289238  75.0095649401466 10.5154633199038  75.0095649401466 10.5154633199038  C 75.0095649401466 10.5154633199038  78.0094779861453 14.0153618735689  78.0094779861453 14.0153618735689  C 78.0094779861453 14.0153618735689  75.0095649401466 16.0153039042347  75.0095649401466 16.0153039042347  C 75.0095649401466 16.0153039042347  80.5094055244775 21.5151444885656  80.5094055244775 21.5151444885656  C 80.5094055244775 21.5151444885656  93.0090432161386 16.0153039042347  93.0090432161386 16.0153039042347  C 93.0090432161386 16.0153039042347  102.008782354135 14.0153618735689  102.008782354135 14.0153618735689  C 102.008782354135 14.0153618735689  109.508564969131 21.5151444885656  109.508564969131 21.5151444885656  C 109.508564969131 21.5151444885656  116.508362076462 18.5152314425669  116.508362076462 18.5152314425669  C 116.508362076462 18.5152314425669  121.00823164546 21.5151444885656  121.00823164546 21.5151444885656  C 121.00823164546 21.5151444885656  128.508014260456 18.5152314425669  128.508014260456 18.5152314425669  C 128.508014260456 18.5152314425669  136.007796875453 16.0153039042347  136.007796875453 16.0153039042347  C 136.007796875453 16.0153039042347  142.00762296745 18.5152314425669  142.00762296745 18.5152314425669  C 142.00762296745 18.5152314425669  146.507492536448 18.5152314425669  146.507492536448 18.5152314425669  C 146.507492536448 18.5152314425669  149.507405582447 14.0153618735689  149.507405582447 14.0153618735689  C 149.507405582447 14.0153618735689  165.006956320107 11.0154488275702  165.006956320107 11.0154488275702  C 165.006956320107 11.0154488275702  184.006405611432 11.0154488275702  184.006405611432 11.0154488275702  C 184.006405611432 11.0154488275702  184.006405611432 16.0153039042347  184.006405611432 16.0153039042347  C 184.006405611432 16.0153039042347  189.506246195762 16.0153039042347  189.506246195762 16.0153039042347  C 189.506246195762 16.0153039042347  184.006405611432 21.5151444885656  184.006405611432 21.5151444885656  C 184.006405611432 21.5151444885656  198.005999826092 21.5151444885656  198.005999826092 21.5151444885656  C 198.005999826092 21.5151444885656  212.505579548419 23.5150865192313  212.505579548419 23.5150865192313  C 212.505579548419 23.5150865192313  231.505028839744 21.5151444885656  231.505028839744 21.5151444885656  C 231.505028839744 21.5151444885656  240.004782470073 23.5150865192313  240.004782470073 23.5150865192313  C 240.004782470073 23.5150865192313  234.004956378076 28.5149415958958  234.004956378076 28.5149415958958  C 234.004956378076 28.5149415958958  224.005246224747 28.5149415958958  224.005246224747 28.5149415958958  C 224.005246224747 28.5149415958958  220.005362163416 34.0147821802267  220.005362163416 34.0147821802267  C 220.005362163416 34.0147821802267  212.505579548419 37.0146952262253  212.505579548419 37.0146952262253  C 212.505579548419 37.0146952262253  206.005767948755 40.014608272224  206.005767948755 40.014608272224  C 206.005767948755 40.014608272224  184.006405611432 40.014608272224  184.006405611432 40.014608272224  C 184.006405611432 40.014608272224  179.006550534767 37.0146952262253  179.006550534767 37.0146952262253  C 179.006550534767 37.0146952262253  168.506854873772 40.014608272224  168.506854873772 40.014608272224  C 168.506854873772 40.014608272224  163.007014289441 37.0146952262253  163.007014289441 37.0146952262253  C 163.007014289441 37.0146952262253  152.507318628446 37.0146952262253  152.507318628446 37.0146952262253  C 152.507318628446 37.0146952262253  155.007246166778 40.014608272224  155.007246166778 40.014608272224  C 155.007246166778 40.014608272224  149.507405582447 45.5144488565549  149.507405582447 45.5144488565549  C 149.507405582447 45.5144488565549  157.50717370511 47.5143908872207  157.50717370511 47.5143908872207  C 157.50717370511 47.5143908872207  163.007014289441 49.5143329178864  163.007014289441 49.5143329178864  C 163.007014289441 49.5143329178864  163.007014289441 53.514216979218  163.007014289441 53.514216979218  C 163.007014289441 53.514216979218  159.507115735776 56.0141445175502  159.507115735776 56.0141445175502  C 159.507115735776 56.0141445175502  155.007246166778 60.5140140865482  155.007246166778 60.5140140865482  C 155.007246166778 60.5140140865482  136.007796875453 60.5140140865482  136.007796875453 60.5140140865482  C 136.007796875453 60.5140140865482  125.508101214458 61.5139851018811  125.508101214458 61.5139851018811  C 125.508101214458 61.5139851018811  111.508506999797 61.5139851018811  111.508506999797 61.5139851018811  C 111.508506999797 61.5139851018811  98.5088838004695 60.5140140865482  98.5088838004695 60.5140140865482  C 98.5088838004695 60.5140140865482  102.008782354135 57.0141155328831  102.008782354135 57.0141155328831  C 102.008782354135 57.0141155328831  111.508506999797 52.0142604562187  111.508506999797 52.0142604562187  C 111.508506999797 52.0142604562187  104.508709892467 51.0142894408858  104.508709892467 51.0142894408858  C 104.508709892467 51.0142894408858  103.508738877134 47.5143908872207  103.508738877134 47.5143908872207  C 103.508738877134 47.5143908872207  104.508709892467 44.0144923335556  104.508709892467 44.0144923335556  C 104.508709892467 44.0144923335556  102.008782354135 44.0144923335556  102.008782354135 44.0144923335556  C 102.008782354135 44.0144923335556  98.5088838004695 45.5144488565549  98.5088838004695 45.5144488565549  C 98.5088838004695 45.5144488565549  91.5090866931393 45.5144488565549  91.5090866931393 45.5144488565549  C 91.5090866931393 45.5144488565549  90.5091156778064 41.5145647952233  90.5091156778064 41.5145647952233  C 90.5091156778064 41.5145647952233  86.0092461088084 41.5145647952233  86.0092461088084 41.5145647952233  C 86.0092461088084 41.5145647952233  80.0094200168111 44.0144923335556  79.0094490014782 44.0144923335556  C 78.0094779861453 44.0144923335556  72.5096374018144 41.5145647952233  72.5096374018144 41.5145647952233  C 72.5096374018144 41.5145647952233  68.5097533404828 40.014608272224  68.5097533404828 40.014608272224  C 68.5097533404828 40.014608272224  61.0099707254862 41.5145647952233  61.0099707254862 41.5145647952233  C 61.0099707254862 41.5145647952233  50.0102895568244 41.5145647952233  50.0102895568244 41.5145647952233  C 50.0102895568244 41.5145647952233  47.5103620184922 38.5146517492247  47.5103620184922 38.5146517492247  C 47.5103620184922 38.5146517492247  41.0105504188284 37.0146952262253  41.0105504188284 37.0146952262253  C 41.0105504188284 37.0146952262253  45.0104344801599 31.5148546418944  45.0104344801599 31.5148546418944  C 45.0104344801599 31.5148546418944  41.0105504188284 28.5149415958958  41.0105504188284 28.5149415958958  C 41.0105504188284 28.5149415958958  45.0104344801599 24.5150575345642  45.0104344801599 24.5150575345642  C 45.0104344801599 24.5150575345642  40.0105794034955 23.5150865192313  40.0105794034955 23.5150865192313  C 40.0105794034955 23.5150865192313  33.0107822961653 24.5150575345642  33.0107822961653 24.5150575345642  C 33.0107822961653 24.5150575345642  29.0108982348337 23.5150865192313  29.0108982348337 23.5150865192313  C 29.0108982348337 23.5150865192313  27.5109417118344 20.5151734732327  27.5109417118344 20.5151734732327  C 27.5109417118344 20.5151734732327  17.5112315585055 20.5151734732327  17.5112315585055 20.5151734732327  C 17.5112315585055 20.5151734732327  8.01150691284306 17.0152749195676  8.01150691284306 17.0152749195676  Z " fill-rule="nonzero" fill="#033571" stroke="none" transform="matrix(1 0 0 1 582 206 )" />
    <path d="M 8.01150691284306 17.0152749195676  C 8.01150691284306 17.0152749195676  0.511724297846392 10.5154633199038  0.511724297846392 10.5154633199038  C 0.511724297846392 10.5154633199038  12.5113764818411 2.51569519724066  12.5113764818411 2.51569519724066  C 12.5113764818411 2.51569519724066  34.0107533114982 0.515753166574882  34.0107533114982 0.515753166574882  C 34.0107533114982 0.515753166574882  61.0099707254862 0.515753166574882  61.0099707254862 0.515753166574882  C 61.0099707254862 0.515753166574882  72.5096374018144 2.51569519724066  72.5096374018144 2.51569519724066  C 72.5096374018144 2.51569519724066  75.0095649401466 5.51560824323933  75.0095649401466 5.51560824323933  C 75.0095649401466 5.51560824323933  78.0094779861453 8.515521289238  78.0094779861453 8.515521289238  C 78.0094779861453 8.515521289238  75.0095649401466 10.5154633199038  75.0095649401466 10.5154633199038  C 75.0095649401466 10.5154633199038  78.0094779861453 14.0153618735689  78.0094779861453 14.0153618735689  C 78.0094779861453 14.0153618735689  75.0095649401466 16.0153039042347  75.0095649401466 16.0153039042347  C 75.0095649401466 16.0153039042347  80.5094055244775 21.5151444885656  80.5094055244775 21.5151444885656  C 80.5094055244775 21.5151444885656  93.0090432161386 16.0153039042347  93.0090432161386 16.0153039042347  C 93.0090432161386 16.0153039042347  102.008782354135 14.0153618735689  102.008782354135 14.0153618735689  C 102.008782354135 14.0153618735689  109.508564969131 21.5151444885656  109.508564969131 21.5151444885656  C 109.508564969131 21.5151444885656  116.508362076462 18.5152314425669  116.508362076462 18.5152314425669  C 116.508362076462 18.5152314425669  121.00823164546 21.5151444885656  121.00823164546 21.5151444885656  C 121.00823164546 21.5151444885656  128.508014260456 18.5152314425669  128.508014260456 18.5152314425669  C 128.508014260456 18.5152314425669  136.007796875453 16.0153039042347  136.007796875453 16.0153039042347  C 136.007796875453 16.0153039042347  142.00762296745 18.5152314425669  142.00762296745 18.5152314425669  C 142.00762296745 18.5152314425669  146.507492536448 18.5152314425669  146.507492536448 18.5152314425669  C 146.507492536448 18.5152314425669  149.507405582447 14.0153618735689  149.507405582447 14.0153618735689  C 149.507405582447 14.0153618735689  165.006956320107 11.0154488275702  165.006956320107 11.0154488275702  C 165.006956320107 11.0154488275702  184.006405611432 11.0154488275702  184.006405611432 11.0154488275702  C 184.006405611432 11.0154488275702  184.006405611432 16.0153039042347  184.006405611432 16.0153039042347  C 184.006405611432 16.0153039042347  189.506246195762 16.0153039042347  189.506246195762 16.0153039042347  C 189.506246195762 16.0153039042347  184.006405611432 21.5151444885656  184.006405611432 21.5151444885656  C 184.006405611432 21.5151444885656  198.005999826092 21.5151444885656  198.005999826092 21.5151444885656  C 198.005999826092 21.5151444885656  212.505579548419 23.5150865192313  212.505579548419 23.5150865192313  C 212.505579548419 23.5150865192313  231.505028839744 21.5151444885656  231.505028839744 21.5151444885656  C 231.505028839744 21.5151444885656  240.004782470073 23.5150865192313  240.004782470073 23.5150865192313  C 240.004782470073 23.5150865192313  234.004956378076 28.5149415958958  234.004956378076 28.5149415958958  C 234.004956378076 28.5149415958958  224.005246224747 28.5149415958958  224.005246224747 28.5149415958958  C 224.005246224747 28.5149415958958  220.005362163416 34.0147821802267  220.005362163416 34.0147821802267  C 220.005362163416 34.0147821802267  212.505579548419 37.0146952262253  212.505579548419 37.0146952262253  C 212.505579548419 37.0146952262253  206.005767948755 40.014608272224  206.005767948755 40.014608272224  C 206.005767948755 40.014608272224  184.006405611432 40.014608272224  184.006405611432 40.014608272224  C 184.006405611432 40.014608272224  179.006550534767 37.0146952262253  179.006550534767 37.0146952262253  C 179.006550534767 37.0146952262253  168.506854873772 40.014608272224  168.506854873772 40.014608272224  C 168.506854873772 40.014608272224  163.007014289441 37.0146952262253  163.007014289441 37.0146952262253  C 163.007014289441 37.0146952262253  152.507318628446 37.0146952262253  152.507318628446 37.0146952262253  C 152.507318628446 37.0146952262253  155.007246166778 40.014608272224  155.007246166778 40.014608272224  C 155.007246166778 40.014608272224  149.507405582447 45.5144488565549  149.507405582447 45.5144488565549  C 149.507405582447 45.5144488565549  157.50717370511 47.5143908872207  157.50717370511 47.5143908872207  C 157.50717370511 47.5143908872207  163.007014289441 49.5143329178864  163.007014289441 49.5143329178864  C 163.007014289441 49.5143329178864  163.007014289441 53.514216979218  163.007014289441 53.514216979218  C 163.007014289441 53.514216979218  159.507115735776 56.0141445175502  159.507115735776 56.0141445175502  C 159.507115735776 56.0141445175502  155.007246166778 60.5140140865482  155.007246166778 60.5140140865482  C 155.007246166778 60.5140140865482  136.007796875453 60.5140140865482  136.007796875453 60.5140140865482  C 136.007796875453 60.5140140865482  125.508101214458 61.5139851018811  125.508101214458 61.5139851018811  C 125.508101214458 61.5139851018811  111.508506999797 61.5139851018811  111.508506999797 61.5139851018811  C 111.508506999797 61.5139851018811  98.5088838004695 60.5140140865482  98.5088838004695 60.5140140865482  C 98.5088838004695 60.5140140865482  102.008782354135 57.0141155328831  102.008782354135 57.0141155328831  C 102.008782354135 57.0141155328831  111.508506999797 52.0142604562187  111.508506999797 52.0142604562187  C 111.508506999797 52.0142604562187  104.508709892467 51.0142894408858  104.508709892467 51.0142894408858  C 104.508709892467 51.0142894408858  103.508738877134 47.5143908872207  103.508738877134 47.5143908872207  C 103.508738877134 47.5143908872207  104.508709892467 44.0144923335556  104.508709892467 44.0144923335556  C 104.508709892467 44.0144923335556  102.008782354135 44.0144923335556  102.008782354135 44.0144923335556  C 102.008782354135 44.0144923335556  98.5088838004695 45.5144488565549  98.5088838004695 45.5144488565549  C 98.5088838004695 45.5144488565549  91.5090866931393 45.5144488565549  91.5090866931393 45.5144488565549  C 91.5090866931393 45.5144488565549  90.5091156778064 41.5145647952233  90.5091156778064 41.5145647952233  C 90.5091156778064 41.5145647952233  86.0092461088084 41.5145647952233  86.0092461088084 41.5145647952233  C 86.0092461088084 41.5145647952233  80.0094200168111 44.0144923335556  79.0094490014782 44.0144923335556  C 78.0094779861453 44.0144923335556  72.5096374018144 41.5145647952233  72.5096374018144 41.5145647952233  C 72.5096374018144 41.5145647952233  68.5097533404828 40.014608272224  68.5097533404828 40.014608272224  C 68.5097533404828 40.014608272224  61.0099707254862 41.5145647952233  61.0099707254862 41.5145647952233  C 61.0099707254862 41.5145647952233  50.0102895568244 41.5145647952233  50.0102895568244 41.5145647952233  C 50.0102895568244 41.5145647952233  47.5103620184922 38.5146517492247  47.5103620184922 38.5146517492247  C 47.5103620184922 38.5146517492247  41.0105504188284 37.0146952262253  41.0105504188284 37.0146952262253  C 41.0105504188284 37.0146952262253  45.0104344801599 31.5148546418944  45.0104344801599 31.5148546418944  C 45.0104344801599 31.5148546418944  41.0105504188284 28.5149415958958  41.0105504188284 28.5149415958958  C 41.0105504188284 28.5149415958958  45.0104344801599 24.5150575345642  45.0104344801599 24.5150575345642  C 45.0104344801599 24.5150575345642  40.0105794034955 23.5150865192313  40.0105794034955 23.5150865192313  C 40.0105794034955 23.5150865192313  33.0107822961653 24.5150575345642  33.0107822961653 24.5150575345642  C 33.0107822961653 24.5150575345642  29.0108982348337 23.5150865192313  29.0108982348337 23.5150865192313  C 29.0108982348337 23.5150865192313  27.5109417118344 20.5151734732327  27.5109417118344 20.5151734732327  C 27.5109417118344 20.5151734732327  17.5112315585055 20.5151734732327  17.5112315585055 20.5151734732327  C 17.5112315585055 20.5151734732327  8.01150691284306 17.0152749195676  8.01150691284306 17.0152749195676  Z " stroke-width="1.99994203066578" stroke="#b5eaff" fill="none" stroke-opacity="0.501960784313725" transform="matrix(1 0 0 1 582 206 )" mask="url(#clip1055)" />
  </g>
</svg>