<?xml version="1.0" encoding="utf-8"?>
<svg version="1.1" xmlns:xlink="http://www.w3.org/1999/xlink" width="228px" height="102px" xmlns="http://www.w3.org/2000/svg">
  <defs>
    <mask fill="white" id="clip1059">
      <path d="M 8.00811570679107 69.5126807918611  C 8.00811570679107 69.5126807918611  16.5078693371206 61.512912669198  16.5078693371206 61.512912669198  C 16.5078693371206 61.512912669198  23.5076664444509 60.5129416538651  23.5076664444509 60.5129416538651  C 23.5076664444509 60.5129416538651  41.5071447204429 60.5129416538651  41.5071447204429 60.5129416538651  C 41.5071447204429 60.5129416538651  75.0061737340947 54.0131300542013  75.0061737340947 54.0131300542013  C 75.0061737340947 54.0131300542013  98.0055070867511 49.5132604852033  98.0055070867511 49.5132604852033  C 98.0055070867511 49.5132604852033  96.0055650560853 45.0133909162053  96.0055650560853 45.0133909162053  C 96.0055650560853 45.0133909162053  102.005391148083 43.0134488855396  102.005391148083 43.0134488855396  C 102.005391148083 43.0134488855396  106.005275209414 37.0136227935422  106.005275209414 37.0136227935422  C 106.005275209414 37.0136227935422  112.005101301412 33.5137242398771  112.005101301412 33.5137242398771  C 112.005101301412 33.5137242398771  108.505202747746 29.5138401785456  108.505202747746 29.5138401785456  C 108.505202747746 29.5138401785456  116.50497087041 26.0139416248804  116.50497087041 26.0139416248804  C 116.50497087041 26.0139416248804  119.504883916408 23.5140140865482  119.504883916408 23.5140140865482  C 119.504883916408 23.5140140865482  120.504854931741 19.0141445175502  120.504854931741 19.0141445175502  C 120.504854931741 19.0141445175502  124.504738993073 15.5142459638851  124.504738993073 15.5142459638851  C 124.504738993073 15.5142459638851  131.504536100403 13.0143184255529  131.504536100403 13.0143184255529  C 131.504536100403 13.0143184255529  143.504188284398 11.5143619025536  143.504188284398 11.5143619025536  C 143.504188284398 11.5143619025536  149.504014376395 11.5143619025536  149.504014376395 11.5143619025536  C 149.504014376395 11.5143619025536  171.003391206052 4.01457928755688  171.003391206052 4.01457928755688  C 171.003391206052 4.01457928755688  172.503347729051 0.0146952262253279  172.503347729051 0.0146952262253279  C 172.503347729051 0.0146952262253279  179.003159328715 5.01455030288977  179.003159328715 5.01455030288977  C 179.003159328715 5.01455030288977  185.002985420712 6.01452131822266  185.002985420712 6.01452131822266  C 185.002985420712 6.01452131822266  197.502623112374 6.01452131822266  197.502623112374 6.01452131822266  C 197.502623112374 6.01452131822266  202.502478189038 8.01446334888844  202.502478189038 8.01446334888844  C 202.502478189038 8.01446334888844  210.502246311701 6.01452131822266  210.502246311701 6.01452131822266  C 210.502246311701 6.01452131822266  219.501985449697 6.01452131822266  219.501985449697 6.01452131822266  C 219.501985449697 6.01452131822266  221.501927480363 8.01446334888844  221.501927480363 8.01446334888844  C 221.501927480363 8.01446334888844  227.001768064694 12.01434741022  227.001768064694 12.01434741022  C 227.001768064694 12.01434741022  213.002173850033 18.0141735022173  213.002173850033 18.0141735022173  C 213.002173850033 18.0141735022173  202.502478189038 27.5138981478798  202.502478189038 27.5138981478798  C 202.502478189038 27.5138981478798  202.502478189038 34.0137097475435  202.502478189038 34.0137097475435  C 202.502478189038 34.0137097475435  219.501985449697 43.0134488855396  219.501985449697 43.0134488855396  C 219.501985449697 43.0134488855396  214.502130373033 46.0133619315382  214.502130373033 46.0133619315382  C 214.502130373033 46.0133619315382  209.002289788702 45.0133909162053  209.002289788702 45.0133909162053  C 209.002289788702 45.0133909162053  197.502623112374 44.0134199008724  197.502623112374 44.0134199008724  C 197.502623112374 44.0134199008724  195.002695574041 46.0133619315382  195.002695574041 46.0133619315382  C 195.002695574041 46.0133619315382  179.003159328715 46.0133619315382  179.003159328715 46.0133619315382  C 179.003159328715 46.0133619315382  166.003536129388 48.013303962204  166.003536129388 48.013303962204  C 166.003536129388 48.013303962204  167.00350714472 53.0131590388685  167.00350714472 53.0131590388685  C 167.00350714472 53.0131590388685  153.00391293006 54.0131300542013  153.00391293006 54.0131300542013  C 153.00391293006 54.0131300542013  149.504014376395 58.0130141155329  149.504014376395 58.0130141155329  C 149.504014376395 58.0130141155329  159.503724529724 60.5129416538651  159.503724529724 60.5129416538651  C 159.503724529724 60.5129416538651  159.503724529724 63.0128691921973  159.503724529724 63.0128691921973  C 159.503724529724 63.0128691921973  166.003536129388 63.0128691921973  166.003536129388 63.0128691921973  C 166.003536129388 63.0128691921973  169.003449175386 66.012782238196  169.003449175386 66.012782238196  C 169.003449175386 66.012782238196  172.503347729051 66.012782238196  172.503347729051 66.012782238196  C 172.503347729051 66.012782238196  174.503289759717 70.512651807194  174.503289759717 70.512651807194  C 174.503289759717 70.512651807194  177.003217298049 72.5125938378598  177.003217298049 72.5125938378598  C 177.003217298049 72.5125938378598  169.003449175386 77.0124634068578  169.003449175386 77.0124634068578  C 169.003449175386 77.0124634068578  167.00350714472 90.0120866061853  166.003536129388 90.0120866061853  C 165.003565114055 90.0120866061853  144.50415929973 92.5120141445176  144.50415929973 92.5120141445176  C 144.50415929973 92.5120141445176  130.004579577404 91.0120576215182  130.004579577404 91.0120576215182  C 130.004579577404 91.0120576215182  125.504710008406 86.0122025448538  125.504710008406 86.0122025448538  C 125.504710008406 86.0122025448538  124.504738993073 82.5123039911887  124.504738993073 82.5123039911887  C 124.504738993073 82.5123039911887  120.504854931741 82.5123039911887  120.504854931741 82.5123039911887  C 120.504854931741 82.5123039911887  122.504796962407 79.51239094519  122.504796962407 79.51239094519  C 122.504796962407 79.51239094519  108.505202747746 81.0123474681893  108.505202747746 81.0123474681893  C 108.505202747746 81.0123474681893  103.005362163416 81.0123474681893  103.005362163416 81.0123474681893  C 103.005362163416 81.0123474681893  102.005391148083 79.51239094519  102.005391148083 79.51239094519  C 102.005391148083 79.51239094519  97.0055360714182 79.51239094519  97.0055360714182 79.51239094519  C 97.0055360714182 79.51239094519  94.0056230254195 82.5123039911887  94.0056230254195 82.5123039911887  C 94.0056230254195 82.5123039911887  89.0057679487551 83.5122750065215  89.0057679487551 83.5122750065215  C 89.0057679487551 83.5122750065215  86.5058404104229 87.5121590678531  86.5058404104229 87.5121590678531  C 86.5058404104229 87.5121590678531  75.0061737340947 90.0120866061853  75.0061737340947 90.0120866061853  C 75.0061737340947 90.0120866061853  75.0061737340947 92.5120141445176  75.0061737340947 92.5120141445176  C 75.0061737340947 92.5120141445176  72.5062461957624 94.5119561751833  72.5062461957624 94.5119561751833  C 72.5062461957624 94.5119561751833  72.5062461957624 98.5118402365149  72.5062461957624 98.5118402365149  C 72.5062461957624 98.5118402365149  65.0064635807658 101.011767774847  65.0064635807658 101.011767774847  C 65.0064635807658 101.011767774847  54.006782412104 98.5118402365149  54.006782412104 98.5118402365149  C 54.006782412104 98.5118402365149  42.5071157357758 101.011767774847  42.5071157357758 101.011767774847  C 42.5071157357758 101.011767774847  40.50717370511 98.5118402365149  40.50717370511 98.5118402365149  C 40.50717370511 98.5118402365149  26.0075939827831 101.011767774847  26.0075939827831 101.011767774847  C 26.0075939827831 101.011767774847  23.5076664444509 98.5118402365149  23.5076664444509 98.5118402365149  C 23.5076664444509 98.5118402365149  19.5077823831193 101.011767774847  19.5077823831193 101.011767774847  C 19.5077823831193 101.011767774847  11.0080287527898 101.011767774847  11.0080287527898 101.011767774847  C 11.0080287527898 101.011767774847  11.0080287527898 97.0118837135156  11.0080287527898 97.0118837135156  C 11.0080287527898 97.0118837135156  6.50815918379175 97.0118837135156  6.50815918379175 97.0118837135156  C 6.50815918379175 97.0118837135156  4.50821715312597 94.5119561751833  4.50821715312597 94.5119561751833  C 4.50821715312597 94.5119561751833  6.50815918379175 90.0120866061853  6.50815918379175 90.0120866061853  C 6.50815918379175 90.0120866061853  0.508333091794412 88.512130083186  0.508333091794412 88.512130083186  C 0.508333091794412 88.512130083186  3.00826063012664 82.5123039911887  3.00826063012664 82.5123039911887  C 3.00826063012664 82.5123039911887  11.0080287527898 81.0123474681893  11.0080287527898 81.0123474681893  C 11.0080287527898 81.0123474681893  16.5078693371206 78.5124199298571  16.5078693371206 78.5124199298571  C 16.5078693371206 78.5124199298571  9.50807222979043 78.5124199298571  9.50807222979043 78.5124199298571  C 9.50807222979043 78.5124199298571  11.0080287527898 71.5126228225269  11.0080287527898 71.5126228225269  C 11.0080287527898 71.5126228225269  8.00811570679107 69.5126807918611  8.00811570679107 69.5126807918611  Z " fill-rule="evenodd" />
    </mask>
  </defs>
  <g transform="matrix(1 0 0 1 -699 -243 )">
    <path d="M 8.00811570679107 69.5126807918611  C 8.00811570679107 69.5126807918611  16.5078693371206 61.512912669198  16.5078693371206 61.512912669198  C 16.5078693371206 61.512912669198  23.5076664444509 60.5129416538651  23.5076664444509 60.5129416538651  C 23.5076664444509 60.5129416538651  41.5071447204429 60.5129416538651  41.5071447204429 60.5129416538651  C 41.5071447204429 60.5129416538651  75.0061737340947 54.0131300542013  75.0061737340947 54.0131300542013  C 75.0061737340947 54.0131300542013  98.0055070867511 49.5132604852033  98.0055070867511 49.5132604852033  C 98.0055070867511 49.5132604852033  96.0055650560853 45.0133909162053  96.0055650560853 45.0133909162053  C 96.0055650560853 45.0133909162053  102.005391148083 43.0134488855396  102.005391148083 43.0134488855396  C 102.005391148083 43.0134488855396  106.005275209414 37.0136227935422  106.005275209414 37.0136227935422  C 106.005275209414 37.0136227935422  112.005101301412 33.5137242398771  112.005101301412 33.5137242398771  C 112.005101301412 33.5137242398771  108.505202747746 29.5138401785456  108.505202747746 29.5138401785456  C 108.505202747746 29.5138401785456  116.50497087041 26.0139416248804  116.50497087041 26.0139416248804  C 116.50497087041 26.0139416248804  119.504883916408 23.5140140865482  119.504883916408 23.5140140865482  C 119.504883916408 23.5140140865482  120.504854931741 19.0141445175502  120.504854931741 19.0141445175502  C 120.504854931741 19.0141445175502  124.504738993073 15.5142459638851  124.504738993073 15.5142459638851  C 124.504738993073 15.5142459638851  131.504536100403 13.0143184255529  131.504536100403 13.0143184255529  C 131.504536100403 13.0143184255529  143.504188284398 11.5143619025536  143.504188284398 11.5143619025536  C 143.504188284398 11.5143619025536  149.504014376395 11.5143619025536  149.504014376395 11.5143619025536  C 149.504014376395 11.5143619025536  171.003391206052 4.01457928755688  171.003391206052 4.01457928755688  C 171.003391206052 4.01457928755688  172.503347729051 0.0146952262253279  172.503347729051 0.0146952262253279  C 172.503347729051 0.0146952262253279  179.003159328715 5.01455030288977  179.003159328715 5.01455030288977  C 179.003159328715 5.01455030288977  185.002985420712 6.01452131822266  185.002985420712 6.01452131822266  C 185.002985420712 6.01452131822266  197.502623112374 6.01452131822266  197.502623112374 6.01452131822266  C 197.502623112374 6.01452131822266  202.502478189038 8.01446334888844  202.502478189038 8.01446334888844  C 202.502478189038 8.01446334888844  210.502246311701 6.01452131822266  210.502246311701 6.01452131822266  C 210.502246311701 6.01452131822266  219.501985449697 6.01452131822266  219.501985449697 6.01452131822266  C 219.501985449697 6.01452131822266  221.501927480363 8.01446334888844  221.501927480363 8.01446334888844  C 221.501927480363 8.01446334888844  227.001768064694 12.01434741022  227.001768064694 12.01434741022  C 227.001768064694 12.01434741022  213.002173850033 18.0141735022173  213.002173850033 18.0141735022173  C 213.002173850033 18.0141735022173  202.502478189038 27.5138981478798  202.502478189038 27.5138981478798  C 202.502478189038 27.5138981478798  202.502478189038 34.0137097475435  202.502478189038 34.0137097475435  C 202.502478189038 34.0137097475435  219.501985449697 43.0134488855396  219.501985449697 43.0134488855396  C 219.501985449697 43.0134488855396  214.502130373033 46.0133619315382  214.502130373033 46.0133619315382  C 214.502130373033 46.0133619315382  209.002289788702 45.0133909162053  209.002289788702 45.0133909162053  C 209.002289788702 45.0133909162053  197.502623112374 44.0134199008724  197.502623112374 44.0134199008724  C 197.502623112374 44.0134199008724  195.002695574041 46.0133619315382  195.002695574041 46.0133619315382  C 195.002695574041 46.0133619315382  179.003159328715 46.0133619315382  179.003159328715 46.0133619315382  C 179.003159328715 46.0133619315382  166.003536129388 48.013303962204  166.003536129388 48.013303962204  C 166.003536129388 48.013303962204  167.00350714472 53.0131590388685  167.00350714472 53.0131590388685  C 167.00350714472 53.0131590388685  153.00391293006 54.0131300542013  153.00391293006 54.0131300542013  C 153.00391293006 54.0131300542013  149.504014376395 58.0130141155329  149.504014376395 58.0130141155329  C 149.504014376395 58.0130141155329  159.503724529724 60.5129416538651  159.503724529724 60.5129416538651  C 159.503724529724 60.5129416538651  159.503724529724 63.0128691921973  159.503724529724 63.0128691921973  C 159.503724529724 63.0128691921973  166.003536129388 63.0128691921973  166.003536129388 63.0128691921973  C 166.003536129388 63.0128691921973  169.003449175386 66.012782238196  169.003449175386 66.012782238196  C 169.003449175386 66.012782238196  172.503347729051 66.012782238196  172.503347729051 66.012782238196  C 172.503347729051 66.012782238196  174.503289759717 70.512651807194  174.503289759717 70.512651807194  C 174.503289759717 70.512651807194  177.003217298049 72.5125938378598  177.003217298049 72.5125938378598  C 177.003217298049 72.5125938378598  169.003449175386 77.0124634068578  169.003449175386 77.0124634068578  C 169.003449175386 77.0124634068578  167.00350714472 90.0120866061853  166.003536129388 90.0120866061853  C 165.003565114055 90.0120866061853  144.50415929973 92.5120141445176  144.50415929973 92.5120141445176  C 144.50415929973 92.5120141445176  130.004579577404 91.0120576215182  130.004579577404 91.0120576215182  C 130.004579577404 91.0120576215182  125.504710008406 86.0122025448538  125.504710008406 86.0122025448538  C 125.504710008406 86.0122025448538  124.504738993073 82.5123039911887  124.504738993073 82.5123039911887  C 124.504738993073 82.5123039911887  120.504854931741 82.5123039911887  120.504854931741 82.5123039911887  C 120.504854931741 82.5123039911887  122.504796962407 79.51239094519  122.504796962407 79.51239094519  C 122.504796962407 79.51239094519  108.505202747746 81.0123474681893  108.505202747746 81.0123474681893  C 108.505202747746 81.0123474681893  103.005362163416 81.0123474681893  103.005362163416 81.0123474681893  C 103.005362163416 81.0123474681893  102.005391148083 79.51239094519  102.005391148083 79.51239094519  C 102.005391148083 79.51239094519  97.0055360714182 79.51239094519  97.0055360714182 79.51239094519  C 97.0055360714182 79.51239094519  94.0056230254195 82.5123039911887  94.0056230254195 82.5123039911887  C 94.0056230254195 82.5123039911887  89.0057679487551 83.5122750065215  89.0057679487551 83.5122750065215  C 89.0057679487551 83.5122750065215  86.5058404104229 87.5121590678531  86.5058404104229 87.5121590678531  C 86.5058404104229 87.5121590678531  75.0061737340947 90.0120866061853  75.0061737340947 90.0120866061853  C 75.0061737340947 90.0120866061853  75.0061737340947 92.5120141445176  75.0061737340947 92.5120141445176  C 75.0061737340947 92.5120141445176  72.5062461957624 94.5119561751833  72.5062461957624 94.5119561751833  C 72.5062461957624 94.5119561751833  72.5062461957624 98.5118402365149  72.5062461957624 98.5118402365149  C 72.5062461957624 98.5118402365149  65.0064635807658 101.011767774847  65.0064635807658 101.011767774847  C 65.0064635807658 101.011767774847  54.006782412104 98.5118402365149  54.006782412104 98.5118402365149  C 54.006782412104 98.5118402365149  42.5071157357758 101.011767774847  42.5071157357758 101.011767774847  C 42.5071157357758 101.011767774847  40.50717370511 98.5118402365149  40.50717370511 98.5118402365149  C 40.50717370511 98.5118402365149  26.0075939827831 101.011767774847  26.0075939827831 101.011767774847  C 26.0075939827831 101.011767774847  23.5076664444509 98.5118402365149  23.5076664444509 98.5118402365149  C 23.5076664444509 98.5118402365149  19.5077823831193 101.011767774847  19.5077823831193 101.011767774847  C 19.5077823831193 101.011767774847  11.0080287527898 101.011767774847  11.0080287527898 101.011767774847  C 11.0080287527898 101.011767774847  11.0080287527898 97.0118837135156  11.0080287527898 97.0118837135156  C 11.0080287527898 97.0118837135156  6.50815918379175 97.0118837135156  6.50815918379175 97.0118837135156  C 6.50815918379175 97.0118837135156  4.50821715312597 94.5119561751833  4.50821715312597 94.5119561751833  C 4.50821715312597 94.5119561751833  6.50815918379175 90.0120866061853  6.50815918379175 90.0120866061853  C 6.50815918379175 90.0120866061853  0.508333091794412 88.512130083186  0.508333091794412 88.512130083186  C 0.508333091794412 88.512130083186  3.00826063012664 82.5123039911887  3.00826063012664 82.5123039911887  C 3.00826063012664 82.5123039911887  11.0080287527898 81.0123474681893  11.0080287527898 81.0123474681893  C 11.0080287527898 81.0123474681893  16.5078693371206 78.5124199298571  16.5078693371206 78.5124199298571  C 16.5078693371206 78.5124199298571  9.50807222979043 78.5124199298571  9.50807222979043 78.5124199298571  C 9.50807222979043 78.5124199298571  11.0080287527898 71.5126228225269  11.0080287527898 71.5126228225269  C 11.0080287527898 71.5126228225269  8.00811570679107 69.5126807918611  8.00811570679107 69.5126807918611  Z " fill-rule="nonzero" fill="#033571" stroke="none" transform="matrix(1 0 0 1 699 243 )" />
    <path d="M 8.00811570679107 69.5126807918611  C 8.00811570679107 69.5126807918611  16.5078693371206 61.512912669198  16.5078693371206 61.512912669198  C 16.5078693371206 61.512912669198  23.5076664444509 60.5129416538651  23.5076664444509 60.5129416538651  C 23.5076664444509 60.5129416538651  41.5071447204429 60.5129416538651  41.5071447204429 60.5129416538651  C 41.5071447204429 60.5129416538651  75.0061737340947 54.0131300542013  75.0061737340947 54.0131300542013  C 75.0061737340947 54.0131300542013  98.0055070867511 49.5132604852033  98.0055070867511 49.5132604852033  C 98.0055070867511 49.5132604852033  96.0055650560853 45.0133909162053  96.0055650560853 45.0133909162053  C 96.0055650560853 45.0133909162053  102.005391148083 43.0134488855396  102.005391148083 43.0134488855396  C 102.005391148083 43.0134488855396  106.005275209414 37.0136227935422  106.005275209414 37.0136227935422  C 106.005275209414 37.0136227935422  112.005101301412 33.5137242398771  112.005101301412 33.5137242398771  C 112.005101301412 33.5137242398771  108.505202747746 29.5138401785456  108.505202747746 29.5138401785456  C 108.505202747746 29.5138401785456  116.50497087041 26.0139416248804  116.50497087041 26.0139416248804  C 116.50497087041 26.0139416248804  119.504883916408 23.5140140865482  119.504883916408 23.5140140865482  C 119.504883916408 23.5140140865482  120.504854931741 19.0141445175502  120.504854931741 19.0141445175502  C 120.504854931741 19.0141445175502  124.504738993073 15.5142459638851  124.504738993073 15.5142459638851  C 124.504738993073 15.5142459638851  131.504536100403 13.0143184255529  131.504536100403 13.0143184255529  C 131.504536100403 13.0143184255529  143.504188284398 11.5143619025536  143.504188284398 11.5143619025536  C 143.504188284398 11.5143619025536  149.504014376395 11.5143619025536  149.504014376395 11.5143619025536  C 149.504014376395 11.5143619025536  171.003391206052 4.01457928755688  171.003391206052 4.01457928755688  C 171.003391206052 4.01457928755688  172.503347729051 0.0146952262253279  172.503347729051 0.0146952262253279  C 172.503347729051 0.0146952262253279  179.003159328715 5.01455030288977  179.003159328715 5.01455030288977  C 179.003159328715 5.01455030288977  185.002985420712 6.01452131822266  185.002985420712 6.01452131822266  C 185.002985420712 6.01452131822266  197.502623112374 6.01452131822266  197.502623112374 6.01452131822266  C 197.502623112374 6.01452131822266  202.502478189038 8.01446334888844  202.502478189038 8.01446334888844  C 202.502478189038 8.01446334888844  210.502246311701 6.01452131822266  210.502246311701 6.01452131822266  C 210.502246311701 6.01452131822266  219.501985449697 6.01452131822266  219.501985449697 6.01452131822266  C 219.501985449697 6.01452131822266  221.501927480363 8.01446334888844  221.501927480363 8.01446334888844  C 221.501927480363 8.01446334888844  227.001768064694 12.01434741022  227.001768064694 12.01434741022  C 227.001768064694 12.01434741022  213.002173850033 18.0141735022173  213.002173850033 18.0141735022173  C 213.002173850033 18.0141735022173  202.502478189038 27.5138981478798  202.502478189038 27.5138981478798  C 202.502478189038 27.5138981478798  202.502478189038 34.0137097475435  202.502478189038 34.0137097475435  C 202.502478189038 34.0137097475435  219.501985449697 43.0134488855396  219.501985449697 43.0134488855396  C 219.501985449697 43.0134488855396  214.502130373033 46.0133619315382  214.502130373033 46.0133619315382  C 214.502130373033 46.0133619315382  209.002289788702 45.0133909162053  209.002289788702 45.0133909162053  C 209.002289788702 45.0133909162053  197.502623112374 44.0134199008724  197.502623112374 44.0134199008724  C 197.502623112374 44.0134199008724  195.002695574041 46.0133619315382  195.002695574041 46.0133619315382  C 195.002695574041 46.0133619315382  179.003159328715 46.0133619315382  179.003159328715 46.0133619315382  C 179.003159328715 46.0133619315382  166.003536129388 48.013303962204  166.003536129388 48.013303962204  C 166.003536129388 48.013303962204  167.00350714472 53.0131590388685  167.00350714472 53.0131590388685  C 167.00350714472 53.0131590388685  153.00391293006 54.0131300542013  153.00391293006 54.0131300542013  C 153.00391293006 54.0131300542013  149.504014376395 58.0130141155329  149.504014376395 58.0130141155329  C 149.504014376395 58.0130141155329  159.503724529724 60.5129416538651  159.503724529724 60.5129416538651  C 159.503724529724 60.5129416538651  159.503724529724 63.0128691921973  159.503724529724 63.0128691921973  C 159.503724529724 63.0128691921973  166.003536129388 63.0128691921973  166.003536129388 63.0128691921973  C 166.003536129388 63.0128691921973  169.003449175386 66.012782238196  169.003449175386 66.012782238196  C 169.003449175386 66.012782238196  172.503347729051 66.012782238196  172.503347729051 66.012782238196  C 172.503347729051 66.012782238196  174.503289759717 70.512651807194  174.503289759717 70.512651807194  C 174.503289759717 70.512651807194  177.003217298049 72.5125938378598  177.003217298049 72.5125938378598  C 177.003217298049 72.5125938378598  169.003449175386 77.0124634068578  169.003449175386 77.0124634068578  C 169.003449175386 77.0124634068578  167.00350714472 90.0120866061853  166.003536129388 90.0120866061853  C 165.003565114055 90.0120866061853  144.50415929973 92.5120141445176  144.50415929973 92.5120141445176  C 144.50415929973 92.5120141445176  130.004579577404 91.0120576215182  130.004579577404 91.0120576215182  C 130.004579577404 91.0120576215182  125.504710008406 86.0122025448538  125.504710008406 86.0122025448538  C 125.504710008406 86.0122025448538  124.504738993073 82.5123039911887  124.504738993073 82.5123039911887  C 124.504738993073 82.5123039911887  120.504854931741 82.5123039911887  120.504854931741 82.5123039911887  C 120.504854931741 82.5123039911887  122.504796962407 79.51239094519  122.504796962407 79.51239094519  C 122.504796962407 79.51239094519  108.505202747746 81.0123474681893  108.505202747746 81.0123474681893  C 108.505202747746 81.0123474681893  103.005362163416 81.0123474681893  103.005362163416 81.0123474681893  C 103.005362163416 81.0123474681893  102.005391148083 79.51239094519  102.005391148083 79.51239094519  C 102.005391148083 79.51239094519  97.0055360714182 79.51239094519  97.0055360714182 79.51239094519  C 97.0055360714182 79.51239094519  94.0056230254195 82.5123039911887  94.0056230254195 82.5123039911887  C 94.0056230254195 82.5123039911887  89.0057679487551 83.5122750065215  89.0057679487551 83.5122750065215  C 89.0057679487551 83.5122750065215  86.5058404104229 87.5121590678531  86.5058404104229 87.5121590678531  C 86.5058404104229 87.5121590678531  75.0061737340947 90.0120866061853  75.0061737340947 90.0120866061853  C 75.0061737340947 90.0120866061853  75.0061737340947 92.5120141445176  75.0061737340947 92.5120141445176  C 75.0061737340947 92.5120141445176  72.5062461957624 94.5119561751833  72.5062461957624 94.5119561751833  C 72.5062461957624 94.5119561751833  72.5062461957624 98.5118402365149  72.5062461957624 98.5118402365149  C 72.5062461957624 98.5118402365149  65.0064635807658 101.011767774847  65.0064635807658 101.011767774847  C 65.0064635807658 101.011767774847  54.006782412104 98.5118402365149  54.006782412104 98.5118402365149  C 54.006782412104 98.5118402365149  42.5071157357758 101.011767774847  42.5071157357758 101.011767774847  C 42.5071157357758 101.011767774847  40.50717370511 98.5118402365149  40.50717370511 98.5118402365149  C 40.50717370511 98.5118402365149  26.0075939827831 101.011767774847  26.0075939827831 101.011767774847  C 26.0075939827831 101.011767774847  23.5076664444509 98.5118402365149  23.5076664444509 98.5118402365149  C 23.5076664444509 98.5118402365149  19.5077823831193 101.011767774847  19.5077823831193 101.011767774847  C 19.5077823831193 101.011767774847  11.0080287527898 101.011767774847  11.0080287527898 101.011767774847  C 11.0080287527898 101.011767774847  11.0080287527898 97.0118837135156  11.0080287527898 97.0118837135156  C 11.0080287527898 97.0118837135156  6.50815918379175 97.0118837135156  6.50815918379175 97.0118837135156  C 6.50815918379175 97.0118837135156  4.50821715312597 94.5119561751833  4.50821715312597 94.5119561751833  C 4.50821715312597 94.5119561751833  6.50815918379175 90.0120866061853  6.50815918379175 90.0120866061853  C 6.50815918379175 90.0120866061853  0.508333091794412 88.512130083186  0.508333091794412 88.512130083186  C 0.508333091794412 88.512130083186  3.00826063012664 82.5123039911887  3.00826063012664 82.5123039911887  C 3.00826063012664 82.5123039911887  11.0080287527898 81.0123474681893  11.0080287527898 81.0123474681893  C 11.0080287527898 81.0123474681893  16.5078693371206 78.5124199298571  16.5078693371206 78.5124199298571  C 16.5078693371206 78.5124199298571  9.50807222979043 78.5124199298571  9.50807222979043 78.5124199298571  C 9.50807222979043 78.5124199298571  11.0080287527898 71.5126228225269  11.0080287527898 71.5126228225269  C 11.0080287527898 71.5126228225269  8.00811570679107 69.5126807918611  8.00811570679107 69.5126807918611  Z " stroke-width="1.99994203066578" stroke="#b5eaff" fill="none" stroke-opacity="0.501960784313725" transform="matrix(1 0 0 1 699 243 )" mask="url(#clip1059)" />
  </g>
</svg>