<?xml version="1.0" encoding="utf-8"?>
<svg version="1.1" xmlns:xlink="http://www.w3.org/1999/xlink" width="221px" height="133px" xmlns="http://www.w3.org/2000/svg">
  <defs>
    <mask fill="white" id="clip1058">
      <path d="M 19.50195646503 26.0144633488884  C 19.50195646503 26.0144633488884  17.5020144343642 24.0145213182227  17.5020144343642 24.0145213182227  C 17.5020144343642 24.0145213182227  15.5020724036984 22.0145792875569  15.5020724036984 22.0145792875569  C 15.5020724036984 22.0145792875569  17.5020144343642 20.0146372568911  17.5020144343642 20.0146372568911  C 17.5020144343642 20.0146372568911  12.5021593576998 16.0147531955596  12.5021593576998 16.0147531955596  C 12.5021593576998 16.0147531955596  33.001565172024 11.5148836265615  33.001565172024 11.5148836265615  C 33.001565172024 11.5148836265615  45.5012028636851 6.01504304223066  45.5012028636851 6.01504304223066  C 45.5012028636851 6.01504304223066  48.0011304020173 1.51517347323266  48.0011304020173 1.51517347323266  C 48.0011304020173 1.51517347323266  55.500913017014 0.515202457899772  55.500913017014 0.515202457899772  C 55.500913017014 0.515202457899772  75.0003478160053 3.51511550389844  75.0003478160053 3.51511550389844  C 75.0003478160053 3.51511550389844  88.9999420306658 7.01501405756355  88.9999420306658 7.01501405756355  C 88.9999420306658 7.01501405756355  103.999507260659 9.01495608822933  103.999507260659 9.01495608822933  C 103.999507260659 9.01495608822933  112.999246398655 20.0146372568911  112.999246398655 20.0146372568911  C 112.999246398655 20.0146372568911  131.99869568998 36.0141735022173  131.99869568998 36.0141735022173  C 131.99869568998 36.0141735022173  140.49844932031 41.5140140865482  140.49844932031 41.5140140865482  C 140.49844932031 41.5140140865482  159.997884119301 54.5136372858758  159.997884119301 54.5136372858758  C 159.997884119301 54.5136372858758  167.497666734298 61.0134488855396  167.497666734298 61.0134488855396  C 167.497666734298 61.0134488855396  170.497579780296 67.0132749775369  170.497579780296 67.0132749775369  C 170.497579780296 67.0132749775369  175.997420364627 70.0131880235355  175.997420364627 70.0131880235355  C 175.997420364627 70.0131880235355  182.997217471957 70.0131880235355  182.997217471957 70.0131880235355  C 182.997217471957 70.0131880235355  187.997072548622 73.0131010695342  187.997072548622 73.0131010695342  C 187.997072548622 73.0131010695342  184.497173994957 74.5130575925336  184.497173994957 74.5130575925336  C 184.497173994957 74.5130575925336  190.497000086954 78.0129561461987  190.497000086954 78.0129561461987  C 190.497000086954 78.0129561461987  196.496826178951 89.0126373148604  196.496826178951 89.0126373148604  C 196.496826178951 89.0126373148604  202.996637778615 90.5125938378598  202.996637778615 90.5125938378598  C 202.996637778615 90.5125938378598  209.996434885945 100.012318483522  209.996434885945 100.012318483522  C 209.996434885945 100.012318483522  209.996434885945 103.512217037187  209.996434885945 103.512217037187  C 209.996434885945 103.512217037187  217.496217500942 105.512159067853  217.496217500942 105.512159067853  C 217.496217500942 105.512159067853  220.996116054607 115.011883713516  220.996116054607 115.011883713516  C 220.996116054607 115.011883713516  213.49633343961 117.011825744181  213.49633343961 117.011825744181  C 213.49633343961 117.011825744181  217.496217500942 125.011593866844  217.496217500942 125.011593866844  C 217.496217500942 125.011593866844  209.996434885945 128.51149242051  209.996434885945 128.51149242051  C 209.996434885945 128.51149242051  199.996724732616 132.011390974175  199.996724732616 132.011390974175  C 199.996724732616 132.011390974175  196.496826178951 130.011448943509  196.496826178951 130.011448943509  C 196.496826178951 130.011448943509  191.996956609953 130.011448943509  191.996956609953 130.011448943509  C 191.996956609953 130.011448943509  187.997072548622 132.011390974175  187.997072548622 132.011390974175  C 187.997072548622 132.011390974175  182.997217471957 130.011448943509  182.997217471957 130.011448943509  C 182.997217471957 130.011448943509  175.997420364627 132.011390974175  175.997420364627 132.011390974175  C 175.997420364627 132.011390974175  173.497492826295 128.51149242051  173.497492826295 128.51149242051  C 173.497492826295 128.51149242051  170.497579780296 128.51149242051  170.497579780296 128.51149242051  C 170.497579780296 128.51149242051  165.497724703632 125.011593866844  165.497724703632 125.011593866844  C 165.497724703632 125.011593866844  150.498159473638 128.51149242051  150.498159473638 128.51149242051  C 150.498159473638 128.51149242051  141.998405843309 127.01153589751  141.998405843309 127.01153589751  C 141.998405843309 127.01153589751  137.998521781977 125.011593866844  137.998521781977 125.011593866844  C 137.998521781977 125.011593866844  131.99869568998 120.01173879018  131.99869568998 120.01173879018  C 131.99869568998 120.01173879018  105.999449291325 122.511666328512  105.999449291325 122.511666328512  C 105.999449291325 122.511666328512  103.999507260659 125.011593866844  103.999507260659 125.011593866844  C 103.999507260659 125.011593866844  101.499579722327 128.51149242051  101.499579722327 128.51149242051  C 101.499579722327 128.51149242051  87.4999855076665 128.51149242051  87.4999855076665 128.51149242051  C 87.4999855076665 128.51149242051  87.4999855076665 122.511666328512  87.4999855076665 122.511666328512  C 87.4999855076665 122.511666328512  99.4996376916611 117.011825744181  99.4996376916611 117.011825744181  C 99.4996376916611 117.011825744181  103.999507260659 113.511927190516  103.999507260659 113.511927190516  C 103.999507260659 113.511927190516  101.499579722327 112.011970667517  101.499579722327 112.011970667517  C 101.499579722327 112.011970667517  93.4998115996638 112.011970667517  93.4998115996638 112.011970667517  C 93.4998115996638 112.011970667517  94.9997681226631 109.512043129185  94.9997681226631 109.512043129185  C 94.9997681226631 109.512043129185  101.499579722327 105.512159067853  101.499579722327 105.512159067853  C 101.499579722327 105.512159067853  96.9997101533289 103.512217037187  96.9997101533289 103.512217037187  C 96.9997101533289 103.512217037187  96.9997101533289 100.012318483522  96.9997101533289 100.012318483522  C 96.9997101533289 100.012318483522  103.999507260659 100.012318483522  103.999507260659 100.012318483522  C 103.999507260659 100.012318483522  112.999246398655 97.51239094519  112.999246398655 97.51239094519  C 112.999246398655 97.51239094519  115.999159444654 93.5125068838585  115.999159444654 93.5125068838585  C 115.999159444654 93.5125068838585  112.999246398655 87.5126807918611  112.999246398655 87.5126807918611  C 112.999246398655 87.5126807918611  108.999362337324 84.012782238196  108.999362337324 84.012782238196  C 108.999362337324 84.012782238196  96.9997101533289 84.012782238196  96.9997101533289 84.012782238196  C 96.9997101533289 84.012782238196  84.0000869540013 80.0128981768644  84.0000869540013 80.0128981768644  C 84.0000869540013 80.0128981768644  75.0003478160053 80.0128981768644  75.0003478160053 80.0128981768644  C 75.0003478160053 80.0128981768644  67.0005796933422 82.0128402075302  67.0005796933422 82.0128402075302  C 67.0005796933422 82.0128402075302  38.0014202486885 82.0128402075302  38.0014202486885 82.0128402075302  C 38.0014202486885 82.0128402075302  31.0016231413582 84.012782238196  31.0016231413582 84.012782238196  C 31.0016231413582 84.012782238196  26.5017535723603 78.0129561461987  26.5017535723603 78.0129561461987  C 26.5017535723603 78.0129561461987  26.5017535723603 70.0131880235355  26.5017535723603 70.0131880235355  C 26.5017535723603 70.0131880235355  19.50195646503 70.0131880235355  19.50195646503 70.0131880235355  C 19.50195646503 70.0131880235355  12.5021593576998 64.0133619315382  12.5021593576998 64.0133619315382  C 12.5021593576998 64.0133619315382  17.5020144343642 61.0134488855396  17.5020144343642 61.0134488855396  C 17.5020144343642 61.0134488855396  5.50236225036957 54.5136372858758  5.50236225036957 54.5136372858758  C 5.50236225036957 54.5136372858758  0.502507173705112 52.0137097475436  0.502507173705112 52.0137097475436  C 0.502507173705112 52.0137097475436  0.502507173705112 45.5138981478798  0.502507173705112 45.5138981478798  C 0.502507173705112 45.5138981478798  11.0022028347004 36.0141735022173  11.0022028347004 36.0141735022173  C 11.0022028347004 36.0141735022173  19.50195646503 32.5142749485522  19.50195646503 32.5142749485522  C 19.50195646503 32.5142749485522  25.0017970493609 30.01434741022  25.0017970493609 30.01434741022  C 25.0017970493609 30.01434741022  19.50195646503 26.0144633488884  19.50195646503 26.0144633488884  Z " fill-rule="evenodd" />
    </mask>
  </defs>
  <g transform="matrix(1 0 0 1 -900 -225 )">
    <path d="M 19.50195646503 26.0144633488884  C 19.50195646503 26.0144633488884  17.5020144343642 24.0145213182227  17.5020144343642 24.0145213182227  C 17.5020144343642 24.0145213182227  15.5020724036984 22.0145792875569  15.5020724036984 22.0145792875569  C 15.5020724036984 22.0145792875569  17.5020144343642 20.0146372568911  17.5020144343642 20.0146372568911  C 17.5020144343642 20.0146372568911  12.5021593576998 16.0147531955596  12.5021593576998 16.0147531955596  C 12.5021593576998 16.0147531955596  33.001565172024 11.5148836265615  33.001565172024 11.5148836265615  C 33.001565172024 11.5148836265615  45.5012028636851 6.01504304223066  45.5012028636851 6.01504304223066  C 45.5012028636851 6.01504304223066  48.0011304020173 1.51517347323266  48.0011304020173 1.51517347323266  C 48.0011304020173 1.51517347323266  55.500913017014 0.515202457899772  55.500913017014 0.515202457899772  C 55.500913017014 0.515202457899772  75.0003478160053 3.51511550389844  75.0003478160053 3.51511550389844  C 75.0003478160053 3.51511550389844  88.9999420306658 7.01501405756355  88.9999420306658 7.01501405756355  C 88.9999420306658 7.01501405756355  103.999507260659 9.01495608822933  103.999507260659 9.01495608822933  C 103.999507260659 9.01495608822933  112.999246398655 20.0146372568911  112.999246398655 20.0146372568911  C 112.999246398655 20.0146372568911  131.99869568998 36.0141735022173  131.99869568998 36.0141735022173  C 131.99869568998 36.0141735022173  140.49844932031 41.5140140865482  140.49844932031 41.5140140865482  C 140.49844932031 41.5140140865482  159.997884119301 54.5136372858758  159.997884119301 54.5136372858758  C 159.997884119301 54.5136372858758  167.497666734298 61.0134488855396  167.497666734298 61.0134488855396  C 167.497666734298 61.0134488855396  170.497579780296 67.0132749775369  170.497579780296 67.0132749775369  C 170.497579780296 67.0132749775369  175.997420364627 70.0131880235355  175.997420364627 70.0131880235355  C 175.997420364627 70.0131880235355  182.997217471957 70.0131880235355  182.997217471957 70.0131880235355  C 182.997217471957 70.0131880235355  187.997072548622 73.0131010695342  187.997072548622 73.0131010695342  C 187.997072548622 73.0131010695342  184.497173994957 74.5130575925336  184.497173994957 74.5130575925336  C 184.497173994957 74.5130575925336  190.497000086954 78.0129561461987  190.497000086954 78.0129561461987  C 190.497000086954 78.0129561461987  196.496826178951 89.0126373148604  196.496826178951 89.0126373148604  C 196.496826178951 89.0126373148604  202.996637778615 90.5125938378598  202.996637778615 90.5125938378598  C 202.996637778615 90.5125938378598  209.996434885945 100.012318483522  209.996434885945 100.012318483522  C 209.996434885945 100.012318483522  209.996434885945 103.512217037187  209.996434885945 103.512217037187  C 209.996434885945 103.512217037187  217.496217500942 105.512159067853  217.496217500942 105.512159067853  C 217.496217500942 105.512159067853  220.996116054607 115.011883713516  220.996116054607 115.011883713516  C 220.996116054607 115.011883713516  213.49633343961 117.011825744181  213.49633343961 117.011825744181  C 213.49633343961 117.011825744181  217.496217500942 125.011593866844  217.496217500942 125.011593866844  C 217.496217500942 125.011593866844  209.996434885945 128.51149242051  209.996434885945 128.51149242051  C 209.996434885945 128.51149242051  199.996724732616 132.011390974175  199.996724732616 132.011390974175  C 199.996724732616 132.011390974175  196.496826178951 130.011448943509  196.496826178951 130.011448943509  C 196.496826178951 130.011448943509  191.996956609953 130.011448943509  191.996956609953 130.011448943509  C 191.996956609953 130.011448943509  187.997072548622 132.011390974175  187.997072548622 132.011390974175  C 187.997072548622 132.011390974175  182.997217471957 130.011448943509  182.997217471957 130.011448943509  C 182.997217471957 130.011448943509  175.997420364627 132.011390974175  175.997420364627 132.011390974175  C 175.997420364627 132.011390974175  173.497492826295 128.51149242051  173.497492826295 128.51149242051  C 173.497492826295 128.51149242051  170.497579780296 128.51149242051  170.497579780296 128.51149242051  C 170.497579780296 128.51149242051  165.497724703632 125.011593866844  165.497724703632 125.011593866844  C 165.497724703632 125.011593866844  150.498159473638 128.51149242051  150.498159473638 128.51149242051  C 150.498159473638 128.51149242051  141.998405843309 127.01153589751  141.998405843309 127.01153589751  C 141.998405843309 127.01153589751  137.998521781977 125.011593866844  137.998521781977 125.011593866844  C 137.998521781977 125.011593866844  131.99869568998 120.01173879018  131.99869568998 120.01173879018  C 131.99869568998 120.01173879018  105.999449291325 122.511666328512  105.999449291325 122.511666328512  C 105.999449291325 122.511666328512  103.999507260659 125.011593866844  103.999507260659 125.011593866844  C 103.999507260659 125.011593866844  101.499579722327 128.51149242051  101.499579722327 128.51149242051  C 101.499579722327 128.51149242051  87.4999855076665 128.51149242051  87.4999855076665 128.51149242051  C 87.4999855076665 128.51149242051  87.4999855076665 122.511666328512  87.4999855076665 122.511666328512  C 87.4999855076665 122.511666328512  99.4996376916611 117.011825744181  99.4996376916611 117.011825744181  C 99.4996376916611 117.011825744181  103.999507260659 113.511927190516  103.999507260659 113.511927190516  C 103.999507260659 113.511927190516  101.499579722327 112.011970667517  101.499579722327 112.011970667517  C 101.499579722327 112.011970667517  93.4998115996638 112.011970667517  93.4998115996638 112.011970667517  C 93.4998115996638 112.011970667517  94.9997681226631 109.512043129185  94.9997681226631 109.512043129185  C 94.9997681226631 109.512043129185  101.499579722327 105.512159067853  101.499579722327 105.512159067853  C 101.499579722327 105.512159067853  96.9997101533289 103.512217037187  96.9997101533289 103.512217037187  C 96.9997101533289 103.512217037187  96.9997101533289 100.012318483522  96.9997101533289 100.012318483522  C 96.9997101533289 100.012318483522  103.999507260659 100.012318483522  103.999507260659 100.012318483522  C 103.999507260659 100.012318483522  112.999246398655 97.51239094519  112.999246398655 97.51239094519  C 112.999246398655 97.51239094519  115.999159444654 93.5125068838585  115.999159444654 93.5125068838585  C 115.999159444654 93.5125068838585  112.999246398655 87.5126807918611  112.999246398655 87.5126807918611  C 112.999246398655 87.5126807918611  108.999362337324 84.012782238196  108.999362337324 84.012782238196  C 108.999362337324 84.012782238196  96.9997101533289 84.012782238196  96.9997101533289 84.012782238196  C 96.9997101533289 84.012782238196  84.0000869540013 80.0128981768644  84.0000869540013 80.0128981768644  C 84.0000869540013 80.0128981768644  75.0003478160053 80.0128981768644  75.0003478160053 80.0128981768644  C 75.0003478160053 80.0128981768644  67.0005796933422 82.0128402075302  67.0005796933422 82.0128402075302  C 67.0005796933422 82.0128402075302  38.0014202486885 82.0128402075302  38.0014202486885 82.0128402075302  C 38.0014202486885 82.0128402075302  31.0016231413582 84.012782238196  31.0016231413582 84.012782238196  C 31.0016231413582 84.012782238196  26.5017535723603 78.0129561461987  26.5017535723603 78.0129561461987  C 26.5017535723603 78.0129561461987  26.5017535723603 70.0131880235355  26.5017535723603 70.0131880235355  C 26.5017535723603 70.0131880235355  19.50195646503 70.0131880235355  19.50195646503 70.0131880235355  C 19.50195646503 70.0131880235355  12.5021593576998 64.0133619315382  12.5021593576998 64.0133619315382  C 12.5021593576998 64.0133619315382  17.5020144343642 61.0134488855396  17.5020144343642 61.0134488855396  C 17.5020144343642 61.0134488855396  5.50236225036957 54.5136372858758  5.50236225036957 54.5136372858758  C 5.50236225036957 54.5136372858758  0.502507173705112 52.0137097475436  0.502507173705112 52.0137097475436  C 0.502507173705112 52.0137097475436  0.502507173705112 45.5138981478798  0.502507173705112 45.5138981478798  C 0.502507173705112 45.5138981478798  11.0022028347004 36.0141735022173  11.0022028347004 36.0141735022173  C 11.0022028347004 36.0141735022173  19.50195646503 32.5142749485522  19.50195646503 32.5142749485522  C 19.50195646503 32.5142749485522  25.0017970493609 30.01434741022  25.0017970493609 30.01434741022  C 25.0017970493609 30.01434741022  19.50195646503 26.0144633488884  19.50195646503 26.0144633488884  Z " fill-rule="nonzero" fill="#033571" stroke="none" transform="matrix(1 0 0 1 900 225 )" />
    <path d="M 19.50195646503 26.0144633488884  C 19.50195646503 26.0144633488884  17.5020144343642 24.0145213182227  17.5020144343642 24.0145213182227  C 17.5020144343642 24.0145213182227  15.5020724036984 22.0145792875569  15.5020724036984 22.0145792875569  C 15.5020724036984 22.0145792875569  17.5020144343642 20.0146372568911  17.5020144343642 20.0146372568911  C 17.5020144343642 20.0146372568911  12.5021593576998 16.0147531955596  12.5021593576998 16.0147531955596  C 12.5021593576998 16.0147531955596  33.001565172024 11.5148836265615  33.001565172024 11.5148836265615  C 33.001565172024 11.5148836265615  45.5012028636851 6.01504304223066  45.5012028636851 6.01504304223066  C 45.5012028636851 6.01504304223066  48.0011304020173 1.51517347323266  48.0011304020173 1.51517347323266  C 48.0011304020173 1.51517347323266  55.500913017014 0.515202457899772  55.500913017014 0.515202457899772  C 55.500913017014 0.515202457899772  75.0003478160053 3.51511550389844  75.0003478160053 3.51511550389844  C 75.0003478160053 3.51511550389844  88.9999420306658 7.01501405756355  88.9999420306658 7.01501405756355  C 88.9999420306658 7.01501405756355  103.999507260659 9.01495608822933  103.999507260659 9.01495608822933  C 103.999507260659 9.01495608822933  112.999246398655 20.0146372568911  112.999246398655 20.0146372568911  C 112.999246398655 20.0146372568911  131.99869568998 36.0141735022173  131.99869568998 36.0141735022173  C 131.99869568998 36.0141735022173  140.49844932031 41.5140140865482  140.49844932031 41.5140140865482  C 140.49844932031 41.5140140865482  159.997884119301 54.5136372858758  159.997884119301 54.5136372858758  C 159.997884119301 54.5136372858758  167.497666734298 61.0134488855396  167.497666734298 61.0134488855396  C 167.497666734298 61.0134488855396  170.497579780296 67.0132749775369  170.497579780296 67.0132749775369  C 170.497579780296 67.0132749775369  175.997420364627 70.0131880235355  175.997420364627 70.0131880235355  C 175.997420364627 70.0131880235355  182.997217471957 70.0131880235355  182.997217471957 70.0131880235355  C 182.997217471957 70.0131880235355  187.997072548622 73.0131010695342  187.997072548622 73.0131010695342  C 187.997072548622 73.0131010695342  184.497173994957 74.5130575925336  184.497173994957 74.5130575925336  C 184.497173994957 74.5130575925336  190.497000086954 78.0129561461987  190.497000086954 78.0129561461987  C 190.497000086954 78.0129561461987  196.496826178951 89.0126373148604  196.496826178951 89.0126373148604  C 196.496826178951 89.0126373148604  202.996637778615 90.5125938378598  202.996637778615 90.5125938378598  C 202.996637778615 90.5125938378598  209.996434885945 100.012318483522  209.996434885945 100.012318483522  C 209.996434885945 100.012318483522  209.996434885945 103.512217037187  209.996434885945 103.512217037187  C 209.996434885945 103.512217037187  217.496217500942 105.512159067853  217.496217500942 105.512159067853  C 217.496217500942 105.512159067853  220.996116054607 115.011883713516  220.996116054607 115.011883713516  C 220.996116054607 115.011883713516  213.49633343961 117.011825744181  213.49633343961 117.011825744181  C 213.49633343961 117.011825744181  217.496217500942 125.011593866844  217.496217500942 125.011593866844  C 217.496217500942 125.011593866844  209.996434885945 128.51149242051  209.996434885945 128.51149242051  C 209.996434885945 128.51149242051  199.996724732616 132.011390974175  199.996724732616 132.011390974175  C 199.996724732616 132.011390974175  196.496826178951 130.011448943509  196.496826178951 130.011448943509  C 196.496826178951 130.011448943509  191.996956609953 130.011448943509  191.996956609953 130.011448943509  C 191.996956609953 130.011448943509  187.997072548622 132.011390974175  187.997072548622 132.011390974175  C 187.997072548622 132.011390974175  182.997217471957 130.011448943509  182.997217471957 130.011448943509  C 182.997217471957 130.011448943509  175.997420364627 132.011390974175  175.997420364627 132.011390974175  C 175.997420364627 132.011390974175  173.497492826295 128.51149242051  173.497492826295 128.51149242051  C 173.497492826295 128.51149242051  170.497579780296 128.51149242051  170.497579780296 128.51149242051  C 170.497579780296 128.51149242051  165.497724703632 125.011593866844  165.497724703632 125.011593866844  C 165.497724703632 125.011593866844  150.498159473638 128.51149242051  150.498159473638 128.51149242051  C 150.498159473638 128.51149242051  141.998405843309 127.01153589751  141.998405843309 127.01153589751  C 141.998405843309 127.01153589751  137.998521781977 125.011593866844  137.998521781977 125.011593866844  C 137.998521781977 125.011593866844  131.99869568998 120.01173879018  131.99869568998 120.01173879018  C 131.99869568998 120.01173879018  105.999449291325 122.511666328512  105.999449291325 122.511666328512  C 105.999449291325 122.511666328512  103.999507260659 125.011593866844  103.999507260659 125.011593866844  C 103.999507260659 125.011593866844  101.499579722327 128.51149242051  101.499579722327 128.51149242051  C 101.499579722327 128.51149242051  87.4999855076665 128.51149242051  87.4999855076665 128.51149242051  C 87.4999855076665 128.51149242051  87.4999855076665 122.511666328512  87.4999855076665 122.511666328512  C 87.4999855076665 122.511666328512  99.4996376916611 117.011825744181  99.4996376916611 117.011825744181  C 99.4996376916611 117.011825744181  103.999507260659 113.511927190516  103.999507260659 113.511927190516  C 103.999507260659 113.511927190516  101.499579722327 112.011970667517  101.499579722327 112.011970667517  C 101.499579722327 112.011970667517  93.4998115996638 112.011970667517  93.4998115996638 112.011970667517  C 93.4998115996638 112.011970667517  94.9997681226631 109.512043129185  94.9997681226631 109.512043129185  C 94.9997681226631 109.512043129185  101.499579722327 105.512159067853  101.499579722327 105.512159067853  C 101.499579722327 105.512159067853  96.9997101533289 103.512217037187  96.9997101533289 103.512217037187  C 96.9997101533289 103.512217037187  96.9997101533289 100.012318483522  96.9997101533289 100.012318483522  C 96.9997101533289 100.012318483522  103.999507260659 100.012318483522  103.999507260659 100.012318483522  C 103.999507260659 100.012318483522  112.999246398655 97.51239094519  112.999246398655 97.51239094519  C 112.999246398655 97.51239094519  115.999159444654 93.5125068838585  115.999159444654 93.5125068838585  C 115.999159444654 93.5125068838585  112.999246398655 87.5126807918611  112.999246398655 87.5126807918611  C 112.999246398655 87.5126807918611  108.999362337324 84.012782238196  108.999362337324 84.012782238196  C 108.999362337324 84.012782238196  96.9997101533289 84.012782238196  96.9997101533289 84.012782238196  C 96.9997101533289 84.012782238196  84.0000869540013 80.0128981768644  84.0000869540013 80.0128981768644  C 84.0000869540013 80.0128981768644  75.0003478160053 80.0128981768644  75.0003478160053 80.0128981768644  C 75.0003478160053 80.0128981768644  67.0005796933422 82.0128402075302  67.0005796933422 82.0128402075302  C 67.0005796933422 82.0128402075302  38.0014202486885 82.0128402075302  38.0014202486885 82.0128402075302  C 38.0014202486885 82.0128402075302  31.0016231413582 84.012782238196  31.0016231413582 84.012782238196  C 31.0016231413582 84.012782238196  26.5017535723603 78.0129561461987  26.5017535723603 78.0129561461987  C 26.5017535723603 78.0129561461987  26.5017535723603 70.0131880235355  26.5017535723603 70.0131880235355  C 26.5017535723603 70.0131880235355  19.50195646503 70.0131880235355  19.50195646503 70.0131880235355  C 19.50195646503 70.0131880235355  12.5021593576998 64.0133619315382  12.5021593576998 64.0133619315382  C 12.5021593576998 64.0133619315382  17.5020144343642 61.0134488855396  17.5020144343642 61.0134488855396  C 17.5020144343642 61.0134488855396  5.50236225036957 54.5136372858758  5.50236225036957 54.5136372858758  C 5.50236225036957 54.5136372858758  0.502507173705112 52.0137097475436  0.502507173705112 52.0137097475436  C 0.502507173705112 52.0137097475436  0.502507173705112 45.5138981478798  0.502507173705112 45.5138981478798  C 0.502507173705112 45.5138981478798  11.0022028347004 36.0141735022173  11.0022028347004 36.0141735022173  C 11.0022028347004 36.0141735022173  19.50195646503 32.5142749485522  19.50195646503 32.5142749485522  C 19.50195646503 32.5142749485522  25.0017970493609 30.01434741022  25.0017970493609 30.01434741022  C 25.0017970493609 30.01434741022  19.50195646503 26.0144633488884  19.50195646503 26.0144633488884  Z " stroke-width="1.99994203066578" stroke="#b5eaff" fill="none" stroke-opacity="0.501960784313725" transform="matrix(1 0 0 1 900 225 )" mask="url(#clip1058)" />
  </g>
</svg>