<?xml version="1.0" encoding="utf-8"?>
<svg version="1.1" xmlns:xlink="http://www.w3.org/1999/xlink" width="195px" height="82px" xmlns="http://www.w3.org/2000/svg">
  <defs>
    <mask fill="white" id="clip1056">
      <path d="M 153.504536100403 5.51497058056288  C 153.504536100403 5.51497058056288  142.504854931741 3.5150285498971  142.504854931741 3.5150285498971  C 142.504854931741 3.5150285498971  139.004956378076 6.51494159589577  139.004956378076 6.51494159589577  C 139.004956378076 6.51494159589577  129.005246224747 6.51494159589577  129.005246224747 6.51494159589577  C 129.005246224747 6.51494159589577  125.005362163416 11.0148111648938  125.005362163416 11.0148111648938  C 125.005362163416 11.0148111648938  111.005767948755 17.0146372568911  111.005767948755 17.0146372568911  C 111.005767948755 17.0146372568911  88.0064345960986 17.0146372568911  88.0064345960986 17.0146372568911  C 88.0064345960986 17.0146372568911  83.0065795194342 14.0147242108924  83.0065795194342 14.0147242108924  C 83.0065795194342 14.0147242108924  72.5068838584389 17.0146372568911  72.5068838584389 17.0146372568911  C 72.5068838584389 17.0146372568911  67.007043274108 14.0147242108924  67.007043274108 14.0147242108924  C 67.007043274108 14.0147242108924  56.5073476131126 14.0147242108924  56.5073476131126 14.0147242108924  C 56.5073476131126 14.0147242108924  59.0072751514448 17.0146372568911  59.0072751514448 17.0146372568911  C 59.0072751514448 17.0146372568911  53.507434567114 22.514477841222  53.507434567114 22.514477841222  C 53.507434567114 22.514477841222  67.007043274108 26.5143619025536  67.007043274108 26.5143619025536  C 67.007043274108 26.5143619025536  67.007043274108 30.5142459638851  67.007043274108 30.5142459638851  C 67.007043274108 30.5142459638851  62.50717370511 34.0141445175502  62.50717370511 34.0141445175502  C 62.50717370511 34.0141445175502  59.0072751514448 37.5140430712153  59.0072751514448 37.5140430712153  C 59.0072751514448 37.5140430712153  56.5073476131126 42.5138981478798  56.5073476131126 42.5138981478798  C 56.5073476131126 42.5138981478798  48.5075794904495 45.5138111938784  48.5075794904495 45.5138111938784  C 48.5075794904495 45.5138111938784  39.5078403524535 54.5135503318744  39.5078403524535 54.5135503318744  C 39.5078403524535 54.5135503318744  37.0079128141213 55.5135213472073  37.0079128141213 55.5135213472073  C 37.0079128141213 55.5135213472073  30.5081012144575 54.5135503318744  30.5081012144575 54.5135503318744  C 30.5081012144575 54.5135503318744  22.5083330917944 59.0134199008724  22.5083330917944 59.0134199008724  C 22.5083330917944 59.0134199008724  21.0083765687951 63.5132894698704  21.0083765687951 63.5132894698704  C 21.0083765687951 63.5132894698704  14.0085794614648 63.5132894698704  14.0085794614648 63.5132894698704  C 14.0085794614648 63.5132894698704  14.0085794614648 65.5132315005362  14.0085794614648 65.5132315005362  C 14.0085794614648 65.5132315005362  8.50873887713396 68.5131445465349  8.50873887713396 68.5131445465349  C 8.50873887713396 68.5131445465349  3.00889829280307 70.5130865772007  3.00889829280307 70.5130865772007  C 3.00889829280307 70.5130865772007  0.00898524680441426 73.0130141155329  0.00898524680441426 73.0130141155329  C 0.00898524680441426 73.0130141155329  6.00881133880173 73.0130141155329  6.00881133880173 73.0130141155329  C 6.00881133880173 73.0130141155329  4.00886930813596 76.512912669198  4.00886930813596 76.512912669198  C 4.00886930813596 76.512912669198  7.00878235413462 77.5128836845309  7.00878235413462 77.5128836845309  C 7.00878235413462 77.5128836845309  8.50873887713396 81.012782238196  8.50873887713396 81.012782238196  C 8.50873887713396 81.012782238196  20.0084055534622 79.5128257151967  20.0084055534622 79.5128257151967  C 20.0084055534622 79.5128257151967  27.0082026607924 78.5128546998638  27.0082026607924 78.5128546998638  C 27.0082026607924 78.5128546998638  32.0080577374569 73.0130141155329  32.0080577374569 73.0130141155329  C 32.0080577374569 73.0130141155329  37.0079128141213 74.0129851308658  37.0079128141213 74.0129851308658  C 37.0079128141213 74.0129851308658  37.5078983217877 76.512912669198  38.5078693371206 76.512912669198  C 39.5078403524535 76.512912669198  45.5076664444508 75.5129416538651  45.5076664444508 75.5129416538651  C 45.5076664444508 75.5129416538651  63.5071447204429 75.5129416538651  63.5071447204429 75.5129416538651  C 63.5071447204429 75.5129416538651  77.5067389351033 73.0130141155329  77.5067389351033 73.0130141155329  C 77.5067389351033 73.0130141155329  100.50607228776 68.5131445465349  100.50607228776 68.5131445465349  C 100.50607228776 68.5131445465349  121.005478102084 65.5132315005362  121.005478102084 65.5132315005362  C 121.005478102084 65.5132315005362  119.005536071418 61.0133619315382  119.005536071418 61.0133619315382  C 119.005536071418 61.0133619315382  125.005362163416 59.0134199008724  125.005362163416 59.0134199008724  C 125.005362163416 59.0134199008724  129.005246224747 53.0135938088751  129.005246224747 53.0135938088751  C 129.005246224747 53.0135938088751  135.005072316744 49.51369525521  135.005072316744 49.51369525521  C 135.005072316744 49.51369525521  131.505173763079 45.5138111938784  131.505173763079 45.5138111938784  C 131.505173763079 45.5138111938784  137.504999855077 42.5138981478798  137.504999855077 42.5138981478798  C 137.504999855077 42.5138981478798  141.504883916408 38.5140140865482  141.504883916408 38.5140140865482  C 141.504883916408 38.5140140865482  142.504854931741 34.0141445175502  142.504854931741 34.0141445175502  C 142.504854931741 34.0141445175502  146.504738993073 30.5142459638851  146.504738993073 30.5142459638851  C 146.504738993073 30.5142459638851  153.504536100403 28.0143184255529  153.504536100403 28.0143184255529  C 153.504536100403 28.0143184255529  165.504188284398 26.5143619025536  165.504188284398 26.5143619025536  C 165.504188284398 26.5143619025536  171.504014376395 26.5143619025536  171.504014376395 26.5143619025536  C 171.504014376395 26.5143619025536  183.003681052723 22.514477841222  183.003681052723 22.514477841222  C 183.003681052723 22.514477841222  193.003391206052 19.0145792875569  193.003391206052 19.0145792875569  C 193.003391206052 19.0145792875569  194.503347729051 15.0146952262253  194.503347729051 15.0146952262253  C 194.503347729051 15.0146952262253  187.503550621721 7.51491261122866  187.503550621721 7.51491261122866  C 187.503550621721 7.51491261122866  188.503521637054 0.515115503898439  188.503521637054 0.515115503898439  C 188.503521637054 0.515115503898439  177.503840468392 2.51505753456421  177.503840468392 2.51505753456421  C 177.503840468392 2.51505753456421  159.5043621924 2.51505753456421  159.5043621924 2.51505753456421  C 159.5043621924 2.51505753456421  153.504536100403 5.51497058056288  153.504536100403 5.51497058056288  Z " fill-rule="evenodd" />
    </mask>
  </defs>
  <g transform="matrix(1 0 0 1 -677 -228 )">
    <path d="M 153.504536100403 5.51497058056288  C 153.504536100403 5.51497058056288  142.504854931741 3.5150285498971  142.504854931741 3.5150285498971  C 142.504854931741 3.5150285498971  139.004956378076 6.51494159589577  139.004956378076 6.51494159589577  C 139.004956378076 6.51494159589577  129.005246224747 6.51494159589577  129.005246224747 6.51494159589577  C 129.005246224747 6.51494159589577  125.005362163416 11.0148111648938  125.005362163416 11.0148111648938  C 125.005362163416 11.0148111648938  111.005767948755 17.0146372568911  111.005767948755 17.0146372568911  C 111.005767948755 17.0146372568911  88.0064345960986 17.0146372568911  88.0064345960986 17.0146372568911  C 88.0064345960986 17.0146372568911  83.0065795194342 14.0147242108924  83.0065795194342 14.0147242108924  C 83.0065795194342 14.0147242108924  72.5068838584389 17.0146372568911  72.5068838584389 17.0146372568911  C 72.5068838584389 17.0146372568911  67.007043274108 14.0147242108924  67.007043274108 14.0147242108924  C 67.007043274108 14.0147242108924  56.5073476131126 14.0147242108924  56.5073476131126 14.0147242108924  C 56.5073476131126 14.0147242108924  59.0072751514448 17.0146372568911  59.0072751514448 17.0146372568911  C 59.0072751514448 17.0146372568911  53.507434567114 22.514477841222  53.507434567114 22.514477841222  C 53.507434567114 22.514477841222  67.007043274108 26.5143619025536  67.007043274108 26.5143619025536  C 67.007043274108 26.5143619025536  67.007043274108 30.5142459638851  67.007043274108 30.5142459638851  C 67.007043274108 30.5142459638851  62.50717370511 34.0141445175502  62.50717370511 34.0141445175502  C 62.50717370511 34.0141445175502  59.0072751514448 37.5140430712153  59.0072751514448 37.5140430712153  C 59.0072751514448 37.5140430712153  56.5073476131126 42.5138981478798  56.5073476131126 42.5138981478798  C 56.5073476131126 42.5138981478798  48.5075794904495 45.5138111938784  48.5075794904495 45.5138111938784  C 48.5075794904495 45.5138111938784  39.5078403524535 54.5135503318744  39.5078403524535 54.5135503318744  C 39.5078403524535 54.5135503318744  37.0079128141213 55.5135213472073  37.0079128141213 55.5135213472073  C 37.0079128141213 55.5135213472073  30.5081012144575 54.5135503318744  30.5081012144575 54.5135503318744  C 30.5081012144575 54.5135503318744  22.5083330917944 59.0134199008724  22.5083330917944 59.0134199008724  C 22.5083330917944 59.0134199008724  21.0083765687951 63.5132894698704  21.0083765687951 63.5132894698704  C 21.0083765687951 63.5132894698704  14.0085794614648 63.5132894698704  14.0085794614648 63.5132894698704  C 14.0085794614648 63.5132894698704  14.0085794614648 65.5132315005362  14.0085794614648 65.5132315005362  C 14.0085794614648 65.5132315005362  8.50873887713396 68.5131445465349  8.50873887713396 68.5131445465349  C 8.50873887713396 68.5131445465349  3.00889829280307 70.5130865772007  3.00889829280307 70.5130865772007  C 3.00889829280307 70.5130865772007  0.00898524680441426 73.0130141155329  0.00898524680441426 73.0130141155329  C 0.00898524680441426 73.0130141155329  6.00881133880173 73.0130141155329  6.00881133880173 73.0130141155329  C 6.00881133880173 73.0130141155329  4.00886930813596 76.512912669198  4.00886930813596 76.512912669198  C 4.00886930813596 76.512912669198  7.00878235413462 77.5128836845309  7.00878235413462 77.5128836845309  C 7.00878235413462 77.5128836845309  8.50873887713396 81.012782238196  8.50873887713396 81.012782238196  C 8.50873887713396 81.012782238196  20.0084055534622 79.5128257151967  20.0084055534622 79.5128257151967  C 20.0084055534622 79.5128257151967  27.0082026607924 78.5128546998638  27.0082026607924 78.5128546998638  C 27.0082026607924 78.5128546998638  32.0080577374569 73.0130141155329  32.0080577374569 73.0130141155329  C 32.0080577374569 73.0130141155329  37.0079128141213 74.0129851308658  37.0079128141213 74.0129851308658  C 37.0079128141213 74.0129851308658  37.5078983217877 76.512912669198  38.5078693371206 76.512912669198  C 39.5078403524535 76.512912669198  45.5076664444508 75.5129416538651  45.5076664444508 75.5129416538651  C 45.5076664444508 75.5129416538651  63.5071447204429 75.5129416538651  63.5071447204429 75.5129416538651  C 63.5071447204429 75.5129416538651  77.5067389351033 73.0130141155329  77.5067389351033 73.0130141155329  C 77.5067389351033 73.0130141155329  100.50607228776 68.5131445465349  100.50607228776 68.5131445465349  C 100.50607228776 68.5131445465349  121.005478102084 65.5132315005362  121.005478102084 65.5132315005362  C 121.005478102084 65.5132315005362  119.005536071418 61.0133619315382  119.005536071418 61.0133619315382  C 119.005536071418 61.0133619315382  125.005362163416 59.0134199008724  125.005362163416 59.0134199008724  C 125.005362163416 59.0134199008724  129.005246224747 53.0135938088751  129.005246224747 53.0135938088751  C 129.005246224747 53.0135938088751  135.005072316744 49.51369525521  135.005072316744 49.51369525521  C 135.005072316744 49.51369525521  131.505173763079 45.5138111938784  131.505173763079 45.5138111938784  C 131.505173763079 45.5138111938784  137.504999855077 42.5138981478798  137.504999855077 42.5138981478798  C 137.504999855077 42.5138981478798  141.504883916408 38.5140140865482  141.504883916408 38.5140140865482  C 141.504883916408 38.5140140865482  142.504854931741 34.0141445175502  142.504854931741 34.0141445175502  C 142.504854931741 34.0141445175502  146.504738993073 30.5142459638851  146.504738993073 30.5142459638851  C 146.504738993073 30.5142459638851  153.504536100403 28.0143184255529  153.504536100403 28.0143184255529  C 153.504536100403 28.0143184255529  165.504188284398 26.5143619025536  165.504188284398 26.5143619025536  C 165.504188284398 26.5143619025536  171.504014376395 26.5143619025536  171.504014376395 26.5143619025536  C 171.504014376395 26.5143619025536  183.003681052723 22.514477841222  183.003681052723 22.514477841222  C 183.003681052723 22.514477841222  193.003391206052 19.0145792875569  193.003391206052 19.0145792875569  C 193.003391206052 19.0145792875569  194.503347729051 15.0146952262253  194.503347729051 15.0146952262253  C 194.503347729051 15.0146952262253  187.503550621721 7.51491261122866  187.503550621721 7.51491261122866  C 187.503550621721 7.51491261122866  188.503521637054 0.515115503898439  188.503521637054 0.515115503898439  C 188.503521637054 0.515115503898439  177.503840468392 2.51505753456421  177.503840468392 2.51505753456421  C 177.503840468392 2.51505753456421  159.5043621924 2.51505753456421  159.5043621924 2.51505753456421  C 159.5043621924 2.51505753456421  153.504536100403 5.51497058056288  153.504536100403 5.51497058056288  Z " fill-rule="nonzero" fill="#033571" stroke="none" transform="matrix(1 0 0 1 677 228 )" />
    <path d="M 153.504536100403 5.51497058056288  C 153.504536100403 5.51497058056288  142.504854931741 3.5150285498971  142.504854931741 3.5150285498971  C 142.504854931741 3.5150285498971  139.004956378076 6.51494159589577  139.004956378076 6.51494159589577  C 139.004956378076 6.51494159589577  129.005246224747 6.51494159589577  129.005246224747 6.51494159589577  C 129.005246224747 6.51494159589577  125.005362163416 11.0148111648938  125.005362163416 11.0148111648938  C 125.005362163416 11.0148111648938  111.005767948755 17.0146372568911  111.005767948755 17.0146372568911  C 111.005767948755 17.0146372568911  88.0064345960986 17.0146372568911  88.0064345960986 17.0146372568911  C 88.0064345960986 17.0146372568911  83.0065795194342 14.0147242108924  83.0065795194342 14.0147242108924  C 83.0065795194342 14.0147242108924  72.5068838584389 17.0146372568911  72.5068838584389 17.0146372568911  C 72.5068838584389 17.0146372568911  67.007043274108 14.0147242108924  67.007043274108 14.0147242108924  C 67.007043274108 14.0147242108924  56.5073476131126 14.0147242108924  56.5073476131126 14.0147242108924  C 56.5073476131126 14.0147242108924  59.0072751514448 17.0146372568911  59.0072751514448 17.0146372568911  C 59.0072751514448 17.0146372568911  53.507434567114 22.514477841222  53.507434567114 22.514477841222  C 53.507434567114 22.514477841222  67.007043274108 26.5143619025536  67.007043274108 26.5143619025536  C 67.007043274108 26.5143619025536  67.007043274108 30.5142459638851  67.007043274108 30.5142459638851  C 67.007043274108 30.5142459638851  62.50717370511 34.0141445175502  62.50717370511 34.0141445175502  C 62.50717370511 34.0141445175502  59.0072751514448 37.5140430712153  59.0072751514448 37.5140430712153  C 59.0072751514448 37.5140430712153  56.5073476131126 42.5138981478798  56.5073476131126 42.5138981478798  C 56.5073476131126 42.5138981478798  48.5075794904495 45.5138111938784  48.5075794904495 45.5138111938784  C 48.5075794904495 45.5138111938784  39.5078403524535 54.5135503318744  39.5078403524535 54.5135503318744  C 39.5078403524535 54.5135503318744  37.0079128141213 55.5135213472073  37.0079128141213 55.5135213472073  C 37.0079128141213 55.5135213472073  30.5081012144575 54.5135503318744  30.5081012144575 54.5135503318744  C 30.5081012144575 54.5135503318744  22.5083330917944 59.0134199008724  22.5083330917944 59.0134199008724  C 22.5083330917944 59.0134199008724  21.0083765687951 63.5132894698704  21.0083765687951 63.5132894698704  C 21.0083765687951 63.5132894698704  14.0085794614648 63.5132894698704  14.0085794614648 63.5132894698704  C 14.0085794614648 63.5132894698704  14.0085794614648 65.5132315005362  14.0085794614648 65.5132315005362  C 14.0085794614648 65.5132315005362  8.50873887713396 68.5131445465349  8.50873887713396 68.5131445465349  C 8.50873887713396 68.5131445465349  3.00889829280307 70.5130865772007  3.00889829280307 70.5130865772007  C 3.00889829280307 70.5130865772007  0.00898524680441426 73.0130141155329  0.00898524680441426 73.0130141155329  C 0.00898524680441426 73.0130141155329  6.00881133880173 73.0130141155329  6.00881133880173 73.0130141155329  C 6.00881133880173 73.0130141155329  4.00886930813596 76.512912669198  4.00886930813596 76.512912669198  C 4.00886930813596 76.512912669198  7.00878235413462 77.5128836845309  7.00878235413462 77.5128836845309  C 7.00878235413462 77.5128836845309  8.50873887713396 81.012782238196  8.50873887713396 81.012782238196  C 8.50873887713396 81.012782238196  20.0084055534622 79.5128257151967  20.0084055534622 79.5128257151967  C 20.0084055534622 79.5128257151967  27.0082026607924 78.5128546998638  27.0082026607924 78.5128546998638  C 27.0082026607924 78.5128546998638  32.0080577374569 73.0130141155329  32.0080577374569 73.0130141155329  C 32.0080577374569 73.0130141155329  37.0079128141213 74.0129851308658  37.0079128141213 74.0129851308658  C 37.0079128141213 74.0129851308658  37.5078983217877 76.512912669198  38.5078693371206 76.512912669198  C 39.5078403524535 76.512912669198  45.5076664444508 75.5129416538651  45.5076664444508 75.5129416538651  C 45.5076664444508 75.5129416538651  63.5071447204429 75.5129416538651  63.5071447204429 75.5129416538651  C 63.5071447204429 75.5129416538651  77.5067389351033 73.0130141155329  77.5067389351033 73.0130141155329  C 77.5067389351033 73.0130141155329  100.50607228776 68.5131445465349  100.50607228776 68.5131445465349  C 100.50607228776 68.5131445465349  121.005478102084 65.5132315005362  121.005478102084 65.5132315005362  C 121.005478102084 65.5132315005362  119.005536071418 61.0133619315382  119.005536071418 61.0133619315382  C 119.005536071418 61.0133619315382  125.005362163416 59.0134199008724  125.005362163416 59.0134199008724  C 125.005362163416 59.0134199008724  129.005246224747 53.0135938088751  129.005246224747 53.0135938088751  C 129.005246224747 53.0135938088751  135.005072316744 49.51369525521  135.005072316744 49.51369525521  C 135.005072316744 49.51369525521  131.505173763079 45.5138111938784  131.505173763079 45.5138111938784  C 131.505173763079 45.5138111938784  137.504999855077 42.5138981478798  137.504999855077 42.5138981478798  C 137.504999855077 42.5138981478798  141.504883916408 38.5140140865482  141.504883916408 38.5140140865482  C 141.504883916408 38.5140140865482  142.504854931741 34.0141445175502  142.504854931741 34.0141445175502  C 142.504854931741 34.0141445175502  146.504738993073 30.5142459638851  146.504738993073 30.5142459638851  C 146.504738993073 30.5142459638851  153.504536100403 28.0143184255529  153.504536100403 28.0143184255529  C 153.504536100403 28.0143184255529  165.504188284398 26.5143619025536  165.504188284398 26.5143619025536  C 165.504188284398 26.5143619025536  171.504014376395 26.5143619025536  171.504014376395 26.5143619025536  C 171.504014376395 26.5143619025536  183.003681052723 22.514477841222  183.003681052723 22.514477841222  C 183.003681052723 22.514477841222  193.003391206052 19.0145792875569  193.003391206052 19.0145792875569  C 193.003391206052 19.0145792875569  194.503347729051 15.0146952262253  194.503347729051 15.0146952262253  C 194.503347729051 15.0146952262253  187.503550621721 7.51491261122866  187.503550621721 7.51491261122866  C 187.503550621721 7.51491261122866  188.503521637054 0.515115503898439  188.503521637054 0.515115503898439  C 188.503521637054 0.515115503898439  177.503840468392 2.51505753456421  177.503840468392 2.51505753456421  C 177.503840468392 2.51505753456421  159.5043621924 2.51505753456421  159.5043621924 2.51505753456421  C 159.5043621924 2.51505753456421  153.504536100403 5.51497058056288  153.504536100403 5.51497058056288  Z " stroke-width="1.99994203066578" stroke="#b5eaff" fill="none" stroke-opacity="0.501960784313725" transform="matrix(1 0 0 1 677 228 )" mask="url(#clip1056)" />
  </g>
</svg>