<?xml version="1.0" encoding="utf-8"?>
<svg version="1.1" xmlns:xlink="http://www.w3.org/1999/xlink" width="256px" height="164px" xmlns="http://www.w3.org/2000/svg">
  <defs>
    <mask fill="white" id="clip1067">
      <path d="M 143.999971015333 114.006086780093  C 143.999971015333 114.006086780093  147.499869568998 112.006144749428  147.499869568998 112.006144749428  C 147.499869568998 112.006144749428  143 106.506304165097  143 106.506304165097  C 143 106.506304165097  139.500101446335 105.006347642097  139.500101446335 105.006347642097  C 139.500101446335 105.006347642097  139.500101446335 96.5065940117678  139.500101446335 96.5065940117678  C 139.500101446335 96.5065940117678  143 92.5067099504363  143 92.5067099504363  C 143 92.5067099504363  143.499985507666 89.0068113967711  143.499985507666 89.0068113967711  C 143.499985507666 89.0068113967711  148.499840584331 88.0068403814382  148.499840584331 88.0068403814382  C 148.499840584331 88.0068403814382  149.99979710733 82.5069997971074  149.99979710733 82.5069997971074  C 149.99979710733 82.5069997971074  152.999710153329 79.0071012434423  152.999710153329 79.0071012434423  C 152.999710153329 79.0071012434423  147.499869568998 75.5072026897772  147.499869568998 75.5072026897772  C 147.499869568998 75.5072026897772  144.999942030666 70.0073621054462  144.999942030666 70.0073621054462  C 144.999942030666 70.0073621054462  137.000173908003 66.5074635517811  137.000173908003 66.5074635517811  C 137.000173908003 66.5074635517811  140.500072461668 60.0076519521174  140.500072461668 60.0076519521174  C 140.500072461668 60.0076519521174  151.49975363033 53.5078403524536  151.49975363033 53.5078403524536  C 151.49975363033 53.5078403524536  151.49975363033 48.0079997681227  151.49975363033 48.0079997681227  C 151.49975363033 48.0079997681227  156.499608706994 48.0079997681227  156.499608706994 48.0079997681227  C 156.499608706994 48.0079997681227  154.999652183995 44.5081012144576  154.999652183995 44.5081012144576  C 154.999652183995 44.5081012144576  157.499579722327 41.0082026607924  157.499579722327 41.0082026607924  C 157.499579722327 41.0082026607924  157.999565229993 36.5083330917945  157.999565229993 36.5083330917945  C 157.999565229993 36.5083330917945  166.499318860323 34.0084055534622  166.499318860323 34.0084055534622  C 166.499318860323 34.0084055534622  162.499434798991 30.0085214921307  162.499434798991 30.0085214921307  C 162.499434798991 30.0085214921307  160.499492768326 26.0086374307991  160.499492768326 26.0086374307991  C 160.499492768326 26.0086374307991  157.499579722327 24.5086809077998  157.499579722327 24.5086809077998  C 157.499579722327 24.5086809077998  162.499434798991 18.008869308136  162.499434798991 18.008869308136  C 162.499434798991 18.008869308136  154.999652183995 17.5088838004696  154.999652183995 17.5088838004696  C 154.999652183995 17.5088838004696  151.49975363033 21.0087823541347  151.49975363033 21.0087823541347  C 151.49975363033 21.0087823541347  141.500043477001 19.5088258311354  141.500043477001 19.5088258311354  C 141.500043477001 19.5088258311354  135.000231877337 25.5086519231327  135.000231877337 25.5086519231327  C 135.000231877337 25.5086519231327  124.000550708675 24.5086809077998  124.000550708675 24.5086809077998  C 124.000550708675 24.5086809077998  122.000608678009 20.5087968464682  122.000608678009 20.5087968464682  C 122.000608678009 20.5087968464682  126.500478247007 17.5088838004696  126.500478247007 17.5088838004696  C 126.500478247007 17.5088838004696  124.000550708675 13.0090142314716  124.000550708675 13.0090142314716  C 124.000550708675 13.0090142314716  127.000463754674 10.5090866931394  127.000463754674 10.5090866931394  C 127.000463754674 10.5090866931394  125.000521724008 6.5092026318078  125.000521724008 6.5092026318078  C 125.000521724008 6.5092026318078  127.50044926234 3.00930407814269  127.50044926234 3.00930407814269  C 127.50044926234 3.00930407814269  131.000347816005 4.50926060114202  131.000347816005 4.50926060114202  C 131.000347816005 4.50926060114202  144.499956522999 4.50926060114202  144.499956522999 4.50926060114202  C 144.499956522999 4.50926060114202  151.999739137996 6.5092026318078  151.999739137996 6.5092026318078  C 151.999739137996 6.5092026318078  156.499608706994 4.50926060114202  156.499608706994 4.50926060114202  C 156.499608706994 4.50926060114202  169.499231906322 4.50926060114202  169.499231906322 4.50926060114202  C 169.499231906322 4.50926060114202  169.499231906322 7.5091736471407  169.499231906322 7.5091736471407  C 169.499231906322 7.5091736471407  178.998956551984 6.5092026318078  178.998956551984 6.5092026318078  C 178.998956551984 6.5092026318078  196.998434827976 0.509376539810461  196.998434827976 0.509376539810461  C 196.998434827976 0.509376539810461  199.498362366308 7.5091736471407  199.498362366308 7.5091736471407  C 199.498362366308 7.5091736471407  199.498362366308 12.5090287238051  199.498362366308 12.5090287238051  C 199.498362366308 12.5090287238051  215.997884119301 12.5090287238051  215.997884119301 12.5090287238051  C 215.997884119301 12.5090287238051  222.997681226631 17.5088838004696  222.997681226631 17.5088838004696  C 222.997681226631 17.5088838004696  230.997449349294 22.0087533694676  230.997449349294 22.0087533694676  C 230.997449349294 22.0087533694676  230.997449349294 28.5085649691314  230.997449349294 28.5085649691314  C 230.997449349294 28.5085649691314  240.497173994957 28.5085649691314  240.497173994957 28.5085649691314  C 240.497173994957 28.5085649691314  247.496971102287 33.0084345381293  247.496971102287 33.0084345381293  C 247.496971102287 33.0084345381293  250.996869655952 41.0082026607924  250.996869655952 41.0082026607924  C 250.996869655952 41.0082026607924  247.496971102287 47.5080142604563  247.496971102287 47.5080142604563  C 247.496971102287 47.5080142604563  247.496971102287 52.0078838294543  247.496971102287 52.0078838294543  C 247.496971102287 52.0078838294543  250.996869655952 56.5077533984522  250.996869655952 56.5077533984522  C 250.996869655952 56.5077533984522  243.997072548622 58.507695429118  243.997072548622 58.507695429118  C 243.997072548622 58.507695429118  243.997072548622 63.007564998116  243.997072548622 63.007564998116  C 243.997072548622 63.007564998116  250.996869655952 63.007564998116  250.996869655952 63.007564998116  C 250.996869655952 63.007564998116  255.996724732616 73.5072606591114  255.996724732616 73.5072606591114  C 255.996724732616 73.5072606591114  250.996869655952 84.0069563201067  250.996869655952 84.0069563201067  C 250.996869655952 84.0069563201067  238.497231964291 90.5067679197705  238.497231964291 90.5067679197705  C 238.497231964291 90.5067679197705  218.497811657633 90.5067679197705  218.497811657633 90.5067679197705  C 218.497811657633 90.5067679197705  186.998724674647 106.506304165097  186.998724674647 106.506304165097  C 186.998724674647 106.506304165097  149.99979710733 131.505579548419  149.99979710733 131.505579548419  C 149.99979710733 131.505579548419  122.500594185676 131.505579548419  122.500594185676 131.505579548419  C 122.500594185676 131.505579548419  102.001188371352 150.505028839744  102.001188371352 150.505028839744  C 102.001188371352 150.505028839744  92.5014637256891 153.004956378076  92.5014637256891 153.004956378076  C 92.5014637256891 153.004956378076  88.0015941566911 151.504999855077  88.0015941566911 151.504999855077  C 88.0015941566911 151.504999855077  80.001826034028 151.504999855077  80.001826034028 151.504999855077  C 80.001826034028 151.504999855077  77.0019129880293 154.504912901075  77.0019129880293 154.504912901075  C 77.0019129880293 154.504912901075  73.0020289266978 156.504854931741  73.0020289266978 156.504854931741  C 73.0020289266978 156.504854931741  68.5021593576998 154.504912901075  68.5021593576998 154.504912901075  C 68.5021593576998 154.504912901075  68.5021593576998 150.505028839744  68.5021593576998 150.505028839744  C 68.5021593576998 150.505028839744  65.0022608040347 149.005072316744  65.0022608040347 149.005072316744  C 65.0022608040347 149.005072316744  56.5025071737051 151.504999855077  56.5025071737051 151.504999855077  C 56.5025071737051 151.504999855077  49.0027245587085 151.504999855077  49.0027245587085 151.504999855077  C 49.0027245587085 151.504999855077  45.5028260050433 155.504883916408  45.5028260050433 155.504883916408  C 45.5028260050433 155.504883916408  40.5029709283789 151.504999855077  40.5029709283789 151.504999855077  C 40.5029709283789 151.504999855077  20.5035506217211 163.504652039071  20.5035506217211 163.504652039071  C 20.5035506217211 163.504652039071  12.0037969913915 163.504652039071  12.0037969913915 163.504652039071  C 12.0037969913915 163.504652039071  0.504130315063321 153.004956378076  0.504130315063321 153.004956378076  C 0.504130315063321 153.004956378076  12.0037969913915 147.505115793745  12.0037969913915 147.505115793745  C 12.0037969913915 147.505115793745  7.00394191472708 131.505579548419  7.00394191472708 131.505579548419  C 7.00394191472708 131.505579548419  10.5038404683922 124.005796933422  10.5038404683922 124.005796933422  C 10.5038404683922 124.005796933422  7.00394191472708 118.005970841425  7.00394191472708 118.005970841425  C 7.00394191472708 118.005970841425  13.0037680067244 107.50627518043  13.0037680067244 107.50627518043  C 13.0037680067244 107.50627518043  16.5036665603895 100.006492565433  16.5036665603895 100.006492565433  C 16.5036665603895 100.006492565433  21.503521637054 93.5066809657691  21.503521637054 93.5066809657691  C 21.503521637054 93.5066809657691  27.5033477290513 92.5067099504363  27.5033477290513 92.5067099504363  C 27.5033477290513 92.5067099504363  28.5033187443842 88.0068403814382  28.5033187443842 88.0068403814382  C 28.5033187443842 88.0068403814382  25.0034201907191 85.506912843106  25.0034201907191 85.506912843106  C 25.0034201907191 85.506912843106  26.5033767137185 79.0071012434423  26.5033767137185 79.0071012434423  C 26.5033767137185 79.0071012434423  31.0032462827164 77.5071447204429  31.0032462827164 77.5071447204429  C 31.0032462827164 77.5071447204429  39.502999913046 67.507434567114  39.502999913046 67.507434567114  C 39.502999913046 67.507434567114  44.002869482044 65.5074925364482  44.002869482044 65.5074925364482  C 44.002869482044 65.5074925364482  46.5027970203762 61.0076229674502  46.5027970203762 61.0076229674502  C 46.5027970203762 61.0076229674502  51.5026520970407 60.0076519521174  51.5026520970407 60.0076519521174  C 51.5026520970407 60.0076519521174  55.5025361583722 62.5075794904496  55.5025361583722 62.5075794904496  C 55.5025361583722 62.5075794904496  58.0024636967045 69.0073910901133  58.0024636967045 69.0073910901133  C 58.0024636967045 69.0073910901133  62.5023332657024 69.0073910901133  62.5023332657024 69.0073910901133  C 62.5023332657024 69.0073910901133  65.0022608040347 67.507434567114  65.0022608040347 67.507434567114  C 65.0022608040347 67.507434567114  83.0017390800267 72.007304136112  83.0017390800267 72.007304136112  C 83.0017390800267 72.007304136112  91.5014927103562 75.5072026897772  91.5014927103562 75.5072026897772  C 91.5014927103562 75.5072026897772  93.501434741022 73.5072606591114  93.501434741022 73.5072606591114  C 93.501434741022 73.5072606591114  91.5014927103562 70.0073621054462  91.5014927103562 70.0073621054462  C 91.5014927103562 70.0073621054462  102.001188371352 71.5073186284456  102.001188371352 71.5073186284456  C 102.001188371352 71.5073186284456  108.001014463349 69.0073910901133  108.001014463349 69.0073910901133  C 108.001014463349 69.0073910901133  118.500710124344 74.5072316744443  118.500710124344 74.5072316744443  C 118.500710124344 74.5072316744443  122.000608678009 77.5071447204429  122.000608678009 77.5071447204429  C 122.000608678009 77.5071447204429  125.000521724008 77.5071447204429  125.000521724008 77.5071447204429  C 125.000521724008 77.5071447204429  136.00020289267 82.5069997971074  136.00020289267 82.5069997971074  C 136.00020289267 82.5069997971074  135.000231877337 89.0068113967711  135.000231877337 89.0068113967711  C 135.000231877337 89.0068113967711  127.000463754674 99.0065215501  127.000463754674 99.0065215501  C 127.000463754674 99.0065215501  127.50044926234 106.506304165097  127.50044926234 106.506304165097  C 127.50044926234 106.506304165097  135.000231877337 113.00611576476  135.000231877337 113.00611576476  C 135.000231877337 113.00611576476  143.999971015333 114.006086780093  143.999971015333 114.006086780093  Z " fill-rule="evenodd" />
    </mask>
  </defs>
  <g transform="matrix(1 0 0 1 -844 -426 )">
    <path d="M 143.999971015333 114.006086780093  C 143.999971015333 114.006086780093  147.499869568998 112.006144749428  147.499869568998 112.006144749428  C 147.499869568998 112.006144749428  143 106.506304165097  143 106.506304165097  C 143 106.506304165097  139.500101446335 105.006347642097  139.500101446335 105.006347642097  C 139.500101446335 105.006347642097  139.500101446335 96.5065940117678  139.500101446335 96.5065940117678  C 139.500101446335 96.5065940117678  143 92.5067099504363  143 92.5067099504363  C 143 92.5067099504363  143.499985507666 89.0068113967711  143.499985507666 89.0068113967711  C 143.499985507666 89.0068113967711  148.499840584331 88.0068403814382  148.499840584331 88.0068403814382  C 148.499840584331 88.0068403814382  149.99979710733 82.5069997971074  149.99979710733 82.5069997971074  C 149.99979710733 82.5069997971074  152.999710153329 79.0071012434423  152.999710153329 79.0071012434423  C 152.999710153329 79.0071012434423  147.499869568998 75.5072026897772  147.499869568998 75.5072026897772  C 147.499869568998 75.5072026897772  144.999942030666 70.0073621054462  144.999942030666 70.0073621054462  C 144.999942030666 70.0073621054462  137.000173908003 66.5074635517811  137.000173908003 66.5074635517811  C 137.000173908003 66.5074635517811  140.500072461668 60.0076519521174  140.500072461668 60.0076519521174  C 140.500072461668 60.0076519521174  151.49975363033 53.5078403524536  151.49975363033 53.5078403524536  C 151.49975363033 53.5078403524536  151.49975363033 48.0079997681227  151.49975363033 48.0079997681227  C 151.49975363033 48.0079997681227  156.499608706994 48.0079997681227  156.499608706994 48.0079997681227  C 156.499608706994 48.0079997681227  154.999652183995 44.5081012144576  154.999652183995 44.5081012144576  C 154.999652183995 44.5081012144576  157.499579722327 41.0082026607924  157.499579722327 41.0082026607924  C 157.499579722327 41.0082026607924  157.999565229993 36.5083330917945  157.999565229993 36.5083330917945  C 157.999565229993 36.5083330917945  166.499318860323 34.0084055534622  166.499318860323 34.0084055534622  C 166.499318860323 34.0084055534622  162.499434798991 30.0085214921307  162.499434798991 30.0085214921307  C 162.499434798991 30.0085214921307  160.499492768326 26.0086374307991  160.499492768326 26.0086374307991  C 160.499492768326 26.0086374307991  157.499579722327 24.5086809077998  157.499579722327 24.5086809077998  C 157.499579722327 24.5086809077998  162.499434798991 18.008869308136  162.499434798991 18.008869308136  C 162.499434798991 18.008869308136  154.999652183995 17.5088838004696  154.999652183995 17.5088838004696  C 154.999652183995 17.5088838004696  151.49975363033 21.0087823541347  151.49975363033 21.0087823541347  C 151.49975363033 21.0087823541347  141.500043477001 19.5088258311354  141.500043477001 19.5088258311354  C 141.500043477001 19.5088258311354  135.000231877337 25.5086519231327  135.000231877337 25.5086519231327  C 135.000231877337 25.5086519231327  124.000550708675 24.5086809077998  124.000550708675 24.5086809077998  C 124.000550708675 24.5086809077998  122.000608678009 20.5087968464682  122.000608678009 20.5087968464682  C 122.000608678009 20.5087968464682  126.500478247007 17.5088838004696  126.500478247007 17.5088838004696  C 126.500478247007 17.5088838004696  124.000550708675 13.0090142314716  124.000550708675 13.0090142314716  C 124.000550708675 13.0090142314716  127.000463754674 10.5090866931394  127.000463754674 10.5090866931394  C 127.000463754674 10.5090866931394  125.000521724008 6.5092026318078  125.000521724008 6.5092026318078  C 125.000521724008 6.5092026318078  127.50044926234 3.00930407814269  127.50044926234 3.00930407814269  C 127.50044926234 3.00930407814269  131.000347816005 4.50926060114202  131.000347816005 4.50926060114202  C 131.000347816005 4.50926060114202  144.499956522999 4.50926060114202  144.499956522999 4.50926060114202  C 144.499956522999 4.50926060114202  151.999739137996 6.5092026318078  151.999739137996 6.5092026318078  C 151.999739137996 6.5092026318078  156.499608706994 4.50926060114202  156.499608706994 4.50926060114202  C 156.499608706994 4.50926060114202  169.499231906322 4.50926060114202  169.499231906322 4.50926060114202  C 169.499231906322 4.50926060114202  169.499231906322 7.5091736471407  169.499231906322 7.5091736471407  C 169.499231906322 7.5091736471407  178.998956551984 6.5092026318078  178.998956551984 6.5092026318078  C 178.998956551984 6.5092026318078  196.998434827976 0.509376539810461  196.998434827976 0.509376539810461  C 196.998434827976 0.509376539810461  199.498362366308 7.5091736471407  199.498362366308 7.5091736471407  C 199.498362366308 7.5091736471407  199.498362366308 12.5090287238051  199.498362366308 12.5090287238051  C 199.498362366308 12.5090287238051  215.997884119301 12.5090287238051  215.997884119301 12.5090287238051  C 215.997884119301 12.5090287238051  222.997681226631 17.5088838004696  222.997681226631 17.5088838004696  C 222.997681226631 17.5088838004696  230.997449349294 22.0087533694676  230.997449349294 22.0087533694676  C 230.997449349294 22.0087533694676  230.997449349294 28.5085649691314  230.997449349294 28.5085649691314  C 230.997449349294 28.5085649691314  240.497173994957 28.5085649691314  240.497173994957 28.5085649691314  C 240.497173994957 28.5085649691314  247.496971102287 33.0084345381293  247.496971102287 33.0084345381293  C 247.496971102287 33.0084345381293  250.996869655952 41.0082026607924  250.996869655952 41.0082026607924  C 250.996869655952 41.0082026607924  247.496971102287 47.5080142604563  247.496971102287 47.5080142604563  C 247.496971102287 47.5080142604563  247.496971102287 52.0078838294543  247.496971102287 52.0078838294543  C 247.496971102287 52.0078838294543  250.996869655952 56.5077533984522  250.996869655952 56.5077533984522  C 250.996869655952 56.5077533984522  243.997072548622 58.507695429118  243.997072548622 58.507695429118  C 243.997072548622 58.507695429118  243.997072548622 63.007564998116  243.997072548622 63.007564998116  C 243.997072548622 63.007564998116  250.996869655952 63.007564998116  250.996869655952 63.007564998116  C 250.996869655952 63.007564998116  255.996724732616 73.5072606591114  255.996724732616 73.5072606591114  C 255.996724732616 73.5072606591114  250.996869655952 84.0069563201067  250.996869655952 84.0069563201067  C 250.996869655952 84.0069563201067  238.497231964291 90.5067679197705  238.497231964291 90.5067679197705  C 238.497231964291 90.5067679197705  218.497811657633 90.5067679197705  218.497811657633 90.5067679197705  C 218.497811657633 90.5067679197705  186.998724674647 106.506304165097  186.998724674647 106.506304165097  C 186.998724674647 106.506304165097  149.99979710733 131.505579548419  149.99979710733 131.505579548419  C 149.99979710733 131.505579548419  122.500594185676 131.505579548419  122.500594185676 131.505579548419  C 122.500594185676 131.505579548419  102.001188371352 150.505028839744  102.001188371352 150.505028839744  C 102.001188371352 150.505028839744  92.5014637256891 153.004956378076  92.5014637256891 153.004956378076  C 92.5014637256891 153.004956378076  88.0015941566911 151.504999855077  88.0015941566911 151.504999855077  C 88.0015941566911 151.504999855077  80.001826034028 151.504999855077  80.001826034028 151.504999855077  C 80.001826034028 151.504999855077  77.0019129880293 154.504912901075  77.0019129880293 154.504912901075  C 77.0019129880293 154.504912901075  73.0020289266978 156.504854931741  73.0020289266978 156.504854931741  C 73.0020289266978 156.504854931741  68.5021593576998 154.504912901075  68.5021593576998 154.504912901075  C 68.5021593576998 154.504912901075  68.5021593576998 150.505028839744  68.5021593576998 150.505028839744  C 68.5021593576998 150.505028839744  65.0022608040347 149.005072316744  65.0022608040347 149.005072316744  C 65.0022608040347 149.005072316744  56.5025071737051 151.504999855077  56.5025071737051 151.504999855077  C 56.5025071737051 151.504999855077  49.0027245587085 151.504999855077  49.0027245587085 151.504999855077  C 49.0027245587085 151.504999855077  45.5028260050433 155.504883916408  45.5028260050433 155.504883916408  C 45.5028260050433 155.504883916408  40.5029709283789 151.504999855077  40.5029709283789 151.504999855077  C 40.5029709283789 151.504999855077  20.5035506217211 163.504652039071  20.5035506217211 163.504652039071  C 20.5035506217211 163.504652039071  12.0037969913915 163.504652039071  12.0037969913915 163.504652039071  C 12.0037969913915 163.504652039071  0.504130315063321 153.004956378076  0.504130315063321 153.004956378076  C 0.504130315063321 153.004956378076  12.0037969913915 147.505115793745  12.0037969913915 147.505115793745  C 12.0037969913915 147.505115793745  7.00394191472708 131.505579548419  7.00394191472708 131.505579548419  C 7.00394191472708 131.505579548419  10.5038404683922 124.005796933422  10.5038404683922 124.005796933422  C 10.5038404683922 124.005796933422  7.00394191472708 118.005970841425  7.00394191472708 118.005970841425  C 7.00394191472708 118.005970841425  13.0037680067244 107.50627518043  13.0037680067244 107.50627518043  C 13.0037680067244 107.50627518043  16.5036665603895 100.006492565433  16.5036665603895 100.006492565433  C 16.5036665603895 100.006492565433  21.503521637054 93.5066809657691  21.503521637054 93.5066809657691  C 21.503521637054 93.5066809657691  27.5033477290513 92.5067099504363  27.5033477290513 92.5067099504363  C 27.5033477290513 92.5067099504363  28.5033187443842 88.0068403814382  28.5033187443842 88.0068403814382  C 28.5033187443842 88.0068403814382  25.0034201907191 85.506912843106  25.0034201907191 85.506912843106  C 25.0034201907191 85.506912843106  26.5033767137185 79.0071012434423  26.5033767137185 79.0071012434423  C 26.5033767137185 79.0071012434423  31.0032462827164 77.5071447204429  31.0032462827164 77.5071447204429  C 31.0032462827164 77.5071447204429  39.502999913046 67.507434567114  39.502999913046 67.507434567114  C 39.502999913046 67.507434567114  44.002869482044 65.5074925364482  44.002869482044 65.5074925364482  C 44.002869482044 65.5074925364482  46.5027970203762 61.0076229674502  46.5027970203762 61.0076229674502  C 46.5027970203762 61.0076229674502  51.5026520970407 60.0076519521174  51.5026520970407 60.0076519521174  C 51.5026520970407 60.0076519521174  55.5025361583722 62.5075794904496  55.5025361583722 62.5075794904496  C 55.5025361583722 62.5075794904496  58.0024636967045 69.0073910901133  58.0024636967045 69.0073910901133  C 58.0024636967045 69.0073910901133  62.5023332657024 69.0073910901133  62.5023332657024 69.0073910901133  C 62.5023332657024 69.0073910901133  65.0022608040347 67.507434567114  65.0022608040347 67.507434567114  C 65.0022608040347 67.507434567114  83.0017390800267 72.007304136112  83.0017390800267 72.007304136112  C 83.0017390800267 72.007304136112  91.5014927103562 75.5072026897772  91.5014927103562 75.5072026897772  C 91.5014927103562 75.5072026897772  93.501434741022 73.5072606591114  93.501434741022 73.5072606591114  C 93.501434741022 73.5072606591114  91.5014927103562 70.0073621054462  91.5014927103562 70.0073621054462  C 91.5014927103562 70.0073621054462  102.001188371352 71.5073186284456  102.001188371352 71.5073186284456  C 102.001188371352 71.5073186284456  108.001014463349 69.0073910901133  108.001014463349 69.0073910901133  C 108.001014463349 69.0073910901133  118.500710124344 74.5072316744443  118.500710124344 74.5072316744443  C 118.500710124344 74.5072316744443  122.000608678009 77.5071447204429  122.000608678009 77.5071447204429  C 122.000608678009 77.5071447204429  125.000521724008 77.5071447204429  125.000521724008 77.5071447204429  C 125.000521724008 77.5071447204429  136.00020289267 82.5069997971074  136.00020289267 82.5069997971074  C 136.00020289267 82.5069997971074  135.000231877337 89.0068113967711  135.000231877337 89.0068113967711  C 135.000231877337 89.0068113967711  127.000463754674 99.0065215501  127.000463754674 99.0065215501  C 127.000463754674 99.0065215501  127.50044926234 106.506304165097  127.50044926234 106.506304165097  C 127.50044926234 106.506304165097  135.000231877337 113.00611576476  135.000231877337 113.00611576476  C 135.000231877337 113.00611576476  143.999971015333 114.006086780093  143.999971015333 114.006086780093  Z " fill-rule="nonzero" fill="#033571" stroke="none" transform="matrix(1 0 0 1 844 426 )" />
    <path d="M 143.999971015333 114.006086780093  C 143.999971015333 114.006086780093  147.499869568998 112.006144749428  147.499869568998 112.006144749428  C 147.499869568998 112.006144749428  143 106.506304165097  143 106.506304165097  C 143 106.506304165097  139.500101446335 105.006347642097  139.500101446335 105.006347642097  C 139.500101446335 105.006347642097  139.500101446335 96.5065940117678  139.500101446335 96.5065940117678  C 139.500101446335 96.5065940117678  143 92.5067099504363  143 92.5067099504363  C 143 92.5067099504363  143.499985507666 89.0068113967711  143.499985507666 89.0068113967711  C 143.499985507666 89.0068113967711  148.499840584331 88.0068403814382  148.499840584331 88.0068403814382  C 148.499840584331 88.0068403814382  149.99979710733 82.5069997971074  149.99979710733 82.5069997971074  C 149.99979710733 82.5069997971074  152.999710153329 79.0071012434423  152.999710153329 79.0071012434423  C 152.999710153329 79.0071012434423  147.499869568998 75.5072026897772  147.499869568998 75.5072026897772  C 147.499869568998 75.5072026897772  144.999942030666 70.0073621054462  144.999942030666 70.0073621054462  C 144.999942030666 70.0073621054462  137.000173908003 66.5074635517811  137.000173908003 66.5074635517811  C 137.000173908003 66.5074635517811  140.500072461668 60.0076519521174  140.500072461668 60.0076519521174  C 140.500072461668 60.0076519521174  151.49975363033 53.5078403524536  151.49975363033 53.5078403524536  C 151.49975363033 53.5078403524536  151.49975363033 48.0079997681227  151.49975363033 48.0079997681227  C 151.49975363033 48.0079997681227  156.499608706994 48.0079997681227  156.499608706994 48.0079997681227  C 156.499608706994 48.0079997681227  154.999652183995 44.5081012144576  154.999652183995 44.5081012144576  C 154.999652183995 44.5081012144576  157.499579722327 41.0082026607924  157.499579722327 41.0082026607924  C 157.499579722327 41.0082026607924  157.999565229993 36.5083330917945  157.999565229993 36.5083330917945  C 157.999565229993 36.5083330917945  166.499318860323 34.0084055534622  166.499318860323 34.0084055534622  C 166.499318860323 34.0084055534622  162.499434798991 30.0085214921307  162.499434798991 30.0085214921307  C 162.499434798991 30.0085214921307  160.499492768326 26.0086374307991  160.499492768326 26.0086374307991  C 160.499492768326 26.0086374307991  157.499579722327 24.5086809077998  157.499579722327 24.5086809077998  C 157.499579722327 24.5086809077998  162.499434798991 18.008869308136  162.499434798991 18.008869308136  C 162.499434798991 18.008869308136  154.999652183995 17.5088838004696  154.999652183995 17.5088838004696  C 154.999652183995 17.5088838004696  151.49975363033 21.0087823541347  151.49975363033 21.0087823541347  C 151.49975363033 21.0087823541347  141.500043477001 19.5088258311354  141.500043477001 19.5088258311354  C 141.500043477001 19.5088258311354  135.000231877337 25.5086519231327  135.000231877337 25.5086519231327  C 135.000231877337 25.5086519231327  124.000550708675 24.5086809077998  124.000550708675 24.5086809077998  C 124.000550708675 24.5086809077998  122.000608678009 20.5087968464682  122.000608678009 20.5087968464682  C 122.000608678009 20.5087968464682  126.500478247007 17.5088838004696  126.500478247007 17.5088838004696  C 126.500478247007 17.5088838004696  124.000550708675 13.0090142314716  124.000550708675 13.0090142314716  C 124.000550708675 13.0090142314716  127.000463754674 10.5090866931394  127.000463754674 10.5090866931394  C 127.000463754674 10.5090866931394  125.000521724008 6.5092026318078  125.000521724008 6.5092026318078  C 125.000521724008 6.5092026318078  127.50044926234 3.00930407814269  127.50044926234 3.00930407814269  C 127.50044926234 3.00930407814269  131.000347816005 4.50926060114202  131.000347816005 4.50926060114202  C 131.000347816005 4.50926060114202  144.499956522999 4.50926060114202  144.499956522999 4.50926060114202  C 144.499956522999 4.50926060114202  151.999739137996 6.5092026318078  151.999739137996 6.5092026318078  C 151.999739137996 6.5092026318078  156.499608706994 4.50926060114202  156.499608706994 4.50926060114202  C 156.499608706994 4.50926060114202  169.499231906322 4.50926060114202  169.499231906322 4.50926060114202  C 169.499231906322 4.50926060114202  169.499231906322 7.5091736471407  169.499231906322 7.5091736471407  C 169.499231906322 7.5091736471407  178.998956551984 6.5092026318078  178.998956551984 6.5092026318078  C 178.998956551984 6.5092026318078  196.998434827976 0.509376539810461  196.998434827976 0.509376539810461  C 196.998434827976 0.509376539810461  199.498362366308 7.5091736471407  199.498362366308 7.5091736471407  C 199.498362366308 7.5091736471407  199.498362366308 12.5090287238051  199.498362366308 12.5090287238051  C 199.498362366308 12.5090287238051  215.997884119301 12.5090287238051  215.997884119301 12.5090287238051  C 215.997884119301 12.5090287238051  222.997681226631 17.5088838004696  222.997681226631 17.5088838004696  C 222.997681226631 17.5088838004696  230.997449349294 22.0087533694676  230.997449349294 22.0087533694676  C 230.997449349294 22.0087533694676  230.997449349294 28.5085649691314  230.997449349294 28.5085649691314  C 230.997449349294 28.5085649691314  240.497173994957 28.5085649691314  240.497173994957 28.5085649691314  C 240.497173994957 28.5085649691314  247.496971102287 33.0084345381293  247.496971102287 33.0084345381293  C 247.496971102287 33.0084345381293  250.996869655952 41.0082026607924  250.996869655952 41.0082026607924  C 250.996869655952 41.0082026607924  247.496971102287 47.5080142604563  247.496971102287 47.5080142604563  C 247.496971102287 47.5080142604563  247.496971102287 52.0078838294543  247.496971102287 52.0078838294543  C 247.496971102287 52.0078838294543  250.996869655952 56.5077533984522  250.996869655952 56.5077533984522  C 250.996869655952 56.5077533984522  243.997072548622 58.507695429118  243.997072548622 58.507695429118  C 243.997072548622 58.507695429118  243.997072548622 63.007564998116  243.997072548622 63.007564998116  C 243.997072548622 63.007564998116  250.996869655952 63.007564998116  250.996869655952 63.007564998116  C 250.996869655952 63.007564998116  255.996724732616 73.5072606591114  255.996724732616 73.5072606591114  C 255.996724732616 73.5072606591114  250.996869655952 84.0069563201067  250.996869655952 84.0069563201067  C 250.996869655952 84.0069563201067  238.497231964291 90.5067679197705  238.497231964291 90.5067679197705  C 238.497231964291 90.5067679197705  218.497811657633 90.5067679197705  218.497811657633 90.5067679197705  C 218.497811657633 90.5067679197705  186.998724674647 106.506304165097  186.998724674647 106.506304165097  C 186.998724674647 106.506304165097  149.99979710733 131.505579548419  149.99979710733 131.505579548419  C 149.99979710733 131.505579548419  122.500594185676 131.505579548419  122.500594185676 131.505579548419  C 122.500594185676 131.505579548419  102.001188371352 150.505028839744  102.001188371352 150.505028839744  C 102.001188371352 150.505028839744  92.5014637256891 153.004956378076  92.5014637256891 153.004956378076  C 92.5014637256891 153.004956378076  88.0015941566911 151.504999855077  88.0015941566911 151.504999855077  C 88.0015941566911 151.504999855077  80.001826034028 151.504999855077  80.001826034028 151.504999855077  C 80.001826034028 151.504999855077  77.0019129880293 154.504912901075  77.0019129880293 154.504912901075  C 77.0019129880293 154.504912901075  73.0020289266978 156.504854931741  73.0020289266978 156.504854931741  C 73.0020289266978 156.504854931741  68.5021593576998 154.504912901075  68.5021593576998 154.504912901075  C 68.5021593576998 154.504912901075  68.5021593576998 150.505028839744  68.5021593576998 150.505028839744  C 68.5021593576998 150.505028839744  65.0022608040347 149.005072316744  65.0022608040347 149.005072316744  C 65.0022608040347 149.005072316744  56.5025071737051 151.504999855077  56.5025071737051 151.504999855077  C 56.5025071737051 151.504999855077  49.0027245587085 151.504999855077  49.0027245587085 151.504999855077  C 49.0027245587085 151.504999855077  45.5028260050433 155.504883916408  45.5028260050433 155.504883916408  C 45.5028260050433 155.504883916408  40.5029709283789 151.504999855077  40.5029709283789 151.504999855077  C 40.5029709283789 151.504999855077  20.5035506217211 163.504652039071  20.5035506217211 163.504652039071  C 20.5035506217211 163.504652039071  12.0037969913915 163.504652039071  12.0037969913915 163.504652039071  C 12.0037969913915 163.504652039071  0.504130315063321 153.004956378076  0.504130315063321 153.004956378076  C 0.504130315063321 153.004956378076  12.0037969913915 147.505115793745  12.0037969913915 147.505115793745  C 12.0037969913915 147.505115793745  7.00394191472708 131.505579548419  7.00394191472708 131.505579548419  C 7.00394191472708 131.505579548419  10.5038404683922 124.005796933422  10.5038404683922 124.005796933422  C 10.5038404683922 124.005796933422  7.00394191472708 118.005970841425  7.00394191472708 118.005970841425  C 7.00394191472708 118.005970841425  13.0037680067244 107.50627518043  13.0037680067244 107.50627518043  C 13.0037680067244 107.50627518043  16.5036665603895 100.006492565433  16.5036665603895 100.006492565433  C 16.5036665603895 100.006492565433  21.503521637054 93.5066809657691  21.503521637054 93.5066809657691  C 21.503521637054 93.5066809657691  27.5033477290513 92.5067099504363  27.5033477290513 92.5067099504363  C 27.5033477290513 92.5067099504363  28.5033187443842 88.0068403814382  28.5033187443842 88.0068403814382  C 28.5033187443842 88.0068403814382  25.0034201907191 85.506912843106  25.0034201907191 85.506912843106  C 25.0034201907191 85.506912843106  26.5033767137185 79.0071012434423  26.5033767137185 79.0071012434423  C 26.5033767137185 79.0071012434423  31.0032462827164 77.5071447204429  31.0032462827164 77.5071447204429  C 31.0032462827164 77.5071447204429  39.502999913046 67.507434567114  39.502999913046 67.507434567114  C 39.502999913046 67.507434567114  44.002869482044 65.5074925364482  44.002869482044 65.5074925364482  C 44.002869482044 65.5074925364482  46.5027970203762 61.0076229674502  46.5027970203762 61.0076229674502  C 46.5027970203762 61.0076229674502  51.5026520970407 60.0076519521174  51.5026520970407 60.0076519521174  C 51.5026520970407 60.0076519521174  55.5025361583722 62.5075794904496  55.5025361583722 62.5075794904496  C 55.5025361583722 62.5075794904496  58.0024636967045 69.0073910901133  58.0024636967045 69.0073910901133  C 58.0024636967045 69.0073910901133  62.5023332657024 69.0073910901133  62.5023332657024 69.0073910901133  C 62.5023332657024 69.0073910901133  65.0022608040347 67.507434567114  65.0022608040347 67.507434567114  C 65.0022608040347 67.507434567114  83.0017390800267 72.007304136112  83.0017390800267 72.007304136112  C 83.0017390800267 72.007304136112  91.5014927103562 75.5072026897772  91.5014927103562 75.5072026897772  C 91.5014927103562 75.5072026897772  93.501434741022 73.5072606591114  93.501434741022 73.5072606591114  C 93.501434741022 73.5072606591114  91.5014927103562 70.0073621054462  91.5014927103562 70.0073621054462  C 91.5014927103562 70.0073621054462  102.001188371352 71.5073186284456  102.001188371352 71.5073186284456  C 102.001188371352 71.5073186284456  108.001014463349 69.0073910901133  108.001014463349 69.0073910901133  C 108.001014463349 69.0073910901133  118.500710124344 74.5072316744443  118.500710124344 74.5072316744443  C 118.500710124344 74.5072316744443  122.000608678009 77.5071447204429  122.000608678009 77.5071447204429  C 122.000608678009 77.5071447204429  125.000521724008 77.5071447204429  125.000521724008 77.5071447204429  C 125.000521724008 77.5071447204429  136.00020289267 82.5069997971074  136.00020289267 82.5069997971074  C 136.00020289267 82.5069997971074  135.000231877337 89.0068113967711  135.000231877337 89.0068113967711  C 135.000231877337 89.0068113967711  127.000463754674 99.0065215501  127.000463754674 99.0065215501  C 127.000463754674 99.0065215501  127.50044926234 106.506304165097  127.50044926234 106.506304165097  C 127.50044926234 106.506304165097  135.000231877337 113.00611576476  135.000231877337 113.00611576476  C 135.000231877337 113.00611576476  143.999971015333 114.006086780093  143.999971015333 114.006086780093  Z " stroke-width="1.99994203066578" stroke="#b5eaff" fill="none" stroke-opacity="0.501960784313725" transform="matrix(1 0 0 1 844 426 )" mask="url(#clip1067)" />
  </g>
</svg>