<?xml version="1.0" encoding="utf-8"?>
<svg version="1.1" xmlns:xlink="http://www.w3.org/1999/xlink" width="206px" height="101px" xmlns="http://www.w3.org/2000/svg">
  <defs>
    <mask fill="white" id="clip1065">
      <path d="M 71.0045795774035 15.0101446334889  C 71.0045795774035 15.0101446334889  75.0044636387351 10.0102895568245  75.0044636387351 10.0102895568245  C 75.0044636387351 10.0102895568245  89.504043361062 8.51033303382513  89.504043361062 8.51033303382513  C 89.504043361062 8.51033303382513  99.5037535143908 10.0102895568245  99.5037535143908 10.0102895568245  C 99.5037535143908 10.0102895568245  110.003449175386 7.01037651082581  110.003449175386 7.01037651082581  C 110.003449175386 7.01037651082581  125.502999913046 7.01037651082581  125.502999913046 7.01037651082581  C 125.502999913046 7.01037651082581  128.502912959045 4.01046346482713  128.502912959045 4.01046346482713  C 128.502912959045 4.01046346482713  133.502768035709 4.01046346482713  133.502768035709 4.01046346482713  C 133.502768035709 4.01046346482713  134.502739051042 8.51033303382513  134.502739051042 8.51033303382513  C 134.502739051042 8.51033303382513  143.502478189038 8.51033303382513  143.502478189038 8.51033303382513  C 143.502478189038 8.51033303382513  153.0022028347 4.01046346482713  153.0022028347 4.01046346482713  C 153.0022028347 4.01046346482713  158.502043419031 4.01046346482713  158.502043419031 4.01046346482713  C 158.502043419031 4.01046346482713  165.501840526362 0.0105794034955693  165.501840526362 0.0105794034955693  C 165.501840526362 0.0105794034955693  175.001565172024 0.0105794034955693  175.001565172024 0.0105794034955693  C 175.001565172024 0.0105794034955693  183.001333294687 1.5105359264949  183.001333294687 1.5105359264949  C 183.001333294687 1.5105359264949  190.001130402017 8.01034752615868  190.001130402017 8.01034752615868  C 190.001130402017 8.01034752615868  191.00110141735 15.0101446334889  191.00110141735 15.0101446334889  C 191.00110141735 15.0101446334889  195.000985478682 26.0098258021507  195.000985478682 26.0098258021507  C 195.000985478682 26.0098258021507  205.500681139677 38.5094634938118  205.500681139677 38.5094634938118  C 205.500681139677 38.5094634938118  203.000753601345 39.5094345091447  203.000753601345 39.5094345091447  C 203.000753601345 39.5094345091447  194.001014463349 39.5094345091447  194.001014463349 39.5094345091447  C 194.001014463349 39.5094345091447  190.001130402017 34.0095939248138  190.001130402017 34.0095939248138  C 190.001130402017 34.0095939248138  185.001275325353 32.5096374018145  185.001275325353 32.5096374018145  C 185.001275325353 32.5096374018145  173.001623141358 31.5096663864816  173.001623141358 31.5096663864816  C 173.001623141358 31.5096663864816  169.001739080027 37.0095069708125  169.001739080027 37.0095069708125  C 169.001739080027 37.0095069708125  169.001739080027 41.5093765398105  169.001739080027 41.5093765398105  C 169.001739080027 41.5093765398105  165.501840526362 44.5092895858091  165.501840526362 44.5092895858091  C 165.501840526362 44.5092895858091  169.001739080027 51.0091011854729  169.001739080027 51.0091011854729  C 169.001739080027 51.0091011854729  166.501811541694 55.5089707544709  166.501811541694 55.5089707544709  C 166.501811541694 55.5089707544709  163.001912988029 57.5089127851367  163.001912988029 57.5089127851367  C 163.001912988029 57.5089127851367  164.001884003362 62.5087678618011  164.001884003362 62.5087678618011  C 164.001884003362 62.5087678618011  171.001681110692 62.5087678618011  171.001681110692 62.5087678618011  C 171.001681110692 62.5087678618011  167.501782557027 68.5085939537985  167.501782557027 68.5085939537985  C 167.501782557027 68.5085939537985  161.50195646503 68.5085939537985  161.50195646503 68.5085939537985  C 161.50195646503 68.5085939537985  156.002115880699 75.0084055534622  156.002115880699 75.0084055534622  C 156.002115880699 75.0084055534622  156.002115880699 79.5082751224602  156.002115880699 79.5082751224602  C 156.002115880699 79.5082751224602  149.502304281035 79.5082751224602  149.502304281035 79.5082751224602  C 149.502304281035 79.5082751224602  146.502391235037 76.5083620764616  146.502391235037 76.5083620764616  C 146.502391235037 76.5083620764616  139.502594127706 74.0084345381293  139.502594127706 74.0084345381293  C 139.502594127706 74.0084345381293  137.502652097041 70.5085359844642  137.502652097041 70.5085359844642  C 137.502652097041 70.5085359844642  131.002840497377 70.5085359844642  131.002840497377 70.5085359844642  C 131.002840497377 70.5085359844642  129.502883974378 65.0086954001334  129.502883974378 65.0086954001334  C 129.502883974378 65.0086954001334  124.003043390047 61.5087968464683  124.003043390047 61.5087968464683  C 124.003043390047 61.5087968464683  114.503318744384 62.5087678618011  114.503318744384 62.5087678618011  C 114.503318744384 62.5087678618011  108.503492652387 62.5087678618011  108.503492652387 62.5087678618011  C 108.503492652387 62.5087678618011  101.00371003739 57.5089127851367  101.00371003739 57.5089127851367  C 101.00371003739 57.5089127851367  92.5039564070606 59.5088548158025  92.5039564070606 59.5088548158025  C 92.5039564070606 59.5088548158025  96.5038404683922 64.0087243848005  96.5038404683922 64.0087243848005  C 96.5038404683922 64.0087243848005  95.5038694530593 66.0086664154663  95.5038694530593 66.0086664154663  C 95.5038694530593 66.0086664154663  89.504043361062 65.0086954001334  89.504043361062 65.0086954001334  C 89.504043361062 65.0086954001334  83.5042172690646 61.5087968464683  83.5042172690646 61.5087968464683  C 83.5042172690646 61.5087968464683  77.0044056694009 61.5087968464683  77.0044056694009 61.5087968464683  C 77.0044056694009 61.5087968464683  72.0045505927365 68.5085939537985  72.0045505927365 68.5085939537985  C 72.0045505927365 68.5085939537985  68.0046665314048 74.0084345381293  68.0046665314048 74.0084345381293  C 68.0046665314048 74.0084345381293  64.0047824700733 76.5083620764616  64.0047824700733 76.5083620764616  C 64.0047824700733 76.5083620764616  66.5047100084055 81.0082316454596  66.5047100084055 81.0082316454596  C 66.5047100084055 81.0082316454596  69.0046375467377 83.0081736761254  69.0046375467377 83.0081736761254  C 69.0046375467377 83.0081736761254  66.5047100084055 90.0079707834556  66.5047100084055 90.0079707834556  C 66.5047100084055 90.0079707834556  59.5049129010753 94.5078403524536  59.5049129010753 94.5078403524536  C 59.5049129010753 94.5078403524536  48.5052317324135 99.0077099214516  48.5052317324135 99.0077099214516  C 48.5052317324135 99.0077099214516  43.0053911480827 100.007680936784  43.0053911480827 100.007680936784  C 43.0053911480827 100.007680936784  35.0056230254195 95.5078113677865  35.0056230254195 95.5078113677865  C 35.0056230254195 95.5078113677865  38.0055360714182 87.0080577374569  38.0055360714182 87.0080577374569  C 38.0055360714182 87.0080577374569  30.0057679487551 83.5081591837918  30.0057679487551 83.5081591837918  C 30.0057679487551 83.5081591837918  17.0061447494275 72.0084925074636  17.0061447494275 72.0084925074636  C 17.0061447494275 72.0084925074636  6.00646358076574 73.5084490304629  6.00646358076574 73.5084490304629  C 6.00646358076574 73.5084490304629  0.00663748876840486 64.5087098924669  0.00663748876840486 64.5087098924669  C 0.00663748876840486 64.5087098924669  15.0062027187618 61.5087968464683  15.0062027187618 61.5087968464683  C 15.0062027187618 61.5087968464683  27.5058404104228 61.5087968464683  27.5058404104228 61.5087968464683  C 27.5058404104228 61.5087968464683  35.0056230254195 58.0088982928031  35.0056230254195 58.0088982928031  C 35.0056230254195 58.0088982928031  33.5056665024202 48.5091736471407  33.5056665024202 48.5091736471407  C 33.5056665024202 48.5091736471407  22.5059853337584 48.5091736471407  22.5059853337584 48.5091736471407  C 22.5059853337584 48.5091736471407  20.0060577954262 45.509260601142  20.0060577954262 45.509260601142  C 20.0060577954262 45.509260601142  25.5058983797571 42.5093475551434  25.5058983797571 42.5093475551434  C 25.5058983797571 42.5093475551434  36.5055795484189 44.5092895858091  36.5055795484189 44.5092895858091  C 36.5055795484189 44.5092895858091  40.005478102084 40.5094055244776  40.005478102084 40.5094055244776  C 40.005478102084 40.5094055244776  35.0056230254195 39.0094490014782  35.0056230254195 39.0094490014782  C 35.0056230254195 39.0094490014782  38.0055360714182 29.5097243558158  38.0055360714182 29.5097243558158  C 38.0055360714182 29.5097243558158  40.005478102084 28.0097678328165  40.005478102084 28.0097678328165  C 40.005478102084 28.0097678328165  38.0055360714182 25.5098402944842  38.0055360714182 25.5098402944842  C 38.0055360714182 25.5098402944842  27.5058404104228 24.0098837714849  27.5058404104228 24.0098837714849  C 27.5058404104228 24.0098837714849  33.5056665024202 18.0100576794876  33.5056665024202 18.0100576794876  C 33.5056665024202 18.0100576794876  38.0055360714182 18.0100576794876  38.0055360714182 18.0100576794876  C 38.0055360714182 18.0100576794876  40.005478102084 15.0101446334889  40.005478102084 15.0101446334889  C 40.005478102084 15.0101446334889  51.0051592707458 15.0101446334889  51.0051592707458 15.0101446334889  C 51.0051592707458 15.0101446334889  62.504825947074 18.0100576794876  62.504825947074 18.0100576794876  C 62.504825947074 18.0100576794876  71.0045795774035 15.0101446334889  71.0045795774035 15.0101446334889  Z " fill-rule="evenodd" />
    </mask>
  </defs>
  <g transform="matrix(1 0 0 1 -758 -385 )">
    <path d="M 71.0045795774035 15.0101446334889  C 71.0045795774035 15.0101446334889  75.0044636387351 10.0102895568245  75.0044636387351 10.0102895568245  C 75.0044636387351 10.0102895568245  89.504043361062 8.51033303382513  89.504043361062 8.51033303382513  C 89.504043361062 8.51033303382513  99.5037535143908 10.0102895568245  99.5037535143908 10.0102895568245  C 99.5037535143908 10.0102895568245  110.003449175386 7.01037651082581  110.003449175386 7.01037651082581  C 110.003449175386 7.01037651082581  125.502999913046 7.01037651082581  125.502999913046 7.01037651082581  C 125.502999913046 7.01037651082581  128.502912959045 4.01046346482713  128.502912959045 4.01046346482713  C 128.502912959045 4.01046346482713  133.502768035709 4.01046346482713  133.502768035709 4.01046346482713  C 133.502768035709 4.01046346482713  134.502739051042 8.51033303382513  134.502739051042 8.51033303382513  C 134.502739051042 8.51033303382513  143.502478189038 8.51033303382513  143.502478189038 8.51033303382513  C 143.502478189038 8.51033303382513  153.0022028347 4.01046346482713  153.0022028347 4.01046346482713  C 153.0022028347 4.01046346482713  158.502043419031 4.01046346482713  158.502043419031 4.01046346482713  C 158.502043419031 4.01046346482713  165.501840526362 0.0105794034955693  165.501840526362 0.0105794034955693  C 165.501840526362 0.0105794034955693  175.001565172024 0.0105794034955693  175.001565172024 0.0105794034955693  C 175.001565172024 0.0105794034955693  183.001333294687 1.5105359264949  183.001333294687 1.5105359264949  C 183.001333294687 1.5105359264949  190.001130402017 8.01034752615868  190.001130402017 8.01034752615868  C 190.001130402017 8.01034752615868  191.00110141735 15.0101446334889  191.00110141735 15.0101446334889  C 191.00110141735 15.0101446334889  195.000985478682 26.0098258021507  195.000985478682 26.0098258021507  C 195.000985478682 26.0098258021507  205.500681139677 38.5094634938118  205.500681139677 38.5094634938118  C 205.500681139677 38.5094634938118  203.000753601345 39.5094345091447  203.000753601345 39.5094345091447  C 203.000753601345 39.5094345091447  194.001014463349 39.5094345091447  194.001014463349 39.5094345091447  C 194.001014463349 39.5094345091447  190.001130402017 34.0095939248138  190.001130402017 34.0095939248138  C 190.001130402017 34.0095939248138  185.001275325353 32.5096374018145  185.001275325353 32.5096374018145  C 185.001275325353 32.5096374018145  173.001623141358 31.5096663864816  173.001623141358 31.5096663864816  C 173.001623141358 31.5096663864816  169.001739080027 37.0095069708125  169.001739080027 37.0095069708125  C 169.001739080027 37.0095069708125  169.001739080027 41.5093765398105  169.001739080027 41.5093765398105  C 169.001739080027 41.5093765398105  165.501840526362 44.5092895858091  165.501840526362 44.5092895858091  C 165.501840526362 44.5092895858091  169.001739080027 51.0091011854729  169.001739080027 51.0091011854729  C 169.001739080027 51.0091011854729  166.501811541694 55.5089707544709  166.501811541694 55.5089707544709  C 166.501811541694 55.5089707544709  163.001912988029 57.5089127851367  163.001912988029 57.5089127851367  C 163.001912988029 57.5089127851367  164.001884003362 62.5087678618011  164.001884003362 62.5087678618011  C 164.001884003362 62.5087678618011  171.001681110692 62.5087678618011  171.001681110692 62.5087678618011  C 171.001681110692 62.5087678618011  167.501782557027 68.5085939537985  167.501782557027 68.5085939537985  C 167.501782557027 68.5085939537985  161.50195646503 68.5085939537985  161.50195646503 68.5085939537985  C 161.50195646503 68.5085939537985  156.002115880699 75.0084055534622  156.002115880699 75.0084055534622  C 156.002115880699 75.0084055534622  156.002115880699 79.5082751224602  156.002115880699 79.5082751224602  C 156.002115880699 79.5082751224602  149.502304281035 79.5082751224602  149.502304281035 79.5082751224602  C 149.502304281035 79.5082751224602  146.502391235037 76.5083620764616  146.502391235037 76.5083620764616  C 146.502391235037 76.5083620764616  139.502594127706 74.0084345381293  139.502594127706 74.0084345381293  C 139.502594127706 74.0084345381293  137.502652097041 70.5085359844642  137.502652097041 70.5085359844642  C 137.502652097041 70.5085359844642  131.002840497377 70.5085359844642  131.002840497377 70.5085359844642  C 131.002840497377 70.5085359844642  129.502883974378 65.0086954001334  129.502883974378 65.0086954001334  C 129.502883974378 65.0086954001334  124.003043390047 61.5087968464683  124.003043390047 61.5087968464683  C 124.003043390047 61.5087968464683  114.503318744384 62.5087678618011  114.503318744384 62.5087678618011  C 114.503318744384 62.5087678618011  108.503492652387 62.5087678618011  108.503492652387 62.5087678618011  C 108.503492652387 62.5087678618011  101.00371003739 57.5089127851367  101.00371003739 57.5089127851367  C 101.00371003739 57.5089127851367  92.5039564070606 59.5088548158025  92.5039564070606 59.5088548158025  C 92.5039564070606 59.5088548158025  96.5038404683922 64.0087243848005  96.5038404683922 64.0087243848005  C 96.5038404683922 64.0087243848005  95.5038694530593 66.0086664154663  95.5038694530593 66.0086664154663  C 95.5038694530593 66.0086664154663  89.504043361062 65.0086954001334  89.504043361062 65.0086954001334  C 89.504043361062 65.0086954001334  83.5042172690646 61.5087968464683  83.5042172690646 61.5087968464683  C 83.5042172690646 61.5087968464683  77.0044056694009 61.5087968464683  77.0044056694009 61.5087968464683  C 77.0044056694009 61.5087968464683  72.0045505927365 68.5085939537985  72.0045505927365 68.5085939537985  C 72.0045505927365 68.5085939537985  68.0046665314048 74.0084345381293  68.0046665314048 74.0084345381293  C 68.0046665314048 74.0084345381293  64.0047824700733 76.5083620764616  64.0047824700733 76.5083620764616  C 64.0047824700733 76.5083620764616  66.5047100084055 81.0082316454596  66.5047100084055 81.0082316454596  C 66.5047100084055 81.0082316454596  69.0046375467377 83.0081736761254  69.0046375467377 83.0081736761254  C 69.0046375467377 83.0081736761254  66.5047100084055 90.0079707834556  66.5047100084055 90.0079707834556  C 66.5047100084055 90.0079707834556  59.5049129010753 94.5078403524536  59.5049129010753 94.5078403524536  C 59.5049129010753 94.5078403524536  48.5052317324135 99.0077099214516  48.5052317324135 99.0077099214516  C 48.5052317324135 99.0077099214516  43.0053911480827 100.007680936784  43.0053911480827 100.007680936784  C 43.0053911480827 100.007680936784  35.0056230254195 95.5078113677865  35.0056230254195 95.5078113677865  C 35.0056230254195 95.5078113677865  38.0055360714182 87.0080577374569  38.0055360714182 87.0080577374569  C 38.0055360714182 87.0080577374569  30.0057679487551 83.5081591837918  30.0057679487551 83.5081591837918  C 30.0057679487551 83.5081591837918  17.0061447494275 72.0084925074636  17.0061447494275 72.0084925074636  C 17.0061447494275 72.0084925074636  6.00646358076574 73.5084490304629  6.00646358076574 73.5084490304629  C 6.00646358076574 73.5084490304629  0.00663748876840486 64.5087098924669  0.00663748876840486 64.5087098924669  C 0.00663748876840486 64.5087098924669  15.0062027187618 61.5087968464683  15.0062027187618 61.5087968464683  C 15.0062027187618 61.5087968464683  27.5058404104228 61.5087968464683  27.5058404104228 61.5087968464683  C 27.5058404104228 61.5087968464683  35.0056230254195 58.0088982928031  35.0056230254195 58.0088982928031  C 35.0056230254195 58.0088982928031  33.5056665024202 48.5091736471407  33.5056665024202 48.5091736471407  C 33.5056665024202 48.5091736471407  22.5059853337584 48.5091736471407  22.5059853337584 48.5091736471407  C 22.5059853337584 48.5091736471407  20.0060577954262 45.509260601142  20.0060577954262 45.509260601142  C 20.0060577954262 45.509260601142  25.5058983797571 42.5093475551434  25.5058983797571 42.5093475551434  C 25.5058983797571 42.5093475551434  36.5055795484189 44.5092895858091  36.5055795484189 44.5092895858091  C 36.5055795484189 44.5092895858091  40.005478102084 40.5094055244776  40.005478102084 40.5094055244776  C 40.005478102084 40.5094055244776  35.0056230254195 39.0094490014782  35.0056230254195 39.0094490014782  C 35.0056230254195 39.0094490014782  38.0055360714182 29.5097243558158  38.0055360714182 29.5097243558158  C 38.0055360714182 29.5097243558158  40.005478102084 28.0097678328165  40.005478102084 28.0097678328165  C 40.005478102084 28.0097678328165  38.0055360714182 25.5098402944842  38.0055360714182 25.5098402944842  C 38.0055360714182 25.5098402944842  27.5058404104228 24.0098837714849  27.5058404104228 24.0098837714849  C 27.5058404104228 24.0098837714849  33.5056665024202 18.0100576794876  33.5056665024202 18.0100576794876  C 33.5056665024202 18.0100576794876  38.0055360714182 18.0100576794876  38.0055360714182 18.0100576794876  C 38.0055360714182 18.0100576794876  40.005478102084 15.0101446334889  40.005478102084 15.0101446334889  C 40.005478102084 15.0101446334889  51.0051592707458 15.0101446334889  51.0051592707458 15.0101446334889  C 51.0051592707458 15.0101446334889  62.504825947074 18.0100576794876  62.504825947074 18.0100576794876  C 62.504825947074 18.0100576794876  71.0045795774035 15.0101446334889  71.0045795774035 15.0101446334889  Z " fill-rule="nonzero" fill="#cd1943" stroke="none" transform="matrix(1 0 0 1 758 385 )" />
    <path d="M 71.0045795774035 15.0101446334889  C 71.0045795774035 15.0101446334889  75.0044636387351 10.0102895568245  75.0044636387351 10.0102895568245  C 75.0044636387351 10.0102895568245  89.504043361062 8.51033303382513  89.504043361062 8.51033303382513  C 89.504043361062 8.51033303382513  99.5037535143908 10.0102895568245  99.5037535143908 10.0102895568245  C 99.5037535143908 10.0102895568245  110.003449175386 7.01037651082581  110.003449175386 7.01037651082581  C 110.003449175386 7.01037651082581  125.502999913046 7.01037651082581  125.502999913046 7.01037651082581  C 125.502999913046 7.01037651082581  128.502912959045 4.01046346482713  128.502912959045 4.01046346482713  C 128.502912959045 4.01046346482713  133.502768035709 4.01046346482713  133.502768035709 4.01046346482713  C 133.502768035709 4.01046346482713  134.502739051042 8.51033303382513  134.502739051042 8.51033303382513  C 134.502739051042 8.51033303382513  143.502478189038 8.51033303382513  143.502478189038 8.51033303382513  C 143.502478189038 8.51033303382513  153.0022028347 4.01046346482713  153.0022028347 4.01046346482713  C 153.0022028347 4.01046346482713  158.502043419031 4.01046346482713  158.502043419031 4.01046346482713  C 158.502043419031 4.01046346482713  165.501840526362 0.0105794034955693  165.501840526362 0.0105794034955693  C 165.501840526362 0.0105794034955693  175.001565172024 0.0105794034955693  175.001565172024 0.0105794034955693  C 175.001565172024 0.0105794034955693  183.001333294687 1.5105359264949  183.001333294687 1.5105359264949  C 183.001333294687 1.5105359264949  190.001130402017 8.01034752615868  190.001130402017 8.01034752615868  C 190.001130402017 8.01034752615868  191.00110141735 15.0101446334889  191.00110141735 15.0101446334889  C 191.00110141735 15.0101446334889  195.000985478682 26.0098258021507  195.000985478682 26.0098258021507  C 195.000985478682 26.0098258021507  205.500681139677 38.5094634938118  205.500681139677 38.5094634938118  C 205.500681139677 38.5094634938118  203.000753601345 39.5094345091447  203.000753601345 39.5094345091447  C 203.000753601345 39.5094345091447  194.001014463349 39.5094345091447  194.001014463349 39.5094345091447  C 194.001014463349 39.5094345091447  190.001130402017 34.0095939248138  190.001130402017 34.0095939248138  C 190.001130402017 34.0095939248138  185.001275325353 32.5096374018145  185.001275325353 32.5096374018145  C 185.001275325353 32.5096374018145  173.001623141358 31.5096663864816  173.001623141358 31.5096663864816  C 173.001623141358 31.5096663864816  169.001739080027 37.0095069708125  169.001739080027 37.0095069708125  C 169.001739080027 37.0095069708125  169.001739080027 41.5093765398105  169.001739080027 41.5093765398105  C 169.001739080027 41.5093765398105  165.501840526362 44.5092895858091  165.501840526362 44.5092895858091  C 165.501840526362 44.5092895858091  169.001739080027 51.0091011854729  169.001739080027 51.0091011854729  C 169.001739080027 51.0091011854729  166.501811541694 55.5089707544709  166.501811541694 55.5089707544709  C 166.501811541694 55.5089707544709  163.001912988029 57.5089127851367  163.001912988029 57.5089127851367  C 163.001912988029 57.5089127851367  164.001884003362 62.5087678618011  164.001884003362 62.5087678618011  C 164.001884003362 62.5087678618011  171.001681110692 62.5087678618011  171.001681110692 62.5087678618011  C 171.001681110692 62.5087678618011  167.501782557027 68.5085939537985  167.501782557027 68.5085939537985  C 167.501782557027 68.5085939537985  161.50195646503 68.5085939537985  161.50195646503 68.5085939537985  C 161.50195646503 68.5085939537985  156.002115880699 75.0084055534622  156.002115880699 75.0084055534622  C 156.002115880699 75.0084055534622  156.002115880699 79.5082751224602  156.002115880699 79.5082751224602  C 156.002115880699 79.5082751224602  149.502304281035 79.5082751224602  149.502304281035 79.5082751224602  C 149.502304281035 79.5082751224602  146.502391235037 76.5083620764616  146.502391235037 76.5083620764616  C 146.502391235037 76.5083620764616  139.502594127706 74.0084345381293  139.502594127706 74.0084345381293  C 139.502594127706 74.0084345381293  137.502652097041 70.5085359844642  137.502652097041 70.5085359844642  C 137.502652097041 70.5085359844642  131.002840497377 70.5085359844642  131.002840497377 70.5085359844642  C 131.002840497377 70.5085359844642  129.502883974378 65.0086954001334  129.502883974378 65.0086954001334  C 129.502883974378 65.0086954001334  124.003043390047 61.5087968464683  124.003043390047 61.5087968464683  C 124.003043390047 61.5087968464683  114.503318744384 62.5087678618011  114.503318744384 62.5087678618011  C 114.503318744384 62.5087678618011  108.503492652387 62.5087678618011  108.503492652387 62.5087678618011  C 108.503492652387 62.5087678618011  101.00371003739 57.5089127851367  101.00371003739 57.5089127851367  C 101.00371003739 57.5089127851367  92.5039564070606 59.5088548158025  92.5039564070606 59.5088548158025  C 92.5039564070606 59.5088548158025  96.5038404683922 64.0087243848005  96.5038404683922 64.0087243848005  C 96.5038404683922 64.0087243848005  95.5038694530593 66.0086664154663  95.5038694530593 66.0086664154663  C 95.5038694530593 66.0086664154663  89.504043361062 65.0086954001334  89.504043361062 65.0086954001334  C 89.504043361062 65.0086954001334  83.5042172690646 61.5087968464683  83.5042172690646 61.5087968464683  C 83.5042172690646 61.5087968464683  77.0044056694009 61.5087968464683  77.0044056694009 61.5087968464683  C 77.0044056694009 61.5087968464683  72.0045505927365 68.5085939537985  72.0045505927365 68.5085939537985  C 72.0045505927365 68.5085939537985  68.0046665314048 74.0084345381293  68.0046665314048 74.0084345381293  C 68.0046665314048 74.0084345381293  64.0047824700733 76.5083620764616  64.0047824700733 76.5083620764616  C 64.0047824700733 76.5083620764616  66.5047100084055 81.0082316454596  66.5047100084055 81.0082316454596  C 66.5047100084055 81.0082316454596  69.0046375467377 83.0081736761254  69.0046375467377 83.0081736761254  C 69.0046375467377 83.0081736761254  66.5047100084055 90.0079707834556  66.5047100084055 90.0079707834556  C 66.5047100084055 90.0079707834556  59.5049129010753 94.5078403524536  59.5049129010753 94.5078403524536  C 59.5049129010753 94.5078403524536  48.5052317324135 99.0077099214516  48.5052317324135 99.0077099214516  C 48.5052317324135 99.0077099214516  43.0053911480827 100.007680936784  43.0053911480827 100.007680936784  C 43.0053911480827 100.007680936784  35.0056230254195 95.5078113677865  35.0056230254195 95.5078113677865  C 35.0056230254195 95.5078113677865  38.0055360714182 87.0080577374569  38.0055360714182 87.0080577374569  C 38.0055360714182 87.0080577374569  30.0057679487551 83.5081591837918  30.0057679487551 83.5081591837918  C 30.0057679487551 83.5081591837918  17.0061447494275 72.0084925074636  17.0061447494275 72.0084925074636  C 17.0061447494275 72.0084925074636  6.00646358076574 73.5084490304629  6.00646358076574 73.5084490304629  C 6.00646358076574 73.5084490304629  0.00663748876840486 64.5087098924669  0.00663748876840486 64.5087098924669  C 0.00663748876840486 64.5087098924669  15.0062027187618 61.5087968464683  15.0062027187618 61.5087968464683  C 15.0062027187618 61.5087968464683  27.5058404104228 61.5087968464683  27.5058404104228 61.5087968464683  C 27.5058404104228 61.5087968464683  35.0056230254195 58.0088982928031  35.0056230254195 58.0088982928031  C 35.0056230254195 58.0088982928031  33.5056665024202 48.5091736471407  33.5056665024202 48.5091736471407  C 33.5056665024202 48.5091736471407  22.5059853337584 48.5091736471407  22.5059853337584 48.5091736471407  C 22.5059853337584 48.5091736471407  20.0060577954262 45.509260601142  20.0060577954262 45.509260601142  C 20.0060577954262 45.509260601142  25.5058983797571 42.5093475551434  25.5058983797571 42.5093475551434  C 25.5058983797571 42.5093475551434  36.5055795484189 44.5092895858091  36.5055795484189 44.5092895858091  C 36.5055795484189 44.5092895858091  40.005478102084 40.5094055244776  40.005478102084 40.5094055244776  C 40.005478102084 40.5094055244776  35.0056230254195 39.0094490014782  35.0056230254195 39.0094490014782  C 35.0056230254195 39.0094490014782  38.0055360714182 29.5097243558158  38.0055360714182 29.5097243558158  C 38.0055360714182 29.5097243558158  40.005478102084 28.0097678328165  40.005478102084 28.0097678328165  C 40.005478102084 28.0097678328165  38.0055360714182 25.5098402944842  38.0055360714182 25.5098402944842  C 38.0055360714182 25.5098402944842  27.5058404104228 24.0098837714849  27.5058404104228 24.0098837714849  C 27.5058404104228 24.0098837714849  33.5056665024202 18.0100576794876  33.5056665024202 18.0100576794876  C 33.5056665024202 18.0100576794876  38.0055360714182 18.0100576794876  38.0055360714182 18.0100576794876  C 38.0055360714182 18.0100576794876  40.005478102084 15.0101446334889  40.005478102084 15.0101446334889  C 40.005478102084 15.0101446334889  51.0051592707458 15.0101446334889  51.0051592707458 15.0101446334889  C 51.0051592707458 15.0101446334889  62.504825947074 18.0100576794876  62.504825947074 18.0100576794876  C 62.504825947074 18.0100576794876  71.0045795774035 15.0101446334889  71.0045795774035 15.0101446334889  Z " stroke-width="6" stroke="#ff1616" fill="none" transform="matrix(1 0 0 1 758 385 )" mask="url(#clip1065)" />
  </g>
</svg>