<?xml version="1.0" encoding="utf-8"?>
<svg version="1.1" xmlns:xlink="http://www.w3.org/1999/xlink" width="242px" height="165px" xmlns="http://www.w3.org/2000/svg">
  <defs>
    <mask fill="white" id="clip1066">
      <path d="M 24.0056230254195 77.507434567114  C 24.0056230254195 77.507434567114  32.0053911480827 68.507695429118  32.0053911480827 68.507695429118  C 32.0053911480827 68.507695429118  37.5052317324136 67.0077389061187  37.5052317324136 67.0077389061187  C 37.5052317324136 67.0077389061187  48.5049129010753 62.5078693371207  48.5049129010753 62.5078693371207  C 48.5049129010753 62.5078693371207  55.5047100084055 58.0079997681227  55.5047100084055 58.0079997681227  C 55.5047100084055 58.0079997681227  58.0046375467378 51.0082026607924  58.0046375467378 51.0082026607924  C 58.0046375467378 51.0082026607924  55.5047100084055 49.0082606301267  55.5047100084055 49.0082606301267  C 55.5047100084055 49.0082606301267  53.0047824700733 44.5083910611287  53.0047824700733 44.5083910611287  C 53.0047824700733 44.5083910611287  57.0046665314049 42.0084635227965  57.0046665314049 42.0084635227965  C 57.0046665314049 42.0084635227965  66.0044056694009 29.5088258311354  66.0044056694009 29.5088258311354  C 66.0044056694009 29.5088258311354  72.5042172690647 29.5088258311354  72.5042172690647 29.5088258311354  C 72.5042172690647 29.5088258311354  78.504043361062 33.0087243848005  78.504043361062 33.0087243848005  C 78.504043361062 33.0087243848005  84.5038694530593 34.0086954001333  84.5038694530593 34.0086954001333  C 84.5038694530593 34.0086954001333  85.5038404683922 32.0087533694676  85.5038404683922 32.0087533694676  C 85.5038404683922 32.0087533694676  82.0039419147271 27.5088838004696  82.0039419147271 27.5088838004696  C 82.0039419147271 27.5088838004696  90.0037100373902 25.5089417698038  90.0037100373902 25.5089417698038  C 90.0037100373902 25.5089417698038  96.503521637054 30.5087968464682  96.503521637054 30.5087968464682  C 96.503521637054 30.5087968464682  102.503347729051 30.5087968464682  102.503347729051 30.5087968464682  C 102.503347729051 30.5087968464682  111.503086867047 29.5088258311354  111.503086867047 29.5088258311354  C 111.503086867047 29.5088258311354  117.502912959045 33.0087243848005  117.502912959045 33.0087243848005  C 117.502912959045 33.0087243848005  119.002869482044 38.5085649691314  119.002869482044 38.5085649691314  C 119.002869482044 38.5085649691314  126.502652097041 38.5085649691314  126.502652097041 38.5085649691314  C 126.502652097041 38.5085649691314  128.502594127706 42.0084635227965  128.502594127706 42.0084635227965  C 128.502594127706 42.0084635227965  135.502391235037 44.5083910611287  135.502391235037 44.5083910611287  C 135.502391235037 44.5083910611287  138.502304281035 47.5083041071273  138.502304281035 47.5083041071273  C 138.502304281035 47.5083041071273  145.002115880699 47.5083041071273  145.002115880699 47.5083041071273  C 145.002115880699 47.5083041071273  145.002115880699 43.0084345381293  145.002115880699 43.0084345381293  C 145.002115880699 43.0084345381293  150.50195646503 36.5086229384656  150.50195646503 36.5086229384656  C 150.50195646503 36.5086229384656  156.501782557027 36.5086229384656  156.501782557027 36.5086229384656  C 156.501782557027 36.5086229384656  160.001681110692 30.5087968464682  160.001681110692 30.5087968464682  C 160.001681110692 30.5087968464682  153.001884003362 30.5087968464682  153.001884003362 30.5087968464682  C 153.001884003362 30.5087968464682  152.001912988029 25.5089417698038  152.001912988029 25.5089417698038  C 152.001912988029 25.5089417698038  155.501811541694 23.508999739138  155.501811541694 23.508999739138  C 155.501811541694 23.508999739138  158.001739080027 19.00913017014  158.001739080027 19.00913017014  C 158.001739080027 19.00913017014  154.501840526362 13.5092895858091  154.501840526362 13.5092895858091  C 154.501840526362 13.5092895858091  158.001739080027 10.5093765398105  158.001739080027 10.5093765398105  C 158.001739080027 10.5093765398105  158.001739080027 6.00950697081245  158.001739080027 6.00950697081245  C 158.001739080027 6.00950697081245  162.001623141358 0.50966638648157  162.001623141358 0.50966638648157  C 162.001623141358 0.50966638648157  174.001275325353 1.50963740181447  174.001275325353 1.50963740181447  C 174.001275325353 1.50963740181447  179.001130402017 3.0095939248138  179.001130402017 3.0095939248138  C 179.001130402017 3.0095939248138  183.001014463349 8.50943450914468  183.001014463349 8.50943450914468  C 183.001014463349 8.50943450914468  192.000753601345 8.50943450914468  192.000753601345 8.50943450914468  C 192.000753601345 8.50943450914468  194.500681139677 7.50946349381181  194.500681139677 7.50946349381181  C 194.500681139677 7.50946349381181  203.500420277673 13.0093040781427  203.500420277673 13.0093040781427  C 203.500420277673 13.0093040781427  201.000492739341 16.5092026318078  201.000492739341 16.5092026318078  C 201.000492739341 16.5092026318078  203.000434770007 20.5090866931394  203.000434770007 20.5090866931394  C 203.000434770007 20.5090866931394  200.000521724008 23.0090142314716  200.000521724008 23.0090142314716  C 200.000521724008 23.0090142314716  202.50044926234 27.5088838004696  202.50044926234 27.5088838004696  C 202.50044926234 27.5088838004696  198.000579693342 30.5087968464682  198.000579693342 30.5087968464682  C 198.000579693342 30.5087968464682  200.000521724008 34.5086809077998  200.000521724008 34.5086809077998  C 200.000521724008 34.5086809077998  210.000231877337 35.5086519231327  210.000231877337 35.5086519231327  C 210.000231877337 35.5086519231327  216.500043477001 29.5088258311354  216.500043477001 29.5088258311354  C 216.500043477001 29.5088258311354  226.49975363033 31.0087823541347  226.49975363033 31.0087823541347  C 226.49975363033 31.0087823541347  229.999652183995 27.5088838004696  229.999652183995 27.5088838004696  C 229.999652183995 27.5088838004696  237.499434798991 28.008869308136  237.499434798991 28.008869308136  C 237.499434798991 28.008869308136  232.499579722327 34.5086809077998  232.499579722327 34.5086809077998  C 232.499579722327 34.5086809077998  235.499492768326 36.0086374307991  235.499492768326 36.0086374307991  C 235.499492768326 36.0086374307991  237.499434798991 40.0085214921307  237.499434798991 40.0085214921307  C 237.499434798991 40.0085214921307  241.499318860323 44.0084055534622  241.499318860323 44.0084055534622  C 241.499318860323 44.0084055534622  232.999565229993 46.5083330917945  232.999565229993 46.5083330917945  C 232.999565229993 46.5083330917945  232.499579722327 51.0082026607924  232.499579722327 51.0082026607924  C 232.499579722327 51.0082026607924  229.999652183995 54.5081012144576  229.999652183995 54.5081012144576  C 229.999652183995 54.5081012144576  231.499608706994 58.0079997681227  231.499608706994 58.0079997681227  C 231.499608706994 58.0079997681227  226.49975363033 58.0079997681227  226.49975363033 58.0079997681227  C 226.49975363033 58.0079997681227  226.49975363033 63.5078403524536  226.49975363033 63.5078403524536  C 226.49975363033 63.5078403524536  215.500072461668 70.0076519521174  215.500072461668 70.0076519521174  C 215.500072461668 70.0076519521174  212.000173908003 76.5074635517811  212.000173908003 76.5074635517811  C 212.000173908003 76.5074635517811  219.999942030666 80.0073621054462  219.999942030666 80.0073621054462  C 219.999942030666 80.0073621054462  222.499869568998 86.5071737051101  222.499869568998 86.5071737051101  C 222.499869568998 86.5071737051101  227.999710153329 90.0070722587751  227.999710153329 90.0070722587751  C 227.999710153329 90.0070722587751  224.99979710733 92.5069997971074  224.99979710733 92.5069997971074  C 224.99979710733 92.5069997971074  223.499840584331 98.0068403814382  223.499840584331 98.0068403814382  C 223.499840584331 98.0068403814382  218.999971015333 99.0068113967711  218.999971015333 99.0068113967711  C 218.999971015333 99.0068113967711  218 102.506709950436  218 102.506709950436  C 218 102.506709950436  214.500101446335 106.506594011768  214.500101446335 106.506594011768  C 214.500101446335 106.506594011768  214.500101446335 115.006347642097  214.500101446335 115.006347642097  C 214.500101446335 115.006347642097  218 116.506304165097  218 116.506304165097  C 218 116.506304165097  222.499869568998 122.006144749428  222.499869568998 122.006144749428  C 222.499869568998 122.006144749428  218.999971015333 124.006086780093  218.999971015333 124.006086780093  C 218.999971015333 124.006086780093  210.000231877337 123.00611576476  210.000231877337 123.00611576476  C 210.000231877337 123.00611576476  203.500420277673 116.506304165097  203.500420277673 116.506304165097  C 203.500420277673 116.506304165097  203.000434770007 109.0065215501  203.000434770007 109.0065215501  C 203.000434770007 109.0065215501  210.000231877337 99.0068113967711  210.000231877337 99.0068113967711  C 210.000231877337 99.0068113967711  211.00020289267 92.5069997971074  211.00020289267 92.5069997971074  C 211.00020289267 92.5069997971074  201.000492739341 88.5071157357758  201.000492739341 88.5071157357758  C 201.000492739341 88.5071157357758  198.000579693342 88.5071157357758  198.000579693342 88.5071157357758  C 198.000579693342 88.5071157357758  194.500681139677 85.5072026897772  194.500681139677 85.5072026897772  C 194.500681139677 85.5072026897772  184.000985478682 79.0073910901133  184.000985478682 79.0073910901133  C 184.000985478682 79.0073910901133  178.001159386684 81.5073186284456  178.001159386684 81.5073186284456  C 178.001159386684 81.5073186284456  167.501463725689 80.0073621054462  167.501463725689 80.0073621054462  C 167.501463725689 80.0073621054462  169.501405756355 84.5072316744443  169.501405756355 84.5072316744443  C 169.501405756355 84.5072316744443  167.501463725689 86.5071737051101  167.501463725689 86.5071737051101  C 167.501463725689 86.5071737051101  160.001681110692 83.5072606591114  160.001681110692 83.5072606591114  C 160.001681110692 83.5072606591114  141.502217327034 77.507434567114  141.502217327034 77.507434567114  C 141.502217327034 77.507434567114  138.502304281035 79.0073910901133  138.502304281035 79.0073910901133  C 138.502304281035 79.0073910901133  134.002434712037 79.0073910901133  134.002434712037 79.0073910901133  C 134.002434712037 79.0073910901133  131.502507173705 72.5075794904496  131.502507173705 72.5075794904496  C 131.502507173705 72.5075794904496  127.502623112374 70.0076519521174  127.502623112374 70.0076519521174  C 127.502623112374 70.0076519521174  122.502768035709 71.0076229674502  122.502768035709 71.0076229674502  C 122.502768035709 71.0076229674502  119.002869482044 75.5074925364482  119.002869482044 75.5074925364482  C 119.002869482044 75.5074925364482  114.502999913046 77.507434567114  114.502999913046 77.507434567114  C 114.502999913046 77.507434567114  106.003246282716 88.5071157357758  106.003246282716 88.5071157357758  C 106.003246282716 88.5071157357758  101.503376713718 90.0070722587751  101.503376713718 90.0070722587751  C 101.503376713718 90.0070722587751  100.003420190719 95.506912843106  100.003420190719 95.506912843106  C 100.003420190719 95.506912843106  103.503318744384 98.0068403814382  103.503318744384 98.0068403814382  C 103.503318744384 98.0068403814382  102.503347729051 102.506709950436  102.503347729051 102.506709950436  C 102.503347729051 102.506709950436  96.503521637054 103.506680965769  96.503521637054 103.506680965769  C 96.503521637054 103.506680965769  91.5036665603895 110.006492565433  91.5036665603895 110.006492565433  C 91.5036665603895 110.006492565433  87.0037969913915 119.506217211095  87.0037969913915 119.506217211095  C 87.0037969913915 119.506217211095  82.0039419147271 128.005970841425  82.0039419147271 128.005970841425  C 82.0039419147271 128.005970841425  85.5038404683922 134.005796933422  85.5038404683922 134.005796933422  C 85.5038404683922 134.005796933422  82.0039419147271 141.505579548419  82.0039419147271 141.505579548419  C 82.0039419147271 141.505579548419  84.5038694530593 150.005333178749  84.5038694530593 150.005333178749  C 84.5038694530593 150.005333178749  87.0037969913915 157.505115793745  87.0037969913915 157.505115793745  C 87.0037969913915 157.505115793745  75.5041303150633 163.004956378076  75.5041303150633 163.004956378076  C 75.5041303150633 163.004956378076  69.0043187153996 162.004985362743  69.0043187153996 162.004985362743  C 69.0043187153996 162.004985362743  58.0046375467378 164.504912901075  58.0046375467378 164.504912901075  C 58.0046375467378 164.504912901075  53.0047824700733 159.505057824411  53.0047824700733 159.505057824411  C 53.0047824700733 159.505057824411  43.5050578244109 159.505057824411  43.5050578244109 159.505057824411  C 43.5050578244109 159.505057824411  42.505086809078 156.505144778412  42.505086809078 156.505144778412  C 42.505086809078 156.505144778412  37.5052317324136 153.005246224747  37.5052317324136 153.005246224747  C 37.5052317324136 153.005246224747  39.0051882554129 145.005478102084  39.0051882554129 145.005478102084  C 39.0051882554129 145.005478102084  46.5049708704096 139.005652010087  46.5049708704096 139.005652010087  C 46.5049708704096 139.005652010087  41.5051157937451 131.005883887424  41.5051157937451 131.005883887424  C 41.5051157937451 131.005883887424  34.5053186864149 140.00562302542  34.5053186864149 140.00562302542  C 34.5053186864149 140.00562302542  24.0056230254195 140.00562302542  24.0056230254195 140.00562302542  C 24.0056230254195 140.00562302542  17.5058114257558 142.505550563752  17.5058114257558 142.505550563752  C 17.5058114257558 142.505550563752  10.0060288107591 141.505579548419  10.0060288107591 141.505579548419  C 10.0060288107591 141.505579548419  6.00614474942753 138.005680994754  6.00614474942753 138.005680994754  C 6.00614474942753 138.005680994754  2.00626068809598 139.005652010087  2.00626068809598 139.005652010087  C 2.00626068809598 139.005652010087  0.506304165096651 131.50586939509  0.506304165096651 131.50586939509  C 0.506304165096651 131.50586939509  6.00614474942753 125.006057795426  6.00614474942753 125.006057795426  C 6.00614474942753 125.006057795426  11.5059853337584 121.006173734095  11.5059853337584 121.006173734095  C 11.5059853337584 121.006173734095  4.00620271876176 113.006405611432  4.00620271876176 113.006405611432  C 4.00620271876176 113.006405611432  6.00614474942753 101.506738935103  6.00614474942753 101.506738935103  C 6.00614474942753 101.506738935103  0.506304165096651 101.506738935103  0.506304165096651 101.506738935103  C 0.506304165096651 101.506738935103  6.00614474942753 95.506912843106  6.00614474942753 95.506912843106  C 6.00614474942753 95.506912843106  6.00614474942753 91.5070287817745  6.00614474942753 91.5070287817745  C 6.00614474942753 91.5070287817745  14.5058983797571 89.5070867511087  14.5058983797571 89.5070867511087  C 14.5058983797571 89.5070867511087  16.5058404104229 81.5073186284456  16.5058404104229 81.5073186284456  C 16.5058404104229 81.5073186284456  24.0056230254195 77.507434567114  24.0056230254195 77.507434567114  Z " fill-rule="evenodd" />
    </mask>
  </defs>
  <g transform="matrix(1 0 0 1 -769 -416 )">
    <path d="M 24.0056230254195 77.507434567114  C 24.0056230254195 77.507434567114  32.0053911480827 68.507695429118  32.0053911480827 68.507695429118  C 32.0053911480827 68.507695429118  37.5052317324136 67.0077389061187  37.5052317324136 67.0077389061187  C 37.5052317324136 67.0077389061187  48.5049129010753 62.5078693371207  48.5049129010753 62.5078693371207  C 48.5049129010753 62.5078693371207  55.5047100084055 58.0079997681227  55.5047100084055 58.0079997681227  C 55.5047100084055 58.0079997681227  58.0046375467378 51.0082026607924  58.0046375467378 51.0082026607924  C 58.0046375467378 51.0082026607924  55.5047100084055 49.0082606301267  55.5047100084055 49.0082606301267  C 55.5047100084055 49.0082606301267  53.0047824700733 44.5083910611287  53.0047824700733 44.5083910611287  C 53.0047824700733 44.5083910611287  57.0046665314049 42.0084635227965  57.0046665314049 42.0084635227965  C 57.0046665314049 42.0084635227965  66.0044056694009 29.5088258311354  66.0044056694009 29.5088258311354  C 66.0044056694009 29.5088258311354  72.5042172690647 29.5088258311354  72.5042172690647 29.5088258311354  C 72.5042172690647 29.5088258311354  78.504043361062 33.0087243848005  78.504043361062 33.0087243848005  C 78.504043361062 33.0087243848005  84.5038694530593 34.0086954001333  84.5038694530593 34.0086954001333  C 84.5038694530593 34.0086954001333  85.5038404683922 32.0087533694676  85.5038404683922 32.0087533694676  C 85.5038404683922 32.0087533694676  82.0039419147271 27.5088838004696  82.0039419147271 27.5088838004696  C 82.0039419147271 27.5088838004696  90.0037100373902 25.5089417698038  90.0037100373902 25.5089417698038  C 90.0037100373902 25.5089417698038  96.503521637054 30.5087968464682  96.503521637054 30.5087968464682  C 96.503521637054 30.5087968464682  102.503347729051 30.5087968464682  102.503347729051 30.5087968464682  C 102.503347729051 30.5087968464682  111.503086867047 29.5088258311354  111.503086867047 29.5088258311354  C 111.503086867047 29.5088258311354  117.502912959045 33.0087243848005  117.502912959045 33.0087243848005  C 117.502912959045 33.0087243848005  119.002869482044 38.5085649691314  119.002869482044 38.5085649691314  C 119.002869482044 38.5085649691314  126.502652097041 38.5085649691314  126.502652097041 38.5085649691314  C 126.502652097041 38.5085649691314  128.502594127706 42.0084635227965  128.502594127706 42.0084635227965  C 128.502594127706 42.0084635227965  135.502391235037 44.5083910611287  135.502391235037 44.5083910611287  C 135.502391235037 44.5083910611287  138.502304281035 47.5083041071273  138.502304281035 47.5083041071273  C 138.502304281035 47.5083041071273  145.002115880699 47.5083041071273  145.002115880699 47.5083041071273  C 145.002115880699 47.5083041071273  145.002115880699 43.0084345381293  145.002115880699 43.0084345381293  C 145.002115880699 43.0084345381293  150.50195646503 36.5086229384656  150.50195646503 36.5086229384656  C 150.50195646503 36.5086229384656  156.501782557027 36.5086229384656  156.501782557027 36.5086229384656  C 156.501782557027 36.5086229384656  160.001681110692 30.5087968464682  160.001681110692 30.5087968464682  C 160.001681110692 30.5087968464682  153.001884003362 30.5087968464682  153.001884003362 30.5087968464682  C 153.001884003362 30.5087968464682  152.001912988029 25.5089417698038  152.001912988029 25.5089417698038  C 152.001912988029 25.5089417698038  155.501811541694 23.508999739138  155.501811541694 23.508999739138  C 155.501811541694 23.508999739138  158.001739080027 19.00913017014  158.001739080027 19.00913017014  C 158.001739080027 19.00913017014  154.501840526362 13.5092895858091  154.501840526362 13.5092895858091  C 154.501840526362 13.5092895858091  158.001739080027 10.5093765398105  158.001739080027 10.5093765398105  C 158.001739080027 10.5093765398105  158.001739080027 6.00950697081245  158.001739080027 6.00950697081245  C 158.001739080027 6.00950697081245  162.001623141358 0.50966638648157  162.001623141358 0.50966638648157  C 162.001623141358 0.50966638648157  174.001275325353 1.50963740181447  174.001275325353 1.50963740181447  C 174.001275325353 1.50963740181447  179.001130402017 3.0095939248138  179.001130402017 3.0095939248138  C 179.001130402017 3.0095939248138  183.001014463349 8.50943450914468  183.001014463349 8.50943450914468  C 183.001014463349 8.50943450914468  192.000753601345 8.50943450914468  192.000753601345 8.50943450914468  C 192.000753601345 8.50943450914468  194.500681139677 7.50946349381181  194.500681139677 7.50946349381181  C 194.500681139677 7.50946349381181  203.500420277673 13.0093040781427  203.500420277673 13.0093040781427  C 203.500420277673 13.0093040781427  201.000492739341 16.5092026318078  201.000492739341 16.5092026318078  C 201.000492739341 16.5092026318078  203.000434770007 20.5090866931394  203.000434770007 20.5090866931394  C 203.000434770007 20.5090866931394  200.000521724008 23.0090142314716  200.000521724008 23.0090142314716  C 200.000521724008 23.0090142314716  202.50044926234 27.5088838004696  202.50044926234 27.5088838004696  C 202.50044926234 27.5088838004696  198.000579693342 30.5087968464682  198.000579693342 30.5087968464682  C 198.000579693342 30.5087968464682  200.000521724008 34.5086809077998  200.000521724008 34.5086809077998  C 200.000521724008 34.5086809077998  210.000231877337 35.5086519231327  210.000231877337 35.5086519231327  C 210.000231877337 35.5086519231327  216.500043477001 29.5088258311354  216.500043477001 29.5088258311354  C 216.500043477001 29.5088258311354  226.49975363033 31.0087823541347  226.49975363033 31.0087823541347  C 226.49975363033 31.0087823541347  229.999652183995 27.5088838004696  229.999652183995 27.5088838004696  C 229.999652183995 27.5088838004696  237.499434798991 28.008869308136  237.499434798991 28.008869308136  C 237.499434798991 28.008869308136  232.499579722327 34.5086809077998  232.499579722327 34.5086809077998  C 232.499579722327 34.5086809077998  235.499492768326 36.0086374307991  235.499492768326 36.0086374307991  C 235.499492768326 36.0086374307991  237.499434798991 40.0085214921307  237.499434798991 40.0085214921307  C 237.499434798991 40.0085214921307  241.499318860323 44.0084055534622  241.499318860323 44.0084055534622  C 241.499318860323 44.0084055534622  232.999565229993 46.5083330917945  232.999565229993 46.5083330917945  C 232.999565229993 46.5083330917945  232.499579722327 51.0082026607924  232.499579722327 51.0082026607924  C 232.499579722327 51.0082026607924  229.999652183995 54.5081012144576  229.999652183995 54.5081012144576  C 229.999652183995 54.5081012144576  231.499608706994 58.0079997681227  231.499608706994 58.0079997681227  C 231.499608706994 58.0079997681227  226.49975363033 58.0079997681227  226.49975363033 58.0079997681227  C 226.49975363033 58.0079997681227  226.49975363033 63.5078403524536  226.49975363033 63.5078403524536  C 226.49975363033 63.5078403524536  215.500072461668 70.0076519521174  215.500072461668 70.0076519521174  C 215.500072461668 70.0076519521174  212.000173908003 76.5074635517811  212.000173908003 76.5074635517811  C 212.000173908003 76.5074635517811  219.999942030666 80.0073621054462  219.999942030666 80.0073621054462  C 219.999942030666 80.0073621054462  222.499869568998 86.5071737051101  222.499869568998 86.5071737051101  C 222.499869568998 86.5071737051101  227.999710153329 90.0070722587751  227.999710153329 90.0070722587751  C 227.999710153329 90.0070722587751  224.99979710733 92.5069997971074  224.99979710733 92.5069997971074  C 224.99979710733 92.5069997971074  223.499840584331 98.0068403814382  223.499840584331 98.0068403814382  C 223.499840584331 98.0068403814382  218.999971015333 99.0068113967711  218.999971015333 99.0068113967711  C 218.999971015333 99.0068113967711  218 102.506709950436  218 102.506709950436  C 218 102.506709950436  214.500101446335 106.506594011768  214.500101446335 106.506594011768  C 214.500101446335 106.506594011768  214.500101446335 115.006347642097  214.500101446335 115.006347642097  C 214.500101446335 115.006347642097  218 116.506304165097  218 116.506304165097  C 218 116.506304165097  222.499869568998 122.006144749428  222.499869568998 122.006144749428  C 222.499869568998 122.006144749428  218.999971015333 124.006086780093  218.999971015333 124.006086780093  C 218.999971015333 124.006086780093  210.000231877337 123.00611576476  210.000231877337 123.00611576476  C 210.000231877337 123.00611576476  203.500420277673 116.506304165097  203.500420277673 116.506304165097  C 203.500420277673 116.506304165097  203.000434770007 109.0065215501  203.000434770007 109.0065215501  C 203.000434770007 109.0065215501  210.000231877337 99.0068113967711  210.000231877337 99.0068113967711  C 210.000231877337 99.0068113967711  211.00020289267 92.5069997971074  211.00020289267 92.5069997971074  C 211.00020289267 92.5069997971074  201.000492739341 88.5071157357758  201.000492739341 88.5071157357758  C 201.000492739341 88.5071157357758  198.000579693342 88.5071157357758  198.000579693342 88.5071157357758  C 198.000579693342 88.5071157357758  194.500681139677 85.5072026897772  194.500681139677 85.5072026897772  C 194.500681139677 85.5072026897772  184.000985478682 79.0073910901133  184.000985478682 79.0073910901133  C 184.000985478682 79.0073910901133  178.001159386684 81.5073186284456  178.001159386684 81.5073186284456  C 178.001159386684 81.5073186284456  167.501463725689 80.0073621054462  167.501463725689 80.0073621054462  C 167.501463725689 80.0073621054462  169.501405756355 84.5072316744443  169.501405756355 84.5072316744443  C 169.501405756355 84.5072316744443  167.501463725689 86.5071737051101  167.501463725689 86.5071737051101  C 167.501463725689 86.5071737051101  160.001681110692 83.5072606591114  160.001681110692 83.5072606591114  C 160.001681110692 83.5072606591114  141.502217327034 77.507434567114  141.502217327034 77.507434567114  C 141.502217327034 77.507434567114  138.502304281035 79.0073910901133  138.502304281035 79.0073910901133  C 138.502304281035 79.0073910901133  134.002434712037 79.0073910901133  134.002434712037 79.0073910901133  C 134.002434712037 79.0073910901133  131.502507173705 72.5075794904496  131.502507173705 72.5075794904496  C 131.502507173705 72.5075794904496  127.502623112374 70.0076519521174  127.502623112374 70.0076519521174  C 127.502623112374 70.0076519521174  122.502768035709 71.0076229674502  122.502768035709 71.0076229674502  C 122.502768035709 71.0076229674502  119.002869482044 75.5074925364482  119.002869482044 75.5074925364482  C 119.002869482044 75.5074925364482  114.502999913046 77.507434567114  114.502999913046 77.507434567114  C 114.502999913046 77.507434567114  106.003246282716 88.5071157357758  106.003246282716 88.5071157357758  C 106.003246282716 88.5071157357758  101.503376713718 90.0070722587751  101.503376713718 90.0070722587751  C 101.503376713718 90.0070722587751  100.003420190719 95.506912843106  100.003420190719 95.506912843106  C 100.003420190719 95.506912843106  103.503318744384 98.0068403814382  103.503318744384 98.0068403814382  C 103.503318744384 98.0068403814382  102.503347729051 102.506709950436  102.503347729051 102.506709950436  C 102.503347729051 102.506709950436  96.503521637054 103.506680965769  96.503521637054 103.506680965769  C 96.503521637054 103.506680965769  91.5036665603895 110.006492565433  91.5036665603895 110.006492565433  C 91.5036665603895 110.006492565433  87.0037969913915 119.506217211095  87.0037969913915 119.506217211095  C 87.0037969913915 119.506217211095  82.0039419147271 128.005970841425  82.0039419147271 128.005970841425  C 82.0039419147271 128.005970841425  85.5038404683922 134.005796933422  85.5038404683922 134.005796933422  C 85.5038404683922 134.005796933422  82.0039419147271 141.505579548419  82.0039419147271 141.505579548419  C 82.0039419147271 141.505579548419  84.5038694530593 150.005333178749  84.5038694530593 150.005333178749  C 84.5038694530593 150.005333178749  87.0037969913915 157.505115793745  87.0037969913915 157.505115793745  C 87.0037969913915 157.505115793745  75.5041303150633 163.004956378076  75.5041303150633 163.004956378076  C 75.5041303150633 163.004956378076  69.0043187153996 162.004985362743  69.0043187153996 162.004985362743  C 69.0043187153996 162.004985362743  58.0046375467378 164.504912901075  58.0046375467378 164.504912901075  C 58.0046375467378 164.504912901075  53.0047824700733 159.505057824411  53.0047824700733 159.505057824411  C 53.0047824700733 159.505057824411  43.5050578244109 159.505057824411  43.5050578244109 159.505057824411  C 43.5050578244109 159.505057824411  42.505086809078 156.505144778412  42.505086809078 156.505144778412  C 42.505086809078 156.505144778412  37.5052317324136 153.005246224747  37.5052317324136 153.005246224747  C 37.5052317324136 153.005246224747  39.0051882554129 145.005478102084  39.0051882554129 145.005478102084  C 39.0051882554129 145.005478102084  46.5049708704096 139.005652010087  46.5049708704096 139.005652010087  C 46.5049708704096 139.005652010087  41.5051157937451 131.005883887424  41.5051157937451 131.005883887424  C 41.5051157937451 131.005883887424  34.5053186864149 140.00562302542  34.5053186864149 140.00562302542  C 34.5053186864149 140.00562302542  24.0056230254195 140.00562302542  24.0056230254195 140.00562302542  C 24.0056230254195 140.00562302542  17.5058114257558 142.505550563752  17.5058114257558 142.505550563752  C 17.5058114257558 142.505550563752  10.0060288107591 141.505579548419  10.0060288107591 141.505579548419  C 10.0060288107591 141.505579548419  6.00614474942753 138.005680994754  6.00614474942753 138.005680994754  C 6.00614474942753 138.005680994754  2.00626068809598 139.005652010087  2.00626068809598 139.005652010087  C 2.00626068809598 139.005652010087  0.506304165096651 131.50586939509  0.506304165096651 131.50586939509  C 0.506304165096651 131.50586939509  6.00614474942753 125.006057795426  6.00614474942753 125.006057795426  C 6.00614474942753 125.006057795426  11.5059853337584 121.006173734095  11.5059853337584 121.006173734095  C 11.5059853337584 121.006173734095  4.00620271876176 113.006405611432  4.00620271876176 113.006405611432  C 4.00620271876176 113.006405611432  6.00614474942753 101.506738935103  6.00614474942753 101.506738935103  C 6.00614474942753 101.506738935103  0.506304165096651 101.506738935103  0.506304165096651 101.506738935103  C 0.506304165096651 101.506738935103  6.00614474942753 95.506912843106  6.00614474942753 95.506912843106  C 6.00614474942753 95.506912843106  6.00614474942753 91.5070287817745  6.00614474942753 91.5070287817745  C 6.00614474942753 91.5070287817745  14.5058983797571 89.5070867511087  14.5058983797571 89.5070867511087  C 14.5058983797571 89.5070867511087  16.5058404104229 81.5073186284456  16.5058404104229 81.5073186284456  C 16.5058404104229 81.5073186284456  24.0056230254195 77.507434567114  24.0056230254195 77.507434567114  Z " fill-rule="nonzero" fill="#033571" stroke="none" transform="matrix(1 0 0 1 769 416 )" />
    <path d="M 24.0056230254195 77.507434567114  C 24.0056230254195 77.507434567114  32.0053911480827 68.507695429118  32.0053911480827 68.507695429118  C 32.0053911480827 68.507695429118  37.5052317324136 67.0077389061187  37.5052317324136 67.0077389061187  C 37.5052317324136 67.0077389061187  48.5049129010753 62.5078693371207  48.5049129010753 62.5078693371207  C 48.5049129010753 62.5078693371207  55.5047100084055 58.0079997681227  55.5047100084055 58.0079997681227  C 55.5047100084055 58.0079997681227  58.0046375467378 51.0082026607924  58.0046375467378 51.0082026607924  C 58.0046375467378 51.0082026607924  55.5047100084055 49.0082606301267  55.5047100084055 49.0082606301267  C 55.5047100084055 49.0082606301267  53.0047824700733 44.5083910611287  53.0047824700733 44.5083910611287  C 53.0047824700733 44.5083910611287  57.0046665314049 42.0084635227965  57.0046665314049 42.0084635227965  C 57.0046665314049 42.0084635227965  66.0044056694009 29.5088258311354  66.0044056694009 29.5088258311354  C 66.0044056694009 29.5088258311354  72.5042172690647 29.5088258311354  72.5042172690647 29.5088258311354  C 72.5042172690647 29.5088258311354  78.504043361062 33.0087243848005  78.504043361062 33.0087243848005  C 78.504043361062 33.0087243848005  84.5038694530593 34.0086954001333  84.5038694530593 34.0086954001333  C 84.5038694530593 34.0086954001333  85.5038404683922 32.0087533694676  85.5038404683922 32.0087533694676  C 85.5038404683922 32.0087533694676  82.0039419147271 27.5088838004696  82.0039419147271 27.5088838004696  C 82.0039419147271 27.5088838004696  90.0037100373902 25.5089417698038  90.0037100373902 25.5089417698038  C 90.0037100373902 25.5089417698038  96.503521637054 30.5087968464682  96.503521637054 30.5087968464682  C 96.503521637054 30.5087968464682  102.503347729051 30.5087968464682  102.503347729051 30.5087968464682  C 102.503347729051 30.5087968464682  111.503086867047 29.5088258311354  111.503086867047 29.5088258311354  C 111.503086867047 29.5088258311354  117.502912959045 33.0087243848005  117.502912959045 33.0087243848005  C 117.502912959045 33.0087243848005  119.002869482044 38.5085649691314  119.002869482044 38.5085649691314  C 119.002869482044 38.5085649691314  126.502652097041 38.5085649691314  126.502652097041 38.5085649691314  C 126.502652097041 38.5085649691314  128.502594127706 42.0084635227965  128.502594127706 42.0084635227965  C 128.502594127706 42.0084635227965  135.502391235037 44.5083910611287  135.502391235037 44.5083910611287  C 135.502391235037 44.5083910611287  138.502304281035 47.5083041071273  138.502304281035 47.5083041071273  C 138.502304281035 47.5083041071273  145.002115880699 47.5083041071273  145.002115880699 47.5083041071273  C 145.002115880699 47.5083041071273  145.002115880699 43.0084345381293  145.002115880699 43.0084345381293  C 145.002115880699 43.0084345381293  150.50195646503 36.5086229384656  150.50195646503 36.5086229384656  C 150.50195646503 36.5086229384656  156.501782557027 36.5086229384656  156.501782557027 36.5086229384656  C 156.501782557027 36.5086229384656  160.001681110692 30.5087968464682  160.001681110692 30.5087968464682  C 160.001681110692 30.5087968464682  153.001884003362 30.5087968464682  153.001884003362 30.5087968464682  C 153.001884003362 30.5087968464682  152.001912988029 25.5089417698038  152.001912988029 25.5089417698038  C 152.001912988029 25.5089417698038  155.501811541694 23.508999739138  155.501811541694 23.508999739138  C 155.501811541694 23.508999739138  158.001739080027 19.00913017014  158.001739080027 19.00913017014  C 158.001739080027 19.00913017014  154.501840526362 13.5092895858091  154.501840526362 13.5092895858091  C 154.501840526362 13.5092895858091  158.001739080027 10.5093765398105  158.001739080027 10.5093765398105  C 158.001739080027 10.5093765398105  158.001739080027 6.00950697081245  158.001739080027 6.00950697081245  C 158.001739080027 6.00950697081245  162.001623141358 0.50966638648157  162.001623141358 0.50966638648157  C 162.001623141358 0.50966638648157  174.001275325353 1.50963740181447  174.001275325353 1.50963740181447  C 174.001275325353 1.50963740181447  179.001130402017 3.0095939248138  179.001130402017 3.0095939248138  C 179.001130402017 3.0095939248138  183.001014463349 8.50943450914468  183.001014463349 8.50943450914468  C 183.001014463349 8.50943450914468  192.000753601345 8.50943450914468  192.000753601345 8.50943450914468  C 192.000753601345 8.50943450914468  194.500681139677 7.50946349381181  194.500681139677 7.50946349381181  C 194.500681139677 7.50946349381181  203.500420277673 13.0093040781427  203.500420277673 13.0093040781427  C 203.500420277673 13.0093040781427  201.000492739341 16.5092026318078  201.000492739341 16.5092026318078  C 201.000492739341 16.5092026318078  203.000434770007 20.5090866931394  203.000434770007 20.5090866931394  C 203.000434770007 20.5090866931394  200.000521724008 23.0090142314716  200.000521724008 23.0090142314716  C 200.000521724008 23.0090142314716  202.50044926234 27.5088838004696  202.50044926234 27.5088838004696  C 202.50044926234 27.5088838004696  198.000579693342 30.5087968464682  198.000579693342 30.5087968464682  C 198.000579693342 30.5087968464682  200.000521724008 34.5086809077998  200.000521724008 34.5086809077998  C 200.000521724008 34.5086809077998  210.000231877337 35.5086519231327  210.000231877337 35.5086519231327  C 210.000231877337 35.5086519231327  216.500043477001 29.5088258311354  216.500043477001 29.5088258311354  C 216.500043477001 29.5088258311354  226.49975363033 31.0087823541347  226.49975363033 31.0087823541347  C 226.49975363033 31.0087823541347  229.999652183995 27.5088838004696  229.999652183995 27.5088838004696  C 229.999652183995 27.5088838004696  237.499434798991 28.008869308136  237.499434798991 28.008869308136  C 237.499434798991 28.008869308136  232.499579722327 34.5086809077998  232.499579722327 34.5086809077998  C 232.499579722327 34.5086809077998  235.499492768326 36.0086374307991  235.499492768326 36.0086374307991  C 235.499492768326 36.0086374307991  237.499434798991 40.0085214921307  237.499434798991 40.0085214921307  C 237.499434798991 40.0085214921307  241.499318860323 44.0084055534622  241.499318860323 44.0084055534622  C 241.499318860323 44.0084055534622  232.999565229993 46.5083330917945  232.999565229993 46.5083330917945  C 232.999565229993 46.5083330917945  232.499579722327 51.0082026607924  232.499579722327 51.0082026607924  C 232.499579722327 51.0082026607924  229.999652183995 54.5081012144576  229.999652183995 54.5081012144576  C 229.999652183995 54.5081012144576  231.499608706994 58.0079997681227  231.499608706994 58.0079997681227  C 231.499608706994 58.0079997681227  226.49975363033 58.0079997681227  226.49975363033 58.0079997681227  C 226.49975363033 58.0079997681227  226.49975363033 63.5078403524536  226.49975363033 63.5078403524536  C 226.49975363033 63.5078403524536  215.500072461668 70.0076519521174  215.500072461668 70.0076519521174  C 215.500072461668 70.0076519521174  212.000173908003 76.5074635517811  212.000173908003 76.5074635517811  C 212.000173908003 76.5074635517811  219.999942030666 80.0073621054462  219.999942030666 80.0073621054462  C 219.999942030666 80.0073621054462  222.499869568998 86.5071737051101  222.499869568998 86.5071737051101  C 222.499869568998 86.5071737051101  227.999710153329 90.0070722587751  227.999710153329 90.0070722587751  C 227.999710153329 90.0070722587751  224.99979710733 92.5069997971074  224.99979710733 92.5069997971074  C 224.99979710733 92.5069997971074  223.499840584331 98.0068403814382  223.499840584331 98.0068403814382  C 223.499840584331 98.0068403814382  218.999971015333 99.0068113967711  218.999971015333 99.0068113967711  C 218.999971015333 99.0068113967711  218 102.506709950436  218 102.506709950436  C 218 102.506709950436  214.500101446335 106.506594011768  214.500101446335 106.506594011768  C 214.500101446335 106.506594011768  214.500101446335 115.006347642097  214.500101446335 115.006347642097  C 214.500101446335 115.006347642097  218 116.506304165097  218 116.506304165097  C 218 116.506304165097  222.499869568998 122.006144749428  222.499869568998 122.006144749428  C 222.499869568998 122.006144749428  218.999971015333 124.006086780093  218.999971015333 124.006086780093  C 218.999971015333 124.006086780093  210.000231877337 123.00611576476  210.000231877337 123.00611576476  C 210.000231877337 123.00611576476  203.500420277673 116.506304165097  203.500420277673 116.506304165097  C 203.500420277673 116.506304165097  203.000434770007 109.0065215501  203.000434770007 109.0065215501  C 203.000434770007 109.0065215501  210.000231877337 99.0068113967711  210.000231877337 99.0068113967711  C 210.000231877337 99.0068113967711  211.00020289267 92.5069997971074  211.00020289267 92.5069997971074  C 211.00020289267 92.5069997971074  201.000492739341 88.5071157357758  201.000492739341 88.5071157357758  C 201.000492739341 88.5071157357758  198.000579693342 88.5071157357758  198.000579693342 88.5071157357758  C 198.000579693342 88.5071157357758  194.500681139677 85.5072026897772  194.500681139677 85.5072026897772  C 194.500681139677 85.5072026897772  184.000985478682 79.0073910901133  184.000985478682 79.0073910901133  C 184.000985478682 79.0073910901133  178.001159386684 81.5073186284456  178.001159386684 81.5073186284456  C 178.001159386684 81.5073186284456  167.501463725689 80.0073621054462  167.501463725689 80.0073621054462  C 167.501463725689 80.0073621054462  169.501405756355 84.5072316744443  169.501405756355 84.5072316744443  C 169.501405756355 84.5072316744443  167.501463725689 86.5071737051101  167.501463725689 86.5071737051101  C 167.501463725689 86.5071737051101  160.001681110692 83.5072606591114  160.001681110692 83.5072606591114  C 160.001681110692 83.5072606591114  141.502217327034 77.507434567114  141.502217327034 77.507434567114  C 141.502217327034 77.507434567114  138.502304281035 79.0073910901133  138.502304281035 79.0073910901133  C 138.502304281035 79.0073910901133  134.002434712037 79.0073910901133  134.002434712037 79.0073910901133  C 134.002434712037 79.0073910901133  131.502507173705 72.5075794904496  131.502507173705 72.5075794904496  C 131.502507173705 72.5075794904496  127.502623112374 70.0076519521174  127.502623112374 70.0076519521174  C 127.502623112374 70.0076519521174  122.502768035709 71.0076229674502  122.502768035709 71.0076229674502  C 122.502768035709 71.0076229674502  119.002869482044 75.5074925364482  119.002869482044 75.5074925364482  C 119.002869482044 75.5074925364482  114.502999913046 77.507434567114  114.502999913046 77.507434567114  C 114.502999913046 77.507434567114  106.003246282716 88.5071157357758  106.003246282716 88.5071157357758  C 106.003246282716 88.5071157357758  101.503376713718 90.0070722587751  101.503376713718 90.0070722587751  C 101.503376713718 90.0070722587751  100.003420190719 95.506912843106  100.003420190719 95.506912843106  C 100.003420190719 95.506912843106  103.503318744384 98.0068403814382  103.503318744384 98.0068403814382  C 103.503318744384 98.0068403814382  102.503347729051 102.506709950436  102.503347729051 102.506709950436  C 102.503347729051 102.506709950436  96.503521637054 103.506680965769  96.503521637054 103.506680965769  C 96.503521637054 103.506680965769  91.5036665603895 110.006492565433  91.5036665603895 110.006492565433  C 91.5036665603895 110.006492565433  87.0037969913915 119.506217211095  87.0037969913915 119.506217211095  C 87.0037969913915 119.506217211095  82.0039419147271 128.005970841425  82.0039419147271 128.005970841425  C 82.0039419147271 128.005970841425  85.5038404683922 134.005796933422  85.5038404683922 134.005796933422  C 85.5038404683922 134.005796933422  82.0039419147271 141.505579548419  82.0039419147271 141.505579548419  C 82.0039419147271 141.505579548419  84.5038694530593 150.005333178749  84.5038694530593 150.005333178749  C 84.5038694530593 150.005333178749  87.0037969913915 157.505115793745  87.0037969913915 157.505115793745  C 87.0037969913915 157.505115793745  75.5041303150633 163.004956378076  75.5041303150633 163.004956378076  C 75.5041303150633 163.004956378076  69.0043187153996 162.004985362743  69.0043187153996 162.004985362743  C 69.0043187153996 162.004985362743  58.0046375467378 164.504912901075  58.0046375467378 164.504912901075  C 58.0046375467378 164.504912901075  53.0047824700733 159.505057824411  53.0047824700733 159.505057824411  C 53.0047824700733 159.505057824411  43.5050578244109 159.505057824411  43.5050578244109 159.505057824411  C 43.5050578244109 159.505057824411  42.505086809078 156.505144778412  42.505086809078 156.505144778412  C 42.505086809078 156.505144778412  37.5052317324136 153.005246224747  37.5052317324136 153.005246224747  C 37.5052317324136 153.005246224747  39.0051882554129 145.005478102084  39.0051882554129 145.005478102084  C 39.0051882554129 145.005478102084  46.5049708704096 139.005652010087  46.5049708704096 139.005652010087  C 46.5049708704096 139.005652010087  41.5051157937451 131.005883887424  41.5051157937451 131.005883887424  C 41.5051157937451 131.005883887424  34.5053186864149 140.00562302542  34.5053186864149 140.00562302542  C 34.5053186864149 140.00562302542  24.0056230254195 140.00562302542  24.0056230254195 140.00562302542  C 24.0056230254195 140.00562302542  17.5058114257558 142.505550563752  17.5058114257558 142.505550563752  C 17.5058114257558 142.505550563752  10.0060288107591 141.505579548419  10.0060288107591 141.505579548419  C 10.0060288107591 141.505579548419  6.00614474942753 138.005680994754  6.00614474942753 138.005680994754  C 6.00614474942753 138.005680994754  2.00626068809598 139.005652010087  2.00626068809598 139.005652010087  C 2.00626068809598 139.005652010087  0.506304165096651 131.50586939509  0.506304165096651 131.50586939509  C 0.506304165096651 131.50586939509  6.00614474942753 125.006057795426  6.00614474942753 125.006057795426  C 6.00614474942753 125.006057795426  11.5059853337584 121.006173734095  11.5059853337584 121.006173734095  C 11.5059853337584 121.006173734095  4.00620271876176 113.006405611432  4.00620271876176 113.006405611432  C 4.00620271876176 113.006405611432  6.00614474942753 101.506738935103  6.00614474942753 101.506738935103  C 6.00614474942753 101.506738935103  0.506304165096651 101.506738935103  0.506304165096651 101.506738935103  C 0.506304165096651 101.506738935103  6.00614474942753 95.506912843106  6.00614474942753 95.506912843106  C 6.00614474942753 95.506912843106  6.00614474942753 91.5070287817745  6.00614474942753 91.5070287817745  C 6.00614474942753 91.5070287817745  14.5058983797571 89.5070867511087  14.5058983797571 89.5070867511087  C 14.5058983797571 89.5070867511087  16.5058404104229 81.5073186284456  16.5058404104229 81.5073186284456  C 16.5058404104229 81.5073186284456  24.0056230254195 77.507434567114  24.0056230254195 77.507434567114  Z " stroke-width="1.99994203066578" stroke="#b5eaff" fill="none" stroke-opacity="0.501960784313725" transform="matrix(1 0 0 1 769 416 )" mask="url(#clip1066)" />
  </g>
</svg>