<?xml version="1.0" encoding="utf-8"?>
<svg version="1.1" xmlns:xlink="http://www.w3.org/1999/xlink" width="325px" height="274px" xmlns="http://www.w3.org/2000/svg">
  <defs>
    <mask fill="white" id="clip1063">
      <path d="M 96.4983913509753 13.5091736471407  C 96.4983913509753 13.5091736471407  93.9984638126431 6.50937653981046  93.9984638126431 6.50937653981046  C 93.9984638126431 6.50937653981046  100.498275412307 2.00950697081245  100.498275412307 2.00950697081245  C 100.498275412307 2.00950697081245  110.997971073302 0.509550447813126  110.997971073302 0.509550447813126  C 110.997971073302 0.509550447813126  126.497521810962 3.50946349381181  126.497521810962 3.50946349381181  C 126.497521810962 3.50946349381181  127.997478333961 0.509550447813126  127.997478333961 0.509550447813126  C 127.997478333961 0.509550447813126  131.497376887626 5.00942001681113  131.497376887626 5.00942001681113  C 131.497376887626 5.00942001681113  176.996058085273 5.00942001681113  176.996058085273 5.00942001681113  C 176.996058085273 5.00942001681113  182.99588417727 8.50931857047624  182.99588417727 8.50931857047624  C 182.99588417727 8.50931857047624  188.495724761601 18.5090287238051  188.495724761601 18.5090287238051  C 188.495724761601 18.5090287238051  206.99518854526 32.5086229384656  206.99518854526 32.5086229384656  C 206.99518854526 32.5086229384656  222.994724790586 36.5085069997971  222.994724790586 36.5085069997971  C 222.994724790586 36.5085069997971  241.494188574244 36.5085069997971  241.494188574244 36.5085069997971  C 241.494188574244 36.5085069997971  255.493782788905 39.0084345381293  255.493782788905 39.0084345381293  C 255.493782788905 39.0084345381293  324.99176835454 74.507405582447  324.99176835454 74.507405582447  C 324.99176835454 74.507405582447  324.99176835454 84.0071302281094  324.99176835454 84.0071302281094  C 324.99176835454 84.0071302281094  314.992058201212 89.0069853047738  314.992058201212 89.0069853047738  C 314.992058201212 89.0069853047738  300.492478478885 91.0069273354396  300.492478478885 91.0069273354396  C 300.492478478885 91.0069273354396  287.492855279557 97.5067389351034  287.492855279557 97.5067389351034  C 287.492855279557 97.5067389351034  289.992782817889 103.506565027101  289.992782817889 103.506565027101  C 289.992782817889 103.506565027101  284.492942233558 112.00631865743  284.492942233558 112.00631865743  C 284.492942233558 112.00631865743  284.492942233558 115.506217211095  284.492942233558 115.506217211095  C 284.492942233558 115.506217211095  289.992782817889 118.506130257094  289.992782817889 118.506130257094  C 289.992782817889 118.506130257094  293.992666879221 124.505956349091  293.992666879221 124.505956349091  C 293.992666879221 124.505956349091  298.492536448219 123.005999826092  298.492536448219 123.005999826092  C 298.492536448219 123.005999826092  305.492333555549 129.005825918089  305.492333555549 129.005825918089  C 305.492333555549 129.005825918089  300.492478478885 133.005709979421  300.492478478885 133.005709979421  C 300.492478478885 133.005709979421  293.992666879221 130.505782441089  293.992666879221 130.505782441089  C 293.992666879221 130.505782441089  289.992782817889 130.505782441089  289.992782817889 130.505782441089  C 289.992782817889 130.505782441089  284.492942233558 129.005825918089  284.492942233558 129.005825918089  C 284.492942233558 129.005825918089  284.492942233558 133.005709979421  284.492942233558 133.005709979421  C 284.492942233558 133.005709979421  296.492594417553 160.004927393409  296.492594417553 160.004927393409  C 296.492594417553 160.004927393409  289.992782817889 161.504883916408  289.992782817889 161.504883916408  C 289.992782817889 161.504883916408  287.492855279557 165.004782470073  287.492855279557 165.004782470073  C 287.492855279557 165.004782470073  259.493666850236 165.004782470073  259.493666850236 165.004782470073  C 259.493666850236 165.004782470073  246.494043650909 168.504681023738  246.494043650909 168.504681023738  C 246.494043650909 168.504681023738  246.494043650909 172.004579577404  246.494043650909 172.004579577404  C 246.494043650909 172.004579577404  255.493782788905 174.504507115736  255.493782788905 174.504507115736  C 255.493782788905 174.504507115736  259.493666850236 178.504391177067  259.493666850236 178.504391177067  C 259.493666850236 178.504391177067  261.493608880902 185.504188284398  261.493608880902 185.504188284398  C 261.493608880902 185.504188284398  264.993507434567 199.003796991392  264.993507434567 199.003796991392  C 264.993507434567 199.003796991392  256.993739311904 203.50366656039  256.993739311904 203.50366656039  C 256.993739311904 203.50366656039  244.494101620243 199.003796991392  244.494101620243 199.003796991392  C 244.494101620243 199.003796991392  230.494507405582 199.003796991392  230.494507405582 199.003796991392  C 230.494507405582 199.003796991392  230.494507405582 206.003594098722  230.494507405582 206.003594098722  C 230.494507405582 206.003594098722  226.994608851917 211.503434683053  226.994608851917 211.503434683053  C 226.994608851917 211.503434683053  220.99478275992 210.003478160053  220.99478275992 210.003478160053  C 220.99478275992 210.003478160053  212.49502912959 208.003536129388  212.49502912959 208.003536129388  C 212.49502912959 208.003536129388  212.49502912959 211.503434683053  212.49502912959 211.503434683053  C 212.49502912959 211.503434683053  222.994724790586 222.503115851714  222.994724790586 222.503115851714  C 222.994724790586 222.503115851714  224.994666821252 235.002753543376  224.994666821252 235.002753543376  C 224.994666821252 235.002753543376  222.994724790586 238.002666589374  222.994724790586 238.002666589374  C 222.994724790586 238.002666589374  217.494884206255 236.502710066375  217.494884206255 236.502710066375  C 217.494884206255 236.502710066375  212.49502912959 245.502449204371  212.49502912959 245.502449204371  C 212.49502912959 245.502449204371  192.995594330599 245.502449204371  192.995594330599 245.502449204371  C 192.995594330599 245.502449204371  174.496130546941 273.501637633692  174.496130546941 273.501637633692  C 174.496130546941 273.501637633692  164.996405901278 269.50175357236  164.996405901278 269.50175357236  C 164.996405901278 269.50175357236  159.496565316947 259.002057911365  159.496565316947 259.002057911365  C 159.496565316947 259.002057911365  152.996753717284 256.002144865366  152.996753717284 256.002144865366  C 152.996753717284 256.002144865366  150.996811686618 245.502449204371  150.996811686618 245.502449204371  C 150.996811686618 245.502449204371  147.996898640619 240.00260862004  147.996898640619 240.00260862004  C 147.996898640619 240.00260862004  144.497000086954 229.502912959045  144.497000086954 229.502912959045  C 144.497000086954 229.502912959045  144.497000086954 222.503115851714  144.497000086954 222.503115851714  C 144.497000086954 222.503115851714  140.997101533289 222.503115851714  140.997101533289 222.503115851714  C 140.997101533289 222.503115851714  137.497202979624 229.502912959045  137.497202979624 229.502912959045  C 137.497202979624 229.502912959045  126.497521810962 235.002753543376  126.497521810962 235.002753543376  C 126.497521810962 235.002753543376  121.497666734298 227.002985420712  121.497666734298 227.002985420712  C 121.497666734298 227.002985420712  121.497666734298 215.503318744384  121.497666734298 215.503318744384  C 121.497666734298 215.503318744384  110.997971073302 218.503231790383  110.997971073302 218.503231790383  C 110.997971073302 218.503231790383  93.9984638126431 222.503115851714  93.9984638126431 222.503115851714  C 93.9984638126431 222.503115851714  57.9995072606591 215.503318744384  57.9995072606591 215.503318744384  C 57.9995072606591 215.503318744384  32.000260862004 199.003796991392  32.000260862004 199.003796991392  C 32.000260862004 199.003796991392  20.5005941856758 193.003970899394  20.5005941856758 193.003970899394  C 20.5005941856758 193.003970899394  6.00101446334889 172.004579577404  6.00101446334889 172.004579577404  C 6.00101446334889 172.004579577404  0.00118837135153171 156.505028839744  0.00118837135153171 156.505028839744  C 0.00118837135153171 156.505028839744  20.5005941856758 137.505579548419  20.5005941856758 137.505579548419  C 20.5005941856758 137.505579548419  46.4998405843309 137.505579548419  46.4998405843309 137.505579548419  C 46.4998405843309 137.505579548419  82.9987826439813 112.00631865743  82.9987826439813 112.00631865743  C 82.9987826439813 112.00631865743  115.4978406423 95.5067969044376  115.4978406423 95.5067969044376  C 115.4978406423 95.5067969044376  135.497260948958 95.5067969044376  135.497260948958 95.5067969044376  C 135.497260948958 95.5067969044376  147.996898640619 89.0069853047738  147.996898640619 89.0069853047738  C 147.996898640619 89.0069853047738  152.996753717284 79.5072606591114  152.996753717284 79.5072606591114  C 152.996753717284 79.5072606591114  147.996898640619 69.007564998116  147.996898640619 69.007564998116  C 147.996898640619 69.007564998116  140.997101533289 69.007564998116  140.997101533289 69.007564998116  C 140.997101533289 69.007564998116  140.997101533289 64.507695429118  140.997101533289 64.507695429118  C 140.997101533289 64.507695429118  147.996898640619 62.5077533984522  147.996898640619 62.5077533984522  C 147.996898640619 62.5077533984522  144.497000086954 58.0078838294543  144.497000086954 58.0078838294543  C 144.497000086954 58.0078838294543  144.497000086954 53.5080142604563  144.497000086954 53.5080142604563  C 144.497000086954 53.5080142604563  147.996898640619 47.0082026607924  147.996898640619 47.0082026607924  C 147.996898640619 47.0082026607924  144.497000086954 39.0084345381293  144.497000086954 39.0084345381293  C 144.497000086954 39.0084345381293  137.497202979624 34.5085649691314  137.497202979624 34.5085649691314  C 137.497202979624 34.5085649691314  127.997478333961 34.5085649691314  127.997478333961 34.5085649691314  C 127.997478333961 34.5085649691314  127.997478333961 28.0087533694676  127.997478333961 28.0087533694676  C 127.997478333961 28.0087533694676  119.497724703632 23.0088982928031  119.497724703632 23.0088982928031  C 119.497724703632 23.0088982928031  112.997913103968 18.5090287238051  112.997913103968 18.5090287238051  C 112.997913103968 18.5090287238051  96.4983913509753 18.5090287238051  96.4983913509753 18.5090287238051  C 96.4983913509753 18.5090287238051  96.4983913509753 13.5091736471407  96.4983913509753 13.5091736471407  Z " fill-rule="evenodd" />
    </mask>
  </defs>
  <g transform="matrix(1 0 0 1 -946 -420 )">
    <path d="M 96.4983913509753 13.5091736471407  C 96.4983913509753 13.5091736471407  93.9984638126431 6.50937653981046  93.9984638126431 6.50937653981046  C 93.9984638126431 6.50937653981046  100.498275412307 2.00950697081245  100.498275412307 2.00950697081245  C 100.498275412307 2.00950697081245  110.997971073302 0.509550447813126  110.997971073302 0.509550447813126  C 110.997971073302 0.509550447813126  126.497521810962 3.50946349381181  126.497521810962 3.50946349381181  C 126.497521810962 3.50946349381181  127.997478333961 0.509550447813126  127.997478333961 0.509550447813126  C 127.997478333961 0.509550447813126  131.497376887626 5.00942001681113  131.497376887626 5.00942001681113  C 131.497376887626 5.00942001681113  176.996058085273 5.00942001681113  176.996058085273 5.00942001681113  C 176.996058085273 5.00942001681113  182.99588417727 8.50931857047624  182.99588417727 8.50931857047624  C 182.99588417727 8.50931857047624  188.495724761601 18.5090287238051  188.495724761601 18.5090287238051  C 188.495724761601 18.5090287238051  206.99518854526 32.5086229384656  206.99518854526 32.5086229384656  C 206.99518854526 32.5086229384656  222.994724790586 36.5085069997971  222.994724790586 36.5085069997971  C 222.994724790586 36.5085069997971  241.494188574244 36.5085069997971  241.494188574244 36.5085069997971  C 241.494188574244 36.5085069997971  255.493782788905 39.0084345381293  255.493782788905 39.0084345381293  C 255.493782788905 39.0084345381293  324.99176835454 74.507405582447  324.99176835454 74.507405582447  C 324.99176835454 74.507405582447  324.99176835454 84.0071302281094  324.99176835454 84.0071302281094  C 324.99176835454 84.0071302281094  314.992058201212 89.0069853047738  314.992058201212 89.0069853047738  C 314.992058201212 89.0069853047738  300.492478478885 91.0069273354396  300.492478478885 91.0069273354396  C 300.492478478885 91.0069273354396  287.492855279557 97.5067389351034  287.492855279557 97.5067389351034  C 287.492855279557 97.5067389351034  289.992782817889 103.506565027101  289.992782817889 103.506565027101  C 289.992782817889 103.506565027101  284.492942233558 112.00631865743  284.492942233558 112.00631865743  C 284.492942233558 112.00631865743  284.492942233558 115.506217211095  284.492942233558 115.506217211095  C 284.492942233558 115.506217211095  289.992782817889 118.506130257094  289.992782817889 118.506130257094  C 289.992782817889 118.506130257094  293.992666879221 124.505956349091  293.992666879221 124.505956349091  C 293.992666879221 124.505956349091  298.492536448219 123.005999826092  298.492536448219 123.005999826092  C 298.492536448219 123.005999826092  305.492333555549 129.005825918089  305.492333555549 129.005825918089  C 305.492333555549 129.005825918089  300.492478478885 133.005709979421  300.492478478885 133.005709979421  C 300.492478478885 133.005709979421  293.992666879221 130.505782441089  293.992666879221 130.505782441089  C 293.992666879221 130.505782441089  289.992782817889 130.505782441089  289.992782817889 130.505782441089  C 289.992782817889 130.505782441089  284.492942233558 129.005825918089  284.492942233558 129.005825918089  C 284.492942233558 129.005825918089  284.492942233558 133.005709979421  284.492942233558 133.005709979421  C 284.492942233558 133.005709979421  296.492594417553 160.004927393409  296.492594417553 160.004927393409  C 296.492594417553 160.004927393409  289.992782817889 161.504883916408  289.992782817889 161.504883916408  C 289.992782817889 161.504883916408  287.492855279557 165.004782470073  287.492855279557 165.004782470073  C 287.492855279557 165.004782470073  259.493666850236 165.004782470073  259.493666850236 165.004782470073  C 259.493666850236 165.004782470073  246.494043650909 168.504681023738  246.494043650909 168.504681023738  C 246.494043650909 168.504681023738  246.494043650909 172.004579577404  246.494043650909 172.004579577404  C 246.494043650909 172.004579577404  255.493782788905 174.504507115736  255.493782788905 174.504507115736  C 255.493782788905 174.504507115736  259.493666850236 178.504391177067  259.493666850236 178.504391177067  C 259.493666850236 178.504391177067  261.493608880902 185.504188284398  261.493608880902 185.504188284398  C 261.493608880902 185.504188284398  264.993507434567 199.003796991392  264.993507434567 199.003796991392  C 264.993507434567 199.003796991392  256.993739311904 203.50366656039  256.993739311904 203.50366656039  C 256.993739311904 203.50366656039  244.494101620243 199.003796991392  244.494101620243 199.003796991392  C 244.494101620243 199.003796991392  230.494507405582 199.003796991392  230.494507405582 199.003796991392  C 230.494507405582 199.003796991392  230.494507405582 206.003594098722  230.494507405582 206.003594098722  C 230.494507405582 206.003594098722  226.994608851917 211.503434683053  226.994608851917 211.503434683053  C 226.994608851917 211.503434683053  220.99478275992 210.003478160053  220.99478275992 210.003478160053  C 220.99478275992 210.003478160053  212.49502912959 208.003536129388  212.49502912959 208.003536129388  C 212.49502912959 208.003536129388  212.49502912959 211.503434683053  212.49502912959 211.503434683053  C 212.49502912959 211.503434683053  222.994724790586 222.503115851714  222.994724790586 222.503115851714  C 222.994724790586 222.503115851714  224.994666821252 235.002753543376  224.994666821252 235.002753543376  C 224.994666821252 235.002753543376  222.994724790586 238.002666589374  222.994724790586 238.002666589374  C 222.994724790586 238.002666589374  217.494884206255 236.502710066375  217.494884206255 236.502710066375  C 217.494884206255 236.502710066375  212.49502912959 245.502449204371  212.49502912959 245.502449204371  C 212.49502912959 245.502449204371  192.995594330599 245.502449204371  192.995594330599 245.502449204371  C 192.995594330599 245.502449204371  174.496130546941 273.501637633692  174.496130546941 273.501637633692  C 174.496130546941 273.501637633692  164.996405901278 269.50175357236  164.996405901278 269.50175357236  C 164.996405901278 269.50175357236  159.496565316947 259.002057911365  159.496565316947 259.002057911365  C 159.496565316947 259.002057911365  152.996753717284 256.002144865366  152.996753717284 256.002144865366  C 152.996753717284 256.002144865366  150.996811686618 245.502449204371  150.996811686618 245.502449204371  C 150.996811686618 245.502449204371  147.996898640619 240.00260862004  147.996898640619 240.00260862004  C 147.996898640619 240.00260862004  144.497000086954 229.502912959045  144.497000086954 229.502912959045  C 144.497000086954 229.502912959045  144.497000086954 222.503115851714  144.497000086954 222.503115851714  C 144.497000086954 222.503115851714  140.997101533289 222.503115851714  140.997101533289 222.503115851714  C 140.997101533289 222.503115851714  137.497202979624 229.502912959045  137.497202979624 229.502912959045  C 137.497202979624 229.502912959045  126.497521810962 235.002753543376  126.497521810962 235.002753543376  C 126.497521810962 235.002753543376  121.497666734298 227.002985420712  121.497666734298 227.002985420712  C 121.497666734298 227.002985420712  121.497666734298 215.503318744384  121.497666734298 215.503318744384  C 121.497666734298 215.503318744384  110.997971073302 218.503231790383  110.997971073302 218.503231790383  C 110.997971073302 218.503231790383  93.9984638126431 222.503115851714  93.9984638126431 222.503115851714  C 93.9984638126431 222.503115851714  57.9995072606591 215.503318744384  57.9995072606591 215.503318744384  C 57.9995072606591 215.503318744384  32.000260862004 199.003796991392  32.000260862004 199.003796991392  C 32.000260862004 199.003796991392  20.5005941856758 193.003970899394  20.5005941856758 193.003970899394  C 20.5005941856758 193.003970899394  6.00101446334889 172.004579577404  6.00101446334889 172.004579577404  C 6.00101446334889 172.004579577404  0.00118837135153171 156.505028839744  0.00118837135153171 156.505028839744  C 0.00118837135153171 156.505028839744  20.5005941856758 137.505579548419  20.5005941856758 137.505579548419  C 20.5005941856758 137.505579548419  46.4998405843309 137.505579548419  46.4998405843309 137.505579548419  C 46.4998405843309 137.505579548419  82.9987826439813 112.00631865743  82.9987826439813 112.00631865743  C 82.9987826439813 112.00631865743  115.4978406423 95.5067969044376  115.4978406423 95.5067969044376  C 115.4978406423 95.5067969044376  135.497260948958 95.5067969044376  135.497260948958 95.5067969044376  C 135.497260948958 95.5067969044376  147.996898640619 89.0069853047738  147.996898640619 89.0069853047738  C 147.996898640619 89.0069853047738  152.996753717284 79.5072606591114  152.996753717284 79.5072606591114  C 152.996753717284 79.5072606591114  147.996898640619 69.007564998116  147.996898640619 69.007564998116  C 147.996898640619 69.007564998116  140.997101533289 69.007564998116  140.997101533289 69.007564998116  C 140.997101533289 69.007564998116  140.997101533289 64.507695429118  140.997101533289 64.507695429118  C 140.997101533289 64.507695429118  147.996898640619 62.5077533984522  147.996898640619 62.5077533984522  C 147.996898640619 62.5077533984522  144.497000086954 58.0078838294543  144.497000086954 58.0078838294543  C 144.497000086954 58.0078838294543  144.497000086954 53.5080142604563  144.497000086954 53.5080142604563  C 144.497000086954 53.5080142604563  147.996898640619 47.0082026607924  147.996898640619 47.0082026607924  C 147.996898640619 47.0082026607924  144.497000086954 39.0084345381293  144.497000086954 39.0084345381293  C 144.497000086954 39.0084345381293  137.497202979624 34.5085649691314  137.497202979624 34.5085649691314  C 137.497202979624 34.5085649691314  127.997478333961 34.5085649691314  127.997478333961 34.5085649691314  C 127.997478333961 34.5085649691314  127.997478333961 28.0087533694676  127.997478333961 28.0087533694676  C 127.997478333961 28.0087533694676  119.497724703632 23.0088982928031  119.497724703632 23.0088982928031  C 119.497724703632 23.0088982928031  112.997913103968 18.5090287238051  112.997913103968 18.5090287238051  C 112.997913103968 18.5090287238051  96.4983913509753 18.5090287238051  96.4983913509753 18.5090287238051  C 96.4983913509753 18.5090287238051  96.4983913509753 13.5091736471407  96.4983913509753 13.5091736471407  Z " fill-rule="nonzero" fill="#033571" stroke="none" transform="matrix(1 0 0 1 946 420 )" />
    <path d="M 96.4983913509753 13.5091736471407  C 96.4983913509753 13.5091736471407  93.9984638126431 6.50937653981046  93.9984638126431 6.50937653981046  C 93.9984638126431 6.50937653981046  100.498275412307 2.00950697081245  100.498275412307 2.00950697081245  C 100.498275412307 2.00950697081245  110.997971073302 0.509550447813126  110.997971073302 0.509550447813126  C 110.997971073302 0.509550447813126  126.497521810962 3.50946349381181  126.497521810962 3.50946349381181  C 126.497521810962 3.50946349381181  127.997478333961 0.509550447813126  127.997478333961 0.509550447813126  C 127.997478333961 0.509550447813126  131.497376887626 5.00942001681113  131.497376887626 5.00942001681113  C 131.497376887626 5.00942001681113  176.996058085273 5.00942001681113  176.996058085273 5.00942001681113  C 176.996058085273 5.00942001681113  182.99588417727 8.50931857047624  182.99588417727 8.50931857047624  C 182.99588417727 8.50931857047624  188.495724761601 18.5090287238051  188.495724761601 18.5090287238051  C 188.495724761601 18.5090287238051  206.99518854526 32.5086229384656  206.99518854526 32.5086229384656  C 206.99518854526 32.5086229384656  222.994724790586 36.5085069997971  222.994724790586 36.5085069997971  C 222.994724790586 36.5085069997971  241.494188574244 36.5085069997971  241.494188574244 36.5085069997971  C 241.494188574244 36.5085069997971  255.493782788905 39.0084345381293  255.493782788905 39.0084345381293  C 255.493782788905 39.0084345381293  324.99176835454 74.507405582447  324.99176835454 74.507405582447  C 324.99176835454 74.507405582447  324.99176835454 84.0071302281094  324.99176835454 84.0071302281094  C 324.99176835454 84.0071302281094  314.992058201212 89.0069853047738  314.992058201212 89.0069853047738  C 314.992058201212 89.0069853047738  300.492478478885 91.0069273354396  300.492478478885 91.0069273354396  C 300.492478478885 91.0069273354396  287.492855279557 97.5067389351034  287.492855279557 97.5067389351034  C 287.492855279557 97.5067389351034  289.992782817889 103.506565027101  289.992782817889 103.506565027101  C 289.992782817889 103.506565027101  284.492942233558 112.00631865743  284.492942233558 112.00631865743  C 284.492942233558 112.00631865743  284.492942233558 115.506217211095  284.492942233558 115.506217211095  C 284.492942233558 115.506217211095  289.992782817889 118.506130257094  289.992782817889 118.506130257094  C 289.992782817889 118.506130257094  293.992666879221 124.505956349091  293.992666879221 124.505956349091  C 293.992666879221 124.505956349091  298.492536448219 123.005999826092  298.492536448219 123.005999826092  C 298.492536448219 123.005999826092  305.492333555549 129.005825918089  305.492333555549 129.005825918089  C 305.492333555549 129.005825918089  300.492478478885 133.005709979421  300.492478478885 133.005709979421  C 300.492478478885 133.005709979421  293.992666879221 130.505782441089  293.992666879221 130.505782441089  C 293.992666879221 130.505782441089  289.992782817889 130.505782441089  289.992782817889 130.505782441089  C 289.992782817889 130.505782441089  284.492942233558 129.005825918089  284.492942233558 129.005825918089  C 284.492942233558 129.005825918089  284.492942233558 133.005709979421  284.492942233558 133.005709979421  C 284.492942233558 133.005709979421  296.492594417553 160.004927393409  296.492594417553 160.004927393409  C 296.492594417553 160.004927393409  289.992782817889 161.504883916408  289.992782817889 161.504883916408  C 289.992782817889 161.504883916408  287.492855279557 165.004782470073  287.492855279557 165.004782470073  C 287.492855279557 165.004782470073  259.493666850236 165.004782470073  259.493666850236 165.004782470073  C 259.493666850236 165.004782470073  246.494043650909 168.504681023738  246.494043650909 168.504681023738  C 246.494043650909 168.504681023738  246.494043650909 172.004579577404  246.494043650909 172.004579577404  C 246.494043650909 172.004579577404  255.493782788905 174.504507115736  255.493782788905 174.504507115736  C 255.493782788905 174.504507115736  259.493666850236 178.504391177067  259.493666850236 178.504391177067  C 259.493666850236 178.504391177067  261.493608880902 185.504188284398  261.493608880902 185.504188284398  C 261.493608880902 185.504188284398  264.993507434567 199.003796991392  264.993507434567 199.003796991392  C 264.993507434567 199.003796991392  256.993739311904 203.50366656039  256.993739311904 203.50366656039  C 256.993739311904 203.50366656039  244.494101620243 199.003796991392  244.494101620243 199.003796991392  C 244.494101620243 199.003796991392  230.494507405582 199.003796991392  230.494507405582 199.003796991392  C 230.494507405582 199.003796991392  230.494507405582 206.003594098722  230.494507405582 206.003594098722  C 230.494507405582 206.003594098722  226.994608851917 211.503434683053  226.994608851917 211.503434683053  C 226.994608851917 211.503434683053  220.99478275992 210.003478160053  220.99478275992 210.003478160053  C 220.99478275992 210.003478160053  212.49502912959 208.003536129388  212.49502912959 208.003536129388  C 212.49502912959 208.003536129388  212.49502912959 211.503434683053  212.49502912959 211.503434683053  C 212.49502912959 211.503434683053  222.994724790586 222.503115851714  222.994724790586 222.503115851714  C 222.994724790586 222.503115851714  224.994666821252 235.002753543376  224.994666821252 235.002753543376  C 224.994666821252 235.002753543376  222.994724790586 238.002666589374  222.994724790586 238.002666589374  C 222.994724790586 238.002666589374  217.494884206255 236.502710066375  217.494884206255 236.502710066375  C 217.494884206255 236.502710066375  212.49502912959 245.502449204371  212.49502912959 245.502449204371  C 212.49502912959 245.502449204371  192.995594330599 245.502449204371  192.995594330599 245.502449204371  C 192.995594330599 245.502449204371  174.496130546941 273.501637633692  174.496130546941 273.501637633692  C 174.496130546941 273.501637633692  164.996405901278 269.50175357236  164.996405901278 269.50175357236  C 164.996405901278 269.50175357236  159.496565316947 259.002057911365  159.496565316947 259.002057911365  C 159.496565316947 259.002057911365  152.996753717284 256.002144865366  152.996753717284 256.002144865366  C 152.996753717284 256.002144865366  150.996811686618 245.502449204371  150.996811686618 245.502449204371  C 150.996811686618 245.502449204371  147.996898640619 240.00260862004  147.996898640619 240.00260862004  C 147.996898640619 240.00260862004  144.497000086954 229.502912959045  144.497000086954 229.502912959045  C 144.497000086954 229.502912959045  144.497000086954 222.503115851714  144.497000086954 222.503115851714  C 144.497000086954 222.503115851714  140.997101533289 222.503115851714  140.997101533289 222.503115851714  C 140.997101533289 222.503115851714  137.497202979624 229.502912959045  137.497202979624 229.502912959045  C 137.497202979624 229.502912959045  126.497521810962 235.002753543376  126.497521810962 235.002753543376  C 126.497521810962 235.002753543376  121.497666734298 227.002985420712  121.497666734298 227.002985420712  C 121.497666734298 227.002985420712  121.497666734298 215.503318744384  121.497666734298 215.503318744384  C 121.497666734298 215.503318744384  110.997971073302 218.503231790383  110.997971073302 218.503231790383  C 110.997971073302 218.503231790383  93.9984638126431 222.503115851714  93.9984638126431 222.503115851714  C 93.9984638126431 222.503115851714  57.9995072606591 215.503318744384  57.9995072606591 215.503318744384  C 57.9995072606591 215.503318744384  32.000260862004 199.003796991392  32.000260862004 199.003796991392  C 32.000260862004 199.003796991392  20.5005941856758 193.003970899394  20.5005941856758 193.003970899394  C 20.5005941856758 193.003970899394  6.00101446334889 172.004579577404  6.00101446334889 172.004579577404  C 6.00101446334889 172.004579577404  0.00118837135153171 156.505028839744  0.00118837135153171 156.505028839744  C 0.00118837135153171 156.505028839744  20.5005941856758 137.505579548419  20.5005941856758 137.505579548419  C 20.5005941856758 137.505579548419  46.4998405843309 137.505579548419  46.4998405843309 137.505579548419  C 46.4998405843309 137.505579548419  82.9987826439813 112.00631865743  82.9987826439813 112.00631865743  C 82.9987826439813 112.00631865743  115.4978406423 95.5067969044376  115.4978406423 95.5067969044376  C 115.4978406423 95.5067969044376  135.497260948958 95.5067969044376  135.497260948958 95.5067969044376  C 135.497260948958 95.5067969044376  147.996898640619 89.0069853047738  147.996898640619 89.0069853047738  C 147.996898640619 89.0069853047738  152.996753717284 79.5072606591114  152.996753717284 79.5072606591114  C 152.996753717284 79.5072606591114  147.996898640619 69.007564998116  147.996898640619 69.007564998116  C 147.996898640619 69.007564998116  140.997101533289 69.007564998116  140.997101533289 69.007564998116  C 140.997101533289 69.007564998116  140.997101533289 64.507695429118  140.997101533289 64.507695429118  C 140.997101533289 64.507695429118  147.996898640619 62.5077533984522  147.996898640619 62.5077533984522  C 147.996898640619 62.5077533984522  144.497000086954 58.0078838294543  144.497000086954 58.0078838294543  C 144.497000086954 58.0078838294543  144.497000086954 53.5080142604563  144.497000086954 53.5080142604563  C 144.497000086954 53.5080142604563  147.996898640619 47.0082026607924  147.996898640619 47.0082026607924  C 147.996898640619 47.0082026607924  144.497000086954 39.0084345381293  144.497000086954 39.0084345381293  C 144.497000086954 39.0084345381293  137.497202979624 34.5085649691314  137.497202979624 34.5085649691314  C 137.497202979624 34.5085649691314  127.997478333961 34.5085649691314  127.997478333961 34.5085649691314  C 127.997478333961 34.5085649691314  127.997478333961 28.0087533694676  127.997478333961 28.0087533694676  C 127.997478333961 28.0087533694676  119.497724703632 23.0088982928031  119.497724703632 23.0088982928031  C 119.497724703632 23.0088982928031  112.997913103968 18.5090287238051  112.997913103968 18.5090287238051  C 112.997913103968 18.5090287238051  96.4983913509753 18.5090287238051  96.4983913509753 18.5090287238051  C 96.4983913509753 18.5090287238051  96.4983913509753 13.5091736471407  96.4983913509753 13.5091736471407  Z " stroke-width="1.99994203066578" stroke="#b5eaff" fill="none" stroke-opacity="0.501960784313725" transform="matrix(1 0 0 1 946 420 )" mask="url(#clip1063)" />
  </g>
</svg>