<?xml version="1.0" encoding="utf-8"?>
<svg version="1.1" xmlns:xlink="http://www.w3.org/1999/xlink" width="187px" height="211px" xmlns="http://www.w3.org/2000/svg">
  <defs>
    <mask fill="white" id="clip1064">
      <path d="M 154.505347671082 16.0110141735022  C 154.505347671082 16.0110141735022  165.505028839744 14.0110721428364  165.505028839744 14.0110721428364  C 165.505028839744 14.0110721428364  160.005188255413 8.01124605083911  160.005188255413 8.01124605083911  C 160.005188255413 8.01124605083911  151.005449117417 11.0111590968378  151.005449117417 11.0111590968378  C 151.005449117417 11.0111590968378  146.005594040752 6.01130402017333  146.005594040752 6.01130402017333  C 146.005594040752 6.01130402017333  136.50586939509 3.5113764818411  136.50586939509 3.5113764818411  C 136.50586939509 3.5113764818411  128.00611576476 0.0114779281759922  128.00611576476 0.0114779281759922  C 128.00611576476 0.0114779281759922  111.006608504101 0.0114779281759922  111.006608504101 0.0114779281759922  C 111.006608504101 0.0114779281759922  97.5069997971073 2.01141995884177  97.5069997971073 2.01141995884177  C 97.5069997971073 2.01141995884177  91.5071737051099 0.0114779281759922  91.5071737051099 0.0114779281759922  C 91.5071737051099 0.0114779281759922  84.0073910901133 3.5113764818411  84.0073910901133 3.5113764818411  C 84.0073910901133 3.5113764818411  87.5072896437784 8.01124605083911  87.5072896437784 8.01124605083911  C 87.5072896437784 8.01124605083911  82.0074490594475 12.5111156198371  82.0074490594475 12.5111156198371  C 82.0074490594475 12.5111156198371  87.5072896437784 14.0110721428364  87.5072896437784 14.0110721428364  C 87.5072896437784 14.0110721428364  97.5069997971073 14.0110721428364  97.5069997971073 14.0110721428364  C 97.5069997971073 14.0110721428364  91.5071737051099 20.5108837425002  91.5071737051099 20.5108837425002  C 91.5071737051099 20.5108837425002  95.0070722587751 27.010695342164  95.0070722587751 27.010695342164  C 95.0070722587751 27.010695342164  91.5071737051099 32.0105504188284  91.5071737051099 32.0105504188284  C 91.5071737051099 32.0105504188284  82.0074490594475 32.0105504188284  82.0074490594475 32.0105504188284  C 82.0074490594475 32.0105504188284  82.0074490594475 37.0104054954929  82.0074490594475 37.0104054954929  C 82.0074490594475 37.0104054954929  75.0076519521173 43.0102315874902  75.0076519521173 43.0102315874902  C 75.0076519521173 43.0102315874902  48.5084200457957 46.0101446334889  48.5084200457957 46.0101446334889  C 48.5084200457957 46.0101446334889  44.0085504767977 49.0100576794875  44.0085504767977 49.0100576794875  C 44.0085504767977 49.0100576794875  44.0085504767977 53.5099272484856  44.0085504767977 53.5099272484856  C 44.0085504767977 53.5099272484856  29.0089852468044 59.0097678328165  29.0089852468044 59.0097678328165  C 29.0089852468044 59.0097678328165  16.0093620474768 60.5097243558158  16.0093620474768 60.5097243558158  C 16.0093620474768 60.5097243558158  9.50955044781307 70.0094490014782  9.50955044781307 70.0094490014782  C 9.50955044781307 70.0094490014782  0.00982580215062967 79.5091736471407  0.00982580215062967 79.5091736471407  C 0.00982580215062967 79.5091736471407  14.0094200168111 88.0089272774702  14.0094200168111 88.0089272774702  C 14.0094200168111 88.0089272774702  14.0094200168111 91.5088258311353  14.0094200168111 91.5088258311353  C 14.0094200168111 91.5088258311353  16.0093620474768 94.508738877134  16.0093620474768 94.508738877134  C 16.0093620474768 94.508738877134  9.50955044781307 102.008521492131  9.50955044781307 102.008521492131  C 9.50955044781307 102.008521492131  14.0094200168111 108.508333091794  14.0094200168111 108.508333091794  C 14.0094200168111 108.508333091794  14.0094200168111 111.508246137793  14.0094200168111 111.508246137793  C 14.0094200168111 111.508246137793  23.5091446624735 111.508246137793  23.5091446624735 111.508246137793  C 23.5091446624735 111.508246137793  37.508738877134 108.508333091794  37.508738877134 108.508333091794  C 37.508738877134 108.508333091794  37.508738877134 111.508246137793  37.508738877134 111.508246137793  C 37.508738877134 111.508246137793  44.0085504767977 114.508159183792  44.0085504767977 114.508159183792  C 44.0085504767977 114.508159183792  41.5086229384655 118.008057737457  41.5086229384655 118.008057737457  C 41.5086229384655 118.008057737457  29.0089852468044 122.007941798788  29.0089852468044 122.007941798788  C 29.0089852468044 122.007941798788  29.0089852468044 126.507811367786  29.0089852468044 126.507811367786  C 29.0089852468044 126.507811367786  44.0085504767977 128.007767890786  44.0085504767977 128.007767890786  C 44.0085504767977 128.007767890786  44.0085504767977 131.007680936784  44.0085504767977 131.007680936784  C 44.0085504767977 131.007680936784  50.0083765687951 128.007767890786  50.0083765687951 128.007767890786  C 50.0083765687951 128.007767890786  54.0082606301266 122.007941798788  54.0082606301266 122.007941798788  C 54.0082606301266 122.007941798788  60.5080722297904 120.007999768123  60.5080722297904 120.007999768123  C 60.5080722297904 120.007999768123  62.5080142604562 122.007941798788  62.5080142604562 122.007941798788  C 62.5080142604562 122.007941798788  59.0081157067911 126.507811367786  59.0081157067911 126.507811367786  C 59.0081157067911 126.507811367786  59.0081157067911 131.007680936784  59.0081157067911 131.007680936784  C 59.0081157067911 131.007680936784  66.0079128141213 131.007680936784  66.0079128141213 131.007680936784  C 66.0079128141213 131.007680936784  68.5078403524535 128.007767890786  68.5078403524535 128.007767890786  C 68.5078403524535 128.007767890786  73.0077099214515 129.507724413785  73.0077099214515 129.507724413785  C 73.0077099214515 129.507724413785  70.5077823831193 133.00762296745  70.5077823831193 133.00762296745  C 70.5077823831193 133.00762296745  73.0077099214515 136.507521521115  73.0077099214515 136.507521521115  C 73.0077099214515 136.507521521115  68.5078403524535 144.507289643778  68.5078403524535 144.507289643778  C 68.5078403524535 144.507289643778  68.5078403524535 148.50717370511  68.5078403524535 148.50717370511  C 68.5078403524535 148.50717370511  60.5080722297904 160.006840381438  60.5080722297904 160.006840381438  C 60.5080722297904 160.006840381438  56.0082026607924 168.006608504101  56.0082026607924 168.006608504101  C 56.0082026607924 168.006608504101  41.5086229384655 175.006405611432  41.5086229384655 175.006405611432  C 41.5086229384655 175.006405611432  30.5089417698037 178.506304165097  30.5089417698037 178.506304165097  C 30.5089417698037 178.506304165097  29.0089852468044 175.006405611432  29.0089852468044 175.006405611432  C 29.0089852468044 175.006405611432  25.5090866931393 175.006405611432  25.5090866931393 175.006405611432  C 25.5090866931393 175.006405611432  5.00968087881506 192.005912872091  5.00968087881506 192.005912872091  C 5.00968087881506 192.005912872091  9.50955044781307 197.005767948755  9.50955044781307 197.005767948755  C 9.50955044781307 197.005767948755  18.0093040781426 198.505724471754  18.0093040781426 198.505724471754  C 18.0093040781426 198.505724471754  16.0093620474768 207.005478102084  16.0093620474768 207.005478102084  C 16.0093620474768 207.005478102084  20.0092461088084 209.00542013275  20.0092461088084 209.00542013275  C 20.0092461088084 209.00542013275  33.5088548158024 207.005478102084  33.5088548158024 207.005478102084  C 33.5088548158024 207.005478102084  48.5084200457957 207.005478102084  48.5084200457957 207.005478102084  C 48.5084200457957 207.005478102084  54.0082606301266 205.505521579085  54.0082606301266 205.505521579085  C 54.0082606301266 205.505521579085  66.0079128141213 209.00542013275  66.0079128141213 209.00542013275  C 66.0079128141213 209.00542013275  75.0076519521173 207.005478102084  75.0076519521173 207.005478102084  C 75.0076519521173 207.005478102084  89.0072461667777 210.505376655749  89.0072461667777 210.505376655749  C 89.0072461667777 210.505376655749  97.5069997971073 209.00542013275  97.5069997971073 209.00542013275  C 97.5069997971073 209.00542013275  109.006666473436 198.505724471754  109.006666473436 198.505724471754  C 109.006666473436 198.505724471754  122.50627518043 193.50586939509  122.50627518043 193.50586939509  C 122.50627518043 193.50586939509  128.00611576476 187.006057795426  128.00611576476 187.006057795426  C 128.00611576476 187.006057795426  133.505956349091 183.006173734095  133.505956349091 183.006173734095  C 133.505956349091 183.006173734095  126.006173734095 175.006405611432  126.006173734095 175.006405611432  C 126.006173734095 175.006405611432  128.00611576476 163.506738935103  128.00611576476 163.506738935103  C 128.00611576476 163.506738935103  122.50627518043 163.506738935103  122.50627518043 163.506738935103  C 122.50627518043 163.506738935103  128.00611576476 157.506912843106  128.00611576476 157.506912843106  C 128.00611576476 157.506912843106  128.00611576476 153.507028781774  128.00611576476 153.507028781774  C 128.00611576476 153.507028781774  136.50586939509 151.507086751109  136.50586939509 151.507086751109  C 136.50586939509 151.507086751109  138.505811425756 144.507289643778  138.505811425756 144.507289643778  C 138.505811425756 144.507289643778  146.005594040752 140.507405582447  146.005594040752 140.507405582447  C 146.005594040752 140.507405582447  154.005362163416 131.007680936784  154.005362163416 131.007680936784  C 154.005362163416 131.007680936784  146.005594040752 126.507811367786  146.005594040752 126.507811367786  C 146.005594040752 126.507811367786  149.005507086751 118.008057737457  149.005507086751 118.008057737457  C 149.005507086751 118.008057737457  141.005738964088 114.508159183792  141.005738964088 114.508159183792  C 141.005738964088 114.508159183792  128.00611576476 102.008521492131  128.00611576476 102.008521492131  C 128.00611576476 102.008521492131  117.006434596099 103.50847801513  117.006434596099 103.50847801513  C 117.006434596099 103.50847801513  111.006608504101 94.508738877134  111.006608504101 94.508738877134  C 111.006608504101 94.508738877134  126.006173734095 91.5088258311353  126.006173734095 91.5088258311353  C 126.006173734095 91.5088258311353  138.505811425756 91.5088258311353  138.505811425756 91.5088258311353  C 138.505811425756 91.5088258311353  146.005594040752 88.0089272774702  146.005594040752 88.0089272774702  C 146.005594040752 88.0089272774702  144.505637517753 79.5091736471407  144.505637517753 79.5091736471407  C 144.505637517753 79.5091736471407  133.505956349091 79.5091736471407  133.505956349091 79.5091736471407  C 133.505956349091 79.5091736471407  131.006028810759 76.509260601142  131.006028810759 76.509260601142  C 131.006028810759 76.509260601142  136.50586939509 73.5093475551433  136.50586939509 73.5093475551433  C 136.50586939509 73.5093475551433  147.505550563752 75.0093040781427  147.505550563752 75.0093040781427  C 147.505550563752 75.0093040781427  151.005449117417 71.5094055244776  151.005449117417 71.5094055244776  C 151.005449117417 71.5094055244776  146.005594040752 70.0094490014782  146.005594040752 70.0094490014782  C 146.005594040752 70.0094490014782  149.005507086751 60.5097243558158  149.005507086751 60.5097243558158  C 149.005507086751 60.5097243558158  151.005449117417 59.0097678328165  151.005449117417 59.0097678328165  C 151.005449117417 59.0097678328165  149.005507086751 56.5098402944842  149.005507086751 56.5098402944842  C 149.005507086751 56.5098402944842  138.505811425756 55.0098837714849  138.505811425756 55.0098837714849  C 138.505811425756 55.0098837714849  144.505637517753 49.0100576794875  144.505637517753 49.0100576794875  C 144.505637517753 49.0100576794875  149.005507086751 49.0100576794875  149.005507086751 49.0100576794875  C 149.005507086751 49.0100576794875  151.005449117417 46.0101446334889  151.005449117417 46.0101446334889  C 151.005449117417 46.0101446334889  162.005130286079 46.0101446334889  162.005130286079 46.0101446334889  C 162.005130286079 46.0101446334889  173.504796962407 49.0100576794875  173.504796962407 49.0100576794875  C 173.504796962407 49.0100576794875  182.004550592736 46.0101446334889  182.004550592736 46.0101446334889  C 182.004550592736 46.0101446334889  186.004434654068 41.0102895568244  186.004434654068 41.0102895568244  C 186.004434654068 41.0102895568244  177.504681023738 41.0102895568244  177.504681023738 41.0102895568244  C 177.504681023738 41.0102895568244  165.505028839744 39.5103330338251  165.505028839744 39.5103330338251  C 165.505028839744 39.5103330338251  156.505289701748 39.5103330338251  156.505289701748 39.5103330338251  C 156.505289701748 39.5103330338251  149.005507086751 38.0103765108258  149.005507086751 38.0103765108258  C 149.005507086751 38.0103765108258  152.00542013275 29.5106228804962  152.00542013275 29.5106228804962  C 152.00542013275 29.5106228804962  150.50546360975 27.010695342164  150.50546360975 27.010695342164  C 150.50546360975 27.010695342164  154.505347671082 16.0110141735022  154.505347671082 16.0110141735022  Z " fill-rule="evenodd" />
    </mask>
  </defs>
  <g transform="matrix(1 0 0 1 -648 -354 )">
    <path d="M 154.505347671082 16.0110141735022  C 154.505347671082 16.0110141735022  165.505028839744 14.0110721428364  165.505028839744 14.0110721428364  C 165.505028839744 14.0110721428364  160.005188255413 8.01124605083911  160.005188255413 8.01124605083911  C 160.005188255413 8.01124605083911  151.005449117417 11.0111590968378  151.005449117417 11.0111590968378  C 151.005449117417 11.0111590968378  146.005594040752 6.01130402017333  146.005594040752 6.01130402017333  C 146.005594040752 6.01130402017333  136.50586939509 3.5113764818411  136.50586939509 3.5113764818411  C 136.50586939509 3.5113764818411  128.00611576476 0.0114779281759922  128.00611576476 0.0114779281759922  C 128.00611576476 0.0114779281759922  111.006608504101 0.0114779281759922  111.006608504101 0.0114779281759922  C 111.006608504101 0.0114779281759922  97.5069997971073 2.01141995884177  97.5069997971073 2.01141995884177  C 97.5069997971073 2.01141995884177  91.5071737051099 0.0114779281759922  91.5071737051099 0.0114779281759922  C 91.5071737051099 0.0114779281759922  84.0073910901133 3.5113764818411  84.0073910901133 3.5113764818411  C 84.0073910901133 3.5113764818411  87.5072896437784 8.01124605083911  87.5072896437784 8.01124605083911  C 87.5072896437784 8.01124605083911  82.0074490594475 12.5111156198371  82.0074490594475 12.5111156198371  C 82.0074490594475 12.5111156198371  87.5072896437784 14.0110721428364  87.5072896437784 14.0110721428364  C 87.5072896437784 14.0110721428364  97.5069997971073 14.0110721428364  97.5069997971073 14.0110721428364  C 97.5069997971073 14.0110721428364  91.5071737051099 20.5108837425002  91.5071737051099 20.5108837425002  C 91.5071737051099 20.5108837425002  95.0070722587751 27.010695342164  95.0070722587751 27.010695342164  C 95.0070722587751 27.010695342164  91.5071737051099 32.0105504188284  91.5071737051099 32.0105504188284  C 91.5071737051099 32.0105504188284  82.0074490594475 32.0105504188284  82.0074490594475 32.0105504188284  C 82.0074490594475 32.0105504188284  82.0074490594475 37.0104054954929  82.0074490594475 37.0104054954929  C 82.0074490594475 37.0104054954929  75.0076519521173 43.0102315874902  75.0076519521173 43.0102315874902  C 75.0076519521173 43.0102315874902  48.5084200457957 46.0101446334889  48.5084200457957 46.0101446334889  C 48.5084200457957 46.0101446334889  44.0085504767977 49.0100576794875  44.0085504767977 49.0100576794875  C 44.0085504767977 49.0100576794875  44.0085504767977 53.5099272484856  44.0085504767977 53.5099272484856  C 44.0085504767977 53.5099272484856  29.0089852468044 59.0097678328165  29.0089852468044 59.0097678328165  C 29.0089852468044 59.0097678328165  16.0093620474768 60.5097243558158  16.0093620474768 60.5097243558158  C 16.0093620474768 60.5097243558158  9.50955044781307 70.0094490014782  9.50955044781307 70.0094490014782  C 9.50955044781307 70.0094490014782  0.00982580215062967 79.5091736471407  0.00982580215062967 79.5091736471407  C 0.00982580215062967 79.5091736471407  14.0094200168111 88.0089272774702  14.0094200168111 88.0089272774702  C 14.0094200168111 88.0089272774702  14.0094200168111 91.5088258311353  14.0094200168111 91.5088258311353  C 14.0094200168111 91.5088258311353  16.0093620474768 94.508738877134  16.0093620474768 94.508738877134  C 16.0093620474768 94.508738877134  9.50955044781307 102.008521492131  9.50955044781307 102.008521492131  C 9.50955044781307 102.008521492131  14.0094200168111 108.508333091794  14.0094200168111 108.508333091794  C 14.0094200168111 108.508333091794  14.0094200168111 111.508246137793  14.0094200168111 111.508246137793  C 14.0094200168111 111.508246137793  23.5091446624735 111.508246137793  23.5091446624735 111.508246137793  C 23.5091446624735 111.508246137793  37.508738877134 108.508333091794  37.508738877134 108.508333091794  C 37.508738877134 108.508333091794  37.508738877134 111.508246137793  37.508738877134 111.508246137793  C 37.508738877134 111.508246137793  44.0085504767977 114.508159183792  44.0085504767977 114.508159183792  C 44.0085504767977 114.508159183792  41.5086229384655 118.008057737457  41.5086229384655 118.008057737457  C 41.5086229384655 118.008057737457  29.0089852468044 122.007941798788  29.0089852468044 122.007941798788  C 29.0089852468044 122.007941798788  29.0089852468044 126.507811367786  29.0089852468044 126.507811367786  C 29.0089852468044 126.507811367786  44.0085504767977 128.007767890786  44.0085504767977 128.007767890786  C 44.0085504767977 128.007767890786  44.0085504767977 131.007680936784  44.0085504767977 131.007680936784  C 44.0085504767977 131.007680936784  50.0083765687951 128.007767890786  50.0083765687951 128.007767890786  C 50.0083765687951 128.007767890786  54.0082606301266 122.007941798788  54.0082606301266 122.007941798788  C 54.0082606301266 122.007941798788  60.5080722297904 120.007999768123  60.5080722297904 120.007999768123  C 60.5080722297904 120.007999768123  62.5080142604562 122.007941798788  62.5080142604562 122.007941798788  C 62.5080142604562 122.007941798788  59.0081157067911 126.507811367786  59.0081157067911 126.507811367786  C 59.0081157067911 126.507811367786  59.0081157067911 131.007680936784  59.0081157067911 131.007680936784  C 59.0081157067911 131.007680936784  66.0079128141213 131.007680936784  66.0079128141213 131.007680936784  C 66.0079128141213 131.007680936784  68.5078403524535 128.007767890786  68.5078403524535 128.007767890786  C 68.5078403524535 128.007767890786  73.0077099214515 129.507724413785  73.0077099214515 129.507724413785  C 73.0077099214515 129.507724413785  70.5077823831193 133.00762296745  70.5077823831193 133.00762296745  C 70.5077823831193 133.00762296745  73.0077099214515 136.507521521115  73.0077099214515 136.507521521115  C 73.0077099214515 136.507521521115  68.5078403524535 144.507289643778  68.5078403524535 144.507289643778  C 68.5078403524535 144.507289643778  68.5078403524535 148.50717370511  68.5078403524535 148.50717370511  C 68.5078403524535 148.50717370511  60.5080722297904 160.006840381438  60.5080722297904 160.006840381438  C 60.5080722297904 160.006840381438  56.0082026607924 168.006608504101  56.0082026607924 168.006608504101  C 56.0082026607924 168.006608504101  41.5086229384655 175.006405611432  41.5086229384655 175.006405611432  C 41.5086229384655 175.006405611432  30.5089417698037 178.506304165097  30.5089417698037 178.506304165097  C 30.5089417698037 178.506304165097  29.0089852468044 175.006405611432  29.0089852468044 175.006405611432  C 29.0089852468044 175.006405611432  25.5090866931393 175.006405611432  25.5090866931393 175.006405611432  C 25.5090866931393 175.006405611432  5.00968087881506 192.005912872091  5.00968087881506 192.005912872091  C 5.00968087881506 192.005912872091  9.50955044781307 197.005767948755  9.50955044781307 197.005767948755  C 9.50955044781307 197.005767948755  18.0093040781426 198.505724471754  18.0093040781426 198.505724471754  C 18.0093040781426 198.505724471754  16.0093620474768 207.005478102084  16.0093620474768 207.005478102084  C 16.0093620474768 207.005478102084  20.0092461088084 209.00542013275  20.0092461088084 209.00542013275  C 20.0092461088084 209.00542013275  33.5088548158024 207.005478102084  33.5088548158024 207.005478102084  C 33.5088548158024 207.005478102084  48.5084200457957 207.005478102084  48.5084200457957 207.005478102084  C 48.5084200457957 207.005478102084  54.0082606301266 205.505521579085  54.0082606301266 205.505521579085  C 54.0082606301266 205.505521579085  66.0079128141213 209.00542013275  66.0079128141213 209.00542013275  C 66.0079128141213 209.00542013275  75.0076519521173 207.005478102084  75.0076519521173 207.005478102084  C 75.0076519521173 207.005478102084  89.0072461667777 210.505376655749  89.0072461667777 210.505376655749  C 89.0072461667777 210.505376655749  97.5069997971073 209.00542013275  97.5069997971073 209.00542013275  C 97.5069997971073 209.00542013275  109.006666473436 198.505724471754  109.006666473436 198.505724471754  C 109.006666473436 198.505724471754  122.50627518043 193.50586939509  122.50627518043 193.50586939509  C 122.50627518043 193.50586939509  128.00611576476 187.006057795426  128.00611576476 187.006057795426  C 128.00611576476 187.006057795426  133.505956349091 183.006173734095  133.505956349091 183.006173734095  C 133.505956349091 183.006173734095  126.006173734095 175.006405611432  126.006173734095 175.006405611432  C 126.006173734095 175.006405611432  128.00611576476 163.506738935103  128.00611576476 163.506738935103  C 128.00611576476 163.506738935103  122.50627518043 163.506738935103  122.50627518043 163.506738935103  C 122.50627518043 163.506738935103  128.00611576476 157.506912843106  128.00611576476 157.506912843106  C 128.00611576476 157.506912843106  128.00611576476 153.507028781774  128.00611576476 153.507028781774  C 128.00611576476 153.507028781774  136.50586939509 151.507086751109  136.50586939509 151.507086751109  C 136.50586939509 151.507086751109  138.505811425756 144.507289643778  138.505811425756 144.507289643778  C 138.505811425756 144.507289643778  146.005594040752 140.507405582447  146.005594040752 140.507405582447  C 146.005594040752 140.507405582447  154.005362163416 131.007680936784  154.005362163416 131.007680936784  C 154.005362163416 131.007680936784  146.005594040752 126.507811367786  146.005594040752 126.507811367786  C 146.005594040752 126.507811367786  149.005507086751 118.008057737457  149.005507086751 118.008057737457  C 149.005507086751 118.008057737457  141.005738964088 114.508159183792  141.005738964088 114.508159183792  C 141.005738964088 114.508159183792  128.00611576476 102.008521492131  128.00611576476 102.008521492131  C 128.00611576476 102.008521492131  117.006434596099 103.50847801513  117.006434596099 103.50847801513  C 117.006434596099 103.50847801513  111.006608504101 94.508738877134  111.006608504101 94.508738877134  C 111.006608504101 94.508738877134  126.006173734095 91.5088258311353  126.006173734095 91.5088258311353  C 126.006173734095 91.5088258311353  138.505811425756 91.5088258311353  138.505811425756 91.5088258311353  C 138.505811425756 91.5088258311353  146.005594040752 88.0089272774702  146.005594040752 88.0089272774702  C 146.005594040752 88.0089272774702  144.505637517753 79.5091736471407  144.505637517753 79.5091736471407  C 144.505637517753 79.5091736471407  133.505956349091 79.5091736471407  133.505956349091 79.5091736471407  C 133.505956349091 79.5091736471407  131.006028810759 76.509260601142  131.006028810759 76.509260601142  C 131.006028810759 76.509260601142  136.50586939509 73.5093475551433  136.50586939509 73.5093475551433  C 136.50586939509 73.5093475551433  147.505550563752 75.0093040781427  147.505550563752 75.0093040781427  C 147.505550563752 75.0093040781427  151.005449117417 71.5094055244776  151.005449117417 71.5094055244776  C 151.005449117417 71.5094055244776  146.005594040752 70.0094490014782  146.005594040752 70.0094490014782  C 146.005594040752 70.0094490014782  149.005507086751 60.5097243558158  149.005507086751 60.5097243558158  C 149.005507086751 60.5097243558158  151.005449117417 59.0097678328165  151.005449117417 59.0097678328165  C 151.005449117417 59.0097678328165  149.005507086751 56.5098402944842  149.005507086751 56.5098402944842  C 149.005507086751 56.5098402944842  138.505811425756 55.0098837714849  138.505811425756 55.0098837714849  C 138.505811425756 55.0098837714849  144.505637517753 49.0100576794875  144.505637517753 49.0100576794875  C 144.505637517753 49.0100576794875  149.005507086751 49.0100576794875  149.005507086751 49.0100576794875  C 149.005507086751 49.0100576794875  151.005449117417 46.0101446334889  151.005449117417 46.0101446334889  C 151.005449117417 46.0101446334889  162.005130286079 46.0101446334889  162.005130286079 46.0101446334889  C 162.005130286079 46.0101446334889  173.504796962407 49.0100576794875  173.504796962407 49.0100576794875  C 173.504796962407 49.0100576794875  182.004550592736 46.0101446334889  182.004550592736 46.0101446334889  C 182.004550592736 46.0101446334889  186.004434654068 41.0102895568244  186.004434654068 41.0102895568244  C 186.004434654068 41.0102895568244  177.504681023738 41.0102895568244  177.504681023738 41.0102895568244  C 177.504681023738 41.0102895568244  165.505028839744 39.5103330338251  165.505028839744 39.5103330338251  C 165.505028839744 39.5103330338251  156.505289701748 39.5103330338251  156.505289701748 39.5103330338251  C 156.505289701748 39.5103330338251  149.005507086751 38.0103765108258  149.005507086751 38.0103765108258  C 149.005507086751 38.0103765108258  152.00542013275 29.5106228804962  152.00542013275 29.5106228804962  C 152.00542013275 29.5106228804962  150.50546360975 27.010695342164  150.50546360975 27.010695342164  C 150.50546360975 27.010695342164  154.505347671082 16.0110141735022  154.505347671082 16.0110141735022  Z " fill-rule="nonzero" fill="#033571" stroke="none" transform="matrix(1 0 0 1 648 354 )" />
    <path d="M 154.505347671082 16.0110141735022  C 154.505347671082 16.0110141735022  165.505028839744 14.0110721428364  165.505028839744 14.0110721428364  C 165.505028839744 14.0110721428364  160.005188255413 8.01124605083911  160.005188255413 8.01124605083911  C 160.005188255413 8.01124605083911  151.005449117417 11.0111590968378  151.005449117417 11.0111590968378  C 151.005449117417 11.0111590968378  146.005594040752 6.01130402017333  146.005594040752 6.01130402017333  C 146.005594040752 6.01130402017333  136.50586939509 3.5113764818411  136.50586939509 3.5113764818411  C 136.50586939509 3.5113764818411  128.00611576476 0.0114779281759922  128.00611576476 0.0114779281759922  C 128.00611576476 0.0114779281759922  111.006608504101 0.0114779281759922  111.006608504101 0.0114779281759922  C 111.006608504101 0.0114779281759922  97.5069997971073 2.01141995884177  97.5069997971073 2.01141995884177  C 97.5069997971073 2.01141995884177  91.5071737051099 0.0114779281759922  91.5071737051099 0.0114779281759922  C 91.5071737051099 0.0114779281759922  84.0073910901133 3.5113764818411  84.0073910901133 3.5113764818411  C 84.0073910901133 3.5113764818411  87.5072896437784 8.01124605083911  87.5072896437784 8.01124605083911  C 87.5072896437784 8.01124605083911  82.0074490594475 12.5111156198371  82.0074490594475 12.5111156198371  C 82.0074490594475 12.5111156198371  87.5072896437784 14.0110721428364  87.5072896437784 14.0110721428364  C 87.5072896437784 14.0110721428364  97.5069997971073 14.0110721428364  97.5069997971073 14.0110721428364  C 97.5069997971073 14.0110721428364  91.5071737051099 20.5108837425002  91.5071737051099 20.5108837425002  C 91.5071737051099 20.5108837425002  95.0070722587751 27.010695342164  95.0070722587751 27.010695342164  C 95.0070722587751 27.010695342164  91.5071737051099 32.0105504188284  91.5071737051099 32.0105504188284  C 91.5071737051099 32.0105504188284  82.0074490594475 32.0105504188284  82.0074490594475 32.0105504188284  C 82.0074490594475 32.0105504188284  82.0074490594475 37.0104054954929  82.0074490594475 37.0104054954929  C 82.0074490594475 37.0104054954929  75.0076519521173 43.0102315874902  75.0076519521173 43.0102315874902  C 75.0076519521173 43.0102315874902  48.5084200457957 46.0101446334889  48.5084200457957 46.0101446334889  C 48.5084200457957 46.0101446334889  44.0085504767977 49.0100576794875  44.0085504767977 49.0100576794875  C 44.0085504767977 49.0100576794875  44.0085504767977 53.5099272484856  44.0085504767977 53.5099272484856  C 44.0085504767977 53.5099272484856  29.0089852468044 59.0097678328165  29.0089852468044 59.0097678328165  C 29.0089852468044 59.0097678328165  16.0093620474768 60.5097243558158  16.0093620474768 60.5097243558158  C 16.0093620474768 60.5097243558158  9.50955044781307 70.0094490014782  9.50955044781307 70.0094490014782  C 9.50955044781307 70.0094490014782  0.00982580215062967 79.5091736471407  0.00982580215062967 79.5091736471407  C 0.00982580215062967 79.5091736471407  14.0094200168111 88.0089272774702  14.0094200168111 88.0089272774702  C 14.0094200168111 88.0089272774702  14.0094200168111 91.5088258311353  14.0094200168111 91.5088258311353  C 14.0094200168111 91.5088258311353  16.0093620474768 94.508738877134  16.0093620474768 94.508738877134  C 16.0093620474768 94.508738877134  9.50955044781307 102.008521492131  9.50955044781307 102.008521492131  C 9.50955044781307 102.008521492131  14.0094200168111 108.508333091794  14.0094200168111 108.508333091794  C 14.0094200168111 108.508333091794  14.0094200168111 111.508246137793  14.0094200168111 111.508246137793  C 14.0094200168111 111.508246137793  23.5091446624735 111.508246137793  23.5091446624735 111.508246137793  C 23.5091446624735 111.508246137793  37.508738877134 108.508333091794  37.508738877134 108.508333091794  C 37.508738877134 108.508333091794  37.508738877134 111.508246137793  37.508738877134 111.508246137793  C 37.508738877134 111.508246137793  44.0085504767977 114.508159183792  44.0085504767977 114.508159183792  C 44.0085504767977 114.508159183792  41.5086229384655 118.008057737457  41.5086229384655 118.008057737457  C 41.5086229384655 118.008057737457  29.0089852468044 122.007941798788  29.0089852468044 122.007941798788  C 29.0089852468044 122.007941798788  29.0089852468044 126.507811367786  29.0089852468044 126.507811367786  C 29.0089852468044 126.507811367786  44.0085504767977 128.007767890786  44.0085504767977 128.007767890786  C 44.0085504767977 128.007767890786  44.0085504767977 131.007680936784  44.0085504767977 131.007680936784  C 44.0085504767977 131.007680936784  50.0083765687951 128.007767890786  50.0083765687951 128.007767890786  C 50.0083765687951 128.007767890786  54.0082606301266 122.007941798788  54.0082606301266 122.007941798788  C 54.0082606301266 122.007941798788  60.5080722297904 120.007999768123  60.5080722297904 120.007999768123  C 60.5080722297904 120.007999768123  62.5080142604562 122.007941798788  62.5080142604562 122.007941798788  C 62.5080142604562 122.007941798788  59.0081157067911 126.507811367786  59.0081157067911 126.507811367786  C 59.0081157067911 126.507811367786  59.0081157067911 131.007680936784  59.0081157067911 131.007680936784  C 59.0081157067911 131.007680936784  66.0079128141213 131.007680936784  66.0079128141213 131.007680936784  C 66.0079128141213 131.007680936784  68.5078403524535 128.007767890786  68.5078403524535 128.007767890786  C 68.5078403524535 128.007767890786  73.0077099214515 129.507724413785  73.0077099214515 129.507724413785  C 73.0077099214515 129.507724413785  70.5077823831193 133.00762296745  70.5077823831193 133.00762296745  C 70.5077823831193 133.00762296745  73.0077099214515 136.507521521115  73.0077099214515 136.507521521115  C 73.0077099214515 136.507521521115  68.5078403524535 144.507289643778  68.5078403524535 144.507289643778  C 68.5078403524535 144.507289643778  68.5078403524535 148.50717370511  68.5078403524535 148.50717370511  C 68.5078403524535 148.50717370511  60.5080722297904 160.006840381438  60.5080722297904 160.006840381438  C 60.5080722297904 160.006840381438  56.0082026607924 168.006608504101  56.0082026607924 168.006608504101  C 56.0082026607924 168.006608504101  41.5086229384655 175.006405611432  41.5086229384655 175.006405611432  C 41.5086229384655 175.006405611432  30.5089417698037 178.506304165097  30.5089417698037 178.506304165097  C 30.5089417698037 178.506304165097  29.0089852468044 175.006405611432  29.0089852468044 175.006405611432  C 29.0089852468044 175.006405611432  25.5090866931393 175.006405611432  25.5090866931393 175.006405611432  C 25.5090866931393 175.006405611432  5.00968087881506 192.005912872091  5.00968087881506 192.005912872091  C 5.00968087881506 192.005912872091  9.50955044781307 197.005767948755  9.50955044781307 197.005767948755  C 9.50955044781307 197.005767948755  18.0093040781426 198.505724471754  18.0093040781426 198.505724471754  C 18.0093040781426 198.505724471754  16.0093620474768 207.005478102084  16.0093620474768 207.005478102084  C 16.0093620474768 207.005478102084  20.0092461088084 209.00542013275  20.0092461088084 209.00542013275  C 20.0092461088084 209.00542013275  33.5088548158024 207.005478102084  33.5088548158024 207.005478102084  C 33.5088548158024 207.005478102084  48.5084200457957 207.005478102084  48.5084200457957 207.005478102084  C 48.5084200457957 207.005478102084  54.0082606301266 205.505521579085  54.0082606301266 205.505521579085  C 54.0082606301266 205.505521579085  66.0079128141213 209.00542013275  66.0079128141213 209.00542013275  C 66.0079128141213 209.00542013275  75.0076519521173 207.005478102084  75.0076519521173 207.005478102084  C 75.0076519521173 207.005478102084  89.0072461667777 210.505376655749  89.0072461667777 210.505376655749  C 89.0072461667777 210.505376655749  97.5069997971073 209.00542013275  97.5069997971073 209.00542013275  C 97.5069997971073 209.00542013275  109.006666473436 198.505724471754  109.006666473436 198.505724471754  C 109.006666473436 198.505724471754  122.50627518043 193.50586939509  122.50627518043 193.50586939509  C 122.50627518043 193.50586939509  128.00611576476 187.006057795426  128.00611576476 187.006057795426  C 128.00611576476 187.006057795426  133.505956349091 183.006173734095  133.505956349091 183.006173734095  C 133.505956349091 183.006173734095  126.006173734095 175.006405611432  126.006173734095 175.006405611432  C 126.006173734095 175.006405611432  128.00611576476 163.506738935103  128.00611576476 163.506738935103  C 128.00611576476 163.506738935103  122.50627518043 163.506738935103  122.50627518043 163.506738935103  C 122.50627518043 163.506738935103  128.00611576476 157.506912843106  128.00611576476 157.506912843106  C 128.00611576476 157.506912843106  128.00611576476 153.507028781774  128.00611576476 153.507028781774  C 128.00611576476 153.507028781774  136.50586939509 151.507086751109  136.50586939509 151.507086751109  C 136.50586939509 151.507086751109  138.505811425756 144.507289643778  138.505811425756 144.507289643778  C 138.505811425756 144.507289643778  146.005594040752 140.507405582447  146.005594040752 140.507405582447  C 146.005594040752 140.507405582447  154.005362163416 131.007680936784  154.005362163416 131.007680936784  C 154.005362163416 131.007680936784  146.005594040752 126.507811367786  146.005594040752 126.507811367786  C 146.005594040752 126.507811367786  149.005507086751 118.008057737457  149.005507086751 118.008057737457  C 149.005507086751 118.008057737457  141.005738964088 114.508159183792  141.005738964088 114.508159183792  C 141.005738964088 114.508159183792  128.00611576476 102.008521492131  128.00611576476 102.008521492131  C 128.00611576476 102.008521492131  117.006434596099 103.50847801513  117.006434596099 103.50847801513  C 117.006434596099 103.50847801513  111.006608504101 94.508738877134  111.006608504101 94.508738877134  C 111.006608504101 94.508738877134  126.006173734095 91.5088258311353  126.006173734095 91.5088258311353  C 126.006173734095 91.5088258311353  138.505811425756 91.5088258311353  138.505811425756 91.5088258311353  C 138.505811425756 91.5088258311353  146.005594040752 88.0089272774702  146.005594040752 88.0089272774702  C 146.005594040752 88.0089272774702  144.505637517753 79.5091736471407  144.505637517753 79.5091736471407  C 144.505637517753 79.5091736471407  133.505956349091 79.5091736471407  133.505956349091 79.5091736471407  C 133.505956349091 79.5091736471407  131.006028810759 76.509260601142  131.006028810759 76.509260601142  C 131.006028810759 76.509260601142  136.50586939509 73.5093475551433  136.50586939509 73.5093475551433  C 136.50586939509 73.5093475551433  147.505550563752 75.0093040781427  147.505550563752 75.0093040781427  C 147.505550563752 75.0093040781427  151.005449117417 71.5094055244776  151.005449117417 71.5094055244776  C 151.005449117417 71.5094055244776  146.005594040752 70.0094490014782  146.005594040752 70.0094490014782  C 146.005594040752 70.0094490014782  149.005507086751 60.5097243558158  149.005507086751 60.5097243558158  C 149.005507086751 60.5097243558158  151.005449117417 59.0097678328165  151.005449117417 59.0097678328165  C 151.005449117417 59.0097678328165  149.005507086751 56.5098402944842  149.005507086751 56.5098402944842  C 149.005507086751 56.5098402944842  138.505811425756 55.0098837714849  138.505811425756 55.0098837714849  C 138.505811425756 55.0098837714849  144.505637517753 49.0100576794875  144.505637517753 49.0100576794875  C 144.505637517753 49.0100576794875  149.005507086751 49.0100576794875  149.005507086751 49.0100576794875  C 149.005507086751 49.0100576794875  151.005449117417 46.0101446334889  151.005449117417 46.0101446334889  C 151.005449117417 46.0101446334889  162.005130286079 46.0101446334889  162.005130286079 46.0101446334889  C 162.005130286079 46.0101446334889  173.504796962407 49.0100576794875  173.504796962407 49.0100576794875  C 173.504796962407 49.0100576794875  182.004550592736 46.0101446334889  182.004550592736 46.0101446334889  C 182.004550592736 46.0101446334889  186.004434654068 41.0102895568244  186.004434654068 41.0102895568244  C 186.004434654068 41.0102895568244  177.504681023738 41.0102895568244  177.504681023738 41.0102895568244  C 177.504681023738 41.0102895568244  165.505028839744 39.5103330338251  165.505028839744 39.5103330338251  C 165.505028839744 39.5103330338251  156.505289701748 39.5103330338251  156.505289701748 39.5103330338251  C 156.505289701748 39.5103330338251  149.005507086751 38.0103765108258  149.005507086751 38.0103765108258  C 149.005507086751 38.0103765108258  152.00542013275 29.5106228804962  152.00542013275 29.5106228804962  C 152.00542013275 29.5106228804962  150.50546360975 27.010695342164  150.50546360975 27.010695342164  C 150.50546360975 27.010695342164  154.505347671082 16.0110141735022  154.505347671082 16.0110141735022  Z " stroke-width="1.99994203066578" stroke="#b5eaff" fill="none" stroke-opacity="0.501960784313725" transform="matrix(1 0 0 1 648 354 )" mask="url(#clip1064)" />
  </g>
</svg>