<svg t="1636067335413" class="icon" viewBox="0 0 1024 1024" version="1.1" xmlns="http://www.w3.org/2000/svg" p-id="5803" width="24" height="24"><path d="M693.68 305.83c0 4.468-3.695 8.124-8.212 8.124H291.255c-4.517 0-8.212-3.656-8.212-8.125v-48.75c0-4.469 3.695-8.125 8.212-8.125h394.213c4.517 0 8.213 3.656 8.213 8.125v48.75z m-402.425 91.087H480.15c4.517 0 8.213 3.657 8.213 8.125v48.75c0 4.47-3.696 8.125-8.213 8.125H291.255c-4.517 0-8.212-3.656-8.212-8.125v-48.75c0-4.468 3.695-8.125 8.212-8.125z m386 119.193C799.728 516.11 899 615.472 899 738.055 899 860.639 799.728 960 677.255 960s-221.744-99.361-221.744-221.945c0-122.583 99.271-221.945 221.744-221.945z m110.36 332.404c29.463-29.49 45.683-68.742 45.683-110.459s-16.22-80.969-45.684-110.459c-29.463-29.49-68.679-45.724-110.359-45.724-41.68 0-80.895 16.234-110.359 45.724-29.463 29.49-45.683 68.742-45.683 110.459s16.22 80.969 45.683 110.459c29.464 29.49 68.68 45.725 110.36 45.725 41.68 0 80.895-16.235 110.358-45.725z m-151.01-110.78l-42.018-42.017c-4.899-4.899-6.293-11.52-3.1-14.714l29.037-29.036c3.194-3.194 9.816-1.8 14.714 3.098l42.017 42.018 42.018-42.018c4.898-4.898 11.52-6.292 14.713-3.098l29.037 29.036c3.194 3.194 1.8 9.815-3.1 14.714l-42.017 42.017 42.018 42.017c4.898 4.899 6.293 11.52 3.099 14.714L733.986 823.5c-3.194 3.194-9.815 1.8-14.713-3.099l-42.018-42.017-42.017 42.017c-4.898 4.899-11.52 6.293-14.714 3.1l-29.036-29.037c-3.194-3.194-1.8-9.815 3.099-14.714l42.017-42.017z m-197.52 132.624c4.517 0 8.213 3.699 8.213 8.22v48.541c0 4.521-3.696 8.22-8.213 8.22H159.851c-18.17 0-32.851-14.693-32.851-32.88V96.88C127 78.694 141.68 64 159.851 64h657.021c18.171 0 32.851 14.694 32.851 32.88v394.57c0 4.52-3.695 8.22-8.212 8.22h-48.49c-4.517 0-8.212-3.7-8.212-8.22V128.982H191.915v741.376h247.17z" fill="#31A7FF" p-id="5804"></path></svg>