<svg t="1636067278934" class="icon" viewBox="0 0 1024 1024" version="1.1" xmlns="http://www.w3.org/2000/svg" p-id="2726" width="24" height="24"><path d="M764.8 902.4H268.8V572.8c0-124.8 102.4-230.4 230.4-230.4h38.4c124.8 0 230.4 102.4 230.4 230.4v329.6z m-233.6-496h-12.8v422.4h176v-259.2c0-89.6-73.6-163.2-163.2-163.2z m-44.8-140.8h48c12.8 0 22.4-9.6 22.4-22.4V144c0-12.8-9.6-22.4-22.4-22.4h-48c-12.8 0-22.4 9.6-22.4 22.4v99.2c-3.2 12.8 9.6 22.4 22.4 22.4zM278.4 320c6.4 12.8 22.4 16 32 9.6l41.6-25.6c12.8-6.4 16-22.4 9.6-32L313.6 188.8c-6.4-12.8-22.4-16-32-9.6l-41.6 22.4c-12.8 6.4-16 22.4-9.6 35.2L278.4 320zM192 470.4l22.4-41.6c6.4-12.8 3.2-25.6-9.6-32l-83.2-48c-12.8-6.4-25.6-3.2-32 9.6l-22.4 41.6c-6.4 12.8-3.2 25.6 9.6 32L160 476.8c12.8 6.4 25.6 3.2 32-6.4z m764.8-83.2l-22.4-41.6c-6.4-12.8-22.4-16-32-9.6L819.2 384c-12.8 6.4-16 22.4-9.6 32l22.4 41.6c6.4 12.8 22.4 16 32 9.6l83.2-48c12.8-6.4 16-19.2 9.6-32z m-291.2-86.4l41.6 22.4c12.8 6.4 25.6 3.2 32-9.6l48-83.2c6.4-12.8 3.2-25.6-9.6-32L736 176c-12.8-6.4-25.6-3.2-32 9.6l-48 83.2c-3.2 9.6 0 25.6 9.6 32z" p-id="2727" fill="#31A7FF"></path></svg>