<?xml version="1.0" encoding="utf-8"?>
<svg version="1.1" xmlns:xlink="http://www.w3.org/1999/xlink" width="842px" height="96px" xmlns="http://www.w3.org/2000/svg">
  <g transform="matrix(1 0 0 1 -560.5 -866.5 )">
    <path d="M 0.675257658040209 50.1329915301012  C 37.006524949216 50.1329915301012  55.9309093195003 0.414425416664358  81.2983343144004 0.414425416664358  C 106.665759309301 0.414425416664358  126.466194307403 91.5864034194992  156.041621232305 91.5864034194992  C 185.617048157207 91.5864034194992  205.925782735503 17.8199848535693  230.78490815021 17.8199848535693  C 255.644033564917 17.8199848535693  275.570222513212 84.12687794654  305.527138312231 84.12687794654  C 335.484054111249 84.12687794654  351.587957027195 25.2795103265285  380.270425230136 25.2795103265285  C 408.952893433076 25.2795103265285  423.744305541121 74.1808439825944  452.936130080139 74.1808439825944  C 482.127954619157 74.1808439825944  495.937640510986 34.3967081268119  527.679416998044 34.3967081268119  C 559.421193485101 34.3967081268119  572.591542067124 65.8924823459731  602.422703915948 65.8924823459731  C 632.253865764773 65.8924823459731  655.804727395115 42.6850697634333  687.546503882173 42.6850697634333  C 719.28828036923 42.6850697634333  727.743384196941 58.4329568730138  762.289790800077 58.4329568730138  C 796.836197403213 58.4329568730138  810.266507932694 46.5689960263541  837.033077717982 50.9734314000546  " stroke-width="3.00002654890751" stroke="#1e98ff" fill="none" transform="matrix(1 0 0 1 562 868 )" />
  </g>
</svg>