<?xml version="1.0" encoding="utf-8"?>
<svg version="1.1" xmlns:xlink="http://www.w3.org/1999/xlink" width="842px" height="96px" xmlns="http://www.w3.org/2000/svg">
  <g transform="matrix(1 0 0 1 -560.5 -866.5 )">
    <path d="M 837.32474234196 50.1329915301012  C 800.993475050784 50.1329915301012  782.0690906805 0.414425416664358  756.7016656856 0.414425416664358  C 731.334240690699 0.414425416664358  711.533805692597 91.5864034194992  681.958378767695 91.5864034194992  C 652.382951842793 91.5864034194992  632.074217264497 17.8199848535693  607.21509184979 17.8199848535693  C 582.355966435083 17.8199848535693  562.429777486788 84.12687794654  532.472861687769 84.12687794654  C 502.515945888751 84.12687794654  486.412042972805 25.2795103265285  457.729574769865 25.2795103265285  C 429.047106566924 25.2795103265285  414.255694458879 74.1808439825944  385.063869919861 74.1808439825944  C 355.872045380843 74.1808439825944  342.062359489014 34.3967081268119  310.320583001956 34.3967081268119  C 278.578806514899 34.3967081268119  265.408457932876 65.8924823459731  235.577296084052 65.8924823459731  C 205.746134235227 65.8924823459731  182.195272604885 42.6850697634333  150.453496117827 42.6850697634333  C 118.71171963077 42.6850697634333  110.256615803059 58.4329568730138  75.7102091999229 58.4329568730138  C 41.1638025967869 58.4329568730138  27.7334920673056 46.5689960263541  0.966922282017989 50.9734314000546  " stroke-width="3.00002654890751" stroke="#02ffff" fill="none" transform="matrix(1 0 0 1 562 868 )" />
  </g>
</svg>