<?xml version="1.0" encoding="utf-8"?>
<svg version="1.1" xmlns:xlink="http://www.w3.org/1999/xlink" width="839px" height="128px" xmlns="http://www.w3.org/2000/svg">
  <defs>
    <linearGradient gradientUnits="userSpaceOnUse" x1="419.5" y1="0" x2="419.5" y2="128" id="LinearGradient1076">
      <stop id="Stop1077" stop-color="#02ffff" offset="0" />
      <stop id="Stop1078" stop-color="#02ffff" stop-opacity="0.0980392156862745" offset="1" />
    </linearGradient>
  </defs>
  <g transform="matrix(1 0 0 1 -561 -868 )">
    <path d="M 0 128  C 0 127.958641854945  0.00106009299493537 76.2316476622441  0.00106009299493537 50.3875462285162  C 26.8563959365206 46.0016504338357  40.3248774385929 57.8156723391907  74.9803775396749 57.8156723391907  C 109.635877640756 57.8156723391907  118.116621601132 42.1340727722111  149.959694986354 42.1340727722111  C 181.802768371576 42.1340727722111  205.428000859194 65.2437984498652  235.35230592338 65.2437984498652  C 265.276610987567 65.2437984498652  278.489610077833 33.880599315906  310.33162337006 33.880599315906  C 342.173636662286 33.880599315906  356.021631456585 73.4972719061702  385.310940816739 73.4972719061702  C 414.600250176893 73.4972719061702  429.434131456586 24.8017785139705  458.206115435156 24.8017785139705  C 486.978099413727 24.8017785139705  503.133916658243 83.4014400537362  533.185432881835 83.4014400537362  C 563.236949105428 83.4014400537362  583.227122713029 17.373652403296  608.16369023552 17.373652403296  C 633.100257758011 17.373652403296  653.474185029819 90.8295661644108  683.1430076822 90.8295661644108  C 712.81183033458 90.8295661644108  732.673732689781 0.0413581450553693  758.122325128879 0.0413581450553693  C 783.570917567978 0.0413581450553693  802.555062923279 49.5506440200468  839 49.5506440200468  L 839 128  L 0 128  Z " fill-rule="nonzero" fill="url(#LinearGradient1076)" stroke="none" transform="matrix(1 0 0 1 561 868 )" />
  </g>
</svg>