<?xml version="1.0" encoding="utf-8"?>
<svg version="1.1" xmlns:xlink="http://www.w3.org/1999/xlink" width="839px" height="128px" xmlns="http://www.w3.org/2000/svg">
  <defs>
    <linearGradient gradientUnits="userSpaceOnUse" x1="419.5" y1="0" x2="419.5" y2="128" id="LinearGradient1073">
      <stop id="Stop1074" stop-color="#0b91ee" offset="0" />
      <stop id="Stop1075" stop-color="#0b91ee" stop-opacity="0" offset="1" />
    </linearGradient>
  </defs>
  <g transform="matrix(1 0 0 1 -561 -868 )">
    <path d="M 839 128  C 839 127.958641854945  838.998939907005 76.2316476622441  838.998939907005 50.3875462285162  C 812.143604063479 46.0016504338357  798.675122561407 57.8156723391907  764.019622460325 57.8156723391907  C 729.364122359244 57.8156723391907  720.883378398868 42.1340727722111  689.040305013646 42.1340727722111  C 657.197231628424 42.1340727722111  633.571999140806 65.2437984498652  603.64769407662 65.2437984498652  C 573.723389012433 65.2437984498652  560.510389922167 33.880599315906  528.66837662994 33.880599315906  C 496.826363337714 33.880599315906  482.978368543415 73.4972719061702  453.689059183261 73.4972719061702  C 424.399749823107 73.4972719061702  409.565868543414 24.8017785139705  380.793884564844 24.8017785139705  C 352.021900586273 24.8017785139705  335.866083341757 83.4014400537362  305.814567118165 83.4014400537362  C 275.763050894572 83.4014400537362  255.772877286971 17.373652403296  230.83630976448 17.373652403296  C 205.899742241989 17.373652403296  185.525814970181 90.8295661644108  155.8569923178 90.8295661644108  C 126.18816966542 90.8295661644108  106.326267310219 0.0413581450553693  80.8776748711209 0.0413581450553693  C 55.4290824320225 0.0413581450553693  36.4449370767211 49.5506440200468  0 49.5506440200468  L 0 128  L 839 128  Z " fill-rule="nonzero" fill="url(#LinearGradient1073)" stroke="none" transform="matrix(1 0 0 1 561 868 )" />
  </g>
</svg>