<?xml version="1.0" encoding="utf-8"?>
<svg version="1.1" xmlns:xlink="http://www.w3.org/1999/xlink" width="64px" height="74px" xmlns="http://www.w3.org/2000/svg">
  <g transform="matrix(1 0 0 1 -1577 -855 )">
    <path d="M 62 19.0770903026415  L 32.1237763079575 1.25490121327834  L 2 19.0770903026415  L 2 54.7212857021827  L 32.1237763079575 72.5433529387558  L 62 54.7212857021827  L 62 19.0770903026415  Z M 31.6234487515446 0.391147710201949  C 31.7780799422621 0.301524983036416  31.9509890515051 0.256683156256145  32.1237763079575 0.256683156256145  C 32.2965635644098 0.256683156256145  32.4694726736518 0.301524983036416  32.6242257171598 0.391147710201949  L 63.3882777970348 18.2133367995651  C 63.6964435033588 18.3918511371552  63.8861682976442 18.7209755233878  63 19.0770903026415  L 63 54.7212857021827  C 63.8861682976442 55.0774004814365  63.6964435033588 55.4065248676691  63.3882777970348 55.5850392052591  L 32.6241038643702 73.4071064418322  C 32.469350820862 73.4967291689976  32.2965635644098 73.541570995778  32.1237763079575 73.541570995778  C 31.9509890515051 73.541570995778  31.7780799422621 73.4967291689976  31.6234487515446 73.4071064418322  L 0.859518524460327 55.5850392052591  C 0.551352818135683 55.4065248676691  0.361628023850926 55.0774004814365  1 54.7212857021827  L 1 19.0770903026415  C 0.361628023850926 18.7209755233878  0.551352818135683 18.3918511371552  0.859518524460327 18.2133367995651  L 31.6234487515446 0.391147710201949  Z " fill-rule="nonzero" fill="#389aff" stroke="none" transform="matrix(1 0 0 1 1577 855 )" />
  </g>
</svg>