<?xml version="1.0" encoding="utf-8"?>
<svg version="1.1" xmlns:xlink="http://www.w3.org/1999/xlink" width="96px" height="110px" xmlns="http://www.w3.org/2000/svg">
  <g transform="matrix(1 0 0 1 -1561 -837 )">
    <path d="M 94 28.1655083467992  L 48.1253603942291 1.43234656554466  L 2 28.1655083467992  L 2 81.6317709829135  L 48.1253603942291 108.365054616958  L 94 81.6317709829135  L 94 28.1655083467992  Z M 47.6250328378164 0.568593062468267  C 47.7797858813244 0.478970335302733  47.9525731377769 0.434128508522463  48.1253603942291 0.434128508522463  C 48.2981476506814 0.434128508522463  48.4709349071338 0.478970335302733  48.6256879506418 0.568593062468267  L 94.7718269968486 27.301754843723  C 95.0799927031735 27.4802691813129  95.269717497458 27.8093935675455  95 28.1655083467992  L 95 81.6317709829135  C 95.269717497458 81.9878857621674  95.0799927031735 82.3170101483998  94.7718269968486 82.4955244859899  L 48.6256879506418 109.228808120035  C 48.4709349071338 109.3184308472  48.2981476506814 109.363272673981  48.1253603942291 109.363272673981  C 47.9525731377769 109.363272673981  47.7797858813244 109.3184308472  47.6250328378164 109.228808120035  L 1.47877193881982 82.4955244859899  C 1.17060623249517 82.3170101483998  0.980881438210417 81.9878857621674  1 81.6317709829135  L 1 28.1655083467992  C 0.980881438210417 27.8093935675455  1.17060623249517 27.4802691813129  1.47877193881982 27.301754843723  L 47.6250328378164 0.568593062468267  Z " fill-rule="nonzero" fill="#389aff" stroke="none" transform="matrix(1 0 0 1 1561 837 )" />
  </g>
</svg>