<?xml version="1.0" encoding="utf-8"?>
<svg version="1.1" xmlns:xlink="http://www.w3.org/1999/xlink" width="34px" height="38px" xmlns="http://www.w3.org/2000/svg">
  <g transform="matrix(1 0 0 1 -1592 -873 )">
    <path d="M 32 9.98855040569367  L 17.1223140744755 1.07757771380216  L 2 9.98855040569367  L 2 27.8107394950569  L 17.1223140744755 36.7217731133434  L 32 27.8107394950569  L 32 9.98855040569367  Z M 16.6219865180628 0.213824210725875  C 16.7767395615708 0.124201483560341  16.9495268180231 0.0793596567800705  17.1223140744755 0.0793596567800705  C 17.2951013309278 0.0793596567800705  17.4678885873802 0.124201483560341  17.6226416308882 0.213824210725875  L 33.0049723028003 9.12479690261728  C 33.3131380091252 9.30331124020734  33.5028628034099 9.63243562643981  33 9.98855040569367  L 33 27.8107394950569  C 33.5028628034099 28.1668542743107  33.3131380091252 28.4959786605432  33.0049723028003 28.6744929981332  L 17.6226416308882 37.5855266164198  C 17.4678885873802 37.6751493435853  17.2951013309278 37.7199911703656  17.1223140744755 37.7199911703656  C 16.9495268180231 37.7199911703656  16.7766177087801 37.6751493435853  16.6219865180628 37.5855266164198  L 1.23989955172988 28.6744929981332  C 0.931855698195704 28.4959786605432  0.742130903911175 28.1668542743107  1 27.8107394950569  L 1 9.98855040569367  C 0.742130903911175 9.63243562643981  0.931855698195704 9.30331124020734  1.24002140452058 9.12479690261728  L 16.6219865180628 0.213824210725875  Z " fill-rule="nonzero" fill="#389aff" stroke="none" transform="matrix(1 0 0 1 1592 873 )" />
  </g>
</svg>