<?xml version="1.0" encoding="utf-8"?>
<svg version="1.1" xmlns:xlink="http://www.w3.org/1999/xlink" width="126px" height="146px" xmlns="http://www.w3.org/2000/svg">
  <g transform="matrix(1 0 0 1 -1546 -819 )">
    <path d="M 124 37.2539263909571  L 63.1268226277111 1.60973099141586  L 2 37.2539263909571  L 2 108.54243904283  L 63.1268226277111 144.186695368766  L 124 108.54243904283  L 124 37.2539263909571  Z M 62.6264950712985 0.745977488339463  C 62.7812481148064 0.656354761174043  62.9540353712587 0.611512934393659  63.1268226277111 0.611512934393659  C 63.2996098841634 0.611512934393659  63.4723971406158 0.656354761174043  63.6271501841238 0.745977488339463  L 125.155376196663 36.3901728878807  C 125.463541902987 36.5686872254707  125.653266697273 36.8978116117032  125 37.2539263909571  L 125 108.54243904283  C 125.653266697273 108.898553822083  125.463541902987 109.227678208316  125.155376196663 109.406192545906  L 63.6271501841238 145.050448871842  C 63.4723971406158 145.140071599008  63.2996098841634 145.184913425788  63.1268226277111 145.184913425788  C 62.9540353712587 145.184913425788  62.7812481148064 145.140071599008  62.6264950712985 145.050448871842  L 1.0981472059691 109.406192545906  C 0.790103352434926 109.227678208316  0.600378558150169 108.898553822083  1 108.54243904283  L 1 37.2539263909571  C 0.600378558150169 36.8978116117032  0.790103352434926 36.5686872254707  1.0981472059691 36.3901728878807  L 62.6264950712985 0.745977488339463  Z " fill-rule="nonzero" fill="#389aff" stroke="none" transform="matrix(1 0 0 1 1546 819 )" />
  </g>
</svg>