<?xml version="1.0" encoding="utf-8"?>
<svg version="1.1" xmlns:xlink="http://www.w3.org/1999/xlink" width="157px" height="182px" xmlns="http://www.w3.org/2000/svg">
  <g transform="matrix(1 0 0 1 -1531 -801 )">
    <path d="M 155 46.3424053615099  L 78.1282848611932 1.78717634368218  L 2 46.3424053615099  L 2 135.45304617635  L 78.1282848611932 180.008275194178  L 155 135.45304617635  L 155 46.3424053615099  Z M 77.6279573047802 0.923422840605781  C 77.7827103482884 0.833800113440248  77.9554976047407 0.788958286659977  78.1282848611932 0.788958286659977  C 78.3010721176454 0.788958286659977  78.4739812268883 0.833800113440248  78.6286124176058 0.923422840605781  L 155.539047249268 45.4786518584335  C 155.847212955592 45.6571661960235  156.036937749877 45.9862905822561  156 46.3424053615099  L 156 135.45304617635  C 156.036937749877 135.809160955604  155.847212955592 136.138285341837  155.539047249268 136.316799679427  L 78.6286124176058 180.872028697254  C 78.4739812268883 180.96165142442  78.3010721176454 181.0064932512  78.1282848611932 181.0064932512  C 77.9554976047407 181.0064932512  77.7827103482884 180.96165142442  77.6279573047802 180.872028697254  L 0.717766178699549 136.316799679427  C 0.409600472374677 136.138285341837  0.219875678090148 135.809160955604  1 135.45304617635  L 1 46.3424053615099  C 0.219875678090148 45.9862905822561  0.409600472374677 45.6571661960235  0.717766178699549 45.4786518584335  L 77.6279573047802 0.923422840605781  Z " fill-rule="nonzero" fill="#389aff" stroke="none" transform="matrix(1 0 0 1 1531 801 )" />
  </g>
</svg>