<?xml version="1.0" encoding="utf-8"?>
<svg version="1.1" xmlns:xlink="http://www.w3.org/1999/xlink" width="262px" height="10px" preserveAspectRatio="xMinYMid meet" viewBox="1223 316  262 8" xmlns="http://www.w3.org/2000/svg">
  <path d="M 1228.5 339  L 1228.5 325  A 5 5 0 0 1 1233.5 320.5 L 1475 320.5  A 5 5 0 0 0 1480.5 315.5 L 1480.5 265  A 5 5 0 0 1 1485.5 260.5 L 1520 260.5  " stroke-width="1" stroke="#5e00c3" fill="none" />
  <path d="M 1228.5 334  A 3 3 0 0 0 1225.5 337 A 3 3 0 0 0 1228.5 340 A 3 3 0 0 0 1231.5 337 A 3 3 0 0 0 1228.5 334 Z " fill-rule="nonzero" fill="#5e00c3" stroke="none" />
</svg>