<?xml version="1.0" encoding="utf-8"?>
<svg version="1.1" xmlns:xlink="http://www.w3.org/1999/xlink" width="10px" height="80px" preserveAspectRatio="xMidYMin meet" viewBox="1476 365  8 80" xmlns="http://www.w3.org/2000/svg">
  <path d="M 1300.5 361  L 1300.5 365  A 5 5 0 0 0 1305.5 370.5 L 1475 370.5  A 5 5 0 0 1 1480.5 375.5 L 1480.5 435  A 5 5 0 0 0 1485.5 440.5 L 1512 440.5  " stroke-width="1" stroke="#5e00c3" fill="none" />
  <path d="M 1300.5 360  A 3 3 0 0 0 1297.5 363 A 3 3 0 0 0 1300.5 366 A 3 3 0 0 0 1303.5 363 A 3 3 0 0 0 1300.5 360 Z " fill-rule="nonzero" fill="#5e00c3" stroke="none" />
</svg>