<?xml version="1.0" encoding="utf-8"?>
<svg version="1.1" xmlns:xlink="http://www.w3.org/1999/xlink" width="760px" height="48px" xmlns="http://www.w3.org/2000/svg">
  <g transform="matrix(1 0 0 1 -280 -8 )">
    <path d="M 281 18  A 9 9 0 0 1 290 9 L 1030 9  A 9 9 0 0 1 1039 18 L 1039 46  A 9 9 0 0 1 1030 55 L 290 55  A 9 9 0 0 1 281 46 L 281 18  Z " fill-rule="nonzero" fill="#ffffff" stroke="none" />
    <path d="M 280.5 18  A 9.5 9.5 0 0 1 290 8.5 L 1030 8.5  A 9.5 9.5 0 0 1 1039.5 18 L 1039.5 46  A 9.5 9.5 0 0 1 1030 55.5 L 290 55.5  A 9.5 9.5 0 0 1 280.5 46 L 280.5 18  Z " stroke-width="1" stroke="#000000" fill="none" stroke-opacity="0.0980392156862745" />
  </g>
</svg>