<svg t="1636273170469" class="icon" viewBox="0 0 1024 1024" version="1.1" xmlns="http://www.w3.org/2000/svg" p-id="68033" width="24" height="24"><path d="M470.91 83.94c10.14-7.64 22.36-12.5 35.01-13.75 17.34-1.92 35.29 3.1 49.23 13.58 122.77 89.31 245.55 178.62 368.33 267.91 15.14 11.1 25.45 28.62 27.55 47.3 3.17 25.8-9.04 52.93-30.88 67.18-10.27 6.79-22.38 10.61-34.65 11.37 0.01 72.83 0 145.65 0 218.48 0.51 71.23 0.13 142.49 0.26 213.74 15.39 0.03 30.78-0.06 46.18 0.04 6.58-0.01 13.11 2.77 17.47 7.75 6.64 7.05 7.78 18.47 3.06 26.85-3.78 6.98-11.44 11.83-19.41 11.87-134.39-0.02-268.77-0.01-403.15 0-3 0.1-5.86 1.24-8.86 1.25-3.4 0.12-6.62-1.29-10-1.27-139.36 0.03-278.72 0-418.08 0.02-7.42-0.2-14.6-4.41-18.47-10.74-4.23-6.56-4.7-15.32-1.35-22.36 3.03-6.68 9.5-11.68 16.73-12.92 4-0.7 8.07-0.48 12.11-0.49 12.92-0.01 25.84 0 38.76 0-0.01-144.08 0.02-288.16-0.02-432.24-16.13-0.93-32.02-7.38-43.71-18.61-14.06-13.28-22.38-32.53-22.05-51.9-0.43-21.47 10.52-42.59 27.77-55.24 122.72-89.28 245.45-178.54 368.17-267.82m28.81 36.68c-121.78 88.55-243.52 177.15-365.29 265.7-4.14 2.85-8.28 6.05-10.62 10.62-4.89 9.57-2.01 22.2 6.27 28.97 4.86 4.34 11.63 5.47 17.94 5.1 7.96 0.29 16.12-0.93 23.9 1.25 102.93-74.8 205.77-149.73 308.69-224.55 19.36-13.83 45.92-16.6 67.73-7.12 8.83 3.53 16.15 9.71 23.82 15.16 98.6 71.74 197.19 143.51 295.79 215.25 7.68-0.41 15.76 1.21 23.08-1.82 10.51-4.53 16.26-17.44 13.03-28.33-1.46-5.51-5.54-9.85-10.12-13.02-122.48-89.1-244.97-178.18-367.45-267.28-7.78-5.66-19.01-5.56-26.77 0.07m7.36 125.44c-106.6 77.55-213.17 155.14-319.8 232.66-0.07 143.67-0.01 287.35-0.03 431.03 46.25 0.01 92.5-0.01 138.74 0 0.02-59.25 0-118.49 0.01-177.74 0.09-14.07-0.52-28.2 1.39-42.19 5.87-50.32 32.63-97.67 72.44-128.95 29.63-23.62 66.34-38.18 104.11-41.31 35.76-3.12 72.39 3.75 104.44 19.99 32.07 16.08 59.48 41.27 78.31 71.8 18.87 30.32 28.84 65.94 29.03 101.62 0.07 65.59 0 131.18 0.04 196.78 41.16 0 82.32 0 123.49-0.01-0.1-69.56 0.25-139.14-0.25-208.7-0.08-77.89 0.16-155.8-0.12-233.69-34.15-24.53-68.01-49.46-102.05-74.13-66.39-48.32-132.78-96.62-199.16-144.95-3.28-2.46-6.69-4.98-10.76-5.93-6.72-1.94-14.22-0.41-19.83 3.72m-15.03 322.09c-32.45 6.26-62.44 23.97-83.88 49.07-22.99 26.58-35.98 61.61-35.68 96.77 0.03 65.26-0.01 130.51 0.02 195.76 41.66-0.01 83.32 0 124.98 0 0.02-69.27 0-138.55 0.01-207.83-0.14-8.08 4.12-16.13 11.11-20.27 8.36-5.31 20.08-4.32 27.46 2.27 4.95 4.21 7.99 10.59 7.94 17.11-0.01 69.57-0.02 139.15 0 208.72 41.74-0.01 83.49 0 125.23 0 0.03-63.58-0.01-127.17 0.02-190.75 0.14-15.83-1.51-31.77-6.07-46.97-9.69-33.48-31.73-63.15-60.87-82.25-32.02-21.34-72.56-29.21-110.27-21.63z" p-id="68034" fill="#ffffff"></path></svg>