<svg t="1636273230796" class="icon" viewBox="0 0 1024 1024" version="1.1" xmlns="http://www.w3.org/2000/svg" p-id="69767" width="24" height="24"><path d="M831.87 554.58v255.96c0 70.681-57.299 127.98-127.98 127.98H319.95c-70.681 0-127.98-57.299-127.98-127.98V554.58h-63.99v-63.99h63.99V149.31h-63.99V85.32h767.88v63.99h-63.99v341.28h63.99v63.99h-63.99zM255.96 149.31v661.23c0 35.34 28.65 63.99 63.99 63.99h383.94c35.34 0 63.99-28.65 63.99-63.99V149.31H255.96z m255.96 319.95c-64.791 0-117.315-52.524-117.315-117.315S447.129 234.63 511.92 234.63s117.315 52.524 117.315 117.315S576.711 469.26 511.92 469.26z m0-63.99c29.45 0 53.325-23.874 53.325-53.325 0-29.45-23.874-53.325-53.325-53.325-29.45 0-53.325 23.874-53.325 53.325 0 29.45 23.874 53.325 53.325 53.325z m0 383.94c-64.791 0-117.315-52.524-117.315-117.315S447.129 554.58 511.92 554.58s117.315 52.524 117.315 117.315S576.711 789.21 511.92 789.21z m0-63.99c29.45 0 53.325-23.874 53.325-53.325 0-29.45-23.874-53.325-53.325-53.325-29.45 0-53.325 23.874-53.325 53.325 0 29.45 23.874 53.325 53.325 53.325z" p-id="69768" fill="#ffffff"></path></svg>