<svg t="1636263789104" class="icon" viewBox="0 0 1024 1024" version="1.1" xmlns="http://www.w3.org/2000/svg" p-id="12477" width="32" height="32"><path d="M359.375238 470.064762a40.96 40.96 0 1 0-58.026667 58.026667l146.285715 146.285714a39.009524 39.009524 0 0 0 55.100952 0l255.512381-255.512381a39.009524 39.009524 0 0 0 0-55.100952l-3.413333-3.413334a39.009524 39.009524 0 0 0-55.100953 0l-220.891428 229.180953zM868.449524 585.142857a356.449524 356.449524 0 0 1-712.899048 0V208.213333L512 82.407619l356.449524 125.805714zM512 0L73.142857 146.285714v438.857143a438.857143 438.857143 0 0 0 877.714286 0V146.285714z" fill="#87F7C7" p-id="12478"></path></svg>