<svg t="1636263859158" class="icon" viewBox="0 0 1024 1024" version="1.1" xmlns="http://www.w3.org/2000/svg" p-id="14365" width="32" height="32"><path d="M512.197498 956.447465c-15.133675 0-26.605961-12.310374-26.605961-27.504424L485.591537 653.901871c0-15.193027 11.472286-27.504424 26.605961-27.504424 15.133675 0 26.605961 12.310374 26.605961 27.504424l0 275.04117C538.803459 944.137091 527.331173 956.447465 512.197498 956.447465z" p-id="14366" fill="#87F7C7"></path><path d="M456.876542 506.892679a53.576 53.755 0 1 0 109.649306 0 53.576 53.755 0 1 0-109.649306 0Z" p-id="14367" fill="#87F7C7"></path><path d="M607.531773 781.806959c-10.851139 0-21.13025-6.500041-25.431206-17.207917-5.675256-14.083763 1.106194-30.117948 15.152095-35.803437 86.787622-35.19457 142.879128-118.638027 142.879128-212.602096 0-126.382409-102.474906-229.201146-228.435713-229.201146S283.260365 389.8111 283.260365 516.193509c0 93.900623 56.038294 177.326685 142.772704 212.547861 14.044878 5.702885 20.808932 21.738094 15.133675 35.821857-5.675256 14.047947-21.612227 20.842701-35.69292 15.175631C297.92946 736.065172 228.435713 632.620172 228.435713 516.193509c0-156.716274 127.067001-284.20897 283.260365-284.20897s283.260365 127.492696 283.260365 284.20897c0 116.498294-69.547982 219.9699-177.180352 263.59856C614.420671 781.162276 610.940406 781.806959 607.531773 781.806959z" p-id="14368" fill="#87F7C7"></path><path d="M621.184725 959.469288c-12.099572 0-23.164582-8.190543-26.448372-20.612457-3.943822-14.84101 4.729721-30.115901 19.345604-34.102702 171.058934-46.741557 290.523793-205.1688 290.523793-385.275807 0-219.97297-176.252213-398.938991-392.909671-398.938991s-392.909671 178.966021-392.909671 398.938991c0 180.053796 119.429043 338.470805 290.453185 385.249201 14.615882 3.996011 23.27203 19.270902 19.328207 34.111912-3.926426 14.849196-18.98847 23.629163-33.605376 19.633153C200.076828 905.171638 63.961754 724.647121 63.961754 519.478322c0-250.669086 200.845331-454.604802 447.734324-454.604802s447.734324 203.936739 447.734324 454.604802c0 205.232245-136.15089 385.765971-331.107093 439.021895C625.931842 959.152063 623.540376 959.469288 621.184725 959.469288z" p-id="14369" fill="#87F7C7"></path></svg>