<?xml version="1.0" encoding="utf-8"?>
<svg version="1.1" xmlns:xlink="http://www.w3.org/1999/xlink" width="329px" height="137px" xmlns="http://www.w3.org/2000/svg">
  <defs>
    <linearGradient gradientUnits="userSpaceOnUse" x1="163.628366914424" y1="-2.02239168212509" x2="165.371633085576" y2="139.022391682123" id="LinearGradient706">
      <stop id="Stop707" stop-color="#46c989" stop-opacity="0.498039215686275" offset="0" />
      <stop id="Stop708" stop-color="#46c989" stop-opacity="0.0980392156862745" offset="0.87" />
      <stop id="Stop709" stop-color="#46c989" stop-opacity="0.0980392156862745" offset="1" />
    </linearGradient>
  </defs>
  <g transform="matrix(1 0 0 1 -56 -535 )">
    <path d="M 27.2318186138614 136  L 0 136  L 2.08241038613864 117.923183544304  L 9.38304742574255 117.120259493671  L 14.4861631683168 110.110715189873  L 19.8212401980198 109.725727848101  L 23.709042970297 99.4186455696203  L 27.1285256435644 72.6237867088607  L 29.3205777227722 63.0363879746835  L 35.1749861386139 83.0342259493671  L 39.9363653465347 86.0772734177216  L 43.4201821782178 80.2716816455696  L 47.6235643564357 54.6802550632912  L 59.6760396039604 106.568658227848  L 64.638401980198 84.2199696202531  L 70.3274960396039 95.437841772152  L 73.3940366336634 78.3346056962025  L 73.9921000000001 70.1291727848102  L 78.6101524752475 61.7491949367088  L 80.9952396039604 50.3616335443038  L 83.6311485148515 66.2687208860759  L 83.1949792079207 76.7134101265823  L 85.6266475247525 78.2582151898735  L 87.5136742574257 73.6087993670886  L 92.3213089108911 0  L 97.0217742574258 96.5243037974683  L 101.103654455446 82.7651683544304  L 101.103654455446 74.9074379746835  L 104.593008910891 66.7874132911393  L 106.226933663366 60.5635379746835  L 109.233537623762 51.2030563291139  L 116.380981188119 60.9636993670886  L 119.939067326733 66.2687208860759  L 122.811465346535 62.8346164556962  L 127.821386138614 78.2696607594937  L 135.108573267327 47.9331784810127  L 137.240558415842 64.4764487341772  L 141.809749504951 75.9209778481013  L 146.239197029703 72.2554474683544  L 148.307988118812 64.4741075949366  L 151.619812871287 60.9591037974684  L 152.037089108911 54.2780126582278  L 155.816354455445 37.8510189873418  L 161.364401980198 42.5164759493671  L 164.349832673267 30.5804810126583  L 170.664026732673 123.694525316456  L 176.087640594059 104.541405063291  L 183.23540990099 103.201753164557  L 191.800159405941 116.79596835443  L 195.127294059406 63.7695113924051  L 199.301685148515 66.7543772151898  L 201.265912871287 60.5224379746836  L 202.37246039604 62.5131  L 204.449069306931 61.9054443037975  L 205.635423762376 64.5870025316456  L 208.931612871287 66.3359202531645  L 208.990572277228 72.2691474683544  L 212.930428712871 76.0304044303798  L 217.854027722772 75.1981727848101  L 218.112341584158 65.2665398734177  L 219.351140594059 26.2446044303797  L 223.047993069307 26.9172050632911  L 227.37418019802 35.8706753164557  L 238.198605940594 17.5613189873418  L 244.306930693069 30.5804810126583  L 246.261386138614 30.5804810126583  L 248.465686138614 30.5804810126583  L 251.147524752475 38.7456810126582  L 254.404950495049 47.9331784810127  L 271.80449009901 51.2030563291139  L 274.60099009901 37.8510189873418  L 286.327722772277 75.9153417721519  L 293.07776039604 42.5164759493671  L 300.013145544555 54.2381265822785  L 306.55991980198 39.4976202531645  L 313.803131683168 51.2030563291139  L 319.276258415842 58.8403727848101  L 322.349313861386 56.5059101265823  L 325.742574257426 50.3616335443038  L 329 42.5164759493671  L 329 136.611544303797  L 27.2318186138614 136  Z " fill-rule="nonzero" fill="url(#LinearGradient706)" stroke="none" transform="matrix(1 0 0 1 56 535 )" />
  </g>
</svg>