<?xml version="1.0" encoding="utf-8"?>
<svg version="1.1" xmlns:xlink="http://www.w3.org/1999/xlink" width="10px" height="80px" xmlns="http://www.w3.org/2000/svg">
  <g transform="matrix(1 0 0 1 -20 -102 )">
    <path d="M 21 107  A 4 4 0 0 1 25 103 A 4 4 0 0 1 29 107 L 29 177  A 4 4 0 0 1 25 181 A 4 4 0 0 1 21 177 L 21 107  Z " fill-rule="nonzero" fill="#ffffff" stroke="none" fill-opacity="0.0980392156862745" />
    <path d="M 20.5 107  A 4.5 4.5 0 0 1 25 102.5 A 4.5 4.5 0 0 1 29.5 107 L 29.5 177  A 4.5 4.5 0 0 1 25 181.5 A 4.5 4.5 0 0 1 20.5 177 L 20.5 107  Z " stroke-width="1" stroke="#ffffff" fill="none" stroke-opacity="0.2" />
  </g>
</svg>