<?xml version="1.0" encoding="utf-8"?>
<svg version="1.1" xmlns:xlink="http://www.w3.org/1999/xlink" width="332px" height="141px" xmlns="http://www.w3.org/2000/svg">
  <g transform="matrix(1 0 0 1 -55 -534 )">
    <path d="M 0 137.611169811321  L 2.10723358771062 118.206113207547  L 9.41709514370663 117.401547169811  L 14.5266379583746 110.378301886792  L 19.8684697720516 109.992075471698  L 23.7612016848366 99.6637735849057  L 27.1849863230922 72.8127056603774  L 29.4251861248761 63.2054754716982  L 35.2414757185332 83.2448113207547  L 40.0088780971258 86.2940905660378  L 43.4971258671953 80.4765660377358  L 47.6410911793855 54.4288490566038  L 59.7736590683844 106.828490566038  L 64.7422438057483 84.433  L 70.4386065411298 95.6739245283019  L 73.5088384539147 78.5354528301887  L 74.1078206144697 70.3129094339622  L 78.7317542120912 61.9155660377359  L 81.1198572844401 50.5043547169811  L 83.7590307234887 66.4443962264151  L 83.3224291377602 76.9107849056604  L 85.7571595639247 78.4589018867925  L 87.6463825569871 73.7997962264151  L 92.4604122893954 0.0380882603773216  L 97.1665143706641 96.7631698113208  L 101.253744301288 82.9751471698114  L 101.253744301288 75.1010754716981  L 104.74753518335 66.9642830188679  L 106.383079286422 60.7273773584906  L 109.393641228939 51.3475433962265  L 116.550124876115 61.128358490566  L 120.11271555996 66.4443962264151  L 122.988612487612 63.0032490566038  L 128.004802775025 78.4702716981132  L 135.301494549059 48.0708679245283  L 137.436244796829 64.6484  L 142.011268582755 76.1168075471699  L 146.446410307235 72.4436641509434  L 148.517577799802 64.6461433962264  L 151.833663032706 61.1238452830189  L 152.251352824579 54.4288490566038  L 156.035341922696 37.9677056603774  L 161.590518334985 42.6428679245283  L 164.579886025768 30.6820867924528  L 170.90164222002 123.989962264151  L 176.332587710605 104.796679245283  L 183.48907135778 103.454  L 192.064591674926 117.076075471698  L 195.396001982161 63.9400867924529  L 199.575508424182 66.9311283018868  L 201.542334985134 60.6862377358491  L 202.650305252725 62.6810754716981  L 204.729624380575 62.0720528301887  L 205.917480673935 64.7592339622643  L 209.217914767096 66.5118339622642  L 209.276932606541 72.4573773584906  L 213.221671952428 76.2264264150944  L 218.151454905847 75.3924377358491  L 218.410350842418 65.4402075471698  L 219.650377601586 26.3371698113208  L 223.351872150644 27.0112  L 227.683651139742 35.983283018868  L 238.521739345887 17.6359660377359  L 244.549058473736 30.6820867924528  L 248.711935579782 30.6820867924528  L 254.74153716551 48.0708679245283  L 262.921540138751 51.3475433962265  L 272.073870168484 51.3475433962265  L 274.87314172448 37.9677056603774  L 281.286196233895 58.8970981132076  L 286.611496531219 76.9107849056604  L 293.527996035679 42.6428679245283  C 293.527996035679 42.6428679245283  299.857577799802 55.3215962264151  300.584703666997 54.4288490566038  C 301.311503468781 53.5360150943396  307.360995044599 39.5356981132076  307.360995044599 39.5356981132076  L 313.228216055501 50.5043547169811  L 320.240904856293 60.7273773584906  L 326.065411298315 51.3475433962265  L 328.810882061447 42.6428679245283  L 328.021803766105 42.6428679245283  L 328.021803766105 45.5  " stroke-width="2" stroke="#4ad991" fill="none" transform="matrix(1 0 0 1 56 535 )" />
  </g>
</svg>