<?xml version="1.0" encoding="utf-8"?>
<svg version="1.1" xmlns:xlink="http://www.w3.org/1999/xlink" width="210px" height="10px" xmlns="http://www.w3.org/2000/svg">
  <g transform="matrix(1 0 0 1 -175 -380 )">
    <path d="M 176 385  A 4 4 0 0 1 180 381 L 380 381  A 4 4 0 0 1 384 385 A 4 4 0 0 1 380 389 L 180 389  A 4 4 0 0 1 176 385 Z " fill-rule="nonzero" fill="#ffffff" stroke="none" fill-opacity="0.0980392156862745" />
    <path d="M 175.5 385  A 4.5 4.5 0 0 1 180 380.5 L 380 380.5  A 4.5 4.5 0 0 1 384.5 385 A 4.5 4.5 0 0 1 380 389.5 L 180 389.5  A 4.5 4.5 0 0 1 175.5 385 Z " stroke-width="1" stroke="#ffffff" fill="none" stroke-opacity="0.2" />
  </g>
</svg>