<?xml version="1.0" encoding="utf-8"?>
<svg version="1.1" xmlns:xlink="http://www.w3.org/1999/xlink" width="329px" height="125px" xmlns="http://www.w3.org/2000/svg">
  <defs>
    <linearGradient gradientUnits="userSpaceOnUse" x1="163.702513573377" y1="-2.02330810993772" x2="165.297486426623" y2="127.023308109936" id="LinearGradient722">
      <stop id="Stop723" stop-color="#eda54e" offset="0" />
      <stop id="Stop724" stop-color="#eda54e" offset="0.01" />
      <stop id="Stop725" stop-color="#eda54e" stop-opacity="0.0980392156862745" offset="0.87" />
      <stop id="Stop726" stop-color="#eda54e" stop-opacity="0.0980392156862745" offset="1" />
    </linearGradient>
  </defs>
  <g transform="matrix(1 0 0 1 -56 -303 )">
    <path d="M 301.768181386139 124  L 329 124  L 326.917589613861 107.59414556962  L 319.616952574257 106.861550632911  L 314.513836831683 100.465981012658  L 309.17875980198 100.114715189873  L 305.290957029703 90.7104430379747  L 301.871474356436 66.262579113924  L 299.679422277228 57.5149525316456  L 293.825013861386 75.7611550632911  L 289.063634653465 78.5376582278482  L 285.579817821782 73.240585443038  L 281.376435643564 49.8907436708861  L 269.32396039604 97.2341772151899  L 264.361598019802 76.8430379746835  L 258.672503960396 87.0783227848102  L 255.605963366337 71.4731803797469  L 255.0079 63.9864715189874  L 250.389847524752 56.3405063291139  L 248.00476039604 45.9503955696202  L 245.368851485149 60.4641613924051  L 245.805020792079 69.9939873417721  L 243.373352475248 71.4034810126583  L 241.486325742574 67.1613132911393  L 236.678691089109 0  L 231.978225742574 88.0696202531645  L 227.896345544554 75.5156645569621  L 227.896345544554 68.3462025316455  L 224.406991089109 60.937420886076  L 222.773066336634 55.2587025316456  L 219.766462376238 46.7181170886076  L 212.619018811881 55.6238132911392  L 209.060932673267 60.4641613924051  L 206.188534653465 57.3308544303797  L 201.178613861386 71.4139240506329  L 193.891426732673 43.7346518987342  L 191.759441584158 58.8288765822785  L 187.190250495049 69.2709651898734  L 182.760802970297 65.9265031645569  L 180.692011881188 58.826740506329  L 177.380187128713 55.6196202531646  L 176.962910891089 49.5237341772151  L 173.183645544555 34.5356012658228  L 167.635598019802 38.7924050632911  L 164.650167326733 27.9018987341773  L 158.335973267327 112.85996835443  L 152.912359405941 95.3844936708862  L 145.76459009901 94.1621835443038  L 137.199840594059 106.565664556962  L 133.872705940594 58.1838607594937  L 129.698314851485 60.9072784810126  L 127.734087128713 55.2212025316456  L 126.62753960396 57.0375  L 124.550930693069 56.4830696202532  L 123.364576237624 58.929746835443  L 120.068387128713 60.5254746835443  L 120.009427722772 65.9390031645569  L 116.069571287129 69.3708069620254  L 111.145972277228 68.6114715189873  L 110.887658415842 59.5497626582278  L 109.648859405941 23.9458069620252  L 105.952006930693 24.5594936708861  L 101.62581980198 32.7287183544304  L 90.8013940594061 16.0231012658228  L 84.6930693069307 27.9018987341773  L 82.7386138613862 27.9018987341773  L 80.5343138613862 27.9018987341773  L 77.8524752475248 35.3518987341772  L 74.5950495049506 43.7346518987342  L 57.1955099009901 46.7181170886076  L 54.39900990099 34.5356012658228  L 42.6722772277227 69.2658227848102  L 35.9222396039605 38.7924050632911  L 28.9868544554455 49.4873417721519  L 22.4400801980196 36.0379746835443  L 15.1968683168316 46.7181170886076  L 9.72374158415846 53.6864715189873  L 6.65068613861399 51.5564873417722  L 3.25742574257441 45.9503955696202  L 0 38.7924050632911  L 0 124.645569620253  L 301.768181386139 124  Z " fill-rule="nonzero" fill="url(#LinearGradient722)" stroke="none" transform="matrix(1 0 0 1 56 303 )" />
  </g>
</svg>