<?xml version="1.0" encoding="utf-8"?>
<svg version="1.1" xmlns:xlink="http://www.w3.org/1999/xlink" width="78px" height="78px" xmlns="http://www.w3.org/2000/svg">
  <g transform="matrix(1 0 0 1 -204 -109 )">
    <path d="M 243 110.5  C 264 110.5  280.5 127  280.5 148  C 280.5 169  264 185.5  243 185.5  C 222 185.5  205.5 169  205.5 148  C 205.5 127  222 110.5  243 110.5  Z " fill-rule="nonzero" fill="#ffffff" stroke="none" fill-opacity="0" />
    <path d="M 243 110  C 264.28 110  281 126.72  281 148  C 281 169.28  264.28 186  243 186  C 221.72 186  205 169.28  205 148  C 205 126.72  221.72 110  243 110  Z " stroke-width="2" stroke="#65b8f8" fill="none" stroke-opacity="0.2" />
  </g>
</svg>