<?xml version="1.0" encoding="utf-8"?>
<svg version="1.1" xmlns:xlink="http://www.w3.org/1999/xlink" width="332px" height="129px" xmlns="http://www.w3.org/2000/svg">
  <g transform="matrix(1 0 0 1 -55 -302 )">
    <path d="M 329 125.644981132075  L 326.892766412289 107.927320754717  L 319.582904856293 107.192716981132  L 314.473362041625 100.780188679245  L 309.131530227948 100.427547169811  L 305.238798315163 90.9973584905661  L 301.815013676908 66.4811660377359  L 299.574813875124 57.7093471698113  L 293.758524281467 76.0061320754717  L 288.991121902874 78.7902566037736  L 285.502874132805 73.4786037735848  L 281.358908820614 49.6959056603774  L 269.226340931616 97.5390566037736  L 264.257756194252 77.091  L 258.56139345887 87.3544528301887  L 255.491161546085 71.7062830188679  L 254.89217938553 64.1987433962263  L 250.268245787909 56.5316037735849  L 247.88014271556 46.1126716981132  L 245.240969276511 60.6666226415094  L 245.67757086224 70.2228905660378  L 243.242840436075 71.6363886792454  L 241.353617443013 67.3824226415094  L 236.539587710605 0.0347762377357981  L 231.833485629336 88.3489811320756  L 227.746255698712 75.7599169811322  L 227.746255698712 68.5705471698113  L 224.25246481665 61.1413018867925  L 222.616920713578 55.4467358490566  L 219.606358771061 46.8825396226416  L 212.449875123885 55.8128490566038  L 208.88728444004 60.6666226415094  L 206.011387512388 57.5247056603773  L 200.995197224975 71.6467698113207  L 193.698505450941 43.8907924528302  L 191.563755203171 59.0268  L 186.988731417245 69.4979547169812  L 182.553589692765 66.1442150943396  L 180.482422200198 59.0247396226415  L 177.166336967294 55.8087283018868  L 176.748647175421 49.6959056603774  L 172.964658077304 34.6661660377359  L 167.409481665015 38.9347924528302  L 164.420113974232 28.014079245283  L 158.09835777998 113.208226415094  L 152.667412289395 95.6839245283019  L 145.51092864222 94.458  L 136.935408325074 106.895547169811  L 133.603998017839 58.3800792452831  L 129.424491575818 61.1110301886793  L 127.457665014866 55.4091735849057  L 126.349694747275 57.2305471698114  L 124.270375619425 56.6744830188679  L 123.082519326065 59.1279962264152  L 119.782085232904 60.7281962264151  L 119.723067393459 66.1567358490566  L 115.778328047572 69.598041509434  L 110.848545094153 68.8365735849056  L 110.589649157582 59.7497547169812  L 109.349622398414 24.0469811320755  L 105.648127849356 24.6624  L 101.316348860258 32.8543018867925  L 90.4782606541129 16.102403773585  L 84.4509415262636 28.014079245283  L 80.2880644202181 28.014079245283  L 74.2584628344896 43.8907924528302  L 66.0784598612488 46.8825396226416  L 56.9261298315163 46.8825396226416  L 54.1268582755204 34.6661660377359  L 47.7138037661049 53.7756113207547  L 42.3885034687811 70.2228905660378  L 35.4720039643211 38.9347924528302  C 35.4720039643211 38.9347924528302  29.1424222001982 50.5110226415094  28.4152963330029 49.6959056603774  C 27.688496531219 48.8807094339622  21.6390049554015 36.0978113207547  21.6390049554015 36.0978113207547  L 15.7717839444995 46.1126716981132  L 8.75909514370659 55.4467358490566  L 2.93458870168489 46.8825396226416  L 0.189117938553053 38.9347924528302  L 0.978196233894892 38.9347924528302  L 0.978196233894892 41.5434782608696  " stroke-width="2" stroke="#eda54e" fill="none" transform="matrix(1 0 0 1 56 303 )" />
  </g>
</svg>