<?xml version="1.0" encoding="utf-8"?>
<svg version="1.1" xmlns:xlink="http://www.w3.org/1999/xlink" width="55px" height="39px" xmlns="http://www.w3.org/2000/svg">
  <g transform="matrix(1 0 0 1 -282 -65 )">
    <path d="M 282.5 94.6945945945946  C 282.5 94.6945945945946  282.5 65.5  282.5 65.5  C 282.5 65.5  336.5 65.5  336.5 65.5  C 336.5 65.5  336.5 94.6945945945946  336.5 94.6945945945946  C 336.5 94.6945945945946  318.130310408811 94.6945945945946  318.130310408811 94.6945945945946  C 318.130310408811 94.6945945945946  308.119707718097 103.106813795564  308.119707718097 103.106813795564  C 308.119707718097 103.106813795564  299.008016289405 94.6945945945946  299.008016289405 94.6945945945946  C 299.008016289405 94.6945945945946  282.5 94.6945945945946  282.5 94.6945945945946  Z " fill-rule="nonzero" fill="#ffffff" stroke="none" fill-opacity="0" />
    <path d="M 282 95.1945945945946  C 282 95.1945945945946  282 65  282 65  C 282 65  337 65  337 65  C 337 65  337 95.1945945945946  337 95.1945945945946  C 337 95.1945945945946  318.3125 95.1945945945946  318.3125 95.1945945945946  C 318.3125 95.1945945945946  308.104166666667 103.772972972973  308.104166666667 103.772972972973  C 308.104166666667 103.772972972973  298.8125 95.1945945945946  298.8125 95.1945945945946  C 298.8125 95.1945945945946  282 95.1945945945946  282 95.1945945945946  Z M 283 94.1945945945946  C 283 94.1945945945946  299.203532578811 94.1945945945946  299.203532578811 94.1945945945946  C 299.203532578811 94.1945945945946  308.135248769527 102.440654618155  308.135248769527 102.440654618155  C 308.135248769527 102.440654618155  317.948120817623 94.1945945945946  317.948120817623 94.1945945945946  C 317.948120817623 94.1945945945946  336 94.1945945945946  336 94.1945945945946  C 336 94.1945945945946  336 66  336 66  C 336 66  283 66  283 66  C 283 66  283 94.1945945945946  283 94.1945945945946  Z " fill-rule="nonzero" fill="#ffc400" stroke="none" />
  </g>
</svg>