<?xml version="1.0" encoding="utf-8"?>
<svg version="1.1" xmlns:xlink="http://www.w3.org/1999/xlink" width="15px" height="15px" viewBox="299 173.5  15 15" xmlns="http://www.w3.org/2000/svg">
  <path d="M 306.5 173.5  C 310.7 173.5  314 176.8  314 181  C 314 185.2  310.7 188.5  306.5 188.5  C 302.3 188.5  299 185.2  299 181  C 299 176.8  302.3 173.5  306.5 173.5  Z " fill-rule="nonzero" fill="#ffffff" stroke="none" />
  <path d="M 306.5 174  C 310.42 174  313.5 177.08  313.5 181  C 313.5 184.92  310.42 188  306.5 188  C 302.58 188  299.5 184.92  299.5 181  C 299.5 177.08  302.58 174  306.5 174  Z " stroke-width="1" stroke="#409eff" fill="none" />
  <path d="M 306.5 184.75  C 304.4 184.75  302.75 183.1  302.75 181  C 302.75 178.9  304.4 177.25  306.5 177.25  C 308.6 177.25  310.25 178.9  310.25 181  C 310.25 183.1  308.6 184.75  306.5 184.75  " fill-rule="nonzero" fill="#409eff" stroke="none" />
</svg>