<?xml version="1.0" encoding="utf-8"?>
<svg version="1.1" xmlns:xlink="http://www.w3.org/1999/xlink" width="15px" height="15px" viewBox="160 375.5  15 15" xmlns="http://www.w3.org/2000/svg">
  <path d="M 167.5 375.5  C 171.7 375.5  175 378.8  175 383  C 175 387.2  171.7 390.5  167.5 390.5  C 163.3 390.5  160 387.2  160 383  C 160 378.8  163.3 375.5  167.5 375.5  Z " fill-rule="nonzero" fill="#f2f2f2" stroke="none" />
  <path d="M 167.5 376  C 171.42 376  174.5 379.08  174.5 383  C 174.5 386.92  171.42 390  167.5 390  C 163.58 390  160.5 386.92  160.5 383  C 160.5 379.08  163.58 376  167.5 376  Z " stroke-width="1" stroke="#cccccc" fill="none" />
  <path d="M 167.5 386.75  C 165.4 386.75  163.75 385.1  163.75 383  C 163.75 380.9  165.4 379.25  167.5 379.25  C 169.6 379.25  171.25 380.9  171.25 383  C 171.25 385.1  169.6 386.75  167.5 386.75  " fill-rule="nonzero" fill="#cccccc" stroke="none" />
</svg>