<?xml version="1.0" encoding="utf-8"?>
<svg version="1.1" xmlns:xlink="http://www.w3.org/1999/xlink" width="249px" height="10px" xmlns="http://www.w3.org/2000/svg">
  <g transform="matrix(1 0 0 1 -121 -204 )">
    <path d="M 122 209  A 4 4 0 0 1 126 205 L 365 205  A 4 4 0 0 1 369 209 A 4 4 0 0 1 365 213 L 126 213  A 4 4 0 0 1 122 209 Z " fill-rule="nonzero" fill="#0099ff" stroke="none" fill-opacity="0.2" />
    <path d="M 121.5 209  A 4.5 4.5 0 0 1 126 204.5 L 365 204.5  A 4.5 4.5 0 0 1 369.5 209 A 4.5 4.5 0 0 1 365 213.5 L 126 213.5  A 4.5 4.5 0 0 1 121.5 209 Z " stroke-width="1" stroke="#0099ff" fill="none" stroke-opacity="0.498039215686275" />
  </g>
</svg>