<?xml version="1.0" encoding="utf-8"?>
<svg version="1.1" xmlns:xlink="http://www.w3.org/1999/xlink" width="249px" height="10px" xmlns="http://www.w3.org/2000/svg">
  <g transform="matrix(1 0 0 1 -121 -324 )">
    <path d="M 122 329  A 4 4 0 0 1 126 325 L 365 325  A 4 4 0 0 1 369 329 A 4 4 0 0 1 365 333 L 126 333  A 4 4 0 0 1 122 329 Z " fill-rule="nonzero" fill="#16ffaf" stroke="none" fill-opacity="0.2" />
    <path d="M 121.5 329  A 4.5 4.5 0 0 1 126 324.5 L 365 324.5  A 4.5 4.5 0 0 1 369.5 329 A 4.5 4.5 0 0 1 365 333.5 L 126 333.5  A 4.5 4.5 0 0 1 121.5 329 Z " stroke-width="1" stroke="#16ffaf" fill="none" stroke-opacity="0.498039215686275" />
  </g>
</svg>