<?xml version="1.0" encoding="utf-8"?>
<svg version="1.1" xmlns:xlink="http://www.w3.org/1999/xlink" width="249px" height="10px" xmlns="http://www.w3.org/2000/svg">
  <g transform="matrix(1 0 0 1 -121 -364 )">
    <path d="M 122 369  A 4 4 0 0 1 126 365 L 365 365  A 4 4 0 0 1 369 369 A 4 4 0 0 1 365 373 L 126 373  A 4 4 0 0 1 122 369 Z " fill-rule="nonzero" fill="#16caf9" stroke="none" fill-opacity="0.2" />
    <path d="M 121.5 369  A 4.5 4.5 0 0 1 126 364.5 L 365 364.5  A 4.5 4.5 0 0 1 369.5 369 A 4.5 4.5 0 0 1 365 373.5 L 126 373.5  A 4.5 4.5 0 0 1 121.5 369 Z " stroke-width="1" stroke="#16caf9" fill="none" stroke-opacity="0.498039215686275" />
  </g>
</svg>