<?xml version="1.0" encoding="utf-8"?>
<svg version="1.1" xmlns:xlink="http://www.w3.org/1999/xlink" width="22px" height="43px" xmlns="http://www.w3.org/2000/svg">
  <defs>
    <linearGradient gradientUnits="userSpaceOnUse" x1="11" y1="43" x2="11" y2="0" id="LinearGradient1430">
      <stop id="Stop1431" stop-color="#081635" stop-opacity="0.156862745098039" offset="0" />
      <stop id="Stop1432" stop-color="#081635" stop-opacity="0.156862745098039" offset="0.03" />
      <stop id="Stop1433" stop-color="#ff9c00" stop-opacity="0.156862745098039" offset="0.98" />
      <stop id="Stop1434" stop-color="#ff9c00" stop-opacity="0.156862745098039" offset="1" />
    </linearGradient>
    <mask fill="white" id="clip1435">
      <path d="M 0.148397976391223 42.3777403035413  C 0.148397976391223 42.3777403035413  0.148397976391223 0.306913996627316  0.148397976391223 0.306913996627316  C 0.148397976391223 0.306913996627316  21.1838111298482 10.3237774030354  21.1838111298482 10.3237774030354  C 21.1838111298482 10.3237774030354  21.1838111298482 42.3777403035413  21.1838111298482 42.3777403035413  C 21.1838111298482 42.3777403035413  0.148397976391223 42.3777403035413  0.148397976391223 42.3777403035413  Z " fill-rule="evenodd" />
    </mask>
  </defs>
  <g transform="matrix(1 0 0 1 -1651 -669 )">
    <path d="M 0.148397976391223 42.3777403035413  C 0.148397976391223 42.3777403035413  0.148397976391223 0.306913996627316  0.148397976391223 0.306913996627316  C 0.148397976391223 0.306913996627316  21.1838111298482 10.3237774030354  21.1838111298482 10.3237774030354  C 21.1838111298482 10.3237774030354  21.1838111298482 42.3777403035413  21.1838111298482 42.3777403035413  C 21.1838111298482 42.3777403035413  0.148397976391223 42.3777403035413  0.148397976391223 42.3777403035413  Z " fill-rule="nonzero" fill="url(#LinearGradient1430)" stroke="none" transform="matrix(1 0 0 1 1651 669 )" />
    <path d="M 0.148397976391223 42.3777403035413  C 0.148397976391223 42.3777403035413  0.148397976391223 0.306913996627316  0.148397976391223 0.306913996627316  C 0.148397976391223 0.306913996627316  21.1838111298482 10.3237774030354  21.1838111298482 10.3237774030354  C 21.1838111298482 10.3237774030354  21.1838111298482 42.3777403035413  21.1838111298482 42.3777403035413  C 21.1838111298482 42.3777403035413  0.148397976391223 42.3777403035413  0.148397976391223 42.3777403035413  Z " stroke-width="2.00337268128162" stroke="#f5ba45" fill="none" transform="matrix(1 0 0 1 1651 669 )" mask="url(#clip1435)" />
  </g>
</svg>