<?xml version="1.0" encoding="utf-8"?>
<svg version="1.1" xmlns:xlink="http://www.w3.org/1999/xlink" width="22px" height="53px" xmlns="http://www.w3.org/2000/svg">
  <defs>
    <linearGradient gradientUnits="userSpaceOnUse" x1="11" y1="53" x2="11" y2="0" id="LinearGradient1436">
      <stop id="Stop1437" stop-color="#ff9c00" stop-opacity="0.156862745098039" offset="0" />
      <stop id="Stop1438" stop-color="#ff9c00" stop-opacity="0.156862745098039" offset="1" />
    </linearGradient>
    <mask fill="white" id="clip1439">
      <path d="M 0.231028667790895 52.3777403035413  C 0.231028667790895 52.3777403035413  0.231028667790895 0.290050590219224  0.231028667790895 0.290050590219224  C 0.231028667790895 0.290050590219224  21.2664418212479 10.3069139966273  21.2664418212479 10.3069139966273  C 21.2664418212479 10.3069139966273  21.2664418212479 52.3777403035413  21.2664418212479 52.3777403035413  C 21.2664418212479 52.3777403035413  0.231028667790895 52.3777403035413  0.231028667790895 52.3777403035413  Z " fill-rule="evenodd" />
    </mask>
  </defs>
  <g transform="matrix(1 0 0 1 -1699 -659 )">
    <path d="M 0.231028667790895 52.3777403035413  C 0.231028667790895 52.3777403035413  0.231028667790895 0.290050590219224  0.231028667790895 0.290050590219224  C 0.231028667790895 0.290050590219224  21.2664418212479 10.3069139966273  21.2664418212479 10.3069139966273  C 21.2664418212479 10.3069139966273  21.2664418212479 52.3777403035413  21.2664418212479 52.3777403035413  C 21.2664418212479 52.3777403035413  0.231028667790895 52.3777403035413  0.231028667790895 52.3777403035413  Z " fill-rule="nonzero" fill="url(#LinearGradient1436)" stroke="none" transform="matrix(1 0 0 1 1699 659 )" />
    <path d="M 0.231028667790895 52.3777403035413  C 0.231028667790895 52.3777403035413  0.231028667790895 0.290050590219224  0.231028667790895 0.290050590219224  C 0.231028667790895 0.290050590219224  21.2664418212479 10.3069139966273  21.2664418212479 10.3069139966273  C 21.2664418212479 10.3069139966273  21.2664418212479 52.3777403035413  21.2664418212479 52.3777403035413  C 21.2664418212479 52.3777403035413  0.231028667790895 52.3777403035413  0.231028667790895 52.3777403035413  Z " stroke-width="2.00337268128162" stroke="#f5ba45" fill="none" transform="matrix(1 0 0 1 1699 659 )" mask="url(#clip1439)" />
  </g>
</svg>