<?xml version="1.0" encoding="utf-8"?>
<svg version="1.1" xmlns:xlink="http://www.w3.org/1999/xlink" width="22px" height="73px" xmlns="http://www.w3.org/2000/svg">
  <defs>
    <linearGradient gradientUnits="userSpaceOnUse" x1="11" y1="73" x2="11" y2="0" id="LinearGradient1418">
      <stop id="Stop1419" stop-color="#081635" stop-opacity="0.4" offset="0" />
      <stop id="Stop1420" stop-color="#081635" stop-opacity="0.4" offset="0.02" />
      <stop id="Stop1421" stop-color="#00ffa2" stop-opacity="0.4" offset="0.99" />
      <stop id="Stop1422" stop-color="#00ffa2" stop-opacity="0.4" offset="1" />
    </linearGradient>
    <mask fill="white" id="clip1423">
      <path d="M 0 72.3777403035413  C 0 72.3777403035413  0 0.256323777403026  0 0.256323777403026  C 0 0.256323777403026  21.035413153457 10.2731871838111  21.035413153457 10.2731871838111  C 21.035413153457 10.2731871838111  21.035413153457 72.3777403035413  21.035413153457 72.3777403035413  C 21.035413153457 72.3777403035413  0 72.3777403035413  0 72.3777403035413  Z " fill-rule="evenodd" />
    </mask>
  </defs>
  <g transform="matrix(1 0 0 1 -1562 -639 )">
    <path d="M 0 72.3777403035413  C 0 72.3777403035413  0 0.256323777403026  0 0.256323777403026  C 0 0.256323777403026  21.035413153457 10.2731871838111  21.035413153457 10.2731871838111  C 21.035413153457 10.2731871838111  21.035413153457 72.3777403035413  21.035413153457 72.3777403035413  C 21.035413153457 72.3777403035413  0 72.3777403035413  0 72.3777403035413  Z " fill-rule="nonzero" fill="url(#LinearGradient1418)" stroke="none" transform="matrix(1 0 0 1 1562 639 )" />
    <path d="M 0 72.3777403035413  C 0 72.3777403035413  0 0.256323777403026  0 0.256323777403026  C 0 0.256323777403026  21.035413153457 10.2731871838111  21.035413153457 10.2731871838111  C 21.035413153457 10.2731871838111  21.035413153457 72.3777403035413  21.035413153457 72.3777403035413  C 21.035413153457 72.3777403035413  0 72.3777403035413  0 72.3777403035413  Z " stroke-width="2.00337268128162" stroke="#00ffd2" fill="none" transform="matrix(1 0 0 1 1562 639 )" mask="url(#clip1423)" />
  </g>
</svg>