<?xml version="1.0" encoding="utf-8"?>
<svg version="1.1" xmlns:xlink="http://www.w3.org/1999/xlink" width="22px" height="153px" xmlns="http://www.w3.org/2000/svg">
  <defs>
    <linearGradient gradientUnits="userSpaceOnUse" x1="11" y1="153" x2="11" y2="0" id="LinearGradient1451">
      <stop id="Stop1452" stop-color="#ff6d6d" stop-opacity="0.156862745098039" offset="0" />
      <stop id="Stop1453" stop-color="#ff6d6d" stop-opacity="0.156862745098039" offset="1" />
    </linearGradient>
    <mask fill="white" id="clip1454">
      <path d="M 0.463743676222578 152.377740303541  C 0.463743676222578 152.377740303541  0.463743676222578 0.121416526138279  0.463743676222578 0.121416526138279  C 0.463743676222578 0.121416526138279  21.4991568296796 10.1382799325464  21.4991568296796 10.1382799325464  C 21.4991568296796 10.1382799325464  21.4991568296796 152.377740303541  21.4991568296796 152.377740303541  C 21.4991568296796 152.377740303541  0.463743676222578 152.377740303541  0.463743676222578 152.377740303541  Z " fill-rule="evenodd" />
    </mask>
  </defs>
  <g transform="matrix(1 0 0 1 -1831 -559 )">
    <path d="M 0.463743676222578 152.377740303541  C 0.463743676222578 152.377740303541  0.463743676222578 0.121416526138279  0.463743676222578 0.121416526138279  C 0.463743676222578 0.121416526138279  21.4991568296796 10.1382799325464  21.4991568296796 10.1382799325464  C 21.4991568296796 10.1382799325464  21.4991568296796 152.377740303541  21.4991568296796 152.377740303541  C 21.4991568296796 152.377740303541  0.463743676222578 152.377740303541  0.463743676222578 152.377740303541  Z " fill-rule="nonzero" fill="url(#LinearGradient1451)" stroke="none" transform="matrix(1 0 0 1 1831 559 )" />
    <path d="M 0.463743676222578 152.377740303541  C 0.463743676222578 152.377740303541  0.463743676222578 0.121416526138279  0.463743676222578 0.121416526138279  C 0.463743676222578 0.121416526138279  21.4991568296796 10.1382799325464  21.4991568296796 10.1382799325464  C 21.4991568296796 10.1382799325464  21.4991568296796 152.377740303541  21.4991568296796 152.377740303541  C 21.4991568296796 152.377740303541  0.463743676222578 152.377740303541  0.463743676222578 152.377740303541  Z " stroke-width="2.00337268128162" stroke="#fd5455" fill="none" transform="matrix(1 0 0 1 1831 559 )" mask="url(#clip1454)" />
  </g>
</svg>