<?xml version="1.0" encoding="utf-8"?>
<svg version="1.1" xmlns:xlink="http://www.w3.org/1999/xlink" width="22px" height="133px" xmlns="http://www.w3.org/2000/svg">
  <defs>
    <linearGradient gradientUnits="userSpaceOnUse" x1="11" y1="133" x2="11" y2="0" id="LinearGradient1440">
      <stop id="Stop1441" stop-color="#081635" stop-opacity="0.156862745098039" offset="0" />
      <stop id="Stop1442" stop-color="#081635" stop-opacity="0.156862745098039" offset="0.01" />
      <stop id="Stop1443" stop-color="#ff6d6d" stop-opacity="0.156862745098039" offset="1" />
    </linearGradient>
    <mask fill="white" id="clip1444">
      <path d="M 0.306913996627316 132.377740303541  C 0.306913996627316 132.377740303541  0.306913996627316 0.155143338954467  0.306913996627316 0.155143338954467  C 0.306913996627316 0.155143338954467  21.3423271500843 10.1720067453626  21.3423271500843 10.1720067453626  C 21.3423271500843 10.1720067453626  21.3423271500843 132.377740303541  21.3423271500843 132.377740303541  C 21.3423271500843 132.377740303541  0.306913996627316 132.377740303541  0.306913996627316 132.377740303541  Z " fill-rule="evenodd" />
    </mask>
  </defs>
  <g transform="matrix(1 0 0 1 -1744 -579 )">
    <path d="M 0.306913996627316 132.377740303541  C 0.306913996627316 132.377740303541  0.306913996627316 0.155143338954467  0.306913996627316 0.155143338954467  C 0.306913996627316 0.155143338954467  21.3423271500843 10.1720067453626  21.3423271500843 10.1720067453626  C 21.3423271500843 10.1720067453626  21.3423271500843 132.377740303541  21.3423271500843 132.377740303541  C 21.3423271500843 132.377740303541  0.306913996627316 132.377740303541  0.306913996627316 132.377740303541  Z " fill-rule="nonzero" fill="url(#LinearGradient1440)" stroke="none" transform="matrix(1 0 0 1 1744 579 )" />
    <path d="M 0.306913996627316 132.377740303541  C 0.306913996627316 132.377740303541  0.306913996627316 0.155143338954467  0.306913996627316 0.155143338954467  C 0.306913996627316 0.155143338954467  21.3423271500843 10.1720067453626  21.3423271500843 10.1720067453626  C 21.3423271500843 10.1720067453626  21.3423271500843 132.377740303541  21.3423271500843 132.377740303541  C 21.3423271500843 132.377740303541  0.306913996627316 132.377740303541  0.306913996627316 132.377740303541  Z " stroke-width="2.00337268128162" stroke="#fd5455" fill="none" transform="matrix(1 0 0 1 1744 579 )" mask="url(#clip1444)" />
  </g>
</svg>