<?xml version="1.0" encoding="utf-8"?>
<svg version="1.1" xmlns:xlink="http://www.w3.org/1999/xlink" width="22px" height="103px" xmlns="http://www.w3.org/2000/svg">
  <defs>
    <linearGradient gradientUnits="userSpaceOnUse" x1="11" y1="103" x2="11" y2="0" id="LinearGradient1445">
      <stop id="Stop1446" stop-color="#081635" stop-opacity="0.4" offset="0" />
      <stop id="Stop1447" stop-color="#081635" stop-opacity="0.4" offset="0.01" />
      <stop id="Stop1448" stop-color="#00ffba" stop-opacity="0.4" offset="0.99" />
      <stop id="Stop1449" stop-color="#00ffba" stop-opacity="0.4" offset="1" />
    </linearGradient>
    <mask fill="white" id="clip1450">
      <path d="M 0.38111298482292 102.377740303541  C 0.38111298482292 102.377740303541  0.38111298482292 0.20573355817875  0.38111298482292 0.20573355817875  C 0.38111298482292 0.20573355817875  21.4165261382799 10.2225969645868  21.4165261382799 10.2225969645868  C 21.4165261382799 10.2225969645868  21.4165261382799 102.377740303541  21.4165261382799 102.377740303541  C 21.4165261382799 102.377740303541  0.38111298482292 102.377740303541  0.38111298482292 102.377740303541  Z " fill-rule="evenodd" />
    </mask>
  </defs>
  <g transform="matrix(1 0 0 1 -1787 -609 )">
    <path d="M 0.38111298482292 102.377740303541  C 0.38111298482292 102.377740303541  0.38111298482292 0.20573355817875  0.38111298482292 0.20573355817875  C 0.38111298482292 0.20573355817875  21.4165261382799 10.2225969645868  21.4165261382799 10.2225969645868  C 21.4165261382799 10.2225969645868  21.4165261382799 102.377740303541  21.4165261382799 102.377740303541  C 21.4165261382799 102.377740303541  0.38111298482292 102.377740303541  0.38111298482292 102.377740303541  Z " fill-rule="nonzero" fill="url(#LinearGradient1445)" stroke="none" transform="matrix(1 0 0 1 1787 609 )" />
    <path d="M 0.38111298482292 102.377740303541  C 0.38111298482292 102.377740303541  0.38111298482292 0.20573355817875  0.38111298482292 0.20573355817875  C 0.38111298482292 0.20573355817875  21.4165261382799 10.2225969645868  21.4165261382799 10.2225969645868  C 21.4165261382799 10.2225969645868  21.4165261382799 102.377740303541  21.4165261382799 102.377740303541  C 21.4165261382799 102.377740303541  0.38111298482292 102.377740303541  0.38111298482292 102.377740303541  Z " stroke-width="2.00337268128162" stroke="#00ffd2" fill="none" transform="matrix(1 0 0 1 1787 609 )" mask="url(#clip1450)" />
  </g>
</svg>