<?xml version="1.0" encoding="utf-8"?>
<svg version="1.1" xmlns:xlink="http://www.w3.org/1999/xlink" width="319px" height="133px" xmlns="http://www.w3.org/2000/svg">
  <defs>
    <linearGradient gradientUnits="userSpaceOnUse" x1="159.5" y1="133" x2="159.5" y2="0" id="LinearGradient1455">
      <stop id="Stop1456" stop-color="#081635" stop-opacity="0.4" offset="0" />
      <stop id="Stop1457" stop-color="#081635" stop-opacity="0.4" offset="0.01" />
      <stop id="Stop1458" stop-color="#ff6d6d" stop-opacity="0.4" offset="1" />
    </linearGradient>
  </defs>
  <g transform="matrix(1 0 0 1 -1546 -866 )">
    <path d="M 1 132  L 1 62.2653877557135  C 0.778503958831152 62.2653877557135  21.7717398632199 34.3700477157132  45.6103004516888 34.3700477157132  C 69.4488610401577 34.3700477157132  75.1385141461733 57.6317725226406  90.4420969445464 89.1644656514282  C 105.745679742919 120.697158780216  126.462951033341 101.594828425681  136.27015558169 81.1943684971424  C 146.077360130039 60.7939085686036  172.60383598379 63.8594071865707  182.098214218833 69.2392227657136  C 191.592592453876 74.6190383448566  211.253825871355 90.4506400797011  227.926272855977 65.2541741885707  C 244.598719840598 40.0577082974404  262.579259020667 20.8208825534274  273.75433149312 13.4485426857131  C 284.929403965573 6.07620281799871  315.945037041476 0.680447044547122  318 0.497134809998556  L 318 132  L 1 132  Z " fill-rule="nonzero" fill="url(#LinearGradient1455)" stroke="none" transform="matrix(1 0 0 1 1546 866 )" />
  </g>
</svg>