<?xml version="1.0" encoding="utf-8"?>
<svg version="1.1" xmlns:xlink="http://www.w3.org/1999/xlink" width="318px" height="99px" xmlns="http://www.w3.org/2000/svg">
  <defs>
    <linearGradient gradientUnits="userSpaceOnUse" x1="159" y1="99" x2="159" y2="0" id="LinearGradient1459">
      <stop id="Stop1460" stop-color="#051026" stop-opacity="0.4" offset="0" />
      <stop id="Stop1461" stop-color="#00f6ff" stop-opacity="0.4" offset="1" />
    </linearGradient>
  </defs>
  <g transform="matrix(1 0 0 1 -1546 -900 )">
    <path d="M 1 99  L 1 15.3139798799991  C 0.778503958831152 15.3139798799991  32.5174233514858 1.35236218997898  44.614038307403 13.3214555914277  C 56.7106532633204 25.2905489928763  80.8192008928906 43.2332302114622  89.4458348002609 38.2280091985708  C 98.0724687076308 33.2227881856793  124.88188301036 10.3794934793519  135.273893437404 9.33640701428476  C 145.665903864449 8.29332054921758  163.567738335119 -6.74127147019828  182.098214218833 26.2728634671421  C 200.628690102548 59.2869984044825  223.617439081941 71.4364152540468  226.930010711691 71.1046599599997  C 237.454524003925 70.0516108734897  262.167802755077 53.7995865137567  272.758069348834 47.1943684971424  C 283.348335942592 40.589150480528  317.589865841692 0.370047715713213  317 0.370047715713213  L 317 99  L 1 99  Z " fill-rule="nonzero" fill="url(#LinearGradient1459)" stroke="none" transform="matrix(1 0 0 1 1546 900 )" />
  </g>
</svg>