<?xml version="1.0" encoding="utf-8"?>
<svg version="1.1" xmlns:xlink="http://www.w3.org/1999/xlink" width="657px" height="491px" xmlns="http://www.w3.org/2000/svg">
  <g transform="matrix(1 0 0 1 -632 -231 )">
    <path d="M 402.779061779626 19.8112684306748  C 409.142578057513 17.5942451693219  407.205855712069 18.4256288923291  405.545807987403 14.2695629785468  C 403.885760262737 10.1126443635106  401.11901405496 0.136892388677211  409.695927299069 0.414020296346393  C 418.272840543178 0.691148204015292  427.67977764962 7.61849319448854  426.296404545731 14.2695629785468  C 424.913031441843 20.9197800613512  426.573079166509 24.7995707687186  431.829896961286 30.8955320361843  C 437.086714756062 36.9914933036503  449.260398070282 43.3654351800394  462.264105246834 48.9071406321673  C 475.267812423386 54.448846084295  475.544487044164 54.1717181766258  487.164821116828 65.5331096898045  C 498.785155189492 76.8945012029832  502.935274501158 83.5447182857873  520.365775610153 82.159078747442  C 537.796276719149 80.7742919103506  553.843404724257 78.8343965566672  567.400461142364 84.9303578241329  C 580.957517560472 91.0263190915989  593.131200874692 94.6289818912971  604.751534947356 90.4729159775151  C 616.37186902002 86.3159973624785  629.098901575794 83.2675903781184  643.485981856235 87.7016369008239  C 657.873062136676 92.1348307222751  659.256435240565 99.3401563216718  653.169593583455 98.7859005063336  C 647.082751926346 98.2316446909953  631.865647783571 94.9061097989663  633.802370129016 98.7859005063336  C 635.73909247446 102.664838512447  647.359426547124 111.809206764273  640.719235648458 114.026230025626  C 634.079044749793 116.243253286978  626.608829988795 114.303357933295  614.435146674575 112.64059048728  C 602.261463360356 110.977823041265  589.534430804581 114.303357933295  589.534430804581 118.183148640662  C 589.534430804581 122.062086646775  599.771391773357 127.881772707826  592.301177012358 127.881772707826  C 584.83096225136 127.881772707826  572.933953557919 128.158900615495  577.084072869584 133.423478159954  C 581.23419218125 138.688055704412  580.957517560472 139.51943942742  586.767684596804 143.122102227118  C 592.577851633136 146.724765026816  591.471153150025 150.32657512526  590.91780390847 156.976792208064  C 590.364454666915 163.627861992123  590.641129287692 166.675416275228  600.60141563569 177.759679880738  C 610.561701983688 188.843943486248  625.502131505684 201.036718722434  635.185743232904 202.699486168449  C 644.869354960124 204.361400913209  655.936339791233 211.566726512605  649.01947427179 219.325455226086  C 642.102608752347 227.084183939566  640.165886406903 230.409718831596  635.185743232904 233.180145207032  C 630.205600058905 235.951424283723  612.775098949909 242.601641366527  607.518281155133 244.264408812542  C 602.261463360356 245.927176258557  588.704406942249 258.674207310081  578.467445973473 256.734311956397  C 568.230485004698 254.794416602713  566.017088038476 253.963032879706  566.017088038476 253.963032879706  C 566.017088038476 253.963032879706  545.266491480148 272.528897291027  520.365775610153 262.276017408525  C 495.465059740159 252.023137526023  466.967573800055 261.444633685518  463.647478350722 266.432936023561  C 460.32738290139 271.420385660351  462.817454488389 280.841881819846  462.264105246834 287.215823696235  C 461.710756005278 293.58891287137  465.030851454611 300.793385769513  466.4142245585 305.227432292218  C 467.797597662388 309.660626113669  470.564343870165 309.106370298331  477.481209389608 313.540416821037  C 484.398074909051 317.973610642488  490.208241945383 320.744889719179  495.465059740159 326.009467263637  C 500.721877534936 331.274897509351  506.532044571268 333.769048678372  509.298790779045 331.552025417019  C 512.065536986822 329.335002155667  514.278933953044 327.949362617321  517.599029402376 334.322451792456  C 520.919124851709 340.696393668846  525.345918784152 348.177994474657  523.132521817931 353.719699926785  C 520.919124851709 359.262258080166  520.089100989376 360.647897618512  517.599029402376 363.418323993949  C 515.108957815377 366.18960307064  516.769005540043 368.960882147331  514.832283194599 371.732161224022  C 512.895560849155 374.502587599459  509.298790779045 373.394075968782  507.915417675156 375.888227137804  C 506.532044571268 378.382378306826  504.871996846602 378.659506214495  512.065536986822 384.201211666623  C 519.259077127043 389.743769820005  522.579172576375 392.79132410311  516.215656298488 393.899835733787  C 509.8521400206 395.008347364463  503.211949121936 396.948242718147  498.231805947937 403.598459800951  C 493.251662773938 410.248676883755  489.37821808305 414.405595498792  487.164821116828 418.838789320243  C 484.951424150606 423.272835842948  476.374510906497 429.091669202745  469.180970766277 424.381347473625  C 461.987430626056 419.67017304325  450.64377117417 415.514107129468  451.197120415725 420.224428858588  C 451.750469657281 424.935603288963  448.15369958717 433.80284363312  440.130135584617 428.537413387407  C 432.106571582063 423.272835842948  410.249276540624 406.92399469298  384.795211429075 417.454002483152  C 375.66494894341 421.055812581596  372.898202735633 425.76698701197  370.961480390189 429.923052925752  C 369.024758044745 434.079971540789  361.554543283747 445.441363053968  350.21088383186 447.934661521735  C 338.867224379974 450.428812690757  329.460287273532 453.477219675117  333.610406585198 459.018925127245  C 337.760525896863 464.561483280627  343.294018312418 468.44042128674  346.060764520195 475.644894184883  C 348.827510727972 482.850219784279  350.487558452638 493.103099666781  341.910645208529 489.500436867083  C 333.33373196442 485.897774067385  333.057057343642 484.235859322625  326.693541065755 486.729157790392  C 320.330024787867 489.223308959414  315.903230855424 488.669053144076  308.709690715204 483.958731414956  C 301.516150574983 479.247556984581  305.942944507427 478.970429076912  297.642705884095 472.874467809446  C 289.342467260764 466.777653840726  286.575721052987 469.271805009747  278.275482429655 463.175843742282  C 269.975243806324 457.079029773561  266.931822977769 458.464669311907  268.591870702435 452.091580136772  C 270.251918427102 445.718490961637  264.995100632325 428.537413387407  256.141512767438 425.76698701197  C 247.287924902552 422.995707935279  250.331345731106 424.104219565956  242.307781728553 427.152626550316  C 234.284217725999 430.200180833422  229.857423793556 434.911355263796  221.557185170224 431.308692464098  C 213.256946546893 427.706882365654  210.766874959894 425.212731196632  203.573334819673 425.76698701197  C 196.379794679453 426.321242827309  193.336373850898 425.212731196632  188.356230676899 422.995707935279  C 183.3760875029 420.778684673926  179.225968191234 419.947300950919  174.522499638013 422.995707935279  C 169.819031084792 426.04411491964  165.668911773127 429.923052925752  159.305395495239 424.381347473625  C 152.941879217352 418.838789320243  150.451807630352 416.345490852475  149.621783768019 421.610068396934  C 148.791759905686 426.875498642647  152.941879217352 429.645925018083  144.088291352465 429.923052925752  C 135.234703487578 430.200180833422  137.724775074577 429.091669202745  130.254560313579 432.694332002444  C 122.784345552581 436.296994802142  117.804202378582 438.236037454571  115.037456170805 442.392956069608  C 112.270709963028 446.549874684644  110.88733685914 452.091580136772  105.353844443585 452.091580136772  C 99.820352028031 452.091580136772  92.6268118878105 452.368708044441  90.136740300811 446.549874684644  C 87.6466687138117 440.730188623593  87.3699940930338 434.357099448458  83.2198747813683 432.694332002444  C 79.0697554697026 431.031564556429  72.4295645710374 431.585820371767  69.3861437424825 425.76698701197  C 66.3427229139279 419.947300950919  71.0461914671489 416.345490852475  65.236024430817 413.297083868115  C 59.425857394485 410.248676883755  48.6355471841542 411.357188514432  44.4854278724886 413.297083868115  C 40.3353085608228 415.236979221799  18.2013388986059 417.176874575483  8.5177271713859 396.671114810478  C 1.32418703116548 385.586851204968  -1.16588455583405 384.478339574292  2.98423475583172 378.659506214495  C 7.13435406749738 372.839820153444  16.8179657947173 367.852370516654  15.4345926908288 362.033537156858  C 14.0512195869402 356.213851095807  14.6045688284956 359.539385987836  9.90110027527453 355.10533946513  C 5.19763172205342 350.672145643679  -1.99590841816712 345.129587490297  1.60086165194309 339.865009945838  C 5.19763172205342 334.60043240138  17.3713150362727 334.046176586041  22.3514582102716 335.708091330802  C 27.3316013842704 337.370858776816  33.6951176621577 338.202242499824  40.3353085608228 337.093730869147  C 46.9754994594879 335.985219238471  55.8290873243747 332.660537047696  50.0189202880428 328.780746340329  C 44.208753251711 324.901808334216  38.1219115946012 322.407657165194  38.9519354569343 312.154777282691  C 39.7819593192675 301.901897400189  45.038777114044 294.143168686708  30.651696833603 289.986250071672  C 16.2646165531619 285.83018415789  12.6678464830517 280.564753912177  19.5847120024945 273.360281014035  C 26.5015775219373 266.155808115892  55.8290873243747 234.288656837709  101.203725131919 229.02407929325  C 120.570948586359 226.252800216559  123.061020173359 227.361311847235  128.871187209691 227.638439754905  C 134.681354246023 227.915567662574  135.511378108356 230.686846739265  139.938172040799 222.095881601522  C 144.364965973243 213.505769165035  146.025013697909 207.964063712907  151.005156871908 212.398110235613  C 155.985300045907 216.831304057064  167.328959497793 230.132590923927  171.755753430236 220.711094764432  C 176.18254736268 211.289598604936  177.842595087346 204.08427300554  185.589484469122 201.313846630103  C 193.336373850898 198.542567553412  194.166397713231 197.711183830405  199.423215508007 195.771288476721  C 204.680033302784 193.832245824292  207.446779510561 195.771288476721  209.106827235227 188.843943486248  C 210.766874959894 181.916598495775  209.106827235227 183.025110126451  206.34008102745 176.374040342393  C 203.573334819673 169.723823259589  206.34008102745 166.952544182897  199.423215508007 163.904989899792  C 192.506349988565 160.856582915432  191.953000747009 162.519350361446  185.589484469122 158.36243174641  C 179.225968191234 154.206365832628  181.162690536678 147.001040233231  171.755753430236 141.736462688772  C 162.348816323794 136.471885144314  162.625490944572 135.917629328976  162.072141703016 130.652199083263  C 161.518792461461 125.387621538804  159.028720874461 127.050388984819  159.305395495239 122.339214554444  C 159.582070116017 117.628892825324  160.41209397835 114.303357933295  166.222261014682 112.64059048728  C 172.032428051014 110.977823041265  186.696182952233 109.315908296505  192.506349988565 104.327605958461  C 198.316517024897 99.3401563216718  203.850009440451 99.0630284140028  210.490200339116 98.7859005063336  C 217.130391237781 98.5087725986645  219.62046282478 98.7859005063336  225.70730448189 102.941966420116  C 231.794146139 107.098885035152  234.560892346777 105.158989681469  240.924408624664 102.941966420116  C 247.287924902552 100.724943158763  252.544742697328 98.2316446909953  256.141512767438 101.55632688177  C 259.738282837548 104.881861773799  263.335052907659 101.55632688177  267.208497598547 97.4002609679881  C 271.081942289435 93.2433423529515  278.275482429655 89.6415322545075  285.192347949098 82.159078747442  C 292.109213468541 74.6774779416306  293.215911951652 75.2317337569687  297.642705884095 68.3043887664954  C 302.069499816539 61.3770437760224  310.36973843987 58.8828926070004  312.859810026869 61.3770437760224  C 315.349881613869 63.87034224379  317.839953200868 61.6541716836914  328.076914169644 64.1474701514589  C 338.313875138419 66.641621320481  347.997486865639 65.5331096898045  354.361003143526 65.5331096898045  C 360.724519421414 65.5331096898045  367.918059561634 67.7501329511574  365.427987974635 61.3770437760224  C 362.937916387635 55.0031018996331  357.404423972081 51.6784197088583  348.827510727972 46.1358615554761  C 340.250597483863 40.5941561033485  332.503708102087 41.9797956416941  333.610406585198 35.0515979499666  C 334.717105068309 28.1242529594933  338.313875138419 22.8596754150349  341.910645208529 26.7386134211478  C 345.507415278639 30.6184041285151  346.060764520195 30.3412762208462  352.977630039638 33.6668111128753  C 359.894495559081 36.9914933036503  376.218298184966 39.4856444726721  373.728226597966 35.0515979499666  C 371.238155010967 30.6184041285151  362.38456714608 25.0766986763875  366.811361078523 21.1969079690201  C 371.238155010967 17.3171172616528  371.238155010967 17.0399893539836  380.645092117409 18.4256288923291  C 390.052029223851 19.8112684306748  396.415545501739 22.0282916920274  402.779061779626 19.8112684306748  Z " fill-rule="nonzero" fill="#054ba4" stroke="none" transform="matrix(1 0 0 1 632 231 )" />
  </g>
</svg>