<?xml version="1.0" encoding="utf-8"?>
<svg version="1.1" xmlns:xlink="http://www.w3.org/1999/xlink" width="66px" height="151px" xmlns="http://www.w3.org/2000/svg">
  <g transform="matrix(1 0 0 1 -991 -425 )">
    <path d="M 18.7479787663181 147.959294503273  C 23.3612135555691 146.576671667342  15.9802082171088 146.115513773758  24.2835198647363 145.194048831412  C 32.5868315123635 144.272583889065  31.2029462377591 147.036978716104  38.1223726107817 143.811425995481  C 45.0417989838045 140.585873274858  39.0446789199491 141.968496110789  43.6579137091999 135.516539824721  C 48.2711484984509 129.064583538653  48.2711484984509 128.604276489891  53.3451106314317 128.604276489891  C 58.4190727644125 128.604276489891  57.0351874898081 125.83903081803  56.1128811806409 118.9267674832  C 55.1905748714737 112.013653303548  52.4228043222647 112.474811197132  54.7289959060363 109.24925847651  C 57.0351874898081 106.022854911065  59.3422306952875 105.562547862303  60.2645370044545 99.571749469819  C 61.1868433136217 93.5809510773354  63.9546138628307 95.4238809620277  61.6484222790589 88.5116176271979  C 59.3422306952875 81.599354292368  58.8806517298499 81.599354292368  57.4967664552455 78.8341086205072  C 56.1128811806409 76.0688629486465  60.7261159698919 75.6085558998845  53.3451106314317 74.686240112716  C 45.9641052929717 73.7647751703697  50.5773400822227 77.4514857845768  43.6579137091999 71.9218452856774  C 36.7384873361773 66.3913539419557  34.8930230961353 68.2351346714702  31.2029462377591 65.0095819508475  C 27.5128693793827 61.7831783854024  31.2029462377591 59.94024850071  25.6674051393409 58.0964677711953  C 20.1318640409224 56.253537886503  21.0541703500899 55.7923799929188  13.2124376678998 55.3320729441567  C 5.37070498570984 54.8709150505726  4.90912602027265 56.713844935265  3.52524074566804 53.9494501082264  C 2.14135547106343 51.1842044363655  0.757470196458826 45.654563937466  0.757470196458826 42.8893182656051  C 0.757470196458826 40.1240725937444  2.14135547106343 35.054739143607  2.14135547106343 31.8291864229843  C 2.14135547106343 28.6036337023613  6.29301129487703 26.2995459240847  6.29301129487703 26.2995459240847  C 6.29301129487703 26.2995459240847  9.06078184408602 23.0731423586397  9.06078184408602 20.7690545803632  C 9.06078184408602 18.4649668020864  6.75459026031444 15.2394140814637  6.29301129487703 13.8567912455331  C 5.83143232943962 12.4741684096027  4.90912602027265 9.70892273774206  6.29301129487703 8.32715074663383  C 7.67689656948164 6.94452791070324  10.4446671186909 0.0314137310513161  10.4446671186909 0.0314137310513161  " stroke-width="2.00063512226104" stroke="#00a0e9" fill="none" transform="matrix(1 0 0 1 992 426 )" />
  </g>
</svg>