<?xml version="1.0" encoding="utf-8"?>
<svg version="1.1" xmlns:xlink="http://www.w3.org/1999/xlink" width="41px" height="59px" xmlns="http://www.w3.org/2000/svg">
  <g transform="matrix(1 0 0 1 -957 -507 )">
    <path d="M 0.2174860706142 3.23266260573348  C 0.2174860706142 3.23266260573348  6.30114466352973 6.45113888969081  8.64061462513371 4.61188833395875  C 10.9800845867373 2.77348653252136  17.0637431796532 0.475059903576835  17.0637431796532 0.475059903576835  C 17.0637431796532 0.475059903576835  22.6791622159992 3.23266260573348  22.6791622159992 5.99111406218424  C 22.6791622159992 8.74956551863511  26.8907264932592 8.74956551863511  26.8907264932592 8.74956551863511  C 26.8907264932592 8.74956551863511  31.570530327088 9.66876641935403  28.2945812523456 11.5071682207918  C 25.0186321776032 13.3464187765236  21.2753074569129 10.1287912468604  24.083016975086 14.2656196772425  C 26.8907264932592 18.4032968619186  28.7628208089151 18.8624729351311  28.2945812523456 21.1608995640753  C 27.8263416957764 23.4593261930196  28.7628208089151 27.5970033776957  28.2945812523456 29.4354051791333  C 27.8263416957764 31.2746557348655  28.2945812523456 34.9523080920351  28.2945812523456 34.9523080920351  L 29.6984360114324 37.7107595484858  L 33.9100002886919 41.8475879788678  C 33.9100002886919 41.8475879788678  39.057179768469 45.9852651635441  36.7177098068651 47.3644908917695  C 34.3782398452611 48.7428678657005  32.0379059730362 49.2028926932071  29.6984360114324 50.122093593926  C 27.3589660498284 51.0412944946447  22.6791622159992 55.6389965068278  22.6791622159992 55.6389965068278  " stroke-width="2.00063512226104" stroke="#00a0e9" fill="none" transform="matrix(1 0 0 1 958 508 )" />
  </g>
</svg>