<?xml version="1.0" encoding="utf-8"?>
<svg version="1.1" xmlns:xlink="http://www.w3.org/1999/xlink" width="28px" height="10px" preserveAspectRatio="xMinYMid meet" viewBox="1054 315  28 8" xmlns="http://www.w3.org/2000/svg">
  <g transform="matrix(0.499999999999998 0.866025403784436 -0.866025403784439 0.499999999999998 810.262103807238 -765.415131241777 )">
    <path d="M 181.304614923584 0.856594301221151  C 181.304614923584 0.856594301221151  178.990002191619 2.24481682496605  172.970983410785 2.24481682496605  C 166.951964629952 2.24481682496605  167.878493507888 -2.38487109905026  166.026290483453 2.24481682496605  C 164.174087459019 6.87535956580729  163.711677751488 11.0417367706921  159.081597556121 11.9675033921303  C 154.451517360754 12.8941248303934  152.600169067757 10.5792808683854  150.747966043323 13.3565807327001  C 148.895763018888 16.13473541384  147.044414725891 17.9862686567164  143.803273115991 18.9128900949796  C 140.56213150609 19.8386567164181  140.099721798559 17.5238127544097  138.247518774125 17.5238127544097  C 136.39531574969 17.5238127544097  134.080703017725 21.2277340569879  132.691764432259 23.0792672998643  C 131.302825846793 24.9316553595657  129.913887261326 23.0792672998643  129.913887261326 27.246499321574  C 129.913887261326 31.4128765264585  126.672745651425 34.65434192673  127.136010090393 36.9691858887383  C 127.599274529361 39.2840298507463  129.450622822358 39.7473405698778  129.913887261326 43.9137177747626  C 130.377151700294 48.0809497964723  127.136010090393 53.6364043419268  127.136010090393 53.6364043419268  C 127.136010090393 53.6364043419268  128.061684236892 58.7294029850747  128.52494867586 60.5809362279512  C 128.988213114827 62.4333242876526  125.747071504927 62.4333242876526  125.747071504927 67.5263229308005  C 125.747071504927 72.6184667571235  127.136010090393 75.3966214382634  131.302825846793 80.0263093622794  C 135.469641603192 84.6559972862958  138.247518774125 87.4341519674356  139.636457359591 89.7489959294437  C 141.025395945058 92.063839891452  137.784254335157 100.397449118046  138.247518774125 103.638914518318  C 138.710783213093 106.879525101764  139.636457359591 113.361601085482  139.636457359591 113.361601085482  L 145.192211701457 113.361601085482  C 145.192211701457 113.361601085482  147.044414725891 117.991289009498  143.803273115991 123.084287652646  C 140.56213150609 128.176431478969  134.543967456693 130.02881953867  134.080703017725 132.80697421981  C 133.617438578757 135.584274084125  133.617438578757 142.529660786974  128.52494867586 139.751506105834  C 123.432458772962 136.973351424695  125.283807065959 132.343663500678  120.191317163061 132.80697421981  C 115.098827260163 133.269430122117  111.394421211294 135.121818181818  104.91299272293 131.41789687924  C 98.4315642345659 127.713975576662  98.4315642345659 124.472510176391  95.1904226246652 125.861587516961  C 91.9492810147644 127.250664857531  85.9311169653681 132.343663500678  78.5231595990679 132.80697421981  C 71.1152022327678 133.269430122117  69.7262636473015 142.529660786974  64.6337737444037 134.195196743555  C 59.5412838415059 125.861587516961  56.763406670573 126.324898236092  53.5222650606721 120.306132971506  C 50.2811234507714 114.28736770692  50.7443878897392 108.268602442334  42.4107563769405 107.805291723202  C 34.0771248641421 107.342835820896  32.2249218397076 105.490447761194  28.5213705222765 106.416214382632  C 24.817819204845 107.342835820896  20.1877390094777 113.824056987788  20.1877390094777 106.416214382632  C 20.1877390094777 99.0092265943013  21.5766775949442 93.9162279511533  16.0209232530785 93.9162279511533  C 10.4651689112126 93.9162279511533  7.68729174027976 93.9162279511533  7.68729174027976 93.9162279511533  L 0.742598812947449 93.9162279511533  " stroke-width="2.00063512226104" stroke="#00a0e9" fill="none" transform="matrix(1 0 0 1 937 292 )" />
  </g>
</svg>