<?xml version="1.0" encoding="utf-8"?>
<svg version="1.1" xmlns:xlink="http://www.w3.org/1999/xlink" width="23px" height="64px" xmlns="http://www.w3.org/2000/svg">
  <g transform="matrix(1 0 0 1 -1140 -433 )">
    <path d="M 1.2569207615943 0.678756949445187  C 1.2569207615943 0.678756949445187  0.314882571417002 0.212947101472082  1.2569207615943 3.47103775399307  C 2.19895895177206 6.72998783427789  3.61245115771749 6.72998783427789  5.49739737943037 9.05731821861616  C 7.38234360114348 11.3846486029548  9.26641998149853 12.7812187191106  9.73787399726643 17.4358794877875  C 10.2093280130339 22.0905402564643  9.26641998149853 26.2802506049316  9.73787399726643 28.6075809892701  C 10.2093280130339 30.9349113736084  6.9108895853758 30.0032916776622  9.73787399726643 34.1930020261295  C 12.5648584091568 38.382712374597  16.3338810112252 40.2442329109622  18.2188272329381 43.9681334114566  C 20.103773454651 47.6920339119507  20.103773454651 51.4159344124449  19.6323194388833 53.7432647967834  C 19.1608654231159 56.0705951811217  16.8053350269927 59.3286858336427  16.8053350269927 59.3286858336427  L 13.978350615102 60.7252559497986  " stroke-width="2.00063512226104" stroke="#00a0e9" fill="none" transform="matrix(1 0 0 1 1141 434 )" />
  </g>
</svg>