<?xml version="1.0" encoding="utf-8"?>
<svg version="1.1" xmlns:xlink="http://www.w3.org/1999/xlink" width="14px" height="6px" preserveAspectRatio="xMinYMid meet" viewBox="882 405  14 4" xmlns="http://www.w3.org/2000/svg">
  <g transform="matrix(-0.829037572555037 0.559192903470737 -0.559192903470751 -0.829037572555043 1853.60591371402 247.295800844417 )">
    <path d="M 157.347661691542 0.533543238988557  C 157.347661691542 0.533543238988557  163.358743304753 5.14522002932381  165.670303800148 7.45063275744417  C 167.981864295544 9.75604548556453  169.831624854451 9.75604548556453  167.057410818249 14.3668709418052  C 164.283196782047 18.9776963980461  160.584529268551 21.7445322054282  164.283196782047 24.0499449335486  C 167.981864295544 26.3553576616689  168.907171377157 25.4333628372398  172.605838890653 26.8167807409309  C 176.304506404149 28.2001986446221  185.089802053562 30.9661831179099  186.476909071663 30.9661831179099  C 187.864016089764 30.9661831179099  194.336897639462 30.9661831179099  190.638230125966 33.7330189252922  C 186.93956261247 36.4998547326743  185.089802053562 32.3496010216011  185.089802053562 36.4998547326743  C 185.089802053562 40.6492571096533  187.401362548957 44.7995108207265  182.31558801736 46.1829287244177  C 177.229813485763 47.5654952940143  167.057410818249 53.099166908779  167.057410818249 53.099166908779  C 167.057410818249 53.099166908779  155.036101196147 55.4045796368994  157.347661691542 60.01540509314  C 159.659222186938 64.6262305493808  162.896089763946 69.6984790848834  162.896089763946 69.6984790848834  C 162.896089763946 69.6984790848834  155.960554673441 72.9258866374332  150.412126601038 72.4653148922658  C 144.863698528634 72.0038918130037  128.681067852228 73.387309716695  124.057093257119 71.0818969885746  C 119.433118662009 68.7764842604543  115.734451148513 66.0096484530719  112.960237112311 65.5490767079045  C 110.186023076109 65.0876536286427  104.637595003705 65.5490767079045  104.637595003705 68.3150611811923  C 104.637595003705 71.0818969885746  101.400727426696 77.0761403485064  101.863380967503 80.764970980318  C 102.32603450831 84.4538016121295  101.400727426696 86.7592143402499  99.0891669313011 89.0646270683702  C 96.7776064359057 91.3700397964906  102.32603450831 92.7534577001817  90.766524822695 94.5974473490403  C 79.2070151370806 96.4422883319933  75.5083476235843 96.4422883319933  71.3470265692813 97.3642831564227  C 67.1857055149783 98.2862779808518  63.9488379379699 101.975108612663  61.6372774425745 105.663939244475  C 59.3257169471791 109.352769876286  58.4004098655658 116.730431139909  53.3146353339685 115.347013236218  C 48.2288608023714 113.963595332527  50.5404212977664 110.736187779977  44.9919932253624 109.814192955548  C 39.4435651529587 108.892198131119  35.2822440986557 107.508780227428  32.5080300624537 109.814192955548  C 29.7338160262517 112.119605683669  26.4969484492431 114.886441491051  24.1853879538477 115.347013236218  C 21.8738274584526 115.80843631548  17.7125064041496 112.58102876293  15.862745845242 109.814192955548  C 14.0129852863344 107.047357148166  11.2387712501323 104.280521340784  10.314317772838 107.047357148166  C 9.38986429554359 109.814192955548  3.37878268233294 116.730431139909  3.37878268233294 116.730431139909  L 0.604568646131156 119.497266947292  " stroke-width="2.00063512226104" stroke="#00a0e9" fill="none" transform="matrix(1 0 0 1 840 294 )" />
  </g>
</svg>