<?xml version="1.0" encoding="utf-8"?>
<svg version="1.1" xmlns:xlink="http://www.w3.org/1999/xlink" width="148px" height="48px" xmlns="http://www.w3.org/2000/svg">
  <g transform="matrix(1 0 0 1 -1076 -388 )">
    <path d="M 0.572938654661584 25.5012492735041  L 6.11881689798815 31.0210204497384  C 6.11881689798815 31.0210204497384  14.437634262978 34.7011510093052  17.2105733846413 32.4011755753549  C 19.9835125063046 30.1012001414045  19.0594838697627 28.2607101985058  25.5293907496311 28.2607101985058  C 31.9992976294998 28.2607101985058  30.1512403564157 29.640865324122  33.848208114621 28.2607101985058  C 37.5451758728263 26.8805550728894  38.9316454336579 21.3607838966548  40.7805559187791 25.5012492735041  C 42.6294664039006 29.640865324122  46.3264341621057 31.9408407580723  49.099373283769 35.1614858265876  C 51.8723124054322 38.3812815688721  51.8723124054322 39.7614366944883  54.6452515270955 42.0614121284386  C 57.4181906487588 44.3613875623887  62.9640688920854 45.2812078707229  65.7370080137487 44.8217223796713  C 68.5099471354119 44.3613875623887  76.8287645004016 43.4415672540551  76.8287645004016 43.4415672540551  C 76.8287645004016 43.4415672540551  80.9881731828966 39.3011018772057  78.2152340612333 37.9209467515893  C 75.44229493957 36.540791625973  70.3588576205332 35.6209713176391  74.0558253787385 33.7813307009714  C 77.7527931369439 31.9408407580723  81.4506141071863 31.0210204497384  80.9881731828966 28.2607101985058  C 80.5257322586072 25.5012492735041  79.1392626977754 26.421069581838  79.6017036220649 22.7409390222712  C 80.0641445463546 19.0608084627046  69.8964166962435 19.9806287710383  79.6017036220649 15.8410127204204  C 89.3069905478865 11.7005473435713  92.0799296695497 16.3004982114717  97.6258079128763 11.7005473435713  C 103.171686156203 7.10059647567056  105.482184353577 6.18077616733672  110.104033960361 6.18077616733672  C 114.725883567146 6.18077616733672  111.952944445482 2.96013109882148  118.422851325351 3.42046591610403  C 124.892758205219 3.88080073338659  123.968729568677 5.72044135005439  133.674016494499 3.42046591610403  C 143.37930342032 1.12049048215368  144.765772981152 0.660155664871127  144.765772981152 0.660155664871127  " stroke-width="2.00063512226104" stroke="#00a0e9" fill="none" transform="matrix(1 0 0 1 1077 389 )" />
  </g>
</svg>