<?xml version="1.0" encoding="utf-8"?>
<svg version="1.1" xmlns:xlink="http://www.w3.org/1999/xlink" width="287px" height="110px" xmlns="http://www.w3.org/2000/svg">
  <g transform="matrix(1 0 0 1 -681 -452 )">
    <path d="M 119.884258027478 1.84258091508013  C 119.884258027478 1.84258091508013  123.580842957915 -0.917366687333299  128.202213963726 1.84258091508013  C 132.823584969536 4.60337799351782  127.278281012038 0.00261584680441729  136.520169899973 8.74457361117408  C 145.762058787908 17.4856818995195  142.065473857471 19.3264964438195  150.383429793719 21.1664615120952  C 158.701385729966 23.0072760563949  158.701385729966 25.7672236588083  167.019341666214 25.3076571297515  C 175.337297602461 24.8472411246704  173.950971613087 28.0684542081892  178.10994958121 23.9272585905326  C 182.268927549334 19.7860629728764  179.958668608272 15.645716831244  182.268927549334 15.645716831244  C 184.579186490397 15.645716831244  187.814231506833 15.645716831244  194.745861453705 15.645716831244  C 201.677491400578 15.645716831244  193.821928502018 18.4065139096815  204.450143379327 15.645716831244  C 215.078358256637 12.8849197528064  209.533054299139 11.0449546845307  214.154425304949 8.74457361117408  C 218.77579631076 6.44419253781751  220.623662214135 3.22297945429898  223.858707230571 4.60337799351782  C 227.093752247007 5.98377653273639  226.631359209321 9.204140140231  232.176663166819 12.8849197528064  C 237.721967124317 16.5656993653818  246.039923060565 21.1664615120952  252.971553007437 23.9272585905326  C 259.90318295431 26.6880556689703  260.365575991997 28.0684542081892  266.834812901183 30.8284018106026  C 273.304049810369 33.5891988890401  272.380116858682 31.7483843447404  275.152768837431 33.5891988890401  C 277.92542081618 35.4291639573158  281.160465832616 34.0496148941211  279.311746805554 37.7303945066966  C 277.463027778493 41.4103246432477  275.152768837431 44.6315377267666  275.152768837431 44.6315377267666  L 277.92542081618 51.5326809468363  L 282.084398784304 52.9130794860552  C 282.084398784304 52.9130794860552  284.857050763053 57.5138416327683  282.084398784304 57.0534256276874  C 279.311746805554 56.5938590986306  277.463027778493 57.0534256276874  277.92542081618 59.8142227061248  C 278.387813853867 62.5750197845625  283.008331735992 64.4149848528383  277.92542081618 66.7153659261949  C 272.842509896368 69.0157469995514  273.304049810369 67.1757819312759  270.993790869307 69.4761630046326  C 268.683531928245 71.7765440779891  263.599767884747 67.6361979363568  264.062160922434 72.2369600830699  C 264.524553960121 76.8377222297831  262.213441895373 81.4384843764965  264.062160922434 84.6588479839908  C 265.910879949495 87.8800610675096  268.221138890558 90.1804421408661  265.448486911809 91.560840680085  C 262.675834933059 92.9412392193036  260.827115905998 91.560840680085  255.744204986187 91.560840680085  C 250.661294066375 91.560840680085  250.198901028688 93.4008057483604  246.039923060565 90.1804421408661  C 241.880945092441 86.9600785333716  245.115990108877 89.2604596067284  239.108293113692 83.2792989207965  C 233.100596118506 77.2981382348642  231.252730215131 77.7577047639211  228.017685198695 77.7577047639211  C 224.782640182259 77.7577047639211  222.934774278884 78.6776872980588  221.086055251822 76.3773062247022  C 219.237336224761 74.0769251513457  218.77579631076 72.2369600830699  218.313403273073 69.4761630046326  C 217.851010235386 66.7153659261949  220.162122300134 66.7153659261949  216.927077283699 63.9554183237814  C 213.692032267263 61.1946212453437  212.305706277888 65.3358168630002  211.3817733262 61.1946212453437  C 210.457840374512 57.0534256276874  210.919380288514 52.452663480974  208.609121347451 52.9130794860552  C 206.298862406389 53.3734954911359  200.291165411204 53.8330620201929  200.291165411204 55.6738765644928  C 200.291165411204 57.5138416327683  196.13218744308 60.274638711206  197.518513432454 65.3358168630002  C 198.904839421829 70.3961455387703  204.450143379327 79.1381033031399  204.450143379327 79.1381033031399  C 204.450143379327 79.1381033031399  209.071514385138 84.1992814549342  205.836469368702 84.6588479839908  C 202.601424352266 85.1192639890719  197.518513432454 87.4196450624285  197.518513432454 87.4196450624285  C 197.518513432454 87.4196450624285  193.821928502018 87.8800610675096  193.359535464331 90.1804421408661  C 192.897142426644 92.4808232142227  194.745861453705 99.8423824393735  194.745861453705 99.8423824393735  C 194.745861453705 99.8423824393735  189.662950533894 99.3819664342927  183.655253538709 95.7011868217173  C 177.647556543523 92.0204072091417  177.647556543523 88.8000436016473  171.178319634337 88.8000436016473  C 164.709082725151 88.8000436016473  162.86036369809 88.3396275965665  160.087711719341 88.8000436016473  C 157.315059740592 89.2604596067284  155.46634071353 89.7200261357854  153.156081772468 88.8000436016473  C 150.845822831406 87.8800610675096  152.693688734781 93.4008057483604  150.383429793719 87.4196450624285  C 148.073170852656 81.4384843764965  145.762058787908 76.3773062247022  143.451799846846 74.9977571615076  C 141.141540905784 73.6173586222887  139.292821878722 76.3773062247022  139.292821878722 76.3773062247022  C 139.292821878722 76.3773062247022  131.437258980162 80.0580858372776  126.815887974351 77.7577047639211  C 122.194516968541 75.4573236905645  122.656910006227 75.9177396956453  117.111606048729 79.1381033031399  C 111.566302091231 82.3584669106342  112.028695128917 87.4196450624285  104.634672144358 81.8989003815776  C 97.240649159798 76.3773062247022  97.7030421974848 73.156942617208  92.1577382399867 70.8565615438513  C 86.6124342824883 68.5561804704945  78.294478346241 68.0957644654137  74.1355003781172 70.8565615438513  C 69.9765224099934 73.6173586222887  73.2115674264294 77.2981382348642  63.0448924631205 77.7577047639211  C 52.8782174998116 78.2181207690019  40.8636766331272 82.3584669106342  35.318372675629 84.6588479839908  C 29.7730687181307 86.9600785333716  26.5380237016948 83.7388654498531  22.8414387712578 88.8000436016473  C 19.1448538408208 93.8612217534416  11.7508308562612 102.603179517811  11.7508308562612 102.603179517811  L 0.660222941264578 106.743525659444  " stroke-width="2.00063512226104" stroke="#00a0e9" fill="none" transform="matrix(1 0 0 1 682 453 )" />
  </g>
</svg>