<?xml version="1.0" encoding="utf-8"?>
<svg version="1.1" xmlns:xlink="http://www.w3.org/1999/xlink" width="654px" height="482px" xmlns="http://www.w3.org/2000/svg">
  <g transform="matrix(1 0 0 1 -631 -263 )">
    <path d="M 339.262687850658 0.740510196180992  L 335.104588157992 2.12478357030722  L 333.718554927104 36.7282104813129  L 293.523591231338 67.1796691304772  L 195.115231838257 93.478307657263  L 163.236467527822 96.2468544055156  C 163.236467527822 96.2468544055156  154.457972751019 112.3947227624  157.692334604268 119.776946184049  C 160.926696457517 127.159169605697  165.084796150182 136.386522952488  171.552666913153 140.539343074867  C 178.020537676123 144.691311336708  183.103228151732 148.844131459087  190.957132145591 152.996099720928  C 198.81103613945 157.148919843307  201.121660153282 162.685161479274  202.045397992699 165.453708227526  C 202.969135832116 168.222254975779  207.589530916253 215.283290393383  207.589530916253 215.283290393383  L 68.9862078274058 237.42910879779  L 24.6331444389747 247.118170556136  C 24.6331444389747 247.118170556136  14.4686164312837 271.110822606762  17.7029782845324 274.801082457048  C 20.9373401377809 278.492194167872  23.2471112080862 286.336126001075  31.563310593417 290.027237711899  C 39.8795099787478 293.718349422723  46.8096761331902 292.334076048597  55.1258755185211 294.17920597374  C 63.4420749038519 296.025187759421  57.8979419802979 317.710149612811  57.8979419802979 317.710149612811  L 2.45661274475913 350.92930314969  C 2.45661274475913 350.92930314969  -1.70148694790623 379.535631873712  2.45661274475913 384.149308547107  C 6.6147124374246 388.762985220503  6.6147124374246 396.606065193168  19.0890115154208 400.758885315547  C 31.563310593417 404.911705437926  38.0311813563877 405.834270400497  46.8096761331902 406.295126951514  C 55.5881709099928 406.756835363069  58.3602373717697 401.220593727102  66.2141413656288 410.447947073893  C 74.0680453594879 419.675300420684  72.2205696806544 420.598717243794  82.8465401362905 428.441797216459  C 93.4725105919265 436.285729049662  101.788709977257 447.358212321596  113.339271215837 439.515132348931  C 124.889832454416 431.671200515728  121.193175209696 434.439747263981  132.743736448276 429.826070590585  C 144.294297686855 425.21239391719  151.224463841297 420.598717243794  156.306301373379 417.368462083987  C 161.388138905462 414.139058784717  161.388138905462 415.061623747289  167.394567220487 415.98418870986  C 173.400995535513 416.90760553297  173.400995535513 417.830170495541  184.026965991149 417.368462083987  C 194.652936446785 416.90760553297  199.735626922394 420.137008832239  213.133663839807 420.137008832239  C 226.53170075722 420.137008832239  235.772490925494 416.90760553297  247.784494612019 420.137008832239  C 259.796498298543 423.366412131509  262.56856476032 418.291027046558  265.802926613569 433.978038852426  C 269.037288466817 449.665050658294  271.809354928595 453.356162369118  279.663258922453 456.124709117371  C 287.517162916313 458.893255865623  293.061295839866 462.584367576448  301.839790616669 468.582317623969  C 310.618285393472 474.580267671492  314.776385086137 482.885056055711  326.788388772661 481.03907427003  C 338.800392459186 479.193944344887  344.806820774212 484.730185980854  347.578887235989 478.271379382316  C 350.350953697765 471.811720923239  357.74341524368 471.350012511684  354.509053390431 458.893255865623  C 351.274691537182 446.435647359025  349.888658306294 448.742485695723  351.736986928654 445.051373984898  C 353.585315551014 441.360262274074  345.730558613628 445.97393894747  361.439219544873 436.746585600679  C 377.147880476118 427.519232253887  370.679156769621 426.596667291316  379.457651546423 418.752735458113  C 388.236146323226 410.909655485448  382.692013399672 405.834270400497  394.704017086196 406.295126951514  C 406.716020772721 406.756835363069  411.336415856858 419.675300420684  416.880548780412 421.521282206365  C 422.424681703966 423.366412131509  429.354847858408 419.675300420684  437.671047243739 418.752735458113  C 445.98724662907 417.830170495541  453.841150622929 420.598717243794  458.461545707066 415.98418870986  C 463.081940791203 411.370512036465  468.626073714757 413.216493822145  470.935844785063 415.98418870986  C 473.245615855368 418.752735458113  484.333881702476 419.214443869668  487.568243555724 414.600767196272  C 490.802605408973 409.986238662338  492.188638639861 404.911705437926  495.884442941055 400.758885315547  C 499.580247242249 396.606065193168  503.276904486969 387.840420257931  508.358742019051 386.917003434822  C 513.440579551133 385.994438472251  518.984712474687 388.301276808948  519.447007866159 382.765035172981  C 519.909303257631 377.228793537014  519.447007866159 360.618364908036  519.447007866159 360.618364908036  C 519.447007866159 360.618364908036  476.942273100088 341.701949802899  475.093944477728 339.856819877756  C 473.245615855368 338.010838092075  441.829146936404 272.033387569333  441.829146936404 272.033387569333  L 461.233612168843 259.575779062735  C 461.233612168843 259.575779062735  471.398140176534 259.11407065118  475.093944477728 256.807232314482  C 478.789748778921 254.500393977784  475.093944477728 249.886717304388  491.72634324839 251.270990678515  C 508.358742019051 252.655264052641  515.288908173494 250.80928226696  527.76320725149 254.039537426767  C 540.237506329486 257.268940726037  542.085834951846 260.960052436861  554.097838638371 254.039537426767  C 566.109842324895 247.118170556136  564.262366646062 245.273040630993  576.274370332586 247.118170556136  C 588.286374019111 248.964152341817  592.906769103248 249.425860753372  603.995034950356 242.966202294295  C 615.083300797464 236.506543835218  613.234972175103 236.506543835218  622.013466951906 233.277140535949  C 630.791961728708 230.047737236679  650.196426961147 219.435258655224  651.120164800564 211.130470271004  C 652.043902639981 202.825681886785  649.734131569676 184.831831744219  649.734131569676 184.831831744219  C 649.734131569676 184.831831744219  583.6668318785 167.299690013207  580.432470025252 162.685161479274  C 577.198108172003 158.071484805878  590.134702641471 121.161219558175  590.134702641471 121.161219558175  C 590.134702641471 121.161219558175  595.216540173554 113.778996136527  598.450902026802 110.087884425703  C 601.685263880051 106.396772714878  608.615430034493 105.474207752307  613.697267566575 105.935916163862  C 618.779105098657 106.396772714878  623.399500182795 112.3947227624  633.101732799014 110.087884425703  C 642.803965415233 107.781046089005  642.803965415233 105.935916163862  645.57603187701 99.0145492932302  C 648.348098338787 92.0940342831368  651.120164800564 91.1714693205651  652.506198031452 90.7097609090103  C 653.892231262341 90.2489043579936  653.892231262341 84.7118108614885  653.892231262341 81.0206991506644  C 653.892231262341 77.3295874398401  653.892231262341 63.0268490080983  653.892231262341 63.0268490080983  L 622.013466951906 60.258302259846  L 585.976602948806 74.1001841405707  L 469.549811554174 87.9412141607579  L 360.053186313985 11.8138453286533  L 339.262687850658 0.740510196180992  Z " fill-rule="nonzero" fill="#001937" stroke="none" transform="matrix(1 0 0 1 631 263 )" />
  </g>
</svg>