<?xml version="1.0" encoding="utf-8"?>
<svg version="1.1" xmlns:xlink="http://www.w3.org/1999/xlink" width="44px" height="119px" xmlns="http://www.w3.org/2000/svg">
  <g transform="matrix(1 0 0 1 -873 -550 )">
    <path d="M 0.615737800359966 0.806786468159999  C 0.615737800359966 0.806786468159999  1.54109406425323 3.11728466553359  2.00419941515827 6.35181149944901  C 2.46730476606331 9.58719154540177  2.00419941515827 10.0487792576541  6.16958425955352 13.2841593036072  C 10.3349691039484 16.5186861375227  13.111892333545 21.1396825322698  14.5003539483433 21.6021234565596  C 15.8888155631417 22.0637111688117  24.6826906028368 23.9126216539332  25.6080468667302 21.6021234565596  C 26.5334031306235 19.291625259186  27.4596138324338 16.5186861375227  31.1618933259238 16.0562452132332  C 34.8641728194136 15.5946575009806  38.1042013999153 16.0562452132332  38.1042013999153 16.0562452132332  C 38.1042013999153 16.0562452132332  41.3442299804171 20.2156538957278  40.8811246295122 22.9885930173912  C 40.4180192786069 25.7606789270171  40.8811246295122 28.0711771243907  39.4926630147136 34.0786430799694  C 38.1042013999153 40.0861090355482  38.5673067508205 43.7830767937534  36.715739785117 46.5560159154168  C 34.8641728194136 49.3289550370798  30.6987879750185 51.1770123101639  29.7734317111253 53.4875105075375  C 28.8480754472321 55.7980087049109  26.9965084815285 61.3438869482376  26.9965084815285 63.1919442213215  C 26.9965084815285 65.040854706443  26.9965084815285 74.2828474959372  26.9965084815285 74.2828474959372  L 22.8311236371335 82.6008116488896  L 22.8311236371335 93.6917149235051  L 22.8311236371335 99.2367399547943  L 22.8311236371335 110.32764322941  L 24.2195852519319 115.873521472737  " stroke-width="2.00063512226104" stroke="#00a0e9" fill="none" transform="matrix(1 0 0 1 874 551 )" />
  </g>
</svg>