<?xml version="1.0" encoding="utf-8"?>
<svg version="1.1" xmlns:xlink="http://www.w3.org/1999/xlink" width="175px" height="93px" xmlns="http://www.w3.org/2000/svg">
  <g transform="matrix(1 0 0 1 -912 -560 )">
    <path d="M 0.200365352508697 15.4546771361978  C 1.58446811654812 15.4546771361978  1.1228166100193 14.0745220105815  4.35267364462709 14.0745220105815  C 7.58253067923499 14.0745220105815  11.2731874648247 14.0745220105815  12.6572902288643 15.4546771361978  C 14.0413929929036 16.8348322618143  16.3479470144537 20.5149628213808  19.5778040490618 16.8348322618143  C 22.8076610836696 13.1547017022475  22.8076610836696 9.47457114268093  25.1142151052196 9.93490595996343  C 27.4207691267699 10.3952407772458  33.8804831959856 13.1547017022475  36.1870372175358 14.0745220105815  C 38.4935912390858 14.9951916451464  42.6458995312042 18.675322204713  47.2598593298518 16.8348322618143  C 51.873819128499 14.9951916451464  53.7187216435204 14.9951916451464  52.7962703860098 12.6952162111961  C 51.873819128499 10.3952407772458  47.7215108363808 10.8547262682972  48.6439620938911 8.55475083434692  C 49.5664133514021 6.25477540039685  57.8710299356389 8.09441601706442  58.3326814421677 5.79444058311435  C 58.7943329486968 3.49446514916406  56.9485786781283 2.11431002354755  59.7167842062073 1.65482453249626  C 62.4849897342864 1.19448971521354  63.8690924983258 -0.185665410402748  66.6372980264049 0.274669406879752  C 69.4055035544839 0.735004224162253  70.3279548119945 1.65482453249626  72.1737090825629 4.41428545749784  C 74.0194633531312 7.17459570873064  73.5578118466024 9.01508565162965  79.0942229027605 9.93490595996343  C 84.6306339589182 10.8547262682972  91.089496272587 11.3150610855796  92.9352505431555 11.3150610855796  C 94.7810048137239 11.3150610855796  95.7034560712346 9.47457114268093  97.087558835274 12.6952162111961  C 98.4716615993136 15.9150119534802  99.8557643633528 18.2149873874308  98.4716615993136 20.9752976386635  C 97.087558835274 23.7347585636649  94.3193533071949 26.4950688148979  94.3193533071949 26.4950688148979  L 91.5511477791158 29.2553790661307  C 91.5511477791158 29.2553790661307  94.3193533071949 30.635534191747  95.7034560712346 33.3949951167488  C 97.087558835274 36.1553053679813  92.9352505431555 37.9957953108806  92.9352505431555 41.6759258704471  C 92.9352505431555 45.3552071037825  91.5511477791158 49.9560072979143  97.087558835274 49.9560072979143  C 102.623969891432 49.9560072979143  106.77627818355 49.4956724806318  110.928586475669 49.9560072979143  C 115.080894767787 50.4154927889658  120.617305823945 49.9560072979143  120.617305823945 49.9560072979143  C 120.617305823945 49.9560072979143  119.694854566435 55.0154436568664  122.001408587985 54.0956233485324  C 124.307962609535 53.1758030401986  126.615368386632 50.8758276062483  131.690127936262 49.9560072979143  C 136.764887485891 49.0353376633493  139.072293262988 41.6759258704471  144.147052812617 44.4353867954487  C 149.221812362246 47.1956970466815  146.453606834167 49.4956724806318  148.299361104735 54.0956233485324  C 150.145115375304 58.695574216433  160.756285981091 66.5161701528488  160.756285981091 66.5161701528488  C 160.756285981091 66.5161701528488  164.90859427321 73.4160964546996  166.292697037249 74.7962515803159  C 167.676799801289 76.1764067059324  166.292697037249 73.8764312719821  167.676799801289 80.3160227565505  C 169.060902565328 86.7564635673499  171.829108093407 89.9762593096342  171.829108093407 89.9762593096342  " stroke-width="2.00063512226104" stroke="#00a0e9" fill="none" transform="matrix(1 0 0 1 913 561 )" />
  </g>
</svg>