<?xml version="1.0" encoding="utf-8"?>
<svg version="1.1" xmlns:xlink="http://www.w3.org/1999/xlink" width="279px" height="23px" xmlns="http://www.w3.org/2000/svg">
  <g transform="matrix(1 0 0 1 -1406 -613 )">
    <path d="M 233.4143619634 20.5987774086075  C 233.4143619634 21.78873110512  232.413897687267 22.7568703976688  231.18417042598 22.7568703976688  C 229.954149459286 22.7568703976688  228.953460584901 21.78873110512  228.953460584901 20.5987774086075  C 228.953460584901 19.4085227881224  229.954149459286 18.4402163155886  231.18417042598 18.4402163155886  C 232.413897687267 18.4402163155886  233.4143619634 19.4085227881224  233.4143619634 20.5987774086075  Z M 141.736119692143 13.6248309025585  C 141.736119692143 14.8150855230439  140.73541354097 15.7833919955774  139.505409851065 15.7833919955774  C 138.275665312989 15.7833919955774  137.275183760067 14.8150855230439  137.275183760067 13.6248309025585  C 137.275183760067 12.4348772060462  138.275665312989 11.4667713494944  139.505409851065 11.4667713494944  C 140.73541354097 11.4667713494944  141.736119692143 12.4348772060462  141.736119692143 13.6248309025585  Z M 4.49005801635303 10.9407562450089  C 4.49005801635303 12.1309774294972  3.48957214423399 13.0993173380278  2.25984056375 13.0993173380278  C 1.0298282354504 13.0993173380278  0.0291652762480226 12.1309774294972  0.0291652762480226 10.9407562450089  C 0.0291652762480226 9.75053506052063  1.0298282354504 8.78219515198998  2.25984056375 8.78219515198998  C 3.48957214423399 8.78219515198998  4.49005801635303 9.75053506052063  4.49005801635303 10.9407562450089  Z M 187.852654222844 10.4038410055081  C 187.852654222844 11.5940956259933  186.851948071671 12.5624020985269  185.621944381765 12.5624020985269  C 184.392217120479 12.5624020985269  183.391752844345 11.5940956259933  183.391752844345 10.4038410055081  C 183.391752844345 9.21361982101985  184.392217120479 8.2452799124892  185.621944381765 8.2452799124892  C 186.851948071671 8.2452799124892  187.852654222844 9.21361982101985  187.852654222844 10.4038410055081  Z M 278.982151133554 8.25618004750459  C 278.982151133554 9.44640123199281  277.981479535957 10.4147411405235  276.751475846052 10.4147411405235  C 275.52143760257 10.4147411405235  274.520731451396 9.44640123199281  274.520731451396 8.25618004750459  C 274.520731451396 7.06622635099211  275.52143760257 6.09812049444042  276.751475846052 6.09812049444042  C 277.981479535957 6.09812049444042  278.982151133554 7.06622635099211  278.982151133554 8.25618004750459  Z M 50.0522538261873 7.7197663479584  C 50.0522538261873 8.90972004447076  49.0515563134077 9.87782590102256  47.8215439851083 9.87782590102256  C 46.5915230184146 9.87782590102256  45.5908255056349 8.90972004447076  45.5908255056349 7.7197663479584  C 45.5908255056349 6.52954516347006  46.5915230184146 5.56120525493952  47.8215439851083 5.56120525493952  C 49.0515563134077 5.56120525493952  50.0522538261873 6.52954516347006  50.0522538261873 7.7197663479584  Z M 96.1744205899824 2.35653212441503  C 96.1744205899824 3.5464858209275  95.1737230772026 4.5145916774793  93.9437021105089 4.5145916774793  C 92.7136897822097 4.5145916774793  91.7129922694298 3.5464858209275  91.7129922694298 2.35653212441503  C 91.7129922694298 1.1662775039299  92.7136897822097 0.198004467393162  93.9437021105089 0.198004467393162  C 95.1737230772026 0.198004467393162  96.1744205899824 1.1662775039299  96.1744205899824 2.35653212441503  Z " fill-rule="nonzero" fill="#ed87e9" stroke="none" transform="matrix(1 0 0 1 1406 613 )" />
  </g>
</svg>