<?xml version="1.0" encoding="utf-8"?>
<svg version="1.1" xmlns:xlink="http://www.w3.org/1999/xlink" width="487px" height="150px" xmlns="http://www.w3.org/2000/svg">
  <g transform="matrix(1 0 0 1 -1388 -190 )">
    <path d="M 0.478792892359608 129.637159591013  C 0.478792892359608 129.637159591013  18.556222494292 110.11373548195  27.9566857483207 103.605261242183  C 37.3571490023494 97.0977863075345  45.3106184441283 99.9897753217961  53.988584097151 102.159266735052  C 62.6655504450548 104.328758148307  99.2461136295953 29.8765295655339  117.621336156977 29.8475497170841  C 139.508116872374 29.8135733430396  174.987445815823 108.6667416697  196.198696270805 112.283226895205  C 217.409946725787 115.898712815592  255.10873233844 41.8971708414679  275.258720757089 45.7564872108798  C 307.752126005096 51.9801594917442  346.122444657688 -0.630257105985904  363.477376658615 0.9226630488733  C 387.656563316899 3.0871579365342  413.052903610072 90.1266337976903  418.433162370537 96.3742894014096  C 433.37677111942 113.729221402336  483.512908242613 142.653108765428  483.512908242613 146.992091591939  " stroke-width="2.06856159624102" stroke="#07e28d" fill="none" transform="matrix(1 0 0 1 1389 191 )" />
  </g>
</svg>