<?xml version="1.0" encoding="utf-8"?>
<svg version="1.1" xmlns:xlink="http://www.w3.org/1999/xlink" width="487px" height="99px" xmlns="http://www.w3.org/2000/svg">
  <defs>
    <linearGradient gradientUnits="userSpaceOnUse" x1="242" y1="0" x2="242" y2="96" id="LinearGradient1855">
      <stop id="Stop1856" stop-color="#e5b036" offset="0" />
      <stop id="Stop1857" stop-color="#e5b036" stop-opacity="0.498039215686275" offset="0.36" />
      <stop id="Stop1858" stop-color="#ffffff" stop-opacity="0" offset="1" />
    </linearGradient>
  </defs>
  <g transform="matrix(1 0 0 1 -1387 -262 )">
    <path d="M 483.110619153039 95.7354852531601  L 0.808969506534313 94.2877954723988  C 0.808969506534313 94.2877954723988  15.7607655502392 86.3305006070128  15.7607655502392 82.71327572663  C 15.7607655502392 79.095051060487  46.3862029565093 74.0311361851032  52.8978076126544 69.6900664143398  C 59.4084124830393 65.3499964293366  86.4176247946868 6.74955366707134  98.2340926944226 7.47239877169177  C 110.050560594158 8.1962436620724  138.023566378633 45.0923373562808  146.463757766193 52.3277869028066  C 154.903949153753 59.5622366635721  187.700921231165 80.5427408412483  195.176319360137 81.2655859458687  C 202.651717489109 81.9894308362494  233.761051203314 75.4778261801043  242.44219095908 72.5844461901021  C 251.123330714847 69.6900664143398  277.167749767907 49.4334071270442  290.189959294437 40.7522673712776  C 303.212168820967 32.0701278297508  336.491037634793 -2.65543097907592  345.172177390559 0.237949010926229  C 353.853317146326 3.13232878668856  380.38063272156 42.9228022566593  386.650289223738 46.540027137042  C 392.919945725916 50.1572520174249  423.546382917946 60.2850817681926  432.46847104192 65.3499964293366  C 441.391558951653 70.4139113047204  476.358066128687 95.0116403627794  483.110619153039 95.7354852531601  Z " fill-rule="nonzero" fill="url(#LinearGradient1855)" stroke="none" transform="matrix(1 0 0 1 1388 263 )" />
    <path d="M 0.808969506534313 94.2877954723988  C 0.808969506534313 94.2877954723988  15.7607655502392 86.3305006070128  15.7607655502392 82.71327572663  C 15.7607655502392 79.095051060487  46.3862029565093 74.0311361851032  52.8978076126544 69.6900664143398  C 59.4084124830393 65.3499964293366  86.4176247946868 6.74955366707134  98.2340926944226 7.47239877169177  C 110.050560594158 8.1962436620724  138.023566378633 45.0923373562808  146.463757766193 52.3277869028066  C 154.903949153753 59.5622366635721  187.700921231165 80.5427408412483  195.176319360137 81.2655859458687  C 202.651717489109 81.9894308362494  233.761051203314 75.4778261801043  242.44219095908 72.5844461901021  C 251.123330714847 69.6900664143398  277.167749767907 49.4334071270442  290.189959294437 40.7522673712776  C 303.212168820967 32.0701278297508  336.491037634793 -2.65543097907592  345.172177390559 0.237949010926229  C 353.853317146326 3.13232878668856  380.38063272156 42.9228022566593  386.650289223738 46.540027137042  C 392.919945725916 50.1572520174249  423.546382917946 60.2850817681926  432.46847104192 65.3499964293366  C 441.391558951653 70.4139113047204  476.358066128687 95.0116403627794  483.110619153039 95.7354852531601  " stroke-width="2.06955652360209" stroke="#e5b036" fill="none" transform="matrix(1 0 0 1 1388 263 )" />
  </g>
</svg>