<?xml version="1.0" encoding="utf-8"?>
<svg version="1.1" xmlns:xlink="http://www.w3.org/1999/xlink" width="279px" height="35px" xmlns="http://www.w3.org/2000/svg">
  <g transform="matrix(1 0 0 1 -1406 -631 )">
    <path d="M 137.562313062577 32.0178121890569  C 137.562313062577 32.9201334484205  138.305676690706 33.6519020484075  139.222992994166 33.6519020484075  C 140.140274813995 33.6519020484075  140.884207422032 32.9201334484205  140.884207422032 32.0178121890569  C 140.884207422032 31.1154909296934  140.140274813995 30.3837223297065  139.222992994166 30.3837223297065  C 138.305676690706 30.3837223297065  137.562313062577 31.1154909296934  137.562313062577 32.0178121890569  Z M 274.530001274948 28.7501412790057  C 274.530001274948 29.6524625383693  275.27391664117 30.3837223297065  276.191215702814 30.3837223297065  C 277.108514764459 30.3837223297065  277.85243013068 29.6524625383693  277.85243013068 28.7501412790057  C 277.85243013068 27.847820019642  277.108514764459 27.1160514196552  276.191215702814 27.1160514196552  C 275.27391664117 27.1160514196552  274.530001274948 27.847820019642  274.530001274948 28.7501412790057  Z M 229.054971847454 24.3986061833807  C 229.054971847454 25.3009274427444  229.79886997186 26.0321872340814  230.71618627532 26.0321872340814  C 231.633468095149 26.0321872340814  232.376866206909 25.3009274427444  232.376866206909 24.3986061833807  C 232.376866206909 23.4962849240172  231.633468095149 22.7645163240302  230.71618627532 22.7645163240302  C 229.79886997186 22.7645163240302  229.054971847454 23.4962849240172  229.054971847454 24.3986061833807  Z M 183.585494284511 8.60942576902517  C 183.585494284511 9.51174702838875  184.328909638087 10.2435156283756  185.2461742161 10.2435156283756  C 186.164025015837 10.2435156283756  186.907405885782 9.51174702838875  186.907405885782 8.60942576902517  C 186.907405885782 7.70710450966146  186.164025015837 6.97533590967464  185.2461742161 6.97533590967464  C 184.328909638087 6.97533590967464  183.585494284511 7.70710450966146  183.585494284511 8.60942576902517  Z M 91.5390887361038 8.60942576902517  C 91.5390887361038 9.51174702838875  92.2824954687717 10.2435156283756  93.1998117722317 10.2435156283756  C 94.1170935920609 10.2435156283756  94.860991716467 9.51174702838875  94.860991716467 8.60942576902517  C 94.860991716467 7.70710450966146  94.1170935920609 6.97533590967464  93.1998117722317 6.97533590967464  C 92.2824954687717 6.97533590967464  91.5390887361038 7.70710450966146  91.5390887361038 8.60942576902517  Z M 1.1477940129198 7.52003252945815  C 1.1477940129198 8.42235378882174  1.89120074558764 9.15412238880867  2.80901275123961 9.15412238880867  C 3.72632905469959 9.15412238880867  4.46973578736743 8.42235378882174  4.46973578736743 7.52003252945815  C 4.46973578736743 6.61771127009456  3.72632905469959 5.88645147875729  2.80901275123961 5.88645147875729  C 1.89120074558764 5.88645147875729  1.1477940129198 6.61771127009456  1.1477940129198 7.52003252945815  Z M 46.0635161914254 3.16296837983987  C 46.0635161914254 4.06528963920346  46.8074487994622 4.79705823919039  47.7247306192914 4.79705823919039  C 48.6420469227512 4.79705823919039  49.3859450471575 4.06528963920346  49.3859450471575 3.16296837983987  C 49.3859450471575 2.26064712047628  48.6420469227512 1.52938732913913  47.7247306192914 1.52938732913913  C 46.8074487994622 1.52938732913913  46.0635161914254 2.26064712047628  46.0635161914254 3.16296837983987  Z M 142.014167034527 32.0178121890569  C 142.014167034527 33.5317553659269  140.762066401907 34.7634115039477  139.222992994166 34.7634115039477  C 137.684247180917 34.7634115039477  136.432353450082 33.5317553659269  136.432353450082 32.0178121890569  C 136.432353450082 30.5038690121871  137.684247180917 29.2722128741661  139.222992994166 29.2722128741661  C 140.762066401907 29.2722128741661  142.014167034527 30.5038690121871  142.014167034527 32.0178121890569  Z M 278.982389743175 28.7501412790057  C 278.982389743175 30.2638130912624  277.730289110555 31.4952317852467  276.191215702814 31.4952317852467  C 274.652142295073 31.4952317852467  273.400041662454 30.2638130912624  273.400041662454 28.7501412790057  C 273.400041662454 27.2361981021357  274.652142295073 26.0045419641149  276.191215702814 26.0045419641149  C 277.730289110555 26.0045419641149  278.982389743175 27.2361981021357  278.982389743175 28.7501412790057  Z M 233.506825819404 24.3986061833807  C 233.506825819404 25.9122440750609  232.254932088569 27.1436966896218  230.71618627532 27.1436966896218  C 229.177112867579 27.1436966896218  227.925012234959 25.9122440750609  227.925012234959 24.3986061833807  C 227.925012234959 22.8846630065108  229.177112867579 21.65300686849  230.71618627532 21.65300686849  C 232.254932088569 21.65300686849  233.506825819404 22.8846630065108  233.506825819404 24.3986061833807  Z M 188.037365498276 8.60942576902517  C 188.037365498276 10.1233689458951  186.785264865657 11.3550250839158  185.2461742161 11.3550250839158  C 183.707428402852 11.3550250839158  182.455534672016 10.1233689458951  182.455534672016 8.60942576902517  C 182.455534672016 7.09548259215524  183.707428402852 5.86382645413437  185.2461742161 5.86382645413437  C 186.785264865657 5.86382645413437  188.037365498276 7.09548259215524  188.037365498276 8.60942576902517  Z M 95.9909513289617 8.60942576902517  C 95.9909513289617 10.1233689458951  94.7388506963421 11.3550250839158  93.1998117722317 11.3550250839158  C 91.6610228544443 11.3550250839158  90.4091291236093 10.1233689458951  90.4091291236093 8.60942576902517  C 90.4091291236093 7.09548259215524  91.6610228544443 5.86382645413437  93.1998117722317 5.86382645413437  C 94.7388506963421 5.86382645413437  95.9909513289617 7.09548259215524  95.9909513289617 8.60942576902517  Z M 5.59969539986196 7.52003252945815  C 5.59969539986196 9.03397570632808  4.34780597948065 10.2656318443488  2.80901275123961 10.2656318443488  C 1.2699350330447 10.2656318443488  0.0178344004250448 9.03397570632808  0.0178344004250448 7.52003252945815  C 0.0178344004250448 6.00639463777804  1.2699350330447 4.77494202321714  2.80901275123961 4.77494202321714  C 4.34780597948065 4.77494202321714  5.59969539986196 6.00639463777804  5.59969539986196 7.52003252945815  Z M 50.5159046596518 3.16296837983987  C 50.5159046596518 4.6769115567098  49.2638040270324 5.90856769473055  47.7247306192914 5.90856769473055  C 46.1856572115503 5.90856769473055  44.9335565789308 4.6769115567098  44.9335565789308 3.16296837983987  C 44.9335565789308 1.64933048815976  46.1856572115503 0.417877873598854  47.7247306192914 0.417877873598854  C 49.2638040270324 0.417877873598854  50.5159046596518 1.64933048815976  50.5159046596518 3.16296837983987  Z " fill-rule="nonzero" fill="#ff6800" stroke="none" transform="matrix(1 0 0 1 1406 631 )" />
  </g>
</svg>