<?xml version="1.0" encoding="utf-8"?>
<svg version="1.1" xmlns:xlink="http://www.w3.org/1999/xlink" width="278px" height="35px" xmlns="http://www.w3.org/2000/svg">
  <g transform="matrix(1 0 0 1 -1406 -631 )">
    <path d="M 140.950096019714 32.4938060313211  C 140.950096019714 33.7409010363912  139.950967213364 34.755448801626  138.722863842081 34.755448801626  C 137.49505371832 34.755448801626  136.49616640993 33.7409010363912  136.49616640993 32.4938060313211  C 136.49616640993 31.2467460589777  137.49505371832 30.2321632610161  138.722863842081 30.2321632610161  C 139.950967213364 30.2321632610161  140.950096019714 31.2467460589777  140.950096019714 32.4938060313211  Z M 277.982178959831 29.1189983701206  C 277.982178959831 30.3657780806504  276.983067403336 31.380115649525  275.754946782199 31.380115649525  C 274.52686066077 31.380115649525  273.527714604566 30.3657780806504  273.527714604566 29.1189983701206  C 273.527714604566 27.8719033650506  274.52686066077 26.8573555998157  275.754946782199 26.8573555998157  C 276.983067403336 26.8573555998157  277.982178959831 27.8719033650506  277.982178959831 29.1189983701206  Z M 232.485412453586 24.6247899926718  C 232.485412453586 25.8715697032017  231.486525145195 26.8859072720762  230.258715021434 26.8859072720762  C 229.030611650152 26.8859072720762  228.031482843802 25.8715697032017  228.031482843802 24.6247899926718  C 228.031482843802 23.3777300203285  229.030611650152 22.363147222367  230.258715021434 22.363147222367  C 231.486525145195 22.363147222367  232.485412453586 23.3777300203285  232.485412453586 24.6247899926718  Z M 186.994752395735 8.31793153194394  C 186.994752395735 9.56502653701409  185.995606339531 10.5795743022488  184.767502968248 10.5795743022488  C 183.539692844487 10.5795743022488  182.540805536097 9.56502653701409  182.540805536097 8.31793153194394  C 182.540805536097 7.07087155960062  183.539692844487 6.05628876163905  184.767502968248 6.05628876163905  C 185.995606339531 6.05628876163905  186.994752395735 7.07087155960062  186.994752395735 8.31793153194394  Z M 94.9054223938383 8.31793153194394  C 94.9054223938383 9.56502653701409  93.9063194622699 10.5795743022488  92.6782247159142 10.5795743022488  C 91.4504145921533 10.5795743022488  90.4514841591272 9.56502653701409  90.4514841591272 8.31793153194394  C 90.4514841591272 7.07087155960062  91.4504145921533 6.05628876163905  92.6782247159142 6.05628876163905  C 93.9063194622699 6.05628876163905  94.9054223938383 7.07087155960062  94.9054223938383 8.31793153194394  Z M 4.47202233515668 7.19282048124364  C 4.47202233515668 8.43988045358708  3.47309621459408 9.45446325154853  2.24528177836942 9.45446325154853  C 1.01718271955042 9.45446325154853  0.0180452882736972 8.43988045358708  0.0180452882736972 7.19282048124364  C 0.0180452882736972 5.94604077071392  1.01718271955042 4.93170320183924  2.24528177836942 4.93170320183924  C 3.47309621459408 4.93170320183924  4.47202233515668 5.94604077071392  4.47202233515668 7.19282048124364  Z M 49.4091733832195 2.69290176934283  C 49.4091733832195 3.93996174168626  48.4100359519425 4.95454453964771  47.1819412055872 4.95454453964771  C 45.9538464592315 4.95454453964771  44.9547090279548 3.93996174168626  44.9547090279548 2.69290176934283  C 44.9547090279548 1.44612205881299  45.9538464592315 0.431784489938423  47.1819412055872 0.431784489938423  C 48.4100359519425 0.431784489938423  49.4091733832195 1.44612205881299  49.4091733832195 2.69290176934283  Z " fill-rule="nonzero" fill="#ff6800" stroke="none" transform="matrix(1 0 0 1 1406 631 )" />
  </g>
</svg>