<?xml version="1.0" encoding="utf-8"?>
<svg version="1.1" xmlns:xlink="http://www.w3.org/1999/xlink" width="487px" height="99px" xmlns="http://www.w3.org/2000/svg">
  <defs>
    <linearGradient gradientUnits="userSpaceOnUse" x1="243.5" y1="0" x2="243.5" y2="99" id="LinearGradient1859">
      <stop id="Stop1860" stop-color="#1ac6ff" stop-opacity="0.619607843137255" offset="0" />
      <stop id="Stop1861" stop-color="#1ac6ff" stop-opacity="0.619607843137255" offset="0.01" />
      <stop id="Stop1862" stop-color="#1ac6ff" stop-opacity="0.356862745098039" offset="0.57" />
      <stop id="Stop1863" stop-color="#000000" stop-opacity="0.0392156862745098" offset="1" />
    </linearGradient>
  </defs>
  <g transform="matrix(1 0 0 1 -1385 -301 )">
    <path d="M 0.914589730771977 98  C 0.914589730771977 98.2488038277512  0.914589730771977 84.7446975648075  0.914589730771977 75.0987645504535  C 11.5253160037135 65.4518317503392  16.3482825108905 65.934728272513  24.0656287938299 66.4166250089267  C 31.7819752910091 66.8995215311005  48.6633578518889 50.9829322288081  55.8978076126544 46.1599657216311  C 66.0256373634221 39.4074126972792  93.5167464114833 -3.03549239448688  101.234092694423 1.30557737627652  C 108.950439191602 5.64564736127974  143.676997786189 41.336999214454  149.463757766193 46.1599657216311  C 155.251517531957 50.9829322288081  190.459972862958 65.934728272513  198.176319360137 64.9699350139256  C 205.893665643076 64.0051417553381  237.242947939727 42.7836892094551  245.44219095908 41.8188959508677  C 253.641433978433 40.8541026922802  278.238163250732 28.314789687924  293.189959294437 27.3499964293366  C 308.623652074555 25.9033064343355  332.258587445547 16.1903877740484  340.937727629794 15.7744768978076  C 354.941726772834 15.1036206527173  384.827322716561 35.0663429265157  389.650289223738 37.4778261801043  C 394.473255730915 39.890309219453  430.163607798329 54.8411054773977  435.46847104192 56.2877954723988  C 440.77433407127 57.7354852531601  478.876169392273 76.5454545454546  486 75.0987645504535  L 486 98  L 0.914589730771977 98  Z " fill-rule="nonzero" fill="url(#LinearGradient1859)" stroke="none" transform="matrix(1 0 0 1 1385 301 )" />
  </g>
</svg>