<?xml version="1.0" encoding="utf-8"?>
<svg version="1.1" xmlns:xlink="http://www.w3.org/1999/xlink" width="280px" height="25px" xmlns="http://www.w3.org/2000/svg">
  <g transform="matrix(1 0 0 1 -1405 -612 )">
    <path d="M 229.977218101733 21.9404311057687  C 229.977218101733 22.8632596664816  230.722274316699 23.6111736900297  231.641018685799 23.6111736900297  C 232.559728517585 23.6111736900297  233.304301210149 22.8632596664816  233.304301210149 21.9404311057687  C 233.304301210149 21.0176025450559  232.559728517585 20.2692028405239  231.641018685799 20.2692028405239  C 230.722274316699 20.2692028405239  229.977218101733 21.0176025450559  229.977218101733 21.9404311057687  Z M 138.342090243219 14.7046170431686  C 138.342090243219 15.6274456038813  139.086662935783 16.3758453084133  140.005407304883 16.3758453084133  C 140.924117136669 16.3758453084133  141.669207888949 15.6274456038813  141.669207888949 14.7046170431686  C 141.669207888949 13.7817884824558  140.924117136669 13.0339091504062  140.005407304883 13.0339091504062  C 139.086662935783 13.0339091504062  138.342090243219 13.7817884824558  138.342090243219 14.7046170431686  Z M 1.16066747426544 11.9197569735765  C 1.16066747426544 12.8425855342892  1.90572800639552 13.5909852388213  2.82443352101677 13.5909852388213  C 3.74317789011707 13.5909852388213  4.48774194835255 12.8425855342892  4.48774194835255 11.9197569735765  C 4.48774194835255 10.9969284128637  3.74317789011707 10.2485287083316  2.82443352101677 10.2485287083316  C 1.90572800639552 10.2485287083316  1.16066747426544 10.9969284128637  1.16066747426544 11.9197569735765  Z M 184.43695426982 11.3626808851615  C 184.43695426982 12.2855094458744  185.181526962385 13.0339091504062  186.10023679417 13.0339091504062  C 187.019464685672 13.0339091504062  187.764037378236 12.2855094458744  187.764037378236 11.3626808851615  C 187.764037378236 10.4398523244488  187.019464685672 9.69145261991662  186.10023679417 9.69145261991662  C 185.181526962385 9.69145261991662  184.43695426982 10.4398523244488  184.43695426982 11.3626808851615  Z M 275.523042441264 9.13437653150174  C 275.523042441264 10.0577254646971  276.268115924887 10.8056047967466  277.186877562645 10.8056047967466  C 278.105570125773 10.8056047967466  278.850643609396 10.0577254646971  278.850643609396 9.13437653150174  C 278.850643609396 8.21154797078896  278.105570125773 7.46366863873959  277.186877562645 7.46366863873959  C 276.268115924887 7.46366863873959  275.523042441264 8.21154797078896  275.523042441264 9.13437653150174  Z M 46.7008838173704 8.57782081556945  C 46.7008838173704 9.50064937628224  47.4459832039793 10.2485287083316  48.364693035765 10.2485287083316  C 49.2834374048653 10.2485287083316  50.0284936198309 9.50064937628224  50.0284936198309 8.57782081556945  C 50.0284936198309 7.65447188237397  49.2834374048653 6.9065925503246  48.364693035765 6.9065925503246  C 47.4459832039793 6.9065925503246  46.7008838173704 7.65447188237397  46.7008838173704 8.57782081556945  Z M 92.8013428889051 3.01320032671515  C 92.8013428889051 3.93602888742805  93.546399103871 4.68390821947742  94.465143472971 4.68390821947742  C 95.3838878420713 4.68390821947742  96.1289526913656 3.93602888742805  96.1289526913656 3.01320032671515  C 96.1289526913656 2.09037176600248  95.3838878420713 1.34200675296927  94.465143472971 1.34200675296927  C 93.546399103871 1.34200675296927  92.8013428889051 2.09037176600248  92.8013428889051 3.01320032671515  Z M 234.436019928517 21.9404311057687  C 234.436019928517 23.4885045501222  233.182177266419 24.747944724105  231.641018685799 24.747944724105  C 230.09954926935 24.747944724105  228.845499383365 23.4885045501222  228.845499383365 21.9404311057687  C 228.845499383365 20.3920801294245  230.09954926935 19.1324318064486  231.641018685799 19.1324318064486  C 233.182177266419 19.1324318064486  234.436019928517 20.3920801294245  234.436019928517 21.9404311057687  Z M 142.800926607318 14.7046170431686  C 142.800926607318 16.2529680195128  141.546876721333 17.5126163424886  140.005407304883 17.5126163424886  C 138.464214186949 17.5126163424886  137.210371524851 16.2529680195128  137.210371524851 14.7046170431686  C 137.210371524851 13.156543598815  138.464214186949 11.8971381163311  140.005407304883 11.8971381163311  C 141.546876721333 11.8971381163311  142.800926607318 13.156543598815  142.800926607318 14.7046170431686  Z M 5.6194606667209 11.9197569735765  C 5.6194606667209 13.4681079499207  4.36562232178676 14.7277562728966  2.82443352101677 14.7277562728966  C 1.28299864188193 14.7277562728966  0.0289487558970905 13.4681079499207  0.0289487558970905 11.9197569735765  C 0.0289487558970905 10.3714059972323  1.28299864188193 9.11175767425641  2.82443352101677 9.11175767425641  C 4.36562232178676 9.11175767425641  5.6194606667209 10.3714059972323  5.6194606667209 11.9197569735765  Z M 188.895756096605 11.3626808851615  C 188.895756096605 12.9110318615056  187.64170621062 14.1706801844815  186.10023679417 14.1706801844815  C 184.559078213551 14.1706801844815  183.305235551452 12.9110318615056  183.305235551452 11.3626808851615  C 183.305235551452 9.81432990881717  184.559078213551 8.55468158584142  186.10023679417 8.55468158584142  C 187.64170621062 8.55468158584142  188.895756096605 9.81432990881717  188.895756096605 11.3626808851615  Z M 279.982362327765 9.13437653150174  C 279.982362327765 10.682727507846  278.72831244178 11.9423758308218  277.186877562645 11.9423758308218  C 275.645408146195 11.9423758308218  274.391323722896 10.682727507846  274.391323722896 9.13437653150174  C 274.391323722896 7.58633777864713  275.645408146195 6.3268976046644  277.186877562645 6.3268976046644  C 278.72831244178 6.3268976046644  279.982362327765 7.58633777864713  279.982362327765 9.13437653150174  Z M 51.1602123381992 8.57782081556945  C 51.1602123381992 10.1258595684241  49.9061624522144 11.3852997424068  48.364693035765 11.3852997424068  C 46.8232149849871 11.3852997424068  45.5691650990022 10.1258595684241  45.5691650990022 8.57782081556945  C 45.5691650990022 7.02946983922527  46.8232149849871 5.76982151624941  48.364693035765 5.76982151624941  C 49.9061624522144 5.76982151624941  51.1602123381992 7.02946983922527  51.1602123381992 8.57782081556945  Z M 97.2606714097337 3.01320032671515  C 97.2606714097337 4.56123907956987  96.0066215237491 5.82067925355261  94.465143472971 5.82067925355261  C 92.9236740565216 5.82067925355261  91.669624170537 4.56123907956987  91.669624170537 3.01320032671515  C 91.669624170537 1.46488404186982  92.9236740565216 0.20523571889396  94.465143472971 0.20523571889396  C 96.0066215237491 0.20523571889396  97.2606714097337 1.46488404186982  97.2606714097337 3.01320032671515  Z " fill-rule="nonzero" fill="#ed87e9" stroke="none" transform="matrix(1 0 0 1 1405 612 )" />
  </g>
</svg>