<?xml version="1.0" encoding="utf-8"?>
<svg version="1.1" xmlns:xlink="http://www.w3.org/1999/xlink" width="55px" height="25px" xmlns="http://www.w3.org/2000/svg">
  <g transform="matrix(1 0 0 1 -310 -113 )">
    <path d="M 311 125.5  A 11.5 11.5 0 0 1 322.5 114 L 352.5 114  A 11.5 11.5 0 0 1 364 125.5 A 11.5 11.5 0 0 1 352.5 137 L 322.5 137  A 11.5 11.5 0 0 1 311 125.5 Z " fill-rule="nonzero" fill="#ffffff" stroke="none" fill-opacity="0" />
    <path d="M 310.5 125.5  A 12 12 0 0 1 322.5 113.5 L 352.5 113.5  A 12 12 0 0 1 364.5 125.5 A 12 12 0 0 1 352.5 137.5 L 322.5 137.5  A 12 12 0 0 1 310.5 125.5 Z " stroke-width="1" stroke="#ffffff" fill="none" stroke-opacity="0.2" />
  </g>
</svg>