<?xml version="1.0" encoding="utf-8"?>
<svg version="1.1" xmlns:xlink="http://www.w3.org/1999/xlink" width="278px" height="119px" xmlns="http://www.w3.org/2000/svg">
  <g transform="matrix(1 0 0 1 -87 -525 )">
    <path d="M 0.129934618178694 118.003999829067  L 0.0059399170975496 117.004042562284  L 39.3552583222939 112.042254604504  L 47.2259219691466 72.3439511132003  L 47.7149010726038 72.4439468398787  L 47.7149010726038 71  L 124.141634972864 71  L 124.141634972864 72  L 47.7169009871373 72  L 48.1988803897269 72.543942566557  L 40.2572197769326 112.596230930302  L 39.7712405452758 112.496235203624  L 39.8332378958164 112.996213837015  L 0.129934618178694 118.003999829067  Z M 124.146634759198 71.4419896585616  L 123.149677364215 71.4419896585616  L 130.097380453827 1.35098500064112  L 131.090338019743 1.35098500064112  L 131.441323020384 0.997000128199716  L 142 48.0869877355669  L 142 20.3781718729969  L 143 20.3781718729969  L 143 52.4997991538824  L 143.351814025042 54.0677321481988  L 142.999829067134 54.422716977907  L 142.653843852827 54.7717020640144  L 142.575847186018 54.422716977907  L 142.013871202085 54.422716977907  L 142.013871202085 51.9228238109483  L 130.962343489594 2.68092816546312  L 124.146634759198 71.4419896585616  Z M 183 69.4460749540618  L 182 69.4420751249947  L 182 20.3781718729969  L 183 20.3781718729969  L 183 69.4460749540618  Z M 277.994060082902 69  L 183.698089825221 69  L 183.698089825221 68  L 277.994060082902 68  L 277.994060082902 69  Z M 183.698089825221 21  L 142.999829067134 21  L 142.999829067134 20  L 183.698089825221 20  L 183.698089825221 21  Z " fill-rule="nonzero" fill="#ffffff" stroke="none" transform="matrix(1 0 0 1 87 525 )" />
  </g>
</svg>