<?xml version="1.0" encoding="utf-8"?>
<svg version="1.1" xmlns:xlink="http://www.w3.org/1999/xlink" width="21px" height="6px" xmlns="http://www.w3.org/2000/svg">
  <defs>
    <mask fill="white" id="clip1705">
      <path d="M 4.28771929824561 5.04444444444444  C 4.28771929824561 5.04444444444444  0.283040935672517 0.0385964912280699  0.283040935672517 0.0385964912280699  C 0.283040935672517 0.0385964912280699  16.3017543859649 0.0385964912280699  16.3017543859649 0.0385964912280699  C 16.3017543859649 0.0385964912280699  20.306432748538 5.04444444444444  20.306432748538 5.04444444444444  C 20.306432748538 5.04444444444444  4.28771929824561 5.04444444444444  4.28771929824561 5.04444444444444  Z " fill-rule="evenodd" />
    </mask>
  </defs>
  <g transform="matrix(1 0 0 1 -255 -158 )">
    <path d="M 4.28771929824561 5.04444444444444  C 4.28771929824561 5.04444444444444  0.283040935672517 0.0385964912280699  0.283040935672517 0.0385964912280699  C 0.283040935672517 0.0385964912280699  16.3017543859649 0.0385964912280699  16.3017543859649 0.0385964912280699  C 16.3017543859649 0.0385964912280699  20.306432748538 5.04444444444444  20.306432748538 5.04444444444444  C 20.306432748538 5.04444444444444  4.28771929824561 5.04444444444444  4.28771929824561 5.04444444444444  Z " fill-rule="nonzero" fill="#133065" stroke="none" transform="matrix(1 0 0 1 255 158 )" />
    <path d="M 4.28771929824561 5.04444444444444  C 4.28771929824561 5.04444444444444  0.283040935672517 0.0385964912280699  0.283040935672517 0.0385964912280699  C 0.283040935672517 0.0385964912280699  16.3017543859649 0.0385964912280699  16.3017543859649 0.0385964912280699  C 16.3017543859649 0.0385964912280699  20.306432748538 5.04444444444444  20.306432748538 5.04444444444444  C 20.306432748538 5.04444444444444  4.28771929824561 5.04444444444444  4.28771929824561 5.04444444444444  Z " stroke-width="2.00233918128655" stroke="#135276" fill="none" transform="matrix(1 0 0 1 255 158 )" mask="url(#clip1705)" />
  </g>
</svg>