<?xml version="1.0" encoding="utf-8"?>
<svg version="1.1" xmlns:xlink="http://www.w3.org/1999/xlink" width="21px" height="6px" xmlns="http://www.w3.org/2000/svg">
  <defs>
    <mask fill="white" id="clip1704">
      <path d="M 4.30760233918127 5.04444444444444  C 4.30760233918127 5.04444444444444  0.302923976608184 0.0385964912280699  0.302923976608184 0.0385964912280699  C 0.302923976608184 0.0385964912280699  16.3216374269006 0.0385964912280699  16.3216374269006 0.0385964912280699  C 16.3216374269006 0.0385964912280699  20.3263157894737 5.04444444444444  20.3263157894737 5.04444444444444  C 20.3263157894737 5.04444444444444  4.30760233918127 5.04444444444444  4.30760233918127 5.04444444444444  Z " fill-rule="evenodd" />
    </mask>
  </defs>
  <g transform="matrix(1 0 0 1 -272 -158 )">
    <path d="M 4.30760233918127 5.04444444444444  C 4.30760233918127 5.04444444444444  0.302923976608184 0.0385964912280699  0.302923976608184 0.0385964912280699  C 0.302923976608184 0.0385964912280699  16.3216374269006 0.0385964912280699  16.3216374269006 0.0385964912280699  C 16.3216374269006 0.0385964912280699  20.3263157894737 5.04444444444444  20.3263157894737 5.04444444444444  C 20.3263157894737 5.04444444444444  4.30760233918127 5.04444444444444  4.30760233918127 5.04444444444444  Z " fill-rule="nonzero" fill="#133065" stroke="none" transform="matrix(1 0 0 1 272 158 )" />
    <path d="M 4.30760233918127 5.04444444444444  C 4.30760233918127 5.04444444444444  0.302923976608184 0.0385964912280699  0.302923976608184 0.0385964912280699  C 0.302923976608184 0.0385964912280699  16.3216374269006 0.0385964912280699  16.3216374269006 0.0385964912280699  C 16.3216374269006 0.0385964912280699  20.3263157894737 5.04444444444444  20.3263157894737 5.04444444444444  C 20.3263157894737 5.04444444444444  4.30760233918127 5.04444444444444  4.30760233918127 5.04444444444444  Z " stroke-width="2.00233918128655" stroke="#135276" fill="none" transform="matrix(1 0 0 1 272 158 )" mask="url(#clip1704)" />
  </g>
</svg>