<?xml version="1.0" encoding="utf-8"?>
<svg version="1.1" xmlns:xlink="http://www.w3.org/1999/xlink" width="372px" height="428px" xmlns="http://www.w3.org/2000/svg">
  <defs>
    <mask fill="white" id="clip1708">
      <path d="M 371.466666666667 417.487719298246  C 371.466666666667 423.017178947369  366.984430409357 427.499415204678  361.454970760234 427.499415204678  C 361.454970760234 427.499415204678  10.0444444444444 427.499415204678  10.0444444444444 427.499415204678  C 4.51498479532161 427.499415204678  0.0327485380116651 423.017178947369  0.0327485380116651 417.487719298246  C 0.0327485380116651 417.487719298246  0.0327485380116651 46.0538011695906  0.0327485380116651 46.0538011695906  C 0.0327485380116651 46.0538011695906  0.0327485380116651 40.046783625731  0.0327485380116651 40.046783625731  C 0.0327485380116651 40.046783625731  0.0327485380116651 10.0116959064327  0.0327485380116651 10.0116959064327  C 0.0327485380116651 4.48223625730994  4.51498479532161 0  10.0444444444444 0  C 10.0444444444444 0  140.19649122807 0  140.19649122807 0  C 146.895316959064 0.877024561403509  149.826741520468 4.18989473684211  154.212865497076 10.0116959064327  C 154.212865497076 10.0116959064327  179.242105263158 40.046783625731  179.242105263158 40.046783625731  C 179.242105263158 40.046783625731  361.454970760234 40.046783625731  361.454970760234 40.046783625731  C 366.984430409357 40.046783625731  371.466666666667 44.5290198830409  371.466666666667 50.0584795321637  C 371.466666666667 50.0584795321637  371.466666666667 417.487719298246  371.466666666667 417.487719298246  Z " fill-rule="evenodd" />
    </mask>
  </defs>
  <g transform="matrix(1 0 0 1 -41 -125 )">
    <path d="M 371.466666666667 417.487719298246  C 371.466666666667 423.017178947369  366.984430409357 427.499415204678  361.454970760234 427.499415204678  C 361.454970760234 427.499415204678  10.0444444444444 427.499415204678  10.0444444444444 427.499415204678  C 4.51498479532161 427.499415204678  0.0327485380116651 423.017178947369  0.0327485380116651 417.487719298246  C 0.0327485380116651 417.487719298246  0.0327485380116651 46.0538011695906  0.0327485380116651 46.0538011695906  C 0.0327485380116651 46.0538011695906  0.0327485380116651 40.046783625731  0.0327485380116651 40.046783625731  C 0.0327485380116651 40.046783625731  0.0327485380116651 10.0116959064327  0.0327485380116651 10.0116959064327  C 0.0327485380116651 4.48223625730994  4.51498479532161 0  10.0444444444444 0  C 10.0444444444444 0  140.19649122807 0  140.19649122807 0  C 146.895316959064 0.877024561403509  149.826741520468 4.18989473684211  154.212865497076 10.0116959064327  C 154.212865497076 10.0116959064327  179.242105263158 40.046783625731  179.242105263158 40.046783625731  C 179.242105263158 40.046783625731  361.454970760234 40.046783625731  361.454970760234 40.046783625731  C 366.984430409357 40.046783625731  371.466666666667 44.5290198830409  371.466666666667 50.0584795321637  C 371.466666666667 50.0584795321637  371.466666666667 417.487719298246  371.466666666667 417.487719298246  Z " fill-rule="nonzero" fill="#0f031e" stroke="none" fill-opacity="0.2" transform="matrix(1 0 0 1 41 125 )" />
    <path d="M 371.466666666667 417.487719298246  C 371.466666666667 423.017178947369  366.984430409357 427.499415204678  361.454970760234 427.499415204678  C 361.454970760234 427.499415204678  10.0444444444444 427.499415204678  10.0444444444444 427.499415204678  C 4.51498479532161 427.499415204678  0.0327485380116651 423.017178947369  0.0327485380116651 417.487719298246  C 0.0327485380116651 417.487719298246  0.0327485380116651 46.0538011695906  0.0327485380116651 46.0538011695906  C 0.0327485380116651 46.0538011695906  0.0327485380116651 40.046783625731  0.0327485380116651 40.046783625731  C 0.0327485380116651 40.046783625731  0.0327485380116651 10.0116959064327  0.0327485380116651 10.0116959064327  C 0.0327485380116651 4.48223625730994  4.51498479532161 0  10.0444444444444 0  C 10.0444444444444 0  140.19649122807 0  140.19649122807 0  C 146.895316959064 0.877024561403509  149.826741520468 4.18989473684211  154.212865497076 10.0116959064327  C 154.212865497076 10.0116959064327  179.242105263158 40.046783625731  179.242105263158 40.046783625731  C 179.242105263158 40.046783625731  361.454970760234 40.046783625731  361.454970760234 40.046783625731  C 366.984430409357 40.046783625731  371.466666666667 44.5290198830409  371.466666666667 50.0584795321637  C 371.466666666667 50.0584795321637  371.466666666667 417.487719298246  371.466666666667 417.487719298246  Z " stroke-width="2.00233918128655" stroke="#135074" fill="none" transform="matrix(1 0 0 1 41 125 )" mask="url(#clip1708)" />
  </g>
</svg>