<?xml version="1.0" encoding="utf-8"?>
<svg version="1.1" xmlns:xlink="http://www.w3.org/1999/xlink" width="21px" height="6px" xmlns="http://www.w3.org/2000/svg">
  <defs>
    <mask fill="white" id="clip1707">
      <path d="M 4.24795321637427 5.04444444444444  C 4.24795321637427 5.04444444444444  0.243274853801154 0.0385964912280699  0.243274853801154 0.0385964912280699  C 0.243274853801154 0.0385964912280699  16.2619883040936 0.0385964912280699  16.2619883040936 0.0385964912280699  C 16.2619883040936 0.0385964912280699  20.2666666666667 5.04444444444444  20.2666666666667 5.04444444444444  C 20.2666666666667 5.04444444444444  4.24795321637427 5.04444444444444  4.24795321637427 5.04444444444444  Z " fill-rule="evenodd" />
    </mask>
  </defs>
  <g transform="matrix(1 0 0 1 -221 -158 )">
    <path d="M 4.24795321637427 5.04444444444444  C 4.24795321637427 5.04444444444444  0.243274853801154 0.0385964912280699  0.243274853801154 0.0385964912280699  C 0.243274853801154 0.0385964912280699  16.2619883040936 0.0385964912280699  16.2619883040936 0.0385964912280699  C 16.2619883040936 0.0385964912280699  20.2666666666667 5.04444444444444  20.2666666666667 5.04444444444444  C 20.2666666666667 5.04444444444444  4.24795321637427 5.04444444444444  4.24795321637427 5.04444444444444  Z " fill-rule="nonzero" fill="#fff100" stroke="none" fill-opacity="0.2" transform="matrix(1 0 0 1 221 158 )" />
    <path d="M 4.24795321637427 5.04444444444444  C 4.24795321637427 5.04444444444444  0.243274853801154 0.0385964912280699  0.243274853801154 0.0385964912280699  C 0.243274853801154 0.0385964912280699  16.2619883040936 0.0385964912280699  16.2619883040936 0.0385964912280699  C 16.2619883040936 0.0385964912280699  20.2666666666667 5.04444444444444  20.2666666666667 5.04444444444444  C 20.2666666666667 5.04444444444444  4.24795321637427 5.04444444444444  4.24795321637427 5.04444444444444  Z " stroke-width="2.00233918128655" stroke="#8a8417" fill="none" transform="matrix(1 0 0 1 221 158 )" mask="url(#clip1707)" />
  </g>
</svg>