<?xml version="1.0" encoding="utf-8"?>
<svg version="1.1" xmlns:xlink="http://www.w3.org/1999/xlink" width="372px" height="888px" xmlns="http://www.w3.org/2000/svg">
  <defs>
    <mask fill="white" id="clip1709">
      <path d="M 371.354366197183 877.494084507042  C 371.354366197183 883.020196056338  366.874843943662 887.499718309859  361.348732394366 887.499718309859  C 361.348732394366 887.499718309859  10.1509859154929 887.499718309859  10.1509859154929 887.499718309859  C 4.62487436619715 887.499718309859  0.145352112676024 883.020196056338  0.145352112676024 877.494084507042  C 0.145352112676024 877.494084507042  0.145352112676024 46.0259154929578  0.145352112676024 46.0259154929578  C 0.145352112676024 46.0259154929578  0.145352112676024 40.0225352112676  0.145352112676024 40.0225352112676  C 0.145352112676024 40.0225352112676  0.145352112676024 10.0056338028169  0.145352112676024 10.0056338028169  C 0.145352112676024 4.47952225352113  4.62487436619715 0  10.1509859154929 0  C 10.1509859154929 0  140.224225352113 0  140.224225352113 0  C 146.918994929577 0.87649352112676  149.848644507042 4.18735774647887  154.232112676056 10.0056338028169  C 154.232112676056 10.0056338028169  179.246197183099 40.0225352112676  179.246197183099 40.0225352112676  C 179.246197183099 40.0225352112676  361.348732394366 40.0225352112676  361.348732394366 40.0225352112676  C 366.874843943662 40.0225352112676  371.354366197183 44.5020574647887  371.354366197183 50.0281690140845  C 371.354366197183 50.0281690140845  371.354366197183 877.494084507042  371.354366197183 877.494084507042  Z " fill-rule="evenodd" />
    </mask>
  </defs>
  <g transform="matrix(1 0 0 1 -1508 -125 )">
    <path d="M 371.354366197183 877.494084507042  C 371.354366197183 883.020196056338  366.874843943662 887.499718309859  361.348732394366 887.499718309859  C 361.348732394366 887.499718309859  10.1509859154929 887.499718309859  10.1509859154929 887.499718309859  C 4.62487436619715 887.499718309859  0.145352112676024 883.020196056338  0.145352112676024 877.494084507042  C 0.145352112676024 877.494084507042  0.145352112676024 46.0259154929578  0.145352112676024 46.0259154929578  C 0.145352112676024 46.0259154929578  0.145352112676024 40.0225352112676  0.145352112676024 40.0225352112676  C 0.145352112676024 40.0225352112676  0.145352112676024 10.0056338028169  0.145352112676024 10.0056338028169  C 0.145352112676024 4.47952225352113  4.62487436619715 0  10.1509859154929 0  C 10.1509859154929 0  140.224225352113 0  140.224225352113 0  C 146.918994929577 0.87649352112676  149.848644507042 4.18735774647887  154.232112676056 10.0056338028169  C 154.232112676056 10.0056338028169  179.246197183099 40.0225352112676  179.246197183099 40.0225352112676  C 179.246197183099 40.0225352112676  361.348732394366 40.0225352112676  361.348732394366 40.0225352112676  C 366.874843943662 40.0225352112676  371.354366197183 44.5020574647887  371.354366197183 50.0281690140845  C 371.354366197183 50.0281690140845  371.354366197183 877.494084507042  371.354366197183 877.494084507042  Z " fill-rule="nonzero" fill="#0f031e" stroke="none" fill-opacity="0.2" transform="matrix(1 0 0 1 1508 125 )" />
    <path d="M 371.354366197183 877.494084507042  C 371.354366197183 883.020196056338  366.874843943662 887.499718309859  361.348732394366 887.499718309859  C 361.348732394366 887.499718309859  10.1509859154929 887.499718309859  10.1509859154929 887.499718309859  C 4.62487436619715 887.499718309859  0.145352112676024 883.020196056338  0.145352112676024 877.494084507042  C 0.145352112676024 877.494084507042  0.145352112676024 46.0259154929578  0.145352112676024 46.0259154929578  C 0.145352112676024 46.0259154929578  0.145352112676024 40.0225352112676  0.145352112676024 40.0225352112676  C 0.145352112676024 40.0225352112676  0.145352112676024 10.0056338028169  0.145352112676024 10.0056338028169  C 0.145352112676024 4.47952225352113  4.62487436619715 0  10.1509859154929 0  C 10.1509859154929 0  140.224225352113 0  140.224225352113 0  C 146.918994929577 0.87649352112676  149.848644507042 4.18735774647887  154.232112676056 10.0056338028169  C 154.232112676056 10.0056338028169  179.246197183099 40.0225352112676  179.246197183099 40.0225352112676  C 179.246197183099 40.0225352112676  361.348732394366 40.0225352112676  361.348732394366 40.0225352112676  C 366.874843943662 40.0225352112676  371.354366197183 44.5020574647887  371.354366197183 50.0281690140845  C 371.354366197183 50.0281690140845  371.354366197183 877.494084507042  371.354366197183 877.494084507042  Z " stroke-width="2.00112676056338" stroke="#135074" fill="none" transform="matrix(1 0 0 1 1508 125 )" mask="url(#clip1709)" />
  </g>
</svg>