<?xml version="1.0" encoding="utf-8"?>
<svg version="1.1" xmlns:xlink="http://www.w3.org/1999/xlink" width="78px" height="78px" xmlns="http://www.w3.org/2000/svg">
  <defs>
    <mask fill="white" id="clip1714">
      <path d="M 0.552000000000021 39.695  C 0.552000000000021 19.045  19.285 0.304000000000002  39.927 0.304000000000002  C 60.569 0.304000000000002  77.302 19.045  77.302 39.695  C 77.302 60.345  60.569 77.086  39.927 77.086  C 19.285 77.086  0.552000000000021 60.345  0.552000000000021 39.695  Z " fill-rule="evenodd" />
    </mask>
  </defs>
  <g transform="matrix(1 0 0 1 -1100 -560 )">
    <path d="M 0.552000000000021 39.695  C 0.552000000000021 19.045  19.285 0.304000000000002  39.927 0.304000000000002  C 60.569 0.304000000000002  77.302 19.045  77.302 39.695  C 77.302 60.345  60.569 77.086  39.927 77.086  C 19.285 77.086  0.552000000000021 60.345  0.552000000000021 39.695  Z " fill-rule="nonzero" fill="#00ffff" stroke="none" fill-opacity="0.0745098039215686" transform="matrix(1 0 0 1 1100 560 )" />
    <path d="M 0.552000000000021 39.695  C 0.552000000000021 19.045  19.285 0.304000000000002  39.927 0.304000000000002  C 60.569 0.304000000000002  77.302 19.045  77.302 39.695  C 77.302 60.345  60.569 77.086  39.927 77.086  C 19.285 77.086  0.552000000000021 60.345  0.552000000000021 39.695  Z " stroke-width="4" stroke="#00ffff" fill="none" transform="matrix(1 0 0 1 1100 560 )" mask="url(#clip1714)" />
  </g>
</svg>