<?xml version="1.0" encoding="utf-8"?>
<svg version="1.1" xmlns:xlink="http://www.w3.org/1999/xlink" width="67px" height="67px" xmlns="http://www.w3.org/2000/svg">
  <defs>
    <mask fill="white" id="clip1717">
      <path d="M 0.576000000000022 34.513  C 0.576000000000022 16.771  16.952 0.387999999999977  34.687 0.387999999999977  C 52.421 0.387999999999977  66.798 16.771  66.798 34.513  C 66.798 52.255  52.421 66.637  34.687 66.637  C 16.952 66.637  0.576000000000022 52.255  0.576000000000022 34.513  Z " fill-rule="evenodd" />
    </mask>
  </defs>
  <g transform="matrix(1 0 0 1 -941 -700 )">
    <path d="M 0.576000000000022 34.513  C 0.576000000000022 16.771  16.952 0.387999999999977  34.687 0.387999999999977  C 52.421 0.387999999999977  66.798 16.771  66.798 34.513  C 66.798 52.255  52.421 66.637  34.687 66.637  C 16.952 66.637  0.576000000000022 52.255  0.576000000000022 34.513  Z " fill-rule="nonzero" fill="#00ffff" stroke="none" fill-opacity="0.0745098039215686" transform="matrix(1 0 0 1 941 700 )" />
    <path d="M 0.576000000000022 34.513  C 0.576000000000022 16.771  16.952 0.387999999999977  34.687 0.387999999999977  C 52.421 0.387999999999977  66.798 16.771  66.798 34.513  C 66.798 52.255  52.421 66.637  34.687 66.637  C 16.952 66.637  0.576000000000022 52.255  0.576000000000022 34.513  Z " stroke-width="4" stroke="#00ffff" fill="none" transform="matrix(1 0 0 1 941 700 )" mask="url(#clip1717)" />
  </g>
</svg>