<?xml version="1.0" encoding="utf-8"?>
<svg version="1.1" xmlns:xlink="http://www.w3.org/1999/xlink" width="78px" height="78px" xmlns="http://www.w3.org/2000/svg">
  <defs>
    <mask fill="white" id="clip1716">
      <path d="M 0.718999999999994 39.772  C 0.718999999999994 19.122  19.453 0.380999999999972  40.095 0.380999999999972  C 60.736 0.380999999999972  77.47 19.122  77.47 39.772  C 77.47 60.423  60.736 77.163  40.095 77.163  C 19.453 77.163  0.718999999999994 60.423  0.718999999999994 39.772  Z " fill-rule="evenodd" />
    </mask>
  </defs>
  <g transform="matrix(1 0 0 1 -864 -601 )">
    <path d="M 0.718999999999994 39.772  C 0.718999999999994 19.122  19.453 0.380999999999972  40.095 0.380999999999972  C 60.736 0.380999999999972  77.47 19.122  77.47 39.772  C 77.47 60.423  60.736 77.163  40.095 77.163  C 19.453 77.163  0.718999999999994 60.423  0.718999999999994 39.772  Z " fill-rule="nonzero" fill="#00ffff" stroke="none" fill-opacity="0.0745098039215686" transform="matrix(1 0 0 1 864 601 )" />
    <path d="M 0.718999999999994 39.772  C 0.718999999999994 19.122  19.453 0.380999999999972  40.095 0.380999999999972  C 60.736 0.380999999999972  77.47 19.122  77.47 39.772  C 77.47 60.423  60.736 77.163  40.095 77.163  C 19.453 77.163  0.718999999999994 60.423  0.718999999999994 39.772  Z " stroke-width="4" stroke="#00ffff" fill="none" transform="matrix(1 0 0 1 864 601 )" mask="url(#clip1716)" />
  </g>
</svg>