<?xml version="1.0" encoding="utf-8"?>
<svg version="1.1" xmlns:xlink="http://www.w3.org/1999/xlink" width="67px" height="68px" xmlns="http://www.w3.org/2000/svg">
  <defs>
    <mask fill="white" id="clip1718">
      <path d="M 0.764999999999986 34.963  C 0.764999999999986 17.221  17.142 0.838000000000022  34.876 0.838000000000022  C 52.611 0.838000000000022  66.987 17.221  66.987 34.963  C 66.987 52.705  52.611 67.088  34.876 67.088  C 17.142 67.088  0.764999999999986 52.705  0.764999999999986 34.963  Z " fill-rule="evenodd" />
    </mask>
  </defs>
  <g transform="matrix(1 0 0 1 -825 -748 )">
    <path d="M 0.764999999999986 34.963  C 0.764999999999986 17.221  17.142 0.838000000000022  34.876 0.838000000000022  C 52.611 0.838000000000022  66.987 17.221  66.987 34.963  C 66.987 52.705  52.611 67.088  34.876 67.088  C 17.142 67.088  0.764999999999986 52.705  0.764999999999986 34.963  Z " fill-rule="nonzero" fill="#00ffff" stroke="none" fill-opacity="0.0745098039215686" transform="matrix(1 0 0 1 825 748 )" />
    <path d="M 0.764999999999986 34.963  C 0.764999999999986 17.221  17.142 0.838000000000022  34.876 0.838000000000022  C 52.611 0.838000000000022  66.987 17.221  66.987 34.963  C 66.987 52.705  52.611 67.088  34.876 67.088  C 17.142 67.088  0.764999999999986 52.705  0.764999999999986 34.963  Z " stroke-width="4" stroke="#00ffff" fill="none" transform="matrix(1 0 0 1 825 748 )" mask="url(#clip1718)" />
  </g>
</svg>