<?xml version="1.0" encoding="utf-8"?>
<svg version="1.1" xmlns:xlink="http://www.w3.org/1999/xlink" width="46px" height="46px" xmlns="http://www.w3.org/2000/svg">
  <defs>
    <mask fill="white" id="clip1722">
      <path d="M 0.363999999999976 24.408  C 0.363999999999976 12.4829999999999  12.027 0.816000000000031  23.947 0.816000000000031  C 35.867 0.816000000000031  45.53 12.4829999999999  45.53 24.408  C 45.53 36.333  35.867 46  23.947 46  C 12.027 46  0.363999999999976 36.333  0.363999999999976 24.408  Z " fill-rule="evenodd" />
    </mask>
  </defs>
  <g transform="matrix(1 0 0 1 -937 -886 )">
    <path d="M 0.363999999999976 24.408  C 0.363999999999976 12.4829999999999  12.027 0.816000000000031  23.947 0.816000000000031  C 35.867 0.816000000000031  45.53 12.4829999999999  45.53 24.408  C 45.53 36.333  35.867 46  23.947 46  C 12.027 46  0.363999999999976 36.333  0.363999999999976 24.408  Z " fill-rule="nonzero" fill="#00ffff" stroke="none" fill-opacity="0.0745098039215686" transform="matrix(1 0 0 1 937 886 )" />
    <path d="M 0.363999999999976 24.408  C 0.363999999999976 12.4829999999999  12.027 0.816000000000031  23.947 0.816000000000031  C 35.867 0.816000000000031  45.53 12.4829999999999  45.53 24.408  C 45.53 36.333  35.867 46  23.947 46  C 12.027 46  0.363999999999976 36.333  0.363999999999976 24.408  Z " stroke-width="4" stroke="#00ffff" fill="none" transform="matrix(1 0 0 1 937 886 )" mask="url(#clip1722)" />
  </g>
</svg>