<?xml version="1.0" encoding="utf-8"?>
<svg version="1.1" xmlns:xlink="http://www.w3.org/1999/xlink" width="71px" height="70px" xmlns="http://www.w3.org/2000/svg">
  <defs>
    <mask fill="white" id="clip1719">
      <path d="M 0.812000000000012 34.175  C 0.812000000000012 15.561  17.896 0.471000000000004  36.503 0.471000000000004  C 55.109 0.471000000000004  70.193 15.561  70.193 34.175  C 70.193 52.79  55.109 69.88  36.503 69.88  C 17.896 69.88  0.812000000000012 52.79  0.812000000000012 34.175  Z " fill-rule="evenodd" />
    </mask>
  </defs>
  <g transform="matrix(1 0 0 1 -1085 -662 )">
    <path d="M 0.812000000000012 34.175  C 0.812000000000012 15.561  17.896 0.471000000000004  36.503 0.471000000000004  C 55.109 0.471000000000004  70.193 15.561  70.193 34.175  C 70.193 52.79  55.109 69.88  36.503 69.88  C 17.896 69.88  0.812000000000012 52.79  0.812000000000012 34.175  Z " fill-rule="nonzero" fill="#00ffff" stroke="none" fill-opacity="0.0745098039215686" transform="matrix(1 0 0 1 1085 662 )" />
    <path d="M 0.812000000000012 34.175  C 0.812000000000012 15.561  17.896 0.471000000000004  36.503 0.471000000000004  C 55.109 0.471000000000004  70.193 15.561  70.193 34.175  C 70.193 52.79  55.109 69.88  36.503 69.88  C 17.896 69.88  0.812000000000012 52.79  0.812000000000012 34.175  Z " stroke-width="4" stroke="#00ffff" fill="none" transform="matrix(1 0 0 1 1085 662 )" mask="url(#clip1719)" />
  </g>
</svg>