<?xml version="1.0" encoding="utf-8"?>
<svg version="1.1" xmlns:xlink="http://www.w3.org/1999/xlink" width="54px" height="55px" xmlns="http://www.w3.org/2000/svg">
  <defs>
    <mask fill="white" id="clip1720">
      <path d="M 0.194999999999993 28.597  C 0.194999999999993 14.345  13.743 0.79200000000003  27.989 0.79200000000003  C 42.235 0.79200000000003  53.783 14.345  53.783 28.597  C 53.783 42.849  42.235 54.402  27.989 54.402  C 13.743 54.402  0.194999999999993 42.849  0.194999999999993 28.597  Z " fill-rule="evenodd" />
    </mask>
  </defs>
  <g transform="matrix(1 0 0 1 -874 -846 )">
    <path d="M 0.194999999999993 28.597  C 0.194999999999993 14.345  13.743 0.79200000000003  27.989 0.79200000000003  C 42.235 0.79200000000003  53.783 14.345  53.783 28.597  C 53.783 42.849  42.235 54.402  27.989 54.402  C 13.743 54.402  0.194999999999993 42.849  0.194999999999993 28.597  Z " fill-rule="nonzero" fill="#00ffff" stroke="none" fill-opacity="0.0745098039215686" transform="matrix(1 0 0 1 874 846 )" />
    <path d="M 0.194999999999993 28.597  C 0.194999999999993 14.345  13.743 0.79200000000003  27.989 0.79200000000003  C 42.235 0.79200000000003  53.783 14.345  53.783 28.597  C 53.783 42.849  42.235 54.402  27.989 54.402  C 13.743 54.402  0.194999999999993 42.849  0.194999999999993 28.597  Z " stroke-width="4" stroke="#00ffff" fill="none" transform="matrix(1 0 0 1 874 846 )" mask="url(#clip1720)" />
  </g>
</svg>