<?xml version="1.0" encoding="utf-8"?>
<svg version="1.1" xmlns:xlink="http://www.w3.org/1999/xlink" width="69px" height="70px" xmlns="http://www.w3.org/2000/svg">
  <defs>
    <mask fill="white" id="clip1721">
      <path d="M 0.109000000000002 35.903  C 0.109000000000002 17.579  16.957 0.725000000000023  35.273 0.725000000000023  C 53.589 0.725000000000023  68.437 17.579  68.437 35.903  C 68.437 54.227  53.589 69.081  35.273 69.081  C 16.957 69.081  0.109000000000002 54.227  0.109000000000002 35.903  Z " fill-rule="evenodd" />
    </mask>
  </defs>
  <g transform="matrix(1 0 0 1 -693 -647 )">
    <path d="M 0.109000000000002 35.903  C 0.109000000000002 17.579  16.957 0.725000000000023  35.273 0.725000000000023  C 53.589 0.725000000000023  68.437 17.579  68.437 35.903  C 68.437 54.227  53.589 69.081  35.273 69.081  C 16.957 69.081  0.109000000000002 54.227  0.109000000000002 35.903  Z " fill-rule="nonzero" fill="#00ffff" stroke="none" fill-opacity="0.0745098039215686" transform="matrix(1 0 0 1 693 647 )" />
    <path d="M 0.109000000000002 35.903  C 0.109000000000002 17.579  16.957 0.725000000000023  35.273 0.725000000000023  C 53.589 0.725000000000023  68.437 17.579  68.437 35.903  C 68.437 54.227  53.589 69.081  35.273 69.081  C 16.957 69.081  0.109000000000002 54.227  0.109000000000002 35.903  Z " stroke-width="4" stroke="#00ffff" fill="none" transform="matrix(1 0 0 1 693 647 )" mask="url(#clip1721)" />
  </g>
</svg>