<?xml version="1.0" encoding="utf-8"?>
<svg version="1.1" xmlns:xlink="http://www.w3.org/1999/xlink" width="61px" height="61px" xmlns="http://www.w3.org/2000/svg">
  <defs>
    <mask fill="white" id="clip1724">
      <path d="M 0.372000000000014 31.159  C 0.372000000000014 15.162  13.334 0.194000000000017  29.324 0.194000000000017  C 45.314 0.194000000000017  60.277 15.162  60.277 31.159  C 60.277 47.1559999999999  45.314 60.124  29.324 60.124  C 13.334 60.124  0.372000000000014 47.1559999999999  0.372000000000014 31.159  Z " fill-rule="evenodd" />
    </mask>
  </defs>
  <g transform="matrix(1 0 0 1 -977 -815 )">
    <path d="M 0.372000000000014 31.159  C 0.372000000000014 15.162  13.334 0.194000000000017  29.324 0.194000000000017  C 45.314 0.194000000000017  60.277 15.162  60.277 31.159  C 60.277 47.1559999999999  45.314 60.124  29.324 60.124  C 13.334 60.124  0.372000000000014 47.1559999999999  0.372000000000014 31.159  Z " fill-rule="nonzero" fill="#00ffff" stroke="none" fill-opacity="0.0745098039215686" transform="matrix(1 0 0 1 977 815 )" />
    <path d="M 0.372000000000014 31.159  C 0.372000000000014 15.162  13.334 0.194000000000017  29.324 0.194000000000017  C 45.314 0.194000000000017  60.277 15.162  60.277 31.159  C 60.277 47.1559999999999  45.314 60.124  29.324 60.124  C 13.334 60.124  0.372000000000014 47.1559999999999  0.372000000000014 31.159  Z " stroke-width="4" stroke="#00ffff" fill="none" transform="matrix(1 0 0 1 977 815 )" mask="url(#clip1724)" />
  </g>
</svg>