<?xml version="1.0" encoding="utf-8"?>
<svg version="1.1" xmlns:xlink="http://www.w3.org/1999/xlink" width="102px" height="102px" xmlns="http://www.w3.org/2000/svg">
  <defs>
    <mask fill="white" id="clip1723">
      <path d="M 0.591999999999999 51.89  C 0.591999999999999 24.55  24.746 0.387  52.075 0.387  C 79.403 0.387  101.557 24.55  101.557 51.89  C 101.557 79.23  79.403 101.393  52.075 101.393  C 24.746 101.393  0.591999999999999 79.23  0.591999999999999 51.89  Z " fill-rule="evenodd" />
    </mask>
  </defs>
  <g transform="matrix(1 0 0 1 -742 -522 )">
    <path d="M 0.591999999999999 51.89  C 0.591999999999999 24.55  24.746 0.387  52.075 0.387  C 79.403 0.387  101.557 24.55  101.557 51.89  C 101.557 79.23  79.403 101.393  52.075 101.393  C 24.746 101.393  0.591999999999999 79.23  0.591999999999999 51.89  Z " fill-rule="nonzero" fill="#00ffff" stroke="none" fill-opacity="0.0745098039215686" transform="matrix(1 0 0 1 742 522 )" />
    <path d="M 0.591999999999999 51.89  C 0.591999999999999 24.55  24.746 0.387  52.075 0.387  C 79.403 0.387  101.557 24.55  101.557 51.89  C 101.557 79.23  79.403 101.393  52.075 101.393  C 24.746 101.393  0.591999999999999 79.23  0.591999999999999 51.89  Z " stroke-width="4" stroke="#00ffff" fill="none" transform="matrix(1 0 0 1 742 522 )" mask="url(#clip1723)" />
  </g>
</svg>