<?xml version="1.0" encoding="utf-8"?>
<svg version="1.1" xmlns:xlink="http://www.w3.org/1999/xlink" width="19px" height="13px" xmlns="http://www.w3.org/2000/svg">
  <g transform="matrix(1 0 0 1 -1565 -271 )">
    <path d="M 18.894 3.571  C 18.894 8.584  14.845 12.648  9.851 12.648  C 4.857 12.648  0.809000000000001 8.584  0.809000000000001 3.571  C 0.809000000000001 2.807  0.920999999999999 2.072  1.099 1.364  C 2.109 1.664  3.175 1.832  4.281 1.832  C 6.024 1.832  7.669 1.42  9.143 0.704999999999998  C 11.144 2.548  13.8 3.673  16.719 3.673  C 17.462 3.673  18.186 3.596  18.888 3.457  C 18.889 3.496  18.894 3.533  18.894 3.571  Z " fill-rule="nonzero" fill="#c56708" stroke="none" transform="matrix(1 0 0 1 1565 271 )" />
  </g>
</svg>