<?xml version="1.0" encoding="utf-8"?>
<svg version="1.1" xmlns:xlink="http://www.w3.org/1999/xlink" width="31px" height="35px" xmlns="http://www.w3.org/2000/svg">
  <g transform="matrix(1 0 0 1 -1560 -250 )">
    <path d="M 25.417 24.41  C 25.417 30.259  20.586 35  14.628 35  C 8.67 35  3.84 30.259  3.84 24.41  C 3.84 18.562  14.628 1.362  14.628 1.362  C 14.628 1.362  25.417 18.562  25.417 24.41  Z M 7.828 6.828  C 7.438 7.219  6.805 7.219  6.414 6.828  L 2.172 2.586  C 1.781 2.195  1.781 1.562  2.172 1.172  C 2.562 0.781  3.195 0.781  3.586 1.172  L 7.828 5.414  C 8.219 5.805  8.219 6.438  7.828 6.828  Z M 1.172 10.172  C 1.562 9.781  2.195 9.781  2.586 10.172  L 4.828 12.414  C 5.219 12.805  5.219 13.438  4.828 13.828  C 4.438 14.219  3.805 14.219  3.414 13.828  L 1.172 11.586  C 0.781000000000001 11.195  0.781000000000001 10.562  1.172 10.172  Z M 27.828 14.828  C 27.438 15.219  26.805 15.219  26.414 14.828  L 22.172 10.586  C 21.781 10.195  21.781 9.562  22.172 9.172  C 22.562 8.781  23.195 8.781  23.586 9.172  L 27.828 13.414  C 28.219 13.805  28.219 14.438  27.828 14.828  Z M 29.828 22.414  C 30.219 22.805  30.219 23.438  29.828 23.828  C 29.438 24.219  28.805 24.219  28.414 23.828  L 26.172 21.586  C 25.781 21.195  25.781 20.562  26.172 20.172  C 26.562 19.781  27.195 19.781  27.586 20.172  L 29.828 22.414  Z M 22.868 23.785  C 22.868 19.134  14.464 5.457  14.464 5.457  C 14.464 5.457  6.059 19.134  6.059 23.785  C 6.059 28.435  9.822 32.206  14.464 32.206  C 19.105 32.206  22.868 28.435  22.868 23.785  Z " fill-rule="nonzero" fill="#00ffff" stroke="none" transform="matrix(1 0 0 1 1560 250 )" />
  </g>
</svg>