<?xml version="1.0" encoding="utf-8"?>
<svg version="1.1" xmlns:xlink="http://www.w3.org/1999/xlink" width="32px" height="21px" xmlns="http://www.w3.org/2000/svg">
  <g transform="matrix(1 0 0 1 -1562 -357 )">
    <path d="M 8.356 13.358  C 8.356 13.997  7.838 14.515  7.199 14.515  L 4.061 14.515  C 3.422 14.515  2.904 13.997  2.904 13.358  C 2.904 12.719  3.422 12.2  4.061 12.2  L 7.199 12.2  C 7.838 12.2  8.356 12.719  8.356 13.358  Z M 10.644 17.058  C 10.644 18.21  9.71 19.143  8.558 19.143  L 2.277 19.143  C 1.125 19.143  0.191000000000001 18.21  0.191000000000001 17.058  C 0.191000000000001 15.906  1.125 14.972  2.277 14.972  L 8.558 14.972  C 9.71 14.972  10.644 15.906  10.644 17.058  Z M 31 20.543  L 20.644 20.543  L 20.644 0.171999999999997  L 31 0.171999999999997  L 31 20.543  Z " fill-rule="nonzero" fill="#c56708" stroke="none" transform="matrix(1 0 0 1 1562 357 )" />
  </g>
</svg>