<?xml version="1.0" encoding="utf-8"?>
<svg version="1.1" xmlns:xlink="http://www.w3.org/1999/xlink" width="28px" height="27px" xmlns="http://www.w3.org/2000/svg">
  <g transform="matrix(1 0 0 1 -1782 -258 )">
    <path d="M 13.316 24  C 13.316 25.657  11.973 27  10.316 27  L 3 27  C 1.34299999999999 27  0 25.657  0 24  L 0 16.684  C 0 15.027  1.34299999999999 13.684  3 13.684  L 10.316 13.684  C 11.973 13.684  13.316 15.027  13.316 16.684  L 13.316 24  Z M 13.316 9.316  C 13.316 10.973  11.973 12.316  10.316 12.316  L 3 12.316  C 1.34299999999999 12.316  0 10.973  0 9.316  L 0 3  C 0 1.343  1.34299999999999 0  3 0  L 10.316 0  C 11.973 0  13.316 1.343  13.316 3  L 13.316 9.316  Z M 28 24  C 28 25.657  26.657 27  25 27  L 17.684 27  C 16.027 27  14.684 25.657  14.684 24  L 14.684 16.684  C 14.684 15.027  16.027 13.684  17.684 13.684  L 25 13.684  C 26.657 13.684  28 15.027  28 16.684  L 28 24  Z M 25.937 5.817  C 25.937 6.384  25.478 6.844  24.911 6.844  L 22.531 6.844  L 22.531 9.224  C 22.531 9.79  22.072 10.25  21.505 10.25  L 21.495 10.25  C 20.928 10.25  20.469 9.79  20.469 9.224  L 20.469 6.844  L 18.089 6.844  C 17.522 6.844  17.062 6.384  17.062 5.817  L 17.062 5.808  C 17.062 5.241  17.522 4.781  18.089 4.781  L 20.469 4.781  L 20.469 2.401  C 20.469 1.834  20.928 1.375  21.495 1.375  L 21.505 1.375  C 22.072 1.375  22.531 1.834  22.531 2.401  L 22.531 4.781  L 24.911 4.781  C 25.478 4.781  25.937 5.241  25.937 5.808  L 25.937 5.817  Z M 11 8  L 11 4  C 11 2.895  10.104 2  9 2  L 4 2  C 2.89500000000001 2  2 2.895  2 4  L 2 8  C 2 9.105  2.89500000000001 10  4 10  L 9 10  C 10.104 10  11 9.105  11 8  Z M 26 23  L 26 18  C 26 16.895  25.104 16  24 16  L 19 16  C 17.895 16  17 16.895  17 18  L 17 23  C 17 24.105  17.895 25  19 25  L 24 25  C 25.104 25  26 24.105  26 23  Z M 11 23  L 11 18  C 11 16.895  10.104 16  9 16  L 4 16  C 2.89500000000001 16  2 16.895  2 18  L 2 23  C 2 24.105  2.89500000000001 25  4 25  L 9 25  C 10.104 25  11 24.105  11 23  Z " fill-rule="nonzero" fill="#00ffff" stroke="none" transform="matrix(1 0 0 1 1782 258 )" />
  </g>
</svg>