<?xml version="1.0" encoding="utf-8"?>
<svg version="1.1" xmlns:xlink="http://www.w3.org/1999/xlink" width="33px" height="34px" xmlns="http://www.w3.org/2000/svg">
  <g transform="matrix(1 0 0 1 -1782 -351 )">
    <path d="M 5.18000000000001 2.44199999999999  C 5.18000000000001 2.895  4.84399999999999 3.26300000000001  4.41300000000001 3.312  L 4.41300000000001 3.322  L 2.494 3.322  C 2.06999999999999 3.322  1.727 3.672  2 4.10299999999999  L 2 29.897  C 1.727 30.328  2.06999999999999 30.678  2.494 30  L 14.965 30  L 14.965 30.688  C 14.997 30.684  15.028 30.678  15.061 30.678  C 15.538 30.678  15.924 31.072  15.924 31.557  C 15.924 32.043  15.538 32.437  15.061 32.437  C 15.028 32.437  14.997 32.431  14.965 32.427  L 14.965 32  L 0.766999999999996 32  C 0.342999999999989 32.437  0 32.087  0 31.655  L 0 2.345  C 0 1.913  0.342999999999989 1.563  0.766999999999996 1.563  L 4.41300000000001 1.563  L 4.41300000000001 1.57299999999999  C 4.84399999999999 1.622  5.18000000000001 1.98999999999999  5.18000000000001 2.44199999999999  Z M 33 25.402  C 33 30.151  29.22 34  24.558 34  C 19.896 34  16.116 30.151  16.116 25.402  C 16.116 20.654  19.896 16.805  24.558 16.805  C 29.22 16.805  33 20.654  33 25.402  Z M 31.081 25.402  C 31.081 21.625  28.075 18.563  24.366 18.563  C 20.658 18.563  17.651 21.625  17.651 25.402  C 17.651 29.179  20.658 32.241  24.366 32.241  C 28.075 32.241  31.081 29.179  31.081 25.402  Z M 8.25 4.10299999999999  C 8.25 4.535  7.90600000000001 4.88500000000001  7.483 4.88500000000001  C 7.059 4.88500000000001  6.715 4.535  6.715 4.10299999999999  L 6.715 0.781999999999996  C 6.715 0.349999999999994  7.059 0  7.483 0  C 7.90600000000001 0  8.25 0.349999999999994  8.25 0.781999999999996  L 8.25 4.10299999999999  Z M 19.186 11.04  C 19.186 11.526  18.799 11.919  18.323 12  L 6.42699999999999 12  C 5.94999999999999 11.919  5.56399999999999 11.526  5.56399999999999 11.04  C 5.56399999999999 10.555  5.94999999999999 10.161  6.42699999999999 10.161  L 18.323 10.161  C 18.799 10.161  19.186 10.555  19.186 11.04  Z M 18.227 4.10299999999999  C 18.227 4.535  17.883 4.88500000000001  17.459 4.88500000000001  C 17.035 4.88500000000001  16.692 4.535  16.692 4.10299999999999  L 16.692 0.781999999999996  C 16.692 0.349999999999994  17.035 0  17.459 0  C 17.883 0  18.227 0.349999999999994  18.227 0.781999999999996  L 18.227 4.10299999999999  Z M 25.134 14.557  C 25.134 15.043  24.747 15.437  24.27 15.437  C 23.793 15.437  23.407 15.043  23.407 14.557  C 23.407 14.524  23.413 14.492  23.417 14.46  L 23 14.46  L 23 4.10299999999999  C 23.407 3.672  23.063 3.322  22.639 3.322  L 21.296 3.322  L 21.296 3.268  C 21.206 3.301  21.11 3.322  21.009 3.322  C 20.532 3.322  20.145 2.928  20.145 2.44199999999999  C 20.145 1.95699999999999  20.532 1.563  21.009 1.563  C 21.11 1.563  21.206 1.584  21.296 1.617  L 21.296 1.563  L 24.366 1.563  C 24.79 1.563  25.134 1.913  25 2.345  L 25 14.46  L 25.124 14.46  C 25.128 14.492  25.134 14.524  25.134 14.557  Z M 5.756 17.879  C 5.756 17.394  6.142 17  6.619 17  L 14.102 17  C 14.579 17  14.965 17.394  14.965 17.879  C 14.965 18.365  14.579 18.759  14.102 18.759  L 6.619 18.759  C 6.142 18.759  5.756 18.365  5.756 17.879  Z M 5.756 24.718  C 5.756 24.233  6.142 23.839  6.619 23.839  L 9.881 23.839  C 10.358 23.839  10.744 24.233  10.744 24.718  C 10.744 25.204  10.358 25.598  9.881 25.598  L 6.619 25.598  C 6.142 25.598  5.756 25.204  5.756 24.718  Z M 14.965 2.44199999999999  C 14.965 2.895  14.629 3.26300000000001  14.198 3.312  L 14.198 3.322  L 10.936 3.322  L 10.936 3.312  C 10.904 3.316  10.873 3.322  10.84 3.322  C 10.363 3.322  9.977 2.928  9.977 2.44199999999999  C 9.977 1.95699999999999  10.363 1.563  10.84 1.563  C 10.873 1.563  10.904 1.569  10.936 1.57299999999999  L 10.936 1.563  L 14.198 1.563  L 14.198 1.57299999999999  C 14.629 1.622  14.965 1.98999999999999  14.965 2.44199999999999  Z M 28.395 26.477  C 28.395 26.963  28.009 27.356  27.532 27.356  L 24.462 27.356  C 24.175 27.356  23.922 27.212  23.765 26.992  C 23.549 26.832  23.407 26.574  23.407 26.282  L 23.407 22.374  C 23.407 21.888  23.793 21.494  24.27 21.494  C 24.747 21.494  25.134 21.888  25.134 22.374  L 25.134 25.598  L 27.532 25.598  C 28.009 25.598  28.395 25.991  28.395 26.477  Z " fill-rule="nonzero" fill="#00ffff" stroke="none" transform="matrix(1 0 0 1 1782 351 )" />
  </g>
</svg>