<?xml version="1.0" encoding="utf-8"?>
<svg version="1.1" xmlns:xlink="http://www.w3.org/1999/xlink" width="40px" height="31px" xmlns="http://www.w3.org/2000/svg">
  <g transform="matrix(1 0 0 1 -1554 -347 )">
    <path d="M 26.808 18.286  C 26.808 19.942  25.465 21.286  23.809 21.286  L 17.252 21.286  C 17.253 21.3  17.261 21.313  17.261 21.328  L 17.261 24.057  L 19.048 24.057  C 19.324 24.057  19.548 24.281  19.548 24.557  L 19.548 29.585  C 19.548 29.861  19.324 30.085  19.048 30  L 8.239 30  C 7.963 30.085  7.739 29.861  7.739 29.585  L 7.739 24.557  C 7.739 24.281  7.963 24.057  8.239 24.057  L 10 24.057  L 10 21.328  C 10 21.313  10.007 21.3  10.009 21.286  L 3 21.286  C 1.343 21.286  0 19.942  0 18.286  L 0 3  C 0 1.343  1.343 0  3 0  L 23.809 0  C 25.465 0  26.808 1.343  26.808 3  L 26.808 18.286  Z M 40 29  C 40 30.105  39.105 31  38 31  L 29.261 31  C 28.156 31  27.261 30.105  27 29  L 27 11.257  C 27.261 10.152  28.156 9.25700000000001  29.261 9.25700000000001  L 38 9.25700000000001  C 39.105 9.25700000000001  40 10.152  40 11.257  L 40 29  Z M 11.356 24.057  L 15.904 24.057  L 15.904 22.685  L 11.356 22.685  L 11.356 24.057  Z M 25 15.971  L 25 4.857  C 25 3.2  23.657 1.857  22 2  L 4.808 2  C 3.152 1.857  1.808 3.2  2 4.857  L 2 15.971  C 1.808 17.628  3.152 18.971  4.808 19  L 22 19  C 23.657 18.971  25 17.628  25 15.971  Z M 38 28.601  L 38 11.629  C 38.644 11.077  38.196 10.629  37.644 10.629  L 29.644 10.629  C 29.091 10.629  28.644 11.077  28 11.629  L 28 28.601  C 28.644 29.153  29.091 29.601  29.644 29.601  L 37.644 29.601  C 38.196 29.601  38.644 29.153  38 28.601  Z M 18.191 25.914  L 9.096 25.914  L 9.096 28.228  L 18.191 28.228  L 18.191 25.914  Z " fill-rule="nonzero" fill="#00ffff" stroke="none" transform="matrix(1 0 0 1 1554 347 )" />
  </g>
</svg>