<?xml version="1.0" encoding="utf-8"?>
<svg version="1.1" xmlns:xlink="http://www.w3.org/1999/xlink" width="43px" height="30px" xmlns="http://www.w3.org/2000/svg">
  <g transform="matrix(1 0 0 1 -1668 -351 )">
    <path d="M 43 27  C 43 28.657  41.657 30  40 30  L 3 30  C 1.343 30  0 28.657  0 27  L 0 7.32299999999999  L 7.116 0  L 40 0  C 41.657 0  43 1.343  43 3  L 43 27  Z M 41 25  L 41 5  C 41 3.343  39.657 2  38 2  L 8.193 2  L 2 8.999  L 2 11.101  C 2.158 11.044  2.32299999999999 11  2.5 11  L 7.5 11  C 8.328 11  9 11.672  9 12.5  C 9 13.328  8.328 14  7.5 14  L 2.5 14  C 2.32299999999999 14  2.158 13.956  2 13.899  L 2 16.101  C 2.158 16.044  2.32299999999999 16  2.5 16  L 7.5 16  C 8.328 16  9 16.672  9 17.5  C 9 18.328  8.328 19  7.5 19  L 2.5 19  C 2.32299999999999 19  2.158 18.956  2 18.899  L 2 21.101  C 2.158 21.044  2.32299999999999 21  2.5 21  L 7.5 21  C 8.328 21  9 21.672  9 22.5  C 9 23.328  8.328 24  7.5 24  L 2.5 24  C 2.32299999999999 24  2.158 23.956  2 23.899  L 2 25  C 2 26.657  3.343 28  5 28  L 38 28  C 39.657 28  41 26.657  41 25  Z M 38 12  C 38 14.761  35.761 17  33 17  L 31 17  C 28.238 17  26 14.761  26 12  L 26 10  C 26 7.239  28.238 5  31 5  L 33 5  C 35.761 5  38 7.239  38 10  L 38 12  Z M 36.219 12.219  L 36.219 9.78100000000001  C 36.219 8.124  34.876 6.78100000000001  33.219 6.78100000000001  L 30.781 6.78100000000001  C 29.124 6.78100000000001  27.781 8.124  27.781 9.78100000000001  L 27.781 12.219  C 27.781 13.876  29.124 15.219  30.781 15.219  L 33.219 15.219  C 34.876 15.219  36.219 13.876  36.219 12.219  Z " fill-rule="nonzero" fill="#00ffff" stroke="none" transform="matrix(1 0 0 1 1668 351 )" />
  </g>
</svg>