<?xml version="1.0" encoding="utf-8"?>
<svg version="1.1" xmlns:xlink="http://www.w3.org/1999/xlink" width="43px" height="30px" xmlns="http://www.w3.org/2000/svg">
  <g transform="matrix(1 0 0 1 -1668 -256 )">
    <path d="M 43 27  C 43 28.657  41.657 30  40 30  L 3 30  C 1.343 30  0 28.657  0 27  L 0 7.323  L 7.116 0  L 40 0  C 41.657 0  43 1.343  43 3  L 43 27  Z M 41 25  L 41 5  C 41 3.343  39.657 2  38 2  L 8.193 2  L 2 8.999  L 2 25  C 2 26.657  3.343 28  5 28  L 38 28  C 39.657 28  41 26.657  41 25  Z M 36 18  C 36 20.761  33.761 23  31 23  L 25 23  C 22.238 23  20 20.761  20 18  L 20 12  C 20 9.239  22.238 7  25 7  L 31 7  C 33.761 7  36 9.239  36 12  L 36 18  Z M 34.222 18.222  L 34.222 11.778  C 34.222 10.121  32.879 8.778  31.222 8.778  L 24.778 8.778  C 23.121 8.778  21.778 10.121  21.778 11.778  L 21.778 18.222  C 21.778 19.879  23.121 21.222  24.778 21.222  L 31.222 21.222  C 32.879 21.222  34.222 19.879  34.222 18.222  Z M 31.555 15  C 31.555 15.491  31.158 15.889  30.667 15.889  L 28.889 15.889  L 28.889 17.667  C 28.889 18.158  28.491 18.556  28 18.556  C 27.509 18.556  27.111 18.158  27.111 17.667  L 27.111 15.889  L 25.333 15.889  C 24.842 15.889  24.444 15.491  24.444 15  C 24.444 14.509  24.842 14.111  25.333 14.111  L 27.111 14.111  L 27.111 12.333  C 27.111 11.842  27.509 11.444  28 11.444  C 28.491 11.444  28.889 11.842  28.889 12.333  L 28.889 14.111  L 30.667 14.111  C 31.158 14.111  31.555 14.509  31.555 15  Z " fill-rule="nonzero" fill="#00ffff" stroke="none" transform="matrix(1 0 0 1 1668 256 )" />
  </g>
</svg>