<?xml version="1.0" encoding="utf-8"?>
<svg version="1.1" xmlns:xlink="http://www.w3.org/1999/xlink" width="30px" height="30px" xmlns="http://www.w3.org/2000/svg">
  <g transform="matrix(1 0 0 1 -1426 -1133 )">
    <path d="M 1441 1134  C 1448.84 1134  1455 1140.16  1455 1148  C 1455 1155.84  1448.84 1162  1441 1162  C 1433.16 1162  1427 1155.84  1427 1148  C 1427 1140.16  1433.16 1134  1441 1134  Z " fill-rule="nonzero" fill="#d9001b" stroke="none" />
    <path d="M 1441 1134  C 1448.84 1134  1455 1140.16  1455 1148  C 1455 1155.84  1448.84 1162  1441 1162  C 1433.16 1162  1427 1155.84  1427 1148  C 1427 1140.16  1433.16 1134  1441 1134  Z " stroke-width="2" stroke="#d9001b" fill="none" />
  </g>
</svg>