<?xml version="1.0" encoding="utf-8"?>
<svg version="1.1" xmlns:xlink="http://www.w3.org/1999/xlink" width="13px" height="13px" xmlns="http://www.w3.org/2000/svg">
  <g transform="matrix(1 0 0 1 -1338 -1360 )">
    <path d="M 1344.5 1361  C 1347.58 1361  1350 1363.42  1350 1366.5  C 1350 1369.58  1347.58 1372  1344.5 1372  C 1341.42 1372  1339 1369.58  1339 1366.5  C 1339 1363.42  1341.42 1361  1344.5 1361  Z " fill-rule="nonzero" fill="#ffffff" stroke="none" />
    <path d="M 1344.5 1361  C 1347.58 1361  1350 1363.42  1350 1366.5  C 1350 1369.58  1347.58 1372  1344.5 1372  C 1341.42 1372  1339 1369.58  1339 1366.5  C 1339 1363.42  1341.42 1361  1344.5 1361  Z " stroke-width="2" stroke="#d9001b" fill="none" />
  </g>
</svg>